<?xml version="1.0" encoding="utf-8"?>
<!-- Generator: Adobe Illustrator 27.3.1, SVG Export Plug-In . SVG Version: 6.00 Build 0)  -->
<svg version="1.1" id="Layer_1" xmlns="http://www.w3.org/2000/svg" xmlns:xlink="http://www.w3.org/1999/xlink" x="0px" y="0px"
	 viewBox="0 0 349.1 185.3" style="enable-background:new 0 0 349.1 185.3;" xml:space="preserve">
<style type="text/css">
	.st0{fill:#2AD1E2;}
	.st1{fill:#EFF6F6;}
	.st2{fill:#25B5C4;}
	.st3{fill:#2ADBE2;}
	.st4{fill:#1B7F91;}
	.st5{fill:#209AAD;}
	.st6{fill:#2FFDFA;}
	.st7{fill:#0F404F;}
	.st8{fill:#14526A;}
	.st9{fill:#27B3CF;}
	.st10{fill:#2ABBE0;}
	.st11{fill:#DDE8E7;}
	.st12{fill:#F6F0CC;}
	.st13{fill:#FFFFFF;}
	.st14{fill:none;stroke:#DDD990;stroke-width:0.87;stroke-miterlimit:10;}
	.st15{fill:none;stroke:#DDD990;stroke-width:0.75;stroke-miterlimit:10;}
	.st16{fill:#2BCEE7;}
</style>
<g id="Layer_2_00000060714506508907980140000000746442011299719085_">
	<g id="OBJECTS">
		<path d="M269.9,177.6c-2.5,3.2-5.4,5.6-4.8,6.8c0,0,1.3,1,5,1c6.3,0,12.5-0.5,11.5-1.1c-1.4-0.9-5.5-1.2-9.4-2.6
			c-1-0.3,2.1-2.2,1.3-2.5C272.2,178.8,271,178.3,269.9,177.6z"/>
		<path d="M334.8,184.2c0,0,0.8,1.2,4,1.2c5.5,0,11.1-0.7,10.2-1.3c-1.2-0.8-10.8-2.8-10.8-2.8l-2.1-2.7l-3.6,2L334.8,184.2z"/>
		<path class="st0" d="M317.5,103.8c-2.4,0-4.8-0.3-7.1-0.8c-2-0.6-3.2-2.7-2.7-4.7c0.6-2,2.7-3.2,4.7-2.7c0.1,0,8.7,2.2,13.8-2.1
			c3.4-2.9,4.6-8.3,3.8-16.2l-0.3-2.5l7.7-4.4c1.9-1,4.2-0.3,5.2,1.6c1,1.8,0.3,4-1.4,5.1l-3.4,1.9c0.5,9.2-1.7,16-6.7,20.3
			C326.9,103,321.7,103.8,317.5,103.8z"/>
		<path class="st1" d="M330.8,82.6c-0.1,5.6-1.6,9.6-4.4,12c-5.5,4.7-15,2.3-15.1,2.3c-2.2-0.6-4.6,0.7-5.2,2.9s0.7,4.6,2.9,5.2
			c2.5,1.1,5.1,1.6,7.8,1.5c16.3-0.6,26.1-14.6,26.3-22.8L330.8,82.6z"/>
		<path class="st2" d="M308.4,63.1c-1.5-0.7-2.9-1.4-4.3-2.1c-13.5,7.7-30.7,17.5-31.1,17.9c0,0,8.6,13.7,9.1,14.2
			c0.4,0.3,21.6-14.9,36.9-25.9C315.5,65.8,311.8,64.7,308.4,63.1z"/>
		<path class="st3" d="M308.6,62.7c3.5,1.6,7.2,2.7,10.8,4.1c8.4-6.1,14.9-10.8,14.9-10.8L320,52l-15.5,8.8
			C305.9,61.5,307.2,62.1,308.6,62.7z"/>
		<polygon class="st4" points="283.8,44.8 292.3,67.8 308.8,73.8 287.9,35.5 		"/>
		<polygon class="st4" points="309.7,79.5 297.5,79.5 308.4,98.5 325,105.6 		"/>
		<path class="st5" d="M325,105.6l-9.7-16.7l-41.8,24.5l-8.2-14l5.2-83.3l18.8-11L323,62.7l11.4-6.7l9.5,16.1l-11.4,6.7l9.8,16.7
			L325,105.6z M287.1,40.9l-1.1,0.6L283.2,86l22.6-13.2L287.1,40.9z"/>
		<polygon class="st2" points="251.4,95.6 265.3,99.4 273.5,113.4 258.8,109.7 		"/>
		<polygon class="st3" points="251.4,95.6 265.3,99.4 270.4,16.1 257.7,13 		"/>
		<polygon class="st6" points="257.7,13 270.4,16.1 289.2,5.1 276.3,1.3 		"/>
		<path class="st7" d="M285.6,128.8c0,0,2,22,2,29.7c0,0-16,12.5-20,19c1.7,1.3,5,3,7.2,2.9c6.9-6.5,14.4-12.4,22.4-17.5
			c0,0,5.1-14.7,6.6-27.1L285.6,128.8z"/>
		<path class="st1" d="M297.1,129.8c3.6,0.1,7.2-0.7,10.4-2.3c-1-4.4,1.2-17.4,4-24.3c0,0,2.2-4.8,0.6-6.3c-5.7-5.5-10.5-5-12.1-5.1
			c-5.2,4.4-15,17.5-14.6,34.7C288.1,129.3,293.6,129.8,297.1,129.8z"/>
		<path class="st8" d="M332.4,181.2c2.1-0.5,4-1.6,5.4-3.2c-6.2-10-28.9-46.9-30.1-49.8c0-0.1-0.1-0.2-0.1-0.2
			c-3.5,1.7-7.3,2.5-11.2,2.3c-3.4-0.1-8.2-0.6-11-3.1c0,0.2,0,0.4,0,0.5c0.5,9.6,32.4,41.7,45,54
			C331.1,181.6,331.8,181.4,332.4,181.2z"/>
		<path class="st0" d="M266.5,119.8c-3.6,0.1-6.7-2.4-7.5-5.9c-0.7-2,0.4-4.2,2.4-4.8c2-0.7,4.2,0.4,4.8,2.4c0,0.1,0,0.1,0.1,0.2
			c0,0.2,0.1,0.3,0.2,0.5c0.4,0,1.9-0.1,5.6-2.3c3.3-1.9,7.2-4.8,11-7.6c6.4-4.7,12.4-9.2,17.4-10.7c2-0.6,4.2,0.5,4.8,2.5
			c0.6,2-0.5,4.2-2.5,4.8c-3.8,1.2-9.5,5.5-15.1,9.6C279.5,114.5,272.2,119.8,266.5,119.8z"/>
		<path class="st0" d="M273.7,117c-0.5-2.2-1-4.7-2.4-6.6c-3.1,1.7-4.4,1.8-4.8,1.8c-0.1-0.2-0.1-0.3-0.2-0.5
			c-0.5-2-2.6-3.3-4.7-2.7c-2,0.5-3.3,2.6-2.7,4.7c0,0.1,0,0.1,0.1,0.2c0.8,3.5,3.9,6,7.5,5.9c2.6-0.1,5.1-0.9,7.3-2.1L273.7,117z"
			/>
		<path class="st1" d="M305.2,94c-0.6-2-2.8-3.1-4.8-2.5c0,0,0,0,0,0c-5,1.6-11,6-17.4,10.7c-3.8,2.8-7.7,5.7-11,7.6l-0.4,0.2
			c1.4,1.9,3.9,11.2,4,11.4c4.1-2.1,23.5-16.9,27.8-21.4C304.8,98.6,305.9,96.1,305.2,94z"/>
		<path class="st0" d="M261.1,116.7c-0.2,0-0.5-0.1-0.7-0.2c-3-2.1-4.6-6.3-4.6-6.4c-0.3-0.6,0-1.2,0.5-1.5c0.6-0.3,1.2,0,1.5,0.5
			c0,0.1,0,0.1,0.1,0.2l0,0c0,0,1.4,3.7,3.8,5.4c0.5,0.4,0.6,1.1,0.2,1.6C261.7,116.5,261.4,116.7,261.1,116.7L261.1,116.7z"/>
		<path class="st0" d="M261.1,114c-0.4,0-0.7-0.2-0.9-0.5c-1.4-2-2.6-6.9-2.7-7.4c-0.1-0.6,0.2-1.2,0.9-1.3c0.6-0.1,1.2,0.2,1.3,0.8
			c0,0,0,0,0,0c0.3,1.4,1.4,5.2,2.4,6.6c0.4,0.5,0.2,1.2-0.3,1.6c0,0,0,0,0,0C261.6,113.9,261.3,114,261.1,114z"/>
		<path class="st0" d="M262.6,113.3c-0.4,0-0.8-0.3-1-0.7c-1-2.5-1.4-7.8-1.5-8c0-0.6,0.4-1.2,1-1.2s1.2,0.4,1.2,1
			c0.2,2.5,0.6,5,1.3,7.4c0.2,0.6,0,1.2-0.6,1.5c0,0,0,0,0,0C263,113.4,262.8,113.4,262.6,113.3z"/>
		<path class="st0" d="M264.3,112.8c-0.5,0-1-0.3-1.1-0.8c-0.4-1.9-0.4-3.8,0-5.7c0.1-0.6,0.7-1,1.4-0.8c0.6,0.1,1,0.7,0.8,1.3
			c-0.3,1.5-0.3,3.1,0,4.6c0.2,0.6-0.2,1.2-0.8,1.4C264.5,112.8,264.4,112.8,264.3,112.8z"/>
		<path class="st0" d="M309.6,100.2c-0.5,0-1.1-0.1-1.5-0.3c-1.8-0.8-2.6-3-1.7-4.8c0,0,0,0,0,0c0.7-1.4,1.6-2.8,2.7-4
			c1.3-1.5,3.6-1.7,5.1-0.4s1.7,3.6,0.4,5.1l0,0l0,0c-0.6,0.8-1.2,1.6-1.7,2.5C312.2,99.4,311,100.2,309.6,100.2z"/>
		<path class="st9" d="M310.1,98.3c0.4,0.5,0.9,0.9,1.3,1.3c0.6-0.4,1.1-0.9,1.4-1.5c0.5-0.9,1-1.7,1.7-2.5c1.3-1.5,1.1-3.8-0.4-5.1
			c-1.5-1.3-3.8-1.1-5.1,0.4c-0.1,0.1-0.4,0.4-0.7,0.9C308.3,94.2,308.5,96.6,310.1,98.3z"/>
		<path class="st0" d="M321.9,94.3c-1.4,3.5-5.4,5.1-8.9,3.7l0,0c-3.5-1.4-5.1-5.4-3.7-8.9l1.8-4.4c1.4-3.5,5.4-5.1,8.9-3.7l0,0
			c3.5,1.4,5.1,5.4,3.7,8.9c0,0,0,0,0,0L321.9,94.3z"/>
		<path d="M310.1,88.6c-0.5,2.3-3.9,1.6-5.2,0.4c-1.7-1.7-2.8-6.4,1.1-6.2c-2.8-4.2,6.6-8.7,7.6-3.9c0.7-1.2,1.5-2.4,3.1-2.5
			c1.2-0.1,3.2,0.8,3.1,2.3c1.8-1.3,4.3-1.3,6,0.1c0.5,0.4,1.5,1.4,1,2.2c-0.3,0.4-1.7,0.5-2.2,0.7c0.8-0.4,4.2,0.4,3.5,1.8
			c-0.3,0.7-2,0.1-2.4-0.1c0,0,0,0.1,0,0.2c1.8,1,2.5,2,2.3,4.2c-0.1,1-0.6,3-1.8,3.1c-0.6,0.1-1.4-0.3-1.3-1
			c1.5,1.5-0.6,5.5-2.5,3.5c-0.6-0.9-0.5-2,0.3-2.7c-1.1-0.7-3.5-4.1-1.8-5c-0.8,0-4.5-1.2-3.4-2.3c0.3,1.2-1.2,2.9-2.5,2.2
			c0.8,1.7-1.5,2.9-2.9,3c0.8,1.1-1.8,2.3-2.6,0.8L310.1,88.6z"/>
		<path class="st10" d="M182.2,75c0,0-2.2-8.4,8.6-10.4L190,74.7L182.2,75z"/>
		<path class="st11" d="M138.7,96.2c-2.3,0-4.5-0.5-6.6-1.4c-9.8-4.7-10.9-18.6-11-19.2c-0.1-2.1,1.4-3.9,3.5-4.1
			c2.1-0.1,3.9,1.4,4.1,3.5c0.2,2.8,1.8,10.6,6.6,12.9c4,1.9,10.1,0,17.8-5.5c1.8-1.1,4.1-0.6,5.3,1.1c1.1,1.7,0.7,3.9-0.9,5.1
			C150.5,93.6,144.2,96.2,138.7,96.2z"/>
		<path class="st3" d="M159.1,103.3c1.1-2.8,2-5.6,3.2-8.4c-0.8-0.1-1.6-0.2-2.3-0.3c-3.5-0.6-6.8-2.2-9.4-4.5
			c-2.7-2.4-4.7-5.4-6-8.8c-1.5-3.9-2.3-8-2.4-12.1c-0.2-4.8,0.2-9.6,1.1-14.3c0.9-4.7,2.3-9.4,4.3-13.8c1.7-3.8,3.9-7.2,6.7-10.3
			c2.4-2.7,5.4-4.7,8.8-6c6.1-2.1,12.9-1.2,18.2,2.6c1.1-2.2,2.2-4.3,3.4-6.4c1.3-2.5,2.5-5.1,3.7-7.6c0.5-1.1,0.9-2.2,1.4-3.4
			c-3.9-2.2-8.2-3.7-12.6-4.5c-6.2-1.3-12.6-1-18.7,0.7C152.4,8,147,11,142.5,15c-4.9,4.4-8.9,9.6-11.9,15.4
			c-3.4,6.5-5.8,13.5-7.1,20.7c-1.4,7.2-1.8,14.6-1.1,21.8c0.6,6.5,2.5,12.9,5.4,18.7c2.8,5.4,6.7,10.2,11.4,14
			c4.6,3.6,10,6.1,15.8,7.3C156.4,109.8,157.8,106.6,159.1,103.3z"/>
		<path class="st4" d="M210.9,45.8c-0.6-6.5-2.4-12.9-5.4-18.7c-2.8-5.4-6.7-10.2-11.4-14c-1.3-1-2.7-1.9-4.1-2.7
			c-0.4,1.1-0.9,2.2-1.4,3.4c-1.2,2.6-2.4,5.1-3.7,7.6c-1.1,2.1-2.3,4.3-3.4,6.5c0.4,0.3,0.8,0.6,1.1,0.9c2.6,2.4,4.7,5.5,6,8.8
			c1.5,3.8,2.4,7.9,2.5,12c0.2,4.8-0.2,9.6-1.1,14.4c-0.9,4.7-2.3,9.3-4.2,13.7c-1.7,3.8-4,7.3-6.8,10.3c-2.5,2.7-5.5,4.7-8.9,6
			c-2.4,0.9-4.9,1.3-7.4,1.1c-1.3,3-2.4,6.1-3.5,9.2s-2.4,6-3.8,8.9l0.9,0.2c6.2,1.3,12.6,1,18.7-0.7c5.8-1.7,11.2-4.7,15.8-8.8
			c4.9-4.4,8.9-9.6,11.9-15.4c3.4-6.5,5.8-13.5,7.1-20.7C211.3,60.5,211.6,53.1,210.9,45.8z"/>
		<path class="st5" d="M168.1,117.3c-6.2-1.1-12.1-3.7-17.1-7.6c-4.8-3.8-8.7-8.6-11.4-14c-3-5.8-4.8-12.2-5.4-18.7
			c-0.7-7.3-0.4-14.7,1.1-21.9c1.3-7.2,3.7-14.2,7.1-20.7c3-5.8,7-11.1,11.9-15.4c4.6-4,10-7,15.8-8.8c12.4-3.4,25.6-0.8,35.8,6.8
			c4.8,3.8,8.7,8.6,11.4,14c2.9,5.9,4.8,12.2,5.4,18.7c0.7,7.3,0.4,14.7-1.1,21.9c-1.3,7.2-3.7,14.2-7.1,20.7
			c-3,5.8-7,11.1-11.9,15.4c-4.6,4-10,7-15.8,8.8C180.7,118.3,174.3,118.6,168.1,117.3z M171.6,98.6c3.4,0.7,7,0.4,10.3-0.8
			c3.4-1.3,6.4-3.3,8.9-6c2.8-3,5.1-6.5,6.8-10.3c2-4.4,3.4-9,4.2-13.7c1-4.7,1.3-9.6,1.1-14.4c-0.2-4.1-1-8.2-2.5-12
			c-1.3-3.4-3.4-6.4-6-8.8c-2.6-2.3-5.8-3.9-9.3-4.5c-3.5-0.7-7.1-0.5-10.4,0.7c-3.4,1.3-6.4,3.3-8.8,6c-2.8,3-5,6.5-6.7,10.3
			c-2,4.4-3.4,9-4.3,13.8c-0.9,4.7-1.3,9.5-1.1,14.3c0.1,4.1,1,8.2,2.4,12.1c1.3,3.4,3.3,6.4,6,8.8C164.9,96.4,168.2,98,171.6,98.6z
			"/>
		<path d="M235.6,61.1l0.3,14.1c0,0-4,3.6-7.6,0l1.3-15.8L235.6,61.1z"/>
		<path d="M219,173.3c-0.2-0.2-1.8-0.9-2-1.1c-0.7,1.1-1.5,2.1-2.4,3c1.4,1.1,2.1,3,1.8,4.8c-0.8,0.7-1.6,1.3-2.4,1.9
			c-2.2,1.1-6.2,2.6-6.2,2.6l10.2,0.8l7.5-7.7C223.2,176.3,221,174.9,219,173.3z"/>
		<path d="M179.2,173.9c-1.6-0.3-3.7,0.9-5,0c-0.2,1.5-0.3,2.9-0.2,4.4l-15,6.2h19.2c0.2-2.1-0.2-4,0.1-5.9
			C178.3,177.6,179,174.8,179.2,173.9z"/>
		<path class="st11" d="M196.7,105.6l-17,32.3c0,0,6.9,5.8,13.7,7.8l12.8-38.1L196.7,105.6z"/>
		<path class="st7" d="M215.3,176c1-1.1,1.9-2.3,2.7-3.6c-4.4-3.8-6.5-7.6-12.5-14.3c-2.5-2.8,4.1-18.6,5.7-21.3
			c2.9-4.8,3.3-8.2,5.5-16.4l-16.6,6.2c-3.9,14.2-8.6,28.3-3.9,35.1c4.9,7.1,13.5,12.9,17.7,15.8C214,177.6,215.2,175.9,215.3,176z"
			/>
		<path class="st0" d="M187.3,73.4c-0.2,0-0.5-0.1-0.6-0.2c-0.5-0.4-0.6-1.1-0.3-1.6c0,0,0,0,0,0c0.8-1,1.3-2.2,1.6-3.4
			c0.1-0.6,0.7-1,1.3-0.9c0.6,0.1,1,0.7,0.9,1.3c0,0,0,0,0,0c-0.4,1.6-1,3.1-2,4.3C188.1,73.2,187.7,73.4,187.3,73.4z"/>
		<path class="st12" d="M215.5,123.9c4.9-13.6,9.2-34.8,10.7-43.3c-0.8-0.3-1.6-0.6-2.4-0.8c-1.5-0.4-3.2-0.9-4.7-0.4
			c-0.7,0.2-1.5,0.6-2.1,1c-0.4,1.1-0.7,2.2-0.9,3.4c0,0-10.6,20.3-17.5,34.2C204.4,119.1,210.1,121.2,215.5,123.9z"/>
		<path class="st8" d="M198.4,118.3L198.4,118.3c-0.6,1.2-1.2,2.4-1.7,3.5l0,0c-1.4,2.4-2.8,4.6-4.2,6.8
			c-13.7,20.6-18.8,37-19.7,44.8c1.3,1,6.2,1.6,7.9,1.9c2.5-12.9,9.1-21.1,20.8-30.8c3.9-3.2,6.9-7.4,9.4-10.8
			c1.9-2.9,3.4-6,4.5-9.3C210,121.6,204.3,119.5,198.4,118.3z"/>
		<path class="st0" d="M185.1,124c-2.1,0-3.8-1.7-3.9-3.8c0-1.7,1-3.1,2.6-3.7c4.6-1.6,11.8-8,16.6-14.8
			c5.2-7.6,10.9-14.8,16.9-21.8c1.5-1.5,3.9-1.6,5.4-0.1c1.4,1.4,1.6,3.7,0.3,5.2l0,0c-5.8,6.7-11.2,13.8-16.3,21.1
			c-4.7,6.7-13.1,15.1-20.3,17.6C186,123.9,185.5,124,185.1,124z"/>
		<path class="st0" d="M223.5,81.8h-0.3c-2-0.2-3.4-1.9-3.3-3.8c0.2-1.6,0.5-3.2,1-4.7c0.6-1.9,2.7-2.9,4.6-2.2
			c1.9,0.6,2.9,2.7,2.2,4.6c-0.3,0.9-0.5,1.9-0.7,2.9C227,80.4,225.4,81.8,223.5,81.8z"/>
		<path class="st9" d="M224.6,78c0.6,0.7,1.3,1.4,2.1,2c0.3-0.5,0.4-1,0.5-1.5c0.1-1,0.3-2,0.7-2.9c0.7-1.9-0.3-3.9-2.2-4.6
			c-1.5-0.5-3.2,0-4.1,1.4C221.8,74.4,223.4,76.7,224.6,78z"/>
		<path class="st0" d="M233.9,70.2c-0.1,3.8-3.2,6.7-6.9,6.7c0,0,0,0-0.1,0l0,0c-3.8-0.1-6.7-3.2-6.7-7c0,0,0,0,0,0l0.1-4.7
			c0.1-3.8,3.2-6.7,7-6.7c0,0,0,0,0,0l0,0c3.8,0.1,6.7,3.2,6.7,6.9c0,0,0,0,0,0.1L233.9,70.2z"/>
		<path class="st0" d="M179.7,122.9c-1.9-0.1-3.7-0.5-5.4-1.3c-0.6-0.3-0.8-1-0.5-1.5c0.3-0.5,0.8-0.7,1.4-0.6
			c3,1.2,5.3,1.4,6.8,0.5c0.5-0.3,1.2-0.1,1.5,0.5c0.3,0.5,0.1,1.1-0.4,1.5C182.1,122.6,180.9,122.9,179.7,122.9z"/>
		<path class="st0" d="M181.1,124.5c-1.6,0-3.3-0.3-4.9-0.7l-0.5-0.1c-0.6-0.2-0.9-0.8-0.7-1.4c0.2-0.5,0.7-0.9,1.3-0.8l0.5,0.1
			c2.8,0.9,5.7,0.9,8.5,0.1c0.6-0.2,1.2,0.1,1.4,0.7c0.2,0.6-0.1,1.2-0.7,1.4c-0.1,0-0.1,0-0.2,0.1
			C184.3,124.3,182.7,124.5,181.1,124.5z"/>
		<path class="st0" d="M179.6,120.7c-2.2,0-4.4-0.8-6.1-2.3c-0.4-0.4-0.4-1.2,0-1.6c0.4-0.4,1.1-0.5,1.5-0.1c1.7,1.4,4,2,6.2,1.5
			c0.6-0.1,1.2,0.3,1.3,0.9c0.1,0.5-0.2,1.1-0.7,1.3C181.1,120.6,180.4,120.7,179.6,120.7z"/>
		<path class="st0" d="M182,119.5h-0.1c-2.2-0.2-4.3-1.4-5.5-3.3c-0.3-0.6-0.1-1.2,0.5-1.5s1.2-0.1,1.5,0.5l0,0
			c0.9,1.3,2.2,2.1,3.8,2.2c0.6,0,1.1,0.6,1.1,1.2C183.2,119,182.6,119.5,182,119.5L182,119.5z"/>
		<path class="st0" d="M195.4,75h-0.2c-1.9-0.3-7-1.1-8.1-1.1c-0.6,0.1-1.2-0.4-1.2-1c-0.1-0.6,0.4-1.2,1-1.2c0.1,0,0.1,0,0.2,0
			c1.6,0,7.8,1,8.5,1.1c0.6,0.1,1,0.7,0.9,1.3C196.5,74.6,196,75,195.4,75z"/>
		<path class="st0" d="M194.7,77.3c-0.1,0-0.2,0-0.3,0c-2.6-0.7-5.2-1.3-7.9-1.6c-0.6-0.1-1.1-0.7-1-1.3c0.1-0.6,0.5-1,1.1-1
			c2.8,0.3,5.6,0.9,8.3,1.7c0.6,0.2,0.9,0.8,0.8,1.4C195.7,77,195.2,77.3,194.7,77.3z"/>
		<path class="st0" d="M194.2,79.8c-0.1,0-0.2,0-0.4,0c-5.1-1.6-6.3-1.7-7-1.8c-0.3,0-0.6-0.1-0.9-0.2c-0.6-0.2-1-0.8-0.8-1.4
			c0,0,0,0,0,0c0.2-0.6,0.8-1,1.4-0.8c0.2,0,0.4,0.1,0.5,0.1c0.8,0.1,2.2,0.2,7.5,1.9c0.6,0.2,0.9,0.8,0.7,1.4
			C195.1,79.6,194.6,79.9,194.2,79.8L194.2,79.8z"/>
		<path class="st0" d="M192,81.6L192,81.6c-5.2-0.4-5.4-3.1-5.4-3.4l2.3-0.1c0,0,0,0,0-0.1c0,0,0.2,1.1,3.2,1.3c0.6,0.1,1,0.6,1,1.2
			C193,81.2,192.6,81.6,192,81.6z"/>
		<path class="st0" d="M187.7,80.3c-0.8-0.3-1.6-0.5-2.5-0.4c-1.3,0-3-2.2-3-4.4c0,0-0.6-6.6,6.4-3.6L187.7,80.3z"/>
		<path class="st11" d="M209.8,100l-9.8,48.5c0,0,15.2,3.7,24.6-1.7l2.4-67.3C226.9,79.5,216.4,75.8,209.8,100z"/>
		<path class="st1" d="M212.1,126.7l9.4-0.5c0,0,0.2,14.4-5.4,13.9C216.1,140,208.4,141.7,212.1,126.7z"/>
		<path class="st1" d="M223.9,78.3c-1-0.9-2.4-1.4-3.8-1.4c-1.6,0-3.1,0.7-4.1,1.9c-6.1,7-11.7,14.4-17,22c-0.6,0.9-1.4,1.8-2.1,2.8
			l-1,1.2l1.1,1.2c1.2,1.2,2.4,2.4,3.6,3.6l1.9,1.9l1.4,1.4l1.3-1.5c1.1-1.3,2.2-2.7,3.1-4c5-7.2,10.4-14.2,16.2-20.9
			C226.5,84,226.3,80.4,223.9,78.3C223.9,78.3,223.9,78.3,223.9,78.3z"/>
		
			<rect x="198.3" y="100.3" transform="matrix(0.6684 -0.7438 0.7438 0.6684 -12.8586 185.0583)" class="st13" width="5.7" height="13.3"/>
		<path d="M213.4,72.9l8.6,3.4c0,0,3.7-17.9,1-20.6C223.1,55.7,213.4,54.8,213.4,72.9z"/>
		<path d="M223.6,58.8c0.3,0.5,7,4.9,12.3,3.7c0,0-0.9-7.9-13.2-6.8L223.6,58.8z"/>
		<path class="st14" d="M228.8,67.3c0,2.1-1.7,3.8-3.8,3.8s-3.8-1.7-3.8-3.8c0-2.1,1.7-3.8,3.8-3.8c0,0,0,0,0,0
			C227.1,63.5,228.8,65.2,228.8,67.3z"/>
		<path class="st15" d="M237.3,68c0,1.8-1.4,3.3-3.2,3.3c-1.8,0-3.3-1.4-3.3-3.2c0-1.8,1.4-3.3,3.2-3.3c0,0,0,0,0,0
			C235.8,64.8,237.2,66.2,237.3,68z"/>
		<path class="st14" d="M228.8,67.3c0.7-0.3,1.4-0.2,2,0.3"/>
		<path class="st9" d="M119.3,73.9H119c-2-0.1-3.5-1.9-3.3-3.8c0,0,0,0,0,0c0.2-1.6,0.5-3.2,1-4.7c0.6-1.9,2.7-2.9,4.6-2.2
			s2.9,2.7,2.2,4.6c-0.3,0.9-0.5,1.9-0.7,2.9C122.7,72.4,121.1,73.8,119.3,73.9z"/>
		<path class="st7" d="M117.1,173.8c3.5,1.6,7.4,2.6,11.3,2.8c3.9-6.9,15.6-25.7,4.9-41.1l-15.1-8.1
			C118.3,127.4,133.3,143.2,117.1,173.8z"/>
		<path d="M124.9,180c0,0,1.4-2.8,2.5-4.7c-0.8-0.1-4.5-0.2-6-0.8c-2,3.5-4.2,6.8-6.6,10H135L124.9,180z"/>
		<path class="st8" d="M150,136.4c-2.5-4.9-20.8-19.6-22.5-28.1c-0.2-0.8-0.3-1.5-0.4-2.3c-2.9,1.6-6.8,2-9.8,2.1
			c-3.4,0.2-5.5,0.4-8.8-1.2c0.3,5.2-0.6,10.3,2.5,15.6c6.1,10.6,26.3,19.6,28.5,23.1c4.4,6.9,6,21.8,7.5,30.9c2.4,0,8-0.1,10.3-0.9
			C156.6,171,157.9,151.8,150,136.4z"/>
		<path d="M156.3,179.1c0,0-0.7-2.7-0.9-3.9c-2.3,0.8-3.7,0-6,0c0.4,2.3,0.1,6.5,0.3,9H169L156.3,179.1z"/>
		<path class="st11" d="M117.5,111c2.9-0.1,9.1-1,11.5-3.4c-0.5-4-2.3-10.5-1.7-15.7c2.1-17.7-6.5-22.9-6.5-22.9s-4-2.8-7.2,0.5
			c-4.8,5-9.6,19.1-9.1,39.9C108,111.2,114,111.1,117.5,111z"/>
		<path class="st0" d="M161.6,116.5c-0.3,0-0.6,0-0.9-0.1c-13.9-3.2-25.6-11.5-34-24c-3.8-5.6-6.6-11.7-8.5-18.1
			c-0.4-2.1,0.9-4.1,3-4.5c1.9-0.4,3.9,0.8,4.4,2.6c1.7,5.7,4.3,11.1,7.6,16c7.4,10.9,17.2,17.8,29.2,20.6c2.1,0.5,3.3,2.5,2.9,4.6
			C164.9,115.4,163.4,116.6,161.6,116.5L161.6,116.5z"/>
		<path class="st1" d="M153.2,105c-7.9-3.8-14.6-9.7-19.3-17c-3.3-4.8-5.8-10.2-7.5-15.8c-0.6-2.4-3-3.9-5.4-3.2c0,0,0,0,0,0
			c-2.4,0.6-3.9,3-3.3,5.5c0,0,0,0,0,0v0.1c1.7,7.1,4.6,13.9,8.6,20.1c6.4,9.8,15.6,17.4,26.4,21.8c0.1,0,0.2,0,0.2,0
			c0.1,0,0.3,0,0.4-0.1c0.2-0.1,0.3-0.3,0.3-0.6v-10.1C153.6,105.4,153.4,105.1,153.2,105z"/>
		<path class="st0" d="M164.5,116.8c-1.3,0-2.6-0.1-3.9-0.4c-0.6-0.2-1-0.8-0.8-1.4c0.1-0.5,0.7-0.9,1.2-0.8
			c3.4,0.7,6.1,0.4,8.3-0.7c0.6-0.3,1.2-0.1,1.5,0.5s0.1,1.2-0.5,1.5C168.6,116.4,166.5,116.8,164.5,116.8z"/>
		<path class="st0" d="M164.6,114.3c-0.6,0-1.1,0-1.6-0.1c-0.6-0.1-1-0.7-1-1.3c0,0,0,0,0,0c0.1-0.6,0.6-1.1,1.2-1c0,0,0,0,0,0
			c2.4,0.2,4.9-0.2,7-1.4c0.6-0.3,1.3-0.1,1.6,0.4s0.1,1.3-0.4,1.6C169.3,113.6,167,114.2,164.6,114.3z"/>
		<path class="st0" d="M163.6,112.1h-0.5c-0.6-0.1-1.1-0.7-1-1.3c0.1-0.6,0.5-1,1.1-1c1.5,0.1,3-0.4,4.1-1.5
			c0.4-0.5,1.1-0.6,1.6-0.2s0.6,1.1,0.2,1.6C167.7,111.3,165.7,112.1,163.6,112.1z"/>
		<path class="st0" d="M159.8,110.2c-0.6-0.1-1.1-0.6-1-1.2c0.1-0.5,0.5-1,1-1c1.4-0.1,2.7-0.8,3.6-1.9c0.4-0.5,1.1-0.6,1.6-0.3
			c0.5,0.4,0.6,1,0.3,1.6c0,0,0,0,0,0C163.9,109,161.9,110.1,159.8,110.2z"/>
		<path class="st0" d="M156.1,84.8c-0.4,0-0.7-0.2-0.9-0.5c-1-1.3-1.6-2.8-2-4.3c-0.1-0.6,0.4-1.2,1-1.2c0.6,0,1.1,0.3,1.2,0.8
			c0.3,1.2,0.9,2.4,1.6,3.4c0.4,0.5,0.2,1.2-0.3,1.6c0,0,0,0,0,0C156.5,84.7,156.3,84.8,156.1,84.8z"/>
		<path class="st0" d="M156.3,85.2c-0.1,0-0.1,0-0.2,0c-2.5-0.3-4.9-0.5-7.4-0.5c-0.6-0.1-1.1-0.6-1-1.2c0.1-0.5,0.5-1,1-1
			c2.6,0,5.2,0.2,7.8,0.5c0.6,0.1,1,0.7,0.9,1.3C157.3,84.9,156.8,85.3,156.3,85.2z"/>
		<path class="st0" d="M148.1,87.6c-0.6,0-1.1-0.4-1.1-1c-0.1-0.6,0.4-1.2,1-1.3c0,0,0,0,0,0c0.7-0.1,7-0.9,9.1-0.5
			c0.6,0.1,1,0.7,0.9,1.3c0,0,0,0,0,0c-0.1,0.6-0.7,1-1.3,0.9c-1.3-0.2-5.8,0.2-8.4,0.5L148.1,87.6z"/>
		<path class="st0" d="M149.6,90.1c-0.6,0-1.1-0.5-1.1-1.2c0-0.5,0.4-0.9,0.9-1.1c1.6-0.3,3.2-0.7,4.8-1.2c0.6-0.2,1.4-0.4,2.5-0.8
			c0.6-0.2,1.2,0.1,1.5,0.6c0.2,0.6-0.1,1.2-0.6,1.5c-0.1,0-0.1,0-0.2,0.1c-1.1,0.3-1.8,0.6-2.5,0.8c-1.6,0.5-3.3,1-5,1.2
			L149.6,90.1z"/>
		<path class="st0" d="M152,91.9c-0.6,0-1.1-0.5-1.1-1.2c0-0.5,0.4-1,0.9-1.1c3.6-0.6,4.4-2,4.4-2c0.2-0.6,0.8-0.9,1.4-0.7
			c0,0,0,0,0,0c0.6,0.2,0.9,0.8,0.7,1.4c-0.1,0.4-1.1,2.7-6.1,3.5L152,91.9z"/>
		<path class="st0" d="M156.3,90.6l-0.9-9.2c2.3,0.2,4.1,2.2,4,4.5C159.5,87.3,159.1,88.9,156.3,90.6z"/>
		<path class="st0" d="M131,60.7c1,3.8-1.3,7.8-5.1,8.8c0,0,0,0,0,0l0,0c-3.8,1-7.8-1.3-8.8-5.1c0,0,0,0,0,0l-1.3-4.8
			c-1-3.8,1.3-7.8,5.1-8.8l0,0c3.8-1,7.8,1.3,8.8,5.1L131,60.7z"/>
		<path d="M130.3,58.1c-0.5,1.5-1.3,2.9-2.5,4.1c-3,2.5-7.2,3.2-10.9,1.7l0.1,0.5c1,3.8,5,6.1,8.8,5.1s6.1-5,5.1-8.8L130.3,58.1z"/>
		<path d="M117.1,64.1c-2.7-1.7-5.6-8.3-1.3-9.8c2.6-0.9,1.6,7.2,1.6,9.5L117.1,64.1z"/>
		<path d="M114.9,54.9c-3.3-2.4,0.8-9.1,8.8-9.1c5,0,5,3.8,1.5,5.9c-2.9,1.7-7.3,0.7-9.4,3.6L114.9,54.9z"/>
		<path d="M130.3,59.6c-1.6-2.3-3-4.7-4.3-7.2c-0.6-1.3-1.3-3.4,1.2-1.9c2.1,1.3,3.2,5.8,3,8L130.3,59.6z"/>
		<path class="st4" d="M73.3,75.6c-1.3,1.1-2.5,2.3-3.7,3.5l-16.2,33.9l12.1-15.6l12.8-26.6C76.6,72.5,75,74.1,73.3,75.6z"/>
		<path class="st4" d="M63.6,70c1.2-1.6,2.3-3.5,3.7-5.2L38.9,51l-27,2.7l47.3,21.8C60.7,73.7,62.3,71.9,63.6,70z"/>
		<path class="st3" d="M67.7,65.1C66.2,67,65,69.2,63.5,71c-1.3,1.6-2.6,3.2-3.9,4.7l21.5,9.9l7.8-10.2L67.7,65.1z"/>
		<path class="st5" d="M35.3,104.5L43.7,87L0,66.1l7-14.6L78.9,9.1l19.6,9.4L69.7,78.8l11.9,5.7l-8.1,16.9l-11.9-5.7l-8.3,17.4
			L35.3,104.5z M67.7,36.9l-1.1-0.5L28.1,58.9l23.6,11.3L67.7,36.9z"/>
		<polygon class="st4" points="81.6,84.5 88.9,75.4 83.2,88.1 73.3,101.9 		"/>
		<path class="st4" d="M78.8,70.4l28.4-62.2l-8.6,10.3L69.7,78.8C70.5,78,78.3,70.8,78.8,70.4z"/>
		<polygon class="st16" points="7,51.5 19.8,40.3 90.1,0 78.9,9.1 		"/>
		<polygon class="st6" points="78.9,9.1 98.6,18.5 107.2,8.2 90.1,0 		"/>
		<path class="st0" d="M54.8,54.5c-2.4-1.7-4.1-1-5.2-0.8c-0.8,0.1-1.6-0.1-2.2-0.5c-0.5-0.3-1.2-0.1-1.5,0.4
			c-0.3,0.5-0.1,1.1,0.3,1.5c0.9,0.5,1.8,0.9,2.8,1.1C47,58,45.1,60,45,60.1c-0.4,0.5-0.4,1.2,0.1,1.6c0.5,0.4,1.2,0.4,1.6-0.1
			c0,0,1.3-1.5,2.8-2.9c-1.4,1.7-2.7,3.5-2.9,3.8c-0.4,0.5-0.3,1.2,0.2,1.6c0.2,0.1,0.4,0.2,0.7,0.2c0.4,0,0.7-0.2,0.9-0.5
			c0.7-1,1.8-2.4,2.8-3.7c-0.4,0.7-0.8,1.6-1.8,3.1c-0.3,0.5-0.2,1.2,0.4,1.5c0,0,0,0,0,0c0.2,0.1,0.4,0.2,0.6,0.2
			c0.4,0,0.8-0.2,1-0.5c0.4-0.6,0.7-1.1,1-1.6c-0.2,0.5,0,1.1,0.4,1.4c0.2,0.1,0.4,0.2,0.6,0.2c0.4,0,0.7-0.2,0.9-0.5
			c0.8-1.2,1.4-2.6,1.8-4h0C56.8,56.9,56,55.4,54.8,54.5z M52.6,62.5c0.4-0.7,0.6-1.2,0.9-1.6C53.2,61.4,52.9,61.9,52.6,62.5z"/>
		<path d="M20.4,67.3c-3.6-0.2-8.7,6.8-3.4,8.7c-4.8-0.1-6,6.7-1.6,8.5C7.7,83,8.6,93,12.2,96.6c-2.3-0.3-4.3,1.4-4.6,3.7
			c0,0.3,0,0.6,0,0.9c0.4,2.6,1.4,6.2,7.8,8.1s10.3-1.7,13.5-5.1c2,4.2,12.1-1.5,11-6.4c3.8,1.3,7.2-3,7.3-6.4s-2.3-5.9-4.5-8.1
			c1.6-1.4,1.9-4.1,1.5-6.2c-0.7-3.4-5-3.7-5-6.4c0-1,0.2-3.9-0.6-5.2c-1.3-2.1-3.5-4.1-6.3-3.1C20.4,56.7,20.4,67.3,20.4,67.3z"/>
		<path d="M27.3,176.6c-3.2-0.6-3.8-0.4-7-1.2l-7.4,9.1h28.8L24.9,180L27.3,176.6z"/>
		<path d="M80.9,179.2l-1.7-2.2c-1.5,1-3.2,1.8-4.9,2.4l4.6,5.1h16.9L80.9,179.2z"/>
		<path class="st7" d="M17.2,176.6c3.2,0.8,6.5,1.6,9.7,2.2l23.8-29.3l-4-11.6L30,118.7l4.8,27.2L17.2,176.6z"/>
		<path class="st8" d="M49.6,110.6c-6.5-1.7-15.4,0.5-21.7,2.9c0,0,3.9,15.5,6.5,20.1c7.4,13.5,39.7,47.1,39.7,47.1
			c1.8-0.6,5.2-3.1,6.7-4.1L49.6,110.6z"/>
		<path class="st11" d="M27,119.5c6.3-2.4,19-6.4,25.4-4.7c0,0-8.6-20.2-12.5-24.6c-2.6-3-17-11.5-17-0.4
			C23.1,99.8,24.5,109.8,27,119.5z"/>
		<path class="st0" d="M32.6,88.8l-0.3,0.1c-1.9,0.5-3.9-0.6-4.4-2.5c-0.4-1.6-0.6-3.2-0.6-4.8c0-2,1.6-3.6,3.6-3.6s3.6,1.6,3.6,3.6
			c0,1,0.1,2,0.3,3C35.3,86.4,34.3,88.2,32.6,88.8z"/>
		<path class="st9" d="M35,85.2c0-0.3-0.1-0.5-0.1-0.8c-0.2-1-0.3-2-0.3-3c0-2-1.6-3.6-3.6-3.6s-3.6,1.6-3.6,3.6v0.3
			C29.1,83.9,32.1,84.8,35,85.2z"/>
		<path class="st0" d="M38.5,74.4c1.1,3.6-0.8,7.4-4.4,8.6l0,0c-3.6,1.2-7.4-0.8-8.6-4.4c0,0,0,0,0,0l-1.5-4.5
			c-1.2-3.6,0.8-7.4,4.4-8.6l0,0c3.6-1.1,7.4,0.8,8.6,4.4c0,0,0,0,0,0L38.5,74.4z"/>
		<path class="st0" d="M78.6,70.8c-0.1-0.1-0.3-0.2-0.5-0.2l0.6-0.6c0.4-0.5,0.4-1.2-0.1-1.6c0,0,0,0,0,0c-0.1-0.1-0.1-0.1-0.2-0.1
			c0.4-0.5,0.2-1.2-0.3-1.6c-0.3-0.2-0.7-0.3-1-0.1c0.5-0.5,0.8-0.9,0.9-0.9c0.4-0.5,0.3-1.2-0.2-1.6c-0.4-0.3-1.1-0.3-1.5,0.1
			c-1.5,1.6-3.1,3.1-5,4.2c-0.6-1-1.6-1.8-2.6-2.3c-0.6-0.2-1.2,0.1-1.4,0.7c-0.2,0.6,0.1,1.2,0.6,1.4c0.7,0.3,1.2,0.8,1.6,1.4
			c-0.1,0.3-0.2,0.7-0.3,1C52.7,93.1,30.7,85.2,29.7,84.8c-2-0.7-4.2,0.4-4.9,2.4c-0.7,1.9,0.3,4,2.1,4.8c4.3,1.5,8.8,2.2,13.3,2.2
			c1.6,0,3.3-0.1,4.9-0.3c8.3-1,20.5-5.7,30.3-18.3c0.2-0.1,0.4-0.2,0.7-0.4c0.2-0.1,0.4-0.3,0.6-0.4l0,0c0.8-0.6,1.5-1.4,2.1-2.1
			C79.2,72,79.1,71.3,78.6,70.8C78.7,70.9,78.6,70.9,78.6,70.8z"/>
		<path class="st1" d="M48.1,84.8L47.2,85c-2.3,0.5-4.6,0.7-7,0.7c-3.5,0-7-0.5-10.3-1.6c-2.3-0.9-4.9,0.3-5.8,2.6
			c-0.5,1.1-0.5,2.4,0.1,3.4c2.2,3.9,8.2,5.5,16,5.5c1.7,0,3.3-0.1,5-0.3c1-0.1,2-0.3,3.1-0.5l0.7-0.2c-0.6-1.8-1-3.7-1.2-5.7
			C47.8,87.6,48,86.2,48.1,84.8z"/>
		<path d="M24,77.8c2.4-1.5,3.2-4.3,2.9-7.1c2.1,1.4,3.7,0.5,5-1.8c3.9,5.5,9.9-2.7,1.8-5.7c-6.5-2.4-12.9,4.1-11.3,10.6L24,77.8z"
			/>
	</g>
</g>
</svg>
