<?xml version="1.0" encoding="UTF-8"?><svg id="Layer_1" xmlns="http://www.w3.org/2000/svg" width="577.92" height="433.86" viewBox="0 0 577.92 433.86"><path d="m0,98.14v156.38c0,8.84,7.16,16,16,16h60.75c1.1,0,2-.9,2-2V97.92c0-1.42-1.43-2.38-2.74-1.85-9.24,3.71-20.37,6.99-35.67,6.99-16.36,0-27.95-2.8-37.56-6.76C1.45,95.75,0,96.71,0,98.14Z"/><circle cx="39.38" cy="39.67" r="39.38"/><circle cx="538.55" cy="39.72" r="39.38"/><path d="m501.17,270.51c-1.1,0-2-.9-2-2V109.4c0-.53.2-1.05.58-1.42,4.55-4.39,22.75-12.88,38.79-12.88h0c16.04,0,34.25,8.5,38.79,12.88.38.37.58.88.58,1.42v145.12c0,8.84-7.16,16-16,16h-60.75Z"/><path d="m207.39,95.45c-4.29,0-8.24-.09-11.93-.25-1.14-.05-2.08.86-2.08,2l.12,157.32c0,8.84,7.16,16,16,16h60.75c1.1,0,2-.9,2-2v-109.67c0-35.01-29.04-63.39-64.86-63.39Z"/><path d="m177.39,97.07c0-1.07-.85-1.97-1.92-2-18.59-.52-28.94-8.46-44.69-8.46-13.34,0-28.02,4.74-28.02,15.77v152.14c0,8.84,7.16,16,16,16h56.62c1.1,0,2-.9,2-2v-135.26s0-36.18,0-36.18Z"/><path d="m381.05,108.98s0-.01,0-.02v-11.99c.01-1.07-.82-1.96-1.89-2-.64-.03-1.3-.05-1.97-.05-49.01,0-88.76,39.03-88.76,88.04s39.73,87.74,88.74,87.74c.35,0,1.02-.01,1.93-.03,1.09-.02,1.96-.91,1.96-2v-1.04h0l-.02-141.35v-17.3Z"/><path d="m475.24,268.51V8.01c0-5.27-4.99-9.1-10.08-7.72-16.93,4.57-33.95,9.28-59.45,16.41-5.11,1.43-8.64,6.09-8.64,11.39v60.5s.01,0,.01,0v46.81s0,.09,0,.13v1.53s0,6.26,0,6.26h-.01v111.2c0,8.84,7.17,16,16.01,16h60.15c1.1,0,2-.9,2-2Z"/><path d="m9.82,317.98l19.01,29.75,18.92-29.84c1.18-1.82,3.09-2.64,4.82-2.64,2.64,0,5.09,1.82,5.09,5.09v48.12c0,3.18-2.82,4.73-5.37,4.73s-5.19-1.55-5.19-4.73v-30.66l-13.55,21.2c-1,1.82-2.91,2.64-4.73,2.64s-3.91-1.09-4.91-2.91l-13.37-20.83v30.56c0,3.18-2.73,4.73-5.28,4.73s-5.28-1.55-5.28-4.73v-48.03c0-3.18,2.55-5.19,5.18-5.19,1.73,0,3.55,1,4.64,2.73Z"/><path d="m111.98,374.1c-17.83,0-29.84-11.92-29.84-29.84s12.01-29.93,29.84-29.93,29.56,12.01,29.56,29.93-11.83,29.84-29.56,29.84Zm18.92-29.84c0-12.37-7.55-20.65-18.92-20.65s-19.1,8.28-19.1,20.65,7.64,20.56,19.1,20.56,18.92-8.28,18.92-20.56Z"/><path d="m206.5,371.46l-16.28-17.37h-13.74v14.37c0,3.09-2.73,4.73-5.28,4.73-2.73,0-5.28-1.64-5.28-4.64v-48.58c0-2.82,2.18-4.73,5.28-4.73h20.29c16.28,0,24.56,8.73,24.56,19.65,0,8.55-4.55,15.28-13.83,17.92l10.92,11.46c5.55,5.82-2.09,12.1-6.64,7.19Zm-14.92-26.2c9.73,0,14.01-4.73,13.83-10.28-.09-6-5.28-10.55-13.83-10.55h-15.1v20.83h15.1Z"/><path d="m287.55,319.98c0,2.27-1.91,4.64-5.37,4.64h-16.92l.09,43.76c0,3.28-3,4.82-5.37,4.82-2.55,0-5.28-1.55-5.28-4.82v-43.76h-16.83c-3.55,0-5.09-2.37-5.09-4.64s1.55-4.73,5.09-4.73h44.3c3.46,0,5.37,2.37,5.37,4.73Z"/><path d="m352.05,363c-5.55,6.46-15.01,11.1-23.56,11.1-17.92,0-29.56-12.28-29.2-30.38,0-17.65,11.83-29.38,29.47-29.38,8,0,16.37,2.91,21.74,8.64,5.19,5.46-2.46,11.73-7.73,6.19-3.91-4.09-9.1-5.82-14.01-5.82-11.37,0-19.01,8.37-19.01,20.65.18,12.19,7.64,20.92,18.83,20.92,5.28,0,11.01-2.55,14.55-6.64v-9.28h-13.28c-3.46,0-5-2.18-5-4.37,0-2.37,1.64-4.64,5-4.64h18.1c4.18,0,5.46,2,5.46,4.91v14.28c0,1.18-.27,2.64-1.36,3.82Z"/><path d="m408.81,316.88l25.74,50.49c2.37,4-1.27,6.73-4.73,6.73-1.73,0-3.73-.91-4.64-2.64l-6.37-12.64h-29.29l-6.37,12.64c-.91,1.91-2.82,2.64-4.55,2.64-3.18,0-6.73-2.91-5.09-6.46l25.93-50.76c.91-2,2.37-2.55,4.73-2.55,1.91,0,3.73.73,4.64,2.55Zm-14.83,33.11h20.38l-10.19-20.28-10.19,20.28Z"/><path d="m505.06,363c-5.55,6.46-15.01,11.1-23.56,11.1-17.92,0-29.56-12.28-29.2-30.38,0-17.65,11.83-29.38,29.47-29.38,8,0,16.37,2.91,21.74,8.64,5.19,5.46-2.46,11.73-7.73,6.19-3.91-4.09-9.1-5.82-14.01-5.82-11.37,0-19.01,8.37-19.01,20.65.18,12.19,7.64,20.92,18.83,20.92,5.28,0,11.01-2.55,14.55-6.64v-9.28h-13.28c-3.46,0-5-2.18-5-4.37,0-2.37,1.64-4.64,5-4.64h18.1c4.18,0,5.46,2,5.46,4.91v14.28c0,1.18-.27,2.64-1.36,3.82Z"/><path d="m577.92,368.83c0,2.18-1.64,4.37-5,4.37h-36.11c-3.64,0-6-2.46-6-5.46v-47.12c0-2.91,2.37-5.37,6-5.37h36.11c3.28,0,4.82,2.09,4.82,4.37s-1.73,4.55-4.82,4.55h-31.75v15.92h30.11c3.09,0,4.73,2.27,4.73,4.55s-1.55,4.37-4.73,4.37h-30.11v15.1h31.75c3.18,0,5,2.46,5,4.73Z"/><path d="m3.28,409.85l-1.24,2.9c-.6,1.33-2.57.36-1.9-.88l1.36-2.84c.66-1.33,2.39-.57,1.78.82Zm3.53,0l-1.24,2.9c-.6,1.33-2.57.36-1.9-.88l1.42-2.75c.6-1.27,2.27-.51,1.72.72Z"/><path d="m23.84,410.82h-6.73l.03,16.01c0,.76-.63,1.12-1.15,1.12s-1.09-.36-1.09-1.12v-16.01h-6.7c-1.42,0-1.42-2.08,0-2.08h15.65c1.48,0,1.48,2.08,0,2.08Z"/><path d="m35.5,414.41c-2.93,0-5.68,2.05-5.68,5.16v7.28c0,.66-.39,1.09-1.09,1.09s-1.15-.42-1.15-1.09v-18.12c0-.63.54-.97,1.12-.97.54,0,1.12.33,1.12.97v6.61c1.09-2.11,3.44-2.99,5.71-2.99,3.5,0,6.86,2.42,6.86,6.77v7.73c0,.66-.39,1.09-1.09,1.09s-1.12-.42-1.12-1.09v-7.73c0-2.78-2.24-4.71-4.68-4.71Z"/><path d="m60.72,421.6h-11.93c.39,2.48,2.51,4.62,5.53,4.62,1.39,0,2.84-.36,4.02-1.27,1.06-.97,2.63.27,1.45,1.48-1.39,1.3-3.41,1.84-5.38,1.81-4.77,0-7.85-3.44-7.85-8,0-5.1,3.84-7.88,7.7-7.88,4.08,0,7.85,2.39,7.94,7.85,0,.66-.24,1.39-1.48,1.39Zm-.63-1.84c-.3-3.62-3.14-5.35-5.68-5.35-2.84,0-5.44,1.72-5.71,5.35h11.39Z"/><path d="m76.09,408.73c.57,0,1.15.36,1.15,1.12v17.03c0,.69-.57,1.06-1.15,1.06s-1.12-.33-1.12-1.06v-17.03c0-.76.57-1.12,1.12-1.12Z"/><path d="m89.77,414.41c-2.93,0-5.68,2.42-5.68,5.71v6.77c0,.66-.39,1.06-1.09,1.06s-1.15-.39-1.15-1.06v-13.17c0-.69.54-1.06,1.09-1.06s1.09.36,1.09,1.09v1.75c1.09-2.21,3.41-3.14,5.77-3.14,3.5,0,6.86,2.42,6.86,6.77v7.76c0,.66-.39,1.06-1.09,1.06s-1.12-.39-1.12-1.06v-7.76c0-2.78-2.24-4.71-4.68-4.71Z"/><path d="m113.38,414.84v-6.01c0-.69.54-1.06,1.12-1.06s1.09.36,1.09,1.06v18.06c0,.66-.42,1.06-1.12,1.06s-1.03-.39-1.03-1.06v-1.24c-1.03,1.87-3.14,2.6-4.95,2.6-4.2,0-7.73-2.84-7.73-8.06,0-3.02,1.87-7.79,7.73-7.79,2.02,0,3.99.85,4.89,2.45Zm0,6.67v-2.39c0-2.66-2.05-4.53-4.8-4.65-4.5,0-5.62,3.65-5.62,5.62,0,4.68,3.5,6.07,5.71,6.07,2.6-.15,4.71-1.81,4.71-4.65Z"/><path d="m133.92,421.6h-11.93c.39,2.48,2.51,4.62,5.53,4.62,1.39,0,2.84-.36,4.02-1.27,1.06-.97,2.63.27,1.45,1.48-1.39,1.3-3.41,1.84-5.38,1.81-4.77,0-7.85-3.44-7.85-8,0-5.1,3.84-7.88,7.7-7.88,4.08,0,7.85,2.39,7.94,7.85,0,.66-.24,1.39-1.48,1.39Zm-.63-1.84c-.3-3.62-3.14-5.35-5.68-5.35-2.84,0-5.44,1.72-5.71,5.35h11.39Z"/><path d="m146.66,428.25c-2.02,0-3.99-.79-4.89-2.39v6.49c0,1.39-2.2,1.39-2.2,0v-18.64c0-.66.42-1.06,1.12-1.06s1.03.39,1.03,1.06v1.3c1.03-1.69,3.14-2.66,4.95-2.66,4.2,0,7.85,3.05,7.73,8.4-.12,4.29-3.2,7.49-7.73,7.49Zm-4.89-9.09v2.39c0,2.66,2.05,4.53,4.8,4.65,3.53,0,5.5-2.48,5.62-5.47.06-3.5-2.3-6.28-5.35-6.28-2.75,0-5.07,1.75-5.07,4.71Z"/><path d="m171.94,421.6h-11.93c.39,2.48,2.51,4.62,5.53,4.62,1.39,0,2.84-.36,4.02-1.27,1.06-.97,2.63.27,1.45,1.48-1.39,1.3-3.41,1.84-5.38,1.81-4.77,0-7.85-3.44-7.85-8,0-5.1,3.84-7.88,7.7-7.88,4.08,0,7.85,2.39,7.94,7.85,0,.66-.24,1.39-1.48,1.39Zm-.63-1.84c-.3-3.62-3.14-5.35-5.68-5.35-2.84,0-5.44,1.72-5.71,5.35h11.39Z"/><path d="m185.5,414.41c-2.93,0-5.68,2.42-5.68,5.71v6.77c0,.66-.39,1.06-1.09,1.06s-1.15-.39-1.15-1.06v-13.17c0-.69.54-1.06,1.09-1.06s1.09.36,1.09,1.09v1.75c1.09-2.21,3.41-3.14,5.77-3.14,3.5,0,6.86,2.42,6.86,6.77v7.76c0,.66-.39,1.06-1.09,1.06s-1.12-.39-1.12-1.06v-7.76c0-2.78-2.24-4.71-4.68-4.71Z"/><path d="m209.12,414.84v-6.01c0-.69.54-1.06,1.12-1.06.54,0,1.09.36,1.09,1.06v18.06c0,.66-.42,1.06-1.12,1.06s-1.03-.39-1.03-1.06v-1.24c-1.03,1.87-3.14,2.6-4.95,2.6-4.2,0-7.73-2.84-7.73-8.06,0-3.02,1.87-7.79,7.73-7.79,2.02,0,3.99.85,4.89,2.45Zm0,6.67v-2.39c0-2.66-2.05-4.53-4.8-4.65-4.5,0-5.62,3.65-5.62,5.62,0,4.68,3.5,6.07,5.71,6.07,2.6-.15,4.71-1.81,4.71-4.65Z"/><path d="m229.65,421.6h-11.93c.39,2.48,2.51,4.62,5.53,4.62,1.39,0,2.84-.36,4.02-1.27,1.06-.97,2.63.27,1.45,1.48-1.39,1.3-3.41,1.84-5.38,1.81-4.77,0-7.85-3.44-7.85-8,0-5.1,3.84-7.88,7.7-7.88,4.08,0,7.85,2.39,7.94,7.85,0,.66-.24,1.39-1.48,1.39Zm-.63-1.84c-.3-3.62-3.14-5.35-5.68-5.35-2.84,0-5.44,1.72-5.71,5.35h11.39Z"/><path d="m243.21,414.41c-2.93,0-5.68,2.42-5.68,5.71v6.77c0,.66-.39,1.06-1.09,1.06s-1.15-.39-1.15-1.06v-13.17c0-.69.54-1.06,1.09-1.06s1.09.36,1.09,1.09v1.75c1.09-2.21,3.41-3.14,5.77-3.14,3.5,0,6.86,2.42,6.86,6.77v7.76c0,.66-.39,1.06-1.09,1.06s-1.12-.39-1.12-1.06v-7.76c0-2.78-2.24-4.71-4.68-4.71Z"/><path d="m261.42,414.5h-3.29v8.22c0,1.72.27,3.53,2.33,3.53.45,0,1.12-.15,1.42-.33,1.27-.72,2.26,1.06.91,1.81-.75.42-1.51.51-2.33.51-3.62,0-4.5-2.66-4.5-5.53v-8.22h-1.99c-1.42,0-1.33-1.84,0-1.84h1.99v-3.59c0-1.45,2.17-1.42,2.17,0v3.59h3.29c1.36,0,1.36,1.84,0,1.84Z"/><path d="m293.37,408.73c.54,0,1.03.42,1.03,1.18v16.94c0,.72-.54,1.09-1.09,1.09-.57,0-1.12-.36-1.12-1.09v-13.29l-6.16,9.63c-.54.85-1.54.85-2.08,0l-6.16-9.57v13.23c0,.72-.54,1.09-1.09,1.09-.57,0-1.12-.36-1.12-1.09v-16.91c0-.76.51-1.21,1.06-1.21.36,0,.75.21,1,.66l7.37,11.45,7.31-11.48c.27-.45.66-.63,1.06-.63Z"/><path d="m298.84,420.09c0-4.38,3.35-7.73,7.88-7.73s7.88,3.56,7.88,7.88c0,4.59-3.32,8-7.88,8-4.8,0-7.88-3.65-7.88-8.16Zm2.24.24c0,3.23,2.26,5.83,5.65,5.83s5.68-2.75,5.68-5.77c0-4.08-2.87-5.98-5.71-5.98s-5.62,1.99-5.62,5.92Z"/><path d="m325.02,412.36c.69,0,1.15.36,1.15,1.06s-.45,1.03-1.15,1.03c-3.11,0-4.44,2.48-4.44,5.53v6.92c0,.63-.51,1.06-1.09,1.06-.66,0-1.12-.42-1.12-1.06v-13.17c0-.66.57-1.06,1.12-1.06.51,0,1.03.36,1.03,1.06v1.21c.97-2.02,2.78-2.57,4.5-2.57Z"/><path d="m336.83,414.5h-3.29v8.22c0,1.72.27,3.53,2.33,3.53.45,0,1.12-.15,1.42-.33,1.27-.72,2.26,1.06.91,1.81-.75.42-1.51.51-2.33.51-3.62,0-4.5-2.66-4.5-5.53v-8.22h-1.99c-1.42,0-1.33-1.84,0-1.84h1.99v-3.59c0-1.45,2.17-1.42,2.17,0v3.59h3.29c1.36,0,1.36,1.84,0,1.84Z"/><path d="m348.64,433.86c-2.3,0-4.14-.54-5.77-2.08-1.27-1.27.33-2.54,1.48-1.57,1.36,1.15,2.6,1.51,4.29,1.51,2.75,0,5.32-1.39,5.32-4.5v-1.63c-1.12,1.99-3.2,2.66-5.07,2.66-1.06,0-2.05-.18-3.02-.57-2.9-1.18-4.59-4.08-4.59-7.22,0-5.07,3.68-8.09,7.67-8.09,1.84,0,3.96.69,4.95,2.36v-.97c0-.66.39-1.09,1.09-1.09s1.12.42,1.12,1.09v13.47c0,4.38-3.32,6.64-7.46,6.64Zm-5.17-13.44c0,3.08,1.96,5.8,5.62,5.74,2.75-.12,4.8-2.02,4.8-4.65v-2.39c0-3.14-2.39-4.65-4.95-4.65-3.17,0-5.47,2.57-5.47,5.95Z"/><path d="m372.77,414.75v-1c0-.63.39-1.09,1.09-1.09s1.12.45,1.12,1.09v13.11c0,.66-.45,1.09-1.12,1.09s-1.09-.42-1.09-1.09v-1.3c-.88,1.75-3.11,2.69-4.89,2.69-4.38,0-7.73-3.02-7.73-8.03s3.56-7.85,7.85-7.85c1.72,0,3.69.6,4.77,2.39Zm0,6.77v-2.39c0-2.99-2.08-4.56-4.8-4.68-3.66-.06-5.62,2.69-5.62,5.77,0,4.41,3.59,5.95,5.56,5.95,2.66-.09,4.86-1.72,4.86-4.65Z"/><path d="m386.51,433.86c-2.3,0-4.14-.54-5.77-2.08-1.27-1.27.33-2.54,1.48-1.57,1.36,1.15,2.6,1.51,4.29,1.51,2.75,0,5.32-1.39,5.32-4.5v-1.63c-1.12,1.99-3.2,2.66-5.07,2.66-1.06,0-2.05-.18-3.02-.57-2.9-1.18-4.59-4.08-4.59-7.22,0-5.07,3.68-8.09,7.67-8.09,1.84,0,3.96.69,4.95,2.36v-.97c0-.66.39-1.09,1.09-1.09s1.12.42,1.12,1.09v13.47c0,4.38-3.32,6.64-7.46,6.64Zm-5.17-13.44c0,3.08,1.96,5.8,5.62,5.74,2.75-.12,4.8-2.02,4.8-4.65v-2.39c0-3.14-2.39-4.65-4.95-4.65-3.17,0-5.47,2.57-5.47,5.95Z"/><path d="m412.3,421.6h-11.93c.39,2.48,2.51,4.62,5.53,4.62,1.39,0,2.84-.36,4.02-1.27,1.06-.97,2.63.27,1.45,1.48-1.39,1.3-3.41,1.84-5.38,1.81-4.77,0-7.85-3.44-7.85-8,0-5.1,3.84-7.88,7.7-7.88,4.08,0,7.85,2.39,7.94,7.85,0,.66-.24,1.39-1.48,1.39Zm-.63-1.84c-.3-3.62-3.14-5.35-5.68-5.35-2.84,0-5.44,1.72-5.71,5.35h11.39Z"/><path d="m442.74,411.42c.91,1.03-.69,2.27-1.54,1.36-1.63-1.72-3.47-2.3-5.5-2.3-3.23,0-7.82,1.66-7.82,7.61,0,4.56,3.5,8.06,7.64,8.06,2.33,0,4.5-1.06,5.92-2.87.66-1,2.51.09,1.72,1.21-1.66,2.36-4.83,3.75-7.7,3.75-5.14,0-9.73-4.26-9.73-10.18,0-6.92,5.86-9.64,9.91-9.64,2.75,0,5.17.94,7.1,2.99Z"/><path d="m446,420.09c0-4.38,3.35-7.73,7.88-7.73s7.88,3.56,7.88,7.88c0,4.59-3.32,8-7.88,8-4.8,0-7.88-3.65-7.88-8.16Zm2.24.24c0,3.23,2.26,5.83,5.65,5.83s5.68-2.75,5.68-5.77c0-4.08-2.87-5.98-5.71-5.98s-5.62,1.99-5.62,5.92Z"/><path d="m486.35,414.41c-3.17,0-5.68,2.36-5.68,5.83v6.64c0,.66-.45,1.06-1.12,1.06s-1.12-.39-1.12-1.06v-7.49c0-1.72-.69-3.38-2.08-4.26-.79-.48-1.66-.69-2.6-.69-2.96,0-5.65,2.27-5.65,5.65v6.83c0,.69-.54,1.03-1.09,1.03-.57,0-1.12-.33-1.12-1.03v-13.2c0-.57.48-1.06,1.09-1.06.66,0,1.06.48,1.06,1.06v1.75c1.21-2.17,3.35-3.11,5.68-3.11,2.63,0,5.23,1.27,6.13,3.96,1.09-2.69,3.72-3.96,6.4-3.96,3.47,0,6.98,2.3,6.98,6.43v8.09c0,.66-.45,1.06-1.12,1.06s-1.09-.39-1.09-1.06v-8c-.06-2.6-2.14-4.47-4.68-4.47Z"/><path d="m505.28,428.25c-2.02,0-3.99-.79-4.89-2.39v6.49c0,1.39-2.2,1.39-2.2,0v-18.64c0-.66.42-1.06,1.12-1.06s1.03.39,1.03,1.06v1.3c1.03-1.69,3.14-2.66,4.95-2.66,4.2,0,7.85,3.05,7.73,8.4-.12,4.29-3.2,7.49-7.73,7.49Zm-4.89-9.09v2.39c0,2.66,2.05,4.53,4.8,4.65,3.53,0,5.5-2.48,5.62-5.47.06-3.5-2.3-6.28-5.35-6.28-2.75,0-5.07,1.75-5.07,4.71Z"/><path d="m528.9,414.75v-1c0-.63.39-1.09,1.09-1.09s1.12.45,1.12,1.09v13.11c0,.66-.45,1.09-1.12,1.09s-1.09-.42-1.09-1.09v-1.3c-.88,1.75-3.11,2.69-4.89,2.69-4.38,0-7.73-3.02-7.73-8.03s3.56-7.85,7.85-7.85c1.72,0,3.69.6,4.77,2.39Zm0,6.77v-2.39c0-2.99-2.08-4.56-4.8-4.68-3.66-.06-5.62,2.69-5.62,5.77,0,4.41,3.59,5.95,5.56,5.95,2.66-.09,4.86-1.72,4.86-4.65Z"/><path d="m544.03,414.41c-2.93,0-5.68,2.42-5.68,5.71v6.77c0,.66-.39,1.06-1.09,1.06s-1.15-.39-1.15-1.06v-13.17c0-.69.54-1.06,1.09-1.06s1.09.36,1.09,1.09v1.75c1.09-2.21,3.41-3.14,5.77-3.14,3.5,0,6.86,2.42,6.86,6.77v7.76c0,.66-.39,1.06-1.09,1.06s-1.12-.39-1.12-1.06v-7.76c0-2.78-2.23-4.71-4.68-4.71Z"/><path d="m554.78,412.66c.36,0,.72.18.94.63l5.68,11.36,5.62-11.39c.21-.42.57-.6.94-.6.69,0,1.42.6,1.12,1.42l-9.54,18.97c-.72,1.42-2.63.66-2.05-.76l2.66-5.41-6.46-12.72c-.36-.82.39-1.51,1.12-1.51Z"/><path d="m570.75,412.03l1.24-2.9c.6-1.33,2.57-.36,1.9.88l-1.42,2.75c-.6,1.27-2.27.51-1.72-.72Zm3.53,0l1.24-2.9c.6-1.33,2.57-.36,1.9.88l-1.36,2.84c-.66,1.33-2.39.57-1.78-.82Z"/></svg>