<?xml version="1.0" encoding="UTF-8"?><svg id="Layer_1" xmlns="http://www.w3.org/2000/svg" width="577.92" height="374.1" viewBox="0 0 577.92 374.1"><path d="m0,98.14v156.38c0,8.84,7.16,16,16,16h60.75c1.1,0,2-.9,2-2V97.92c0-1.42-1.43-2.38-2.74-1.85-9.24,3.71-20.37,6.99-35.67,6.99-16.36,0-27.95-2.8-37.56-6.76C1.45,95.75,0,96.71,0,98.14Z"/><circle cx="39.38" cy="39.67" r="39.38"/><circle cx="538.55" cy="39.72" r="39.38"/><path d="m501.17,270.51c-1.1,0-2-.9-2-2V109.4c0-.53.2-1.05.58-1.42,4.55-4.39,22.75-12.88,38.79-12.88h0c16.04,0,34.25,8.5,38.79,12.88.38.37.58.88.58,1.42v145.12c0,8.84-7.16,16-16,16h-60.75Z"/><path d="m207.39,95.45c-4.29,0-8.24-.09-11.93-.25-1.14-.05-2.08.86-2.08,2l.12,157.32c0,8.84,7.16,16,16,16h60.75c1.1,0,2-.9,2-2v-109.67c0-35.01-29.04-63.39-64.86-63.39Z"/><path d="m177.39,97.07c0-1.07-.85-1.97-1.92-2-18.59-.52-28.94-8.46-44.69-8.46-13.34,0-28.02,4.74-28.02,15.77v152.14c0,8.84,7.16,16,16,16h56.62c1.1,0,2-.9,2-2v-135.26s0-36.18,0-36.18Z"/><path d="m381.05,108.98s0-.01,0-.02v-11.99c.01-1.07-.82-1.96-1.89-2-.64-.03-1.3-.05-1.97-.05-49.01,0-88.76,39.03-88.76,88.04s39.73,87.74,88.74,87.74c.35,0,1.02-.01,1.93-.03,1.09-.02,1.96-.91,1.96-2v-1.04h0l-.02-141.35v-17.3Z"/><path d="m475.24,268.51V8.01c0-5.27-4.99-9.1-10.08-7.72-16.93,4.57-33.95,9.28-59.45,16.41-5.11,1.43-8.64,6.09-8.64,11.39v60.5s.01,0,.01,0v46.81s0,.09,0,.13v1.53s0,6.26,0,6.26h-.01v111.2c0,8.84,7.17,16,16.01,16h60.15c1.1,0,2-.9,2-2Z"/><path d="m9.82,317.98l19.01,29.75,18.92-29.84c1.18-1.82,3.09-2.64,4.82-2.64,2.64,0,5.09,1.82,5.09,5.09v48.12c0,3.18-2.82,4.73-5.37,4.73s-5.19-1.55-5.19-4.73v-30.66l-13.55,21.2c-1,1.82-2.91,2.64-4.73,2.64s-3.91-1.09-4.91-2.91l-13.37-20.83v30.56c0,3.18-2.73,4.73-5.28,4.73s-5.28-1.55-5.28-4.73v-48.03c0-3.18,2.55-5.19,5.18-5.19,1.73,0,3.55,1,4.64,2.73Z"/><path d="m111.98,374.1c-17.83,0-29.84-11.92-29.84-29.84s12.01-29.93,29.84-29.93,29.56,12.01,29.56,29.93-11.83,29.84-29.56,29.84Zm18.92-29.84c0-12.37-7.55-20.65-18.92-20.65s-19.1,8.28-19.1,20.65,7.64,20.56,19.1,20.56,18.92-8.28,18.92-20.56Z"/><path d="m206.5,371.46l-16.28-17.37h-13.74v14.37c0,3.09-2.73,4.73-5.28,4.73-2.73,0-5.28-1.64-5.28-4.64v-48.58c0-2.82,2.18-4.73,5.28-4.73h20.29c16.28,0,24.56,8.73,24.56,19.65,0,8.55-4.55,15.28-13.83,17.92l10.92,11.46c5.55,5.82-2.09,12.1-6.64,7.19Zm-14.92-26.2c9.73,0,14.01-4.73,13.83-10.28-.09-6-5.28-10.55-13.83-10.55h-15.1v20.83h15.1Z"/><path d="m287.55,319.98c0,2.27-1.91,4.64-5.37,4.64h-16.92l.09,43.76c0,3.28-3,4.82-5.37,4.82-2.55,0-5.28-1.55-5.28-4.82v-43.76h-16.83c-3.55,0-5.09-2.37-5.09-4.64s1.55-4.73,5.09-4.73h44.3c3.46,0,5.37,2.37,5.37,4.73Z"/><path d="m352.05,363c-5.55,6.46-15.01,11.1-23.56,11.1-17.92,0-29.56-12.28-29.2-30.38,0-17.65,11.83-29.38,29.47-29.38,8,0,16.37,2.91,21.74,8.64,5.19,5.46-2.46,11.73-7.73,6.19-3.91-4.09-9.1-5.82-14.01-5.82-11.37,0-19.01,8.37-19.01,20.65.18,12.19,7.64,20.92,18.83,20.92,5.28,0,11.01-2.55,14.55-6.64v-9.28h-13.28c-3.46,0-5-2.18-5-4.37,0-2.37,1.64-4.64,5-4.64h18.1c4.18,0,5.46,2,5.46,4.91v14.28c0,1.18-.27,2.64-1.36,3.82Z"/><path d="m408.81,316.88l25.74,50.49c2.37,4-1.27,6.73-4.73,6.73-1.73,0-3.73-.91-4.64-2.64l-6.37-12.64h-29.29l-6.37,12.64c-.91,1.91-2.82,2.64-4.55,2.64-3.18,0-6.73-2.91-5.09-6.46l25.93-50.76c.91-2,2.37-2.55,4.73-2.55,1.91,0,3.73.73,4.64,2.55Zm-14.83,33.11h20.38l-10.19-20.28-10.19,20.28Z"/><path d="m505.06,363c-5.55,6.46-15.01,11.1-23.56,11.1-17.92,0-29.56-12.28-29.2-30.38,0-17.65,11.83-29.38,29.47-29.38,8,0,16.37,2.91,21.74,8.64,5.19,5.46-2.46,11.73-7.73,6.19-3.91-4.09-9.1-5.82-14.01-5.82-11.37,0-19.01,8.37-19.01,20.65.18,12.19,7.64,20.92,18.83,20.92,5.28,0,11.01-2.55,14.55-6.64v-9.28h-13.28c-3.46,0-5-2.18-5-4.37,0-2.37,1.64-4.64,5-4.64h18.1c4.18,0,5.46,2,5.46,4.91v14.28c0,1.18-.27,2.64-1.36,3.82Z"/><path d="m577.92,368.83c0,2.18-1.64,4.37-5,4.37h-36.11c-3.64,0-6-2.46-6-5.46v-47.12c0-2.91,2.37-5.37,6-5.37h36.11c3.28,0,4.82,2.09,4.82,4.37s-1.73,4.55-4.82,4.55h-31.75v15.92h30.11c3.09,0,4.73,2.27,4.73,4.55s-1.55,4.37-4.73,4.37h-30.11v15.1h31.75c3.18,0,5,2.46,5,4.73Z"/></svg>