<?xml version="1.0" encoding="utf-8"?>
<!-- Generator: Adobe Illustrator 27.3.1, SVG Export Plug-In . SVG Version: 6.00 Build 0)  -->
<svg version="1.1" id="Layer_1" xmlns="http://www.w3.org/2000/svg" xmlns:xlink="http://www.w3.org/1999/xlink" x="0px" y="0px"
	 width="577.9px" height="374.1px" viewBox="0 0 577.9 374.1" style="enable-background:new 0 0 577.9 374.1;" xml:space="preserve"
	>
<style type="text/css">
	.st0{fill:#FFFFFF;}
</style>
<path class="st0" d="M0,98.1v156.4c0,8.8,7.2,16,16,16h60.8c1.1,0,2-0.9,2-2V97.9c0-1.4-1.4-2.4-2.7-1.8c-9.2,3.7-20.4,7-35.7,7
	c-16.4,0-28-2.8-37.6-6.8C1.5,95.8,0,96.7,0,98.1z"/>
<circle class="st0" cx="39.4" cy="39.7" r="39.4"/>
<circle class="st0" cx="538.5" cy="39.7" r="39.4"/>
<path class="st0" d="M501.2,270.5c-1.1,0-2-0.9-2-2V109.4c0-0.5,0.2-1.1,0.6-1.4c4.5-4.4,22.8-12.9,38.8-12.9l0,0
	c16,0,34.2,8.5,38.8,12.9c0.4,0.4,0.6,0.9,0.6,1.4v145.1c0,8.8-7.2,16-16,16L501.2,270.5L501.2,270.5z"/>
<path class="st0" d="M207.4,95.4c-4.3,0-8.2-0.1-11.9-0.2c-1.1-0.1-2.1,0.9-2.1,2l0.1,157.3c0,8.8,7.2,16,16,16h60.8
	c1.1,0,2-0.9,2-2V158.9C272.2,123.8,243.2,95.5,207.4,95.4L207.4,95.4z"/>
<path class="st0" d="M177.4,97.1c0-1.1-0.9-2-1.9-2c-18.6-0.5-28.9-8.5-44.7-8.5c-13.3,0-28,4.7-28,15.8v152.1c0,8.8,7.2,16,16,16
	h56.6c1.1,0,2-0.9,2-2V133.3L177.4,97.1L177.4,97.1z"/>
<path class="st0" d="M381,109C381,109,381,109,381,109V97c0-1.1-0.8-2-1.9-2c-0.6,0-1.3-0.1-2-0.1c-49,0-88.8,39-88.8,88
	s39.7,87.7,88.7,87.7c0.4,0,1,0,1.9,0c1.1,0,2-0.9,2-2v-1l0,0l0-141.4L381,109L381,109z"/>
<path class="st0" d="M475.2,268.5V8c0-5.3-5-9.1-10.1-7.7c-16.9,4.6-34,9.3-59.5,16.4c-5.1,1.4-8.6,6.1-8.6,11.4v60.5h0v46.8
	c0,0,0,0.1,0,0.1v1.5v6.3h0v111.2c0,8.8,7.2,16,16,16h60.1C474.3,270.5,475.2,269.6,475.2,268.5L475.2,268.5z"/>
<g>
	<path class="st0" d="M51.9,324.6c4.7,5.3-2.7,10.8-7.3,5.9c-4.4-4.7-9.2-5.7-14.6-5.7c-11.1,0-18.5,7.7-18.5,19.2
		c0,12.3,7.5,20.5,18.9,20.5c5.5,0,11.5-3.1,14.8-7.2c4.7-5.7,12.2-0.7,8,5.2c-4.8,6.7-14.3,10.8-22.9,10.8
		C13,373.4,1.5,361.7,1.5,344c0-16.9,12.4-28.1,28.6-28.1C38.7,315.9,46.2,318.2,51.9,324.6z"/>
	<path class="st0" d="M138.8,368.3c0,2.1-1.6,4.2-4.8,4.2H99.3c-3.5,0-5.8-2.4-5.8-5.2V322c0-2.8,2.3-5.2,5.8-5.2H134
		c3.1,0,4.6,2,4.6,4.2c0,2.1-1.7,4.4-4.6,4.4h-30.5v15.3h28.9c3,0,4.5,2.2,4.5,4.4c0,2.1-1.5,4.2-4.5,4.2h-28.9v14.5H134
		C137,363.8,138.8,366.1,138.8,368.3z"/>
	<path class="st0" d="M222.4,316.8c2.6,0,5.1,1.3,5.1,4.3v46.2c0,3.5-3,5.2-5.9,5.2c-2,0-4.1-1-5.2-2.5l-26.8-34.5l0.4,4.9v27.5
		c0,3.2-2.6,4.6-5.2,4.6c-2.7,0-5.2-1.4-5.2-4.6v-45.7c0-3.5,2.5-5.3,5.3-5.3c2.2,0,3.7,0.9,5.1,2.6l27.5,35.7l-0.4-5.9v-28.2
		C217.1,318.3,219.8,316.8,222.4,316.8z"/>
	<path class="st0" d="M316.4,321.3c0,2.2-1.8,4.5-5.2,4.5H295l0.1,42.1c0,3.1-2.9,4.6-5.2,4.6c-2.4,0-5.1-1.5-5.1-4.6v-42.1h-16.2
		c-3.4,0-4.9-2.3-4.9-4.5c0-2.3,1.5-4.5,4.9-4.5h42.6C314.6,316.8,316.4,319.1,316.4,321.3z"/>
	<path class="st0" d="M392.1,370.8l-15.7-16.7h-13.2V368c0,3-2.6,4.5-5.1,4.5c-2.6,0-5.1-1.6-5.1-4.5v-46.7c0-2.7,2.1-4.5,5.1-4.5
		h19.5c15.7,0,23.6,8.4,23.6,18.9c0,8.2-4.4,14.7-13.3,17.2l10.5,11C403.8,369.5,396.5,375.6,392.1,370.8z M377.8,345.7
		c9.4,0,13.5-4.5,13.3-9.9c-0.1-5.8-5.1-10.1-13.3-10.1h-14.5v20H377.8z"/>
	<path class="st0" d="M469.2,318.4l24.7,48.5c2.3,3.8-1.2,6.5-4.5,6.5c-1.7,0-3.6-0.9-4.5-2.5l-6.1-12.2h-28.2l-6.1,12.2
		c-0.9,1.8-2.7,2.5-4.4,2.5c-3.1,0-6.5-2.8-4.9-6.2l24.9-48.8c0.9-1.9,2.3-2.4,4.5-2.4C466.5,315.9,468.3,316.6,469.2,318.4z
		 M454.9,350.2h19.6l-9.8-19.5L454.9,350.2z"/>
	<path class="st0" d="M532.7,367.8v-46.5c0-3,2.5-4.5,5.2-4.5c2.4,0,5.1,1.5,5.1,4.5v42.5h28.7c3.4,0,5.2,2.3,5.2,4.4
		c0,2.3-1.8,4.4-5.2,4.4h-33.7C534.1,372.5,532.7,370.8,532.7,367.8z"/>
</g>
</svg>
