<?xml version="1.0" encoding="UTF-8"?><svg id="Layer_1" xmlns="http://www.w3.org/2000/svg" width="264.24" height="269.22" viewBox="0 0 264.24 269.22"><path d="m0,97.92v154.3c0,8.84,7.16,16,16,16h60.75c1.1,0,2-.9,2-2V97.93c0-1.42-1.43-2.38-2.74-1.85-9.24,3.71-20.37,6.69-35.67,6.69-16.36,0-27.95-2.72-37.56-6.68C1.45,95.54,0,96.5,0,97.92Z"/><circle cx="39.38" cy="39.38" r="39.38"/><path d="m199.38,96.16c-4.29,0-8.24-.09-11.93-.25-1.14-.05-2.08.86-2.08,2l.12,155.31c0,8.84,7.16,16,16,16h60.75c1.1,0,2-.9,2-2v-107.67c0-35.01-29.04-63.39-64.86-63.39Z"/><path d="m169.38,95.78c0-1.09-.9-2-1.99-2-15.41-.02-26.22-8.46-43.62-8.46-12.99,0-24.69,5.24-27.97,7.03-.64.35-1.04,1.02-1.04,1.76v159.12c0,8.84,7.16,16,16,16h56.62c1.1,0,2-.9,2-2v-135.26s0-36.18,0-36.18Z"/></svg>