<svg xmlns="http://www.w3.org/2000/svg" width="349.15" height="185.34" viewBox="0 0 349.15 185.34"><defs><style>.cls-1{fill:#96e22a;}.cls-2{fill:#f4f6ef;}.cls-3{fill:#82c425;}.cls-4{fill:#9ee22a;}.cls-5{fill:#5a911b;}.cls-6{fill:#6ead20;}.cls-7{fill:#bafd2f;}.cls-8{fill:#2d4f0f;}.cls-9{fill:#396a14;}.cls-10{fill:#7fcf27;}.cls-11{fill:#84e02a;}.cls-12{fill:#e5e8dd;}.cls-13{fill:#f6d7cc;}.cls-14{fill:#fff;}.cls-15,.cls-16{fill:none;stroke:#ddad90;stroke-miterlimit:10;}.cls-15{stroke-width:0.87px;}.cls-16{stroke-width:0.75px;}.cls-17{fill:#93e72b;}</style></defs><g id="Layer_2" data-name="Layer 2"><g id="OBJECTS"><path d="M269.85,177.62c-2.5,3.24-5.44,5.65-4.8,6.75,0,0,1.34,1,5,1,6.31,0,12.5-.48,11.48-1.12-1.41-.88-5.49-1.21-9.39-2.55-1-.34,2.11-2.21,1.27-2.51A19.24,19.24,0,0,1,269.85,177.62Z"/><path d="M334.8,184.18s.83,1.16,4,1.16c5.45,0,11.13-.74,10.25-1.29-1.22-.77-10.77-2.76-10.77-2.76l-2.15-2.66-3.63,2Z"/><path class="cls-1" d="M317.53,103.85a29.15,29.15,0,0,1-7.11-.85,3.82,3.82,0,1,1,2-7.38c.14,0,8.74,2.24,13.77-2.07,3.36-2.89,4.64-8.33,3.79-16.16l-.27-2.5,7.74-4.39a3.83,3.83,0,0,1,3.78,6.66L337.8,79.1c.55,9.23-1.7,16.05-6.67,20.29C326.93,103,321.69,103.85,317.53,103.85Z"/><path class="cls-2" d="M330.78,82.62c-.15,5.56-1.63,9.59-4.43,12-5.51,4.73-15,2.31-15.11,2.27A4.2,4.2,0,0,0,309,105a18.27,18.27,0,0,0,7.8,1.54c16.29-.57,26.12-14.62,26.3-22.81Z"/><path class="cls-3" d="M308.39,63.14c-1.46-.66-2.9-1.37-4.31-2.11C290.59,68.72,273.35,78.56,273,78.9c0,0,8.57,13.65,9.11,14.19.35.35,21.6-14.89,36.88-25.93C315.48,65.8,311.84,64.69,308.39,63.14Z"/><path class="cls-4" d="M308.61,62.74c3.53,1.56,7.24,2.69,10.83,4.11C327.86,60.76,334.36,56,334.36,56L320,52l-15.45,8.78Q306.54,61.82,308.61,62.74Z"/><polygon class="cls-5" points="283.81 44.84 292.28 67.76 308.83 73.83 287.87 35.53 283.81 44.84"/><polygon class="cls-5" points="309.74 79.47 297.47 79.47 308.39 98.54 325.03 105.55 309.74 79.47"/><path class="cls-6" d="M325,105.55,315.26,88.9,273.5,113.38l-8.22-14,5.16-83.3,18.77-11L323,62.7,334.36,56l9.46,16.13-11.37,6.66,9.76,16.66ZM287.14,40.91l-1.06.62L283.21,86l22.6-13.25Z"/><polygon class="cls-3" points="251.4 95.56 265.28 99.37 273.5 113.38 258.82 109.67 251.4 95.56"/><polygon class="cls-4" points="251.4 95.56 265.28 99.37 270.44 16.07 257.7 13.02 251.4 95.56"/><polygon class="cls-7" points="257.7 13.02 270.44 16.07 289.21 5.06 276.31 1.31 257.7 13.02"/><path class="cls-8" d="M285.63,128.75s2.05,22,2.05,29.73c0,0-16,12.49-20,19,1.69,1.28,5,3,7.2,2.92a156.26,156.26,0,0,1,22.44-17.5s5.06-14.69,6.64-27.13Z"/><path class="cls-2" d="M297.06,129.79a21.45,21.45,0,0,0,10.4-2.28c-1-4.39,1.18-17.36,4-24.3,0,0,2.19-4.82.65-6.3-5.7-5.49-10.55-5-12.06-5.1-5.23,4.42-15,17.46-14.58,34.69C288.13,129.33,293.59,129.77,297.06,129.79Z"/><path class="cls-9" d="M332.42,181.24a9.77,9.77,0,0,0,5.37-3.25c-6.19-10-28.89-46.91-30.12-49.8,0-.07-.06-.16-.09-.24a21.84,21.84,0,0,1-11.16,2.28c-3.36-.13-8.22-.6-11-3.09,0,.18,0,.36,0,.54.48,9.62,32.4,41.71,45,54A18.63,18.63,0,0,0,332.42,181.24Z"/><path class="cls-1" d="M266.51,119.81a7.6,7.6,0,0,1-7.53-5.94,3.83,3.83,0,1,1,7.34-2.18,3.4,3.4,0,0,0,.18.48c.41,0,1.93-.12,5.62-2.29,3.29-1.93,7.19-4.82,11-7.61,6.37-4.71,12.39-9.16,17.36-10.73a3.82,3.82,0,1,1,2.31,7.29c-3.75,1.19-9.53,5.47-15.12,9.6C279.46,114.48,272.24,119.81,266.51,119.81Z"/><path class="cls-1" d="M273.67,117c-.47-2.25-1-4.74-2.39-6.59-3.08,1.71-4.4,1.82-4.78,1.81a3.4,3.4,0,0,1-.18-.48,3.83,3.83,0,1,0-7.34,2.18,7.6,7.6,0,0,0,7.53,5.94,16.68,16.68,0,0,0,7.31-2.14Z"/><path class="cls-2" d="M305.24,94a3.82,3.82,0,0,0-4.8-2.49c-5,1.57-11,6-17.36,10.73-3.77,2.79-7.67,5.68-11,7.61l-.44.25c1.43,1.89,3.91,11.22,3.95,11.43,4.06-2.12,23.53-16.94,27.75-21.41C304.83,98.61,305.88,96.05,305.24,94Z"/><path class="cls-1" d="M261.1,116.72a1.15,1.15,0,0,1-.66-.21c-3-2.14-4.57-6.27-4.63-6.45a1.13,1.13,0,1,1,2.11-.79h0s1.4,3.67,3.83,5.41a1.13,1.13,0,0,1-.65,2Z"/><path class="cls-1" d="M261.1,114a1.13,1.13,0,0,1-.92-.48c-1.44-2-2.59-6.87-2.72-7.41a1.13,1.13,0,0,1,.85-1.35,1.12,1.12,0,0,1,1.35.84c.32,1.36,1.36,5.2,2.36,6.62a1.12,1.12,0,0,1-.27,1.57A1.14,1.14,0,0,1,261.1,114Z"/><path class="cls-1" d="M262.65,113.34a1.12,1.12,0,0,1-1-.7c-1-2.52-1.43-7.82-1.45-8a1.12,1.12,0,0,1,2.24-.17,33.65,33.65,0,0,0,1.29,7.37,1.12,1.12,0,0,1-.61,1.47A1.09,1.09,0,0,1,262.65,113.34Z"/><path class="cls-1" d="M264.34,112.8a1.12,1.12,0,0,1-1.09-.84,13.13,13.13,0,0,1,0-5.67,1.12,1.12,0,0,1,2.19.51,11.18,11.18,0,0,0,0,4.6,1.13,1.13,0,0,1-.81,1.37A1.33,1.33,0,0,1,264.34,112.8Z"/><path class="cls-1" d="M309.59,100.15a3.49,3.49,0,0,1-1.53-.35A3.6,3.6,0,0,1,306.34,95,21.62,21.62,0,0,1,309,91a3.6,3.6,0,0,1,5.51,4.64h0a14.68,14.68,0,0,0-1.67,2.46A3.6,3.6,0,0,1,309.59,100.15Z"/><path class="cls-10" d="M310.11,98.29c.43.47.88.92,1.34,1.34a3.55,3.55,0,0,0,1.4-1.54,14.68,14.68,0,0,1,1.67-2.46A3.6,3.6,0,0,0,309,91c-.07.08-.36.43-.74.94C308.3,94.2,308.54,96.56,310.11,98.29Z"/><path class="cls-1" d="M321.94,94.32a6.81,6.81,0,0,1-8.89,3.7h0a6.81,6.81,0,0,1-3.7-8.89l1.8-4.37a6.81,6.81,0,0,1,8.89-3.7h0a6.8,6.8,0,0,1,3.7,8.89Z"/><path d="M310.11,88.62c-.55,2.34-3.91,1.59-5.17.37-1.74-1.68-2.78-6.44,1.07-6.19-2.77-4.19,6.64-8.73,7.63-3.89.73-1.25,1.49-2.37,3.12-2.48,1.18-.07,3.25.84,3.08,2.28a4.9,4.9,0,0,1,6,.12c.55.45,1.55,1.45,1.05,2.17-.27.41-1.69.53-2.17.67.82-.37,4.18.38,3.52,1.77-.31.65-1.95.07-2.43-.07a.75.75,0,0,0,0,.15c1.79,1,2.53,2,2.31,4.21-.1,1-.58,3-1.8,3.11-.63.07-1.35-.32-1.34-1,1.5,1.5-.62,5.5-2.51,3.52a2,2,0,0,1,.32-2.73c-1.12-.65-3.54-4.05-1.82-5-.81,0-4.54-1.25-3.35-2.32.31,1.25-1.23,2.86-2.46,2.22.76,1.66-1.48,2.9-2.86,3,.84,1.06-1.76,2.32-2.56.78Z"/><path class="cls-11" d="M182.17,75s-2.19-8.37,8.65-10.36L190,74.73Z"/><path class="cls-12" d="M138.72,96.16a15.37,15.37,0,0,1-6.62-1.45c-9.85-4.65-10.94-18.64-11-19.23a3.82,3.82,0,0,1,7.63-.54c.22,2.81,1.82,10.6,6.64,12.86,4,1.87,10.14,0,17.84-5.5a3.83,3.83,0,0,1,4.43,6.24C150.52,93.61,144.18,96.16,138.72,96.16Z"/><path class="cls-4" d="M159.08,103.34c1.07-2.8,2-5.63,3.2-8.39a21.46,21.46,0,0,1-2.34-.31,19.08,19.08,0,0,1-9.43-4.54,22.83,22.83,0,0,1-6-8.78,38,38,0,0,1-2.45-12.09,60.41,60.41,0,0,1,1.09-14.3,60,60,0,0,1,4.27-13.77,38.16,38.16,0,0,1,6.72-10.26,23,23,0,0,1,8.78-6,20.19,20.19,0,0,1,18.22,2.57c1.09-2.17,2.25-4.29,3.36-6.41,1.31-2.51,2.53-5.06,3.7-7.64.5-1.1.93-2.24,1.38-3.36A40.6,40.6,0,0,0,177,5.54a38.89,38.89,0,0,0-18.71.72A42,42,0,0,0,142.46,15a53,53,0,0,0-11.91,15.43,73.61,73.61,0,0,0-7.08,20.72A73.82,73.82,0,0,0,122.41,73a53.14,53.14,0,0,0,5.39,18.73,41.94,41.94,0,0,0,11.45,14A38.62,38.62,0,0,0,155,113C156.45,109.82,157.84,106.61,159.08,103.34Z"/><path class="cls-5" d="M210.91,45.8a53,53,0,0,0-5.39-18.74,42.1,42.1,0,0,0-11.44-14A34.42,34.42,0,0,0,190,10.33c-.44,1.12-.87,2.25-1.38,3.35-1.19,2.57-2.38,5.13-3.69,7.64-1.13,2.13-2.3,4.27-3.39,6.45.38.3.76.6,1.13.93a23.74,23.74,0,0,1,6,8.8,36.88,36.88,0,0,1,2.54,12,59.46,59.46,0,0,1-1.11,14.37,60.38,60.38,0,0,1-4.25,13.7,36.88,36.88,0,0,1-6.81,10.32,23.55,23.55,0,0,1-8.86,6A18.5,18.5,0,0,1,162.75,95c-1.27,3-2.35,6.13-3.51,9.19s-2.44,6-3.77,8.94l.9.19a39.1,39.1,0,0,0,18.7-.72,41.87,41.87,0,0,0,15.79-8.76,53.17,53.17,0,0,0,11.92-15.43,74,74,0,0,0,7.08-20.72A74.15,74.15,0,0,0,210.91,45.8Z"/><path class="cls-6" d="M168.06,117.27A38.85,38.85,0,0,1,151,109.71a41.78,41.78,0,0,1-11.45-14A53.2,53.2,0,0,1,134.1,77a74.18,74.18,0,0,1,1.06-21.87,74.15,74.15,0,0,1,7.08-20.72A53.17,53.17,0,0,1,154.16,19,41.93,41.93,0,0,1,170,10.23a41.55,41.55,0,0,1,35.82,6.84,42.06,42.06,0,0,1,11.45,14,53.14,53.14,0,0,1,5.39,18.73,73.82,73.82,0,0,1-1.06,21.87,73.93,73.93,0,0,1-7.08,20.72,53,53,0,0,1-11.91,15.43,41.91,41.91,0,0,1-15.8,8.76A38.84,38.84,0,0,1,168.06,117.27Zm3.57-18.66a18.78,18.78,0,0,0,10.28-.77,23.43,23.43,0,0,0,8.86-6,36.59,36.59,0,0,0,6.81-10.32,59.31,59.31,0,0,0,4.25-13.69,59.58,59.58,0,0,0,1.11-14.38,36.87,36.87,0,0,0-2.53-12,23.59,23.59,0,0,0-6-8.8,18.86,18.86,0,0,0-9.28-4.5,19.15,19.15,0,0,0-10.43.73,22.88,22.88,0,0,0-8.79,6,37.75,37.75,0,0,0-6.71,10.26,59.65,59.65,0,0,0-4.27,13.77,59.85,59.85,0,0,0-1.09,14.3,37.84,37.84,0,0,0,2.44,12.09,23,23,0,0,0,6,8.78A19.2,19.2,0,0,0,171.63,98.61Z"/><path d="M235.58,61.07l.29,14.07s-4,3.6-7.62,0l1.33-15.84Z"/><path d="M219,173.31c-.23-.19-1.8-.92-2-1.1a19,19,0,0,1-2.44,3,5.06,5.06,0,0,1,1.84,4.78,20.71,20.71,0,0,1-2.44,1.85c-2.19,1.08-6.23,2.58-6.23,2.58l10.17.8,7.54-7.73A48.13,48.13,0,0,1,219,173.31Z"/><path d="M179.17,173.86c-1.62-.29-3.66.95-5,0a35.31,35.31,0,0,0-.25,4.37l-15,6.2h19.21c.18-2.05-.19-4,.08-5.91C178.33,177.55,179,174.8,179.17,173.86Z"/><path class="cls-12" d="M196.68,105.59l-17,32.29s6.88,5.83,13.66,7.77L206.1,107.6Z"/><path class="cls-8" d="M215.29,176a22.88,22.88,0,0,0,2.7-3.55c-4.39-3.76-6.54-7.65-12.52-14.33-2.47-2.76,4.08-18.6,5.67-21.26,2.85-4.77,3.3-8.23,5.53-16.4l-16.6,6.2c-3.95,14.16-8.56,28.31-3.94,35.06,4.88,7.14,13.53,12.89,17.71,15.76C214,177.61,215.16,175.92,215.29,176Z"/><path class="cls-1" d="M187.34,73.37a1.14,1.14,0,0,1-.65-.21,1.12,1.12,0,0,1-.26-1.57,9.39,9.39,0,0,0,1.63-3.42,1.14,1.14,0,0,1,1.31-.9,1.11,1.11,0,0,1,.91,1.29,11.42,11.42,0,0,1-2,4.34A1.15,1.15,0,0,1,187.34,73.37Z"/><path class="cls-13" d="M215.49,123.9c4.94-13.56,9.16-34.85,10.74-43.35a20.2,20.2,0,0,0-2.44-.83c-1.46-.41-3.22-.89-4.72-.42a9.24,9.24,0,0,0-2.11,1,23.58,23.58,0,0,0-.87,3.4S205.48,104,198.56,117.87A69.16,69.16,0,0,1,215.49,123.9Z"/><path class="cls-9" d="M198.36,118.29h0c-.61,1.22-1.19,2.4-1.73,3.5h0c-1.37,2.41-2.83,4.63-4.25,6.78-13.66,20.59-18.82,37-19.73,44.77,1.31,1,6.24,1.59,7.88,1.88,2.52-12.88,9.08-21.1,20.83-30.81,3.93-3.25,6.87-7.38,9.45-10.81a38.63,38.63,0,0,0,4.54-9.28A68.71,68.71,0,0,0,198.36,118.29Z"/><path class="cls-1" d="M185.11,124a3.82,3.82,0,0,1-1.25-7.44c4.64-1.61,11.76-8,16.56-14.76A262.17,262.17,0,0,1,217.29,80a3.83,3.83,0,0,1,5.7,5.11h0a254.84,254.84,0,0,0-16.31,21.1c-4.74,6.72-13.12,15.09-20.32,17.58A3.61,3.61,0,0,1,185.11,124Z"/><path class="cls-1" d="M223.54,81.82h-.26A3.6,3.6,0,0,1,220,78a21.66,21.66,0,0,1,1-4.71,3.6,3.6,0,1,1,6.81,2.35,14.61,14.61,0,0,0-.67,2.89A3.61,3.61,0,0,1,223.54,81.82Z"/><path class="cls-10" d="M224.6,78a16.12,16.12,0,0,0,2.07,2,3.74,3.74,0,0,0,.46-1.52,14.61,14.61,0,0,1,.67-2.89,3.6,3.6,0,0,0-6.36-3.23C221.78,74.39,223.44,76.69,224.6,78Z"/><path class="cls-1" d="M233.88,70.22a6.8,6.8,0,0,1-7,6.65h0a6.81,6.81,0,0,1-6.66-7l.11-4.72a6.81,6.81,0,0,1,7-6.66h0a6.8,6.8,0,0,1,6.65,7Z"/><path class="cls-1" d="M179.71,122.9a14,14,0,0,1-5.38-1.27,1.13,1.13,0,0,1,.87-2.08c3,1.25,5.32,1.43,6.82.52a1.13,1.13,0,0,1,1.17,1.93A6.63,6.63,0,0,1,179.71,122.9Z"/><path class="cls-1" d="M181.05,124.53a19.35,19.35,0,0,1-4.86-.74l-.51-.12a1.13,1.13,0,0,1,.53-2.19l.51.12a14.42,14.42,0,0,0,8.53.07,1.13,1.13,0,1,1,.56,2.18A18.73,18.73,0,0,1,181.05,124.53Z"/><path class="cls-1" d="M179.63,120.68a9.66,9.66,0,0,1-6.08-2.28,1.13,1.13,0,0,1,1.52-1.67,7.05,7.05,0,0,0,6.18,1.49,1.13,1.13,0,0,1,.57,2.18A8.66,8.66,0,0,1,179.63,120.68Z"/><path class="cls-1" d="M182,119.47h-.13a7.26,7.26,0,0,1-5.46-3.32,1.13,1.13,0,0,1,2-1.09,5,5,0,0,0,3.75,2.18,1.12,1.12,0,0,1-.13,2.24Z"/><path class="cls-1" d="M195.44,75h-.19c-1.86-.31-7-1.12-8.14-1.12a1.13,1.13,0,1,1,0-2.25c1.58,0,7.81,1,8.51,1.14a1.14,1.14,0,0,1,.93,1.3A1.13,1.13,0,0,1,195.44,75Z"/><path class="cls-1" d="M194.72,77.35a1,1,0,0,1-.3,0,57.24,57.24,0,0,0-7.9-1.61,1.13,1.13,0,0,1,.13-2.25A57.92,57.92,0,0,1,195,75.14a1.13,1.13,0,0,1,.79,1.38A1.11,1.11,0,0,1,194.72,77.35Z"/><path class="cls-1" d="M194.18,79.83a1.34,1.34,0,0,1-.35,0c-5.07-1.64-6.32-1.74-7-1.79a5.47,5.47,0,0,1-.94-.15,1.12,1.12,0,0,1-.8-1.37,1.14,1.14,0,0,1,1.38-.81,2.68,2.68,0,0,0,.54.08c.82.07,2.18.18,7.5,1.89a1.13,1.13,0,0,1-.34,2.2Z"/><path class="cls-1" d="M192,81.63h-.08c-5.08-.37-5.29-3.12-5.3-3.43l2.26-.06a.42.42,0,0,0,0-.07s.23,1.1,3.21,1.31a1.13,1.13,0,0,1,1,1.21A1.12,1.12,0,0,1,192,81.63Z"/><path class="cls-1" d="M187.7,80.28a6.5,6.5,0,0,0-2.5-.45c-1.28,0-3-2.17-3-4.43,0,0-.62-6.64,6.39-3.64Z"/><path class="cls-12" d="M209.79,100,200,148.46s15.23,3.67,24.57-1.71l2.37-67.28S216.44,75.81,209.79,100Z"/><path class="cls-2" d="M212.07,126.68l9.42-.51s.23,14.41-5.4,13.85C216.09,140,208.39,141.7,212.07,126.68Z"/><path class="cls-2" d="M223.9,78.32a5.61,5.61,0,0,0-3.76-1.44A5.67,5.67,0,0,0,216,78.74a262.92,262.92,0,0,0-17,22c-.64.91-1.35,1.84-2.1,2.77l-1,1.22,1.09,1.15c1.16,1.23,2.37,2.42,3.55,3.58l1.91,1.88,1.39,1.4,1.26-1.51c1.13-1.35,2.17-2.7,3.1-4a257.92,257.92,0,0,1,16.18-20.93A5.63,5.63,0,0,0,223.9,78.32Z"/><rect class="cls-14" x="198.26" y="100.28" width="5.69" height="13.31" transform="translate(-12.85 185.07) rotate(-48.06)"/><path d="M213.43,72.92l8.65,3.39s3.68-17.9,1-20.59C223.08,55.72,213.43,54.81,213.43,72.92Z"/><path d="M223.58,58.84c.3.46,7,4.94,12.29,3.7,0,0-.9-7.92-13.21-6.77Z"/><path class="cls-15" d="M228.76,67.28A3.77,3.77,0,1,1,225,63.52,3.77,3.77,0,0,1,228.76,67.28Z"/><path class="cls-16" d="M237.26,68A3.28,3.28,0,1,1,234,64.75,3.27,3.27,0,0,1,237.26,68Z"/><path class="cls-15" d="M228.76,67.28a2,2,0,0,1,2,.26"/><path class="cls-10" d="M119.27,73.87H119A3.6,3.6,0,0,1,115.67,70a22.09,22.09,0,0,1,1-4.71,3.6,3.6,0,0,1,6.81,2.34,14.24,14.24,0,0,0-.67,2.89A3.6,3.6,0,0,1,119.27,73.87Z"/><path class="cls-8" d="M117.13,173.84a29.69,29.69,0,0,0,11.26,2.75c3.89-6.92,15.6-25.67,4.94-41.05l-15.07-8.1S133.33,143.17,117.13,173.84Z"/><path d="M124.94,180s1.39-2.82,2.48-4.72c-.82-.1-4.47-.25-6-.83a77.45,77.45,0,0,1-6.64,10h20.26Z"/><path class="cls-9" d="M150,136.44c-2.52-4.89-20.82-19.62-22.48-28.08-.15-.75-.27-1.52-.38-2.3-2.94,1.55-6.76,2-9.78,2.13-3.43.17-5.48.39-8.8-1.23.28,5.25-.57,10.32,2.49,15.64,6.08,10.55,26.28,19.58,28.53,23.07,4.44,6.88,6,21.81,7.49,30.92,2.38,0,8-.1,10.33-.93C156.62,171,157.89,151.76,150,136.44Z"/><path d="M156.31,179.14s-.66-2.66-.86-3.9c-2.32.81-3.67,0-6,0,.36,2.26.09,6.48.3,9h19.21Z"/><path class="cls-12" d="M117.5,111c2.93-.13,9.07-1,11.54-3.41-.51-4-2.3-10.48-1.67-15.68C129.51,74.23,120.91,69,120.91,69s-4-2.77-7.18.54c-4.84,5-9.57,19.09-9.09,39.94C108,111.15,114,111.11,117.5,111Z"/><path class="cls-1" d="M161.65,116.52a3.69,3.69,0,0,1-.87-.1c-13.87-3.22-25.62-11.53-34-24a64.5,64.5,0,0,1-8.52-18.13,3.83,3.83,0,0,1,7.42-1.87,58.18,58.18,0,0,0,7.6,16c7.35,10.88,17.17,17.82,29.2,20.61a3.83,3.83,0,0,1-.86,7.56Z"/><path class="cls-2" d="M153.21,105a48.26,48.26,0,0,1-19.34-17,57.71,57.71,0,0,1-7.5-15.76A4.48,4.48,0,0,0,120.91,69a4.5,4.5,0,0,0-3.27,5.47l0,.08a64.4,64.4,0,0,0,8.58,20.06,57.57,57.57,0,0,0,26.43,21.83.74.74,0,0,0,.25,0,.64.64,0,0,0,.38-.12.65.65,0,0,0,.3-.56V105.63A.67.67,0,0,0,153.21,105Z"/><path class="cls-1" d="M164.49,116.79a20.4,20.4,0,0,1-3.91-.41,1.13,1.13,0,0,1,.45-2.21c3.35.67,6.14.43,8.31-.73a1.13,1.13,0,0,1,1.06,2A12.36,12.36,0,0,1,164.49,116.79Z"/><path class="cls-1" d="M164.65,114.27a10.35,10.35,0,0,1-1.65-.12,1.12,1.12,0,0,1-.95-1.27,1.13,1.13,0,0,1,1.27-1,12.27,12.27,0,0,0,7-1.36,1.13,1.13,0,0,1,1.12,2A14.88,14.88,0,0,1,164.65,114.27Z"/><path class="cls-1" d="M163.65,112.06l-.54,0a1.13,1.13,0,0,1,.14-2.25,5.08,5.08,0,0,0,4.08-1.47,1.12,1.12,0,1,1,1.74,1.42A7.17,7.17,0,0,1,163.65,112.06Z"/><path class="cls-1" d="M159.76,110.16a1.13,1.13,0,0,1,0-2.25,4.74,4.74,0,0,0,3.59-1.89,1.13,1.13,0,0,1,1.57-.28,1.12,1.12,0,0,1,.28,1.57A7,7,0,0,1,159.76,110.16Z"/><path class="cls-1" d="M156.08,84.75a1.12,1.12,0,0,1-.92-.47,11.41,11.41,0,0,1-2-4.33,1.13,1.13,0,0,1,2.22-.38A9.4,9.4,0,0,0,157,83a1.12,1.12,0,0,1-.26,1.57A1.14,1.14,0,0,1,156.08,84.75Z"/><path class="cls-1" d="M156.31,85.25a.75.75,0,0,1-.21,0,55.07,55.07,0,0,0-7.4-.48,1.13,1.13,0,0,1,0-2.25,56,56,0,0,1,7.82.52,1.13,1.13,0,0,1,.89,1.32A1.11,1.11,0,0,1,156.31,85.25Z"/><path class="cls-1" d="M148.08,87.59a1.11,1.11,0,0,1-1.11-1,1.13,1.13,0,0,1,1-1.26c.71-.09,7-.86,9.08-.49a1.12,1.12,0,0,1,.91,1.3,1.13,1.13,0,0,1-1.31.91c-1.29-.23-5.84.2-8.41.52Z"/><path class="cls-1" d="M149.55,90.14a1.13,1.13,0,0,1-.22-2.23,33.43,33.43,0,0,0,4.78-1.18c.62-.2,1.39-.45,2.53-.78a1.13,1.13,0,1,1,.63,2.16c-1.11.32-1.84.56-2.47.76a33.77,33.77,0,0,1-5,1.25Z"/><path class="cls-1" d="M152,91.93a1.13,1.13,0,0,1-.19-2.24c3.65-.62,4.37-2,4.38-2a1.11,1.11,0,0,1,1.42-.72,1.13,1.13,0,0,1,.72,1.42c-.15.44-1.12,2.65-6.14,3.51Z"/><path class="cls-1" d="M156.31,90.57l-.86-9.17a4.35,4.35,0,0,1,4,4.51C159.46,87.32,159.06,88.89,156.31,90.57Z"/><path class="cls-1" d="M131,60.69a7.18,7.18,0,0,1-5.12,8.79h0a7.18,7.18,0,0,1-8.79-5.11l-1.28-4.83a7.21,7.21,0,0,1,5.12-8.8h0a7.2,7.2,0,0,1,8.79,5.12Z"/><path d="M130.3,58.13a9.48,9.48,0,0,1-2.5,4.06,10.7,10.7,0,0,1-10.86,1.68l.13.5A7.19,7.19,0,0,0,131,60.69Z"/><path d="M117.05,64.1c-2.71-1.73-5.62-8.33-1.35-9.77,2.64-.89,1.57,7.24,1.57,9.55Z"/><path d="M114.88,54.87c-3.27-2.36.78-9.06,8.85-9.06,5,0,5,3.82,1.5,5.88-2.86,1.72-7.3.71-9.45,3.63Z"/><path d="M130.3,59.61A67.85,67.85,0,0,1,126,52.39c-.56-1.26-1.32-3.4,1.2-1.88,2.11,1.27,3.25,5.76,3,8Z"/><path class="cls-5" d="M73.28,75.62a49.33,49.33,0,0,0-3.73,3.5L53.3,113.06,65.4,97.45,78.25,70.89C76.6,72.48,75,74.07,73.28,75.62Z"/><path class="cls-5" d="M63.64,70c1.18-1.61,2.32-3.5,3.66-5.17L38.86,51l-27,2.7,47.28,21.8C60.7,73.72,62.26,71.93,63.64,70Z"/><path class="cls-4" d="M67.7,65.07C66.19,67,65,69.19,63.51,71q-1.95,2.39-3.94,4.73l21.49,9.91,7.8-10.19Z"/><path class="cls-6" d="M35.34,104.46,43.67,87,0,66.14,7,51.49,78.93,9.13l19.63,9.4L69.71,78.78l11.89,5.7-8.08,16.86L61.64,95.65,53.3,113.06ZM67.69,36.88l-1.11-.53L28.11,58.87,51.74,70.18Z"/><polygon class="cls-5" points="81.6 84.48 88.86 75.4 83.16 88.05 73.26 101.88 81.6 84.48"/><path class="cls-5" d="M78.81,70.38,107.17,8.22,98.56,18.53,69.71,78.78C70.51,78,78.35,70.84,78.81,70.38Z"/><polygon class="cls-17" points="7.01 51.49 19.83 40.33 90.1 0 78.93 9.13 7.01 51.49"/><polygon class="cls-7" points="78.93 9.13 98.56 18.53 107.17 8.22 90.1 0 78.93 9.13"/><path class="cls-1" d="M54.85,54.54c-2.42-1.71-4.08-1-5.24-.78a3.22,3.22,0,0,1-2.21-.5,1.13,1.13,0,0,0-1.23,1.89,10.57,10.57,0,0,0,2.75,1.11C47.05,58,45.14,60,45,60.14a1.12,1.12,0,1,0,1.65,1.52s1.35-1.45,2.84-2.88c-1.38,1.72-2.68,3.52-2.91,3.85a1.12,1.12,0,0,0,.91,1.78,1.15,1.15,0,0,0,.92-.47c.73-1,1.77-2.42,2.77-3.67-.37.73-.84,1.56-1.78,3.07a1.12,1.12,0,0,0,.36,1.55,1.09,1.09,0,0,0,.59.17,1.13,1.13,0,0,0,1-.53c.39-.62.7-1.14,1-1.58a1.12,1.12,0,0,0,.43,1.36,1.06,1.06,0,0,0,.61.18A1.14,1.14,0,0,0,54.3,64a12,12,0,0,0,1.78-4l.05,0C56.76,56.86,56,55.36,54.85,54.54Zm-2.26,7.92c.37-.65.63-1.15.87-1.64A12.81,12.81,0,0,1,52.59,62.46Z"/><path d="M20.37,67.31c-3.56-.2-8.73,6.77-3.44,8.67-4.79-.11-6,6.66-1.57,8.53C7.67,83,8.56,93,12.2,96.58a4.14,4.14,0,0,0-4.58,4.52c.37,2.59,1.4,6.17,7.79,8.08s10.29-1.67,13.47-5.06c2,4.16,12.09-1.46,11-6.43,3.8,1.34,7.2-3,7.27-6.41s-2.28-5.92-4.51-8.1c1.57-1.44,1.87-4.12,1.46-6.17-.69-3.39-4.95-3.73-4.95-6.43,0-1,.19-3.89-.62-5.18-1.28-2.06-3.52-4.09-6.33-3.09C20.37,56.71,20.37,67.31,20.37,67.31Z"/><path d="M27.26,176.59c-3.25-.57-3.77-.41-7-1.19l-7.43,9.08H41.66L24.93,180Z"/><path d="M80.91,179.19,79.21,177a22.31,22.31,0,0,1-4.88,2.45l4.55,5.08H95.77Z"/><path class="cls-8" d="M17.23,176.62c3.23.79,6.45,1.61,9.72,2.17l23.79-29.28-4.05-11.63L30,118.67l4.8,27.23Z"/><path class="cls-9" d="M49.59,110.61c-6.53-1.73-15.38.46-21.73,2.86,0,0,3.89,15.51,6.45,20.13C41.76,147.08,74,180.7,74,180.7c1.77-.61,5.18-3.1,6.74-4.11Z"/><path class="cls-12" d="M27,119.53c6.31-2.36,19-6.36,25.44-4.73,0,0-8.59-20.19-12.49-24.64-2.63-3-17-11.46-17-.41A127,127,0,0,0,27,119.53Z"/><path class="cls-1" d="M32.6,88.81l-.26.08a3.6,3.6,0,0,1-4.41-2.54,21,21,0,0,1-.57-4.79,3.6,3.6,0,1,1,7.2,0,15.08,15.08,0,0,0,.32,3A3.6,3.6,0,0,1,32.6,88.81Z"/><path class="cls-10" d="M35,85.25a3.51,3.51,0,0,0-.12-.78,15.08,15.08,0,0,1-.32-3,3.6,3.6,0,1,0-7.2,0v.3C29.14,83.86,32.06,84.81,35,85.25Z"/><path class="cls-1" d="M38.52,74.45A6.8,6.8,0,0,1,34.15,83h0a6.8,6.8,0,0,1-8.58-4.37l-1.46-4.5a6.81,6.81,0,0,1,4.37-8.58h0A6.81,6.81,0,0,1,37.06,70Z"/><path class="cls-1" d="M78.63,70.84a1,1,0,0,0-.48-.23l.55-.6a1.12,1.12,0,0,0-.07-1.59.59.59,0,0,0-.18-.13,1.12,1.12,0,0,0-1.3-1.7c.51-.52.83-.88.87-.92a1.13,1.13,0,0,0-1.69-1.49,23.74,23.74,0,0,1-5,4.23,6.09,6.09,0,0,0-2.64-2.27,1.12,1.12,0,0,0-1.44.65,1.13,1.13,0,0,0,.63,1.45,3.83,3.83,0,0,1,1.58,1.42,5.39,5.39,0,0,0-.26,1C52.65,93.12,30.68,85.16,29.69,84.78a3.83,3.83,0,0,0-2.76,7.14,39.72,39.72,0,0,0,13.32,2.15,41.94,41.94,0,0,0,4.88-.28c8.27-1,20.5-5.72,30.27-18.31.16-.1.39-.24.68-.45a6,6,0,0,0,.62-.45l0,0a16.5,16.5,0,0,0,2.1-2.14A1.11,1.11,0,0,0,78.63,70.84Z"/><path class="cls-2" d="M48.14,84.84l-.93.2a33.34,33.34,0,0,1-7,.74,30.87,30.87,0,0,1-10.28-1.63,4.5,4.5,0,0,0-5.81,2.58,4,4,0,0,0,.08,3.44c2.19,3.9,8.23,5.48,16.05,5.48a45.38,45.38,0,0,0,5-.28c1-.12,2-.29,3.1-.52l.66-.17A26.82,26.82,0,0,1,47.83,89,33.51,33.51,0,0,1,48.14,84.84Z"/><path d="M24,77.78c2.36-1.51,3.18-4.32,2.92-7.13,2.07,1.39,3.71.54,5-1.85,3.93,5.5,9.92-2.69,1.76-5.65-6.53-2.38-12.93,4.08-11.26,10.57Z"/></g></g></svg>