<?xml version="1.0" encoding="utf-8"?>
<!-- Generator: Adobe Illustrator 25.2.0, SVG Export Plug-In . SVG Version: 6.00 Build 0)  -->
<svg version="1.1" id="Layer_1" xmlns="http://www.w3.org/2000/svg" xmlns:xlink="http://www.w3.org/1999/xlink" x="0px" y="0px"
	 width="3811.6px" height="486.5px" viewBox="0 0 3811.6 486.5" style="enable-background:new 0 0 3811.6 486.5;"
	 xml:space="preserve">
<style type="text/css">
	.st0{fill:#231F20;}
	.st1{fill:#84BD00;}
	.st2{fill:none;}
</style>
<g>
	<g>
		<path class="st0" d="M337.7,251L247,0h-36.8l-57.7,170.6c0.9,0.7,1.7,1.4,2.6,2l24.6,18.4l33.6-103.2l50.5,142.3
			C282.4,240,325.8,248,337.7,251"/>
		<path class="st0" d="M466.2,473.5c0,0-11.3,3.1-20.5-3.1c-9.2-6.2-16.4-16.4-27.7-40c-5.9-12.3-12.9-27.4-18.2-39
			c22.3,0.9,44,0.3,65.4-1v-45.1c0,0-155.9,22.6-268.8-54.4C83.6,214,28.2,128.9,15.9,109.4C8.7,97.9,40.1,183,108.6,257.3L47.1,423
			c-8,22-18.1,47.4-42.8,51.4v12c17.4,0,36.8-4,55.5-4c18.7,0,37.5,4,56.1,4v-12c-20-1.4-31.4-12-31.4-34.8
			c0-20,18.6-63.3,33.3-110.1h0.2l9.9-30.1h0l6.6-16.4c11.9,10.8,24.7,21.1,38.4,30.5c59.5,40.6,113.2,61.1,163.6,70.8
			c6.7,13.9,33.1,70,24.1,78.9c-10.2,10.3-26.7,11.3-30.8,12.3c-4.1,1-1,10.2-1,10.2s72.4-4.4,76-4.4c5.7,0,62.5,4.4,62.5,4.4
			L466.2,473.5z"/>
		<path class="st1" d="M1,28.4c-9.2-14.5,44.1,127.2,157,204.1c112.8,76.9,205.1,82.1,292.3,76.9v-45.1c0,0-155.9,22.6-268.8-54.4
			C68.7,133,13.3,47.9,1,28.4"/>
		<rect class="st2" width="467.2" height="486.5"/>
	</g>
	<g>
		<path d="M700.5,352.5h-75.6l-14.4,34.9h-38.6l72.6-162.8h37.2l72.8,162.8h-39.5L700.5,352.5z M688.6,323.9l-25.8-62.3L637,323.9
			H688.6z"/>
		<path d="M840,387.4L812.6,349l-28.4,38.4h-39.5l48.2-63l-46.5-62.1H787l26.5,36.5l27.2-36.5h38.6l-46.5,61.2l48.4,64H840z"/>
		<path d="M900.7,239c-4.2-3.9-6.3-8.7-6.3-14.4c0-5.7,2.1-10.5,6.3-14.4c4.2-3.9,9.6-5.8,16.3-5.8c6.7,0,12.1,1.9,16.3,5.6
			c4.2,3.7,6.3,8.4,6.3,14c0,6-2.1,11-6.3,15s-9.6,5.9-16.3,5.9C910.4,244.8,904.9,242.9,900.7,239z M898.9,262.2h36.3v125.2h-36.3
			V262.2z"/>
		<path d="M993,381c-10.5-5.5-18.7-13.1-24.5-22.9c-5.9-9.8-8.8-20.9-8.8-33.3c0-12.4,2.9-23.5,8.8-33.3
			c5.9-9.8,14.1-17.4,24.5-22.9c10.5-5.5,22.3-8.3,35.5-8.3c13.2,0,25,2.8,35.4,8.3c10.4,5.5,18.5,13.1,24.4,22.9
			c5.9,9.8,8.8,20.9,8.8,33.3c0,12.4-2.9,23.5-8.8,33.3c-5.9,9.8-14,17.4-24.4,22.9c-10.4,5.5-22.2,8.3-35.4,8.3
			C1015.3,389.3,1003.5,386.5,993,381z M1051.4,350.1c6-6.3,9-14.7,9-25.2c0-10.5-3-19-9-25.2c-6-6.3-13.6-9.4-22.9-9.4
			c-9.3,0-17,3.1-23,9.4c-6,6.3-9.1,14.7-9.1,25.2c0,10.5,3,19,9.1,25.2c6,6.3,13.7,9.4,23,9.4
			C1037.8,359.5,1045.4,356.3,1051.4,350.1z"/>
		<path d="M1318.9,274.2c9.2,9.2,13.8,23.1,13.8,41.5v71.7h-36.3v-66.1c0-9.9-2.1-17.3-6.2-22.2c-4.1-4.9-10-7.3-17.6-7.3
			c-8.5,0-15.3,2.8-20.2,8.3c-5,5.5-7.4,13.7-7.4,24.5v62.8h-36.3v-66.1c0-19.7-7.9-29.5-23.7-29.5c-8.4,0-15,2.8-20,8.3
			c-5,5.5-7.4,13.7-7.4,24.5v62.8h-36.3V262.2h34.7v14.4c4.7-5.3,10.4-9.3,17.1-12.1c6.7-2.8,14.2-4.2,22.2-4.2
			c8.8,0,16.8,1.7,24,5.2c7.1,3.5,12.9,8.6,17.2,15.2c5.1-6.5,11.6-11.6,19.4-15.1c7.8-3.6,16.4-5.4,25.7-5.4
			C1297.2,260.4,1309.7,265,1318.9,274.2z"/>
		<path d="M1581.9,387.4l-0.2-97.7l-47.9,80.5h-17l-47.7-78.4v95.6h-35.4V224.6h31.2l60.9,101.2l60-101.2h30.9l0.5,162.8H1581.9z"/>
		<path d="M1677.4,381c-10.5-5.5-18.7-13.1-24.5-22.9c-5.9-9.8-8.8-20.9-8.8-33.3c0-12.4,2.9-23.5,8.8-33.3
			c5.9-9.8,14.1-17.4,24.5-22.9c10.5-5.5,22.3-8.3,35.5-8.3c13.2,0,25,2.8,35.4,8.3c10.4,5.5,18.5,13.1,24.4,22.9
			c5.9,9.8,8.8,20.9,8.8,33.3c0,12.4-2.9,23.5-8.8,33.3c-5.9,9.8-14,17.4-24.4,22.9c-10.4,5.5-22.2,8.3-35.4,8.3
			C1699.7,389.3,1687.8,386.5,1677.4,381z M1735.8,350.1c6-6.3,9-14.7,9-25.2c0-10.5-3-19-9-25.2c-6-6.3-13.6-9.4-22.9-9.4
			c-9.3,0-17,3.1-23,9.4c-6,6.3-9.1,14.7-9.1,25.2c0,10.5,3,19,9.1,25.2c6,6.3,13.7,9.4,23,9.4
			C1722.2,359.5,1729.8,356.3,1735.8,350.1z"/>
		<path d="M1857.9,265c7.4-3.1,15.9-4.7,25.5-4.7v33.5c-4-0.3-6.7-0.5-8.1-0.5c-10.4,0-18.5,2.9-24.4,8.7
			c-5.9,5.8-8.8,14.5-8.8,26.2v59.1h-36.3V262.2h34.7v16.5C1844.7,272.7,1850.5,268.1,1857.9,265z"/>
		<path d="M1990.1,381.3c-3.6,2.6-7.9,4.6-13.1,5.9c-5.2,1.3-10.7,2-16.4,2c-14.9,0-26.4-3.8-34.5-11.4
			c-8.1-7.6-12.2-18.8-12.2-33.5v-51.4h-19.3V265h19.3v-30.5h36.3V265h31.2v27.9h-31.2v50.9c0,5.3,1.4,9.3,4.1,12.2
			c2.7,2.9,6.5,4.3,11.5,4.3c5.7,0,10.6-1.5,14.7-4.7L1990.1,381.3z"/>
		<path d="M2135.8,262.2v104.2c0,23-6,40-17.9,51.2c-11.9,11.2-29.4,16.7-52.3,16.7c-12.1,0-23.6-1.5-34.4-4.4
			c-10.9-2.9-19.9-7.2-27-12.8l14.4-26.1c5.3,4.3,11.9,7.8,20,10.4c8.1,2.6,16.1,3.8,24.2,3.8c12.6,0,21.8-2.8,27.8-8.5
			c6-5.7,9-14.2,9-25.7v-5.4c-9.5,10.4-22.6,15.6-39.5,15.6c-11.5,0-22-2.5-31.5-7.6c-9.5-5-17.1-12.1-22.7-21.3
			c-5.6-9.1-8.4-19.7-8.4-31.6c0-11.9,2.8-22.5,8.4-31.6c5.6-9.1,13.1-16.2,22.7-21.3c9.5-5,20-7.6,31.5-7.6
			c18.1,0,31.9,6,41.4,17.9v-16.1H2135.8z M2090.8,343.1c6.1-5.7,9.2-13.1,9.2-22.2c0-9.1-3.1-16.6-9.2-22.2
			c-6.1-5.7-14-8.5-23.6-8.5c-9.6,0-17.5,2.8-23.7,8.5c-6.2,5.7-9.3,13.1-9.3,22.2c0,9.2,3.1,16.6,9.3,22.2
			c6.2,5.7,14.1,8.5,23.7,8.5C2076.8,351.6,2084.6,348.7,2090.8,343.1z"/>
		<path d="M2264.6,274.2c10.4,9.2,15.6,23.1,15.6,41.8v71.4h-34v-15.6c-6.8,11.6-19.5,17.4-38.2,17.4c-9.6,0-18-1.6-25-4.9
			c-7.1-3.3-12.4-7.8-16.2-13.5c-3.7-5.7-5.6-12.2-5.6-19.5c0-11.6,4.4-20.8,13.1-27.5c8.8-6.7,22.3-10,40.6-10h28.8
			c0-7.9-2.4-14-7.2-18.3c-4.8-4.3-12-6.4-21.6-6.4c-6.7,0-13.2,1-19.7,3.1c-6.4,2.1-11.9,4.9-16.4,8.5l-13-25.4
			c6.8-4.8,15-8.5,24.5-11.2c9.5-2.6,19.3-4,29.4-4C2239.4,260.4,2254.3,265,2264.6,274.2z M2233.7,360.5c4.8-2.9,8.2-7.1,10.2-12.7
			V335h-24.9c-14.9,0-22.3,4.9-22.3,14.7c0,4.7,1.8,8.3,5.5,11c3.6,2.7,8.6,4.1,15,4.1C2223.4,364.8,2228.9,363.4,2233.7,360.5z"/>
		<path d="M2443.5,262.2v104.2c0,23-6,40-17.9,51.2c-11.9,11.2-29.4,16.7-52.3,16.7c-12.1,0-23.6-1.5-34.4-4.4
			c-10.9-2.9-19.9-7.2-27-12.8l14.4-26.1c5.3,4.3,11.9,7.8,20,10.4c8.1,2.6,16.1,3.8,24.2,3.8c12.6,0,21.8-2.8,27.8-8.5
			c6-5.7,9-14.2,9-25.7v-5.4c-9.5,10.4-22.6,15.6-39.5,15.6c-11.5,0-22-2.5-31.5-7.6c-9.5-5-17.1-12.1-22.7-21.3
			c-5.6-9.1-8.4-19.7-8.4-31.6c0-11.9,2.8-22.5,8.4-31.6c5.6-9.1,13.1-16.2,22.7-21.3c9.5-5,20-7.6,31.5-7.6
			c18.1,0,31.9,6,41.4,17.9v-16.1H2443.5z M2398.5,343.1c6.1-5.7,9.2-13.1,9.2-22.2c0-9.1-3.1-16.6-9.2-22.2
			c-6.1-5.7-14-8.5-23.6-8.5c-9.6,0-17.5,2.8-23.7,8.5c-6.2,5.7-9.3,13.1-9.3,22.2c0,9.2,3.1,16.6,9.3,22.2
			c6.2,5.7,14.1,8.5,23.7,8.5C2384.5,351.6,2392.4,348.7,2398.5,343.1z"/>
		<path d="M2599.2,335h-94.7c1.7,7.8,5.7,13.9,12.1,18.4c6.4,4.5,14.3,6.7,23.7,6.7c6.5,0,12.3-1,17.3-2.9c5-1.9,9.7-5,14.1-9.2
			L2591,369c-11.8,13.5-29,20.2-51.6,20.2c-14.1,0-26.6-2.8-37.5-8.3c-10.9-5.5-19.2-13.1-25.1-22.9c-5.9-9.8-8.8-20.9-8.8-33.3
			c0-12.2,2.9-23.3,8.7-33.2c5.8-9.8,13.8-17.5,24-23c10.2-5.5,21.5-8.3,34.1-8.3c12.2,0,23.3,2.6,33.3,7.9
			c9.9,5.3,17.7,12.8,23.4,22.7c5.7,9.9,8.5,21.3,8.5,34.3C2599.9,325.7,2599.6,329,2599.2,335z M2514.3,294.8
			c-5.6,4.7-9,11-10.2,19.1h61.6c-1.2-7.9-4.7-14.2-10.2-19c-5.6-4.7-12.4-7.1-20.5-7.1C2526.7,287.8,2519.8,290.2,2514.3,294.8z"/>
		<path d="M2708.6,384.9c-12-3.5-21.7-8-29-13.6l12.8-28.4c7,5.1,15.3,9.2,24.9,12.3c9.6,3.1,19.2,4.7,28.8,4.7
			c10.7,0,18.6-1.6,23.7-4.8c5.1-3.2,7.7-7.4,7.7-12.7c0-3.9-1.5-7.1-4.5-9.7c-3-2.6-6.9-4.6-11.6-6.2c-4.7-1.5-11.1-3.3-19.2-5.1
			c-12.4-2.9-22.6-5.9-30.5-8.8c-7.9-2.9-14.7-7.7-20.4-14.2c-5.7-6.5-8.5-15.2-8.5-26.1c0-9.5,2.6-18,7.7-25.7s12.8-13.8,23.1-18.3
			c10.3-4.5,22.9-6.7,37.8-6.7c10.4,0,20.5,1.2,30.5,3.7c9.9,2.5,18.6,6,26.1,10.7l-11.6,28.6c-15-8.5-30.1-12.8-45.1-12.8
			c-10.5,0-18.3,1.7-23.4,5.1c-5,3.4-7.6,7.9-7.6,13.5s2.9,9.7,8.7,12.4c5.8,2.7,14.7,5.4,26.6,8c12.4,2.9,22.6,5.9,30.5,8.8
			c7.9,2.9,14.7,7.6,20.4,14c5.7,6.4,8.5,15,8.5,25.8c0,9.3-2.6,17.8-7.8,25.5c-5.2,7.7-13,13.8-23.4,18.3
			c-10.4,4.5-23,6.7-37.9,6.7C2733.1,390.2,2720.6,388.4,2708.6,384.9z"/>
		<path d="M2862.4,381c-10.5-5.5-18.7-13.1-24.5-22.9c-5.9-9.8-8.8-20.9-8.8-33.3c0-12.4,2.9-23.5,8.8-33.3
			c5.9-9.8,14.1-17.4,24.5-22.9c10.5-5.5,22.3-8.3,35.5-8.3c13.2,0,25,2.8,35.4,8.3c10.4,5.5,18.5,13.1,24.4,22.9
			c5.9,9.8,8.8,20.9,8.8,33.3c0,12.4-2.9,23.5-8.8,33.3c-5.9,9.8-14,17.4-24.4,22.9c-10.4,5.5-22.2,8.3-35.4,8.3
			C2884.7,389.3,2872.8,386.5,2862.4,381z M2920.8,350.1c6-6.3,9-14.7,9-25.2c0-10.5-3-19-9-25.2c-6-6.3-13.6-9.4-22.9-9.4
			c-9.3,0-17,3.1-23,9.4c-6,6.3-9.1,14.7-9.1,25.2c0,10.5,3,19,9.1,25.2c6,6.3,13.7,9.4,23,9.4
			C2907.2,359.5,2914.8,356.3,2920.8,350.1z"/>
		<path d="M2990.7,214.8h36.3v172.6h-36.3V214.8z"/>
		<path d="M3186.8,262.2v125.2h-34.4v-14.9c-4.8,5.4-10.5,9.6-17.2,12.4c-6.7,2.9-13.9,4.3-21.6,4.3c-16.4,0-29.5-4.7-39.1-14.2
			c-9.6-9.5-14.4-23.5-14.4-42.1v-70.7h36.3v65.4c0,20.2,8.5,30.2,25.4,30.2c8.7,0,15.7-2.8,20.9-8.5c5.3-5.7,7.9-14.1,7.9-25.2
			v-61.9H3186.8z"/>
		<path d="M3301.2,381.3c-3.6,2.6-7.9,4.6-13.1,5.9c-5.2,1.3-10.7,2-16.4,2c-14.9,0-26.4-3.8-34.5-11.4
			c-8.1-7.6-12.2-18.8-12.2-33.5v-51.4h-19.3V265h19.3v-30.5h36.3V265h31.2v27.9h-31.2v50.9c0,5.3,1.4,9.3,4.1,12.2
			c2.7,2.9,6.5,4.3,11.5,4.3c5.7,0,10.6-1.5,14.7-4.7L3301.2,381.3z"/>
		<path d="M3323.6,239c-4.2-3.9-6.3-8.7-6.3-14.4c0-5.7,2.1-10.5,6.3-14.4c4.2-3.9,9.6-5.8,16.3-5.8c6.7,0,12.1,1.9,16.3,5.6
			c4.2,3.7,6.3,8.4,6.3,14c0,6-2.1,11-6.3,15s-9.6,5.9-16.3,5.9C3333.2,244.8,3327.8,242.9,3323.6,239z M3321.7,262.2h36.3v125.2
			h-36.3V262.2z"/>
		<path d="M3415.8,381c-10.5-5.5-18.7-13.1-24.5-22.9c-5.9-9.8-8.8-20.9-8.8-33.3c0-12.4,2.9-23.5,8.8-33.3
			c5.9-9.8,14.1-17.4,24.5-22.9c10.5-5.5,22.3-8.3,35.5-8.3c13.2,0,25,2.8,35.4,8.3c10.4,5.5,18.5,13.1,24.4,22.9
			c5.9,9.8,8.8,20.9,8.8,33.3c0,12.4-2.9,23.5-8.8,33.3c-5.9,9.8-14,17.4-24.4,22.9c-10.4,5.5-22.2,8.3-35.4,8.3
			C3438.1,389.3,3426.3,386.5,3415.8,381z M3474.2,350.1c6-6.3,9-14.7,9-25.2c0-10.5-3-19-9-25.2c-6-6.3-13.6-9.4-22.9-9.4
			c-9.3,0-17,3.1-23,9.4c-6,6.3-9.1,14.7-9.1,25.2c0,10.5,3,19,9.1,25.2c6,6.3,13.7,9.4,23,9.4
			C3460.6,359.5,3468.2,356.3,3474.2,350.1z"/>
		<path d="M3657.7,274.3c9.5,9.3,14.3,23.1,14.3,41.4v71.7h-36.3v-66.1c0-9.9-2.2-17.3-6.5-22.2c-4.3-4.9-10.6-7.3-18.8-7.3
			c-9.2,0-16.4,2.8-21.9,8.5c-5.4,5.7-8.1,14.1-8.1,25.2v61.9h-36.3V262.2h34.7v14.7c4.8-5.3,10.8-9.3,17.9-12.2
			c7.1-2.9,15-4.3,23.5-4.3C3635.7,260.4,3648.2,265,3657.7,274.3z"/>
		<path d="M3716.5,385.4c-9.9-2.6-17.8-5.8-23.7-9.7l12.1-26.1c5.6,3.6,12.3,6.5,20.2,8.7c7.9,2.2,15.7,3.4,23.3,3.4
			c15.4,0,23-3.8,23-11.4c0-3.6-2.1-6.1-6.3-7.7c-4.2-1.5-10.6-2.9-19.3-4c-10.2-1.5-18.7-3.3-25.4-5.4c-6.7-2-12.4-5.6-17.3-10.7
			c-4.9-5.1-7.3-12.4-7.3-21.9c0-7.9,2.3-14.9,6.9-21.1c4.6-6.1,11.2-10.9,20-14.3c8.8-3.4,19.1-5.1,31.1-5.1c8.8,0,17.6,1,26.4,2.9
			c8.8,1.9,16,4.6,21.8,8l-12.1,25.8c-11-6.2-23-9.3-36.1-9.3c-7.8,0-13.6,1.1-17.4,3.3c-3.9,2.2-5.8,5-5.8,8.4
			c0,3.9,2.1,6.6,6.3,8.1c4.2,1.6,10.9,3,20,4.4c10.2,1.7,18.6,3.5,25.1,5.5c6.5,1.9,12.2,5.5,17,10.6c4.8,5.1,7.2,12.3,7.2,21.4
			c0,7.8-2.3,14.7-7,20.7c-4.7,6-11.4,10.7-20.4,14.1c-8.9,3.3-19.5,5-31.8,5C3736.6,389.3,3726.4,388,3716.5,385.4z"/>
	</g>
</g>
</svg>
