<?xml version="1.0" encoding="utf-8"?>
<!-- Generator: Adobe Illustrator 25.2.0, SVG Export Plug-In . SVG Version: 6.00 Build 0)  -->
<svg version="1.1" id="Layer_1" xmlns="http://www.w3.org/2000/svg" xmlns:xlink="http://www.w3.org/1999/xlink" x="0px" y="0px"
	 width="264.5px" height="153.1px" viewBox="0 0 264.5 153.1" style="enable-background:new 0 0 264.5 153.1;" xml:space="preserve"
	>
<style type="text/css">
	.st0{fill:#84BD00;}
</style>
<g>
	<g>
		<g>
			<path d="M163.3,38.4c5.3,0,9.8,2,13.7,6c3.8,4,5.8,9,5.8,14.9c0,6.1-1.9,11.2-5.8,15.3c-3.9,4.1-8.6,6.1-14.1,6.1
				c-5.6,0-10.3-2-14-5.9c-3.8-4-5.7-9.1-5.7-15.4c0-6.4,2.2-11.7,6.6-15.7C153.5,40.1,158,38.4,163.3,38.4z M162.8,40.6
				c-3.6,0-6.5,1.3-8.7,4c-2.7,3.3-4.1,8.2-4.1,14.7c0,6.6,1.4,11.7,4.2,15.2c2.2,2.7,5,4.1,8.6,4.1c3.8,0,6.9-1.5,9.4-4.4
				c2.5-3,3.7-7.6,3.7-14c0-6.9-1.4-12.1-4.1-15.5C169.6,41.9,166.6,40.6,162.8,40.6z"/>
			<path d="M211.3,79.8l-15.6-34v27c0,2.5,0.3,4,0.8,4.7c0.7,0.8,1.9,1.2,3.5,1.2h1.4v1.1h-14.1v-1.1h1.4c1.7,0,2.9-0.5,3.6-1.6
				c0.4-0.6,0.7-2.1,0.7-4.4V46.3c0-1.8-0.2-3.1-0.6-3.9c-0.3-0.6-0.8-1.1-1.5-1.4c-0.7-0.4-1.9-0.6-3.6-0.6v-1.1h11.5L213.5,71
				l14.4-31.7h11.5v1.1H238c-1.7,0-3,0.5-3.7,1.6c-0.4,0.6-0.7,2.1-0.7,4.4v26.4c0,2.5,0.3,4,0.8,4.7c0.7,0.8,1.9,1.2,3.5,1.2h1.4
				v1.1h-17.2v-1.1h1.4c1.7,0,2.9-0.5,3.6-1.6c0.4-0.6,0.7-2.1,0.7-4.4v-27l-15.6,34h-0.9V79.8z"/>
			<g>
				<polygon points="43.8,25.5 49.9,39.9 64.2,48.7 47.5,9.4 45.7,9.4 36.3,30.9 40.2,33.5 				"/>
				<path d="M34.1,47.4l-3.5-3.1L21.2,66c-2.1,5-4.1,8.3-5.8,9.9c-0.9,0.8-2.7,1.5-5.6,2v1.9h21.9v-1.9c-3.4-0.2-5.5-0.8-6.5-1.5
					c-1-0.8-1.5-1.7-1.5-2.8c0-1.3,0.6-3.3,1.7-6l4.7-10.8l1.6-3.8L34.1,47.4z"/>
			</g>
			<g>
				<path d="M133.2,77.4c-0.3-0.7-0.7-2.7-0.7-4.8V46.5c0-2.4,0.2-4,0.7-4.6c0.8-1,2-1.5,3.6-1.5h1.5v-1.1H121v1.1h1.4
					c1,0,1.9,0.2,2.7,0.7c0.6,0.4,1,0.8,1.2,1.3c0.3,0.7,0.4,2,0.4,4.1v26.1c0,1.1,0,2-0.1,2.8"/>
			</g>
			<g>
				<path class="st0" d="M0,0c22.1,33,52.6,54.9,84.5,69.5l5.1-6C26.9,35.4,0,0,0,0z"/>
				<path class="st0" d="M253,97c-63.5-2.3-121.2-15.3-158.6-31.4l-4.9,6.1C164.1,104,253,97,253,97z"/>
			</g>
			<g>
				<path d="M4.1,18.1c0,0,17.7,34.8,73,60.4l4.3-5.1C52.3,60.8,24.8,43.1,4.1,18.1z"/>
				<path d="M264.5,104.6c0,0-100.8,2.8-178.1-29.1l-4.2,5.2C119.9,97.1,188.5,109.7,264.5,104.6z"/>
			</g>
			<g>
				<path d="M99,57.4l8-10.3c1.6-2.1,2.9-3.5,3.8-4.3s1.9-1.4,3-1.8c0.7-0.3,1.6-0.5,2.8-0.5v-1.1h-14.3v1.1c1.4,0,2.4,0.1,2.8,0.3
					c0.5,0.2,0.8,0.5,1.1,0.9c0.2,0.3,0.4,0.7,0.4,1.1c0,0.4-0.1,0.8-0.3,1.2c-0.2,0.4-0.7,1.1-1.5,2.2l-7.2,9.1L91.4,46
					c-1-1.4-1.4-2.5-1.4-3.2c0-0.6,0.3-1.1,0.9-1.5c0.6-0.5,1.7-0.7,3.3-0.8v-1.1H75.3v1.1c2,0.1,3.7,0.6,5.2,1.6s3.3,3.1,5.5,6.2
					L94,60L77.7,80c-1.4,1.8-2.7,3.2-3.8,4c-1.1,0.9-2.3,1.6-3.5,2.1c-0.7,0.3-1.6,0.5-2.6,0.6v1.1h14.3v-1.1
					c-1.5-0.1-2.5-0.3-3.1-0.7s-0.8-0.9-0.8-1.6c0-0.4,0.1-0.8,0.3-1.2c0.2-0.4,0.7-1.2,1.6-2.3l15.2-19l2.4,3.6
					c2.2,0.8,6.3,2.6,8.9,3.4L99,57.4z"/>
			</g>
		</g>
		<g>
			<path class="st0" d="M21.7,125.9v-6.4l-3.2,5.3h-1.1l-3.1-5.2v6.3H12v-10.7h2l4,6.7l3.9-6.7h2v10.7
				C23.9,125.9,21.7,125.9,21.7,125.9z"/>
			<path class="st0" d="M32.3,125.4c-0.7-0.4-1.2-0.9-1.6-1.5s-0.6-1.4-0.6-2.2s0.2-1.5,0.6-2.2c0.4-0.6,0.9-1.1,1.6-1.5
				s1.5-0.5,2.3-0.5s1.6,0.2,2.3,0.5s1.2,0.9,1.6,1.5c0.4,0.6,0.6,1.4,0.6,2.2s-0.2,1.5-0.6,2.2c-0.4,0.6-0.9,1.1-1.6,1.5
				c-0.7,0.4-1.5,0.5-2.3,0.5S33,125.8,32.3,125.4z M36.1,123.4c0.4-0.4,0.6-1,0.6-1.7s-0.2-1.2-0.6-1.7s-0.9-0.6-1.5-0.6
				s-1.1,0.2-1.5,0.6s-0.6,1-0.6,1.7s0.2,1.2,0.6,1.7s0.9,0.6,1.5,0.6S35.8,123.8,36.1,123.4z"/>
			<path class="st0" d="M48.5,117.8c0.5-0.2,1-0.3,1.7-0.3v2.2c-0.3,0-0.4,0-0.5,0c-0.7,0-1.2,0.2-1.6,0.6c-0.4,0.4-0.6,1-0.6,1.7
				v3.9H45v-8.2h2.3v1.1C47.6,118.3,48,118,48.5,117.8z"/>
			<path class="st0" d="M61.4,125.5c-0.2,0.2-0.5,0.3-0.9,0.4c-0.3,0.1-0.7,0.1-1.1,0.1c-1,0-1.7-0.2-2.3-0.7s-0.8-1.2-0.8-2.2v-3.4
				H55v-1.8h1.3v-2h2.4v2h2v1.8h-2v3.3c0,0.3,0.1,0.6,0.3,0.8c0.2,0.2,0.4,0.3,0.8,0.3c0.4,0,0.7-0.1,1-0.3L61.4,125.5z"/>
			<path class="st0" d="M75.3,117.6v6.9c0,1.5-0.4,2.6-1.2,3.4c-0.8,0.7-1.9,1.1-3.4,1.1c-0.8,0-1.5-0.1-2.3-0.3s-1.3-0.5-1.8-0.8
				l0.9-1.7c0.3,0.3,0.8,0.5,1.3,0.7s1.1,0.3,1.6,0.3c0.8,0,1.4-0.2,1.8-0.6s0.6-0.9,0.6-1.7v-0.4c-0.6,0.7-1.5,1-2.6,1
				c-0.8,0-1.4-0.2-2.1-0.5s-1.1-0.8-1.5-1.4s-0.6-1.3-0.6-2.1s0.2-1.5,0.6-2.1s0.9-1.1,1.5-1.4s1.3-0.5,2.1-0.5
				c1.2,0,2.1,0.4,2.7,1.2v-1.1H75.3z M72.3,123c0.4-0.4,0.6-0.9,0.6-1.5s-0.2-1.1-0.6-1.5s-0.9-0.6-1.6-0.6s-1.2,0.2-1.6,0.6
				s-0.6,0.9-0.6,1.5s0.2,1.1,0.6,1.5s0.9,0.6,1.6,0.6S71.9,123.3,72.3,123z"/>
			<path class="st0" d="M88,118.4c0.7,0.6,1,1.5,1,2.7v4.7h-2.2v-1c-0.4,0.8-1.3,1.1-2.5,1.1c-0.6,0-1.2-0.1-1.6-0.3
				c-0.5-0.2-0.8-0.5-1.1-0.9s-0.4-0.8-0.4-1.3c0-0.8,0.3-1.4,0.9-1.8s1.5-0.7,2.7-0.7h1.9c0-0.5-0.2-0.9-0.5-1.2
				c-0.3-0.3-0.8-0.4-1.4-0.4c-0.4,0-0.9,0.1-1.3,0.2s-0.8,0.3-1.1,0.6l-0.9-1.7c0.4-0.3,1-0.6,1.6-0.7c0.6-0.2,1.3-0.3,1.9-0.3
				C86.4,117.5,87.4,117.8,88,118.4z M86,124.1c0.3-0.2,0.5-0.5,0.7-0.8v-0.8h-1.6c-1,0-1.5,0.3-1.5,1c0,0.3,0.1,0.5,0.4,0.7
				s0.6,0.3,1,0.3C85.3,124.4,85.7,124.3,86,124.1z"/>
			<path class="st0" d="M104.1,117.6v6.9c0,1.5-0.4,2.6-1.2,3.4c-0.8,0.7-1.9,1.1-3.4,1.1c-0.8,0-1.5-0.1-2.3-0.3s-1.3-0.5-1.8-0.8
				l0.9-1.7c0.3,0.3,0.8,0.5,1.3,0.7s1.1,0.3,1.6,0.3c0.8,0,1.4-0.2,1.8-0.6s0.6-0.9,0.6-1.7v-0.4c-0.6,0.7-1.5,1-2.6,1
				c-0.8,0-1.4-0.2-2.1-0.5s-1.1-0.8-1.5-1.4s-0.6-1.3-0.6-2.1s0.2-1.5,0.6-2.1s0.9-1.1,1.5-1.4s1.3-0.5,2.1-0.5
				c1.2,0,2.1,0.4,2.7,1.2v-1.1H104.1z M101.1,123c0.4-0.4,0.6-0.9,0.6-1.5s-0.2-1.1-0.6-1.5s-0.9-0.6-1.6-0.6s-1.2,0.2-1.6,0.6
				s-0.6,0.9-0.6,1.5s0.2,1.1,0.6,1.5s0.9,0.6,1.6,0.6S100.7,123.3,101.1,123z"/>
			<path class="st0" d="M118.6,122.4h-6.2c0.1,0.5,0.4,0.9,0.8,1.2c0.4,0.3,0.9,0.4,1.6,0.4c0.4,0,0.8-0.1,1.1-0.2
				c0.3-0.1,0.6-0.3,0.9-0.6l1.3,1.4c-0.8,0.9-1.9,1.3-3.4,1.3c-0.9,0-1.7-0.2-2.5-0.5c-0.7-0.4-1.3-0.9-1.7-1.5
				c-0.4-0.6-0.6-1.4-0.6-2.2c0-0.8,0.2-1.5,0.6-2.2s0.9-1.2,1.6-1.5s1.4-0.5,2.2-0.5c0.8,0,1.5,0.2,2.2,0.5s1.2,0.8,1.5,1.5
				s0.6,1.4,0.6,2.3C118.7,121.8,118.6,122,118.6,122.4z M113,119.8c-0.4,0.3-0.6,0.7-0.7,1.3h4.1c-0.1-0.5-0.3-0.9-0.7-1.2
				c-0.4-0.3-0.8-0.5-1.3-0.5C113.8,119.3,113.4,119.5,113,119.8z"/>
			<path class="st0" d="M141.4,125.7c-0.8-0.2-1.4-0.5-1.9-0.9l0.8-1.9c0.5,0.3,1,0.6,1.6,0.8c0.6,0.2,1.3,0.3,1.9,0.3
				c0.7,0,1.2-0.1,1.6-0.3c0.3-0.2,0.5-0.5,0.5-0.8s-0.1-0.5-0.3-0.6c-0.2-0.2-0.5-0.3-0.8-0.4s-0.7-0.2-1.3-0.3
				c-0.8-0.2-1.5-0.4-2-0.6s-1-0.5-1.3-0.9c-0.4-0.4-0.6-1-0.6-1.7c0-0.6,0.2-1.2,0.5-1.7s0.8-0.9,1.5-1.2s1.5-0.4,2.5-0.4
				c0.7,0,1.4,0.1,2,0.2s1.2,0.4,1.7,0.7l-0.8,1.9c-1-0.6-2-0.8-3-0.8c-0.7,0-1.2,0.1-1.5,0.3c-0.3,0.2-0.5,0.5-0.5,0.9
				s0.2,0.6,0.6,0.8c0.4,0.2,1,0.4,1.8,0.5c0.8,0.2,1.5,0.4,2,0.6s1,0.5,1.3,0.9c0.4,0.4,0.6,1,0.6,1.7c0,0.6-0.2,1.2-0.5,1.7
				s-0.9,0.9-1.5,1.2c-0.7,0.3-1.5,0.4-2.5,0.4C143,126.1,142.2,125.9,141.4,125.7z"/>
			<path class="st0" d="M155.8,125.4c-0.7-0.4-1.2-0.9-1.6-1.5c-0.4-0.6-0.6-1.4-0.6-2.2s0.2-1.5,0.6-2.2c0.4-0.6,0.9-1.1,1.6-1.5
				c0.7-0.4,1.5-0.5,2.3-0.5c0.9,0,1.6,0.2,2.3,0.5c0.7,0.4,1.2,0.9,1.6,1.5c0.4,0.6,0.6,1.4,0.6,2.2s-0.2,1.5-0.6,2.2
				c-0.4,0.6-0.9,1.1-1.6,1.5c-0.7,0.4-1.5,0.5-2.3,0.5C157.2,126,156.4,125.8,155.8,125.4z M159.6,123.4c0.4-0.4,0.6-1,0.6-1.7
				s-0.2-1.2-0.6-1.7c-0.4-0.4-0.9-0.6-1.5-0.6s-1.1,0.2-1.5,0.6s-0.6,1-0.6,1.7s0.2,1.2,0.6,1.7c0.4,0.4,0.9,0.6,1.5,0.6
				S159.2,123.8,159.6,123.4z"/>
			<path class="st0" d="M168.5,114.5h2.4v11.3h-2.4V114.5z"/>
			<path class="st0" d="M185.7,117.6v8.2h-2.3v-1c-0.3,0.4-0.7,0.6-1.1,0.8c-0.4,0.2-0.9,0.3-1.4,0.3c-1.1,0-1.9-0.3-2.6-0.9
				c-0.6-0.6-0.9-1.5-0.9-2.8v-4.6h2.4v4.3c0,1.3,0.6,2,1.7,2c0.6,0,1-0.2,1.4-0.6c0.3-0.4,0.5-0.9,0.5-1.7v-4.1L185.7,117.6
				L185.7,117.6z"/>
			<path class="st0" d="M197.5,125.5c-0.2,0.2-0.5,0.3-0.9,0.4c-0.3,0.1-0.7,0.1-1.1,0.1c-1,0-1.7-0.2-2.3-0.7
				c-0.5-0.5-0.8-1.2-0.8-2.2v-3.4h-1.3v-1.8h1.3v-2h2.4v2h2v1.8h-2v3.3c0,0.3,0.1,0.6,0.3,0.8c0.2,0.2,0.4,0.3,0.8,0.3
				c0.4,0,0.7-0.1,1-0.3L197.5,125.5z"/>
			<path class="st0" d="M203.2,116.1c-0.3-0.3-0.4-0.6-0.4-0.9s0.1-0.7,0.4-0.9s0.6-0.4,1.1-0.4s0.8,0.1,1.1,0.4
				c0.3,0.2,0.4,0.6,0.4,0.9c0,0.4-0.1,0.7-0.4,1c-0.3,0.3-0.6,0.4-1.1,0.4S203.5,116.4,203.2,116.1z M203.1,117.6h2.4v8.2h-2.4
				V117.6z"/>
			<path class="st0" d="M213.6,125.4c-0.7-0.4-1.2-0.9-1.6-1.5c-0.4-0.6-0.6-1.4-0.6-2.2s0.2-1.5,0.6-2.2c0.4-0.6,0.9-1.1,1.6-1.5
				c0.7-0.4,1.5-0.5,2.3-0.5c0.9,0,1.6,0.2,2.3,0.5c0.7,0.4,1.2,0.9,1.6,1.5c0.4,0.6,0.6,1.4,0.6,2.2s-0.2,1.5-0.6,2.2
				c-0.4,0.6-0.9,1.1-1.6,1.5c-0.7,0.4-1.5,0.5-2.3,0.5C215,126,214.2,125.8,213.6,125.4z M217.4,123.4c0.4-0.4,0.6-1,0.6-1.7
				s-0.2-1.2-0.6-1.7c-0.4-0.4-0.9-0.6-1.5-0.6s-1.1,0.2-1.5,0.6s-0.6,1-0.6,1.7s0.2,1.2,0.6,1.7c0.4,0.4,0.9,0.6,1.5,0.6
				S217,123.8,217.4,123.4z"/>
			<path class="st0" d="M233.7,118.4c0.6,0.6,0.9,1.5,0.9,2.7v4.7h-2.4v-4.3c0-0.7-0.1-1.1-0.4-1.5c-0.3-0.3-0.7-0.5-1.2-0.5
				c-0.6,0-1.1,0.2-1.4,0.6c-0.4,0.4-0.5,0.9-0.5,1.7v4.1h-2.4v-8.2h2.3v1c0.3-0.3,0.7-0.6,1.2-0.8c0.5-0.2,1-0.3,1.5-0.3
				C232.3,117.5,233.1,117.8,233.7,118.4z"/>
			<path class="st0" d="M241.9,125.7c-0.7-0.2-1.2-0.4-1.6-0.6l0.8-1.7c0.4,0.2,0.8,0.4,1.3,0.6c0.5,0.1,1,0.2,1.5,0.2
				c1,0,1.5-0.2,1.5-0.7c0-0.2-0.1-0.4-0.4-0.5s-0.7-0.2-1.3-0.3c-0.7-0.1-1.2-0.2-1.7-0.4c-0.4-0.1-0.8-0.4-1.1-0.7
				c-0.3-0.3-0.5-0.8-0.5-1.4c0-0.5,0.2-1,0.5-1.4s0.7-0.7,1.3-0.9c0.6-0.2,1.3-0.3,2-0.3c0.6,0,1.2,0.1,1.7,0.2
				c0.6,0.1,1.1,0.3,1.4,0.5l-0.8,1.7c-0.7-0.4-1.5-0.6-2.4-0.6c-0.5,0-0.9,0.1-1.1,0.2s-0.4,0.3-0.4,0.6c0,0.3,0.1,0.4,0.4,0.5
				c0.3,0.1,0.7,0.2,1.3,0.3c0.7,0.1,1.2,0.2,1.7,0.4c0.4,0.1,0.8,0.4,1.1,0.7c0.3,0.3,0.5,0.8,0.5,1.4c0,0.5-0.2,1-0.5,1.4
				s-0.8,0.7-1.3,0.9c-0.6,0.2-1.3,0.3-2.1,0.3C243.2,126,242.5,125.9,241.9,125.7z"/>
		</g>
	</g>
	<path d="M75.8,22.9V11.2h4.8c3.1,0,5,1.5,5,4.1c0,2.5-1.9,4.1-5,4.1h-2.9v3.5H75.8z M77.7,17.9h2.8c2,0,3.2-0.9,3.2-2.6
		s-1.1-2.6-3.2-2.6h-2.8V17.9z"/>
	<path d="M91.9,23c-2.7,0-4.7-1.9-4.7-4.5c0-2.6,2-4.5,4.7-4.5c2.8,0,4.7,1.9,4.7,4.5C96.6,21.1,94.7,23,91.9,23z M91.9,15.4
		c-1.7,0-2.9,1.3-2.9,3.1s1.2,3.1,2.9,3.1c1.7,0,2.9-1.3,2.9-3.1S93.6,15.4,91.9,15.4z"/>
	<polygon points="107.6,22.9 105.1,16.2 102.6,22.9 100.7,22.9 97.5,14.1 99.1,14.1 101.7,21.2 104.4,14.1 105.9,14.1 108.5,21.2 
		111.1,14.1 112.7,14.1 109.4,22.9 	"/>
	<path d="M118.5,23c-2.9,0-4.9-1.8-4.9-4.5c0-2.6,1.9-4.5,4.6-4.5c2.6,0,4.5,1.9,4.5,4.6c0,0.1,0,0.3,0,0.5h-7.3l0,0.2
		c0.3,1.5,1.5,2.4,3.2,2.4c1,0,1.8-0.3,2.5-0.9l0.9,1.1C121.2,22.6,120,23,118.5,23z M118.2,15.3c-1.5,0-2.6,0.9-2.8,2.4l0,0.2h5.6
		l0-0.2C120.7,16.3,119.6,15.3,118.2,15.3z"/>
	<path d="M125,22.9v-8.8h1.7v1.8l0.3-0.5c0.6-0.9,1.5-1.3,2.9-1.4v1.7c-0.1,0-0.2,0-0.3,0c-1.8,0-2.9,1.1-2.9,3v4.3H125z"/>
	<path d="M136.3,23c-2.9,0-4.9-1.8-4.9-4.5c0-2.6,1.9-4.5,4.6-4.5c2.6,0,4.5,1.9,4.5,4.6c0,0.1,0,0.3,0,0.5h-7.3l0,0.2
		c0.3,1.5,1.5,2.4,3.2,2.4c1,0,1.8-0.3,2.5-0.9l0.9,1.1C138.9,22.6,137.7,23,136.3,23z M135.9,15.3c-1.5,0-2.6,0.9-2.8,2.4l0,0.2
		h5.6l0-0.2C138.5,16.3,137.4,15.3,135.9,15.3z"/>
	<path d="M146.5,23c-2.6,0-4.5-1.9-4.5-4.5c0-2.7,1.8-4.5,4.5-4.5c1.2,0,2.2,0.4,2.8,1.2l0.3,0.4v-5h1.8v12.4h-1.7v-1.5l-0.3,0.4
		C148.8,22.6,147.8,23,146.5,23z M146.8,15.4c-1.7,0-2.9,1.3-2.9,3.1s1.2,3.1,2.9,3.1s2.9-1.3,2.9-3.1S148.5,15.4,146.8,15.4z"/>
	<path d="M164.3,23c-1.2,0-2.2-0.4-2.9-1.2l-0.3-0.4v1.5h-1.7V10.5h1.8v5l0.3-0.4c0.7-0.8,1.7-1.2,2.8-1.2c2.7,0,4.5,1.8,4.5,4.5
		C168.8,21.1,167,23,164.3,23z M164.1,15.4c-1.7,0-2.9,1.3-2.9,3.1s1.2,3.1,2.9,3.1c1.7,0,2.9-1.3,2.9-3.1S165.8,15.4,164.1,15.4z"
		/>
	<path d="M171.5,26.4c-0.8,0-1.7-0.3-2.2-0.7l0.7-1.3c0.4,0.3,1,0.5,1.5,0.5c0.8,0,1.3-0.4,1.8-1.4l0.2-0.4l-3.9-9.1h1.8l3,7.1
		l3-7.1h1.7l-4.2,9.7C174.2,25.6,173.2,26.4,171.5,26.4z"/>
	<polygon points="150.1,151.6 150.1,139.9 158.5,139.9 158.5,141.4 152,141.4 152,145.5 157.8,145.5 157.8,147 152,147 152,151.6 	
		"/>
	<path d="M164.6,151.8c-1.7,0-3.5-0.5-4.5-1.3l0.6-1.4c1,0.7,2.5,1.2,3.9,1.2c2.6,0,2.8-1.2,2.8-1.7c0-1.3-1.5-1.6-3-2
		c-2-0.5-4.2-1-4.2-3.4c0-1.7,1.2-3.4,4.7-3.4c1.4,0,2.8,0.4,3.8,1l-0.6,1.4c-1-0.6-2.2-0.9-3.2-0.9c-2.5,0-2.8,1.3-2.8,1.8
		c0,1.3,1.5,1.6,3,2c1.9,0.5,4.2,1,4.2,3.4C169.3,150,168,151.8,164.6,151.8z"/>
	<path d="M179.7,151.6l-2.5-3.5l-0.1,0c-0.1,0-0.3,0-0.4,0c0,0-2.9,0-2.9,0v3.5h-1.9v-11.7h4.8c3.1,0,5,1.5,5,4.1
		c0,1.7-0.9,3-2.5,3.6l-0.2,0.1l2.7,3.9H179.7z M173.7,146.6h2.8c2,0,3.2-0.9,3.2-2.6c0-1.7-1.1-2.6-3.2-2.6h-2.8V146.6z"/>
	<path d="M193.4,151.6l-1.2-2.8h-6.3l-1.2,2.8h-1.9l5.3-11.7h2l5.3,11.7H193.4z M186.5,147.4h5.1l-2.5-5.9L186.5,147.4z"/>
	<polygon points="203.2,151.6 203.2,141.4 200.6,141.4 200.6,139.9 205,139.9 205,151.6 	"/>
	<path d="M207.6,151.6v-1.2l4.7-4.5c1.3-1.2,1.4-2,1.4-2.6c0-1.2-0.9-1.9-2.4-1.9c-1.2,0-2.2,0.4-2.9,1.2l-1.3-1
		c0.9-1.1,2.5-1.8,4.3-1.8c2.5,0,4.1,1.3,4.1,3.3c0,1.1-0.3,2.2-1.9,3.7l-3.5,3.4h6v1.5H207.6z"/>
	<polygon points="224,151.6 224,148.9 217.4,148.9 217.4,147.6 223.2,139.9 225.2,139.9 219.6,147.3 224.1,147.3 224.1,144.9 
		225.8,144.9 225.8,147.3 228,147.3 228,148.9 225.8,148.9 225.8,151.6 	"/>
	<path d="M234.1,151.8c-2.9,0-4.9-2.4-4.9-6s1.9-6,4.9-6c3,0,4.9,2.4,4.9,6S237.1,151.8,234.1,151.8z M234.1,141.3
		c-1.9,0-3,1.6-3,4.4c0,2.8,1.1,4.4,3,4.4c1.9,0,3-1.6,3-4.4C237.1,143,236,141.3,234.1,141.3z"/>
	<path d="M244.3,151.8c-1.6,0-3.2-0.5-4.3-1.3l0.8-1.4c0.9,0.7,2.2,1.1,3.5,1.1c1.7,0,2.7-0.8,2.7-2c0-0.7-0.4-2-2.8-2h-0.9v-1.3
		l2.9-3.5h-5.7v-1.5h7.9v1.3l-3.1,3.7l0.3,0c2.1,0.3,3.3,1.5,3.3,3.3C248.9,150.4,247.1,151.8,244.3,151.8z"/>
</g>
</svg>
