<?xml version="1.0" encoding="utf-8"?>
<!-- Generator: Adobe Illustrator 25.2.0, SVG Export Plug-In . SVG Version: 6.00 Build 0)  -->
<svg version="1.1" id="Layer_1" xmlns="http://www.w3.org/2000/svg" xmlns:xlink="http://www.w3.org/1999/xlink" x="0px" y="0px"
	 width="121px" height="101.8px" viewBox="0 0 121 101.8" style="enable-background:new 0 0 121 101.8;" xml:space="preserve">
<style type="text/css">
	.st0{fill:none;stroke:#C2CCA6;stroke-linecap:square;stroke-miterlimit:10;}
	.st1{fill:#82BC00;}
	.st2{font-family:'MyriadPro-Regular';}
	.st3{font-size:16px;}
	.st4{fill:#84BD00;}
</style>
<g>
	<line class="st0" x1="0.5" y1="26.1" x2="120.5" y2="26.1"/>
	<line class="st0" x1="0.5" y1="31.4" x2="0.5" y2="21.7"/>
	<line class="st0" x1="120.5" y1="31.4" x2="120.5" y2="21.7"/>
	<text transform="matrix(1 0 0 1 42.3145 13.3925)" class="st1 st2 st3">1.25”</text>
	<g>
		<g>
			<path d="M74.6,60.6c2.4,0,4.4,0.9,6.2,2.7c1.7,1.8,2.6,4.1,2.6,6.8c0,2.8-0.9,5.1-2.6,6.9s-3.9,2.8-6.4,2.8
				c-2.5,0-4.7-0.9-6.4-2.7c-1.7-1.8-2.6-4.1-2.6-7c0-2.9,1-5.3,3-7.1C70.1,61.4,72.2,60.6,74.6,60.6z M74.4,61.6
				c-1.6,0-2.9,0.6-3.9,1.8c-1.2,1.5-1.9,3.7-1.9,6.7c0,3,0.6,5.3,1.9,6.9c1,1.2,2.3,1.9,3.9,1.9c1.7,0,3.1-0.7,4.3-2
				c1.1-1.4,1.7-3.4,1.7-6.4c0-3.1-0.6-5.5-1.9-7C77.4,62.2,76.1,61.6,74.4,61.6z"/>
			<path d="M96.4,79.4L89.3,64v12.2c0,1.1,0.1,1.8,0.4,2.1c0.3,0.4,0.9,0.5,1.6,0.5h0.6v0.5h-6.4v-0.5h0.6c0.8,0,1.3-0.2,1.6-0.7
				c0.2-0.3,0.3-1,0.3-2v-12c0-0.8-0.1-1.4-0.3-1.8c-0.1-0.3-0.4-0.5-0.7-0.6c-0.3-0.2-0.9-0.3-1.6-0.3V61h5.2l6.7,14.4l6.5-14.4
				h5.2v0.5h-0.6c-0.8,0-1.4,0.2-1.7,0.7c-0.2,0.3-0.3,1-0.3,2v12c0,1.1,0.1,1.8,0.4,2.1c0.3,0.4,0.9,0.5,1.6,0.5h0.6v0.5h-7.8v-0.5
				h0.6c0.8,0,1.3-0.2,1.6-0.7c0.2-0.3,0.3-1,0.3-2V63.9l-7.1,15.4L96.4,79.4L96.4,79.4z"/>
			<g>
				<polygon points="20.4,54.8 23.1,61.3 29.6,65.3 22.1,47.5 21.2,47.5 17,57.2 18.7,58.4 				"/>
				<path d="M16,64.7l-1.6-1.4l-4.3,9.8c-1,2.3-1.9,3.8-2.6,4.5c-0.4,0.4-1.2,0.7-2.5,0.9v0.9h9.9v-0.9c-1.5-0.1-2.5-0.4-2.9-0.7
					c-0.5-0.4-0.7-0.8-0.7-1.3c0-0.6,0.3-1.5,0.8-2.7l2.1-4.9l0.7-1.7L16,64.7z"/>
			</g>
			<g>
				<path d="M60.9,78.3c-0.1-0.3-0.3-1.2-0.3-2.2V64.3c0-1.1,0.1-1.8,0.3-2.1c0.4-0.5,0.9-0.7,1.6-0.7h0.7V61h-7.8v0.5H56
					c0.5,0,0.9,0.1,1.2,0.3c0.3,0.2,0.5,0.4,0.5,0.6c0.1,0.3,0.2,0.9,0.2,1.9v11.8c0,0.5,0,0.9,0,1.3"/>
			</g>
			<g>
				<path class="st4" d="M0.5,43.2c10,15,23.9,24.9,38.3,31.5l2.3-2.7C12.7,59.3,0.5,43.2,0.5,43.2z"/>
				<path class="st4" d="M115.3,87.2c-28.8-1-55-6.9-72-14.2l-2.2,2.8C74.9,90.4,115.3,87.2,115.3,87.2z"/>
			</g>
			<g>
				<path d="M2.4,51.4c0,0,8,15.8,33.1,27.4l2-2.3C24.2,70.8,11.8,62.7,2.4,51.4z"/>
				<path d="M120.5,90.6c0,0-45.7,1.3-80.8-13.2l-1.9,2.4C54.9,87.2,86,93,120.5,90.6z"/>
			</g>
			<g>
				<path d="M45.4,69.2l3.6-4.7c0.7-1,1.3-1.6,1.7-2s0.9-0.6,1.4-0.8c0.3-0.1,0.7-0.2,1.3-0.2v-0.5h-6.5v0.5c0.6,0,1.1,0,1.3,0.1
					c0.2,0.1,0.4,0.2,0.5,0.4c0.1,0.1,0.2,0.3,0.2,0.5c0,0.2,0,0.4-0.1,0.5c-0.1,0.2-0.3,0.5-0.7,1l-3.3,4.1L42,64.1
					c-0.5-0.6-0.6-1.1-0.6-1.5c0-0.3,0.1-0.5,0.4-0.7c0.3-0.2,0.8-0.3,1.5-0.4v-0.5h-8.6v0.5c0.9,0,1.7,0.3,2.4,0.7
					c0.7,0.5,1.5,1.4,2.5,2.8l3.6,5.3l-7.4,9.1c-0.6,0.8-1.2,1.5-1.7,1.8c-0.5,0.4-1,0.7-1.6,1c-0.3,0.1-0.7,0.2-1.2,0.3V83h6.5
					v-0.5c-0.7,0-1.1-0.1-1.4-0.3C36.1,82,36,81.8,36,81.5c0-0.2,0-0.4,0.1-0.5c0.1-0.2,0.3-0.5,0.7-1l6.9-8.6l1.1,1.6
					c1,0.4,2.9,1.2,4,1.5L45.4,69.2z"/>
			</g>
		</g>
		<g>
			<path class="st4" d="M10.3,100.3v-2.9l-1.5,2.4H8.4L7,97.5v2.9h-1v-4.9h0.9l1.8,3l1.8-3h0.9v4.9
				C11.3,100.3,10.3,100.3,10.3,100.3z"/>
			<path class="st4" d="M15.2,100.1c-0.3-0.2-0.5-0.4-0.7-0.7c-0.2-0.3-0.3-0.6-0.3-1c0-0.4,0.1-0.7,0.3-1c0.2-0.3,0.4-0.5,0.7-0.7
				c0.3-0.2,0.7-0.2,1-0.2c0.4,0,0.7,0.1,1,0.2s0.5,0.4,0.7,0.7c0.2,0.3,0.3,0.6,0.3,1c0,0.4-0.1,0.7-0.3,1
				c-0.2,0.3-0.4,0.5-0.7,0.7c-0.3,0.2-0.7,0.2-1,0.2C15.8,100.3,15.5,100.3,15.2,100.1z M16.9,99.2c0.2-0.2,0.3-0.5,0.3-0.8
				c0-0.3-0.1-0.5-0.3-0.8c-0.2-0.2-0.4-0.3-0.7-0.3s-0.5,0.1-0.7,0.3c-0.2,0.2-0.3,0.5-0.3,0.8c0,0.3,0.1,0.5,0.3,0.8
				s0.4,0.3,0.7,0.3S16.7,99.4,16.9,99.2z"/>
			<path class="st4" d="M22.5,96.6c0.2-0.1,0.5-0.1,0.8-0.1v1c-0.1,0-0.2,0-0.2,0c-0.3,0-0.5,0.1-0.7,0.3c-0.2,0.2-0.3,0.5-0.3,0.8
				v1.8h-1.1v-3.7h1v0.5C22.1,96.9,22.3,96.7,22.5,96.6z"/>
			<path class="st4" d="M28.4,100.1c-0.1,0.1-0.2,0.1-0.4,0.2c-0.1,0-0.3,0-0.5,0c-0.5,0-0.8-0.1-1-0.3c-0.3-0.2-0.4-0.5-0.4-1v-1.5
				h-0.6v-0.8H26v-0.9h1.1v0.9H28v0.8h-0.9V99c0,0.1,0,0.3,0.1,0.4c0.1,0.1,0.2,0.1,0.4,0.1c0.2,0,0.3,0,0.5-0.1L28.4,100.1z"/>
			<path class="st4" d="M34.7,96.5v3.1c0,0.7-0.2,1.2-0.5,1.5c-0.4,0.3-0.9,0.5-1.5,0.5c-0.4,0-0.7,0-1-0.1
				c-0.4-0.1-0.6-0.2-0.8-0.4l0.4-0.8c0.1,0.1,0.4,0.2,0.6,0.3s0.5,0.1,0.7,0.1c0.4,0,0.6-0.1,0.8-0.3c0.2-0.2,0.3-0.4,0.3-0.8v-0.2
				c-0.3,0.3-0.7,0.5-1.2,0.5c-0.4,0-0.6-0.1-1-0.2c-0.3-0.1-0.5-0.4-0.7-0.6s-0.3-0.6-0.3-1s0.1-0.7,0.3-1c0.2-0.3,0.4-0.5,0.7-0.6
				s0.6-0.2,1-0.2c0.5,0,1,0.2,1.2,0.5v-0.5H34.7z M33.3,99c0.2-0.2,0.3-0.4,0.3-0.7s-0.1-0.5-0.3-0.7s-0.4-0.3-0.7-0.3
				c-0.3,0-0.5,0.1-0.7,0.3c-0.2,0.2-0.3,0.4-0.3,0.7s0.1,0.5,0.3,0.7c0.2,0.2,0.4,0.3,0.7,0.3C32.9,99.3,33.1,99.1,33.3,99z"/>
			<path class="st4" d="M40.4,96.9c0.3,0.3,0.5,0.7,0.5,1.2v2.1h-1v-0.5c-0.2,0.4-0.6,0.5-1.1,0.5c-0.3,0-0.5,0-0.7-0.1
				c-0.2-0.1-0.4-0.2-0.5-0.4c-0.1-0.2-0.2-0.4-0.2-0.6c0-0.4,0.1-0.6,0.4-0.8C38,98.2,38.4,98,39,98h0.9c0-0.2-0.1-0.4-0.2-0.5
				c-0.1-0.1-0.4-0.2-0.6-0.2c-0.2,0-0.4,0-0.6,0.1c-0.2,0-0.4,0.1-0.5,0.3l-0.4-0.8c0.2-0.1,0.5-0.3,0.7-0.3
				c0.3-0.1,0.6-0.1,0.9-0.1C39.7,96.5,40.2,96.6,40.4,96.9z M39.5,99.5c0.1-0.1,0.2-0.2,0.3-0.4v-0.4h-0.7c-0.5,0-0.7,0.1-0.7,0.5
				c0,0.1,0,0.2,0.2,0.3c0.1,0.1,0.3,0.1,0.5,0.1C39.2,99.6,39.4,99.6,39.5,99.5z"/>
			<path class="st4" d="M47.7,96.5v3.1c0,0.7-0.2,1.2-0.5,1.5c-0.4,0.3-0.9,0.5-1.5,0.5c-0.4,0-0.7,0-1-0.1s-0.6-0.2-0.8-0.4
				l0.4-0.8c0.1,0.1,0.4,0.2,0.6,0.3c0.2,0.1,0.5,0.1,0.7,0.1c0.4,0,0.6-0.1,0.8-0.3c0.2-0.2,0.3-0.4,0.3-0.8v-0.2
				c-0.3,0.3-0.7,0.5-1.2,0.5c-0.4,0-0.6-0.1-1-0.2c-0.3-0.1-0.5-0.4-0.7-0.6c-0.2-0.3-0.3-0.6-0.3-1s0.1-0.7,0.3-1
				c0.2-0.3,0.4-0.5,0.7-0.6c0.3-0.1,0.6-0.2,1-0.2c0.5,0,1,0.2,1.2,0.5v-0.5H47.7z M46.4,99c0.2-0.2,0.3-0.4,0.3-0.7
				s-0.1-0.5-0.3-0.7c-0.2-0.2-0.4-0.3-0.7-0.3s-0.5,0.1-0.7,0.3c-0.2,0.2-0.3,0.4-0.3,0.7s0.1,0.5,0.3,0.7c0.2,0.2,0.4,0.3,0.7,0.3
				S46.2,99.1,46.4,99z"/>
			<path class="st4" d="M54.3,98.7h-2.8c0,0.2,0.2,0.4,0.4,0.5c0.2,0.1,0.4,0.2,0.7,0.2c0.2,0,0.4,0,0.5-0.1c0.1,0,0.3-0.1,0.4-0.3
				l0.6,0.6c-0.4,0.4-0.9,0.6-1.5,0.6c-0.4,0-0.8-0.1-1.1-0.2c-0.3-0.2-0.6-0.4-0.8-0.7s-0.3-0.6-0.3-1c0-0.4,0.1-0.7,0.3-1
				c0.2-0.3,0.4-0.5,0.7-0.7c0.3-0.1,0.6-0.2,1-0.2s0.7,0.1,1,0.2s0.5,0.4,0.7,0.7c0.1,0.3,0.3,0.6,0.3,1
				C54.4,98.5,54.3,98.5,54.3,98.7z M51.8,97.5c-0.2,0.1-0.3,0.3-0.3,0.6h1.9c0-0.2-0.1-0.4-0.3-0.5c-0.2-0.1-0.4-0.2-0.6-0.2
				C52.1,97.3,51.9,97.4,51.8,97.5z"/>
			<path class="st4" d="M64.7,100.2c-0.4-0.1-0.6-0.2-0.9-0.4l0.4-0.9c0.2,0.1,0.5,0.3,0.7,0.4s0.6,0.1,0.9,0.1c0.3,0,0.5,0,0.7-0.1
				c0.1-0.1,0.2-0.2,0.2-0.4s0-0.2-0.1-0.3c-0.1-0.1-0.2-0.1-0.4-0.2c-0.1,0-0.3-0.1-0.6-0.1c-0.4-0.1-0.7-0.2-0.9-0.3
				c-0.2-0.1-0.5-0.2-0.6-0.4c-0.2-0.2-0.3-0.5-0.3-0.8c0-0.3,0.1-0.5,0.2-0.8c0.1-0.2,0.4-0.4,0.7-0.5c0.3-0.1,0.7-0.2,1.1-0.2
				c0.3,0,0.6,0,0.9,0.1c0.3,0,0.5,0.2,0.8,0.3l-0.4,0.9c-0.5-0.3-0.9-0.4-1.4-0.4c-0.3,0-0.5,0-0.7,0.1s-0.2,0.2-0.2,0.4
				c0,0.2,0.1,0.3,0.3,0.4c0.2,0.1,0.5,0.2,0.8,0.2c0.4,0.1,0.7,0.2,0.9,0.3s0.5,0.2,0.6,0.4c0.2,0.2,0.3,0.5,0.3,0.8
				c0,0.3-0.1,0.5-0.2,0.8c-0.1,0.2-0.4,0.4-0.7,0.5c-0.3,0.1-0.7,0.2-1.1,0.2C65.4,100.4,65,100.3,64.7,100.2z"/>
			<path class="st4" d="M71.2,100.1c-0.3-0.2-0.5-0.4-0.7-0.7c-0.2-0.3-0.3-0.6-0.3-1c0-0.4,0.1-0.7,0.3-1c0.2-0.3,0.4-0.5,0.7-0.7
				c0.3-0.2,0.7-0.2,1-0.2c0.4,0,0.7,0.1,1,0.2c0.3,0.2,0.5,0.4,0.7,0.7c0.2,0.3,0.3,0.6,0.3,1c0,0.4-0.1,0.7-0.3,1
				c-0.2,0.3-0.4,0.5-0.7,0.7c-0.3,0.2-0.7,0.2-1,0.2C71.8,100.4,71.5,100.3,71.2,100.1z M72.9,99.2c0.2-0.2,0.3-0.5,0.3-0.8
				c0-0.3-0.1-0.5-0.3-0.8c-0.2-0.2-0.4-0.3-0.7-0.3s-0.5,0.1-0.7,0.3c-0.2,0.2-0.3,0.5-0.3,0.8c0,0.3,0.1,0.5,0.3,0.8
				c0.2,0.2,0.4,0.3,0.7,0.3S72.7,99.4,72.9,99.2z"/>
			<path class="st4" d="M76.9,95.1H78v5.1h-1.1V95.1z"/>
			<path class="st4" d="M84.7,96.5v3.7h-1v-0.5c-0.1,0.2-0.3,0.3-0.5,0.4c-0.2,0.1-0.4,0.1-0.6,0.1c-0.5,0-0.9-0.1-1.2-0.4
				c-0.3-0.3-0.4-0.7-0.4-1.3v-2.1h1.1v2c0,0.6,0.3,0.9,0.8,0.9c0.3,0,0.5-0.1,0.6-0.3c0.1-0.2,0.2-0.4,0.2-0.8v-1.9L84.7,96.5
				L84.7,96.5z"/>
			<path class="st4" d="M90.1,100.1c-0.1,0.1-0.2,0.1-0.4,0.2c-0.1,0-0.3,0-0.5,0c-0.5,0-0.8-0.1-1-0.3c-0.2-0.2-0.4-0.5-0.4-1v-1.5
				h-0.6v-0.8h0.6v-0.9h1.1v0.9h0.9v0.8h-0.9V99c0,0.1,0,0.3,0.1,0.4c0.1,0.1,0.2,0.1,0.4,0.1s0.3,0,0.5-0.1L90.1,100.1z"/>
			<path class="st4" d="M92.7,95.9c-0.1-0.1-0.2-0.3-0.2-0.4s0-0.3,0.2-0.4s0.3-0.2,0.5-0.2c0.2,0,0.4,0,0.5,0.2
				c0.1,0.1,0.2,0.3,0.2,0.4c0,0.2,0,0.3-0.2,0.5c-0.1,0.1-0.3,0.2-0.5,0.2C93,96.1,92.8,96,92.7,95.9z M92.6,96.5h1.1v3.7h-1.1
				V96.5z"/>
			<path class="st4" d="M97.4,100.1c-0.3-0.2-0.5-0.4-0.7-0.7c-0.2-0.3-0.3-0.6-0.3-1c0-0.4,0.1-0.7,0.3-1c0.2-0.3,0.4-0.5,0.7-0.7
				c0.3-0.2,0.7-0.2,1-0.2c0.4,0,0.7,0.1,1,0.2c0.3,0.2,0.5,0.4,0.7,0.7c0.2,0.3,0.3,0.6,0.3,1c0,0.4-0.1,0.7-0.3,1
				c-0.2,0.3-0.4,0.5-0.7,0.7c-0.3,0.2-0.7,0.2-1,0.2C98,100.4,97.7,100.3,97.4,100.1z M99.1,99.2c0.2-0.2,0.3-0.5,0.3-0.8
				c0-0.3-0.1-0.5-0.3-0.8c-0.2-0.2-0.4-0.3-0.7-0.3c-0.3,0-0.5,0.1-0.7,0.3c-0.2,0.2-0.3,0.5-0.3,0.8c0,0.3,0.1,0.5,0.3,0.8
				c0.2,0.2,0.4,0.3,0.7,0.3C98.7,99.4,98.9,99.4,99.1,99.2z"/>
			<path class="st4" d="M106.5,96.9c0.3,0.3,0.4,0.7,0.4,1.2v2.1h-1.1v-2c0-0.3,0-0.5-0.2-0.7c-0.1-0.1-0.3-0.2-0.5-0.2
				c-0.3,0-0.5,0.1-0.6,0.3c-0.2,0.2-0.2,0.4-0.2,0.8v1.9h-1.1v-3.7h1V97c0.1-0.1,0.3-0.3,0.5-0.4c0.2-0.1,0.5-0.1,0.7-0.1
				C105.9,96.5,106.3,96.6,106.5,96.9z"/>
			<path class="st4" d="M110.2,100.2c-0.3-0.1-0.5-0.2-0.7-0.3l0.4-0.8c0.2,0.1,0.4,0.2,0.6,0.3c0.2,0,0.5,0.1,0.7,0.1
				c0.5,0,0.7-0.1,0.7-0.3c0-0.1,0-0.2-0.2-0.2c-0.1,0-0.3-0.1-0.6-0.1c-0.3,0-0.5-0.1-0.8-0.2c-0.2,0-0.4-0.2-0.5-0.3
				c-0.1-0.1-0.2-0.4-0.2-0.6c0-0.2,0.1-0.5,0.2-0.6c0.1-0.2,0.3-0.3,0.6-0.4s0.6-0.1,0.9-0.1c0.3,0,0.5,0,0.8,0.1
				c0.3,0,0.5,0.1,0.6,0.2l-0.4,0.8c-0.3-0.2-0.7-0.3-1.1-0.3c-0.2,0-0.4,0-0.5,0.1c-0.1,0-0.2,0.1-0.2,0.3c0,0.1,0,0.2,0.2,0.2
				c0.1,0,0.3,0.1,0.6,0.1c0.3,0,0.5,0.1,0.8,0.2c0.2,0,0.4,0.2,0.5,0.3c0.1,0.1,0.2,0.4,0.2,0.6c0,0.2-0.1,0.5-0.2,0.6
				c-0.1,0.2-0.4,0.3-0.6,0.4c-0.3,0.1-0.6,0.1-1,0.1C110.8,100.4,110.5,100.3,110.2,100.2z"/>
		</g>
	</g>
</g>
</svg>
