<?xml version="1.0" encoding="utf-8"?>
<!-- Generator: Adobe Illustrator 25.2.0, SVG Export Plug-In . SVG Version: 6.00 Build 0)  -->
<svg version="1.1" id="Layer_1" xmlns="http://www.w3.org/2000/svg" xmlns:xlink="http://www.w3.org/1999/xlink" x="0px" y="0px"
	 width="113.8px" height="95.2px" viewBox="0 0 113.8 95.2" style="enable-background:new 0 0 113.8 95.2;" xml:space="preserve">
<style type="text/css">
	.st0{fill:#84BD00;}
	.st1{fill:none;stroke:#FF0000;stroke-miterlimit:10;}
</style>
<g>
	<g>
		<g>
			<path d="M66.7,43.9c1.3,0,2.4,0.5,3.3,1.5c0.9,1,1.4,2.2,1.4,3.6c0,1.5-0.5,2.7-1.4,3.7s-2.1,1.5-3.4,1.5c-1.4,0-2.5-0.5-3.4-1.4
				c-0.9-1-1.4-2.2-1.4-3.7c0-1.5,0.5-2.8,1.6-3.8C64.3,44.3,65.4,43.9,66.7,43.9z M66.6,44.4c-0.9,0-1.6,0.3-2.1,1
				c-0.7,0.8-1,2-1,3.6c0,1.6,0.3,2.8,1,3.7c0.5,0.7,1.2,1,2.1,1c0.9,0,1.7-0.4,2.3-1.1c0.6-0.7,0.9-1.8,0.9-3.4
				c0-1.7-0.3-2.9-1-3.8C68.2,44.8,67.5,44.4,66.6,44.4z"/>
			<path d="M78.3,53.9l-3.8-8.2v6.5c0,0.6,0.1,1,0.2,1.1c0.2,0.2,0.5,0.3,0.8,0.3h0.3v0.3h-3.4v-0.3h0.3c0.4,0,0.7-0.1,0.9-0.4
				c0.1-0.1,0.2-0.5,0.2-1.1v-6.4c0-0.4,0-0.8-0.1-0.9c-0.1-0.1-0.2-0.3-0.4-0.3c-0.2-0.1-0.5-0.1-0.9-0.1v-0.3h2.8l3.6,7.7l3.5-7.7
				h2.8v0.3h-0.3c-0.4,0-0.7,0.1-0.9,0.4c-0.1,0.1-0.2,0.5-0.2,1.1v6.4c0,0.6,0.1,1,0.2,1.1c0.2,0.2,0.5,0.3,0.8,0.3h0.3v0.3h-4.2
				v-0.3h0.3c0.4,0,0.7-0.1,0.9-0.4c0.1-0.1,0.2-0.5,0.2-1.1v-6.5l-3.8,8.2L78.3,53.9L78.3,53.9z"/>
			<g>
				<polygon points="37.8,40.8 39.3,44.3 42.7,46.4 38.7,36.9 38.2,36.9 36,42.1 36.9,42.7 				"/>
				<path d="M35.4,46.1l-0.8-0.8l-2.3,5.3c-0.5,1.2-1,2-1.4,2.4c-0.2,0.2-0.7,0.4-1.4,0.5v0.5h5.3v-0.5c-0.8,0-1.3-0.2-1.6-0.4
					c-0.2-0.2-0.4-0.4-0.4-0.7c0-0.3,0.1-0.8,0.4-1.5l1.1-2.6l0.4-0.9L35.4,46.1z"/>
			</g>
			<g>
				<path d="M59.4,53.3c-0.1-0.2-0.2-0.7-0.2-1.2v-6.3c0-0.6,0-1,0.2-1.1c0.2-0.2,0.5-0.4,0.9-0.4h0.4v-0.3h-4.2v0.3h0.3
					c0.2,0,0.5,0,0.7,0.2c0.1,0.1,0.2,0.2,0.3,0.3c0.1,0.2,0.1,0.5,0.1,1v6.3c0,0.3,0,0.5,0,0.7"/>
			</g>
			<g>
				<path class="st0" d="M27.2,34.6c5.3,8,12.7,13.3,20.4,16.8l1.2-1.5C33.7,43.2,27.2,34.6,27.2,34.6z"/>
				<path class="st0" d="M88.4,58.1C73,57.5,59.1,54.4,50,50.5L48.8,52C66.9,59.8,88.4,58.1,88.4,58.1z"/>
			</g>
			<g>
				<path d="M28.2,39c0,0,4.3,8.4,17.7,14.6l1-1.2C39.8,49.3,33.2,45,28.2,39z"/>
				<path d="M91.2,59.9c0,0-24.4,0.7-43.1-7l-1,1.3C56.2,58.1,72.8,61.2,91.2,59.9z"/>
			</g>
			<g>
				<path d="M51.1,48.5l1.9-2.5c0.4-0.5,0.7-0.8,0.9-1c0.2-0.2,0.5-0.3,0.7-0.4c0.2-0.1,0.4-0.1,0.7-0.1v-0.3h-3.5v0.3
					c0.3,0,0.6,0,0.7,0.1c0.1,0,0.2,0.1,0.3,0.2c0,0.1,0.1,0.2,0.1,0.3s0,0.2-0.1,0.3c0,0.1-0.2,0.3-0.4,0.5L50.8,48l-1.5-2.3
					C49.1,45.4,49,45.1,49,45c0-0.1,0.1-0.3,0.2-0.4c0.1-0.1,0.4-0.2,0.8-0.2v-0.3h-4.6v0.3c0.5,0,0.9,0.1,1.3,0.4
					c0.4,0.2,0.8,0.8,1.3,1.5l1.9,2.8L46,54c-0.3,0.4-0.7,0.8-0.9,1c-0.3,0.2-0.6,0.4-0.8,0.5c-0.2,0.1-0.4,0.1-0.6,0.1v0.3h3.5
					v-0.3c-0.4,0-0.6-0.1-0.8-0.2c-0.1-0.1-0.2-0.2-0.2-0.4c0-0.1,0-0.2,0.1-0.3c0-0.1,0.2-0.3,0.4-0.6l3.7-4.6l0.6,0.9
					c0.5,0.2,1.5,0.6,2.2,0.8L51.1,48.5z"/>
			</g>
		</g>
		<g>
			<path class="st0" d="M32.4,65.1v-1.5l-0.8,1.3h-0.3l-0.8-1.3v1.5h-0.6v-2.6h0.5l1,1.6l0.9-1.6H33v2.6
				C33,65.1,32.4,65.1,32.4,65.1z"/>
			<path class="st0" d="M35,65c-0.2-0.1-0.3-0.2-0.4-0.4s-0.1-0.3-0.1-0.5c0-0.2,0-0.4,0.1-0.5c0.1-0.1,0.2-0.3,0.4-0.4
				c0.2-0.1,0.4-0.1,0.6-0.1s0.4,0,0.6,0.1c0.2,0.1,0.3,0.2,0.4,0.4s0.1,0.3,0.1,0.5c0,0.2,0,0.4-0.1,0.5c-0.1,0.1-0.2,0.3-0.4,0.4
				s-0.4,0.1-0.6,0.1S35.2,65.1,35,65z M35.9,64.5c0.1-0.1,0.1-0.2,0.1-0.4c0-0.2,0-0.3-0.1-0.4c-0.1-0.1-0.2-0.1-0.4-0.1
				c-0.1,0-0.3,0-0.4,0.1s-0.1,0.2-0.1,0.4c0,0.2,0,0.3,0.1,0.4c0.1,0.1,0.2,0.1,0.4,0.1C35.7,64.6,35.9,64.6,35.9,64.5z"/>
			<path class="st0" d="M38.9,63.1c0.1,0,0.2-0.1,0.4-0.1v0.5c-0.1,0-0.1,0-0.1,0c-0.2,0-0.3,0-0.4,0.1c-0.1,0.1-0.1,0.2-0.1,0.4
				v0.9h-0.6v-2h0.6v0.3C38.7,63.2,38.8,63.2,38.9,63.1z"/>
			<path class="st0" d="M42,65c0,0-0.1,0.1-0.2,0.1c-0.1,0-0.2,0-0.3,0c-0.2,0-0.4,0-0.6-0.2c-0.1-0.1-0.2-0.3-0.2-0.5v-0.8h-0.3
				v-0.4h0.3v-0.5h0.6v0.5h0.5v0.4h-0.5v0.8c0,0.1,0,0.1,0.1,0.2s0.1,0.1,0.2,0.1s0.2,0,0.2-0.1L42,65z"/>
			<path class="st0" d="M45.4,63.1v1.7c0,0.4-0.1,0.6-0.3,0.8c-0.2,0.2-0.5,0.3-0.8,0.3c-0.2,0-0.4,0-0.6-0.1
				c-0.2,0-0.3-0.1-0.4-0.2l0.2-0.4c0.1,0.1,0.2,0.1,0.3,0.2c0.1,0,0.3,0.1,0.4,0.1c0.2,0,0.3,0,0.4-0.1s0.1-0.2,0.1-0.4v-0.1
				c-0.1,0.2-0.4,0.2-0.6,0.2c-0.2,0-0.3,0-0.5-0.1c-0.2-0.1-0.3-0.2-0.4-0.3s-0.1-0.3-0.1-0.5c0-0.2,0-0.4,0.1-0.5s0.2-0.3,0.4-0.3
				s0.3-0.1,0.5-0.1c0.3,0,0.5,0.1,0.7,0.3v-0.3H45.4z M44.7,64.4c0.1-0.1,0.1-0.2,0.1-0.4c0-0.1,0-0.3-0.1-0.4s-0.2-0.1-0.4-0.1
				c-0.2,0-0.3,0-0.4,0.1s-0.1,0.2-0.1,0.4c0,0.1,0,0.3,0.1,0.4s0.2,0.1,0.4,0.1C44.5,64.5,44.6,64.5,44.7,64.4z"/>
			<path class="st0" d="M48.5,63.3c0.2,0.1,0.2,0.4,0.2,0.7v1.1h-0.5v-0.2c-0.1,0.2-0.3,0.3-0.6,0.3c-0.1,0-0.3,0-0.4-0.1
				c-0.1,0-0.2-0.1-0.3-0.2c-0.1-0.1-0.1-0.2-0.1-0.3c0-0.2,0.1-0.3,0.2-0.4c0.1-0.1,0.4-0.2,0.7-0.2h0.5c0-0.1,0-0.2-0.1-0.3
				s-0.2-0.1-0.3-0.1c-0.1,0-0.2,0-0.3,0s-0.2,0.1-0.3,0.1l-0.2-0.4c0.1-0.1,0.2-0.1,0.4-0.2c0.1,0,0.3-0.1,0.5-0.1
				C48.1,63.1,48.3,63.1,48.5,63.3z M48,64.6c0.1,0,0.1-0.1,0.2-0.2v-0.2h-0.4c-0.2,0-0.4,0.1-0.4,0.2c0,0.1,0,0.1,0.1,0.2
				c0.1,0,0.1,0.1,0.2,0.1C47.8,64.7,47.9,64.7,48,64.6z"/>
			<path class="st0" d="M52.4,63.1v1.7c0,0.4-0.1,0.6-0.3,0.8c-0.2,0.2-0.5,0.3-0.8,0.3c-0.2,0-0.4,0-0.6-0.1s-0.3-0.1-0.4-0.2
				l0.2-0.4c0.1,0.1,0.2,0.1,0.3,0.2s0.3,0.1,0.4,0.1c0.2,0,0.3,0,0.4-0.1s0.1-0.2,0.1-0.4v-0.1c-0.1,0.2-0.4,0.2-0.6,0.2
				c-0.2,0-0.3,0-0.5-0.1c-0.2-0.1-0.3-0.2-0.4-0.3c-0.1-0.1-0.1-0.3-0.1-0.5c0-0.2,0-0.4,0.1-0.5c0.1-0.1,0.2-0.3,0.4-0.3
				s0.3-0.1,0.5-0.1c0.3,0,0.5,0.1,0.7,0.3v-0.3H52.4z M51.7,64.4c0.1-0.1,0.1-0.2,0.1-0.4c0-0.1,0-0.3-0.1-0.4s-0.2-0.1-0.4-0.1
				s-0.3,0-0.4,0.1s-0.1,0.2-0.1,0.4c0,0.1,0,0.3,0.1,0.4s0.2,0.1,0.4,0.1S51.6,64.5,51.7,64.4z"/>
			<path class="st0" d="M55.9,64.2h-1.5c0,0.1,0.1,0.2,0.2,0.3c0.1,0.1,0.2,0.1,0.4,0.1c0.1,0,0.2,0,0.3,0c0.1,0,0.1-0.1,0.2-0.1
				l0.3,0.3c-0.2,0.2-0.5,0.3-0.8,0.3c-0.2,0-0.4,0-0.6-0.1c-0.2-0.1-0.3-0.2-0.4-0.4c-0.1-0.1-0.1-0.3-0.1-0.5c0-0.2,0-0.4,0.1-0.5
				s0.2-0.3,0.4-0.4c0.2-0.1,0.3-0.1,0.5-0.1c0.2,0,0.4,0,0.5,0.1s0.3,0.2,0.4,0.4s0.1,0.3,0.1,0.6C55.9,64.1,55.9,64.1,55.9,64.2z
				 M54.5,63.6c-0.1,0.1-0.1,0.2-0.2,0.3h1c0-0.1-0.1-0.2-0.2-0.3s-0.2-0.1-0.3-0.1C54.7,63.5,54.6,63.5,54.5,63.6z"/>
			<path class="st0" d="M61.4,65c-0.2,0-0.3-0.1-0.5-0.2l0.2-0.5c0.1,0.1,0.2,0.1,0.4,0.2c0.1,0,0.3,0.1,0.5,0.1
				c0.2,0,0.3,0,0.4-0.1c0.1,0,0.1-0.1,0.1-0.2c0-0.1,0-0.1-0.1-0.1c0,0-0.1-0.1-0.2-0.1c-0.1,0-0.2,0-0.3-0.1
				c-0.2,0-0.4-0.1-0.5-0.1s-0.2-0.1-0.3-0.2C61,63.6,61,63.4,61,63.3c0-0.1,0-0.3,0.1-0.4c0.1-0.1,0.2-0.2,0.4-0.3
				c0.2-0.1,0.4-0.1,0.6-0.1c0.2,0,0.3,0,0.5,0s0.3,0.1,0.4,0.2l-0.2,0.5C62.5,63,62.3,63,62,63c-0.2,0-0.3,0-0.4,0.1
				c-0.1,0-0.1,0.1-0.1,0.2s0,0.1,0.1,0.2s0.2,0.1,0.4,0.1c0.2,0,0.4,0.1,0.5,0.1c0.1,0,0.2,0.1,0.3,0.2c0.1,0.1,0.1,0.2,0.1,0.4
				c0,0.1,0,0.3-0.1,0.4S62.7,65,62.6,65c-0.2,0.1-0.4,0.1-0.6,0.1C61.8,65.1,61.6,65.1,61.4,65z"/>
			<path class="st0" d="M64.9,65c-0.2-0.1-0.3-0.2-0.4-0.4c-0.1-0.1-0.1-0.3-0.1-0.5c0-0.2,0-0.4,0.1-0.5c0.1-0.1,0.2-0.3,0.4-0.4
				c0.2-0.1,0.4-0.1,0.6-0.1c0.2,0,0.4,0,0.6,0.1c0.2,0.1,0.3,0.2,0.4,0.4c0.1,0.1,0.1,0.3,0.1,0.5c0,0.2,0,0.4-0.1,0.5
				c-0.1,0.1-0.2,0.3-0.4,0.4s-0.4,0.1-0.6,0.1C65.2,65.1,65,65.1,64.9,65z M65.8,64.5c0.1-0.1,0.1-0.2,0.1-0.4c0-0.2,0-0.3-0.1-0.4
				c-0.1-0.1-0.2-0.1-0.4-0.1s-0.3,0-0.4,0.1c-0.1,0.1-0.1,0.2-0.1,0.4c0,0.2,0,0.3,0.1,0.4c0.1,0.1,0.2,0.1,0.4,0.1
				S65.7,64.6,65.8,64.5z"/>
			<path class="st0" d="M68,62.3h0.6v2.7H68V62.3z"/>
			<path class="st0" d="M72.1,63.1v2h-0.6v-0.2c-0.1,0.1-0.2,0.1-0.3,0.2s-0.2,0.1-0.3,0.1c-0.3,0-0.5-0.1-0.6-0.2
				c-0.1-0.1-0.2-0.4-0.2-0.7v-1.1h0.6v1c0,0.3,0.1,0.5,0.4,0.5c0.1,0,0.2,0,0.3-0.1c0.1-0.1,0.1-0.2,0.1-0.4v-1L72.1,63.1
				L72.1,63.1z"/>
			<path class="st0" d="M75,65c0,0-0.1,0.1-0.2,0.1c-0.1,0-0.2,0-0.3,0c-0.2,0-0.4,0-0.6-0.2c-0.1-0.1-0.2-0.3-0.2-0.5v-0.8h-0.3
				v-0.4h0.3v-0.5h0.6v0.5h0.5v0.4h-0.5v0.8c0,0.1,0,0.1,0.1,0.2s0.1,0.1,0.2,0.1s0.2,0,0.2-0.1L75,65z"/>
			<path class="st0" d="M76.4,62.7c-0.1-0.1-0.1-0.1-0.1-0.2s0-0.2,0.1-0.2s0.1-0.1,0.3-0.1c0.1,0,0.2,0,0.3,0.1
				c0.1,0,0.1,0.1,0.1,0.2c0,0.1,0,0.2-0.1,0.2c-0.1,0.1-0.1,0.1-0.3,0.1C76.5,62.8,76.4,62.8,76.4,62.7z M76.3,63.1h0.6v2h-0.6
				V63.1z"/>
			<path class="st0" d="M78.9,65c-0.2-0.1-0.3-0.2-0.4-0.4c-0.1-0.1-0.1-0.3-0.1-0.5c0-0.2,0-0.4,0.1-0.5c0.1-0.1,0.2-0.3,0.4-0.4
				c0.2-0.1,0.4-0.1,0.6-0.1c0.2,0,0.4,0,0.6,0.1c0.2,0.1,0.3,0.2,0.4,0.4s0.1,0.3,0.1,0.5c0,0.2,0,0.4-0.1,0.5
				c-0.1,0.1-0.2,0.3-0.4,0.4s-0.4,0.1-0.6,0.1C79.2,65.1,79,65.1,78.9,65z M79.8,64.5c0.1-0.1,0.1-0.2,0.1-0.4c0-0.2,0-0.3-0.1-0.4
				c-0.1-0.1-0.2-0.1-0.4-0.1c-0.1,0-0.3,0-0.4,0.1s-0.1,0.2-0.1,0.4c0,0.2,0,0.3,0.1,0.4c0.1,0.1,0.2,0.1,0.4,0.1
				C79.6,64.6,79.7,64.6,79.8,64.5z"/>
			<path class="st0" d="M83.7,63.3c0.1,0.1,0.2,0.4,0.2,0.7v1.1h-0.6v-1c0-0.2,0-0.3-0.1-0.4c-0.1-0.1-0.2-0.1-0.3-0.1
				c-0.1,0-0.3,0-0.3,0.1c-0.1,0.1-0.1,0.2-0.1,0.4v1h-0.6v-2h0.6v0.2c0.1-0.1,0.2-0.1,0.3-0.2c0.1,0,0.2-0.1,0.4-0.1
				C83.4,63.1,83.6,63.1,83.7,63.3z"/>
			<path class="st0" d="M85.7,65c-0.2,0-0.3-0.1-0.4-0.1l0.2-0.4c0.1,0,0.2,0.1,0.3,0.1c0.1,0,0.2,0,0.4,0c0.2,0,0.4,0,0.4-0.2
				c0,0,0-0.1-0.1-0.1c-0.1,0-0.2,0-0.3-0.1c-0.2,0-0.3,0-0.4-0.1c-0.1,0-0.2-0.1-0.3-0.2c-0.1-0.1-0.1-0.2-0.1-0.3
				c0-0.1,0-0.2,0.1-0.3c0.1-0.1,0.2-0.2,0.3-0.2s0.3-0.1,0.5-0.1c0.1,0,0.3,0,0.4,0c0.1,0,0.3,0.1,0.3,0.1l-0.2,0.4
				c-0.2-0.1-0.4-0.1-0.6-0.1c-0.1,0-0.2,0-0.3,0s-0.1,0.1-0.1,0.1s0,0.1,0.1,0.1c0.1,0,0.2,0,0.3,0.1c0.2,0,0.3,0,0.4,0.1
				c0.1,0,0.2,0.1,0.3,0.2c0.1,0.1,0.1,0.2,0.1,0.3c0,0.1,0,0.2-0.1,0.3c-0.1,0.1-0.2,0.2-0.3,0.2c-0.1,0-0.3,0.1-0.5,0.1
				C86,65.1,85.9,65.1,85.7,65z"/>
		</g>
	</g>
	<line class="st1" x1="7.9" y1="0.9" x2="102.4" y2="95.4"/>
</g>
</svg>
