<?xml version="1.0" encoding="utf-8"?>
<!-- Generator: Adobe Illustrator 25.2.0, SVG Export Plug-In . SVG Version: 6.00 Build 0)  -->
<svg version="1.1" id="Layer_1" xmlns="http://www.w3.org/2000/svg" xmlns:xlink="http://www.w3.org/1999/xlink" x="0px" y="0px"
	 width="521.4px" height="294.4px" viewBox="0 0 521.4 294.4" style="enable-background:new 0 0 521.4 294.4;" xml:space="preserve"
	>
<style type="text/css">
	.st0{fill:#84BD00;}
	.st1{opacity:0.8;fill:#D5E591;enable-background:new    ;}
	.st2{fill:#82BC00;}
	.st3{fill:none;stroke:#C2CCA6;stroke-linecap:square;stroke-miterlimit:10;}
	.st4{fill:none;stroke:#C2CCA6;stroke-linecap:square;stroke-miterlimit:10;stroke-dasharray:6.3668,4.2446;}
	.st5{opacity:0.6;fill:#D5E591;enable-background:new    ;}
	.st6{fill:none;stroke:#C2CCA6;stroke-linecap:square;stroke-miterlimit:10;stroke-dasharray:6.0657,4.0438;}
	.st7{fill:none;stroke:#C2CCA6;stroke-linecap:square;stroke-miterlimit:10;stroke-dasharray:5.8822,3.9215;}
</style>
<g>
	<g>
		<g>
			<g>
				<path d="M313.6,103.1c8.9,0,16.5,3.4,23.1,10.1c6.4,6.7,9.8,15.2,9.8,25.1c0,10.3-3.2,18.9-9.8,25.8
					c-6.6,6.9-14.5,10.3-23.8,10.3c-9.4,0-17.4-3.4-23.6-9.9c-6.4-6.7-9.6-15.3-9.6-26c0-10.8,3.7-19.7,11.1-26.5
					C297.1,105.9,304.7,103.1,313.6,103.1z M312.8,106.8c-6.1,0-11,2.2-14.7,6.7c-4.6,5.6-6.9,13.8-6.9,24.8
					c0,11.1,2.4,19.7,7.1,25.6c3.7,4.6,8.4,6.9,14.5,6.9c6.4,0,11.6-2.5,15.8-7.4c4.2-5.1,6.2-12.8,6.2-23.6
					c0-11.6-2.4-20.4-6.9-26.1C324.3,109,319.2,106.8,312.8,106.8z"/>
				<path d="M394.6,172.9l-26.3-57.3v45.5c0,4.2,0.5,6.7,1.3,7.9c1.2,1.3,3.2,2,5.9,2h2.4v1.9h-23.8V171h2.4c2.9,0,4.9-0.8,6.1-2.7
					c0.7-1,1.2-3.5,1.2-7.4v-44.5c0-3-0.3-5.2-1-6.6c-0.5-1-1.3-1.9-2.5-2.4c-1.2-0.7-3.2-1-6.1-1v-1.9h19.4l24.8,53.4l24.3-53.4
					h19.4v1.9h-2.4c-2.9,0-5.1,0.8-6.2,2.7c-0.7,1-1.2,3.5-1.2,7.4v44.5c0,4.2,0.5,6.7,1.3,7.9c1.2,1.3,3.2,2,5.9,2h2.4v1.9h-29V171
					h2.4c2.9,0,4.9-0.8,6.1-2.7c0.7-1,1.2-3.5,1.2-7.4v-45.5l-26.3,57.3h-1.5V172.9z"/>
				<g>
					<polygon points="112.2,81.3 122.5,105.6 146.6,120.4 118.4,54.2 115.4,54.2 99.5,90.4 106.1,94.8 					"/>
					<path d="M95.8,118.2l-5.9-5.2l-15.8,36.6c-3.5,8.4-6.9,14-9.8,16.7c-1.5,1.3-4.6,2.5-9.4,3.4v3.2h36.9v-3.2
						c-5.7-0.3-9.3-1.3-11-2.5c-1.7-1.3-2.5-2.9-2.5-4.7c0-2.2,1-5.6,2.9-10.1l7.9-18.2l2.7-6.4L95.8,118.2z"/>
				</g>
				<g>
					<path d="M262.9,168.8c-0.5-1.2-1.2-4.6-1.2-8.1v-44c0-4,0.3-6.7,1.2-7.8c1.3-1.7,3.4-2.5,6.1-2.5h2.5v-1.9h-29.2v1.9h2.4
						c1.7,0,3.2,0.3,4.6,1.2c1,0.7,1.7,1.3,2,2.2c0.5,1.2,0.7,3.4,0.7,6.9v44c0,1.9,0,3.4-0.2,4.7"/>
				</g>
				<g>
					<path class="st0" d="M38.3,38.3C75.6,94,127,130.9,180.8,155.5l8.6-10.1C83.7,98,38.3,38.3,38.3,38.3z"/>
					<path class="st0" d="M464.9,201.9c-107.1-3.9-204.3-25.8-267.4-52.9l-8.3,10.3C315,213.7,464.9,201.9,464.9,201.9z"/>
				</g>
				<g>
					<path d="M45.2,68.8c0,0,29.8,58.7,123.1,101.8l7.2-8.6C126.5,140.8,80.1,111,45.2,68.8z"/>
					<path d="M484.3,214.7c0,0-169.9,4.7-300.3-49.1l-7.1,8.8C240.5,202,356.1,223.3,484.3,214.7z"/>
				</g>
				<g>
					<path d="M205.2,135.1l13.5-17.4c2.7-3.5,4.9-5.9,6.4-7.2c1.5-1.3,3.2-2.4,5.1-3c1.2-0.5,2.7-0.8,4.7-0.8v-1.9h-24.1v1.9
						c2.4,0,4,0.2,4.7,0.5c0.8,0.3,1.3,0.8,1.9,1.5c0.3,0.5,0.7,1.2,0.7,1.9s-0.2,1.3-0.5,2c-0.3,0.7-1.2,1.9-2.5,3.7l-12.1,15.3
						l-10.5-15.7c-1.7-2.4-2.4-4.2-2.4-5.4c0-1,0.5-1.9,1.5-2.5c1-0.8,2.9-1.2,5.6-1.3v-1.9h-31.9v1.9c3.4,0.2,6.2,1,8.8,2.7
						c2.5,1.7,5.6,5.2,9.3,10.5l13.5,19.7l-27.5,33.7c-2.4,3-4.6,5.4-6.4,6.7c-1.9,1.5-3.9,2.7-5.9,3.5c-1.2,0.5-2.7,0.8-4.4,1v1.9
						h24.1v-1.9c-2.5-0.2-4.2-0.5-5.2-1.2c-1-0.7-1.3-1.5-1.3-2.7c0-0.7,0.2-1.3,0.5-2c0.3-0.7,1.2-2,2.7-3.9l25.6-32l4,6.1
						c3.7,1.3,10.6,4.4,15,5.7L205.2,135.1z"/>
				</g>
			</g>
			<g>
				<path class="st0" d="M74.9,250.6v-10.8l-5.4,8.9h-1.9l-5.2-8.8v10.6h-3.9v-18h3.4l6.7,11.3l6.6-11.3h3.4v18
					C78.6,250.6,74.9,250.6,74.9,250.6z"/>
				<path class="st0" d="M92.8,249.7c-1.2-0.7-2-1.5-2.7-2.5s-1-2.4-1-3.7c0-1.3,0.3-2.5,1-3.7c0.7-1,1.5-1.9,2.7-2.5
					c1.2-0.7,2.5-0.8,3.9-0.8s2.7,0.3,3.9,0.8c1.2,0.5,2,1.5,2.7,2.5s1,2.4,1,3.7c0,1.3-0.3,2.5-1,3.7c-0.7,1-1.5,1.9-2.7,2.5
					c-1.2,0.7-2.5,0.8-3.9,0.8S94,250.4,92.8,249.7z M99.2,246.4c0.7-0.7,1-1.7,1-2.9s-0.3-2-1-2.9c-0.7-0.8-1.5-1-2.5-1
					c-1,0-1.9,0.3-2.5,1c-0.7,0.7-1,1.7-1,2.9s0.3,2,1,2.9c0.7,0.8,1.5,1,2.5,1C97.7,247.4,98.7,247,99.2,246.4z"/>
				<path class="st0" d="M120.1,236.9c0.8-0.3,1.7-0.5,2.9-0.5v3.7c-0.5,0-0.7,0-0.8,0c-1.2,0-2,0.3-2.7,1c-0.7,0.7-1,1.7-1,2.9v6.6
					h-4.2v-13.8h3.9v1.9C118.6,237.8,119.2,237.3,120.1,236.9z"/>
				<path class="st0" d="M141.8,249.9c-0.3,0.3-0.8,0.5-1.5,0.7c-0.5,0.2-1.2,0.2-1.9,0.2c-1.7,0-2.9-0.3-3.9-1.2
					c-1-0.8-1.3-2-1.3-3.7v-5.7h-2.2v-3h2.2v-3.4h4v3.4h3.4v3h-3.4v5.6c0,0.5,0.2,1,0.5,1.3s0.7,0.5,1.3,0.5c0.7,0,1.2-0.2,1.7-0.5
					L141.8,249.9z"/>
				<path class="st0" d="M165.3,236.6v11.6c0,2.5-0.7,4.4-2,5.7c-1.3,1.2-3.2,1.9-5.7,1.9c-1.3,0-2.5-0.2-3.9-0.5
					c-1.3-0.3-2.2-0.8-3-1.3l1.5-2.9c0.5,0.5,1.3,0.8,2.2,1.2c0.8,0.3,1.9,0.5,2.7,0.5c1.3,0,2.4-0.3,3-1c0.7-0.7,1-1.5,1-2.9v-0.7
					c-1,1.2-2.5,1.7-4.4,1.7c-1.3,0-2.4-0.3-3.5-0.8s-1.9-1.3-2.5-2.4c-0.7-1-1-2.2-1-3.5c0-1.3,0.3-2.5,1-3.5
					c0.7-1,1.5-1.9,2.5-2.4s2.2-0.8,3.5-0.8c2,0,3.5,0.7,4.6,2v-1.9H165.3z M160.2,245.7c0.7-0.7,1-1.5,1-2.5c0-1-0.3-1.9-1-2.5
					c-0.7-0.7-1.5-1-2.7-1s-2,0.3-2.7,1s-1,1.5-1,2.5c0,1,0.3,1.9,1,2.5s1.5,1,2.7,1S159.5,246.2,160.2,245.7z"/>
				<path class="st0" d="M186.7,237.9c1.2,1,1.7,2.5,1.7,4.6v7.9h-3.7v-1.7c-0.7,1.3-2.2,1.9-4.2,1.9c-1,0-2-0.2-2.7-0.5
					c-0.8-0.3-1.3-0.8-1.9-1.5c-0.5-0.7-0.7-1.3-0.7-2.2c0-1.3,0.5-2.4,1.5-3c1-0.7,2.5-1.2,4.6-1.2h3.2c0-0.8-0.3-1.5-0.8-2
					c-0.5-0.5-1.3-0.7-2.4-0.7c-0.7,0-1.5,0.2-2.2,0.3c-0.7,0.2-1.3,0.5-1.9,1l-1.5-2.9c0.7-0.5,1.7-1,2.7-1.2
					c1-0.3,2.2-0.5,3.2-0.5C184,236.4,185.7,236.9,186.7,237.9z M183.3,247.5c0.5-0.3,0.8-0.8,1.2-1.3v-1.3h-2.7
					c-1.7,0-2.5,0.5-2.5,1.7c0,0.5,0.2,0.8,0.7,1.2c0.5,0.3,1,0.5,1.7,0.5C182.1,248.1,182.8,247.9,183.3,247.5z"/>
				<path class="st0" d="M213.8,236.6v11.6c0,2.5-0.7,4.4-2,5.7c-1.3,1.2-3.2,1.9-5.7,1.9c-1.3,0-2.5-0.2-3.9-0.5
					c-1.3-0.3-2.2-0.8-3-1.3l1.5-2.9c0.5,0.5,1.3,0.8,2.2,1.2c0.8,0.3,1.9,0.5,2.7,0.5c1.3,0,2.4-0.3,3-1s1-1.5,1-2.9v-0.7
					c-1,1.2-2.5,1.7-4.4,1.7c-1.3,0-2.4-0.3-3.5-0.8s-1.9-1.3-2.5-2.4s-1-2.2-1-3.5c0-1.3,0.3-2.5,1-3.5c0.7-1,1.5-1.9,2.5-2.4
					c1-0.5,2.2-0.8,3.5-0.8c2,0,3.5,0.7,4.6,2v-1.9H213.8z M208.8,245.7c0.7-0.7,1-1.5,1-2.5c0-1-0.3-1.9-1-2.5s-1.5-1-2.7-1
					s-2,0.3-2.7,1c-0.7,0.7-1,1.5-1,2.5c0,1,0.3,1.9,1,2.5c0.7,0.7,1.5,1,2.7,1S208.1,246.2,208.8,245.7z"/>
				<path class="st0" d="M238.3,244.7h-10.5c0.2,0.8,0.7,1.5,1.3,2c0.7,0.5,1.5,0.7,2.7,0.7c0.7,0,1.3-0.2,1.9-0.3
					c0.5-0.2,1-0.5,1.5-1l2.2,2.4c-1.3,1.5-3.2,2.2-5.7,2.2c-1.5,0-2.9-0.3-4.2-0.8c-1.2-0.7-2.2-1.5-2.9-2.5s-1-2.4-1-3.7
					s0.3-2.5,1-3.7c0.7-1.2,1.5-2,2.7-2.5c1.2-0.5,2.4-0.8,3.7-0.8s2.5,0.3,3.7,0.8s2,1.3,2.5,2.5s1,2.4,1,3.9
					C238.4,243.7,238.3,244,238.3,244.7z M228.8,240.3c-0.7,0.5-1,1.2-1.2,2.2h6.9c-0.2-0.8-0.5-1.5-1.2-2c-0.7-0.5-1.3-0.8-2.2-0.8
					C230.2,239.5,229.5,239.8,228.8,240.3z"/>
				<path class="st0" d="M276.7,250.2c-1.3-0.3-2.4-0.8-3.2-1.5l1.3-3.2c0.8,0.5,1.7,1,2.7,1.3c1,0.3,2.2,0.5,3.2,0.5
					c1.2,0,2-0.2,2.7-0.5c0.5-0.3,0.8-0.8,0.8-1.3s-0.2-0.8-0.5-1c-0.3-0.3-0.8-0.5-1.3-0.7c-0.5-0.2-1.2-0.3-2.2-0.5
					c-1.3-0.3-2.5-0.7-3.4-1c-0.8-0.3-1.7-0.8-2.2-1.5c-0.7-0.7-1-1.7-1-2.9c0-1,0.3-2,0.8-2.9c0.5-0.8,1.3-1.5,2.5-2
					c1.2-0.5,2.5-0.7,4.2-0.7c1.2,0,2.4,0.2,3.4,0.3s2,0.7,2.9,1.2l-1.3,3.2c-1.7-1-3.4-1.3-5.1-1.3c-1.2,0-2,0.2-2.5,0.5
					c-0.5,0.3-0.8,0.8-0.8,1.5s0.3,1,1,1.3c0.7,0.3,1.7,0.7,3,0.8c1.3,0.3,2.5,0.7,3.4,1c0.8,0.3,1.7,0.8,2.2,1.5
					c0.7,0.7,1,1.7,1,2.9c0,1-0.3,2-0.8,2.9c-0.5,0.8-1.5,1.5-2.5,2c-1.2,0.5-2.5,0.7-4.2,0.7C279.4,250.9,278.1,250.6,276.7,250.2z
					"/>
				<path class="st0" d="M301,249.7c-1.2-0.7-2-1.5-2.7-2.5c-0.7-1-1-2.4-1-3.7c0-1.3,0.3-2.5,1-3.7c0.7-1,1.5-1.9,2.7-2.5
					c1.2-0.7,2.5-0.8,3.9-0.8c1.5,0,2.7,0.3,3.9,0.8c1.2,0.7,2,1.5,2.7,2.5c0.7,1,1,2.4,1,3.7c0,1.3-0.3,2.5-1,3.7
					c-0.7,1-1.5,1.9-2.7,2.5c-1.2,0.7-2.5,0.8-3.9,0.8C303.4,250.8,302,250.4,301,249.7z M307.4,246.4c0.7-0.7,1-1.7,1-2.9
					s-0.3-2-1-2.9c-0.7-0.7-1.5-1-2.5-1c-1,0-1.9,0.3-2.5,1c-0.7,0.7-1,1.7-1,2.9s0.3,2,1,2.9c0.7,0.7,1.5,1,2.5,1
					C305.9,247.4,306.7,247,307.4,246.4z"/>
				<path class="st0" d="M322.4,231.4h4v19.1h-4V231.4z"/>
				<path class="st0" d="M351.4,236.6v13.8h-3.9v-1.7c-0.5,0.7-1.2,1-1.9,1.3c-0.7,0.3-1.5,0.5-2.4,0.5c-1.9,0-3.2-0.5-4.4-1.5
					c-1-1-1.5-2.5-1.5-4.7v-7.8h4v7.2c0,2.2,1,3.4,2.9,3.4c1,0,1.7-0.3,2.4-1c0.5-0.7,0.8-1.5,0.8-2.9v-6.9h3.9V236.6z"/>
				<path class="st0" d="M371.3,249.9c-0.3,0.3-0.8,0.5-1.5,0.7c-0.5,0.2-1.2,0.2-1.9,0.2c-1.7,0-2.9-0.3-3.9-1.2
					c-0.8-0.8-1.3-2-1.3-3.7v-5.7h-2.2v-3h2.2v-3.4h4v3.4h3.4v3h-3.4v5.6c0,0.5,0.2,1,0.5,1.3s0.7,0.5,1.3,0.5
					c0.7,0,1.2-0.2,1.7-0.5L371.3,249.9z"/>
				<path class="st0" d="M380.9,234.1c-0.5-0.5-0.7-1-0.7-1.5s0.2-1.2,0.7-1.5c0.5-0.3,1-0.7,1.9-0.7s1.3,0.2,1.9,0.7
					c0.5,0.3,0.7,1,0.7,1.5c0,0.7-0.2,1.2-0.7,1.7s-1,0.7-1.9,0.7S381.4,234.6,380.9,234.1z M380.7,236.6h4v13.8h-4V236.6z"/>
				<path class="st0" d="M398.4,249.7c-1.2-0.7-2-1.5-2.7-2.5c-0.7-1-1-2.4-1-3.7c0-1.3,0.3-2.5,1-3.7c0.7-1,1.5-1.9,2.7-2.5
					c1.2-0.7,2.5-0.8,3.9-0.8c1.5,0,2.7,0.3,3.9,0.8c1.2,0.7,2,1.5,2.7,2.5s1,2.4,1,3.7c0,1.3-0.3,2.5-1,3.7c-0.7,1-1.5,1.9-2.7,2.5
					c-1.2,0.7-2.5,0.8-3.9,0.8C400.8,250.8,399.5,250.4,398.4,249.7z M404.8,246.4c0.7-0.7,1-1.7,1-2.9s-0.3-2-1-2.9
					c-0.7-0.7-1.5-1-2.5-1s-1.9,0.3-2.5,1c-0.7,0.7-1,1.7-1,2.9s0.3,2,1,2.9c0.7,0.7,1.5,1,2.5,1S404.2,247,404.8,246.4z"/>
				<path class="st0" d="M432.3,237.9c1,1,1.5,2.5,1.5,4.6v7.9h-4v-7.2c0-1.2-0.2-1.9-0.7-2.5c-0.5-0.5-1.2-0.8-2-0.8
					c-1,0-1.9,0.3-2.4,1c-0.7,0.7-0.8,1.5-0.8,2.9v6.9h-4v-13.8h3.9v1.7c0.5-0.5,1.2-1,2-1.3c0.8-0.3,1.7-0.5,2.5-0.5
					C430,236.4,431.3,236.9,432.3,237.9z"/>
				<path class="st0" d="M446.2,250.2c-1.2-0.3-2-0.7-2.7-1l1.3-2.9c0.7,0.3,1.3,0.7,2.2,1c0.8,0.2,1.7,0.3,2.5,0.3
					c1.7,0,2.5-0.3,2.5-1.2c0-0.3-0.2-0.7-0.7-0.8c-0.5-0.2-1.2-0.3-2.2-0.5c-1.2-0.2-2-0.3-2.9-0.7c-0.7-0.2-1.3-0.7-1.9-1.2
					c-0.5-0.5-0.8-1.3-0.8-2.4c0-0.8,0.3-1.7,0.8-2.4c0.5-0.7,1.2-1.2,2.2-1.5c1-0.3,2.2-0.5,3.4-0.5c1,0,2,0.2,2.9,0.3
					c1,0.2,1.9,0.5,2.4,0.8l-1.3,2.9c-1.2-0.7-2.5-1-4-1c-0.8,0-1.5,0.2-1.9,0.3c-0.3,0.2-0.7,0.5-0.7,1s0.2,0.7,0.7,0.8
					s1.2,0.3,2.2,0.5c1.2,0.2,2,0.3,2.9,0.7c0.7,0.2,1.3,0.7,1.9,1.2c0.5,0.5,0.8,1.3,0.8,2.4c0,0.8-0.3,1.7-0.8,2.4
					c-0.5,0.7-1.3,1.2-2.2,1.5c-1,0.3-2.2,0.5-3.5,0.5C448.3,250.8,447.2,250.6,446.2,250.2z"/>
			</g>
		</g>
		<g>
			<rect x="294.1" y="134.7" class="st1" width="37.8" height="37.8"/>
			<g>
				<path class="st2" d="M306.9,144l5.8,7.5l0.3,0.6l0.3-0.6l5.8-7.5h2.7l-7.4,9.7l7.4,9.6h-2.7l-5.8-7.5l-0.3-0.5l-0.3,0.5
					l-5.8,7.5h-2.7l7.4-9.6l-7.4-9.7H306.9z"/>
			</g>
		</g>
		<g>
			<g>
				<line class="st3" x1="271.4" y1="134.7" x2="274.4" y2="134.7"/>
				<line class="st4" x1="278.7" y1="134.7" x2="350.8" y2="134.7"/>
				<line class="st3" x1="353" y1="134.7" x2="356" y2="134.7"/>
			</g>
		</g>
	</g>
</g>
<g>
	<rect x="0.7" y="0.5" class="st5" width="37.8" height="37.8"/>
	<g>
		<path class="st2" d="M13.5,9.8l5.8,7.5l0.3,0.6l0.3-0.6l5.8-7.5h2.7L21,19.5l7.4,9.6h-2.7l-5.8-7.5L19.6,21l-0.3,0.5L13.5,29h-2.7
			l7.4-9.6l-7.4-9.7H13.5z"/>
	</g>
</g>
<g>
	<rect x="0.8" y="254.1" class="st5" width="37.8" height="37.8"/>
	<g>
		<path class="st2" d="M13.7,263.4l5.8,7.5l0.3,0.6l0.3-0.6l5.8-7.5h2.7l-7.4,9.7l7.4,9.6h-2.7l-5.8-7.5l-0.3-0.5l-0.3,0.5l-5.8,7.5
			H11l7.4-9.6l-7.4-9.7H13.7z"/>
	</g>
</g>
<g>
	<rect x="482.9" y="0.5" class="st5" width="37.8" height="37.8"/>
	<g>
		<path class="st2" d="M495.8,9.8l5.8,7.5l0.3,0.6l0.3-0.6l5.8-7.5h2.7l-7.4,9.7l7.4,9.6h-2.7l-5.8-7.5l-0.3-0.5l-0.3,0.5l-5.8,7.5
			h-2.7l7.4-9.6l-7.4-9.7C493.1,9.8,495.8,9.8,495.8,9.8z"/>
	</g>
</g>
<g>
	<rect x="483.1" y="254.1" class="st5" width="37.8" height="37.8"/>
	<g>
		<path class="st2" d="M495.9,263.4l5.8,7.5l0.3,0.6l0.3-0.6l5.8-7.5h2.7l-7.4,9.7l7.4,9.6h-2.7l-5.8-7.5l-0.3-0.5l-0.3,0.5
			l-5.8,7.5h-2.7l7.4-9.6l-7.4-9.7H495.9z"/>
	</g>
</g>
<rect x="0.5" y="0.5" class="st3" width="520.4" height="293.4"/>
<g>
	<g>
		<polyline class="st3" points="483.1,251.1 483.1,254.1 480.1,254.1 		"/>
		<line class="st6" x1="476" y1="254.1" x2="43.3" y2="254.1"/>
		<polyline class="st3" points="41.3,254.1 38.3,254.1 38.3,251.1 		"/>
		<line class="st7" x1="38.3" y1="247.2" x2="38.3" y2="43.3"/>
		<polyline class="st3" points="38.3,41.3 38.3,38.3 41.3,38.3 		"/>
		<line class="st6" x1="45.4" y1="38.3" x2="478.1" y2="38.3"/>
		<polyline class="st3" points="480.1,38.3 483.1,38.3 483.1,41.3 		"/>
		<line class="st7" x1="483.1" y1="45.2" x2="483.1" y2="249.2"/>
	</g>
</g>
</svg>
