<?xml version="1.0" encoding="utf-8"?>
<!-- Generator: Adobe Illustrator 25.0.1, SVG Export Plug-In . SVG Version: 6.00 Build 0)  -->
<svg version="1.1" id="Layer_1" xmlns="http://www.w3.org/2000/svg" xmlns:xlink="http://www.w3.org/1999/xlink" x="0px" y="0px"
	 width="658.6px" height="685.7px" viewBox="0 0 658.6 685.7" style="enable-background:new 0 0 658.6 685.7;" xml:space="preserve"
	>
<style type="text/css">
	.st0{fill:#FFFFFF;}
	.st1{fill:#84BD00;}
	.st2{fill:none;}
</style>
<path class="st0" d="M476,353.7L348.1,0h-51.9l-81.4,240.4c1.2,1,2.4,1.9,3.6,2.9l34.7,26l47.4-145.5l71.2,200.5
	C398.1,338.3,459.2,349.6,476,353.7"/>
<path class="st0" d="M657.1,667.4c0,0-15.9,4.3-28.9-4.3c-13-8.7-23.1-23.1-39-56.4c-8.3-17.3-18.2-38.6-25.7-55
	c31.4,1.3,62,0.4,92.2-1.4v-63.6c0,0-219.8,31.8-378.8-76.6C117.8,301.7,39.8,181.6,22.4,154.2C12.2,138.1,56.5,258,153,362.7
	L66.4,596.3c-11.3,31-25.5,66.9-60.4,72.5v16.9c24.5,0,51.8-5.7,78.2-5.7c26.3,0,52.8,5.7,79.1,5.7v-16.9c-28.3-1.9-44.3-17-44.3-49
	c0-28.2,26.2-89.3,46.9-155.2h0.2l13.9-42.4h0l9.4-23.1c16.8,15.3,34.9,29.8,54.2,43c83.8,57.2,159.6,86.2,230.6,99.8
	c9.5,19.6,46.6,98.6,34,111.3c-14.4,14.5-37.6,16-43.4,17.4c-5.8,1.4-1.5,14.4-1.5,14.4s102-6.2,107.1-6.2c8,0,88,6.2,88,6.2
	L657.1,667.4z"/>
<path class="st1" d="M1.4,40c-12.9-20.5,62.2,179.3,221.2,287.7c159,108.4,289.1,115.7,412,108.4v-63.6c0,0-219.8,31.8-378.8-76.6
	C96.9,187.5,18.8,67.4,1.4,40"/>
<rect class="st2" width="658.6" height="685.7"/>
</svg>
