<svg width="130" height="130" viewBox="0 0 130 130" fill="none" xmlns="http://www.w3.org/2000/svg">
<g filter="url(#filter0_d)">
<path d="M64.3685 48.7797C64.7545 48.3809 65.089 48.0207 65.4235 47.6733C66.7743 46.2453 68.3053 45.0231 69.9135 43.9166C71.5602 42.7845 73.3485 41.9482 75.2912 41.498C77.3625 41.0219 79.421 41.0991 81.3894 41.9868C82.573 42.5272 83.3449 43.4921 83.8852 44.65C84.5414 46.078 84.7987 47.5833 84.7215 49.14C84.67 50.0534 84.4899 50.9668 84.2969 51.8674C83.9881 53.4113 83.5765 54.9165 82.9847 56.3703C82.2127 58.2744 81.0806 59.9726 79.8841 61.6322C78.0701 64.1281 76.1918 66.5725 74.2877 68.9912C73.1941 70.3807 71.869 71.4999 70.4667 72.5292C69.3345 73.3654 68.331 74.3432 67.4433 75.4367C66.7486 76.2858 65.9252 77.0063 64.9474 77.5209C64.2784 77.8683 63.558 77.8812 62.8375 77.5981C61.2422 76.9806 59.8656 76.0028 58.5148 74.9864C56.868 73.7514 55.2598 72.4777 53.8704 70.9467C53.0084 69.9947 52.2365 68.9655 51.4774 67.9362C50.0751 66.0064 48.7114 64.0509 47.5664 61.9539C46.8845 60.7059 46.4085 59.3422 45.9968 57.9785C45.7395 57.1551 45.495 56.3188 45.3407 55.4697C45.1477 54.4662 45.019 53.4627 44.929 52.4592C44.7874 50.8382 44.8518 49.2043 45.0705 47.5961C45.3021 45.8078 45.7652 44.0968 46.8202 42.5915C48.0167 40.8804 49.4833 39.491 51.426 38.6161C53.0727 37.8699 54.7967 37.5097 56.5978 37.3939C57.4341 37.3424 58.2446 37.3553 59.0423 37.6126C60.3931 38.0372 61.3194 38.9763 62.0013 40.1728C62.6188 41.2792 63.172 42.4243 63.4808 43.6722C63.7767 44.8815 63.9697 46.1166 64.1627 47.3517C64.2013 47.7891 64.2784 48.2523 64.3685 48.7797ZM64.8702 56.5504C64.8317 57.7083 64.8445 58.8018 64.6387 59.8825C64.4714 60.7316 64.1755 61.555 63.5837 62.2112C62.7732 63.1117 61.4867 63.0345 60.882 62.0439C60.6633 61.6837 60.496 61.2849 60.3931 60.8732C60.213 60.1527 60.1744 59.4194 60.0972 58.6861C59.9943 57.6568 60.0972 56.6405 60.3417 55.6627C60.6761 54.3633 61.2036 53.1411 61.9498 52.0218C62.2715 51.5329 62.503 51.0698 62.3872 50.4265C62.0785 48.7411 61.8855 47.0429 61.5767 45.3576C61.2937 43.7751 60.689 42.3342 59.8013 40.9962C59.2738 40.2114 58.592 39.6453 57.5885 39.5939C56.9452 39.5682 56.3148 39.6067 55.6715 39.7225C53.999 40.0313 52.4681 40.6874 51.0915 41.6909C49.8307 42.6172 48.8915 43.8266 48.3769 45.3061C47.9781 46.4382 47.7722 47.6347 47.6436 48.8441C47.4892 50.2207 47.5664 51.5844 47.7207 52.9481C47.8365 53.9387 48.081 54.9036 48.3254 55.8685C48.6213 57.0136 48.8915 58.1714 49.3418 59.265C50.1652 61.272 51.2587 63.1246 52.4037 64.9643C53.9347 67.4345 55.6458 69.7631 57.7043 71.8344C58.9522 73.0952 60.3031 74.2531 61.6668 75.3853C62.0013 75.6683 62.3615 75.9256 62.7089 76.1958C62.7989 76.2601 62.9147 76.363 62.9662 76.1443C63.0562 75.7198 63.3135 75.3981 63.6223 75.1022C64.3556 74.4204 65.1276 73.7514 65.7194 72.9409C66.5813 71.7444 67.5977 70.7023 68.7556 69.776C69.9392 68.8239 71.0842 67.8205 72.0748 66.6626C73.8245 64.6041 75.5614 62.5199 77.2467 60.3971C78.4689 58.8662 79.5625 57.2451 80.3087 55.4183C80.9905 53.7329 81.5437 51.9832 81.994 50.2207C82.3157 48.9727 82.4314 47.7505 82.0969 46.4897C81.5823 44.5856 80.4245 43.8652 78.5976 43.4278C77.311 43.119 75.9988 43.4149 74.738 43.7751C72.7953 44.3412 71.0585 45.3318 69.4374 46.5026C67.7521 47.7248 66.324 49.2043 64.9346 50.7481C64.6129 51.1084 64.5229 51.4557 64.5743 51.906C64.7416 53.4499 64.8059 55.0323 64.8702 56.5504ZM63.0691 57.4896C63.0691 56.4475 63.0305 55.3925 62.9533 54.3504C62.9404 54.1832 63.0434 53.9001 62.8633 53.8616C62.6574 53.8101 62.5545 54.0931 62.4773 54.2604C62.0399 55.1224 61.641 55.9843 61.5253 56.9621C61.3966 57.9913 61.4095 59.0077 61.5639 60.0241C61.6282 60.4486 61.7311 60.8603 61.9884 61.2205C62.1814 61.4907 62.2972 61.4907 62.4516 61.1948C62.5674 60.9761 62.6574 60.7316 62.7475 60.4872C63.0948 59.5223 63.0691 58.5059 63.0691 57.4896Z" fill="white"/>
<path d="M105.1 62.9445C105.165 64.1152 105.036 65.2731 104.894 66.431C104.804 67.1386 104.688 67.8462 104.547 68.5538C104.444 69.0169 104.483 69.4929 104.418 69.9561C104.264 71.1912 103.917 72.3748 103.569 73.5713C103.35 74.3303 103.235 75.128 102.874 75.8356C102.27 77.0063 101.922 78.2542 101.511 79.4893C101.331 80.0297 101.138 80.5571 100.842 81.046C100.289 81.9595 99.9798 82.9758 99.478 83.9021C98.6932 85.3431 97.7541 86.6553 96.6477 87.8647C95.2325 89.4085 93.7401 90.888 92.1577 92.2646C90.9226 93.3453 89.546 94.233 88.1823 95.1464C87.2688 95.7511 86.4068 96.4201 85.4291 96.909C85.056 97.0891 84.6958 97.295 84.2841 97.4107C83.718 97.578 83.2677 97.9511 82.766 98.2213C81.6724 98.8388 80.4759 99.199 79.2537 99.5078C78.5461 99.6879 77.8514 99.8809 77.1567 100.087C76.8994 100.164 76.642 100.164 76.3976 100.125C76.0116 100.074 75.883 99.778 76.0888 99.4435C76.2046 99.2505 76.3719 99.1218 76.5906 99.0704C77.7871 98.7873 78.8292 98.1827 79.8841 97.5909C81.1706 96.8704 82.5086 96.2529 83.7695 95.4681C84.9402 94.7476 85.9823 93.8085 87.1144 93.0365C89.1343 91.6728 90.7039 89.8717 92.1834 87.9933C93.5085 86.308 94.8594 84.6483 96.0559 82.8858C97.5482 80.6858 99.0663 78.4987 100.263 76.1186C101.048 74.5619 101.652 72.928 102.128 71.2555C102.669 69.3514 103.08 67.4216 103.402 65.4661C103.608 64.2053 103.801 62.9316 103.904 61.6451C103.955 61.0533 103.801 60.4743 103.736 59.8954C103.698 59.4708 103.827 59.2393 104.135 59.1749C104.47 59.0978 104.701 59.2521 104.843 59.6638C105.036 60.2042 105.023 60.7831 105.087 61.3363C105.152 61.8638 105.1 62.4041 105.1 62.9445Z" fill="white"/>
<path d="M62.3616 20.0386C64.42 20.1415 66.4656 20.2316 68.5241 20.3602C69.9007 20.4503 71.2772 20.5661 72.6281 20.8877C73.593 21.1193 74.5322 21.4409 75.4842 21.724C76.9509 22.1742 78.4046 22.6117 79.807 23.2292C80.6561 23.6023 81.4923 24.014 82.3286 24.4128C82.4315 24.4643 82.5473 24.5157 82.6631 24.5286C83.6666 24.7216 84.3742 25.4292 85.1589 25.9824C86.5741 26.973 88.0408 27.9251 89.3016 29.1087C89.8291 29.6104 90.3823 30.035 90.9998 30.4081C91.8875 30.9355 92.5437 31.7203 93.1998 32.5051C94.0618 33.5472 94.8851 34.6408 95.8115 35.6314C96.4161 36.2875 96.8921 37.008 97.3939 37.7156C97.9728 38.539 98.6161 39.298 99.1693 40.1343C100.263 41.7682 101.086 43.5307 101.832 45.3447C102.283 46.4254 102.862 47.4546 103.26 48.5611C103.569 49.423 103.775 50.2979 103.865 51.2113C103.904 51.6616 104.084 52.0862 104.2 52.5107C104.457 53.4628 104.56 54.4405 104.714 55.4183C104.753 55.7013 104.779 55.9972 104.843 56.2674C104.997 56.8592 104.856 57.4382 104.727 58.0042C104.689 58.1843 104.586 58.3259 104.393 58.3516C104.225 58.3773 104.097 58.2487 104.007 58.1072C103.672 57.5153 103.363 56.9364 103.286 56.2417C103.209 55.4183 102.887 54.6464 102.656 53.8616C102.141 52.0733 101.614 50.2979 101.086 48.5225C101.061 48.4453 101.035 48.3552 100.996 48.2909C100.327 47.3131 100.006 46.1938 99.581 45.1132C99.4395 44.7529 99.298 44.3927 99.105 44.0582C98.8219 43.5436 98.6032 43.0161 98.5518 42.4372C98.5003 41.9611 98.3331 41.5366 98.0372 41.1764C97.2395 40.1857 96.6863 39.0536 95.953 38.0243C95.6957 37.6641 95.4384 37.3039 95.1039 37.0209C94.6278 36.6092 94.2676 36.1074 93.8945 35.6185C93.1869 34.6794 92.2992 33.8817 91.4501 33.0712C89.8677 31.5531 88.3238 29.9964 86.4969 28.7484C85.3777 27.9765 84.1683 27.3976 82.9976 26.7414C81.621 25.9824 80.1415 25.442 78.7005 24.8116C77.8643 24.4385 77.0666 23.9754 76.1789 23.7052C74.8409 23.3064 73.4772 22.9848 72.1135 22.6503C70.827 22.3415 69.5276 22.0713 68.2153 21.8783C67.2761 21.7368 66.337 21.5181 65.372 21.7111C65.1019 21.7626 64.8317 21.8526 64.5615 21.8783C63.6095 21.9813 62.7089 21.7754 61.8469 21.3895C61.744 21.338 61.654 21.2608 61.5639 21.1836C61.3709 20.9778 61.2551 20.7462 61.3581 20.4503C61.461 20.1672 61.7312 20 62.0657 20C62.1557 20 62.2329 20.0129 62.323 20.0129C62.3616 20.0257 62.3616 20.0257 62.3616 20.0386Z" fill="white"/>
<path d="M58.6178 20.3346C59.1195 20.3217 59.5955 20.4246 60.0458 20.6433C60.6633 20.965 60.7019 21.6468 60.1101 22.0199C59.7885 22.2386 59.4025 22.2772 59.0423 22.3416C58.1803 22.5088 57.3055 22.5603 56.4435 22.7533C54.1535 23.2807 51.8763 23.8597 49.6892 24.7474C46.8202 25.9053 44.1314 27.3848 41.6226 29.1859C40.3618 30.0994 39.0367 30.9356 37.8145 31.9005C36.3993 33.0198 35.1256 34.2935 33.9034 35.6057C33.3116 36.249 32.6298 36.8151 32.1151 37.5355C31.8064 37.9858 31.5105 38.4361 31.2017 38.8993C31.0602 39.1051 30.9058 39.2981 30.7 39.4267C30.4941 39.5554 30.2883 39.5811 30.0696 39.4396C29.8637 39.2981 29.8251 39.1051 29.8637 38.8735C30.0052 38.0887 30.4298 37.4583 30.8929 36.8408C31.0988 36.5706 31.3175 36.3391 31.5877 36.1332C32.0251 35.7987 32.3596 35.3742 32.6298 34.8853C33.1572 33.9075 33.9292 33.1099 34.7139 32.3379C35.6402 31.4245 36.5022 30.4339 37.4929 29.5848C38.0589 29.0959 38.7279 28.7742 39.2554 28.2596C39.6542 27.8608 40.1045 27.5263 40.6191 27.2561C40.9794 27.0631 41.2367 26.7029 41.5712 26.4585C42.7162 25.5708 44.0027 24.9532 45.2764 24.31C45.6109 24.1427 45.9454 23.9755 46.267 23.7696C47.0647 23.2421 48.0167 23.1649 48.8658 22.8047C50.6927 22.0328 52.6354 21.6211 54.4751 20.9135C54.9897 20.7077 55.5558 20.7849 56.0961 20.7077C56.7394 20.6176 57.3827 20.489 58.026 20.386C58.2318 20.3474 58.4248 20.3474 58.6178 20.3346Z" fill="white"/>
<path d="M66.8515 102.364C66.1825 102.39 65.565 102.3 64.9474 102.287C64.703 102.287 64.5357 102.197 64.4457 101.965C64.3556 101.734 64.42 101.528 64.6001 101.348C64.9217 101.026 65.3463 100.975 65.758 100.923C66.9416 100.782 68.138 100.704 69.3345 100.563C70.2866 100.447 71.2643 100.537 72.2035 100.254C72.628 100.125 73.0397 99.9453 73.49 99.8681C73.966 99.7909 74.3777 99.881 74.7508 100.203C75.0467 100.46 75.0081 100.794 74.6479 100.975C74.2877 101.155 73.8888 101.206 73.5158 101.309C72.2035 101.644 70.8784 101.927 69.5404 102.132C68.6141 102.274 67.7135 102.454 66.8515 102.364Z" fill="white"/>
<path d="M23.0322 62.3012C22.9936 62.0439 23.0322 61.7866 23.1351 61.555C23.2766 61.2205 23.2638 60.886 23.2123 60.5386C23.1094 59.8053 23.0579 59.072 23.0322 58.3387C23.0065 57.5024 23.1223 56.679 23.3667 55.8685C23.4053 55.7527 23.4696 55.6369 23.5725 55.5469C23.6755 55.444 23.7913 55.4182 23.9199 55.4697C24.0486 55.5212 24.1386 55.6369 24.1129 55.7785C23.9971 56.7048 24.2158 57.6311 24.1772 58.5574C24.1643 59.0077 24.0743 59.4451 23.9199 59.8696C23.8298 60.1141 23.7655 60.3585 23.7784 60.6158C23.8298 61.5293 23.7398 62.4427 23.7012 63.369C23.7012 63.562 23.7398 63.8965 23.431 63.8965C23.0965 63.8965 23.1351 63.5749 23.1223 63.3562C23.1223 63.0088 22.9807 62.6614 23.0322 62.3012Z" fill="white"/>
<path d="M25.2836 50.4008C25.2579 50.9412 25.0392 51.43 24.9877 51.9575C24.962 52.2406 24.9749 52.5365 24.962 52.8195C24.9491 53.1926 24.8334 53.5142 24.5117 53.7329C24.2801 53.8873 24.0872 53.8487 23.9585 53.5914C23.7527 53.1926 23.7269 52.7938 23.9456 52.3949C24.1901 51.9318 24.4345 51.4815 24.576 50.9669C24.6275 50.7611 24.6275 50.5423 24.679 50.3365C24.7304 50.1306 24.7304 49.8476 25.0135 49.8733C25.3094 49.8991 25.2579 50.195 25.2836 50.4008Z" fill="white"/>
<path d="M26.0941 74.369C26.0941 74.5234 26.107 74.6649 26.0941 74.8193C26.0684 75.0638 25.9011 75.141 25.6824 75.0123C25.5538 74.9351 25.4637 74.8065 25.4122 74.6649C25.1549 73.9574 24.8848 73.2498 24.6789 72.5293C24.6275 72.3363 24.6275 72.1305 24.6789 71.9246C24.7304 71.7316 24.8462 71.603 25.052 71.5773C25.2707 71.5515 25.3865 71.6802 25.4766 71.8474C25.8239 72.4778 26.107 73.61 26.0941 74.369Z" fill="white"/>
<path d="M23.4181 66.7912C23.4181 66.4567 23.5853 66.2123 23.8298 66.2123C24.1 66.2123 24.3573 66.5082 24.3701 66.8169C24.3701 67.1 24.1643 67.4216 23.9584 67.4216C23.6754 67.4474 23.4181 67.1386 23.4181 66.7912Z" fill="white"/>
<path d="M28.2427 43.299C28.2427 43.5949 27.9854 43.878 27.741 43.8651C27.5351 43.8522 27.3164 43.5949 27.3164 43.3762C27.3164 43.1061 27.6252 42.7716 27.8568 42.7844C28.0497 42.7973 28.2427 43.0546 28.2427 43.299Z" fill="white"/>
<path d="M101.807 81.8952C101.807 82.1396 101.627 82.3455 101.408 82.3455C101.202 82.3455 100.996 82.1268 101.022 81.8823C101.048 81.6636 101.176 81.5092 101.408 81.4835C101.614 81.4578 101.807 81.6765 101.807 81.8952Z" fill="white"/>
<path d="M24.7047 69.6474C24.7047 69.8146 24.6147 69.9047 24.486 69.8918C24.293 69.879 24.2287 69.7117 24.2287 69.5445C24.2287 69.4158 24.3188 69.3258 24.4603 69.3386C24.6275 69.3772 24.6919 69.5059 24.7047 69.6474Z" fill="white"/>
<path d="M30.0052 86.7197H26.3514L25.6567 88.4051H23.8041L27.3035 80.5573H29.0917L32.604 88.4051H30.6999L30.0052 86.7197ZM29.4262 85.3432L28.1783 82.3327L26.9304 85.3432H29.4262Z" fill="white"/>
<path d="M36.7338 88.4051L35.4087 86.5525L34.0449 88.4051H32.128L34.4438 85.3688L32.2052 82.3712H34.1736L35.4472 84.1338L36.7595 82.3712H38.625L36.3864 85.3174L38.715 88.4051H36.7338Z" fill="white"/>
<path d="M39.3583 80.557C39.3583 80.0038 39.7958 79.5792 40.4519 79.5792C41.108 79.5792 41.5454 79.978 41.5454 80.5184C41.5454 81.0973 41.108 81.5219 40.4519 81.5219C39.7958 81.5219 39.3583 81.0973 39.3583 80.557ZM39.5642 82.371H41.3139V88.4049H39.5642V82.371Z" fill="white"/>
<path d="M42.4974 85.3817C42.4974 83.5677 43.8998 82.2811 45.8167 82.2811C47.7336 82.2811 49.1231 83.5677 49.1231 85.3817C49.1231 87.1957 47.7336 88.4822 45.8167 88.4822C43.8998 88.4822 42.4974 87.2086 42.4974 85.3817ZM47.3477 85.3817C47.3477 84.3396 46.6915 83.7092 45.8167 83.7092C44.9419 83.7092 44.2729 84.3396 44.2729 85.3817C44.2729 86.4238 44.9419 87.0542 45.8167 87.0542C46.6915 87.0542 47.3477 86.4238 47.3477 85.3817Z" fill="white"/>
<path d="M60.4832 84.9444V88.3923H58.7336V85.2017C58.7336 84.2239 58.2961 83.7737 57.5885 83.7737C56.8038 83.7737 56.2505 84.2754 56.2505 85.3561V88.3794H54.5009V85.1888C54.5009 84.2111 54.0892 83.7608 53.3558 83.7608C52.5839 83.7608 52.0307 84.2625 52.0307 85.3432V88.3666H50.2939V82.3327H51.9664V83.0275C52.4167 82.5128 53.0857 82.2427 53.8576 82.2427C54.6938 82.2427 55.4143 82.5643 55.8388 83.2333C56.3149 82.6158 57.1125 82.2427 58.0131 82.2427C59.454 82.2813 60.4832 83.1047 60.4832 84.9444Z" fill="white"/>
<path d="M29.9409 97.6295C29.9409 95.2623 31.7549 93.5641 34.1993 93.5641C35.5501 93.5641 36.6952 94.053 37.4285 94.9535L36.2706 96.0342C35.7431 95.4296 35.087 95.1208 34.3022 95.1208C32.8356 95.1208 31.7935 96.15 31.7935 97.6295C31.7935 99.1091 32.8356 100.138 34.3022 100.138C35.087 100.138 35.7431 99.8295 36.2706 99.212L37.4414 100.293C36.6952 101.206 35.563 101.695 34.1993 101.695C31.7549 101.695 29.9409 99.9968 29.9409 97.6295Z" fill="white"/>
<path d="M43.8226 98.1183V101.566H42.1887V100.82C41.8671 101.373 41.2367 101.656 40.349 101.656C38.9338 101.656 38.0975 100.871 38.0975 99.8294C38.0975 98.7616 38.8437 98.0282 40.6835 98.0282H42.0729C42.0729 97.282 41.6226 96.8446 40.6835 96.8446C40.0402 96.8446 39.3841 97.0633 38.9466 97.4107L38.3162 96.1885C38.9724 95.7125 39.9501 95.4552 40.915 95.4552C42.7548 95.4294 43.8226 96.2785 43.8226 98.1183ZM42.0729 99.6493V99.0317H40.8764C40.0531 99.0317 39.7958 99.3405 39.7958 99.7393C39.7958 100.177 40.1689 100.473 40.7864 100.473C41.3653 100.473 41.8799 100.202 42.0729 99.6493Z" fill="white"/>
<path d="M49.1488 95.4294V97.0505C49.0073 97.0376 48.8915 97.0247 48.75 97.0247C47.7851 97.0247 47.1419 97.5522 47.1419 98.7101V101.553H45.405V95.5195H47.0775V96.3172C47.5021 95.7382 48.2225 95.4294 49.1488 95.4294Z" fill="white"/>
<path d="M56.0189 99.0317H51.4517C51.619 99.7779 52.2623 100.241 53.1757 100.241C53.819 100.241 54.2693 100.048 54.6938 99.6621L55.6201 100.666C55.054 101.309 54.2178 101.643 53.1242 101.643C51.0401 101.643 49.6763 100.331 49.6763 98.5428C49.6763 96.7417 51.0529 95.4423 52.8927 95.4423C54.6681 95.4423 56.0318 96.6259 56.0318 98.5685C56.0447 98.6972 56.0318 98.8902 56.0189 99.0317ZM51.426 98.0153H54.3979C54.2693 97.2563 53.7032 96.7545 52.9184 96.7545C52.1207 96.7545 51.5547 97.2434 51.426 98.0153Z" fill="white"/>
<path d="M56.6365 101L57.2154 99.7394C57.7558 100.087 58.5663 100.318 59.3125 100.318C60.123 100.318 60.4189 100.1 60.4189 99.7651C60.4189 98.7745 56.778 99.7908 56.778 97.3722C56.778 96.2271 57.8072 95.4166 59.5698 95.4166C60.406 95.4166 61.3195 95.6096 61.8855 95.9441L61.3066 97.192C60.7148 96.8575 60.123 96.7418 59.5698 96.7418C58.785 96.7418 58.4505 96.9862 58.4505 97.3078C58.4505 98.3371 62.0914 97.3464 62.0914 99.7136C62.0914 100.833 61.0493 101.631 59.2481 101.631C58.2318 101.643 57.1897 101.36 56.6365 101Z" fill="white"/>
</g>
<defs>
<filter id="filter0_d" x="15.0175" y="12" width="114.102" height="114.388" filterUnits="userSpaceOnUse" color-interpolation-filters="sRGB">
<feFlood flood-opacity="0" result="BackgroundImageFix"/>
<feColorMatrix in="SourceAlpha" type="matrix" values="0 0 0 0 0 0 0 0 0 0 0 0 0 0 0 0 0 0 127 0" result="hardAlpha"/>
<feOffset dx="8" dy="8"/>
<feGaussianBlur stdDeviation="8"/>
<feComposite in2="hardAlpha" operator="out"/>
<feColorMatrix type="matrix" values="0 0 0 0 0 0 0 0 0 0 0 0 0 0 0 0 0 0 0.35 0"/>
<feBlend mode="normal" in2="BackgroundImageFix" result="effect1_dropShadow"/>
<feBlend mode="normal" in="SourceGraphic" in2="effect1_dropShadow" result="shape"/>
</filter>
</defs>
</svg>
