<?xml version="1.0" encoding="utf-8"?>
<!-- Generator: Adobe Illustrator 25.2.0, SVG Export Plug-In . SVG Version: 6.00 Build 0)  -->
<svg version="1.1" id="Layer_1" xmlns="http://www.w3.org/2000/svg" xmlns:xlink="http://www.w3.org/1999/xlink" x="0px" y="0px"
	 width="97px" height="81.4px" viewBox="0 0 97 81.4" style="enable-background:new 0 0 97 81.4;" xml:space="preserve">
<style type="text/css">
	.st0{fill:none;stroke:#C2CCA6;stroke-linecap:square;stroke-miterlimit:10;}
	.st1{fill:#82BC00;}
	.st2{font-family:'MyriadPro-Regular';}
	.st3{font-size:12.8px;}
	.st4{fill:#84BD00;}
</style>
<g>
	<line class="st0" x1="0.5" y1="20.8" x2="96.5" y2="20.8"/>
	<line class="st0" x1="0.5" y1="25.1" x2="0.5" y2="17.4"/>
	<line class="st0" x1="96.5" y1="25.1" x2="96.5" y2="17.4"/>
	<text transform="matrix(1 0 0 1 28.6152 10.7134)" class="st1 st2 st3">1” min.</text>
	<g>
		<g>
			<path d="M59.8,48.5c1.9,0,3.6,0.7,5,2.2c1.4,1.5,2.1,3.3,2.1,5.4c0,2.2-0.7,4.1-2.1,5.6c-1.4,1.5-3.1,2.2-5.1,2.2
				c-2,0-3.7-0.7-5.1-2.1c-1.4-1.5-2.1-3.3-2.1-5.6c0-2.3,0.8-4.2,2.4-5.7C56.2,49.1,57.8,48.5,59.8,48.5z M59.6,49.3
				c-1.3,0-2.4,0.5-3.2,1.5c-1,1.2-1.5,3-1.5,5.3c0,2.4,0.5,4.2,1.5,5.5c0.8,1,1.8,1.5,3.1,1.5c1.4,0,2.5-0.5,3.4-1.6
				c0.9-1.1,1.3-2.8,1.3-5.1c0-2.5-0.5-4.4-1.5-5.6C62,49.8,61,49.3,59.6,49.3z"/>
			<path d="M77.2,63.5l-5.7-12.3V61c0,0.9,0.1,1.5,0.3,1.7c0.3,0.3,0.7,0.4,1.3,0.4h0.5v0.4h-5.1v-0.4H69c0.6,0,1.1-0.2,1.3-0.6
				c0.1-0.2,0.3-0.8,0.3-1.6v-9.6c0-0.7-0.1-1.1-0.2-1.4c-0.1-0.2-0.3-0.4-0.5-0.5c-0.3-0.1-0.7-0.2-1.3-0.2v-0.4h4.2L78,60.3
				l5.2-11.5h4.2v0.4h-0.5c-0.6,0-1.1,0.2-1.3,0.6c-0.1,0.2-0.3,0.8-0.3,1.6V61c0,0.9,0.1,1.5,0.3,1.7c0.3,0.3,0.7,0.4,1.3,0.4h0.5
				v0.4h-6.2v-0.4h0.5c0.6,0,1.1-0.2,1.3-0.6c0.1-0.2,0.3-0.8,0.3-1.6v-9.8l-5.7,12.3L77.2,63.5L77.2,63.5z"/>
			<g>
				<polygon points="16.4,43.8 18.6,49 23.8,52.2 17.7,38 17.1,38 13.7,45.8 15.1,46.7 				"/>
				<path d="M12.9,51.8l-1.3-1.1l-3.4,7.9c-0.8,1.8-1.5,3-2.1,3.6c-0.3,0.3-1,0.5-2,0.7v0.7H12v-0.7c-1.2-0.1-2-0.3-2.4-0.5
					c-0.4-0.3-0.5-0.6-0.5-1c0-0.5,0.2-1.2,0.6-2.2l1.7-3.9l0.6-1.4L12.9,51.8z"/>
			</g>
			<g>
				<path d="M48.8,62.7c-0.1-0.3-0.3-1-0.3-1.7v-9.5c0-0.9,0.1-1.5,0.3-1.7c0.3-0.4,0.7-0.5,1.3-0.5h0.5v-0.4h-6.3v0.4h0.5
					c0.4,0,0.7,0.1,1,0.3c0.2,0.1,0.4,0.3,0.4,0.5c0.1,0.3,0.1,0.7,0.1,1.5v9.5c0,0.4,0,0.7,0,1"/>
			</g>
			<g>
				<path class="st4" d="M0.5,34.6c8,12,19.1,19.9,30.7,25.2l1.9-2.2C10.3,47.4,0.5,34.6,0.5,34.6z"/>
				<path class="st4" d="M92.3,69.8c-23-0.8-44-5.6-57.6-11.4L33,60.6C60.1,72.3,92.3,69.8,92.3,69.8z"/>
			</g>
			<g>
				<path d="M2,41.1c0,0,6.4,12.6,26.5,21.9l1.6-1.9C19.5,56.6,9.5,50.2,2,41.1z"/>
				<path d="M96.5,72.5c0,0-36.6,1-64.6-10.6l-1.5,1.9C44,69.8,68.9,74.4,96.5,72.5z"/>
			</g>
			<g>
				<path d="M36.4,55.4l2.9-3.7c0.6-0.8,1.1-1.3,1.4-1.6c0.3-0.3,0.7-0.5,1.1-0.7c0.3-0.1,0.6-0.2,1-0.2v-0.4h-5.2v0.4
					c0.5,0,0.9,0,1,0.1c0.2,0.1,0.3,0.2,0.4,0.3c0.1,0.1,0.1,0.3,0.1,0.4c0,0.1,0,0.3-0.1,0.4c-0.1,0.1-0.3,0.4-0.5,0.8l-2.6,3.3
					l-2.3-3.4c-0.4-0.5-0.5-0.9-0.5-1.2c0-0.2,0.1-0.4,0.3-0.5c0.2-0.2,0.6-0.3,1.2-0.3v-0.4h-6.9v0.4c0.7,0,1.3,0.2,1.9,0.6
					s1.2,1.1,2,2.3l2.9,4.2l-5.9,7.3c-0.5,0.7-1,1.2-1.4,1.5c-0.4,0.3-0.8,0.6-1.3,0.8c-0.3,0.1-0.6,0.2-0.9,0.2v0.4h5.2V66
					c-0.5,0-0.9-0.1-1.1-0.3c-0.2-0.1-0.3-0.3-0.3-0.6c0-0.1,0-0.3,0.1-0.4s0.3-0.4,0.6-0.8l5.5-6.9l0.9,1.3
					c0.8,0.3,2.3,0.9,3.2,1.2L36.4,55.4z"/>
			</g>
		</g>
		<g>
			<path class="st4" d="M8.4,80.3v-2.3l-1.2,1.9H6.8L5.7,78v2.3H4.8v-3.9h0.7L7,78.8l1.4-2.4h0.7v3.9C9.2,80.3,8.4,80.3,8.4,80.3z"
				/>
			<path class="st4" d="M12.2,80.1c-0.3-0.1-0.4-0.3-0.6-0.5c-0.1-0.2-0.2-0.5-0.2-0.8s0.1-0.5,0.2-0.8c0.1-0.2,0.3-0.4,0.6-0.5
				s0.5-0.2,0.8-0.2s0.6,0.1,0.8,0.2s0.4,0.3,0.6,0.5c0.1,0.2,0.2,0.5,0.2,0.8s-0.1,0.5-0.2,0.8c-0.1,0.2-0.3,0.4-0.6,0.5
				c-0.3,0.1-0.5,0.2-0.8,0.2S12.5,80.2,12.2,80.1z M13.6,79.3c0.1-0.1,0.2-0.4,0.2-0.6c0-0.3-0.1-0.4-0.2-0.6s-0.3-0.2-0.5-0.2
				s-0.4,0.1-0.5,0.2c-0.1,0.1-0.2,0.4-0.2,0.6c0,0.3,0.1,0.4,0.2,0.6s0.3,0.2,0.5,0.2S13.5,79.5,13.6,79.3z"/>
			<path class="st4" d="M18.1,77.3c0.2-0.1,0.4-0.1,0.6-0.1V78c-0.1,0-0.1,0-0.2,0c-0.3,0-0.4,0.1-0.6,0.2s-0.2,0.4-0.2,0.6v1.4
				h-0.9v-3h0.8v0.4C17.8,77.5,17.9,77.4,18.1,77.3z"/>
			<path class="st4" d="M22.8,80.1c-0.1,0.1-0.2,0.1-0.3,0.1c-0.1,0-0.3,0-0.4,0c-0.4,0-0.6-0.1-0.8-0.3c-0.2-0.2-0.3-0.4-0.3-0.8
				V78h-0.5v-0.7h0.5v-0.7h0.9v0.7h0.7V78h-0.7v1.2c0,0.1,0,0.2,0.1,0.3c0.1,0.1,0.1,0.1,0.3,0.1s0.3,0,0.4-0.1L22.8,80.1z"/>
			<path class="st4" d="M27.8,77.2v2.5c0,0.5-0.1,0.9-0.4,1.2c-0.3,0.3-0.7,0.4-1.2,0.4c-0.3,0-0.5,0-0.8-0.1
				c-0.3-0.1-0.5-0.2-0.7-0.3l0.3-0.6c0.1,0.1,0.3,0.2,0.5,0.3c0.2,0.1,0.4,0.1,0.6,0.1c0.3,0,0.5-0.1,0.7-0.2
				c0.1-0.1,0.2-0.3,0.2-0.6v-0.1c-0.2,0.3-0.5,0.4-0.9,0.4c-0.3,0-0.5-0.1-0.8-0.2c-0.3-0.1-0.4-0.3-0.5-0.5
				c-0.1-0.2-0.2-0.5-0.2-0.8c0-0.3,0.1-0.5,0.2-0.8c0.1-0.2,0.3-0.4,0.5-0.5c0.2-0.1,0.5-0.2,0.8-0.2c0.4,0,0.8,0.1,1,0.4v-0.4
				H27.8z M26.7,79.2c0.1-0.1,0.2-0.3,0.2-0.5c0-0.2-0.1-0.4-0.2-0.5s-0.3-0.2-0.6-0.2s-0.4,0.1-0.6,0.2c-0.1,0.1-0.2,0.3-0.2,0.5
				c0,0.2,0.1,0.4,0.2,0.5c0.1,0.1,0.3,0.2,0.6,0.2S26.6,79.3,26.7,79.2z"/>
			<path class="st4" d="M32.4,77.5c0.3,0.2,0.4,0.5,0.4,1v1.7H32v-0.4c-0.1,0.3-0.5,0.4-0.9,0.4c-0.2,0-0.4,0-0.6-0.1
				c-0.2-0.1-0.3-0.2-0.4-0.3S30,79.5,30,79.3c0-0.3,0.1-0.5,0.3-0.7c0.2-0.1,0.5-0.3,1-0.3H32c0-0.2-0.1-0.3-0.2-0.4
				c-0.1-0.1-0.3-0.1-0.5-0.1c-0.1,0-0.3,0-0.5,0.1s-0.3,0.1-0.4,0.2l-0.3-0.6c0.1-0.1,0.4-0.2,0.6-0.3c0.2-0.1,0.5-0.1,0.7-0.1
				C31.9,77.2,32.2,77.3,32.4,77.5z M31.7,79.6c0.1-0.1,0.2-0.2,0.3-0.3V79h-0.6c-0.4,0-0.5,0.1-0.5,0.4c0,0.1,0,0.2,0.1,0.3
				c0.1,0.1,0.2,0.1,0.4,0.1C31.5,79.7,31.6,79.7,31.7,79.6z"/>
			<path class="st4" d="M38.3,77.2v2.5c0,0.5-0.1,0.9-0.4,1.2c-0.3,0.3-0.7,0.4-1.2,0.4c-0.3,0-0.5,0-0.8-0.1
				c-0.3-0.1-0.5-0.2-0.7-0.3l0.3-0.6c0.1,0.1,0.3,0.2,0.5,0.3c0.2,0.1,0.4,0.1,0.6,0.1c0.3,0,0.5-0.1,0.7-0.2s0.2-0.3,0.2-0.6v-0.1
				c-0.2,0.3-0.5,0.4-0.9,0.4c-0.3,0-0.5-0.1-0.8-0.2s-0.4-0.3-0.5-0.5c-0.1-0.2-0.2-0.5-0.2-0.8c0-0.3,0.1-0.5,0.2-0.8
				c0.1-0.2,0.3-0.4,0.5-0.5c0.2-0.1,0.5-0.2,0.8-0.2c0.4,0,0.8,0.1,1,0.4v-0.4H38.3z M37.2,79.2c0.1-0.1,0.2-0.3,0.2-0.5
				c0-0.2-0.1-0.4-0.2-0.5c-0.1-0.1-0.3-0.2-0.6-0.2S36.2,78,36,78.1s-0.2,0.3-0.2,0.5c0,0.2,0.1,0.4,0.2,0.5s0.3,0.2,0.6,0.2
				S37,79.3,37.2,79.2z"/>
			<path class="st4" d="M43.5,79h-2.3c0,0.2,0.1,0.3,0.3,0.4c0.1,0.1,0.3,0.1,0.6,0.1c0.1,0,0.3,0,0.4-0.1c0.1,0,0.2-0.1,0.3-0.2
				l0.5,0.5c-0.3,0.3-0.7,0.5-1.2,0.5c-0.3,0-0.6-0.1-0.9-0.2c-0.3-0.1-0.5-0.3-0.6-0.5c-0.1-0.2-0.2-0.5-0.2-0.8
				c0-0.3,0.1-0.5,0.2-0.8c0.1-0.3,0.3-0.4,0.6-0.5s0.5-0.2,0.8-0.2s0.5,0.1,0.8,0.2s0.4,0.3,0.5,0.5c0.1,0.3,0.2,0.5,0.2,0.8
				C43.6,78.8,43.5,78.8,43.5,79z M41.5,78c-0.1,0.1-0.2,0.3-0.3,0.5h1.5c0-0.2-0.1-0.3-0.3-0.4c-0.1-0.1-0.3-0.2-0.5-0.2
				C41.8,77.9,41.6,77.9,41.5,78z"/>
			<path class="st4" d="M51.8,80.2c-0.3-0.1-0.5-0.2-0.7-0.3l0.3-0.7c0.2,0.1,0.4,0.2,0.6,0.3c0.2,0.1,0.5,0.1,0.7,0.1
				c0.3,0,0.4,0,0.6-0.1c0.1-0.1,0.2-0.2,0.2-0.3s0-0.2-0.1-0.2c-0.1-0.1-0.2-0.1-0.3-0.1s-0.3-0.1-0.5-0.1
				c-0.3-0.1-0.5-0.1-0.7-0.2c-0.2-0.1-0.4-0.2-0.5-0.3c-0.1-0.1-0.2-0.4-0.2-0.6c0-0.2,0.1-0.4,0.2-0.6c0.1-0.2,0.3-0.3,0.5-0.4
				c0.3-0.1,0.5-0.1,0.9-0.1c0.3,0,0.5,0,0.7,0.1c0.2,0,0.4,0.1,0.6,0.3l-0.3,0.7c-0.4-0.2-0.7-0.3-1.1-0.3c-0.3,0-0.4,0-0.5,0.1
				S52,77.4,52,77.5c0,0.1,0.1,0.2,0.2,0.3c0.1,0.1,0.4,0.1,0.7,0.2c0.3,0.1,0.5,0.1,0.7,0.2c0.2,0.1,0.4,0.2,0.5,0.3
				c0.1,0.1,0.2,0.4,0.2,0.6c0,0.2-0.1,0.4-0.2,0.6c-0.1,0.2-0.3,0.3-0.5,0.4c-0.3,0.1-0.5,0.1-0.9,0.1
				C52.4,80.3,52.1,80.3,51.8,80.2z"/>
			<path class="st4" d="M57,80.1c-0.3-0.1-0.4-0.3-0.6-0.5c-0.1-0.2-0.2-0.5-0.2-0.8s0.1-0.5,0.2-0.8c0.1-0.2,0.3-0.4,0.6-0.5
				c0.3-0.1,0.5-0.2,0.8-0.2c0.3,0,0.6,0.1,0.8,0.2c0.3,0.1,0.4,0.3,0.6,0.5c0.1,0.2,0.2,0.5,0.2,0.8s-0.1,0.5-0.2,0.8
				c-0.1,0.2-0.3,0.4-0.6,0.5c-0.3,0.1-0.5,0.2-0.8,0.2C57.5,80.3,57.3,80.2,57,80.1z M58.4,79.3c0.1-0.1,0.2-0.4,0.2-0.6
				c0-0.3-0.1-0.4-0.2-0.6c-0.1-0.1-0.3-0.2-0.5-0.2c-0.2,0-0.4,0.1-0.5,0.2c-0.1,0.1-0.2,0.4-0.2,0.6c0,0.3,0.1,0.4,0.2,0.6
				c0.1,0.1,0.3,0.2,0.5,0.2C58.1,79.6,58.3,79.5,58.4,79.3z"/>
			<path class="st4" d="M61.6,76.1h0.9v4.1h-0.9V76.1z"/>
			<path class="st4" d="M67.9,77.2v3h-0.8v-0.4c-0.1,0.1-0.3,0.2-0.4,0.3c-0.1,0.1-0.3,0.1-0.5,0.1c-0.4,0-0.7-0.1-0.9-0.3
				c-0.2-0.2-0.3-0.5-0.3-1v-1.7h0.9v1.6c0,0.5,0.2,0.7,0.6,0.7c0.2,0,0.4-0.1,0.5-0.2c0.1-0.1,0.2-0.3,0.2-0.6v-1.5L67.9,77.2
				L67.9,77.2z"/>
			<path class="st4" d="M72.2,80.1c-0.1,0.1-0.2,0.1-0.3,0.1c-0.1,0-0.3,0-0.4,0c-0.4,0-0.6-0.1-0.8-0.3c-0.2-0.2-0.3-0.4-0.3-0.8
				V78h-0.5v-0.7h0.5v-0.7h0.9v0.7h0.7V78h-0.7v1.2c0,0.1,0,0.2,0.1,0.3c0.1,0.1,0.1,0.1,0.3,0.1s0.3,0,0.4-0.1L72.2,80.1z"/>
			<path class="st4" d="M74.2,76.7c-0.1-0.1-0.1-0.2-0.1-0.3s0-0.3,0.1-0.3c0.1-0.1,0.2-0.1,0.4-0.1s0.3,0,0.4,0.1
				c0.1,0.1,0.1,0.2,0.1,0.3c0,0.1,0,0.3-0.1,0.4c-0.1,0.1-0.2,0.1-0.4,0.1S74.4,76.8,74.2,76.7z M74.2,77.2h0.9v3h-0.9V77.2z"/>
			<path class="st4" d="M78,80.1c-0.3-0.1-0.4-0.3-0.6-0.5c-0.1-0.2-0.2-0.5-0.2-0.8s0.1-0.5,0.2-0.8c0.1-0.2,0.3-0.4,0.6-0.5
				c0.3-0.1,0.5-0.2,0.8-0.2c0.3,0,0.6,0.1,0.8,0.2c0.3,0.1,0.4,0.3,0.6,0.5c0.1,0.2,0.2,0.5,0.2,0.8s-0.1,0.5-0.2,0.8
				c-0.1,0.2-0.3,0.4-0.6,0.5c-0.3,0.1-0.5,0.2-0.8,0.2C78.5,80.3,78.2,80.2,78,80.1z M79.4,79.3c0.1-0.1,0.2-0.4,0.2-0.6
				c0-0.3-0.1-0.4-0.2-0.6c-0.1-0.1-0.3-0.2-0.5-0.2s-0.4,0.1-0.5,0.2c-0.1,0.1-0.2,0.4-0.2,0.6c0,0.3,0.1,0.4,0.2,0.6
				c0.1,0.1,0.3,0.2,0.5,0.2S79.3,79.5,79.4,79.3z"/>
			<path class="st4" d="M85.3,77.5c0.2,0.2,0.3,0.5,0.3,1v1.7h-0.9v-1.6c0-0.3,0-0.4-0.1-0.5c-0.1-0.1-0.3-0.2-0.4-0.2
				c-0.2,0-0.4,0.1-0.5,0.2c-0.1,0.1-0.2,0.3-0.2,0.6v1.5h-0.9v-3h0.8v0.4c0.1-0.1,0.3-0.2,0.4-0.3c0.2-0.1,0.4-0.1,0.5-0.1
				C84.8,77.2,85.1,77.3,85.3,77.5z"/>
			<path class="st4" d="M88.3,80.2C88,80.1,87.9,80,87.7,80l0.3-0.6c0.1,0.1,0.3,0.1,0.5,0.2c0.2,0,0.4,0.1,0.5,0.1
				c0.4,0,0.5-0.1,0.5-0.3c0-0.1,0-0.1-0.1-0.2c-0.1,0-0.3-0.1-0.5-0.1c-0.3,0-0.4-0.1-0.6-0.1c-0.1,0-0.3-0.1-0.4-0.3
				c-0.1-0.1-0.2-0.3-0.2-0.5c0-0.2,0.1-0.4,0.2-0.5s0.3-0.3,0.5-0.3c0.2-0.1,0.5-0.1,0.7-0.1c0.2,0,0.4,0,0.6,0.1
				c0.2,0,0.4,0.1,0.5,0.2L90,78.1c-0.3-0.1-0.5-0.2-0.9-0.2c-0.2,0-0.3,0-0.4,0.1s-0.1,0.1-0.1,0.2c0,0.1,0,0.1,0.1,0.2
				c0.1,0,0.3,0.1,0.5,0.1c0.3,0,0.4,0.1,0.6,0.1c0.1,0,0.3,0.1,0.4,0.3c0.1,0.1,0.2,0.3,0.2,0.5c0,0.2-0.1,0.4-0.2,0.5
				s-0.3,0.3-0.5,0.3c-0.2,0.1-0.5,0.1-0.8,0.1C88.8,80.3,88.5,80.3,88.3,80.2z"/>
		</g>
	</g>
</g>
</svg>
