<svg xmlns="http://www.w3.org/2000/svg" xmlns:xlink="http://www.w3.org/1999/xlink" width="177.69" height="101.39" viewBox="0 0 177.69 101.39"><defs><style>.cls-1{fill:none;}.cls-2{clip-path:url(#clip-path);}.cls-3{fill:#13100d;}.cls-4{fill:#fff;}.cls-5{fill:#88bc24;}.cls-6{fill:#83bb26;}</style><clipPath id="clip-path" transform="translate(0 -0.03)"><rect class="cls-1" width="177.69" height="101.32" rx="3.39"/></clipPath></defs><g id="Layer_2" data-name="Layer 2"><g id="Layer_1-2" data-name="Layer 1"><g class="cls-2"><rect class="cls-3" width="177.69" height="101.39"/><path class="cls-4" d="M100.31,41.7l-11-30.24H84.92L78,32l.32.24,3,2.22L85.3,22l6.09,17.15c2.25,1.2,7.48,2.16,8.92,2.51" transform="translate(0 -0.03)"/><path class="cls-4" d="M115.79,68.53a3.32,3.32,0,0,1-2.47-.37c-1.11-.74-2-2-3.34-4.82-.71-1.48-1.55-3.3-2.2-4.7,2.69.11,5.31,0,7.89-.12V53.08s-18.8,2.72-32.4-6.55A77.45,77.45,0,0,1,61.51,24.64c-.87-1.38,2.92,8.88,11.17,17.83l-7.4,20c-1,2.66-2.18,5.72-5.17,6.21v1.44c2.1,0,4.44-.48,6.69-.48s4.52.48,6.77.48V68.65c-2.42-.17-3.79-1.46-3.79-4.2,0-2.41,2.24-7.63,4-13.27h0L75,47.55h0l.8-2a41.7,41.7,0,0,0,4.63,3.67,51.74,51.74,0,0,0,19.72,8.54c.81,1.67,4,8.43,2.91,9.51a6.86,6.86,0,0,1-3.71,1.49c-.5.12-.13,1.23-.13,1.23s8.73-.52,9.16-.52c.69,0,7.53.52,7.53.52Z" transform="translate(0 -0.03)"/><path class="cls-5" d="M59.72,14.88C58.61,13.12,65,30.21,78.64,39.48s24.72,9.89,35.23,9.27V43.31S95.08,46,81.48,36.76A77.32,77.32,0,0,1,59.72,14.88" transform="translate(0 -0.03)"/><path class="cls-6" d="M50,79.43H48.2l-.35.84h-.93l1.76-3.93h.9l1.76,3.93h-1Zm-.29-.69-.62-1.51-.62,1.51Z" transform="translate(0 -0.03)"/><path class="cls-6" d="M53.58,80.27l-.67-.92-.68.92h-1l1.17-1.52-1.13-1.5h1l.64.88.66-.88h.93L53.4,78.73l1.17,1.54Z" transform="translate(0 -0.03)"/><path class="cls-6" d="M55.07,76.34a.5.5,0,0,1,.54-.49.49.49,0,0,1,.55.47.51.51,0,0,1-.55.51A.5.5,0,0,1,55.07,76.34Zm.1.91h.88v3h-.88Z" transform="translate(0 -0.03)"/><path class="cls-6" d="M56.81,78.76a1.67,1.67,0,1,1,1.67,1.56A1.56,1.56,0,0,1,56.81,78.76Zm2.44,0a.78.78,0,1,0-.77.84A.77.77,0,0,0,59.25,78.76Z" transform="translate(0 -0.03)"/><path class="cls-6" d="M66,78.54v1.73h-.88V78.68c0-.49-.22-.72-.58-.72s-.66.26-.66.8v1.51H63V78.68c0-.49-.21-.72-.58-.72s-.66.26-.66.8v1.51h-.88v-3h.84v.35a1.23,1.23,0,0,1,1-.4,1.16,1.16,0,0,1,1,.5,1.35,1.35,0,0,1,1.09-.5A1.18,1.18,0,0,1,66,78.54Z" transform="translate(0 -0.03)"/><path class="cls-6" d="M72.37,80.27V77.91l-1.16,2H70.8L69.65,78v2.31h-.86V76.34h.75L71,78.78l1.45-2.44h.75v3.93Z" transform="translate(0 -0.03)"/><path class="cls-6" d="M74.05,78.76a1.66,1.66,0,1,1,1.66,1.56A1.56,1.56,0,0,1,74.05,78.76Zm2.43,0a.77.77,0,1,0-.77.84A.77.77,0,0,0,76.48,78.76Z" transform="translate(0 -0.03)"/><path class="cls-6" d="M80,77.2V78h-.2a.75.75,0,0,0-.8.85v1.42h-.88v-3H79v.4A1.22,1.22,0,0,1,80,77.2Z" transform="translate(0 -0.03)"/><path class="cls-6" d="M82.76,80.13a1.23,1.23,0,0,1-.71.19,1,1,0,0,1-1.13-1.09V78h-.47v-.67h.47v-.74h.87v.74h.76V78h-.76v1.23a.36.36,0,0,0,.38.4.64.64,0,0,0,.36-.11Z" transform="translate(0 -0.03)"/><path class="cls-6" d="M86.45,77.25v2.52a1.48,1.48,0,0,1-1.69,1.64A2.46,2.46,0,0,1,83.27,81l.35-.62a1.87,1.87,0,0,0,1.07.34c.62,0,.89-.28.89-.83v-.13a1.27,1.27,0,0,1-1,.38,1.47,1.47,0,1,1,0-2.93,1.2,1.2,0,0,1,1,.44v-.39Zm-.86,1.42a.8.8,0,1,0-.8.74A.74.74,0,0,0,85.59,78.67Z" transform="translate(0 -0.03)"/><path class="cls-6" d="M90.12,78.55v1.72H89.3V79.9a1,1,0,0,1-.93.42c-.7,0-1.13-.39-1.13-.92s.38-.9,1.3-.9h.7c0-.38-.22-.6-.7-.6a1.48,1.48,0,0,0-.87.28l-.31-.61a2.29,2.29,0,0,1,1.3-.37C89.59,77.2,90.12,77.63,90.12,78.55Zm-.88.77V79h-.6c-.41,0-.54.15-.54.35s.19.37.49.37A.65.65,0,0,0,89.24,79.32Z" transform="translate(0 -0.03)"/><path class="cls-6" d="M94.24,77.25v2.52a1.48,1.48,0,0,1-1.7,1.64A2.5,2.5,0,0,1,91.05,81l.35-.62a1.89,1.89,0,0,0,1.07.34c.62,0,.89-.28.89-.83v-.13a1.25,1.25,0,0,1-1,.38,1.47,1.47,0,1,1,0-2.93,1.2,1.2,0,0,1,1,.44v-.39Zm-.87,1.42a.74.74,0,0,0-.79-.75.75.75,0,1,0,0,1.49A.73.73,0,0,0,93.37,78.67Z" transform="translate(0 -0.03)"/><path class="cls-6" d="M98.18,79h-2.3a.82.82,0,0,0,.87.61,1,1,0,0,0,.76-.3l.47.51a1.77,1.77,0,0,1-3-1.07,1.55,1.55,0,0,1,1.62-1.56,1.5,1.5,0,0,1,1.57,1.57C98.19,78.84,98.18,78.94,98.18,79Zm-2.31-.51h1.49a.71.71,0,0,0-.74-.63A.72.72,0,0,0,95.87,78.5Z" transform="translate(0 -0.03)"/><path class="cls-6" d="M100.46,79.89l.31-.69a2.33,2.33,0,0,0,1.3.41c.54,0,.76-.18.76-.42,0-.74-2.29-.23-2.29-1.69,0-.67.54-1.23,1.66-1.23a2.66,2.66,0,0,1,1.37.35l-.28.69A2.24,2.24,0,0,0,102.2,77c-.54,0-.75.2-.75.45,0,.73,2.29.23,2.29,1.67,0,.66-.55,1.22-1.67,1.22A2.82,2.82,0,0,1,100.46,79.89Z" transform="translate(0 -0.03)"/><path class="cls-6" d="M104.25,78.76a1.66,1.66,0,1,1,1.66,1.56A1.56,1.56,0,0,1,104.25,78.76Zm2.43,0a.78.78,0,1,0-.77.84A.77.77,0,0,0,106.68,78.76Z" transform="translate(0 -0.03)"/><path class="cls-6" d="M108.33,76.1h.87v4.17h-.87Z" transform="translate(0 -0.03)"/><path class="cls-6" d="M113.24,77.25v3h-.83v-.36a1.3,1.3,0,0,1-2.24-1V77.25h.88v1.58c0,.51.23.73.61.73s.7-.26.7-.82V77.25Z" transform="translate(0 -0.03)"/><path class="cls-6" d="M116.18,80.13a1.25,1.25,0,0,1-.72.19,1,1,0,0,1-1.13-1.09V78h-.46v-.67h.46v-.74h.88v.74H116V78h-.76v1.23a.35.35,0,0,0,.38.4.58.58,0,0,0,.35-.11Z" transform="translate(0 -0.03)"/><path class="cls-6" d="M116.74,76.34a.5.5,0,0,1,.54-.49.49.49,0,0,1,.55.47.51.51,0,0,1-.55.51A.5.5,0,0,1,116.74,76.34Zm.1.91h.88v3h-.88Z" transform="translate(0 -0.03)"/><path class="cls-6" d="M118.48,78.76a1.67,1.67,0,1,1,1.67,1.56A1.57,1.57,0,0,1,118.48,78.76Zm2.44,0a.78.78,0,1,0-.77.84A.77.77,0,0,0,120.92,78.76Z" transform="translate(0 -0.03)"/><path class="cls-6" d="M125.66,78.54v1.73h-.88V78.68c0-.49-.22-.72-.61-.72s-.73.26-.73.82v1.49h-.88v-3h.84v.35a1.32,1.32,0,0,1,1-.4A1.19,1.19,0,0,1,125.66,78.54Z" transform="translate(0 -0.03)"/><path class="cls-6" d="M126.33,80l.29-.63a2,2,0,0,0,1.06.3c.4,0,.55-.11.55-.28,0-.49-1.83,0-1.83-1.2,0-.57.52-1,1.4-1a2.5,2.5,0,0,1,1.17.27l-.29.62a1.74,1.74,0,0,0-.88-.22c-.39,0-.56.12-.56.28,0,.52,1.83,0,1.83,1.21,0,.56-.52,1-1.43,1A2.55,2.55,0,0,1,126.33,80Z" transform="translate(0 -0.03)"/></g></g></g></svg>