<svg xmlns="http://www.w3.org/2000/svg" xmlns:xlink="http://www.w3.org/1999/xlink" width="177.69" height="101.39" viewBox="0 0 177.69 101.39"><defs><style>.cls-1{fill:none;}.cls-2{clip-path:url(#clip-path);}.cls-3{fill:#fff;}.cls-4{fill:#221e20;}.cls-5{fill:#83bb26;}.cls-6{fill:#79b424;}</style><clipPath id="clip-path" transform="translate(0 0.03)"><rect class="cls-1" width="177.69" height="101.32" rx="3.39"/></clipPath></defs><g id="Layer_2" data-name="Layer 2"><g id="Layer_1-2" data-name="Layer 1"><g class="cls-2"><rect class="cls-3" width="177.69" height="101.39"/><path class="cls-4" d="M96.91,32.2l-7-19.43H87L82.56,26l.2.15,1.9,1.43,2.61-8,3.91,11a31.12,31.12,0,0,0,5.73,1.62" transform="translate(0 0.03)"/><path class="cls-4" d="M106.85,49.43a2.12,2.12,0,0,1-1.59-.24c-.71-.48-1.26-1.27-2.14-3.1-.45-1-1-2.12-1.41-3,1.72.07,3.41,0,5.06-.07V39.5S94.7,41.25,86,35.29a49.63,49.63,0,0,1-14-14c-.56-.89,1.87,5.7,7.18,11.45L74.41,45.52c-.62,1.7-1.4,3.67-3.32,4v.93c1.35,0,2.85-.31,4.3-.31s2.9.31,4.34.31V49.5a2.36,2.36,0,0,1-2.43-2.69c0-1.55,1.44-4.91,2.58-8.53h0L80.66,36h0l.52-1.27a26.53,26.53,0,0,0,3,2.36,33.34,33.34,0,0,0,12.67,5.48c.52,1.08,2.56,5.42,1.86,6.11a4.37,4.37,0,0,1-2.38,1c-.32.08-.08.79-.08.79s5.61-.34,5.89-.34c.43,0,4.83.34,4.83.34Z" transform="translate(0 0.03)"/><path class="cls-5" d="M70.84,15c-.71-1.13,3.42,9.84,12.15,15.8s15.88,6.35,22.63,5.95V33.23S93.55,35,84.82,29a49.48,49.48,0,0,1-14-14" transform="translate(0 0.03)"/><path class="cls-5" d="M32.49,65.33H29.78l-.52,1.25H27.88l2.6-5.83h1.33l2.61,5.83H33Zm-.43-1-.92-2.23-.93,2.23Z" transform="translate(0 0.03)"/><path class="cls-5" d="M37.74,66.58l-1-1.37-1,1.37H34.33l1.72-2.25L34.38,62.1h1.46l.95,1.31,1-1.31h1.38l-1.67,2.19,1.74,2.29Z" transform="translate(0 0.03)"/><path class="cls-5" d="M39.94,60.75a.74.74,0,0,1,.81-.72.73.73,0,0,1,.81.7.81.81,0,0,1-1.62,0Zm.16,1.35h1.3v4.48H40.1Z" transform="translate(0 0.03)"/><path class="cls-5" d="M42.53,64.34A2.46,2.46,0,1,1,45,66.65,2.31,2.31,0,0,1,42.53,64.34Zm3.61,0A1.15,1.15,0,1,0,45,65.58,1.13,1.13,0,0,0,46.14,64.34Z" transform="translate(0 0.03)"/><path class="cls-5" d="M56.15,64v2.56h-1.3V64.22c0-.73-.33-1.06-.85-1.06s-1,.37-1,1.17v2.25H51.71V64.22c0-.73-.31-1.06-.85-1.06s-1,.37-1,1.17v2.25h-1.3V62.1h1.24v.52A1.85,1.85,0,0,1,51.22,62a1.69,1.69,0,0,1,1.48.74A2,2,0,0,1,54.31,62,1.74,1.74,0,0,1,56.15,64Z" transform="translate(0 0.03)"/><path class="cls-5" d="M65.58,66.58v-3.5L63.85,66h-.61l-1.7-2.81v3.42H60.27V60.75h1.11l2.19,3.63,2.15-3.63h1.11v5.83Z" transform="translate(0 0.03)"/><path class="cls-5" d="M68.05,64.34a2.47,2.47,0,1,1,2.47,2.31A2.31,2.31,0,0,1,68.05,64.34Zm3.61,0a1.15,1.15,0,1,0-1.14,1.24A1.13,1.13,0,0,0,71.66,64.34Z" transform="translate(0 0.03)"/><path class="cls-5" d="M76.88,62v1.21l-.29,0a1.1,1.1,0,0,0-1.19,1.25v2.11H74.1V62.1h1.24v.59A1.82,1.82,0,0,1,76.88,62Z" transform="translate(0 0.03)"/><path class="cls-5" d="M81,66.37a1.88,1.88,0,0,1-1.06.28A1.48,1.48,0,0,1,78.22,65V63.2h-.69v-1h.69V61.11h1.3V62.2h1.12v1H79.52V65a.52.52,0,0,0,.56.59.88.88,0,0,0,.53-.17Z" transform="translate(0 0.03)"/><path class="cls-5" d="M86.43,62.1v3.73a2.2,2.2,0,0,1-2.52,2.44,3.69,3.69,0,0,1-2.2-.62l.52-.93a2.66,2.66,0,0,0,1.58.51c.92,0,1.32-.42,1.32-1.23v-.19a1.89,1.89,0,0,1-1.42.56,2.17,2.17,0,1,1,0-4.34,1.78,1.78,0,0,1,1.48.65V62.1Zm-1.29,2.1A1.18,1.18,0,1,0,84,65.3,1.09,1.09,0,0,0,85.14,64.2Z" transform="translate(0 0.03)"/><path class="cls-5" d="M91.85,64v2.55H90.64V66a1.5,1.5,0,0,1-1.37.62c-1,0-1.67-.58-1.67-1.36S88.15,64,89.52,64h1c0-.56-.33-.88-1-.88a2.12,2.12,0,0,0-1.29.42l-.47-.91A3.46,3.46,0,0,1,89.7,62C91.06,62,91.85,62.67,91.85,64Zm-1.3,1.14v-.46h-.89c-.61,0-.8.22-.8.52s.28.55.73.55A1,1,0,0,0,90.55,65.17Z" transform="translate(0 0.03)"/><path class="cls-5" d="M98,62.1v3.73a2.2,2.2,0,0,1-2.51,2.44,3.67,3.67,0,0,1-2.2-.62l.51-.93a2.69,2.69,0,0,0,1.59.51c.91,0,1.31-.42,1.31-1.23v-.19a1.85,1.85,0,0,1-1.41.56,2.17,2.17,0,1,1,0-4.34,1.78,1.78,0,0,1,1.48.65V62.1Zm-1.28,2.1a1.09,1.09,0,0,0-1.17-1.1,1.1,1.1,0,1,0,0,2.2A1.09,1.09,0,0,0,96.67,64.2Z" transform="translate(0 0.03)"/><path class="cls-5" d="M103.78,64.71h-3.39a1.2,1.2,0,0,0,1.28.9,1.53,1.53,0,0,0,1.13-.43l.69.75a2.36,2.36,0,0,1-1.85.72,2.33,2.33,0,0,1-2.56-2.31A2.29,2.29,0,0,1,101.47,62a2.23,2.23,0,0,1,2.34,2.33C103.81,64.46,103.79,64.6,103.78,64.71ZM100.37,64h2.21a1.05,1.05,0,0,0-1.1-.93A1.07,1.07,0,0,0,100.37,64Z" transform="translate(0 0.03)"/><path class="cls-5" d="M107.17,66l.46-1a3.4,3.4,0,0,0,1.92.61c.8,0,1.13-.27,1.13-.62,0-1.1-3.39-.35-3.39-2.51,0-1,.8-1.82,2.45-1.82a3.93,3.93,0,0,1,2,.52l-.42,1a3.36,3.36,0,0,0-1.61-.45c-.8,0-1.11.29-1.11.66,0,1.08,3.39.34,3.39,2.48,0,1-.81,1.8-2.48,1.8A4.16,4.16,0,0,1,107.17,66Z" transform="translate(0 0.03)"/><path class="cls-5" d="M112.77,64.34a2.47,2.47,0,1,1,2.47,2.31A2.31,2.31,0,0,1,112.77,64.34Zm3.61,0a1.15,1.15,0,1,0-1.14,1.24A1.13,1.13,0,0,0,116.38,64.34Z" transform="translate(0 0.03)"/><path class="cls-5" d="M118.81,60.4h1.3v6.18h-1.3Z" transform="translate(0 0.03)"/><path class="cls-5" d="M126.09,62.1v4.48h-1.23v-.53a1.81,1.81,0,0,1-1.39.6,1.79,1.79,0,0,1-1.92-2V62.1h1.3v2.34c0,.75.33,1.09.91,1.09s1-.39,1-1.21V62.1Z" transform="translate(0 0.03)"/><path class="cls-5" d="M130.44,66.37a1.84,1.84,0,0,1-1.06.28A1.48,1.48,0,0,1,127.71,65V63.2H127v-1h.69V61.11H129V62.2h1.12v1H129V65a.52.52,0,0,0,.56.59.85.85,0,0,0,.52-.17Z" transform="translate(0 0.03)"/><path class="cls-5" d="M131.27,60.75a.82.82,0,0,1,1.62,0,.75.75,0,0,1-.81.75A.74.74,0,0,1,131.27,60.75Zm.16,1.35h1.3v4.48h-1.3Z" transform="translate(0 0.03)"/><path class="cls-5" d="M133.85,64.34a2.47,2.47,0,1,1,2.47,2.31A2.31,2.31,0,0,1,133.85,64.34Zm3.61,0a1.15,1.15,0,1,0-1.14,1.24A1.13,1.13,0,0,0,137.46,64.34Z" transform="translate(0 0.03)"/><path class="cls-5" d="M144.48,64v2.56h-1.3V64.22c0-.73-.33-1.06-.91-1.06s-1.07.38-1.07,1.21v2.21h-1.3V62.1h1.24v.53a1.93,1.93,0,0,1,1.48-.6A1.76,1.76,0,0,1,144.48,64Z" transform="translate(0 0.03)"/><path class="cls-5" d="M145.48,66.17l.43-.94a3.06,3.06,0,0,0,1.56.44c.6,0,.82-.16.82-.41,0-.73-2.71,0-2.71-1.77,0-.86.77-1.46,2.08-1.46a3.67,3.67,0,0,1,1.72.4l-.43.92a2.56,2.56,0,0,0-1.29-.33c-.58,0-.83.18-.83.41,0,.77,2.7,0,2.7,1.8,0,.83-.77,1.42-2.11,1.42A3.87,3.87,0,0,1,145.48,66.17Z" transform="translate(0 0.03)"/><rect y="78.72" width="177.69" height="22.66"/><rect class="cls-6" y="75.59" width="177.69" height="1.58"/></g></g></g></svg>