<svg xmlns="http://www.w3.org/2000/svg" xmlns:xlink="http://www.w3.org/1999/xlink" width="177.69" height="101.39" viewBox="0 0 177.69 101.39"><defs><style>.cls-1{fill:none;}.cls-2{clip-path:url(#clip-path);}.cls-3{fill:#88bc24;}.cls-3,.cls-5{fill-rule:evenodd;}.cls-4{fill:#415A71;}.cls-5{fill:#13100d;}</style><clipPath id="clip-path" transform="translate(0 0.03)"><rect class="cls-1" width="177.69" height="101.32" rx="3.39"/></clipPath></defs><g id="Layer_2" data-name="Layer 2"><g id="Layer_1-2" data-name="Layer 1"><g class="cls-2"><path class="cls-3" d="M6,6.61C23.61,51.44,117.57,80,171.21,81.94,116.5,82.76,21.45,53.24,6,6.61" transform="translate(0 0.03)"/><path d="M100.87,36.24a3.67,3.67,0,0,1,2.73,1.2,4.16,4.16,0,0,1,1.15,3,4.26,4.26,0,0,1-1.15,3,3.88,3.88,0,0,1-5.59,0,4.28,4.28,0,0,1-1.13-3.06,4,4,0,0,1,1.31-3.12A3.68,3.68,0,0,1,100.87,36.24Zm-.1.44a2.09,2.09,0,0,0-1.72.8,4.48,4.48,0,0,0-.82,2.92,4.74,4.74,0,0,0,.84,3,2.09,2.09,0,0,0,1.7.81,2.37,2.37,0,0,0,1.87-.87,4.26,4.26,0,0,0,.74-2.78,4.86,4.86,0,0,0-.82-3.08A2.12,2.12,0,0,0,100.77,36.68Z" transform="translate(0 0.03)"/><path d="M110.41,44.47l-3.1-6.76v5.37a1.76,1.76,0,0,0,.16.93.9.9,0,0,0,.7.24h.27v.22h-2.8v-.22h.28a.78.78,0,0,0,.72-.32,1.83,1.83,0,0,0,.14-.87V37.81a1.84,1.84,0,0,0-.12-.77.59.59,0,0,0-.3-.28,1.55,1.55,0,0,0-.72-.12v-.22h2.29l2.92,6.3,2.86-6.3H116v.22h-.28A.82.82,0,0,0,115,37a1.86,1.86,0,0,0-.14.87v5.25A1.76,1.76,0,0,0,115,44a.9.9,0,0,0,.7.24H116v.22h-3.42v-.22h.28a.77.77,0,0,0,.71-.32,1.83,1.83,0,0,0,.14-.87V37.69l-3.1,6.76h-.18Z" transform="translate(0 0.03)"/><polygon points="77.13 33.71 78.34 36.57 81.18 38.32 77.86 30.51 77.5 30.51 75.64 34.78 76.41 35.3 77.13 33.71"/><path d="M75.2,38l-.7-.61-1.86,4.31a6.22,6.22,0,0,1-1.16,2,2.47,2.47,0,0,1-1.11.39v.38h4.35v-.38a2.74,2.74,0,0,1-1.29-.3.66.66,0,0,1-.3-.55,3.6,3.6,0,0,1,.34-1.19l.93-2.15.32-.76Z" transform="translate(0 0.03)"/><path d="M94.89,44a3,3,0,0,1-.14-1V37.85a1.76,1.76,0,0,1,.14-.91.87.87,0,0,1,.72-.3h.3v-.22H92.47v.22h.28a1,1,0,0,1,.53.14.59.59,0,0,1,.24.26,2.43,2.43,0,0,1,.08.81V43a4.7,4.7,0,0,1,0,.56" transform="translate(0 0.03)"/><path class="cls-4" d="M68.42,28.61A39.6,39.6,0,0,0,85.21,42.42l1-1.19C73.77,35.65,68.42,28.61,68.42,28.61Z" transform="translate(0 0.03)"/><path class="cls-4" d="M118.7,47.89c-12.62-.46-24.09-3-31.52-6.24l-1,1.21C101,49.28,118.7,47.89,118.7,47.89Z" transform="translate(0 0.03)"/><path d="M69.24,32.21s3.52,6.91,14.5,12l.86-1A40.56,40.56,0,0,1,69.24,32.21Z" transform="translate(0 0.03)"/><path d="M121,49.4S101,50,85.59,43.62l-.83,1C92.25,47.91,105.88,50.41,121,49.4Z" transform="translate(0 0.03)"/><path d="M88.1,40,89.69,38a5.56,5.56,0,0,1,.75-.85,1.85,1.85,0,0,1,.6-.36,1.39,1.39,0,0,1,.55-.1v-.22H88.75v.22a1.63,1.63,0,0,1,.56.06.49.49,0,0,1,.22.18.42.42,0,0,1,.08.22.53.53,0,0,1-.06.24,4.66,4.66,0,0,1-.3.43L87.82,39.6l-1.23-1.85a1.19,1.19,0,0,1-.28-.63.35.35,0,0,1,.18-.3,1.17,1.17,0,0,1,.65-.16v-.22H83.39v.22a2,2,0,0,1,1,.32,4.84,4.84,0,0,1,1.09,1.23l1.59,2.33-3.24,4a3.61,3.61,0,0,1-.75.79,2.83,2.83,0,0,1-.7.42,1.74,1.74,0,0,1-.51.12v.22h2.84v-.22a1.34,1.34,0,0,1-.62-.14.34.34,0,0,1-.16-.32.49.49,0,0,1,.06-.23,2.8,2.8,0,0,1,.32-.46l3-3.78.48.72c.44.16,1.25.52,1.77.67Z" transform="translate(0 0.03)"/><path class="cls-4" d="M72.74,53.63V52.36l-.64,1h-.22l-.61-1v1.25h-.46V51.5h.4L72,52.84l.78-1.34h.39v2.13Z" transform="translate(0 0.03)"/><path class="cls-4" d="M74.84,53.53a.93.93,0,0,1-.32-.3.77.77,0,0,1-.12-.43.86.86,0,0,1,.12-.44.93.93,0,0,1,.32-.3.91.91,0,0,1,.46-.1,1.19,1.19,0,0,1,.46.1.75.75,0,0,1,.31.3.81.81,0,0,1,.12.44.82.82,0,0,1-.12.43.89.89,0,0,1-.31.3,1.11,1.11,0,0,1-.92,0Zm.76-.4a.45.45,0,0,0,.12-.33.5.5,0,0,0-.12-.34.34.34,0,0,0-.3-.12.41.41,0,0,0-.3.12.47.47,0,0,0-.12.34.48.48,0,0,0,.12.33.34.34,0,0,0,.3.12A.38.38,0,0,0,75.6,53.13Z" transform="translate(0 0.03)"/><path class="cls-4" d="M78.06,52A.86.86,0,0,1,78.4,52v.44h-.1a.42.42,0,0,0-.32.12.47.47,0,0,0-.12.34v.77h-.49V52h.45v.22A.47.47,0,0,1,78.06,52Z" transform="translate(0 0.03)"/><path class="cls-4" d="M80.62,53.55a.34.34,0,0,1-.17.08.75.75,0,0,1-.22,0,.67.67,0,0,1-.46-.14.52.52,0,0,1-.16-.44V52.4h-.26V52h.26v-.4h.48V52h.4v.36h-.4v.65a.23.23,0,0,0,.06.16.2.2,0,0,0,.16.06.34.34,0,0,0,.2-.06Z" transform="translate(0 0.03)"/><path class="cls-4" d="M83.39,52v1.37a.91.91,0,0,1-.24.68,1,1,0,0,1-.68.22,1.68,1.68,0,0,1-.45-.06,1.21,1.21,0,0,1-.36-.16l.18-.34a.8.8,0,0,0,.26.14.81.81,0,0,0,.31.06.49.49,0,0,0,.36-.12.44.44,0,0,0,.12-.34v-.08a.65.65,0,0,1-.52.2,1,1,0,0,1-.41-.1.68.68,0,0,1-.3-.28.71.71,0,0,1-.12-.41.74.74,0,0,1,.12-.42.8.8,0,0,1,.3-.28.89.89,0,0,1,.41-.1.63.63,0,0,1,.54.24V52Zm-.6,1.07a.37.37,0,0,0,.12-.29.41.41,0,0,0-.12-.3.49.49,0,0,0-.64,0,.44.44,0,0,0-.11.3.4.4,0,0,0,.11.29.42.42,0,0,0,.32.12A.52.52,0,0,0,82.79,53.05Z" transform="translate(0 0.03)"/><path class="cls-4" d="M85.91,52.14a.67.67,0,0,1,.2.54v.93h-.44v-.2a.5.5,0,0,1-.49.22.76.76,0,0,1-.32-.06.49.49,0,0,1-.22-.18.44.44,0,0,1,.1-.61,1,1,0,0,1,.53-.14h.38a.33.33,0,0,0-.1-.24.39.39,0,0,0-.28-.08,1.18,1.18,0,0,0-.25,0,.48.48,0,0,0-.22.12l-.18-.34a.78.78,0,0,1,.32-.14,1.24,1.24,0,0,1,.37-.06A.93.93,0,0,1,85.91,52.14Zm-.4,1.13a.54.54,0,0,0,.14-.16V53h-.32c-.19,0-.29,0-.29.19a.15.15,0,0,0,.08.14.31.31,0,0,0,.19.06A.84.84,0,0,0,85.51,53.27Z" transform="translate(0 0.03)"/><path class="cls-4" d="M89.11,52v1.37a.91.91,0,0,1-.24.68,1,1,0,0,1-.67.22,1.82,1.82,0,0,1-.46-.06,1.21,1.21,0,0,1-.36-.16l.18-.34a.8.8,0,0,0,.26.14.91.91,0,0,0,.32.06.48.48,0,0,0,.35-.12.44.44,0,0,0,.12-.34v-.08a.64.64,0,0,1-.51.2,1,1,0,0,1-.42-.1.68.68,0,0,1-.3-.28.71.71,0,0,1-.12-.41.74.74,0,0,1,.12-.42.8.8,0,0,1,.3-.28.93.93,0,0,1,.42-.1.63.63,0,0,1,.53.24V52Zm-.6,1.07a.37.37,0,0,0,.12-.29.41.41,0,0,0-.12-.3.41.41,0,0,0-.31-.12.42.42,0,0,0-.32.12.41.41,0,0,0-.12.3.37.37,0,0,0,.12.29.42.42,0,0,0,.32.12A.51.51,0,0,0,88.51,53.05Z" transform="translate(0 0.03)"/><path class="cls-4" d="M92,52.94H90.76a.41.41,0,0,0,.16.23.51.51,0,0,0,.32.08.65.65,0,0,0,.21,0,.47.47,0,0,0,.18-.12l.26.28a.84.84,0,0,1-.67.26,1.39,1.39,0,0,1-.5-.1,1,1,0,0,1-.34-.3.77.77,0,0,1-.12-.43.86.86,0,0,1,.12-.44.66.66,0,0,1,.32-.3,1.09,1.09,0,0,1,.44-.1,1,1,0,0,1,.43.1.55.55,0,0,1,.3.3,1.12,1.12,0,0,1,.12.46S92,52.86,92,52.94Zm-1.11-.52a.37.37,0,0,0-.14.26h.81a.42.42,0,0,0-.39-.34A.34.34,0,0,0,90.88,52.42Z" transform="translate(0 0.03)"/><path class="cls-4" d="M96.52,53.59a1,1,0,0,1-.38-.18L96.3,53a1.59,1.59,0,0,0,.32.16,1.26,1.26,0,0,0,.38.06.7.7,0,0,0,.32-.06.2.2,0,0,0,.1-.16.11.11,0,0,0-.06-.11.4.4,0,0,0-.16-.08l-.26-.06a3.34,3.34,0,0,1-.4-.12.61.61,0,0,1-.26-.18.47.47,0,0,1-.12-.34.67.67,0,0,1,.1-.34.62.62,0,0,1,.3-.24,1.25,1.25,0,0,1,.5-.08,2.46,2.46,0,0,1,.4,0,1.06,1.06,0,0,1,.33.14l-.16.38a1.07,1.07,0,0,0-.59-.16.56.56,0,0,0-.3.06.21.21,0,0,0-.1.18c0,.08,0,.12.12.16a1.13,1.13,0,0,0,.36.1l.4.12a.64.64,0,0,1,.25.18.46.46,0,0,1,.12.33.67.67,0,0,1-.1.34.76.76,0,0,1-.29.24,1.25,1.25,0,0,1-.5.08A2,2,0,0,1,96.52,53.59Z" transform="translate(0 0.03)"/><path class="cls-4" d="M99.38,53.53a.81.81,0,0,1-.31-.3A.77.77,0,0,1,99,52.8a.86.86,0,0,1,.12-.44.81.81,0,0,1,.31-.3.91.91,0,0,1,.46-.1,1.11,1.11,0,0,1,.46.1.93.93,0,0,1,.32.3.9.9,0,0,1,.11.44.92.92,0,0,1-.11.43.93.93,0,0,1-.32.3.91.91,0,0,1-.46.1A.69.69,0,0,1,99.38,53.53Zm.76-.4a.45.45,0,0,0,.12-.33.5.5,0,0,0-.12-.34.43.43,0,0,0-.6,0,.47.47,0,0,0-.12.34.48.48,0,0,0,.12.33.44.44,0,0,0,.6,0Z" transform="translate(0 0.03)"/><path class="cls-4" d="M101.91,51.37h.47v2.24h-.47Z" transform="translate(0 0.03)"/><path class="cls-4" d="M105.32,52v1.63h-.45v-.2a.57.57,0,0,1-.22.16.64.64,0,0,1-.28.06.75.75,0,0,1-.52-.18.79.79,0,0,1-.17-.55V52h.47v.86c0,.25.12.39.34.39a.36.36,0,0,0,.28-.12.5.5,0,0,0,.1-.33V52h.45Z" transform="translate(0 0.03)"/><path class="cls-4" d="M107.67,53.55a.38.38,0,0,1-.18.08.75.75,0,0,1-.22,0,.62.62,0,0,1-.45-.14.59.59,0,0,1-.16-.44V52.4h-.26V52h.26v-.4h.47V52h.4v.36h-.4v.65a.23.23,0,0,0,.06.16.2.2,0,0,0,.16.06.34.34,0,0,0,.2-.06Z" transform="translate(0 0.03)"/><path class="cls-4" d="M108.8,51.68a.24.24,0,0,1-.08-.18.21.21,0,0,1,.08-.17.36.36,0,0,1,.22-.08.27.27,0,0,1,.22.08.21.21,0,0,1,.08.17.26.26,0,0,1-.08.2.27.27,0,0,1-.22.08A.29.29,0,0,1,108.8,51.68Zm0,.3h.48v1.63h-.48Z" transform="translate(0 0.03)"/><path class="cls-4" d="M110.87,53.53a.93.93,0,0,1-.32-.3.77.77,0,0,1-.12-.43.86.86,0,0,1,.12-.44.93.93,0,0,1,.32-.3.91.91,0,0,1,.46-.1,1.1,1.1,0,0,1,.45.1.93.93,0,0,1,.32.3.81.81,0,0,1,.12.44.82.82,0,0,1-.12.43.93.93,0,0,1-.32.3.9.9,0,0,1-.45.1A.69.69,0,0,1,110.87,53.53Zm.75-.4a.45.45,0,0,0,.12-.33.5.5,0,0,0-.12-.34.38.38,0,0,0-.29-.12.41.41,0,0,0-.3.12.47.47,0,0,0-.12.34.48.48,0,0,0,.12.33.41.41,0,0,0,.3.12A.38.38,0,0,0,111.62,53.13Z" transform="translate(0 0.03)"/><path class="cls-4" d="M114.86,52.14a.73.73,0,0,1,.18.54v.93h-.47v-.85a.45.45,0,0,0-.08-.3.33.33,0,0,0-.24-.1.34.34,0,0,0-.28.12.44.44,0,0,0-.1.34v.81h-.48V52h.46v.2a.72.72,0,0,1,.24-.16.8.8,0,0,1,.3-.06A.56.56,0,0,1,114.86,52.14Z" transform="translate(0 0.03)"/><path class="cls-4" d="M116.49,53.59a1.82,1.82,0,0,1-.32-.12l.16-.34.26.12a1.54,1.54,0,0,0,.3,0c.2,0,.3,0,.3-.14a.1.1,0,0,0-.08-.1,1.08,1.08,0,0,0-.26,0,1.42,1.42,0,0,1-.34-.08.52.52,0,0,1-.22-.14.4.4,0,0,1-.1-.28.48.48,0,0,1,.1-.28.51.51,0,0,1,.26-.18A1.29,1.29,0,0,1,117,52a1.76,1.76,0,0,1,.34,0,.75.75,0,0,1,.28.1l-.16.34a1,1,0,0,0-.48-.12.54.54,0,0,0-.22,0,.14.14,0,0,0-.08.12c0,.06,0,.08.08.1l.26.06a1.42,1.42,0,0,1,.34.08.52.52,0,0,1,.22.14.37.37,0,0,1,.1.27.48.48,0,0,1-.1.28.61.61,0,0,1-.26.18,1.33,1.33,0,0,1-.42.06A3,3,0,0,1,116.49,53.59Z" transform="translate(0 0.03)"/><path class="cls-5" d="M0,101.36H177.69v-17C100,82.88,12.93,49.67,1.05,0H0Z" transform="translate(0 0.03)"/></g></g></g></svg>