<svg xmlns="http://www.w3.org/2000/svg" xmlns:xlink="http://www.w3.org/1999/xlink" width="177.69" height="101.39" viewBox="0 0 177.69 101.39"><defs><style>.cls-1{fill:none;}.cls-2{clip-path:url(#clip-path);}.cls-3{fill:#fff;}.cls-4{fill:#88bc24;}.cls-4,.cls-6{fill-rule:evenodd;}.cls-5{fill:#415A71;}.cls-6{fill:#13100d;}</style><clipPath id="clip-path" transform="translate(0 0)"><rect class="cls-1" width="177.69" height="101.32" rx="3.39"/></clipPath></defs><g id="Layer_2" data-name="Layer 2"><g id="Layer_1-2" data-name="Layer 1"><g class="cls-2"><rect class="cls-3" width="177.69" height="101.39"/><path class="cls-4" d="M6,6.61C23.61,51.44,117.57,80,171.21,81.94,116.5,82.76,21.45,53.24,6,6.61" transform="translate(0 0)"/><path d="M137.94,33.06a5.24,5.24,0,0,1,3.9,1.71A5.93,5.93,0,0,1,143.5,39a6.08,6.08,0,0,1-1.66,4.36,5.53,5.53,0,0,1-8,.06A6.12,6.12,0,0,1,132.22,39a5.8,5.8,0,0,1,1.88-4.47A5.29,5.29,0,0,1,137.94,33.06Zm-.14.63a3,3,0,0,0-2.48,1.14A6.47,6.47,0,0,0,134.16,39a6.81,6.81,0,0,0,1.19,4.33,3,3,0,0,0,2.45,1.17,3.39,3.39,0,0,0,2.68-1.26,6.11,6.11,0,0,0,1.05-4,7,7,0,0,0-1.17-4.42A3.06,3.06,0,0,0,137.8,33.69Z" transform="translate(0 0)"/><path d="M151.61,44.85l-4.44-9.68v7.69a2.46,2.46,0,0,0,.23,1.33,1.27,1.27,0,0,0,1,.35h.4v.31h-4v-.31h.4a1.12,1.12,0,0,0,1-.46,2.72,2.72,0,0,0,.2-1.25V35.31a2.73,2.73,0,0,0-.17-1.11.89.89,0,0,0-.43-.4,2.26,2.26,0,0,0-1-.17v-.31h3.27l4.19,9,4.1-9h3.27v.31h-.4a1.15,1.15,0,0,0-1.05.46,2.69,2.69,0,0,0-.2,1.25v7.52a2.56,2.56,0,0,0,.23,1.33,1.27,1.27,0,0,0,1,.35h.4v.31h-4.89v-.31h.39a1.12,1.12,0,0,0,1-.46,2.72,2.72,0,0,0,.2-1.25V35.14l-4.44,9.68h-.26Z" transform="translate(0 0)"/><polygon points="103.92 29.39 105.65 33.49 109.73 35.99 104.97 24.8 104.46 24.8 101.78 30.93 102.89 31.67 103.92 29.39"/><path d="M101.16,35.62l-1-.88-2.68,6.18a8.83,8.83,0,0,1-1.65,2.82,3.36,3.36,0,0,1-1.59.57v.54h6.23v-.54a4,4,0,0,1-1.85-.43,1,1,0,0,1-.43-.8,5.32,5.32,0,0,1,.49-1.7L100,38.3l.45-1.08Z" transform="translate(0 0)"/><path d="M129.37,44.17a4.49,4.49,0,0,1-.2-1.37V35.37a2.54,2.54,0,0,1,.2-1.31,1.23,1.23,0,0,1,1-.43h.42v-.31H125.9v.31h.4a1.45,1.45,0,0,1,.77.2.85.85,0,0,1,.34.37,3.71,3.71,0,0,1,.11,1.17V42.8a6.45,6.45,0,0,1,0,.8" transform="translate(0 0)"/><path class="cls-5" d="M91.45,22.13c6.29,9.39,15,15.63,24.06,19.79L117,40.21C99.11,32.21,91.45,22.13,91.45,22.13Z" transform="translate(0 0)"/><path class="cls-5" d="M163.48,49.75c-18.08-.66-34.51-4.36-45.16-8.94l-1.39,1.73C138.17,51.74,163.48,49.75,163.48,49.75Z" transform="translate(0 0)"/><path d="M92.61,27.28s5,9.91,20.79,17.2L114.62,43C106.34,39.44,98.51,34.4,92.61,27.28Z" transform="translate(0 0)"/><path d="M166.76,51.91s-28.7.8-50.71-8.29l-1.2,1.49C125.59,49.77,145.12,53.36,166.76,51.91Z" transform="translate(0 0)"/><path d="M119.63,38.47l2.28-2.93A10,10,0,0,1,123,34.31a3,3,0,0,1,.86-.51,2.09,2.09,0,0,1,.8-.14v-.31h-4.08v.31a2.57,2.57,0,0,1,.8.08.72.72,0,0,1,.31.26.59.59,0,0,1,.12.31.76.76,0,0,1-.09.35,6.1,6.1,0,0,1-.42.62l-2.05,2.59-1.77-2.65a1.78,1.78,0,0,1-.4-.91.49.49,0,0,1,.26-.42,1.66,1.66,0,0,1,.94-.23v-.31h-5.38v.31a2.9,2.9,0,0,1,1.48.45,7.52,7.52,0,0,1,1.56,1.77l2.28,3.33-4.64,5.7A5.94,5.94,0,0,1,112.49,46a4,4,0,0,1-1,.6,2.18,2.18,0,0,1-.74.17v.32h4.07v-.32a1.75,1.75,0,0,1-.88-.2.48.48,0,0,1-.23-.45.69.69,0,0,1,.09-.34,3.78,3.78,0,0,1,.45-.66l4.33-5.41.68,1c.63.23,1.8.74,2.54,1Z" transform="translate(0 0)"/><path class="cls-5" d="M97.62,58V56.15l-.91,1.51H96.4l-.88-1.48V58h-.66v-3h.57l1.14,1.91,1.11-1.91h.57v3Z" transform="translate(0 0)"/><path class="cls-5" d="M100.64,57.83a1.22,1.22,0,0,1-.45-.42,1.13,1.13,0,0,1-.17-.63,1.17,1.17,0,0,1,.17-.63,1.22,1.22,0,0,1,.45-.42,1.26,1.26,0,0,1,.66-.15,1.59,1.59,0,0,1,.65.15,1.1,1.1,0,0,1,.46.42,1.19,1.19,0,0,1,.17.63,1.27,1.27,0,0,1-.17.63,1.33,1.33,0,0,1-.46.42,1.22,1.22,0,0,1-.65.15A1.26,1.26,0,0,1,100.64,57.83Zm1.08-.57a.63.63,0,0,0,.18-.48.68.68,0,0,0-.18-.48.46.46,0,0,0-.42-.18.57.57,0,0,0-.43.18.67.67,0,0,0-.17.48.72.72,0,0,0,.17.48.47.47,0,0,0,.43.17A.5.5,0,0,0,101.72,57.26Z" transform="translate(0 0)"/><path class="cls-5" d="M105.26,55.67a1.14,1.14,0,0,1,.48-.09v.63h-.14a.64.64,0,0,0-.46.17.69.69,0,0,0-.17.48V58h-.71V55.64h.65V56A.69.69,0,0,1,105.26,55.67Z" transform="translate(0 0)"/><path class="cls-5" d="M108.93,57.86a.53.53,0,0,1-.26.12,1.47,1.47,0,0,1-.31,0,.93.93,0,0,1-.66-.2.73.73,0,0,1-.22-.62v-1h-.37V55.7h.37v-.57h.68v.57h.57v.51h-.57v.94a.33.33,0,0,0,.09.23.28.28,0,0,0,.22.08.55.55,0,0,0,.29-.08Z" transform="translate(0 0)"/><path class="cls-5" d="M112.89,55.61v2a1.27,1.27,0,0,1-.35,1,1.39,1.39,0,0,1-1,.32,2.5,2.5,0,0,1-.66-.09,1.42,1.42,0,0,1-.51-.23l.26-.48a1,1,0,0,0,.37.2,1.2,1.2,0,0,0,.45.09.66.66,0,0,0,.51-.18.59.59,0,0,0,.17-.48v-.11a.91.91,0,0,1-.74.28,1.5,1.5,0,0,1-.59-.14,1,1,0,0,1-.43-.4,1.08,1.08,0,0,1-.17-.6,1.11,1.11,0,0,1,.17-.6,1.07,1.07,0,0,1,.43-.39,1.26,1.26,0,0,1,.59-.15.89.89,0,0,1,.77.35v-.32ZM112,57.15a.56.56,0,0,0,.17-.43.54.54,0,0,0-.17-.42.57.57,0,0,0-.45-.18.6.6,0,0,0-.46.18.57.57,0,0,0-.17.42.6.6,0,0,0,.17.43.64.64,0,0,0,.46.17A.74.74,0,0,0,112,57.15Z" transform="translate(0 0)"/><path class="cls-5" d="M116.5,55.84a1,1,0,0,1,.29.77V58h-.63v-.29c-.11.23-.37.32-.71.32a1.08,1.08,0,0,1-.46-.09.71.71,0,0,1-.31-.26.53.53,0,0,1-.11-.37.57.57,0,0,1,.25-.51,1.42,1.42,0,0,1,.77-.2h.54a.46.46,0,0,0-.14-.34.55.55,0,0,0-.4-.11,1.64,1.64,0,0,0-.37,0,.73.73,0,0,0-.31.17l-.26-.48a1.13,1.13,0,0,1,.46-.2,1.7,1.7,0,0,1,.54-.09A1.31,1.31,0,0,1,116.5,55.84Zm-.57,1.62a.56.56,0,0,0,.2-.23V57h-.45c-.29,0-.43.08-.43.28a.22.22,0,0,0,.11.2.48.48,0,0,0,.29.09A1.13,1.13,0,0,0,115.93,57.46Z" transform="translate(0 0)"/><path class="cls-5" d="M121.09,55.61v2a1.3,1.3,0,0,1-.34,1,1.43,1.43,0,0,1-1,.32,2.5,2.5,0,0,1-.66-.09,1.42,1.42,0,0,1-.51-.23l.26-.48a1,1,0,0,0,.37.2,1.2,1.2,0,0,0,.45.09.66.66,0,0,0,.51-.18.59.59,0,0,0,.17-.48v-.11a.91.91,0,0,1-.74.28,1.5,1.5,0,0,1-.59-.14,1,1,0,0,1-.43-.4,1.08,1.08,0,0,1-.17-.6,1.11,1.11,0,0,1,.17-.6,1.07,1.07,0,0,1,.43-.39,1.26,1.26,0,0,1,.59-.15.89.89,0,0,1,.77.35v-.32Zm-.86,1.54a.56.56,0,0,0,.17-.43.54.54,0,0,0-.17-.42.57.57,0,0,0-.45-.18.6.6,0,0,0-.46.18.57.57,0,0,0-.17.42.6.6,0,0,0,.17.43.64.64,0,0,0,.46.17A.74.74,0,0,0,120.23,57.15Z" transform="translate(0 0)"/><path class="cls-5" d="M125.22,57h-1.77a.57.57,0,0,0,.23.34.67.67,0,0,0,.45.11,1,1,0,0,0,.32,0,.74.74,0,0,0,.25-.17l.37.39a1.18,1.18,0,0,1-1,.38,1.93,1.93,0,0,1-.72-.15,1.32,1.32,0,0,1-.48-.42,1.21,1.21,0,0,1-.17-.63,1.27,1.27,0,0,1,.17-.63.91.91,0,0,1,.45-.42,1.4,1.4,0,0,1,1.26,0,.72.72,0,0,1,.42.42,1.54,1.54,0,0,1,.18.66S125.22,56.86,125.22,57Zm-1.6-.74a.54.54,0,0,0-.2.37h1.17a.54.54,0,0,0-.2-.34.58.58,0,0,0-.37-.15A.5.5,0,0,0,123.62,56.24Z" transform="translate(0 0)"/><path class="cls-5" d="M131.71,57.92a1.3,1.3,0,0,1-.54-.26l.22-.54a2.47,2.47,0,0,0,.46.23,1.68,1.68,0,0,0,.54.08,1,1,0,0,0,.46-.08.3.3,0,0,0,.14-.23.18.18,0,0,0-.09-.17.42.42,0,0,0-.22-.11,2.5,2.5,0,0,0-.37-.09,4.54,4.54,0,0,1-.57-.17.78.78,0,0,1-.37-.26.63.63,0,0,1-.18-.48.91.91,0,0,1,.15-.48.87.87,0,0,1,.42-.35,1.91,1.91,0,0,1,.72-.11,3.43,3.43,0,0,1,.57.06,1.36,1.36,0,0,1,.48.2l-.23.54a1.6,1.6,0,0,0-.85-.23.91.91,0,0,0-.43.08.33.33,0,0,0-.14.26c0,.12.06.17.17.23a1.51,1.51,0,0,0,.51.14l.57.17a.83.83,0,0,1,.37.26.63.63,0,0,1,.17.48,1,1,0,0,1-.14.49,1.14,1.14,0,0,1-.43.34,1.86,1.86,0,0,1-.71.11A2.68,2.68,0,0,1,131.71,57.92Z" transform="translate(0 0)"/><path class="cls-5" d="M135.81,57.83a1.33,1.33,0,0,1-.46-.42,1.21,1.21,0,0,1-.17-.63,1.27,1.27,0,0,1,.17-.63,1.33,1.33,0,0,1,.46-.42,1.22,1.22,0,0,1,.65-.15,1.53,1.53,0,0,1,.66.15,1.22,1.22,0,0,1,.45.42,1.1,1.1,0,0,1,.17.63,1.17,1.17,0,0,1-.17.63,1.22,1.22,0,0,1-.45.42,1.26,1.26,0,0,1-.66.15A1,1,0,0,1,135.81,57.83Zm1.08-.57a.67.67,0,0,0,.17-.48.72.72,0,0,0-.17-.48.57.57,0,0,0-.43-.18.54.54,0,0,0-.42.18.63.63,0,0,0-.18.48.68.68,0,0,0,.18.48.54.54,0,0,0,.42.17A.56.56,0,0,0,136.89,57.26Z" transform="translate(0 0)"/><path class="cls-5" d="M139.42,54.73h.69V58h-.69Z" transform="translate(0 0)"/><path class="cls-5" d="M144.32,55.61V58h-.65v-.29a.79.79,0,0,1-.32.23.84.84,0,0,1-.4.09.9.9,0,0,1-1-1.06V55.61h.68v1.23c0,.37.17.57.49.57a.48.48,0,0,0,.39-.18.7.7,0,0,0,.15-.48V55.58h.65Z" transform="translate(0 0)"/><path class="cls-5" d="M147.68,57.86a.53.53,0,0,1-.26.12,1.42,1.42,0,0,1-.31,0,.91.91,0,0,1-.65-.2.8.8,0,0,1-.23-.62v-1h-.37V55.7h.37v-.57h.68v.57h.57v.51h-.57v.94a.33.33,0,0,0,.09.23.29.29,0,0,0,.23.08.54.54,0,0,0,.28-.08Z" transform="translate(0 0)"/><path class="cls-5" d="M149.3,55.18a.35.35,0,0,1-.11-.25.33.33,0,0,1,.11-.26.58.58,0,0,1,.32-.11.41.41,0,0,1,.31.11.3.3,0,0,1,.11.26.34.34,0,0,1-.11.28.38.38,0,0,1-.31.12A.41.41,0,0,1,149.3,55.18Zm0,.43H150V58h-.68Z" transform="translate(0 0)"/><path class="cls-5" d="M152.27,57.83a1.25,1.25,0,0,1-.46-.42,1.21,1.21,0,0,1-.17-.63,1.27,1.27,0,0,1,.17-.63,1.25,1.25,0,0,1,.46-.42,1.2,1.2,0,0,1,.65-.15,1.45,1.45,0,0,1,.65.15,1.25,1.25,0,0,1,.46.42,1.19,1.19,0,0,1,.17.63,1.27,1.27,0,0,1-.17.63,1.25,1.25,0,0,1-.46.42,1.2,1.2,0,0,1-.65.15A1,1,0,0,1,152.27,57.83Zm1.08-.57a.67.67,0,0,0,.17-.48.72.72,0,0,0-.17-.48.6.6,0,0,0-.86,0,.67.67,0,0,0-.17.48.72.72,0,0,0,.17.48.63.63,0,0,0,.86,0Z" transform="translate(0 0)"/><path class="cls-5" d="M158,55.84a1.05,1.05,0,0,1,.25.77V58h-.68V56.72a.64.64,0,0,0-.11-.42.51.51,0,0,0-.74,0,.62.62,0,0,0-.15.49V58h-.68V55.64h.66v.29a.85.85,0,0,1,.34-.23,1.06,1.06,0,0,1,.42-.09A.82.82,0,0,1,158,55.84Z" transform="translate(0 0)"/><path class="cls-5" d="M160.32,57.92a3.38,3.38,0,0,1-.45-.17l.23-.49a2.14,2.14,0,0,0,.37.17,2,2,0,0,0,.42.06c.29,0,.43-.06.43-.2a.14.14,0,0,0-.11-.14,2.5,2.5,0,0,0-.37-.09,1.61,1.61,0,0,1-.49-.11.69.69,0,0,1-.31-.2.54.54,0,0,1-.14-.4A.67.67,0,0,1,160,56a.68.68,0,0,1,.37-.25,1.75,1.75,0,0,1,.57-.09,2.33,2.33,0,0,1,.48.06,1,1,0,0,1,.4.14l-.23.49a1.28,1.28,0,0,0-.68-.18.7.7,0,0,0-.31.06.2.2,0,0,0-.12.17c0,.09,0,.12.12.14a2.21,2.21,0,0,0,.37.09,2.45,2.45,0,0,1,.48.11.79.79,0,0,1,.31.2.56.56,0,0,1,.15.4.66.66,0,0,1-.15.4.85.85,0,0,1-.37.26,2.1,2.1,0,0,1-.59.08A3.73,3.73,0,0,1,160.32,57.92Z" transform="translate(0 0)"/><path class="cls-6" d="M0,101.39H177.69v-17C100,82.88,13,49.68,1.06,0H0Z" transform="translate(0 0)"/></g></g></g></svg>