<?xml version="1.0" encoding="utf-8"?>
<!-- Generator: Adobe Illustrator 25.2.0, SVG Export Plug-In . SVG Version: 6.00 Build 0)  -->
<svg version="1.1" id="Layer_1" xmlns="http://www.w3.org/2000/svg" xmlns:xlink="http://www.w3.org/1999/xlink" x="0px" y="0px"
	 width="658.6px" height="685.7px" viewBox="0 0 658.6 685.7" style="enable-background:new 0 0 658.6 685.7;" xml:space="preserve"
	>
<style type="text/css">
	@keyframes lineGrow {
		to{
			stroke-dashoffset: 0;
		}
	}

	.element1, .element2, .element3{
		fill:none;
		stroke-width:16;
		stroke-miterlimit:10;
		stroke-dasharray: 2500;
		stroke-dashoffset: 2500;
		animation: lineGrow 2s infinite ease-out;
	}
	.element1, .element2{
		stroke:#000000;
	}
	.element3{
		stroke:#415A71;
	}

</style>
<path class="element1" d="M437.1,337.7L347.2,89.1c-2.1-5.7-7.5-9.5-13.6-9.5h-17.1c-7.5,0-14.2,4.8-16.7,11.9l-56.4,166.6
	c-1.2,3.6,0,7.7,3.1,10c5.7,4.3,13.9,10.5,13.9,10.5c5.1,3.8,12.4,1.5,14.4-4.5l32.4-99.4l51.4,144.7c2.2,6.3,7.2,11.4,13.5,13.7
	c17.6,6.6,42.6,11.6,58.1,13.4C435,347.1,438.7,342.3,437.1,337.7z"/>
<path class="element2" d="M581.5,599.3c-0.3-3.7-3.4-6.5-7-6.5c-4.4,0.1-10.4-0.6-15.7-4.1c-10-6.7-17.7-17.7-29.9-43.3
	c-5-10.4-10.7-22.7-15.8-33.6c-1.8-4,1.1-8.5,5.5-8.4c16.5,0.4,32.6,0,48.7-0.7c7.1-0.3,12.7-6.2,12.7-13.3v-21.1
	c0-7.9-6.8-14.2-14.7-13.5c-43.7,3.7-175.7,8.1-276.2-60.4C166.9,311.2,107,219,93.6,198c-7.6-12,24.2,74.2,93.7,152.8
	c4,4.6,5.3,10.9,3.2,16.7l-63,170.1c-8,22-17.9,47.2-40.5,54.3c-3.5,1.1-5.9,4.3-5.9,7.9l0,7.8c0,4.2,3.4,7.7,7.7,7.7h105.5
	c4.2,0,7.7-3.4,7.7-7.7v-7c0-4-2.9-7.4-6.9-8.2c-17.4-3.3-27.1-14.9-27.1-36.8c0-21.7,20.1-68.6,36-119.2h0.2l10.7-32.6l0,0l2-4.8
	c2.6-6.3,10.5-8.2,15.6-3.8c9.9,8.4,20.3,16.4,31.2,23.9c60.1,41,114.9,63.2,166.3,74.4c6.9,1.5,12.7,6.2,15.7,12.7
	c10.6,22.9,29.3,66.8,21.2,75c-8.3,8.3-20.3,11.1-27.8,12.4c-4.2,0.7-7.4,4.2-7.7,8.4c-0.1,1.7-0.1,3.4,0.1,5.7c0.4,4,3.7,7,7.6,7
	h135.2c4.3,0,7.8-3.6,7.7-7.9L581.5,599.3z"/>
<path class="element3" d="M77.5,110.3C67.6,94.5,125.2,248,247.3,331.2c118.1,80.5,215.4,88.4,307.1,83.8c5.2-0.3,9.3-4.6,9.3-9.8v-28.4
	c0-5.9-5.1-10.5-10.9-9.9c-39.3,3.7-176.4,10.6-280-60C150.8,223.6,90.8,131.3,77.5,110.3z"/>
</svg>
