<svg width="137" height="98" viewBox="0 0 137 98" fill="none" xmlns="http://www.w3.org/2000/svg">
<rect x="5.5" y="5.92291" width="126.5" height="88.5" stroke="black"/>
<rect opacity="0.5" x="13.25" y="14.4229" width="110.75" height="72.5" fill="#84BD00"/>
<path d="M77.1278 50.9451L70.9134 33.9229H68.3917L64.4366 45.4924C64.495 45.5405 64.5533 45.5838 64.6116 45.632L66.2976 46.8832L68.6006 39.8809L72.0601 49.5302C73.3428 50.2039 76.3115 50.7478 77.1278 50.9451Z" fill="white"/>
<path d="M85.9271 66.0422C85.9271 66.0422 85.1545 66.2491 84.5229 65.8353C83.8913 65.4166 83.4005 64.7236 82.628 63.121C82.2247 62.2884 81.7437 61.2633 81.3793 60.474C82.9049 60.5366 84.3917 60.4933 85.8591 60.4067V57.3458C85.8591 57.3458 75.1794 58.8762 67.454 53.6594C59.7236 48.4425 55.9338 42.6626 55.0883 41.3439C54.5927 40.5691 56.7452 46.3394 61.4339 51.3782L57.2262 62.6204C56.6772 64.1124 55.9872 65.8401 54.2915 66.1096V66.9229C55.4819 66.9229 56.8084 66.6486 58.0911 66.6486C59.3689 66.6486 60.6565 66.9229 61.9344 66.9229V66.1096C60.5593 66.0181 59.7819 65.2914 59.7819 63.7514C59.7819 62.3943 61.0549 59.4538 62.0607 56.2823H62.0704L62.7458 54.2417L63.2025 53.13C64.0188 53.8663 64.8982 54.5642 65.836 55.1994C69.9077 57.9522 73.5906 59.3479 77.0404 60.0024C77.5019 60.9457 79.3046 64.7476 78.6924 65.3588C77.9927 66.0566 76.8654 66.1288 76.5836 66.1962C76.3018 66.2636 76.5108 66.8892 76.5108 66.8892C76.5108 66.8892 81.4667 66.5908 81.7145 66.5908C82.1032 66.5908 85.9903 66.8892 85.9903 66.8892L85.9271 66.0422Z" fill="white"/>
<path d="M54.068 35.8479C53.4412 34.8614 57.0902 44.4769 64.8157 49.6938C72.5411 54.9107 78.8624 55.262 84.8339 54.9107V51.8498C84.8339 51.8498 74.1543 53.3802 66.4288 48.1634C58.7082 42.9465 54.9134 37.1666 54.068 35.8479Z" fill="white"/>
<rect x="127.5" y="0.422913" width="8.5" height="8.5" fill="black"/>
<rect x="0.75" y="0.422913" width="8.5" height="8.5" fill="black"/>
<rect x="0.75" y="89.4229" width="8.5" height="8.5" fill="black"/>
<rect x="128.25" y="89.4229" width="8.5" height="8.5" fill="black"/>
</svg>
