<?xml version="1.0" encoding="utf-8"?>
<!-- Generator: Adobe Illustrator 25.2.0, SVG Export Plug-In . SVG Version: 6.00 Build 0)  -->
<svg version="1.1" id="Layer_1" xmlns="http://www.w3.org/2000/svg" xmlns:xlink="http://www.w3.org/1999/xlink" x="0px" y="0px"
	 viewBox="0 0 1200 1200" style="enable-background:new 0 0 1200 1200;" xml:space="preserve">
<style type="text/css">
	.st0{fill:url(#SVGID_1_);stroke:url(#SVGID_2_);stroke-width:2;stroke-miterlimit:10;}
	.st1{fill:url(#SVGID_3_);stroke:url(#SVGID_4_);stroke-width:2;stroke-miterlimit:10;}
	.st2{fill:url(#SVGID_5_);stroke:url(#SVGID_6_);stroke-width:2;stroke-miterlimit:10;}
	.st3{fill:url(#SVGID_7_);stroke:url(#SVGID_8_);stroke-width:2;stroke-miterlimit:10;}
	.st4{fill:url(#SVGID_9_);stroke:url(#SVGID_10_);stroke-width:2;stroke-miterlimit:10;}
	.st5{fill:url(#SVGID_11_);stroke:url(#SVGID_12_);stroke-width:2;stroke-miterlimit:10;}
	.st6{fill:url(#SVGID_13_);stroke:url(#SVGID_14_);stroke-width:2;stroke-miterlimit:10;}
	.st7{fill:url(#SVGID_15_);stroke:url(#SVGID_16_);stroke-width:2;stroke-miterlimit:10;}
	.st8{fill:url(#SVGID_17_);stroke:url(#SVGID_18_);stroke-width:2;stroke-miterlimit:10;}
	.st9{fill:url(#SVGID_19_);stroke:url(#SVGID_20_);stroke-width:2;stroke-miterlimit:10;}
	.st10{fill:url(#SVGID_21_);stroke:url(#SVGID_22_);stroke-width:2;stroke-miterlimit:10;}
	.st11{fill:url(#SVGID_23_);stroke:url(#SVGID_24_);stroke-width:2;stroke-miterlimit:10;}
	.st12{fill:url(#SVGID_25_);stroke:url(#SVGID_26_);stroke-width:2;stroke-miterlimit:10;}
	.st13{fill:url(#SVGID_27_);stroke:url(#SVGID_28_);stroke-width:2;stroke-miterlimit:10;}
	.st14{fill:url(#SVGID_29_);stroke:url(#SVGID_30_);stroke-width:2;stroke-miterlimit:10;}
	.st15{fill:#224C91;}
	.st16{fill-rule:evenodd;clip-rule:evenodd;fill:url(#SVGID_31_);stroke:url(#SVGID_32_);stroke-width:2;stroke-miterlimit:10;}
	.st17{fill-rule:evenodd;clip-rule:evenodd;fill:url(#SVGID_33_);stroke:url(#SVGID_34_);stroke-width:2;stroke-miterlimit:10;}
	.st18{fill-rule:evenodd;clip-rule:evenodd;fill:url(#SVGID_35_);stroke:url(#SVGID_36_);stroke-width:2;stroke-miterlimit:10;}
	.st19{fill-rule:evenodd;clip-rule:evenodd;fill:url(#SVGID_37_);stroke:url(#SVGID_38_);stroke-width:2;stroke-miterlimit:10;}
	.st20{fill-rule:evenodd;clip-rule:evenodd;fill:url(#SVGID_39_);stroke:url(#SVGID_40_);stroke-width:2;stroke-miterlimit:10;}
	.st21{fill-rule:evenodd;clip-rule:evenodd;fill:url(#SVGID_41_);stroke:url(#SVGID_42_);stroke-width:2;stroke-miterlimit:10;}
	.st22{fill-rule:evenodd;clip-rule:evenodd;fill:url(#SVGID_43_);stroke:url(#SVGID_44_);stroke-width:2;stroke-miterlimit:10;}
	.st23{fill:#D39C32;}
	.st24{fill:url(#SVGID_45_);stroke:url(#SVGID_46_);stroke-width:2;stroke-miterlimit:10;}
	.st25{fill:url(#SVGID_47_);stroke:url(#SVGID_48_);stroke-width:2;stroke-miterlimit:10;}
	.st26{fill:url(#SVGID_49_);stroke:url(#SVGID_50_);stroke-width:2;stroke-miterlimit:10;}
	.st27{fill:url(#SVGID_51_);stroke:url(#SVGID_52_);stroke-width:2;stroke-miterlimit:10;}
	.st28{fill:#6928A8;}
	.st29{fill:url(#SVGID_53_);stroke:url(#SVGID_54_);stroke-width:2;stroke-miterlimit:10;}
	.st30{fill:url(#SVGID_55_);stroke:url(#SVGID_56_);stroke-width:2;stroke-miterlimit:10;}
	.st31{fill:url(#SVGID_57_);stroke:url(#SVGID_58_);stroke-width:2;stroke-miterlimit:10;}
	.st32{fill:url(#SVGID_59_);stroke:url(#SVGID_60_);stroke-width:2;stroke-miterlimit:10;}
	.st33{fill:#05ABC1;}
	.st34{fill:url(#SVGID_61_);stroke:url(#SVGID_62_);stroke-width:2;stroke-miterlimit:10;}
	.st35{fill:url(#SVGID_63_);stroke:url(#SVGID_64_);stroke-width:2;stroke-miterlimit:10;}
	.st36{fill:url(#SVGID_65_);stroke:url(#SVGID_66_);stroke-width:2;stroke-miterlimit:10;}
	.st37{fill:url(#SVGID_67_);stroke:url(#SVGID_68_);stroke-width:2;stroke-miterlimit:10;}
	.st38{fill:url(#SVGID_69_);stroke:url(#SVGID_70_);stroke-width:2;stroke-miterlimit:10;}
	.st39{fill:#D18661;}
	.st40{fill:url(#SVGID_71_);stroke:url(#SVGID_72_);stroke-width:2;stroke-miterlimit:10;}
	.st41{fill:url(#SVGID_73_);stroke:url(#SVGID_74_);stroke-width:2;stroke-miterlimit:10;}
	.st42{fill:url(#SVGID_75_);stroke:url(#SVGID_76_);stroke-width:2;stroke-miterlimit:10;}
	.st43{fill:url(#SVGID_77_);stroke:url(#SVGID_78_);stroke-width:2;stroke-miterlimit:10;}
	.st44{fill:url(#SVGID_79_);stroke:url(#SVGID_80_);stroke-width:2;stroke-miterlimit:10;}
	.st45{fill:url(#SVGID_81_);stroke:url(#SVGID_82_);stroke-width:2;stroke-miterlimit:10;}
	.st46{fill:url(#SVGID_83_);stroke:url(#SVGID_84_);stroke-width:2;stroke-miterlimit:10;}
	.st47{fill:url(#SVGID_85_);stroke:url(#SVGID_86_);stroke-width:2;stroke-miterlimit:10;}
	.st48{fill:url(#SVGID_87_);stroke:url(#SVGID_88_);stroke-width:2;stroke-miterlimit:10;}
	.st49{fill:url(#SVGID_89_);stroke:url(#SVGID_90_);stroke-width:2;stroke-miterlimit:10;}
	.st50{fill:url(#SVGID_91_);stroke:url(#SVGID_92_);stroke-width:2;stroke-miterlimit:10;}
	.st51{fill:url(#SVGID_93_);stroke:url(#SVGID_94_);stroke-width:2;stroke-miterlimit:10;}
	.st52{fill:url(#SVGID_95_);stroke:url(#SVGID_96_);stroke-width:2;stroke-miterlimit:10;}
	.st53{fill:#D15923;}
	.st54{fill:url(#SVGID_97_);stroke:url(#SVGID_98_);stroke-width:2;stroke-miterlimit:10;}
	.st55{fill:none;stroke:#EF0F0F;stroke-width:25;stroke-linecap:round;stroke-miterlimit:10;}
	.st56{fill:none;stroke:#EF0F0F;stroke-width:24.9991;stroke-linecap:round;stroke-miterlimit:9.9996;}
</style>
<g>
	<g>
		<g>
			
				<linearGradient id="SVGID_1_" gradientUnits="userSpaceOnUse" x1="410.3889" y1="-915" x2="410.3889" y2="-164.9333" gradientTransform="matrix(1 0 0 1 0 1168)">
				<stop  offset="0" style="stop-color:#526828"/>
				<stop  offset="1" style="stop-color:#2C3613"/>
			</linearGradient>
			
				<linearGradient id="SVGID_2_" gradientUnits="userSpaceOnUse" x1="346.8" y1="-460.4232" x2="473.9779" y2="-460.4232" gradientTransform="matrix(1 0 0 1 0 1168)">
				<stop  offset="0" style="stop-color:#526828"/>
				<stop  offset="1" style="stop-color:#2C3613"/>
			</linearGradient>
			<path class="st0" d="M467.7,918.1c-58.8-43.3-93.8-112.7-93.8-185.6v-225c0-6.6,0.3-13.3,0.8-19.8c0.6-7.2-4.7-13.5-11.9-14.1
				c-7.2-0.6-13.5,4.7-14.1,11.9c-0.6,7.3-0.9,14.7-0.9,22v225c0,40.9,9.8,81.5,28.5,117.6c18,34.9,44.3,65.7,75.9,89
				c2.3,1.7,5,2.5,7.7,2.5c4,0,7.9-1.8,10.5-5.3C474.7,930.5,473.5,922.4,467.7,918.1L467.7,918.1z"/>
			
				<linearGradient id="SVGID_3_" gradientUnits="userSpaceOnUse" x1="511.7055" y1="-915" x2="511.7055" y2="-164.9333" gradientTransform="matrix(1 0 0 1 0 1168)">
				<stop  offset="0" style="stop-color:#526828"/>
				<stop  offset="1" style="stop-color:#2C3613"/>
			</linearGradient>
			
				<linearGradient id="SVGID_4_" gradientUnits="userSpaceOnUse" x1="485.2162" y1="-210.5919" x2="538.1948" y2="-210.5919" gradientTransform="matrix(1 0 0 1 0 1168)">
				<stop  offset="0" style="stop-color:#526828"/>
				<stop  offset="1" style="stop-color:#2C3613"/>
			</linearGradient>
			<path class="st1" d="M528.5,950.2c-8-2.8-16-6.1-23.6-9.7c-6.5-3.1-14.3-0.4-17.4,6.1s-0.4,14.3,6.1,17.4
				c8.5,4.1,17.4,7.7,26.3,10.9c1.4,0.5,2.9,0.7,4.3,0.7c5.4,0,10.4-3.4,12.3-8.7C538.8,960,535.2,952.5,528.5,950.2L528.5,950.2z"
				/>
			
				<linearGradient id="SVGID_5_" gradientUnits="userSpaceOnUse" x1="711.8586" y1="-915" x2="711.8586" y2="-164.9333" gradientTransform="matrix(1 0 0 1 0 1168)">
				<stop  offset="0" style="stop-color:#526828"/>
				<stop  offset="1" style="stop-color:#2C3613"/>
			</linearGradient>
			
				<linearGradient id="SVGID_6_" gradientUnits="userSpaceOnUse" x1="561.9173" y1="-336.9" x2="861.8" y2="-336.9" gradientTransform="matrix(1 0 0 1 0 1168)">
				<stop  offset="0" style="stop-color:#526828"/>
				<stop  offset="1" style="stop-color:#2C3613"/>
			</linearGradient>
			<path class="st2" d="M847.8,673.3c-7.2,0-13,5.8-13,13v46.2c0,127.1-103.4,230.5-230.5,230.5c-9,0-18.1-0.5-26.9-1.6
				c-7.2-0.8-13.6,4.3-14.4,11.4c-0.8,7.1,4.3,13.6,11.4,14.4c9.9,1.2,19.9,1.7,29.9,1.7c141.4,0,256.5-115.1,256.5-256.5v-46.2
				C860.8,679.1,855,673.3,847.8,673.3L847.8,673.3z"/>
			
				<linearGradient id="SVGID_7_" gradientUnits="userSpaceOnUse" x1="610.1375" y1="-915" x2="610.1375" y2="-164.9333" gradientTransform="matrix(1 0 0 1 0 1168)">
				<stop  offset="0" style="stop-color:#526828"/>
				<stop  offset="1" style="stop-color:#2C3613"/>
			</linearGradient>
			
				<linearGradient id="SVGID_8_" gradientUnits="userSpaceOnUse" x1="358.4751" y1="-718.85" x2="861.7999" y2="-718.85" gradientTransform="matrix(1 0 0 1 0 1168)">
				<stop  offset="0" style="stop-color:#526828"/>
				<stop  offset="1" style="stop-color:#2C3613"/>
			</linearGradient>
			<path class="st3" d="M604.3,251c-55.4,0-108.1,17.4-152.5,50.2c-43.5,32.2-75.2,76.3-91.7,127.6c-2.2,6.9,1.6,14.2,8.4,16.4
				c6.8,2.2,14.2-1.6,16.4-8.4c14.8-46.1,43.3-85.7,82.4-114.6c39.9-29.5,87.2-45.1,137-45.1c127.1,0,230.5,103.4,230.5,230.5v126.7
				c0,7.2,5.8,13,13,13s13-5.8,13-13V507.5C860.8,366.1,745.8,251,604.3,251L604.3,251z"/>
			
				<linearGradient id="SVGID_9_" gradientUnits="userSpaceOnUse" x1="558.4365" y1="-915" x2="558.4365" y2="-164.9333" gradientTransform="matrix(1 0 0 1 0 1168)">
				<stop  offset="0" style="stop-color:#526828"/>
				<stop  offset="1" style="stop-color:#2C3613"/>
			</linearGradient>
			
				<linearGradient id="SVGID_10_" gradientUnits="userSpaceOnUse" x1="420.133" y1="-298.9027" x2="696.7401" y2="-298.9027" gradientTransform="matrix(1 0 0 1 0 1168)">
				<stop  offset="0" style="stop-color:#526828"/>
				<stop  offset="1" style="stop-color:#2C3613"/>
			</linearGradient>
			<path class="st4" d="M428.4,804.4c-6.5,3.2-9.1,11-5.9,17.4c16.5,33.4,41.9,61.7,73.4,81.8c32.4,20.6,69.9,31.5,108.5,31.5
				c29.1,0,57.3-6.1,83.7-18.1c6.6-3,9.4-10.7,6.5-17.2c-3-6.5-10.7-9.4-17.2-6.5c-23,10.5-47.5,15.7-72.9,15.7
				c-33.6,0-66.2-9.5-94.5-27.4c-27.5-17.5-49.7-42.2-64.1-71.3C442.6,803.9,434.8,801.3,428.4,804.4L428.4,804.4z"/>
			
				<linearGradient id="SVGID_11_" gradientUnits="userSpaceOnUse" x1="761.7428" y1="-915" x2="761.7428" y2="-164.9333" gradientTransform="matrix(1 0 0 1 0 1168)">
				<stop  offset="0" style="stop-color:#526828"/>
				<stop  offset="1" style="stop-color:#2C3613"/>
			</linearGradient>
			
				<linearGradient id="SVGID_12_" gradientUnits="userSpaceOnUse" x1="715.4857" y1="-532.8212" x2="808" y2="-532.8212" gradientTransform="matrix(1 0 0 1 0 1168)">
				<stop  offset="0" style="stop-color:#526828"/>
				<stop  offset="1" style="stop-color:#2C3613"/>
			</linearGradient>
			<path class="st5" d="M729.5,887.9c3.1,0,6.1-1.1,8.6-3.3c43.8-38.5,68.9-94,68.9-152.1v-225c0-43.3-13.5-84.7-39.2-119.7
				c-4.3-5.8-12.4-7.1-18.2-2.8c-5.8,4.3-7.1,12.4-2.8,18.2c22.3,30.4,34.1,66.5,34.1,104.2v225c0,50.6-21.9,99-60,132.6
				c-5.4,4.8-5.9,13-1.2,18.4C722.3,886.4,725.9,887.9,729.5,887.9L729.5,887.9z"/>
			
				<linearGradient id="SVGID_13_" gradientUnits="userSpaceOnUse" x1="697.4146" y1="-915" x2="697.4146" y2="-164.9333" gradientTransform="matrix(1 0 0 1 0 1168)">
				<stop  offset="0" style="stop-color:#526828"/>
				<stop  offset="1" style="stop-color:#2C3613"/>
			</linearGradient>
			
				<linearGradient id="SVGID_14_" gradientUnits="userSpaceOnUse" x1="668.8333" y1="-824.8425" x2="726.1328" y2="-824.8425" gradientTransform="matrix(1 0 0 1 0 1168)">
				<stop  offset="0" style="stop-color:#526828"/>
				<stop  offset="1" style="stop-color:#2C3613"/>
			</linearGradient>
			<path class="st6" d="M704.7,362.2c2.3,1.6,4.8,2.3,7.4,2.3c4.1,0,8.2-2,10.7-5.6c4.1-5.9,2.6-14-3.3-18.1
				c-9.9-6.8-20.4-12.8-31.3-17.8c-6.6-3-14.3-0.1-17.3,6.4s-0.1,14.3,6.4,17.3C686.9,351.1,696.1,356.3,704.7,362.2L704.7,362.2z"
				/>
			
				<linearGradient id="SVGID_15_" gradientUnits="userSpaceOnUse" x1="525.3063" y1="-915" x2="525.3063" y2="-164.9333" gradientTransform="matrix(1 0 0 1 0 1168)">
				<stop  offset="0" style="stop-color:#526828"/>
				<stop  offset="1" style="stop-color:#2C3613"/>
			</linearGradient>
			
				<linearGradient id="SVGID_16_" gradientUnits="userSpaceOnUse" x1="400.6" y1="-645.85" x2="650.0126" y2="-645.85" gradientTransform="matrix(1 0 0 1 0 1168)">
				<stop  offset="0" style="stop-color:#526828"/>
				<stop  offset="1" style="stop-color:#2C3613"/>
			</linearGradient>
			<path class="st7" d="M638.2,307.7c-11.1-1.9-22.5-2.8-33.9-2.8c-111.8,0-202.7,90.9-202.7,202.7v218.8c0,7.2,5.8,13,13,13
				s13-5.8,13-13V507.5c0-97.4,79.2-176.6,176.6-176.6c9.9,0,19.9,0.8,29.6,2.5c7.1,1.2,13.8-3.6,15-10.7
				C650.1,315.6,645.3,308.9,638.2,307.7L638.2,307.7z"/>
			
				<linearGradient id="SVGID_17_" gradientUnits="userSpaceOnUse" x1="615.8837" y1="-915" x2="615.8837" y2="-164.9333" gradientTransform="matrix(1 0 0 1 0 1168)">
				<stop  offset="0" style="stop-color:#526828"/>
				<stop  offset="1" style="stop-color:#2C3613"/>
			</linearGradient>
			
				<linearGradient id="SVGID_18_" gradientUnits="userSpaceOnUse" x1="477.6675" y1="-655.55" x2="754.1" y2="-655.55" gradientTransform="matrix(1 0 0 1 0 1168)">
				<stop  offset="0" style="stop-color:#526828"/>
				<stop  offset="1" style="stop-color:#2C3613"/>
			</linearGradient>
			<path class="st8" d="M480.9,424.3c-4,6-2.5,14.1,3.5,18.1s14.1,2.5,18.1-3.5c23-33.9,61-54.2,101.8-54.2
				c67.7,0,122.8,55.1,122.8,122.8v145.8c0,7.2,5.8,13,13,13s13-5.8,13-13V507.5c0-82.1-66.8-148.9-148.9-148.9
				C554.9,358.7,508.7,383.2,480.9,424.3L480.9,424.3z"/>
			
				<linearGradient id="SVGID_19_" gradientUnits="userSpaceOnUse" x1="468.5" y1="-915" x2="468.5" y2="-164.9333" gradientTransform="matrix(1 0 0 1 0 1168)">
				<stop  offset="0" style="stop-color:#526828"/>
				<stop  offset="1" style="stop-color:#2C3613"/>
			</linearGradient>
			
				<linearGradient id="SVGID_20_" gradientUnits="userSpaceOnUse" x1="454.4715" y1="-644.8" x2="482.5165" y2="-644.8" gradientTransform="matrix(1 0 0 1 0 1168)">
				<stop  offset="0" style="stop-color:#526828"/>
				<stop  offset="1" style="stop-color:#2C3613"/>
			</linearGradient>
			<path class="st9" d="M468.5,551.8c7.2,0,13-5.8,13-13v-31.2c0-7.2-5.8-13-13-13s-13,5.8-13,13v31.2
				C455.5,545.9,461.3,551.8,468.5,551.8L468.5,551.8z"/>
			
				<linearGradient id="SVGID_21_" gradientUnits="userSpaceOnUse" x1="503.4307" y1="-915" x2="503.4307" y2="-164.9333" gradientTransform="matrix(1 0 0 1 0 1168)">
				<stop  offset="0" style="stop-color:#526828"/>
				<stop  offset="1" style="stop-color:#2C3613"/>
			</linearGradient>
			
				<linearGradient id="SVGID_22_" gradientUnits="userSpaceOnUse" x1="454.5" y1="-447" x2="552.3615" y2="-447" gradientTransform="matrix(1 0 0 1 0 1168)">
				<stop  offset="0" style="stop-color:#526828"/>
				<stop  offset="1" style="stop-color:#2C3613"/>
			</linearGradient>
			<path class="st10" d="M455.5,732.5c0,53.9,29.3,103.7,76.5,130c2,1.1,4.2,1.7,6.3,1.7c4.6,0,9-2.4,11.4-6.7
				c3.5-6.3,1.3-14.2-5-17.7c-38.9-21.8-63.1-62.9-63.1-107.3V590.8c0-7.2-5.8-13-13-13s-13,5.8-13,13v141.7H455.5z"/>
			
				<linearGradient id="SVGID_23_" gradientUnits="userSpaceOnUse" x1="656.0643" y1="-915" x2="656.0643" y2="-164.9333" gradientTransform="matrix(1 0 0 1 0 1168)">
				<stop  offset="0" style="stop-color:#526828"/>
				<stop  offset="1" style="stop-color:#2C3613"/>
			</linearGradient>
			
				<linearGradient id="SVGID_24_" gradientUnits="userSpaceOnUse" x1="557.9285" y1="-379.35" x2="754.2" y2="-379.35" gradientTransform="matrix(1 0 0 1 0 1168)">
				<stop  offset="0" style="stop-color:#526828"/>
				<stop  offset="1" style="stop-color:#2C3613"/>
			</linearGradient>
			<path class="st11" d="M753.2,732.5v-23.6c0-7.2-5.8-13-13-13s-13,5.8-13,13v23.6c0,67.7-55.1,122.8-122.8,122.8
				c-9.9,0-19.7-1.2-29.3-3.5c-7-1.7-14,2.6-15.8,9.5c-1.7,7,2.6,14,9.5,15.8c11.6,2.8,23.5,4.3,35.5,4.3
				C686.4,881.3,753.2,814.6,753.2,732.5L753.2,732.5z"/>
			
				<linearGradient id="SVGID_25_" gradientUnits="userSpaceOnUse" x1="604.35" y1="-915" x2="604.35" y2="-164.9333" gradientTransform="matrix(1 0 0 1 0 1168)">
				<stop  offset="0" style="stop-color:#526828"/>
				<stop  offset="1" style="stop-color:#2C3613"/>
			</linearGradient>
			
				<linearGradient id="SVGID_26_" gradientUnits="userSpaceOnUse" x1="508.3" y1="-589.0092" x2="700.4" y2="-589.0092" gradientTransform="matrix(1 0 0 1 0 1168)">
				<stop  offset="0" style="stop-color:#526828"/>
				<stop  offset="1" style="stop-color:#2C3613"/>
			</linearGradient>
			<path class="st12" d="M699.4,508.9c0-52.2-41.8-95.4-93.2-96.4c-25.7-0.5-50,9.2-68.4,27.2s-28.5,42.1-28.5,67.8v225
				c0,7.2,5.8,13,13,13s13-5.8,13-13v-225c0-18.6,7.4-36.1,20.7-49.2s31-20.1,49.6-19.8c37.3,0.7,67.7,32.3,67.7,70.4v123.6
				c0,7.2,5.8,13,13,13s13-5.8,13-13V508.9H699.4z"/>
			
				<linearGradient id="SVGID_27_" gradientUnits="userSpaceOnUse" x1="631.2" y1="-915" x2="631.2" y2="-164.9333" gradientTransform="matrix(1 0 0 1 0 1168)">
				<stop  offset="0" style="stop-color:#526828"/>
				<stop  offset="1" style="stop-color:#2C3613"/>
			</linearGradient>
			
				<linearGradient id="SVGID_28_" gradientUnits="userSpaceOnUse" x1="562.1" y1="-448.65" x2="700.2999" y2="-448.65" gradientTransform="matrix(1 0 0 1 0 1168)">
				<stop  offset="0" style="stop-color:#526828"/>
				<stop  offset="1" style="stop-color:#2C3613"/>
			</linearGradient>
			<path class="st13" d="M563.1,747.6c0,37.6,30.6,68.1,68.1,68.1c37.6,0,68.1-30.6,68.1-68.1v-63c0-7.2-5.8-13-13-13s-13,5.8-13,13
				v63c0,23.2-18.9,42.1-42.1,42.1c-23.2,0-42.1-18.9-42.1-42.1V636c0-7.2-5.8-13-13-13s-13,5.8-13,13V747.6z"/>
			
				<linearGradient id="SVGID_29_" gradientUnits="userSpaceOnUse" x1="604.3" y1="-915" x2="604.3" y2="-164.9333" gradientTransform="matrix(1 0 0 1 0 1168)">
				<stop  offset="0" style="stop-color:#526828"/>
				<stop  offset="1" style="stop-color:#2C3613"/>
			</linearGradient>
			
				<linearGradient id="SVGID_30_" gradientUnits="userSpaceOnUse" x1="562.1" y1="-557.0789" x2="646.5" y2="-557.0789" gradientTransform="matrix(1 0 0 1 0 1168)">
				<stop  offset="0" style="stop-color:#526828"/>
				<stop  offset="1" style="stop-color:#2C3613"/>
			</linearGradient>
			<path class="st14" d="M632.5,755.6c7.2,0,13-5.8,13-13V508.3c0-22.4-17.2-40.9-39.1-42c-11.4-0.6-22.2,3.5-30.5,11.3
				c-8.1,7.8-12.8,18.6-12.8,29.8v72.9c0,7.2,5.8,13,13,13s13-5.8,13-13v-72.9c0-4.2,1.7-8.1,4.7-11s7-4.4,11.2-4.2
				c7.9,0.4,14.4,7.6,14.4,16v234.2C619.5,749.8,625.3,755.6,632.5,755.6L632.5,755.6z"/>
		</g>
	</g>
</g>
<g>
	<rect x="1220" class="st15" width="1200" height="1200"/>
</g>
<g>
	<g>
		<g>
			<g>
				
					<linearGradient id="SVGID_31_" gradientUnits="userSpaceOnUse" x1="1721.8971" y1="-833.3013" x2="1721.8971" y2="-260.4269" gradientTransform="matrix(1 0 0 1 0 1168)">
					<stop  offset="0" style="stop-color:#3367C1"/>
					<stop  offset="1" style="stop-color:#22508F"/>
				</linearGradient>
				
					<linearGradient id="SVGID_32_" gradientUnits="userSpaceOnUse" x1="1531.2941" y1="-731.2421" x2="1914.97" y2="-731.2421" gradientTransform="matrix(1 0 0 1 0 1168)">
					<stop  offset="0" style="stop-color:#3367C1"/>
					<stop  offset="1" style="stop-color:#22508F"/>
				</linearGradient>
				<path class="st16" d="M1911.5,466c-94.5-59.4-198.1-98.3-276.1-98.3c-94.6,0-124.9,57.1-87.6,138.7
					c-21.1-60.9,7-101.8,82.8-101.8c57.5,0,131.3,23.5,203.8,61.4L1911.5,466L1911.5,466z"/>
			</g>
			<g>
				
					<linearGradient id="SVGID_33_" gradientUnits="userSpaceOnUse" x1="1971.3123" y1="-833.3013" x2="1971.3123" y2="-260.4269" gradientTransform="matrix(1 0 0 1 0 1168)">
					<stop  offset="0" style="stop-color:#3367C1"/>
					<stop  offset="1" style="stop-color:#22508F"/>
				</linearGradient>
				
					<linearGradient id="SVGID_34_" gradientUnits="userSpaceOnUse" x1="1793.8983" y1="-415.1" x2="2149.2249" y2="-415.1" gradientTransform="matrix(1 0 0 1 0 1168)">
					<stop  offset="0" style="stop-color:#3367C1"/>
					<stop  offset="1" style="stop-color:#22508F"/>
				</linearGradient>
				<path class="st17" d="M2045.1,827.6c98.7,0,127.5-62.2,82.3-149.4h-49.8c44.1,78.2,20.6,134.1-67.9,134.1
					c-60.5,0-139.2-26.1-215.3-67.6C1881.7,795.3,1974,827.6,2045.1,827.6"/>
			</g>
			<g>
				
					<linearGradient id="SVGID_35_" gradientUnits="userSpaceOnUse" x1="1948.5002" y1="-833.3013" x2="1948.5002" y2="-260.4269" gradientTransform="matrix(1 0 0 1 0 1168)">
					<stop  offset="0" style="stop-color:#3367C1"/>
					<stop  offset="1" style="stop-color:#22508F"/>
				</linearGradient>
				
					<linearGradient id="SVGID_36_" gradientUnits="userSpaceOnUse" x1="1713.6002" y1="-596" x2="2184.4336" y2="-596" gradientTransform="matrix(1 0 0 1 0 1168)">
					<stop  offset="0" style="stop-color:#3367C1"/>
					<stop  offset="1" style="stop-color:#22508F"/>
				</linearGradient>
				<path class="st18" d="M1955.2,479.7h13.4h103.2h110.6l-37,48h-73.7h-9.3H2026h-57.4h-50.1h-17.7h-75c-7.7,0-14.9,1.1-21.5,3.3
					s-12.3,5.3-17.1,9.2c-4.8,4-8.6,8.7-11.3,14.2c-2.8,5.5-4.1,11.6-4.1,18.2c0,6.6,1.3,12.6,4,18.1c2.7,5.4,6.4,10.1,11.3,13.9
					c4.9,3.9,10.6,6.9,17.2,9s13.8,3.2,21.5,3.2h129.4l-36.7,47.5h-92.7c-16,0-30.8-2.4-44.4-7.2s-25.3-11.4-35.2-19.7
					c-9.8-8.4-17.6-18.3-23.2-29.8s-8.4-24-8.4-37.4s2.8-25.7,8.4-36.8s13.3-20.7,23.2-28.7c9.8-8,21.6-14.2,35.2-18.5
					s28.4-6.5,44.4-6.5h75H1955.2z"/>
			</g>
			<g>
				
					<linearGradient id="SVGID_37_" gradientUnits="userSpaceOnUse" x1="2075.8" y1="-833.3013" x2="2075.8" y2="-260.4269" gradientTransform="matrix(1 0 0 1 0 1168)">
					<stop  offset="0" style="stop-color:#3367C1"/>
					<stop  offset="1" style="stop-color:#22508F"/>
				</linearGradient>
				
					<linearGradient id="SVGID_38_" gradientUnits="userSpaceOnUse" x1="1967.6" y1="-560.9" x2="2185.0364" y2="-560.9" gradientTransform="matrix(1 0 0 1 0 1168)">
					<stop  offset="0" style="stop-color:#3367C1"/>
					<stop  offset="1" style="stop-color:#22508F"/>
				</linearGradient>
				<polygon class="st19" points="2183,616.9 2146.3,664.4 1968.6,664.4 1968.6,549.8 2026,549.8 2062.5,549.8 2172.2,549.8 
					2139.4,591.8 2026,591.8 2026,616.9 				"/>
			</g>
			<g>
				
					<linearGradient id="SVGID_39_" gradientUnits="userSpaceOnUse" x1="1487.5" y1="-833.3013" x2="1487.5" y2="-260.4269" gradientTransform="matrix(1 0 0 1 0 1168)">
					<stop  offset="0" style="stop-color:#3367C1"/>
					<stop  offset="1" style="stop-color:#22508F"/>
				</linearGradient>
				
					<linearGradient id="SVGID_40_" gradientUnits="userSpaceOnUse" x1="1437.0648" y1="-547.9314" x2="1537.2529" y2="-547.9314" gradientTransform="matrix(1 0 0 1 0 1168)">
					<stop  offset="0" style="stop-color:#3367C1"/>
					<stop  offset="1" style="stop-color:#22508F"/>
				</linearGradient>
				<path class="st20" d="M1536,622.8l-29.4,41.5H1439l62.2-87.7c10.7,16,21.8,30.5,31.9,42.6L1536,622.8z"/>
			</g>
			
				<linearGradient id="SVGID_41_" gradientUnits="userSpaceOnUse" x1="1671.1014" y1="-833.3013" x2="1671.1014" y2="-260.4269" gradientTransform="matrix(1 0 0 1 0 1168)">
				<stop  offset="0" style="stop-color:#3367C1"/>
				<stop  offset="1" style="stop-color:#22508F"/>
			</linearGradient>
			
				<linearGradient id="SVGID_42_" gradientUnits="userSpaceOnUse" x1="1592.6162" y1="-666" x2="1605.7094" y2="-666" gradientTransform="matrix(1 0 0 1 0 1168)">
				<stop  offset="0" style="stop-color:#3367C1"/>
				<stop  offset="1" style="stop-color:#22508F"/>
			</linearGradient>
			<path class="st21" d="M1615,616.9h29.7c-2.5-3.2-5.3-7.2-8.5-12c-3.4-5.1-6.7-9.8-9.8-14.2l-33.1-48.8l-19.1,27
				c7.1,9.5,14.9,19.2,23.5,29C1603.2,604.3,1609,610.6,1615,616.9 M1542.3,518.7l15.1-21.3c3.9-5.3,8.7-10.1,14.6-14.3
				c5.9-4.2,13.3-6.3,22.4-6.3c8.6,0,15.9,2,21.7,5.9c5.8,4,10.7,8.9,14.8,14.8l115.4,167H1665h-28.6h-42.6
				c-17.9-17.4-34.7-35.4-50-53.8c-124.4-149.8-103.7-271.2,46.1-271.2c83.8,0,190.4,38.1,289.8,97.8
				c-86.8-49-177.7-79.8-249.1-79.8C1524.8,357.4,1493.6,424.8,1542.3,518.7z"/>
			<g>
				
					<linearGradient id="SVGID_43_" gradientUnits="userSpaceOnUse" x1="1887.8549" y1="-833.3013" x2="1887.8549" y2="-260.4269" gradientTransform="matrix(1 0 0 1 0 1168)">
					<stop  offset="0" style="stop-color:#3367C1"/>
					<stop  offset="1" style="stop-color:#22508F"/>
				</linearGradient>
				
					<linearGradient id="SVGID_44_" gradientUnits="userSpaceOnUse" x1="1605.7411" y1="-388.0502" x2="2168.4097" y2="-388.0502" gradientTransform="matrix(1 0 0 1 0 1168)">
					<stop  offset="0" style="stop-color:#3367C1"/>
					<stop  offset="1" style="stop-color:#22508F"/>
				</linearGradient>
				<path class="st22" d="M1608.3,678.2c127.2,117.1,305.3,203.6,431.8,203.6c111.5,0,151.4-67.3,113.2-163.6
					c20.6,71.8-15.5,120.1-104.9,120.1c-105.2,0-252.8-66.8-367.1-160.2L1608.3,678.2L1608.3,678.2z"/>
			</g>
		</g>
	</g>
</g>
<g>
	<rect x="2440" class="st23" width="1200" height="1200"/>
</g>
<g>
	<g>
		<g>
			<g>
				
					<linearGradient id="SVGID_45_" gradientUnits="userSpaceOnUse" x1="3040.1001" y1="-975.2826" x2="3040.1001" y2="-242.9082" gradientTransform="matrix(1 0 0 1 0 1168)">
					<stop  offset="0" style="stop-color:#FFC043"/>
					<stop  offset="1" style="stop-color:#D19831"/>
				</linearGradient>
				
					<linearGradient id="SVGID_46_" gradientUnits="userSpaceOnUse" x1="2941.125" y1="-651.8645" x2="3138.8403" y2="-651.8645" gradientTransform="matrix(1 0 0 1 0 1168)">
					<stop  offset="0" style="stop-color:#FFC043"/>
					<stop  offset="1" style="stop-color:#D19831"/>
				</linearGradient>
				<path class="st24" d="M3137.9,648.6l-95.8-264.9h-38.9l-60.9,180c0.9,0.7,1.8,1.4,2.7,2.2l26,19.4l35.5-108.9l53.3,150.2
					C3079.5,637.1,3125.3,645.5,3137.9,648.6"/>
				
					<linearGradient id="SVGID_47_" gradientUnits="userSpaceOnUse" x1="3030.1504" y1="-975.2826" x2="3030.1504" y2="-242.9082" gradientTransform="matrix(1 0 0 1 0 1168)">
					<stop  offset="0" style="stop-color:#FFC043"/>
					<stop  offset="1" style="stop-color:#D19831"/>
				</linearGradient>
				
					<linearGradient id="SVGID_48_" gradientUnits="userSpaceOnUse" x1="2784.9004" y1="-470.3513" x2="3275.478" y2="-470.3513" gradientTransform="matrix(1 0 0 1 0 1168)">
					<stop  offset="0" style="stop-color:#FFC043"/>
					<stop  offset="1" style="stop-color:#D19831"/>
				</linearGradient>
				<path class="st25" d="M3273.5,883.5c0,0-11.9,3.2-21.7-3.2c-9.7-6.5-17.3-17.3-29.2-42.2c-6.2-13-13.6-28.9-19.2-41.2
					c23.5,0.9,46.4,0.3,69-1.1v-47.6c0,0-164.6,23.8-283.7-57.4c-119.1-81.2-177.6-171.1-190.5-191.6
					c-7.6-12.1,25.5,77.7,97.8,156.1l-64.9,174.9c-8.5,23.2-19.1,50.1-45.2,54.3v12.7c18.3,0,38.8-4.2,58.6-4.2
					c19.7,0,39.5,4.2,59.2,4.2v-12.7c-21.2-1.4-33.2-12.7-33.2-36.7c0-21.1,19.6-66.9,35.1-116.2h0.2l10.4-31.8l0,0l7-17.3
					c12.6,11.4,26.1,22.3,40.6,32.2c62.8,42.8,119.5,64.5,172.6,74.7c7.1,14.7,34.9,73.8,25.5,83.3c-10.8,10.8-28.1,11.9-32.5,13
					c-4.3,1.1-1.1,10.8-1.1,10.8s76.4-4.6,80.2-4.6c6,0,65.9,4.6,65.9,4.6L3273.5,883.5z"/>
				
					<linearGradient id="SVGID_49_" gradientUnits="userSpaceOnUse" x1="3019.0647" y1="-975.2826" x2="3019.0647" y2="-242.9082" gradientTransform="matrix(1 0 0 1 0 1168)">
					<stop  offset="0" style="stop-color:#FFC043"/>
					<stop  offset="1" style="stop-color:#D19831"/>
				</linearGradient>
				
					<linearGradient id="SVGID_50_" gradientUnits="userSpaceOnUse" x1="2780.4294" y1="-605.7516" x2="3257.7" y2="-605.7516" gradientTransform="matrix(1 0 0 1 0 1168)">
					<stop  offset="0" style="stop-color:#FFC043"/>
					<stop  offset="1" style="stop-color:#D19831"/>
				</linearGradient>
				<path class="st26" d="M2782.5,413.7c-9.7-15.4,46.6,134.3,165.7,215.5c119.1,81.2,216.5,86.6,308.5,81.2v-47.6
					c0,0-164.6,23.8-283.7-57.4C2853.9,524.1,2795.5,434.2,2782.5,413.7"/>
			</g>
			<g>
				<g>
					
						<linearGradient id="SVGID_51_" gradientUnits="userSpaceOnUse" x1="3144.6997" y1="-975.2826" x2="3144.6997" y2="-242.9082" gradientTransform="matrix(1 0 0 1 0 1168)">
						<stop  offset="0" style="stop-color:#FFC043"/>
						<stop  offset="1" style="stop-color:#D19831"/>
					</linearGradient>
					
						<linearGradient id="SVGID_52_" gradientUnits="userSpaceOnUse" x1="3086.53" y1="-865.2" x2="3202.5999" y2="-865.2" gradientTransform="matrix(1 0 0 1 0 1168)">
						<stop  offset="0" style="stop-color:#FFC043"/>
						<stop  offset="1" style="stop-color:#D19831"/>
					</linearGradient>
					<path class="st27" d="M3161.7,288.7c23.4,3.3,39.9,18.1,39.9,42.1c0,29.3-22.5,49.8-58,49.8c-20.5,0-41.9-7.3-55.8-18.1
						L3102,335c11.5,11.7,25.1,17.8,39,17.8c17,0,26.7-8.2,26.4-21.6c0-13.9-9.5-20.9-26.7-20.9h-23.6v-19.4l36.1-37.7h-58V225h99.2
						v20.7l-40.3,42.1L3161.7,288.7z"/>
				</g>
			</g>
		</g>
	</g>
</g>
<g>
	<rect y="1220" class="st28" width="1200" height="1200"/>
</g>
<g>
	<g>
		<g>
			<g>
				<g>
					
						<linearGradient id="SVGID_53_" gradientUnits="userSpaceOnUse" x1="551.311" y1="293.8442" x2="551.311" y2="1046.9436" gradientTransform="matrix(1 0 0 1 0 1168)">
						<stop  offset="0" style="stop-color:#8A39D8"/>
						<stop  offset="1" style="stop-color:#6427A6"/>
					</linearGradient>
					
						<linearGradient id="SVGID_54_" gradientUnits="userSpaceOnUse" x1="193.9634" y1="651.675" x2="908.6587" y2="651.675" gradientTransform="matrix(1 0 0 1 0 1168)">
						<stop  offset="0" style="stop-color:#8A39D8"/>
						<stop  offset="1" style="stop-color:#6427A6"/>
					</linearGradient>
					<path class="st29" d="M715.4,2175.3c-11,0-23.1-0.7-36.5-2.2c-38.8-4.2-84.4-14.2-131.8-29c-50.1-15.6-124.7-43.6-196-88.1
						c-67.8-42.4-115.2-89.1-140.7-138.6l0,0c-26.1-50.7-18.8-126.1,19.6-201.7c19.4-38.2,45.2-74,76.8-106.5
						c34.1-35.1,73.4-64.7,116.7-87.9c43.5-23.2,89.8-39.7,137.7-48.9c44.8-8.6,88.9-10.6,131.2-5.8c40.7,4.6,78.4,15.5,108.9,31.7
						c31.9,16.9,56.2,39.7,70.2,65.9c23,43.1,35.2,99,36.1,166.3c0.8,56.8-6.6,121.2-21.5,186.3c-13.2,58-32.1,114.8-53,159.9
						c-15.3,33-39,75.3-64.9,89.1C756.2,2172,738.5,2175.3,715.4,2175.3z M237,1903.6c23,44.7,66.7,87.4,129.9,126.9
						c53.5,33.4,120.6,63.6,189,84.9c100.6,31.3,175.8,35.7,198.1,23.8c27.6-14.8,74.8-106.6,102.8-229.3
						c31.5-137.8,27.2-258.7-11.8-331.7c-22.9-42.9-81.2-73.5-155.9-81.9c-38.7-4.3-80.9-2.4-122.2,5.5
						c-45,8.6-88.4,24.1-129.2,45.9c-40.6,21.7-77.4,49.4-109.4,82.3c-29.5,30.4-53.6,63.8-71.6,99.2c-16.9,33.2-27.5,67-30.8,97.7
						C222.8,1856.8,226.6,1883.3,237,1903.6L237,1903.6z"/>
				</g>
				
					<linearGradient id="SVGID_55_" gradientUnits="userSpaceOnUse" x1="544.35" y1="293.8442" x2="544.35" y2="1046.9436" gradientTransform="matrix(1 0 0 1 0 1168)">
					<stop  offset="0" style="stop-color:#8A39D8"/>
					<stop  offset="1" style="stop-color:#6427A6"/>
				</linearGradient>
				
					<linearGradient id="SVGID_56_" gradientUnits="userSpaceOnUse" x1="489.3284" y1="592.2858" x2="599.1404" y2="592.2858" gradientTransform="matrix(1 0 0 1 0 1168)">
					<stop  offset="0" style="stop-color:#8A39D8"/>
					<stop  offset="1" style="stop-color:#6427A6"/>
				</linearGradient>
				<path class="st30" d="M598.2,1833.2l-52.7-145.8H524l-33.5,99.1c0.5,0.4,1,0.8,1.5,1.2l14.3,10.7l19.5-60l29.4,82.7
					C566,1826.8,591.2,1831.5,598.2,1833.2"/>
				
					<linearGradient id="SVGID_57_" gradientUnits="userSpaceOnUse" x1="577.5125" y1="293.8442" x2="577.5125" y2="1046.9436" gradientTransform="matrix(1 0 0 1 0 1168)">
					<stop  offset="0" style="stop-color:#8A39D8"/>
					<stop  offset="1" style="stop-color:#6427A6"/>
				</linearGradient>
				
					<linearGradient id="SVGID_58_" gradientUnits="userSpaceOnUse" x1="333.4519" y1="651.7581" x2="821.5729" y2="651.7581" gradientTransform="matrix(1 0 0 1 0 1168)">
					<stop  offset="0" style="stop-color:#8A39D8"/>
					<stop  offset="1" style="stop-color:#6427A6"/>
				</linearGradient>
				<path class="st31" d="M817.8,1894.8l-22.9-47.2l-3.1-5.7l-3.3-5.9c-2-3.5-3.5-6.7-4.2-9.3c-0.2-0.7-0.2-0.8-0.3-1.3l-0.1-1.6
					l-0.1-0.6l0,0v-0.3c0-1.4,0.1-3.1,0.3-4.9c0.4-2.8,1.1-6.8,1.7-10.5c4.2-7.3,7.8-15.9,9.9-24.4c2.4-9.3,3.3-18.3,3.4-27.7
					c0.1-8.3-0.4-18.3-1.1-26.2l-0.3-3.1l-0.4-3.5l-0.8-6.8c-0.8-4.5-1.5-9-2.6-13.4c-4.2-17.7-11.4-34.7-20.9-50.1
					c-9.2-15.3-20.5-29.3-33.1-41.9c-3.1-3.2-6.5-6.1-9.7-9.2c-3.4-2.9-7.2-6.2-10.4-8.6l-5-3.8l-5.7-4c-3.6-2.6-7.4-4.9-11.2-7.2
					c-15.3-9.4-31.5-16.6-49.1-22c-16.5-4.9-34.1-8.5-51.5-10.3c-17.5-1.9-35.1-2.1-52.6-1c-17.8,1.3-34.4,4.2-51.5,7.9
					c-16.9,3.7-33.7,8.5-50,15c-16.2,6.6-31.9,14.9-46.3,25.4c-14.3,10.5-27.2,23.2-37.1,38.2c-10,14.8-17.1,31.4-21,48.5
					s-5,34.7-4,51.8c1.2,17.2,4.3,34.1,9,50.4s10.8,32.2,18.6,47.1c-5.9-15.7-10.1-32-13.1-48.4s-4.6-32.9-4.3-49.4
					c0.4-32.7,9.4-65.2,28.7-90.3c9.5-12.6,21.4-23.2,34.5-32.1c13.2-8.8,27.7-15.7,42.8-21.1c15.1-5.6,30.9-9.6,46.8-12.6
					s32.6-5.2,48.3-6c16.1-0.7,32.2,0,48.1,2c15.9,2.1,31.4,5.7,47,10.3c14.5,4.6,29.1,11.3,42.4,19.6c3.3,2.1,6.7,4.2,9.9,6.5
					l4.6,3.2l5,3.8c3.5,2.6,6,4.9,9,7.4c2.9,2.7,5.9,5.2,8.6,8.1c11.2,11,21.1,23.4,29.6,36.8c8.4,13,14.5,27.3,18.6,42.2
					c1.1,3.7,1.8,7.5,2.6,11.3l0.9,5.7l0.5,2.8l0.4,3.1c1.1,8.7,1.7,15.6,2,24.1c0.2,7.4-0.4,15.2-1.8,22.3
					c-1.5,7.3-3.7,13.8-7.3,20.9l-0.2,0.3c-0.5,1-0.9,2.1-1,3.3l0,0c-0.6,4.2-1.3,7.7-2,12.9c-0.3,2.5-0.5,5.1-0.5,8v0.5l0.1,1
					l0.1,0.8l0.1,1.6c0.2,1.6,0.6,3.6,1,5c1.6,5.7,4,10.2,6.2,14.2l3,5.4l3.1,5.7l22.1,45.6c1.2,2.6,1.2,4.2,0.9,6
					c-0.3,1.6-1.7,3.8-3.3,5.3c-0.7,0.6-1.8,1.7-2,1.6c-0.3,0.2-0.6,0.4-1.2,0.8c-1.1,0.7-2.4,1.1-3.7,1.6c-1.4,0.4-2.9,0.7-4.7,0.9
					l-3.3,0.4c-0.7,0.1-1.4,0.2-2.4,0.4c-0.5,0.1-1.2,0.3-1.8,0.5c-0.9,0.4-1.5,0.5-2.7,1.2c-2.1,1-4.8,4.1-5.6,6.3
					c-0.6,1.3-0.6,2-0.9,2.9c-0.1,0.7-0.2,1.4-0.3,1.9c-0.2,2.1-0.1,3.1-0.1,4.3l0.1,6.5l0.3,12.9v1.6v0.1v0.7l-0.1,0.7
					c0-0.1-0.1-0.1-0.1-0.2s0.1-0.3,0,0c-0.2,0.6-0.7,1.6-1.5,2.7c-1.4,2.1-4.4,4.8-6.4,6.3l-0.2,0.2c-4.4,3.1-5.8,9.1-3.2,13.9
					l0.2,0.3l1.2,1.7c-0.7-0.9,0,0,0,1.1c0.2,1.2,0.1,2.6-0.2,3.9c-0.2,1.3-0.6,2.5-1.1,3.3c-1.1,2-2.4,4.4-3.4,6l-3.6,5.4
					c-0.6,0.9-1.9,3.1-2.6,4.6c-0.7,1.6-1.4,3.2-1.9,5c-1,3.5-1.4,7.3-1.1,10.7c0.3,3.9,0.8,5.7,1.1,8.1c0.2,2.2,0.4,3.4,0.4,5.9
					c0.1,2,0.1,4.8,0.2,6.5c0,1.1,0,2.6-0.1,3.4c-0.1,0.8-0.1,1.6-0.2,2.4c-0.2,1.8-0.6,3.1-1,4.4c-1,2.4-2.2,3.8-4.5,5.5
					c-2.4,1.6-5.9,3-9.8,4c-8.8,2.6-17.3,4.2-26.3,5.4c-8.9,1.2-18,1.8-27.1,2c-18.2,0.3-36.6-1.3-54.7-4.3
					c-18.1-3.1-36.1-7.5-53.7-13.3c-8.8-2.8-17.5-6-26.1-9.4s-17.1-7.1-25.6-11l-12.5-6.2c-4-2-7.7-4.2-11.5-6.6
					c-7.6-4.8-14.8-10-21.3-15.7s-12.3-11.9-16.5-18.4c-4.1-6.4-6.9-12.6-7.4-18.2c-0.6-6.1,1.4-16.5,4.8-29.7
					c3.3-12.9,10.3-34.4,18.8-61.5h0.1l5.7-17.5l0,0l3.8-9.5c6.9,6.3,14.4,12.3,22.3,17.7c34.6,23.6,65.8,35.5,95,41.1
					c3.9,8.1,19.2,40.7,14,45.9c-5.9,6-15.5,6.6-17.9,7.2s-0.6,5.9-0.6,5.9s42.1-2.5,44.2-2.5c3.3,0,36.3,2.5,36.3,2.5l-0.6-7.1
					c0,0-6.6,1.8-11.9-1.8c-5.4-3.6-9.5-9.5-16.1-23.2c-3.4-7.1-7.5-15.9-10.6-22.7c12.9,0.5,25.6,0.1,38-0.6v-26.2
					c0,0-90.6,13.1-156.1-31.6c-65.6-44.7-97.7-94.2-104.9-105.5c-4.2-6.6,14,42.8,53.8,85.9c0,0-27.3,72-35.7,96.3
					c-7,20.4-10.3,40-10.7,43.1c-2.5,22,27,44.2,35,50.7c8.1,6.5,16.5,12.1,25.3,17.2c4.4,2.5,8.9,5,13.5,7.1l13.3,6.1
					c8.9,4,17.8,7.9,26.9,11.4s18.3,6.9,27.6,9.8c18.6,6,37.7,10.6,57.2,13.9c19.4,3.1,39.2,4.8,59,4.3c9.9-0.2,19.9-1,29.8-2.3
					c9.8-1.3,20.1-3.6,29.5-6.4c5.2-1.6,10.7-3.5,16.3-7.3c2.8-1.9,5.4-4.3,7.7-7.1c2.2-2.9,4-6.1,5.2-9.4c1.1-3.2,1.9-6.5,2.2-9.5
					c0.2-1.5,0.3-3.1,0.4-4.7c0.1-1.6,0-2.5,0-3.8c-0.1-3.1-0.1-5-0.3-7.8c-0.1-2.3-0.5-5.9-0.8-8.4c-1-5.6-1.3-7.1-0.7-9.4
					c0.1-0.5,0.4-1.1,0.6-1.7c0.4-0.6,0.2-0.6,0.9-1.7l4.3-6.5c1.5-2.5,2.4-4.3,3.6-6.5c1.8-3.4,2.9-6.8,3.4-10.1
					c0.6-3.4,0.7-6.7,0.2-10.3c-0.1-0.8-0.3-1.6-0.4-2.4c1.7-1.7,3.4-3.6,5-5.9c1.7-2.4,3.3-5.2,4.4-8.7c0.3-0.7,0.6-2,0.8-3.2
					l0.3-1.8l0.1-0.9v-0.8v-1.3v-0.4v-1.6l-0.3-12.8l-0.1-3.1c2-0.3,4.1-0.8,6.2-1.4c2.7-0.9,5.5-1.9,8.1-3.4
					c1.3-0.6,2.7-1.6,4.2-2.7c1.7-1.2,2.1-1.7,3-2.5c2.6-2.4,4.2-4.5,6-7.3c1.7-2.7,3-5.8,3.8-9.2
					C821.5,1907.4,820.2,1900,817.8,1894.8z M773.8,1971.1l1,1.5l0,0C774.5,1972.1,774.2,1971.6,773.8,1971.1z"/>
				
					<linearGradient id="SVGID_59_" gradientUnits="userSpaceOnUse" x1="532.7087" y1="293.8442" x2="532.7087" y2="1046.9436" gradientTransform="matrix(1 0 0 1 0 1168)">
					<stop  offset="0" style="stop-color:#8A39D8"/>
					<stop  offset="1" style="stop-color:#6427A6"/>
				</linearGradient>
				
					<linearGradient id="SVGID_60_" gradientUnits="userSpaceOnUse" x1="400.9174" y1="617.6624" x2="664.5" y2="617.6624" gradientTransform="matrix(1 0 0 1 0 1168)">
					<stop  offset="0" style="stop-color:#8A39D8"/>
					<stop  offset="1" style="stop-color:#6427A6"/>
				</linearGradient>
				<path class="st32" d="M402.5,1703.9c-5.3-8.5,25.6,73.9,91.2,118.6s119.2,47.7,169.8,44.7V1841c0,0-90.6,13.1-156.1-31.6
					C441.9,1764.6,409.7,1715.2,402.5,1703.9"/>
			</g>
		</g>
	</g>
</g>
<g>
	<rect x="1220" y="1220" class="st33" width="1200" height="1200"/>
</g>
<g>
	<g>
		<g>
			
				<linearGradient id="SVGID_61_" gradientUnits="userSpaceOnUse" x1="1610.4368" y1="314.3462" x2="1952.4709" y2="737.3884" gradientTransform="matrix(1 0 0 1 0 1168)">
				<stop  offset="0" style="stop-color:#61FEFF"/>
				<stop  offset="1" style="stop-color:#23ABB8"/>
			</linearGradient>
			
				<linearGradient id="SVGID_62_" gradientUnits="userSpaceOnUse" x1="1460.9647" y1="462.9018" x2="2180.0352" y2="462.9018" gradientTransform="matrix(1 0 0 1 0 1168)">
				<stop  offset="0" style="stop-color:#61FEFF"/>
				<stop  offset="1" style="stop-color:#23ABB8"/>
			</linearGradient>
			<path class="st34" d="M1498.5,1765c7.6-23.5,17.8-46.1,30.5-67.5c0.1,0.1,0.2,0.1,0.3,0.2c0.2,0.1,0.4,0.3,0.7,0.4
				c0.8,0.5,1.7,1,2.6,1.4c0.3,0.2,0.6,0.3,0.9,0.5c0.9,0.5,1.8,1,2.7,1.4c0.2,0.1,0.4,0.2,0.7,0.3c1.1,0.6,2.3,1.2,3.4,1.7
				c0.2,0.1,0.5,0.2,0.7,0.4c0.9,0.5,1.8,0.9,2.8,1.4c0.4,0.2,0.7,0.3,1.1,0.5c0.9,0.4,1.8,0.9,2.8,1.3c0.3,0.1,0.6,0.3,0.8,0.4
				c1.2,0.6,2.4,1.1,3.6,1.6c0.3,0.1,0.6,0.2,0.8,0.4c1,0.4,1.9,0.9,2.9,1.3c0.4,0.2,0.8,0.3,1.2,0.5c1,0.4,1.9,0.8,2.9,1.2
				c0.3,0.1,0.7,0.3,1,0.4c1.3,0.5,2.6,1,3.9,1.6c0.3,0.1,0.6,0.2,0.9,0.3c1,0.4,2.1,0.8,3.1,1.2c0.4,0.2,0.9,0.3,1.3,0.5
				c1,0.4,2,0.7,3,1.1c0.4,0.1,0.8,0.3,1.1,0.4c1.4,0.5,2.7,1,4.1,1.5c0.3,0.1,0.6,0.2,0.9,0.3c1.1,0.4,2.2,0.8,3.4,1.2
				c0.5,0.2,0.9,0.3,1.4,0.5c1,0.3,2.1,0.7,3.1,1c0.4,0.1,0.8,0.3,1.2,0.4c1.4,0.5,2.9,0.9,4.3,1.4c0.3,0.1,0.5,0.2,0.8,0.2
				c1.2,0.4,2.4,0.8,3.7,1.1c0.5,0.1,1,0.3,1.5,0.4c1.1,0.3,2.2,0.7,3.3,1c0.4,0.1,0.9,0.3,1.3,0.4c1.5,0.4,3,0.9,4.6,1.3
				c0.2,0.1,0.5,0.1,0.7,0.2c1.3,0.4,2.7,0.7,4,1.1c0.5,0.1,1,0.3,1.5,0.4c1.2,0.3,2.4,0.6,3.6,0.9c0.4,0.1,0.9,0.2,1.3,0.3
				c1.6,0.4,3.2,0.8,4.9,1.2c0.2,0,0.3,0.1,0.5,0.1c1.5,0.4,3,0.7,4.5,1.1c0.5,0.1,1,0.2,1.4,0.3c1.3,0.3,2.5,0.6,3.8,0.9
				c0.4,0.1,0.9,0.2,1.3,0.3c1.6,0.4,3.2,0.7,4.8,1.1l-0.1,0.2h0.3l0,0c-0.1,0.6-0.2,1.2-0.3,1.8c-0.4,2.3-0.8,4.5-1.2,6.8
				c-0.2,1-0.4,2-0.5,3.1c-0.3,1.8-0.6,3.7-0.9,5.6c-0.2,1.1-0.4,2.3-0.5,3.4c-0.3,1.8-0.6,3.5-0.8,5.3c-0.1,0.7-0.2,1.4-0.3,2.2
				h35.4c0.1-0.6,0.2-1.2,0.3-1.8c0.2-1.1,0.4-2.2,0.5-3.3c0.3-1.7,0.6-3.4,0.9-5.1c0.2-1,0.4-2.1,0.5-3.1c0.3-2,0.7-3.9,1.1-5.9
				c0.1-0.8,0.3-1.5,0.4-2.3c0-0.1,0-0.2,0.1-0.3c0.3,0.1,0.7,0.1,1,0.2c1.2,0.2,2.3,0.4,3.5,0.6c1.9,0.3,3.7,0.6,5.6,0.9
				c1.2,0.2,2.5,0.4,3.8,0.6c1.8,0.3,3.7,0.5,5.5,0.8c1.3,0.2,2.6,0.3,3.8,0.5c1.9,0.2,3.7,0.5,5.6,0.7c1.3,0.2,2.5,0.3,3.8,0.5
				c1.9,0.2,3.9,0.5,5.9,0.7c1.2,0.1,2.4,0.3,3.6,0.4c2.1,0.2,4.3,0.5,6.5,0.7c1,0.1,2.1,0.2,3.1,0.3c3,0.3,6.1,0.6,9.1,0.9
				c0.2,0,0.4,0,0.5,0.1c3.2,0.3,6.5,0.6,9.8,0.8c1,0.1,2,0.1,2.9,0.2c2.3,0.2,4.6,0.3,6.9,0.5c1.2,0.1,2.5,0.2,3.7,0.2
				c2.1,0.1,4.1,0.3,6.2,0.4c1.3,0.1,2.7,0.1,4,0.2c2,0.1,4,0.2,6,0.3c1.4,0.1,2.7,0.1,4.1,0.2c2,0.1,4,0.2,6,0.2
				c1.4,0,2.7,0.1,4.1,0.1c2.1,0.1,4.1,0.1,6.2,0.2c1.3,0,2.6,0.1,3.9,0.1c2.3,0,4.5,0.1,6.8,0.1c1.1,0,2.2,0,3.3,0
				c3.4,0,6.7,0.1,10.1,0.1s6.7,0,10.1-0.1c1.1,0,2.2,0,3.3,0c2.3,0,4.5-0.1,6.8-0.1c1.3,0,2.6-0.1,3.9-0.1c2.1-0.1,4.1-0.1,6.2-0.2
				c1.4,0,2.7-0.1,4.1-0.1c2-0.1,4-0.1,6-0.2c1.4-0.1,2.7-0.1,4.1-0.2c2-0.1,4-0.2,6-0.3c1.3-0.1,2.7-0.1,4-0.2
				c2.1-0.1,4.1-0.2,6.2-0.4c1.2-0.1,2.5-0.2,3.7-0.2c2.3-0.2,4.6-0.3,6.9-0.5c1-0.1,2-0.1,2.9-0.2c3.3-0.3,6.5-0.5,9.8-0.8
				c0.2,0,0.4,0,0.5,0c3.1-0.3,6.1-0.6,9.1-0.9c1-0.1,2.1-0.2,3.1-0.3c2.2-0.2,4.3-0.4,6.5-0.7c1.2-0.1,2.4-0.3,3.6-0.4
				c2-0.2,3.9-0.5,5.9-0.7c1.3-0.2,2.5-0.3,3.8-0.5c1.9-0.2,3.8-0.5,5.6-0.7c1.3-0.2,2.6-0.3,3.8-0.5c1.9-0.3,3.7-0.5,5.6-0.8
				c1.2-0.2,2.5-0.4,3.7-0.5c1.9-0.3,3.8-0.6,5.7-0.9c1.2-0.2,2.3-0.4,3.5-0.6c0.3-0.1,0.7-0.1,1-0.2c0,0.1,0,0.2,0.1,0.3
				c0.1,0.7,0.2,1.3,0.4,2c0.4,2,0.8,4.1,1.1,6.1c0.2,1,0.3,2,0.5,3c0.3,1.7,0.6,3.5,0.9,5.2c0.2,1.1,0.4,2.2,0.5,3.3
				c0.1,0.6,0.2,1.2,0.3,1.9h35.4c-0.1-0.7-0.2-1.4-0.3-2.1c-0.3-1.8-0.5-3.6-0.8-5.3c-0.2-1.1-0.4-2.3-0.5-3.4
				c-0.3-1.9-0.6-3.7-0.9-5.6c-0.2-1-0.3-2-0.5-3.1c-0.4-2.2-0.8-4.5-1.2-6.7c-0.1-0.6-0.2-1.3-0.4-1.9l0,0h0.3l-0.1-0.2
				c1.6-0.3,3.2-0.7,4.8-1.1c0.5-0.1,0.9-0.2,1.4-0.3c1.3-0.3,2.5-0.6,3.7-0.9c0.5-0.1,1-0.2,1.5-0.3c1.5-0.3,2.9-0.7,4.4-1.1
				c0.2,0,0.4-0.1,0.6-0.1c1.6-0.4,3.2-0.8,4.8-1.2c0.5-0.1,0.9-0.2,1.4-0.4c1.2-0.3,2.3-0.6,3.5-0.9c0.5-0.1,1-0.3,1.5-0.4
				c1.3-0.4,2.7-0.7,4-1.1c0.2-0.1,0.5-0.1,0.7-0.2c1.5-0.4,3.1-0.9,4.6-1.3c0.5-0.1,0.9-0.3,1.3-0.4c1.1-0.3,2.2-0.6,3.3-1
				c0.5-0.1,1-0.3,1.5-0.4c1.2-0.4,2.4-0.7,3.6-1.1c0.3-0.1,0.6-0.2,0.8-0.3c1.5-0.5,2.9-0.9,4.3-1.4c0.4-0.1,0.8-0.3,1.3-0.4
				c1.1-0.3,2.1-0.7,3.1-1c0.5-0.2,0.9-0.3,1.4-0.5c1.1-0.4,2.2-0.8,3.4-1.2c0.3-0.1,0.6-0.2,0.9-0.3c1.4-0.5,2.7-1,4.1-1.5
				c0.4-0.1,0.8-0.3,1.1-0.4c1-0.4,2-0.7,3-1.1c0.4-0.2,0.9-0.3,1.3-0.5c1-0.4,2.1-0.8,3.1-1.2c0.3-0.1,0.6-0.2,0.9-0.3
				c1.3-0.5,2.6-1,3.9-1.6c0.3-0.1,0.7-0.3,1-0.4c1-0.4,1.9-0.8,2.9-1.2c0.4-0.2,0.8-0.3,1.2-0.5c1-0.4,2-0.9,2.9-1.3
				c0.3-0.1,0.5-0.2,0.8-0.4c1.2-0.5,2.4-1.1,3.6-1.6c0.3-0.1,0.5-0.3,0.8-0.4c0.9-0.4,1.9-0.9,2.8-1.3c0.4-0.2,0.7-0.3,1.1-0.5
				c0.9-0.4,1.8-0.9,2.8-1.4c0.2-0.1,0.5-0.2,0.7-0.4c1.1-0.6,2.3-1.2,3.4-1.7c0.2-0.1,0.4-0.2,0.7-0.3c0.9-0.5,1.8-1,2.7-1.4
				c0.3-0.2,0.6-0.3,0.9-0.5c0.9-0.5,1.7-0.9,2.6-1.4c0.2-0.1,0.5-0.3,0.7-0.4c0.1-0.1,0.2-0.1,0.3-0.2c12.7,21.4,22.9,44,30.5,67.5
				h36.6c-8.9-30.4-21.6-59.7-38.1-87.1l0.3-0.2l-9.3-14.1l0,0l-10-15.1l-0.4,0.3c-70.3-95.6-181.3-152.2-300.7-152.2
				c-119.3,0-230.4,56.6-300.7,152.2l-0.4-0.3l-10,15.1l-9.3,14.1l0.3,0.2c-16.5,27.4-29.2,56.7-38.1,87.1L1498.5,1765L1498.5,1765z
				 M2091.6,1668.2c-0.8,0.4-1.6,0.9-2.4,1.3c-0.2,0.1-0.4,0.2-0.6,0.3c-0.8,0.4-1.5,0.8-2.3,1.2c-0.3,0.2-0.7,0.3-1,0.5
				c-0.7,0.4-1.4,0.7-2.2,1.1c-0.3,0.1-0.6,0.3-0.9,0.4c-1,0.5-2,1-3,1.4c-0.3,0.1-0.6,0.3-0.8,0.4c-0.8,0.4-1.6,0.7-2.4,1.1
				c-0.4,0.2-0.7,0.3-1.1,0.5c-0.8,0.4-1.6,0.7-2.4,1c-0.3,0.1-0.6,0.3-0.9,0.4c-1.1,0.5-2.1,0.9-3.2,1.4c-0.3,0.1-0.7,0.3-1,0.4
				c-0.8,0.3-1.6,0.7-2.4,1c-0.4,0.2-0.8,0.3-1.3,0.5c-0.9,0.3-1.7,0.7-2.6,1c-0.3,0.1-0.6,0.2-0.9,0.4c-1.1,0.4-2.3,0.9-3.4,1.3
				c-0.4,0.1-0.8,0.3-1.2,0.4c-0.8,0.3-1.7,0.6-2.5,0.9c-0.4,0.2-0.9,0.3-1.3,0.5c-1,0.3-2,0.7-3,1c-0.3,0.1-0.5,0.2-0.8,0.3
				c-1.2,0.4-2.4,0.8-3.7,1.2c-0.4,0.1-0.9,0.3-1.3,0.4c-0.9,0.3-1.8,0.6-2.6,0.9c-0.5,0.1-0.9,0.3-1.4,0.4
				c-1.2,0.4-2.3,0.7-3.5,1.1c-0.3,0.1-0.6,0.2-0.8,0.3c-1.2,0.4-2.4,0.7-3.5,1.1c-0.5,0.1-0.9,0.3-1.4,0.4
				c-0.9,0.3-1.9,0.6-2.9,0.8c-0.5,0.1-0.9,0.3-1.4,0.4c-1.3,0.4-2.7,0.8-4.1,1.1c-0.3,0.1-0.5,0.1-0.8,0.2
				c-1.2,0.3-2.3,0.6-3.5,0.9c-0.5,0.1-1,0.3-1.5,0.4c-1,0.3-2,0.5-3.1,0.8c-0.4,0.1-0.9,0.2-1.3,0.3c-1.4,0.4-2.8,0.7-4.3,1.1
				c-0.3,0.1-0.7,0.2-1,0.2c-1.2,0.3-2.3,0.6-3.5,0.8c-0.5,0.1-1,0.2-1.5,0.3c-1.1,0.3-2.2,0.5-3.4,0.8c-0.4,0.1-0.8,0.2-1.2,0.3
				c-1.4,0.3-2.8,0.6-4.2,0.9c0-0.2-0.1-0.3-0.1-0.5c-0.2-0.7-0.4-1.5-0.6-2.2c-0.3-1.1-0.6-2.2-0.9-3.4c-0.2-0.8-0.4-1.5-0.6-2.3
				c-0.3-1.1-0.6-2.1-0.9-3.2c-0.2-0.8-0.4-1.6-0.6-2.3c-0.3-1-0.6-2.1-0.9-3.1c-0.2-0.8-0.4-1.6-0.7-2.3c-0.3-1-0.6-2.1-0.9-3.1
				c-0.2-0.8-0.5-1.5-0.7-2.3c-0.3-1-0.6-2.1-1-3.1c-0.2-0.7-0.5-1.5-0.7-2.2c-0.3-1.1-0.7-2.1-1-3.2c-0.2-0.7-0.4-1.4-0.7-2.1
				c-0.4-1.1-0.7-2.2-1.1-3.4c-0.2-0.6-0.4-1.2-0.6-1.8c-0.5-1.4-0.9-2.8-1.4-4.1c-0.1-0.3-0.2-0.7-0.3-1c-0.6-1.7-1.2-3.4-1.8-5.1
				c-0.1-0.4-0.3-0.8-0.5-1.2c-0.5-1.3-0.9-2.5-1.4-3.8c-0.2-0.6-0.5-1.2-0.7-1.8c-0.4-1.1-0.8-2.1-1.2-3.2
				c-0.3-0.6-0.5-1.3-0.8-1.9c-0.4-1-0.8-2-1.2-2.9c-0.3-0.7-0.5-1.3-0.8-2c-0.4-0.9-0.8-1.9-1.2-2.8c-0.3-0.7-0.6-1.3-0.8-2
				c-0.4-0.9-0.8-1.8-1.2-2.8c-0.3-0.7-0.6-1.3-0.9-2c-0.4-0.9-0.8-1.8-1.2-2.7c-0.3-0.6-0.6-1.3-0.9-1.9c-0.4-0.9-0.8-1.8-1.3-2.8
				c-0.3-0.6-0.6-1.2-0.8-1.8c-0.5-1-0.9-1.9-1.4-2.9c-0.3-0.5-0.5-1.1-0.8-1.6c-0.5-1.1-1.1-2.2-1.6-3.3c-0.2-0.4-0.4-0.8-0.6-1.1
				c-0.7-1.5-1.5-2.9-2.2-4.4c-0.1-0.2-0.2-0.4-0.3-0.7c-0.6-1.2-1.3-2.4-1.9-3.6c-0.3-0.5-0.5-0.9-0.8-1.4c-0.5-0.9-1-1.9-1.5-2.8
				c-0.3-0.5-0.6-1.1-0.9-1.6c-0.5-0.8-0.9-1.7-1.4-2.5c-0.3-0.6-0.7-1.1-1-1.7c-0.5-0.8-0.9-1.6-1.4-2.4c-0.3-0.6-0.7-1.1-1-1.7
				c-0.5-0.8-0.9-1.5-1.4-2.3c-0.3-0.6-0.7-1.1-1-1.7c-0.5-0.8-0.9-1.5-1.4-2.3c-0.4-0.5-0.7-1.1-1.1-1.6c-0.5-0.8-1-1.5-1.5-2.2
				c-0.3-0.5-0.7-1.1-1-1.6c-0.5-0.8-1-1.5-1.6-2.3c-0.3-0.5-0.7-1-1-1.4c-0.6-0.8-1.2-1.7-1.7-2.5c-0.3-0.4-0.5-0.8-0.8-1.2
				c-0.9-1.2-1.7-2.4-2.6-3.6c-1-1.4-2.1-2.8-3.1-4.1c-0.4-0.5-0.7-0.9-1.1-1.4c-0.7-0.9-1.4-1.8-2.1-2.6c-0.4-0.5-0.9-1-1.3-1.6
				c-0.6-0.8-1.3-1.6-1.9-2.3c-0.5-0.5-0.9-1.1-1.4-1.6c-0.6-0.7-1.3-1.5-1.9-2.2c-0.2-0.2-0.3-0.4-0.5-0.6
				C1985.9,1566.1,2047.5,1608.8,2091.6,1668.2z M1724.6,1603.1c0.4-0.7,0.9-1.5,1.3-2.2c0.3-0.5,0.6-1,0.9-1.5
				c0.4-0.7,0.9-1.4,1.3-2.1c0.3-0.5,0.6-1,0.9-1.4c0.4-0.7,0.9-1.4,1.3-2c0.3-0.5,0.6-0.9,0.9-1.4c0.5-0.7,0.9-1.4,1.4-2.1
				c0.3-0.4,0.6-0.9,0.9-1.3c0.5-0.7,1-1.5,1.6-2.2c0.2-0.4,0.5-0.7,0.7-1.1c0.8-1.1,1.5-2.1,2.3-3.2c1.1-1.5,2.2-2.9,3.4-4.4
				c1.2-1.5,2.4-3,3.6-4.5c0.6-0.8,1.3-1.5,1.9-2.3c17.5-20.2,42.4-40.1,72.8-40.1c36,0,64.3,27.9,81.8,51.3c0.8,1,1.6,2.1,2.3,3.2
				c0.3,0.4,0.5,0.7,0.8,1.1c0.5,0.7,1,1.5,1.5,2.2c0.3,0.4,0.6,0.9,0.9,1.3c0.5,0.7,0.9,1.4,1.4,2.1c0.3,0.5,0.6,0.9,0.9,1.4
				c0.4,0.7,0.9,1.3,1.3,2c0.3,0.5,0.6,1,0.9,1.5c0.4,0.7,0.9,1.4,1.3,2.1c0.3,0.5,0.6,1,0.9,1.5c0.4,0.7,0.9,1.4,1.3,2.1
				c0.3,0.5,0.6,1,0.9,1.5c0.5,0.8,0.9,1.5,1.3,2.3c0.3,0.5,0.5,0.9,0.8,1.4c0.5,0.9,1,1.8,1.5,2.7c0.2,0.3,0.4,0.7,0.6,1
				c0.7,1.3,1.4,2.5,2.1,3.8c0.1,0.1,0.1,0.3,0.2,0.4c0.6,1.1,1.2,2.3,1.8,3.5c0.2,0.4,0.4,0.8,0.6,1.3c0.5,0.9,0.9,1.8,1.4,2.7
				c0.2,0.5,0.5,1,0.7,1.5c0.4,0.8,0.8,1.7,1.2,2.5c0.3,0.5,0.5,1.1,0.8,1.6c0.4,0.8,0.8,1.7,1.2,2.5c0.3,0.5,0.5,1.1,0.8,1.6
				c0.4,0.8,0.8,1.7,1.2,2.6c0.2,0.5,0.5,1.1,0.7,1.6c0.4,0.9,0.8,1.8,1.2,2.7c0.2,0.5,0.5,1.1,0.7,1.6c0.4,1,0.8,1.9,1.2,2.9
				c0.2,0.5,0.4,0.9,0.6,1.4c0.5,1.2,1,2.4,1.5,3.6c0.1,0.3,0.2,0.5,0.3,0.8c0.6,1.5,1.2,3,1.8,4.5c0.1,0.2,0.2,0.4,0.3,0.7
				c0.5,1.3,1,2.6,1.5,3.8c0.2,0.5,0.4,1,0.5,1.4c0.4,1,0.8,2.1,1.2,3.1c0.2,0.6,0.4,1.1,0.6,1.7c0.3,1,0.7,2,1,2.9
				c0.2,0.6,0.4,1.2,0.6,1.8c0.3,1,0.7,1.9,1,2.9c0.2,0.6,0.4,1.2,0.6,1.9c0.3,1,0.6,1.9,1,2.9c0.2,0.6,0.4,1.2,0.6,1.9
				c0.3,1,0.6,2,1,3c0.2,0.6,0.4,1.2,0.6,1.8c0.3,1.1,0.7,2.2,1,3.3c0.2,0.5,0.3,1,0.5,1.6c0.4,1.4,0.8,2.8,1.2,4.3
				c0.1,0.2,0.1,0.4,0.2,0.7c0.5,1.7,0.9,3.3,1.4,5c0.1,0.4,0.2,0.9,0.4,1.3c0.3,1.2,0.7,2.5,1,3.7c0.2,0.6,0.3,1.3,0.5,1.9
				c0.2,0.8,0.4,1.6,0.6,2.4c-2.9,0.5-5.8,0.9-8.7,1.3c-0.9,0.1-1.9,0.3-2.9,0.4c-2,0.3-4,0.6-6,0.8c-1.1,0.2-2.3,0.3-3.4,0.5
				c-1.8,0.2-3.7,0.5-5.5,0.7c-1.2,0.2-2.4,0.3-3.7,0.4c-1.8,0.2-3.6,0.4-5.4,0.6c-1.2,0.1-2.5,0.3-3.7,0.4
				c-1.9,0.2-3.7,0.4-5.6,0.6c-1.2,0.1-2.4,0.2-3.6,0.4c-2,0.2-4.1,0.4-6.2,0.6c-1,0.1-2,0.2-3.1,0.3c-3,0.3-6,0.5-9,0.7
				c-0.1,0-0.2,0-0.3,0c-3.1,0.2-6.2,0.5-9.4,0.7c-1,0.1-2.1,0.1-3.1,0.2c-2.1,0.1-4.2,0.3-6.4,0.4c-1.2,0.1-2.4,0.1-3.7,0.2
				c-2,0.1-3.9,0.2-5.9,0.3c-1.3,0.1-2.6,0.1-3.8,0.2c-1.9,0.1-3.8,0.2-5.8,0.2c-1.3,0-2.6,0.1-3.9,0.1c-2,0.1-3.9,0.1-5.9,0.2
				c-1.2,0-2.5,0.1-3.7,0.1c-2.2,0-4.3,0.1-6.5,0.1c-1.1,0-2.1,0-3.2,0c-3.2,0-6.4,0.1-9.6,0.1s-6.4,0-9.6-0.1c-1.1,0-2.1,0-3.2,0
				c-2.2,0-4.3-0.1-6.5-0.1c-1.2,0-2.5-0.1-3.7-0.1c-2,0-4-0.1-5.9-0.2c-1.3,0-2.6-0.1-3.9-0.1c-1.9-0.1-3.9-0.1-5.8-0.2
				c-1.3-0.1-2.6-0.1-3.9-0.2c-2-0.1-3.9-0.2-5.9-0.3c-1.2-0.1-2.4-0.1-3.7-0.2c-2.1-0.1-4.2-0.2-6.4-0.4c-1-0.1-2.1-0.1-3.1-0.2
				c-3.1-0.2-6.2-0.4-9.4-0.7c-0.1,0-0.2,0-0.3,0c-3-0.2-6-0.5-9-0.7c-1-0.1-2.1-0.2-3.1-0.3c-2.1-0.2-4.1-0.4-6.2-0.6
				c-1.2-0.1-2.4-0.2-3.6-0.4c-1.9-0.2-3.7-0.4-5.6-0.6c-1.2-0.1-2.5-0.3-3.7-0.4c-1.8-0.2-3.6-0.4-5.4-0.6
				c-1.2-0.1-2.4-0.3-3.7-0.4c-1.8-0.2-3.7-0.5-5.5-0.7c-1.1-0.2-2.3-0.3-3.4-0.5c-2-0.3-4-0.6-6-0.8c-0.9-0.1-1.9-0.3-2.8-0.4
				c-2.9-0.4-5.8-0.9-8.7-1.3c0.2-0.8,0.4-1.6,0.6-2.4c0.2-0.6,0.3-1.2,0.5-1.9c0.3-1.2,0.7-2.5,1-3.7c0.1-0.4,0.2-0.9,0.4-1.3
				c0.5-1.7,0.9-3.3,1.4-5c0.1-0.3,0.1-0.5,0.2-0.7c0.4-1.4,0.8-2.8,1.2-4.2c0.2-0.5,0.3-1.1,0.5-1.6c0.3-1.1,0.7-2.2,1-3.2
				c0.2-0.6,0.4-1.2,0.6-1.8c0.3-1,0.6-2,0.9-3c0.2-0.6,0.4-1.3,0.6-1.9c0.3-1,0.6-1.9,1-2.9c0.2-0.6,0.4-1.3,0.6-1.9
				c0.3-1,0.7-1.9,1-2.9c0.2-0.6,0.4-1.2,0.6-1.8c0.3-1,0.7-1.9,1-2.9c0.2-0.6,0.4-1.1,0.6-1.7c0.4-1,0.8-2.1,1.1-3.1
				c0.2-0.5,0.4-1,0.5-1.5c0.5-1.3,1-2.5,1.4-3.8c0.1-0.2,0.2-0.5,0.3-0.7c0.6-1.5,1.2-3,1.8-4.5c0.1-0.3,0.2-0.5,0.3-0.8
				c0.5-1.2,1-2.4,1.5-3.6c0.2-0.5,0.4-0.9,0.6-1.4c0.4-1,0.8-1.9,1.2-2.9c0.2-0.5,0.5-1.1,0.7-1.6c0.4-0.9,0.8-1.8,1.2-2.7
				c0.2-0.5,0.5-1.1,0.7-1.6c0.4-0.9,0.8-1.7,1.2-2.6c0.3-0.5,0.5-1.1,0.8-1.6c0.4-0.8,0.8-1.7,1.2-2.5c0.3-0.5,0.5-1.1,0.8-1.6
				c0.4-0.9,0.8-1.7,1.3-2.6c0.2-0.5,0.5-1,0.7-1.5c0.5-0.9,0.9-1.8,1.4-2.7c0.2-0.4,0.4-0.8,0.6-1.2c0.6-1.2,1.3-2.4,1.9-3.6
				c0-0.1,0.1-0.2,0.1-0.3c0.7-1.3,1.4-2.6,2.1-3.8c0.2-0.3,0.4-0.6,0.5-1c0.5-0.9,1-1.8,1.6-2.8c0.3-0.4,0.5-0.9,0.8-1.3
				c0.5-0.8,0.9-1.6,1.4-2.3C1724.1,1604.1,1724.3,1603.6,1724.6,1603.1z M1723.6,1545.5c-0.2,0.2-0.3,0.4-0.5,0.6
				c-0.6,0.7-1.3,1.4-1.9,2.1c-0.5,0.5-0.9,1.1-1.4,1.6c-0.6,0.8-1.3,1.5-1.9,2.3c-0.4,0.5-0.9,1.1-1.3,1.6
				c-0.7,0.9-1.4,1.7-2.1,2.6c-0.4,0.5-0.7,0.9-1.1,1.4c-1.1,1.4-2.1,2.7-3.1,4.1c-0.9,1.2-1.7,2.4-2.6,3.6
				c-0.3,0.4-0.6,0.8-0.9,1.2c-0.6,0.8-1.1,1.6-1.7,2.4c-0.3,0.5-0.7,1-1,1.5c-0.5,0.7-1,1.5-1.5,2.2c-0.4,0.5-0.7,1.1-1.1,1.6
				c-0.5,0.7-1,1.5-1.4,2.2c-0.4,0.6-0.7,1.1-1.1,1.7c-0.5,0.7-0.9,1.5-1.4,2.2c-0.4,0.6-0.7,1.2-1.1,1.7c-0.5,0.7-0.9,1.5-1.4,2.2
				c-0.4,0.6-0.7,1.2-1.1,1.8c-0.5,0.8-0.9,1.5-1.3,2.3c-0.3,0.6-0.7,1.2-1,1.8c-0.5,0.8-0.9,1.6-1.4,2.4c-0.3,0.6-0.7,1.2-1,1.8
				c-0.5,0.9-1,1.7-1.4,2.6c-0.3,0.5-0.6,1.1-0.9,1.6c-0.6,1.1-1.1,2.1-1.7,3.2c-0.2,0.4-0.4,0.7-0.6,1.1c-0.7,1.4-1.5,2.9-2.2,4.3
				c-0.2,0.5-0.5,1-0.7,1.5c-0.5,1-1,2-1.5,3c-0.3,0.6-0.6,1.2-0.9,1.8c-0.4,0.9-0.9,1.8-1.3,2.7c-0.3,0.7-0.6,1.3-0.9,2
				c-0.4,0.9-0.8,1.7-1.2,2.6c-0.3,0.7-0.6,1.4-0.9,2c-0.4,0.9-0.8,1.7-1.2,2.6c-0.3,0.7-0.6,1.4-0.9,2.1c-0.4,0.9-0.8,1.8-1.1,2.6
				c-0.3,0.7-0.6,1.4-0.9,2.1c-0.4,0.9-0.7,1.8-1.1,2.7c-0.3,0.7-0.6,1.4-0.9,2.1c-0.4,0.9-0.7,1.9-1.1,2.8
				c-0.3,0.7-0.5,1.4-0.8,2.1c-0.4,1-0.8,2-1.2,3c-0.2,0.6-0.5,1.3-0.7,1.9c-0.4,1.2-0.9,2.3-1.3,3.5c-0.2,0.5-0.4,1-0.5,1.5
				c-0.6,1.7-1.2,3.4-1.8,5c-0.1,0.4-0.3,0.8-0.4,1.2c-0.5,1.3-0.9,2.6-1.4,4c-0.2,0.6-0.4,1.2-0.6,1.9c-0.4,1.1-0.7,2.2-1.1,3.3
				c-0.2,0.7-0.5,1.4-0.7,2.1c-0.3,1-0.7,2.1-1,3.2c-0.2,0.7-0.5,1.5-0.7,2.2c-0.3,1-0.6,2.1-1,3.1c-0.2,0.8-0.5,1.5-0.7,2.3
				c-0.3,1-0.6,2.1-0.9,3.1c-0.2,0.8-0.4,1.5-0.7,2.3c-0.3,1.1-0.6,2.1-0.9,3.2c-0.2,0.7-0.4,1.5-0.6,2.2c-0.3,1.1-0.6,2.2-0.9,3.3
				c-0.2,0.7-0.4,1.4-0.6,2.2c-0.3,1.2-0.6,2.4-0.9,3.6c-0.2,0.7-0.3,1.3-0.5,2c0,0.2-0.1,0.4-0.1,0.6c-1.4-0.3-2.8-0.6-4.2-0.9
				c-0.4-0.1-0.8-0.2-1.2-0.3c-1.1-0.3-2.3-0.5-3.4-0.8c-0.5-0.1-1-0.2-1.5-0.3c-1.2-0.3-2.4-0.6-3.5-0.8c-0.3-0.1-0.6-0.2-1-0.2
				c-1.4-0.4-2.9-0.7-4.3-1.1c-0.4-0.1-0.9-0.2-1.3-0.3c-1-0.3-2.1-0.5-3.1-0.8c-0.5-0.1-1-0.3-1.5-0.4c-1.2-0.3-2.3-0.6-3.5-0.9
				c-0.3-0.1-0.5-0.1-0.8-0.2c-1.4-0.4-2.7-0.8-4.1-1.1c-0.5-0.1-0.9-0.3-1.4-0.4c-1-0.3-1.9-0.6-2.8-0.8c-0.5-0.1-0.9-0.3-1.4-0.4
				c-1.2-0.4-2.4-0.7-3.5-1.1c-0.3-0.1-0.6-0.2-0.9-0.3c-1.2-0.4-2.3-0.7-3.5-1.1c-0.5-0.1-0.9-0.3-1.4-0.4
				c-0.9-0.3-1.8-0.6-2.6-0.9c-0.5-0.1-0.9-0.3-1.4-0.4c-1.2-0.4-2.5-0.8-3.7-1.2c-0.3-0.1-0.5-0.2-0.8-0.3c-1-0.3-2-0.7-2.9-1
				c-0.5-0.2-0.9-0.3-1.4-0.5c-0.8-0.3-1.6-0.6-2.5-0.9c-0.4-0.2-0.8-0.3-1.3-0.5c-1.1-0.4-2.3-0.9-3.4-1.3c-0.3-0.1-0.6-0.3-1-0.4
				c-0.9-0.3-1.7-0.7-2.5-1c-0.4-0.2-0.9-0.3-1.3-0.5c-0.8-0.3-1.6-0.6-2.3-1c-0.4-0.2-0.7-0.3-1.1-0.5c-1.1-0.5-2.1-0.9-3.2-1.4
				c-0.3-0.1-0.7-0.3-1-0.4c-0.8-0.3-1.5-0.7-2.3-1c-0.4-0.2-0.8-0.4-1.2-0.5c-0.8-0.4-1.5-0.7-2.3-1.1c-0.3-0.1-0.6-0.3-0.9-0.4
				c-1-0.5-2-0.9-3-1.4c-0.3-0.2-0.6-0.3-0.9-0.5c-0.7-0.4-1.4-0.7-2.1-1.1c-0.3-0.2-0.7-0.4-1-0.5c-0.8-0.4-1.5-0.8-2.3-1.2
				c-0.2-0.1-0.4-0.2-0.6-0.3c-0.8-0.4-1.6-0.9-2.4-1.3C1592.5,1608.8,1654.1,1566.1,1723.6,1545.5z"/>
			
				<linearGradient id="SVGID_63_" gradientUnits="userSpaceOnUse" x1="1486.7699" y1="414.3322" x2="1828.8041" y2="837.3746" gradientTransform="matrix(1 0 0 1 0 1168)">
				<stop  offset="0" style="stop-color:#61FEFF"/>
				<stop  offset="1" style="stop-color:#23ABB8"/>
			</linearGradient>
			
				<linearGradient id="SVGID_64_" gradientUnits="userSpaceOnUse" x1="1459.1246" y1="934.9781" x2="2180.9487" y2="934.9781" gradientTransform="matrix(1 0 0 1 0 1168)">
				<stop  offset="0" style="stop-color:#61FEFF"/>
				<stop  offset="1" style="stop-color:#23ABB8"/>
			</linearGradient>
			<path class="st35" d="M2143.1,1969c-7.7,25-18.3,49.1-31.7,71.8c-0.1,0-0.2-0.1-0.2-0.1c-0.3-0.2-0.5-0.3-0.8-0.5
				c-0.8-0.5-1.6-0.9-2.4-1.3c-0.4-0.2-0.7-0.4-1.1-0.6c-0.8-0.4-1.6-0.9-2.4-1.3c-0.3-0.2-0.6-0.3-0.9-0.5
				c-1.1-0.6-2.2-1.1-3.3-1.7c-0.3-0.1-0.6-0.3-0.8-0.4c-0.9-0.4-1.8-0.9-2.6-1.3c-0.4-0.2-0.8-0.4-1.2-0.6
				c-0.9-0.4-1.7-0.8-2.6-1.2c-0.3-0.2-0.7-0.3-1-0.5c-1.2-0.5-2.4-1.1-3.6-1.6c-0.3-0.1-0.6-0.3-0.9-0.4c-0.9-0.4-1.9-0.8-2.9-1.3
				c-0.4-0.2-0.9-0.4-1.3-0.6c-0.9-0.4-1.8-0.8-2.7-1.1c-0.4-0.2-0.8-0.3-1.2-0.5c-1.3-0.5-2.5-1-3.8-1.5c-0.3-0.1-0.6-0.2-0.9-0.4
				c-1-0.4-2-0.8-3.1-1.2c-0.5-0.2-0.9-0.4-1.4-0.5c-0.9-0.4-1.9-0.7-2.8-1.1c-0.4-0.2-0.9-0.3-1.3-0.5c-1.3-0.5-2.7-1-4-1.5
				c-0.3-0.1-0.6-0.2-0.9-0.3c-1.1-0.4-2.2-0.8-3.3-1.1c-0.5-0.2-1-0.3-1.5-0.5c-1-0.3-2-0.7-3-1c-0.5-0.2-0.9-0.3-1.4-0.5
				c-1.4-0.5-2.8-0.9-4.3-1.4c-0.3-0.1-0.6-0.2-0.9-0.3c-1.2-0.4-2.4-0.7-3.6-1.1c-0.5-0.2-1.1-0.3-1.6-0.5c-1-0.3-2.1-0.6-3.1-0.9
				c-0.5-0.1-1-0.3-1.5-0.4c-1.5-0.4-3-0.9-4.5-1.3c-0.3-0.1-0.5-0.1-0.8-0.2c-1.3-0.4-2.6-0.7-3.9-1.1c-0.5-0.1-1.1-0.3-1.6-0.4
				c-1.1-0.3-2.2-0.6-3.3-0.9c-0.5-0.1-1.1-0.3-1.6-0.4c-1.6-0.4-3.2-0.8-4.8-1.2c-0.2,0-0.4-0.1-0.6-0.1c-1.4-0.4-2.9-0.7-4.3-1
				c-0.5-0.1-1.1-0.3-1.6-0.4c-1.2-0.3-2.3-0.5-3.5-0.8c-0.5-0.1-1.1-0.2-1.6-0.4c-1.6-0.4-3.2-0.7-4.8-1.1l0.1-0.2h-0.3
				c0.1-0.6,0.2-1.1,0.3-1.7c0.4-2.3,0.8-4.5,1.2-6.8c0.2-1,0.3-2,0.5-3c0.3-1.9,0.6-3.7,0.9-5.6c0.2-1.1,0.4-2.2,0.5-3.3
				c0.3-1.8,0.6-3.6,0.8-5.3c0.2-1.2,0.3-2.3,0.5-3.5c0.1-1,0.3-1.9,0.4-2.9h-35.4c-0.1,0.4-0.1,0.7-0.2,1.1c-0.3,1.7-0.5,3.4-0.8,5
				c-0.2,1.1-0.3,2.1-0.5,3.2c-0.3,1.8-0.6,3.5-0.9,5.3c-0.2,1-0.3,1.9-0.5,2.9c-0.4,2.1-0.8,4.2-1.1,6.3c-0.1,0.6-0.2,1.2-0.3,1.8
				c0,0.1,0,0.2,0,0.3c-0.3-0.1-0.7-0.1-1-0.2c-1.2-0.2-2.4-0.4-3.6-0.6c-1.8-0.3-3.7-0.6-5.5-0.9c-1.3-0.2-2.6-0.4-3.9-0.6
				c-1.8-0.3-3.6-0.5-5.4-0.8c-1.3-0.2-2.6-0.4-4-0.5c-1.8-0.2-3.7-0.5-5.5-0.7c-1.3-0.2-2.6-0.3-4-0.5c-1.9-0.2-3.8-0.5-5.7-0.7
				c-1.3-0.1-2.5-0.3-3.8-0.4c-2.1-0.2-4.2-0.4-6.2-0.7c-1.1-0.1-2.2-0.2-3.3-0.3c-2.8-0.3-5.7-0.5-8.6-0.8c-0.4,0-0.7-0.1-1.1-0.1
				c-3.2-0.3-6.5-0.6-9.7-0.8c-1.1-0.1-2.1-0.2-3.2-0.2c-2.2-0.2-4.4-0.3-6.7-0.5c-1.3-0.1-2.6-0.2-3.8-0.2c-2-0.1-4-0.3-6.1-0.4
				c-1.4-0.1-2.7-0.1-4.1-0.2c-2-0.1-3.9-0.2-5.9-0.3c-1.4-0.1-2.8-0.1-4.2-0.2c-2-0.1-4-0.2-5.9-0.2c-1.4,0-2.7-0.1-4.1-0.1
				c-2-0.1-4.1-0.1-6.2-0.2c-1.3,0-2.6-0.1-3.9-0.1c-2.3,0-4.5-0.1-6.8-0.1c-1.1,0-2.2,0-3.3,0c-3.4,0-6.7-0.1-10.1-0.1
				s-6.7,0-10.1,0.1c-1.1,0-2.2,0-3.3,0c-2.3,0-4.5,0.1-6.8,0.1c-1.3,0-2.6,0.1-3.9,0.1c-2.1,0.1-4.1,0.1-6.2,0.2
				c-1.4,0-2.7,0.1-4.1,0.1c-2,0.1-4,0.1-5.9,0.2c-1.4,0.1-2.8,0.1-4.2,0.2c-2,0.1-3.9,0.2-5.9,0.3c-1.4,0.1-2.7,0.1-4.1,0.2
				c-2,0.1-4,0.2-6.1,0.4c-1.3,0.1-2.6,0.2-3.8,0.2c-2.2,0.1-4.4,0.3-6.7,0.5c-1.1,0.1-2.1,0.1-3.2,0.2c-3.3,0.3-6.5,0.5-9.7,0.8
				c-0.4,0-0.8,0.1-1.1,0.1c-2.9,0.3-5.7,0.5-8.5,0.8c-1.1,0.1-2.2,0.2-3.4,0.3c-2.1,0.2-4.2,0.4-6.2,0.7c-1.3,0.1-2.5,0.3-3.8,0.4
				c-1.9,0.2-3.8,0.4-5.7,0.7c-1.3,0.2-2.6,0.3-4,0.5c-1.8,0.2-3.7,0.5-5.5,0.7c-1.3,0.2-2.6,0.4-4,0.5c-1.8,0.3-3.6,0.5-5.4,0.8
				c-1.3,0.2-2.6,0.4-3.9,0.6c-1.9,0.3-3.7,0.6-5.5,0.9c-1.2,0.2-2.4,0.4-3.6,0.6c-0.3,0.1-0.7,0.1-1,0.2c0-0.1,0-0.2,0-0.2
				c-0.1-0.7-0.2-1.3-0.4-2c-0.4-2-0.7-4-1.1-6.1c-0.2-1-0.3-2-0.5-3c-0.3-1.7-0.6-3.4-0.9-5.1c-0.2-1.1-0.4-2.2-0.5-3.3
				c-0.3-1.6-0.5-3.3-0.8-4.9c-0.1-0.4-0.1-0.8-0.2-1.2h-35.4c0.1,1,0.3,2,0.4,2.9c0.2,1.1,0.3,2.3,0.5,3.4c0.3,1.8,0.5,3.6,0.8,5.4
				c0.2,1.1,0.3,2.2,0.5,3.3c0.3,1.9,0.6,3.8,1,5.7c0.2,1,0.3,1.9,0.5,2.9c0.4,2.4,0.8,4.7,1.3,7c0.1,0.5,0.2,1,0.3,1.5h-0.3
				l0.1,0.2c-1.6,0.4-3.2,0.7-4.8,1.1c-0.5,0.1-1,0.2-1.5,0.3c-1.2,0.3-2.5,0.6-3.7,0.9c-0.5,0.1-1,0.2-1.5,0.4
				c-1.6,0.4-3.1,0.7-4.7,1.1c-0.1,0-0.2,0-0.3,0.1c-1.6,0.4-3.3,0.8-4.9,1.2c-0.5,0.1-0.9,0.2-1.4,0.4c-1.2,0.3-2.4,0.6-3.6,0.9
				c-0.5,0.1-0.9,0.2-1.4,0.4c-1.5,0.4-2.9,0.8-4.3,1.2c-0.1,0-0.3,0.1-0.4,0.1c-1.6,0.4-3.1,0.9-4.6,1.3c-0.4,0.1-0.8,0.2-1.3,0.4
				c-1.1,0.3-2.3,0.7-3.4,1c-0.4,0.1-0.9,0.3-1.3,0.4c-1.3,0.4-2.7,0.8-4,1.2c-0.2,0.1-0.4,0.1-0.5,0.2c-1.5,0.5-3,0.9-4.4,1.4
				c-0.4,0.1-0.8,0.3-1.2,0.4c-1.1,0.4-2.2,0.7-3.3,1.1c-0.4,0.1-0.9,0.3-1.3,0.4c-1.2,0.4-2.4,0.8-3.7,1.3
				c-0.2,0.1-0.4,0.1-0.6,0.2c-1.4,0.5-2.8,1-4.2,1.5c-0.4,0.1-0.7,0.3-1.1,0.4c-1,0.4-2.1,0.8-3.1,1.2c-0.4,0.2-0.8,0.3-1.2,0.5
				c-1.1,0.4-2.2,0.9-3.3,1.3c-0.2,0.1-0.5,0.2-0.7,0.3c-1.3,0.5-2.6,1-3.9,1.6c-0.3,0.1-0.7,0.3-1,0.4c-1,0.4-1.9,0.8-2.9,1.2
				c-0.4,0.2-0.8,0.3-1.2,0.5c-1,0.4-2,0.9-3.1,1.3c-0.2,0.1-0.5,0.2-0.7,0.3c-1.2,0.5-2.4,1.1-3.6,1.7c-0.3,0.1-0.6,0.3-0.9,0.4
				c-0.9,0.4-1.8,0.9-2.7,1.3c-0.4,0.2-0.7,0.3-1.1,0.5c-0.9,0.5-1.9,0.9-2.8,1.4c-0.2,0.1-0.5,0.2-0.7,0.3
				c-1.1,0.6-2.3,1.2-3.4,1.7c-0.3,0.1-0.5,0.3-0.8,0.4c-0.9,0.5-1.7,0.9-2.6,1.4c-0.3,0.2-0.6,0.4-1,0.5c-0.9,0.5-1.7,1-2.6,1.5
				c-0.2,0.1-0.4,0.2-0.6,0.4c-0.1,0.1-0.2,0.1-0.3,0.1c-13.4-22.7-24-46.8-31.7-71.8h-36.5c8.8,32,22,62.7,39.1,91.5l-0.3,0.2
				l9.2,14l10.1,15.2l0.4-0.3c28.8,39.3,65.6,73.1,107.1,98.5c48.6,29.6,102,47.4,158.7,52.7c11.7,1.1,23.6,1.7,35.3,1.7
				c11.7,0,23.6-0.6,35.3-1.7c56.7-5.3,110.1-23.1,158.7-52.7c41.5-25.3,78.3-59.2,107.1-98.5l0.4,0.3l10.1-15.2l0,0l9.2-14
				l-0.3-0.2c17.2-28.7,30.3-59.5,39.1-91.5h-35.8L2143.1,1969L2143.1,1969z M1644.2,2158.3c-37.3-22.7-70.3-53-96.3-88.2
				c0.8-0.5,1.7-0.9,2.5-1.4c0.2-0.1,0.4-0.2,0.5-0.3c0.8-0.4,1.6-0.8,2.4-1.3c0.3-0.2,0.6-0.3,0.9-0.5c0.8-0.4,1.6-0.8,2.4-1.2
				c0.2-0.1,0.5-0.2,0.7-0.4c1-0.5,2-1,3.1-1.5c0.2-0.1,0.5-0.2,0.7-0.3c0.8-0.4,1.6-0.8,2.5-1.2c0.3-0.2,0.7-0.3,1-0.5
				c0.9-0.4,1.7-0.8,2.6-1.2c0.2-0.1,0.4-0.2,0.7-0.3c1.1-0.5,2.2-1,3.3-1.4c0.3-0.1,0.6-0.2,0.9-0.4c0.9-0.4,1.8-0.7,2.6-1.1
				c0.3-0.1,0.7-0.3,1-0.4c1-0.4,2-0.8,3-1.2c0.2-0.1,0.3-0.1,0.5-0.2c1.2-0.5,2.4-0.9,3.6-1.4c0.3-0.1,0.6-0.2,1-0.4
				c0.9-0.3,1.9-0.7,2.8-1c0.4-0.1,0.7-0.3,1.1-0.4c1.2-0.4,2.4-0.8,3.6-1.3c0.1,0,0.1,0,0.2-0.1c1.3-0.4,2.6-0.9,3.9-1.3
				c0.3-0.1,0.7-0.2,1-0.3c1-0.3,2-0.7,3.1-1c0.4-0.1,0.7-0.2,1.1-0.3c2.7-0.9,5.4-1.7,8.1-2.5c0.4-0.1,0.7-0.2,1.1-0.3
				c1.1-0.3,2.2-0.6,3.3-1c0.3-0.1,0.7-0.2,1-0.3c1.4-0.4,2.8-0.8,4.3-1.2c0.1,0,0.2-0.1,0.3-0.1c1.3-0.4,2.7-0.7,4-1.1
				c0.4-0.1,0.8-0.2,1.2-0.3c1.2-0.3,2.3-0.6,3.5-0.9c0.3-0.1,0.7-0.2,1-0.3c1.5-0.4,3-0.8,4.5-1.1c0.2,0,0.4-0.1,0.6-0.1
				c1.3-0.3,2.6-0.6,4-0.9c0.4-0.1,0.8-0.2,1.3-0.3c1.2-0.3,2.4-0.6,3.7-0.8c0.3-0.1,0.7-0.1,1-0.2c1.4-0.3,2.8-0.6,4.3-0.9
				c0.4,1.7,0.9,3.4,1.3,5.1c0.1,0.3,0.2,0.7,0.3,1c0.4,1.4,0.7,2.8,1.1,4.1c0.2,0.6,0.3,1.1,0.5,1.7c0.3,1.1,0.6,2.3,1,3.4
				c0.2,0.6,0.4,1.2,0.5,1.9c0.3,1.1,0.6,2.1,0.9,3.2c0.2,0.6,0.4,1.3,0.6,1.9c0.3,1,0.6,2.1,0.9,3.1c0.2,0.6,0.4,1.3,0.6,1.9
				c0.3,1,0.6,2.1,1,3.1c0.2,0.6,0.4,1.3,0.6,1.9c0.3,1,0.7,2.1,1,3.1c0.2,0.6,0.4,1.2,0.6,1.8c0.4,1.1,0.7,2.2,1.1,3.3
				c0.2,0.5,0.3,1,0.5,1.6c0.4,1.3,0.9,2.5,1.3,3.8c0.1,0.3,0.2,0.7,0.4,1c1.1,3.2,2.3,6.4,3.5,9.5c0.1,0.4,0.3,0.7,0.4,1.1
				c0.4,1.2,0.9,2.4,1.4,3.5c0.2,0.5,0.4,1,0.6,1.5c0.4,1,0.8,2.1,1.2,3.1c0.2,0.5,0.4,1.1,0.7,1.6c0.4,1,0.8,1.9,1.2,2.9
				c0.2,0.6,0.5,1.1,0.7,1.7c0.4,0.9,0.8,1.9,1.2,2.8c0.2,0.6,0.5,1.1,0.7,1.7c0.4,0.9,0.8,1.9,1.2,2.8c0.2,0.5,0.5,1.1,0.7,1.6
				c0.4,0.9,0.9,1.9,1.3,2.8c0.2,0.5,0.5,1,0.7,1.5c0.5,1,0.9,2,1.4,3c0.2,0.4,0.4,0.8,0.6,1.3c0.6,1.2,1.2,2.5,1.8,3.7
				c0.1,0.2,0.2,0.3,0.2,0.5c0.7,1.4,1.4,2.8,2.1,4.2c0.1,0.2,0.2,0.4,0.3,0.7c0.6,1.1,1.2,2.3,1.8,3.4c0.2,0.4,0.5,0.9,0.7,1.3
				c0.5,0.9,1,1.8,1.4,2.7c0.3,0.5,0.5,1,0.8,1.5c0.5,0.8,0.9,1.6,1.4,2.5c0.3,0.5,0.6,1,0.9,1.5c0.4,0.8,0.9,1.6,1.3,2.3
				c0.3,0.5,0.6,1,0.9,1.6c0.4,0.8,0.9,1.5,1.3,2.3c0.3,0.5,0.6,1,0.9,1.5c0.5,0.7,0.9,1.5,1.4,2.2c0.3,0.5,0.6,1,0.9,1.5
				c0.5,0.8,0.9,1.5,1.4,2.3c0.3,0.5,0.6,0.9,0.9,1.4c0.5,0.8,1,1.6,1.6,2.4c0.3,0.4,0.5,0.8,0.8,1.2c0.8,1.2,1.6,2.3,2.4,3.5
				s1.7,2.4,2.5,3.6c0.3,0.4,0.5,0.8,0.8,1.1c0.6,0.8,1.2,1.6,1.7,2.4c0.3,0.4,0.7,0.9,1,1.3c0.5,0.7,1.1,1.4,1.6,2.1
				c0.4,0.5,0.7,0.9,1.1,1.4c0.5,0.7,1.1,1.4,1.6,2c0.4,0.4,0.7,0.9,1.1,1.3c0.5,0.7,1.1,1.3,1.6,2c0.3,0.4,0.7,0.8,1,1.2
				c0.6,0.7,1.2,1.5,1.9,2.2c0.3,0.3,0.5,0.6,0.8,1c0.9,1,1.8,2,2.7,3C1695.9,2185.4,1669.4,2173.6,1644.2,2158.3z M1914.8,2136.6
				c-0.3,0.5-0.6,0.9-0.8,1.4c-0.4,0.6-0.8,1.3-1.2,1.9c-0.3,0.5-0.6,1-0.9,1.4c-0.4,0.6-0.8,1.2-1.1,1.8c-0.3,0.5-0.6,1-0.9,1.4
				c-0.4,0.6-0.8,1.1-1.1,1.7c-0.3,0.5-0.6,0.9-1,1.4c-0.4,0.6-0.8,1.1-1.1,1.7c-0.3,0.5-0.6,0.9-1,1.4s-0.8,1.1-1.1,1.6
				c-0.3,0.5-0.7,0.9-1,1.4c-0.4,0.5-0.8,1-1.1,1.6c-0.3,0.5-0.7,0.9-1,1.3c-0.4,0.5-0.8,1-1.1,1.5c-0.3,0.4-0.7,0.9-1,1.3
				c-0.4,0.5-0.8,1-1.2,1.5c-0.3,0.4-0.7,0.9-1,1.3c-0.4,0.5-0.8,1-1.2,1.4c-0.3,0.4-0.7,0.8-1,1.2c-0.4,0.5-0.8,0.9-1.2,1.4
				c-0.3,0.4-0.7,0.8-1,1.2c-0.4,0.5-0.8,0.9-1.2,1.4c-0.3,0.4-0.7,0.7-1,1.1c-0.5,0.5-0.9,1-1.4,1.5c-0.3,0.3-0.6,0.6-0.9,1
				c-0.7,0.8-1.5,1.6-2.2,2.3c-0.3,0.3-0.6,0.6-0.9,0.9c-0.5,0.5-0.9,0.9-1.4,1.4c-0.3,0.3-0.7,0.7-1,1c-0.4,0.4-0.8,0.8-1.2,1.2
				c-0.4,0.3-0.7,0.7-1.1,1c-0.4,0.4-0.8,0.7-1.2,1.1c-0.4,0.3-0.8,0.7-1.1,1c-0.4,0.4-0.8,0.7-1.2,1.1c-0.4,0.3-0.8,0.7-1.1,1
				c-0.4,0.3-0.8,0.7-1.2,1c-0.4,0.3-0.8,0.6-1.2,0.9c-0.4,0.3-0.8,0.6-1.2,1c-0.4,0.3-0.8,0.6-1.2,0.9c-0.4,0.3-0.8,0.6-1.2,0.9
				c-0.4,0.3-0.8,0.6-1.2,0.9c-0.4,0.3-0.8,0.6-1.2,0.9c-0.4,0.3-0.8,0.6-1.2,0.8c-0.4,0.3-0.8,0.5-1.2,0.8
				c-0.4,0.3-0.8,0.5-1.2,0.8c-0.4,0.3-0.8,0.5-1.2,0.8c-0.4,0.3-0.8,0.5-1.2,0.8c-0.4,0.3-0.8,0.5-1.2,0.7
				c-0.4,0.2-0.8,0.5-1.2,0.7c-0.4,0.2-0.8,0.5-1.2,0.7c-0.4,0.2-0.8,0.4-1.2,0.7c-0.4,0.2-0.9,0.4-1.3,0.7
				c-0.4,0.2-0.8,0.4-1.2,0.6c-0.5,0.2-0.9,0.4-1.4,0.7c-0.4,0.2-0.7,0.4-1.1,0.5c-0.8,0.4-1.6,0.7-2.4,1.1c-0.3,0.1-0.7,0.3-1,0.4
				c-0.5,0.2-1,0.4-1.5,0.6c-0.4,0.1-0.8,0.3-1.1,0.4c-0.4,0.2-0.9,0.3-1.3,0.5c-0.4,0.1-0.8,0.3-1.2,0.4c-0.4,0.1-0.9,0.3-1.3,0.4
				c-0.4,0.1-0.8,0.2-1.2,0.4c-0.4,0.1-0.9,0.3-1.3,0.4c-0.4,0.1-0.8,0.2-1.2,0.3c-0.4,0.1-0.9,0.2-1.3,0.3s-0.8,0.2-1.2,0.3
				c-0.4,0.1-0.9,0.2-1.3,0.3s-0.8,0.2-1.2,0.2c-0.3,0-0.5,0.1-0.8,0.1s-0.6,0-1,0c-0.6,0-1.2,0-1.8,0c-0.6,0-1.2,0-1.8,0
				c-0.5,0-1,0-1.5,0c-0.7,0-1.4,0-2,0c-0.4,0-0.7,0-1.1,0c-1,0-2,0-3,0s-2,0-3,0c-0.4,0-0.7,0-1.1,0c-0.7,0-1.4,0-2,0
				c-0.5,0-1,0-1.5,0c-0.6,0-1.2,0-1.8,0c-0.6,0-1.2,0-1.8,0c-0.3,0-0.6,0-1,0c-0.3,0-0.5-0.1-0.8-0.1c-0.4-0.1-0.8-0.2-1.2-0.2
				c-0.4-0.1-0.9-0.2-1.3-0.3s-0.8-0.2-1.2-0.3c-0.4-0.1-0.9-0.2-1.3-0.3s-0.8-0.2-1.2-0.3c-0.4-0.1-0.9-0.3-1.3-0.4
				c-0.4-0.1-0.8-0.2-1.2-0.4c-0.4-0.1-0.9-0.3-1.3-0.4c-0.4-0.1-0.8-0.3-1.1-0.4c-0.5-0.2-0.9-0.3-1.4-0.5
				c-0.4-0.1-0.7-0.3-1.1-0.4c-0.5-0.2-1-0.4-1.5-0.6c-0.3-0.1-0.6-0.2-0.9-0.4c-0.8-0.3-1.6-0.7-2.4-1.1c-0.3-0.2-0.7-0.3-1-0.5
				c-0.5-0.2-1-0.5-1.4-0.7s-0.7-0.4-1.1-0.6c-0.4-0.2-0.9-0.5-1.3-0.7s-0.8-0.4-1.1-0.6c-0.4-0.2-0.9-0.5-1.3-0.7s-0.8-0.5-1.2-0.7
				c-0.4-0.3-0.8-0.5-1.3-0.8c-0.4-0.2-0.8-0.5-1.2-0.7c-0.4-0.3-0.8-0.5-1.2-0.8c-0.4-0.3-0.8-0.5-1.2-0.8
				c-0.4-0.3-0.8-0.6-1.2-0.8c-0.4-0.3-0.8-0.5-1.2-0.8c-0.4-0.3-0.8-0.6-1.2-0.9c-0.4-0.3-0.8-0.6-1.1-0.8
				c-0.4-0.3-0.8-0.6-1.2-0.9c-0.4-0.3-0.8-0.6-1.1-0.9c-0.4-0.3-0.8-0.7-1.2-1c-0.4-0.3-0.7-0.6-1.1-0.9c-0.4-0.3-0.8-0.7-1.2-1
				c-0.4-0.3-0.7-0.6-1.1-0.9c-0.4-0.4-0.8-0.7-1.2-1.1c-0.4-0.3-0.7-0.6-1.1-1s-0.8-0.8-1.3-1.2c-0.3-0.3-0.7-0.6-1-1
				c-0.4-0.4-0.9-0.9-1.3-1.3c-0.3-0.3-0.6-0.6-0.9-0.9c-0.5-0.5-1.1-1.1-1.6-1.6c-0.2-0.2-0.5-0.5-0.7-0.7
				c-0.8-0.8-1.5-1.6-2.2-2.4c-0.2-0.2-0.5-0.5-0.7-0.8c-0.5-0.6-1-1.1-1.6-1.7c-0.3-0.3-0.6-0.7-0.9-1c-0.5-0.5-0.9-1-1.4-1.5
				c-0.3-0.4-0.6-0.7-0.9-1.1c-0.4-0.5-0.9-1-1.3-1.5c-0.3-0.4-0.6-0.8-1-1.2c-0.4-0.5-0.8-1-1.2-1.5c-0.3-0.4-0.6-0.8-1-1.2
				c-0.4-0.5-0.8-1-1.2-1.5c-0.3-0.4-0.6-0.8-1-1.3s-0.8-1.1-1.2-1.6c-0.3-0.4-0.6-0.9-1-1.3c-0.4-0.5-0.8-1.1-1.2-1.6
				c-0.3-0.4-0.6-0.9-0.9-1.3c-0.4-0.6-0.8-1.1-1.2-1.7c-0.3-0.4-0.6-0.9-0.9-1.3c-0.4-0.6-0.8-1.2-1.2-1.7
				c-0.3-0.4-0.6-0.9-0.9-1.3c-0.4-0.6-0.8-1.2-1.2-1.8c-0.3-0.4-0.6-0.9-0.9-1.3c-0.4-0.6-0.8-1.3-1.2-1.9
				c-0.3-0.4-0.6-0.9-0.8-1.3c-0.4-0.7-0.8-1.4-1.3-2c-0.3-0.4-0.5-0.8-0.8-1.2c-0.5-0.7-0.9-1.5-1.3-2.3c-0.2-0.4-0.4-0.7-0.6-1.1
				c-0.6-0.9-1.1-1.9-1.7-2.9c-0.1-0.2-0.2-0.4-0.3-0.6c-0.7-1.2-1.3-2.3-2-3.5c-0.1-0.1-0.1-0.2-0.2-0.3c-0.6-1.1-1.2-2.1-1.7-3.2
				c-0.2-0.4-0.4-0.7-0.6-1.1c-0.4-0.8-0.9-1.7-1.3-2.5c-0.2-0.4-0.5-0.9-0.7-1.3c-0.4-0.8-0.8-1.6-1.2-2.4c-0.2-0.5-0.5-1-0.7-1.4
				c-0.4-0.8-0.8-1.5-1.1-2.3c-0.2-0.5-0.5-1-0.7-1.5c-0.4-0.8-0.7-1.5-1.1-2.3c-0.2-0.5-0.5-1.1-0.7-1.6c-0.4-0.8-0.7-1.5-1.1-2.3
				c-0.2-0.5-0.5-1.1-0.7-1.6c-0.3-0.8-0.7-1.5-1-2.3c-0.2-0.5-0.5-1.1-0.7-1.7c-0.3-0.8-0.7-1.6-1-2.3c-0.2-0.6-0.5-1.1-0.7-1.7
				c-0.3-0.8-0.7-1.6-1-2.4c-0.2-0.6-0.5-1.1-0.7-1.7c-0.3-0.8-0.7-1.6-1-2.5c-0.2-0.6-0.4-1.1-0.7-1.7c-0.3-0.8-0.7-1.7-1-2.6
				c-0.2-0.5-0.4-1.1-0.6-1.6c-0.3-0.9-0.7-1.8-1-2.7c-0.2-0.5-0.4-1-0.6-1.6c-0.4-1-0.7-1.9-1.1-2.9c-0.2-0.5-0.3-0.9-0.5-1.4
				c-0.4-1.2-0.8-2.4-1.3-3.6c-0.1-0.3-0.2-0.5-0.3-0.8c-0.5-1.5-1-3-1.5-4.5c0-0.1-0.1-0.2-0.1-0.3c-0.5-1.4-0.9-2.8-1.4-4.1
				c-0.2-0.5-0.3-1-0.5-1.4c-0.3-1-0.7-2-1-3.1c-0.2-0.6-0.4-1.2-0.5-1.7c-0.3-0.9-0.6-1.9-0.9-2.8c-0.2-0.6-0.4-1.3-0.6-1.9
				c-0.3-0.9-0.5-1.8-0.8-2.7c-0.2-0.7-0.4-1.3-0.6-2c-0.3-0.9-0.5-1.8-0.8-2.7c-0.2-0.7-0.4-1.4-0.6-2.1c-0.2-0.9-0.5-1.7-0.7-2.6
				c-0.2-0.7-0.4-1.4-0.6-2.1c-0.2-0.9-0.5-1.7-0.7-2.6c-0.2-0.7-0.4-1.5-0.6-2.2c-0.1-0.4-0.2-0.8-0.3-1.3c2.9-0.5,5.8-0.9,8.7-1.4
				c0.9-0.1,1.8-0.3,2.7-0.4c2-0.3,4.1-0.6,6.1-0.9c1.1-0.2,2.2-0.3,3.3-0.4c1.9-0.2,3.8-0.5,5.7-0.7c1.2-0.1,2.4-0.3,3.5-0.4
				c1.9-0.2,3.7-0.4,5.6-0.7c1.2-0.1,2.4-0.3,3.6-0.4c1.9-0.2,3.9-0.4,5.8-0.6c1.1-0.1,2.3-0.2,3.4-0.3c2.1-0.2,4.2-0.4,6.4-0.6
				c1-0.1,1.9-0.2,2.9-0.3c6.2-0.5,12.4-1,18.7-1.4c1-0.1,2-0.1,3-0.2c2.2-0.1,4.3-0.3,6.5-0.4c1.2-0.1,2.4-0.1,3.6-0.2
				c2-0.1,4-0.2,5.9-0.3c1.3-0.1,2.5-0.1,3.8-0.2c1.9-0.1,3.9-0.2,5.8-0.2c1.3,0,2.6-0.1,3.8-0.1c2-0.1,4-0.1,6-0.2
				c1.2,0,2.5-0.1,3.7-0.1c2.2,0,4.3-0.1,6.5-0.1c1,0,2.1,0,3.1,0c3.2,0,6.4-0.1,9.7-0.1s6.4,0,9.7,0.1c1,0,2.1,0,3.1,0
				c2.2,0,4.3,0.1,6.5,0.1c1.2,0,2.5,0.1,3.7,0.1c2,0,4,0.1,6,0.2c1.3,0,2.6,0.1,3.8,0.1c1.9,0.1,3.9,0.1,5.8,0.2
				c1.3,0.1,2.5,0.1,3.8,0.2c2,0.1,4,0.2,5.9,0.3c1.2,0.1,2.4,0.1,3.6,0.2c2.2,0.1,4.3,0.3,6.5,0.4c1,0.1,2,0.1,3,0.2
				c6.3,0.4,12.5,0.9,18.7,1.4c1,0.1,1.9,0.2,2.9,0.3c2.1,0.2,4.3,0.4,6.4,0.6c1.1,0.1,2.3,0.2,3.4,0.3c1.9,0.2,3.9,0.4,5.8,0.6
				c1.2,0.1,2.4,0.3,3.6,0.4c1.9,0.2,3.7,0.4,5.6,0.7c1.2,0.1,2.4,0.3,3.5,0.4c1.9,0.2,3.8,0.5,5.7,0.7c1.1,0.1,2.2,0.3,3.3,0.4
				c2,0.3,4.1,0.6,6.1,0.9c0.9,0.1,1.8,0.3,2.7,0.4c2.9,0.4,5.8,0.9,8.7,1.4c-0.1,0.4-0.2,0.9-0.3,1.3c-0.2,0.7-0.4,1.4-0.5,2.1
				c-0.2,0.9-0.5,1.8-0.7,2.7c-0.2,0.7-0.4,1.4-0.6,2.1c-0.2,0.9-0.5,1.8-0.7,2.7c-0.2,0.7-0.4,1.3-0.6,2c-0.3,0.9-0.5,1.8-0.8,2.7
				c-0.2,0.6-0.4,1.3-0.6,1.9c-0.3,0.9-0.6,1.9-0.8,2.8c-0.2,0.6-0.4,1.2-0.6,1.8c-0.3,1-0.6,1.9-0.9,2.9c-0.2,0.6-0.3,1.1-0.5,1.7
				c-0.3,1-0.7,2.1-1,3.1c-0.2,0.5-0.3,0.9-0.5,1.4c-0.4,1.4-0.9,2.7-1.4,4.1c0,0.1-0.1,0.2-0.1,0.4c-0.5,1.5-1,3-1.5,4.5
				c-0.1,0.3-0.2,0.6-0.3,0.9c-0.4,1.2-0.8,2.3-1.2,3.5c-0.2,0.5-0.3,1-0.5,1.4c-0.3,1-0.7,1.9-1.1,2.9c-0.2,0.5-0.4,1.1-0.6,1.6
				c-0.3,0.9-0.7,1.7-1,2.6c-0.2,0.6-0.4,1.1-0.7,1.7c-0.3,0.8-0.6,1.7-1,2.5c-0.2,0.6-0.5,1.2-0.7,1.8c-0.3,0.8-0.6,1.6-1,2.4
				c-0.2,0.6-0.5,1.2-0.7,1.8c-0.3,0.8-0.6,1.5-1,2.3c-0.2,0.6-0.5,1.2-0.7,1.7c-0.3,0.8-0.7,1.5-1,2.3c-0.3,0.6-0.5,1.2-0.8,1.7
				c-0.3,0.7-0.7,1.5-1,2.2c-0.3,0.6-0.5,1.1-0.8,1.7c-0.3,0.7-0.7,1.5-1,2.2c-0.3,0.6-0.5,1.1-0.8,1.7c-0.3,0.7-0.7,1.5-1,2.2
				c-0.3,0.5-0.5,1.1-0.8,1.6c-0.4,0.7-0.7,1.5-1.1,2.2c-0.3,0.5-0.5,1-0.8,1.6c-0.4,0.7-0.7,1.5-1.1,2.2c-0.2,0.5-0.5,1-0.7,1.5
				c-0.4,0.8-0.8,1.6-1.2,2.3c-0.2,0.4-0.5,0.9-0.7,1.3c-0.5,0.9-1,1.9-1.5,2.8c-0.1,0.2-0.3,0.5-0.4,0.7c-0.6,1.2-1.3,2.3-2,3.5
				c-0.2,0.3-0.3,0.6-0.5,0.9c-0.5,0.8-1,1.7-1.5,2.5c-0.3,0.4-0.5,0.9-0.8,1.3C1915.6,2135.3,1915.2,2136,1914.8,2136.6z
				 M1995.8,2158.3c-25.2,15.3-51.7,27.2-79.5,35.4c0.9-1,1.8-2,2.7-3c0.3-0.3,0.6-0.6,0.8-1c0.6-0.7,1.2-1.5,1.9-2.2
				c0.3-0.4,0.7-0.8,1-1.2c0.6-0.7,1.1-1.4,1.7-2.1c0.3-0.4,0.7-0.9,1-1.3c0.5-0.7,1.1-1.4,1.6-2.1c0.3-0.4,0.7-0.9,1-1.3
				c0.6-0.7,1.1-1.5,1.6-2.2c0.3-0.4,0.6-0.9,1-1.3c0.6-0.8,1.2-1.6,1.8-2.5c0.3-0.4,0.5-0.7,0.8-1.1c0.9-1.2,1.7-2.4,2.5-3.6
				c0.8-1.2,1.6-2.3,2.4-3.5c0.3-0.4,0.5-0.8,0.8-1.2c0.5-0.8,1-1.6,1.6-2.4c0.3-0.5,0.6-1,0.9-1.4c0.5-0.7,0.9-1.5,1.4-2.2
				c0.3-0.5,0.6-1,1-1.5c0.4-0.7,0.9-1.4,1.3-2.2c0.3-0.5,0.6-1.1,1-1.6c0.4-0.7,0.9-1.5,1.3-2.2c0.3-0.5,0.6-1.1,0.9-1.6
				c0.4-0.7,0.9-1.5,1.3-2.2c0.3-0.5,0.6-1.1,0.9-1.6c0.4-0.8,0.9-1.5,1.3-2.3c0.3-0.5,0.6-1.1,0.9-1.6c0.5-0.8,0.9-1.7,1.3-2.5
				c0.3-0.5,0.5-1,0.8-1.5c0.5-1,1.1-2,1.6-3.1c0.2-0.3,0.3-0.7,0.5-1c0.7-1.4,1.4-2.7,2.1-4.1c0.1-0.3,0.3-0.6,0.4-0.8
				c0.5-1.1,1.1-2.2,1.6-3.3c0.2-0.5,0.5-1,0.7-1.5c0.4-0.9,0.9-1.9,1.3-2.8c0.3-0.6,0.5-1.1,0.8-1.7c0.4-0.9,0.8-1.8,1.2-2.6
				c0.3-0.6,0.5-1.2,0.8-1.8c0.4-0.9,0.8-1.7,1.2-2.6c0.3-0.6,0.5-1.2,0.8-1.8c0.4-0.9,0.8-1.8,1.1-2.7c0.3-0.6,0.5-1.2,0.8-1.8
				c0.4-0.9,0.7-1.8,1.1-2.7c0.2-0.6,0.5-1.2,0.7-1.8c0.4-1,0.8-1.9,1.2-2.9c0.2-0.6,0.4-1.1,0.7-1.7c0.4-1.1,0.8-2.2,1.3-3.3
				c0.2-0.5,0.3-0.9,0.5-1.4c1.2-3.1,2.3-6.3,3.4-9.4c0.2-0.5,0.3-0.9,0.5-1.4c0.4-1.1,0.8-2.3,1.2-3.4c0.2-0.6,0.4-1.2,0.6-1.8
				c0.3-1,0.7-2,1-3.1c0.2-0.6,0.4-1.3,0.6-2c0.3-1,0.6-1.9,0.9-2.9c0.2-0.7,0.4-1.4,0.6-2.1c0.3-1,0.6-1.9,0.9-2.9
				c0.2-0.7,0.4-1.4,0.6-2.1c0.3-1,0.6-1.9,0.9-2.9c0.2-0.7,0.4-1.4,0.6-2.2c0.3-1,0.6-2,0.8-2.9c0.2-0.7,0.4-1.4,0.6-2.1
				c0.3-1,0.6-2,0.8-3c0.2-0.7,0.4-1.4,0.6-2.1c0.3-1.1,0.6-2.3,0.9-3.4c0.2-0.6,0.3-1.2,0.5-1.8c0.4-1.7,0.9-3.3,1.3-5
				c1.4,0.3,2.9,0.6,4.3,0.9c0.3,0.1,0.7,0.2,1,0.2c1.2,0.3,2.5,0.6,3.7,0.8c0.4,0.1,0.8,0.2,1.3,0.3c1.3,0.3,2.6,0.6,4,0.9
				c0.2,0,0.4,0.1,0.6,0.1c1.5,0.4,3,0.7,4.5,1.1c0.3,0.1,0.7,0.2,1,0.3c1.2,0.3,2.3,0.6,3.5,0.9c0.4,0.1,0.8,0.2,1.2,0.3
				c1.4,0.4,2.7,0.7,4.1,1.1c0.1,0,0.2,0,0.2,0.1c1.4,0.4,2.9,0.8,4.3,1.2c0.3,0.1,0.7,0.2,1,0.3c1.1,0.3,2.2,0.6,3.3,1
				c0.4,0.1,0.7,0.2,1.1,0.3c2.8,0.8,5.5,1.7,8.2,2.5c0.3,0.1,0.7,0.2,1,0.3c1,0.3,2.1,0.7,3.1,1c0.3,0.1,0.6,0.2,1,0.3
				c1.3,0.4,2.6,0.9,3.9,1.3h0.1c1.2,0.4,2.5,0.9,3.7,1.3c0.3,0.1,0.7,0.2,1,0.4c1,0.4,1.9,0.7,2.9,1.1c0.3,0.1,0.6,0.2,0.9,0.3
				c1.2,0.5,2.4,0.9,3.6,1.4c0.1,0.1,0.3,0.1,0.4,0.2c1,0.4,2.1,0.8,3.1,1.2c0.3,0.1,0.7,0.3,1,0.4c0.9,0.4,1.8,0.7,2.7,1.1
				c0.3,0.1,0.5,0.2,0.8,0.3c1.1,0.5,2.3,1,3.4,1.4c0.2,0.1,0.4,0.2,0.6,0.3c0.9,0.4,1.8,0.8,2.7,1.2c0.3,0.1,0.6,0.3,1,0.4
				c0.9,0.4,1.7,0.8,2.6,1.2c0.2,0.1,0.5,0.2,0.7,0.3c1,0.5,2.1,1,3.1,1.5c0.2,0.1,0.4,0.2,0.7,0.3c0.8,0.4,1.6,0.8,2.4,1.2
				c0.3,0.1,0.6,0.3,0.9,0.4c0.8,0.4,1.6,0.9,2.4,1.3c0.2,0.1,0.3,0.2,0.5,0.3c0.8,0.5,1.7,0.9,2.5,1.4
				C2066.1,2105.2,2033.1,2135.5,1995.8,2158.3z"/>
			
				<linearGradient id="SVGID_65_" gradientUnits="userSpaceOnUse" x1="1389.6478" y1="492.8565" x2="1731.6821" y2="915.8989" gradientTransform="matrix(1 0 0 1 0 1168)">
				<stop  offset="0" style="stop-color:#61FEFF"/>
				<stop  offset="1" style="stop-color:#23ABB8"/>
			</linearGradient>
			
				<linearGradient id="SVGID_66_" gradientUnits="userSpaceOnUse" x1="1413.375" y1="701.7" x2="1656.0302" y2="701.7" gradientTransform="matrix(1 0 0 1 0 1168)">
				<stop  offset="0" style="stop-color:#61FEFF"/>
				<stop  offset="1" style="stop-color:#23ABB8"/>
			</linearGradient>
			<polygon class="st36" points="1515.3,1935.5 1534.8,1866.2 1553.6,1935.5 1606.5,1935.5 1654.6,1803.9 1602.4,1803.9 
				1581.7,1882.3 1560.8,1803.9 1510.7,1803.9 1490.5,1882.3 1469.6,1803.9 1414.8,1803.9 1462.4,1935.5 			"/>
			
				<linearGradient id="SVGID_67_" gradientUnits="userSpaceOnUse" x1="1562.1106" y1="353.4185" x2="1904.1449" y2="776.4608" gradientTransform="matrix(1 0 0 1 0 1168)">
				<stop  offset="0" style="stop-color:#61FEFF"/>
				<stop  offset="1" style="stop-color:#23ABB8"/>
			</linearGradient>
			
				<linearGradient id="SVGID_68_" gradientUnits="userSpaceOnUse" x1="1698.575" y1="701.7" x2="1941.2302" y2="701.7" gradientTransform="matrix(1 0 0 1 0 1168)">
				<stop  offset="0" style="stop-color:#61FEFF"/>
				<stop  offset="1" style="stop-color:#23ABB8"/>
			</linearGradient>
			<polygon class="st37" points="1866.9,1882.3 1846,1803.9 1796,1803.9 1775.8,1882.3 1754.8,1803.9 1700,1803.9 1747.6,1935.5 
				1800.5,1935.5 1820,1866.2 1838.8,1935.5 1891.7,1935.5 1939.8,1803.9 1887.6,1803.9 			"/>
			
				<linearGradient id="SVGID_69_" gradientUnits="userSpaceOnUse" x1="1734.5736" y1="213.9804" x2="2076.6077" y2="637.0228" gradientTransform="matrix(1 0 0 1 0 1168)">
				<stop  offset="0" style="stop-color:#61FEFF"/>
				<stop  offset="1" style="stop-color:#23ABB8"/>
			</linearGradient>
			
				<linearGradient id="SVGID_70_" gradientUnits="userSpaceOnUse" x1="1983.7749" y1="701.7" x2="2226.4302" y2="701.7" gradientTransform="matrix(1 0 0 1 0 1168)">
				<stop  offset="0" style="stop-color:#61FEFF"/>
				<stop  offset="1" style="stop-color:#23ABB8"/>
			</linearGradient>
			<polygon class="st38" points="2152.1,1882.3 2131.2,1803.9 2081.2,1803.9 2061,1882.3 2040.1,1803.9 1985.2,1803.9 
				2032.8,1935.5 2085.8,1935.5 2105.2,1866.2 2124,1935.5 2176.9,1935.5 2225,1803.9 2172.8,1803.9 			"/>
		</g>
	</g>
</g>
<rect x="2440" y="1220" class="st39" width="1200" height="1200"/>
<g id="RBB6Rk.tif">
	<g>
		<g>
			<g>
				
					<linearGradient id="SVGID_71_" gradientUnits="userSpaceOnUse" x1="3366.3738" y1="1018.2079" x2="2937.3308" y2="625.1686" gradientTransform="matrix(1 0 0 1 0 1168)">
					<stop  offset="0" style="stop-color:#EEAB7F"/>
					<stop  offset="1" style="stop-color:#EEC18A"/>
				</linearGradient>
				
					<linearGradient id="SVGID_72_" gradientUnits="userSpaceOnUse" x1="2688.5002" y1="720.6474" x2="3394.6003" y2="720.6474" gradientTransform="matrix(1 0 0 1 0 1168)">
					<stop  offset="0" style="stop-color:#EEAB7F"/>
					<stop  offset="1" style="stop-color:#EEC18A"/>
				</linearGradient>
				<path class="st40" d="M3041.6,2205.7c-101.1,0-202.1-0.1-303.2,0.1c-20.7,0-35.7-8.1-44.9-26.7c-2.7-5.4-4-11.1-4-17.2
					c0-182.2,0-364.4,0.1-546.5c0-24,19.8-43.4,45.4-43.9c23.6-0.5,47.2,0,70.8-0.2c5-0.1,5.5,2.2,5.5,6.2
					c-0.1,22.7,0,45.4-0.1,68.1c0,30.6,21.5,51.8,52.3,52.7c24.3,0.7,43-7.4,54.1-29.8c3-6,4.5-12.4,4.5-19.2
					c-0.1-23.6,0.2-47.2-0.2-70.8c-0.1-5.9,1.7-7.1,7.3-7c77,0.2,154,0.2,231,0c5.4,0,6.9,1.4,6.8,6.8c-0.3,22-0.1,44-0.1,66
					c0,31,20.4,52.4,51.4,53.4c11.2,0.4,22.4-0.1,33-4.6c17.1-7.2,26.5-21.6,26.4-40.2c-0.1-25,0.1-50-0.2-74.9
					c-0.1-5.3,1.6-6.5,6.6-6.4c20.6,0.3,41.2,0,61.9,0.1c28.7,0.2,47.6,19.2,47.6,48c0,179.9,0,359.8,0,539.7
					c0,26.4-17.6,45.1-43.9,46.5c-3,0.2-6,0.1-8.9,0.1C3240.9,2205.7,3141.3,2205.7,3041.6,2205.7z M3041.4,1749.9
					c-99.7,0-199.3,0.1-299-0.2c-6.4,0-7.8,1.8-7.8,8c0.2,132,0.2,264,0,395.9c0,6.2,1.8,7.5,7.7,7.5c199.6-0.2,399.1-0.2,598.7,0
					c6.2,0,7.5-1.7,7.5-7.7c-0.2-132-0.2-264,0-395.9c0-6.5-1.9-7.8-8-7.8C3240.8,1749.9,3141.1,1749.9,3041.4,1749.9z"/>
				
					<linearGradient id="SVGID_73_" gradientUnits="userSpaceOnUse" x1="3432.7195" y1="945.7846" x2="3003.6765" y2="552.7455" gradientTransform="matrix(1 0 0 1 0 1168)">
					<stop  offset="0" style="stop-color:#EEAB7F"/>
					<stop  offset="1" style="stop-color:#EEC18A"/>
				</linearGradient>
				
					<linearGradient id="SVGID_74_" gradientUnits="userSpaceOnUse" x1="2832.875" y1="427.2739" x2="2900.6499" y2="427.2739" gradientTransform="matrix(1 0 0 1 0 1168)">
					<stop  offset="0" style="stop-color:#EEAB7F"/>
					<stop  offset="1" style="stop-color:#EEC18A"/>
				</linearGradient>
				<path class="st41" d="M2833.9,1594.8c0-16.9,0-33.9,0-50.8c0-15.5,8.8-26,24.1-28.5c7.5-1.2,15.1-1,22.5,1
					c10.5,2.8,18.9,14.4,19,26.7c0.2,34.8,0.2,69.6,0,104.4c-0.1,14.5-9.7,24.9-23.9,27.4c-7.1,1.3-14.1,0.9-21.1-0.5
					c-11.1-2.2-20.4-14.1-20.5-26.1C2833.8,1630.5,2833.9,1612.7,2833.9,1594.8z"/>
				
					<linearGradient id="SVGID_75_" gradientUnits="userSpaceOnUse" x1="3595.1091" y1="768.5198" x2="3166.0662" y2="375.4804" gradientTransform="matrix(1 0 0 1 0 1168)">
					<stop  offset="0" style="stop-color:#EEAB7F"/>
					<stop  offset="1" style="stop-color:#EEC18A"/>
				</linearGradient>
				
					<linearGradient id="SVGID_76_" gradientUnits="userSpaceOnUse" x1="3187.9749" y1="426.705" x2="3255.7444" y2="426.705" gradientTransform="matrix(1 0 0 1 0 1168)">
					<stop  offset="0" style="stop-color:#EEAB7F"/>
					<stop  offset="1" style="stop-color:#EEC18A"/>
				</linearGradient>
				<path class="st42" d="M3254.7,1594.8c0,17.4,0.1,34.8,0,52.2c-0.1,15.4-11.1,26.8-26.6,27.6c-3.7,0.2-7.3,0.2-11,0.1
					c-16.2-0.5-27.7-11.6-27.9-27.9c-0.3-34.6-0.3-69.2,0-103.8c0.1-16.9,11.3-27.7,28.2-28.3c4.3-0.1,8.7-0.1,13,0.3
					c13.4,1.2,24.2,12.7,24.3,26.2C3254.8,1559,3254.7,1576.9,3254.7,1594.8z"/>
				
					<linearGradient id="SVGID_77_" gradientUnits="userSpaceOnUse" x1="3302.0027" y1="1088.4755" x2="2872.96" y2="695.4363" gradientTransform="matrix(1 0 0 1 0 1168)">
					<stop  offset="0" style="stop-color:#EEAB7F"/>
					<stop  offset="1" style="stop-color:#EEC18A"/>
				</linearGradient>
				
					<linearGradient id="SVGID_78_" gradientUnits="userSpaceOnUse" x1="3057.9973" y1="908.189" x2="3152.6028" y2="908.189" gradientTransform="matrix(1 0 0 1 0 1168)">
					<stop  offset="0" style="stop-color:#EEAB7F"/>
					<stop  offset="1" style="stop-color:#EEC18A"/>
				</linearGradient>
				<path class="st43" d="M3104.8,2117.1c-12.1,0-24.3,0.1-36.4,0c-7.8-0.1-9.3-1.5-9.3-9.2c0-21.3,0.1-42.6-0.1-63.9
					c-0.1-6.2,2.5-8.8,8.5-8.8c25,0,49.9-0.1,74.9,0.1c7.5,0,9.1,1.9,9.1,9.6c0,21.1-0.1,42.2,0.1,63.2c0.1,6.6-2.6,9.2-8.9,9.1
					C3130.1,2117,3117.5,2117.1,3104.8,2117.1z"/>
				
					<linearGradient id="SVGID_79_" gradientUnits="userSpaceOnUse" x1="3362.2578" y1="1022.7009" x2="2933.2151" y2="629.6614" gradientTransform="matrix(1 0 0 1 0 1168)">
					<stop  offset="0" style="stop-color:#EEAB7F"/>
					<stop  offset="1" style="stop-color:#EEC18A"/>
				</linearGradient>
				
					<linearGradient id="SVGID_80_" gradientUnits="userSpaceOnUse" x1="3190.1997" y1="908.1349" x2="3284.4998" y2="908.1349" gradientTransform="matrix(1 0 0 1 0 1168)">
					<stop  offset="0" style="stop-color:#EEAB7F"/>
					<stop  offset="1" style="stop-color:#EEC18A"/>
				</linearGradient>
				<path class="st44" d="M3237.4,2117.1c-12.4,0-24.7,0.1-37.1,0c-7.7-0.1-9.1-1.5-9.1-9.4c0-21.1,0-42.2,0-63.2
					c0-7.7,1.5-9.3,9.2-9.3c24.5-0.1,49-0.1,73.5,0c8,0,9.6,1.8,9.6,9.8c0,20.8,0,41.7,0,62.5c0,8-1.5,9.6-9.7,9.6
					C3261.7,2117.2,3249.5,2117.1,3237.4,2117.1z"/>
				
					<linearGradient id="SVGID_81_" gradientUnits="userSpaceOnUse" x1="3181.5259" y1="1219.9884" x2="2752.4829" y2="826.9493" gradientTransform="matrix(1 0 0 1 0 1168)">
					<stop  offset="0" style="stop-color:#EEAB7F"/>
					<stop  offset="1" style="stop-color:#EEC18A"/>
				</linearGradient>
				
					<linearGradient id="SVGID_82_" gradientUnits="userSpaceOnUse" x1="2794.1001" y1="908.1349" x2="2888.4968" y2="908.1349" gradientTransform="matrix(1 0 0 1 0 1168)">
					<stop  offset="0" style="stop-color:#EEAB7F"/>
					<stop  offset="1" style="stop-color:#EEC18A"/>
				</linearGradient>
				<path class="st45" d="M2841.2,2117.1c-12.1,0-24.3,0.1-36.4,0c-8.3,0-9.7-1.4-9.7-9.5c0-21.1,0-42.1,0-63.2
					c0-7.7,1.5-9.2,9.3-9.2c24.5-0.1,49-0.1,73.5,0c7.9,0,9.5,1.8,9.5,9.9c0,20.8,0,41.7,0,62.5c0,7.9-1.7,9.5-9.8,9.5
					C2865.5,2117.1,2853.4,2117.1,2841.2,2117.1z"/>
				
					<linearGradient id="SVGID_83_" gradientUnits="userSpaceOnUse" x1="3241.8191" y1="1154.1721" x2="2812.7764" y2="761.1327" gradientTransform="matrix(1 0 0 1 0 1168)">
					<stop  offset="0" style="stop-color:#EEAB7F"/>
					<stop  offset="1" style="stop-color:#EEC18A"/>
				</linearGradient>
				
					<linearGradient id="SVGID_84_" gradientUnits="userSpaceOnUse" x1="2925.9968" y1="908.1017" x2="3020.6023" y2="908.1017" gradientTransform="matrix(1 0 0 1 0 1168)">
					<stop  offset="0" style="stop-color:#EEAB7F"/>
					<stop  offset="1" style="stop-color:#EEC18A"/>
				</linearGradient>
				<path class="st46" d="M2973.2,2117.1c-12.4,0-24.7-0.1-37.1,0c-6.2,0.1-9.2-2.2-9.1-8.9c0.3-21.3,0.3-42.6,0-63.9
					c-0.1-6.5,2.4-9.2,8.8-9.2c25,0.1,49.9,0,74.9,0c6.2,0,9,2.7,8.9,9.3c-0.2,21.1-0.1,42.1-0.1,63.2c0,7.8-1.7,9.4-9.9,9.5
					C2997.5,2117.1,2985.3,2117.1,2973.2,2117.1z"/>
				
					<linearGradient id="SVGID_85_" gradientUnits="userSpaceOnUse" x1="3238.6736" y1="1157.6056" x2="2809.6306" y2="764.5665" gradientTransform="matrix(1 0 0 1 0 1168)">
					<stop  offset="0" style="stop-color:#EEAB7F"/>
					<stop  offset="1" style="stop-color:#EEC18A"/>
				</linearGradient>
				
					<linearGradient id="SVGID_86_" gradientUnits="userSpaceOnUse" x1="2794.0972" y1="793.5013" x2="2888.603" y2="793.5013" gradientTransform="matrix(1 0 0 1 0 1168)">
					<stop  offset="0" style="stop-color:#EEAB7F"/>
					<stop  offset="1" style="stop-color:#EEC18A"/>
				</linearGradient>
				<path class="st47" d="M2841.3,2002.1c-12.6,0-25.2-0.2-37.7,0.1c-6.1,0.1-8.6-2.3-8.5-8.5c0.2-21.5,0.2-43,0-64.5
					c-0.1-6.4,2.9-8.5,8.7-8.5c24.9,0.1,49.9,0.1,74.8,0c6.3,0,9.1,2.5,9,9.1c-0.2,21.3-0.2,42.6,0,63.8c0.1,6.1-2.4,8.8-8.5,8.7
					C2866.4,2002,2853.9,2002.1,2841.3,2002.1z"/>
				
					<linearGradient id="SVGID_87_" gradientUnits="userSpaceOnUse" x1="3298.8904" y1="1091.8728" x2="2869.8477" y2="698.8334" gradientTransform="matrix(1 0 0 1 0 1168)">
					<stop  offset="0" style="stop-color:#EEAB7F"/>
					<stop  offset="1" style="stop-color:#EEC18A"/>
				</linearGradient>
				
					<linearGradient id="SVGID_88_" gradientUnits="userSpaceOnUse" x1="2925.9973" y1="793.4999" x2="3020.5024" y2="793.4999" gradientTransform="matrix(1 0 0 1 0 1168)">
					<stop  offset="0" style="stop-color:#EEAB7F"/>
					<stop  offset="1" style="stop-color:#EEC18A"/>
				</linearGradient>
				<path class="st48" d="M2973.1,2002.1c-12.4,0-24.7-0.2-37.1,0.1c-6.3,0.1-9.1-2-9-8.7c0.3-21.3,0.3-42.6,0-63.8
					c-0.1-6.6,2.7-9,8.9-9c24.9,0.1,49.9,0.1,74.8,0c5.9,0,8.8,2.3,8.8,8.6c-0.2,21.5-0.2,43,0,64.5c0.1,6.3-2.8,8.5-8.7,8.5
					C2998.2,2002,2985.7,2002.1,2973.1,2002.1z"/>
				
					<linearGradient id="SVGID_89_" gradientUnits="userSpaceOnUse" x1="3416.1392" y1="963.8838" x2="2987.0964" y2="570.8443" gradientTransform="matrix(1 0 0 1 0 1168)">
					<stop  offset="0" style="stop-color:#EEAB7F"/>
					<stop  offset="1" style="stop-color:#EEC18A"/>
				</linearGradient>
				
					<linearGradient id="SVGID_90_" gradientUnits="userSpaceOnUse" x1="3058.1001" y1="678.8723" x2="3152.6028" y2="678.8723" gradientTransform="matrix(1 0 0 1 0 1168)">
					<stop  offset="0" style="stop-color:#EEAB7F"/>
					<stop  offset="1" style="stop-color:#EEC18A"/>
				</linearGradient>
				<path class="st49" d="M3104.7,1887.6c-12.1,0-24.2,0.1-36.4,0c-7.8-0.1-9.2-1.5-9.2-9.2c0-21,0-42.1,0-63.1c0-7.9,1.1-9,9.3-9.1
					c24.7,0,49.4,0.1,74.1-0.1c6.3,0,9.1,2.2,9.1,8.8c-0.2,21.3-0.2,42.6,0,63.8c0.1,6.7-2.9,9-9.1,8.9
					C3129.9,1887.5,3117.3,1887.6,3104.7,1887.6z"/>
				
					<linearGradient id="SVGID_91_" gradientUnits="userSpaceOnUse" x1="3476.4917" y1="898.0029" x2="3047.449" y2="504.9635" gradientTransform="matrix(1 0 0 1 0 1168)">
					<stop  offset="0" style="stop-color:#EEAB7F"/>
					<stop  offset="1" style="stop-color:#EEC18A"/>
				</linearGradient>
				
					<linearGradient id="SVGID_92_" gradientUnits="userSpaceOnUse" x1="3190" y1="678.8486" x2="3284.5" y2="678.8486" gradientTransform="matrix(1 0 0 1 0 1168)">
					<stop  offset="0" style="stop-color:#EEAB7F"/>
					<stop  offset="1" style="stop-color:#EEC18A"/>
				</linearGradient>
				<path class="st50" d="M3237.3,1806.2c12.6,0,25.2,0.1,37.7-0.1c6.2-0.1,8.5,2.5,8.5,8.7c-0.2,21.5-0.2,43,0,64.5
					c0,6-2.7,8.3-8.2,8.3c-25.4,0-50.8,0-76.2,0c-5.7,0-8.1-2.6-8.1-8.4c0.2-21.7,0.2-43.5,0-65.2c0-5.6,2.4-7.9,7.8-7.9
					C3211.7,1806.2,3224.5,1806.2,3237.3,1806.2z"/>
				
					<linearGradient id="SVGID_93_" gradientUnits="userSpaceOnUse" x1="3359.208" y1="1026.0299" x2="2930.1653" y2="632.9906" gradientTransform="matrix(1 0 0 1 0 1168)">
					<stop  offset="0" style="stop-color:#EEAB7F"/>
					<stop  offset="1" style="stop-color:#EEC18A"/>
				</linearGradient>
				
					<linearGradient id="SVGID_94_" gradientUnits="userSpaceOnUse" x1="3058.0972" y1="793.4514" x2="3152.6028" y2="793.4514" gradientTransform="matrix(1 0 0 1 0 1168)">
					<stop  offset="0" style="stop-color:#EEAB7F"/>
					<stop  offset="1" style="stop-color:#EEC18A"/>
				</linearGradient>
				<path class="st51" d="M3105.3,2002.1c-12.6,0-25.2-0.1-37.7,0.1c-6.1,0.1-8.6-2.4-8.5-8.6c0.2-21.5,0.2-43,0-64.5
					c-0.1-5.9,2.5-8.4,8.1-8.4c25.4,0,50.8,0,76.2,0c5.6,0,8.3,2.4,8.2,8.4c-0.2,21.7-0.1,43.5,0,65.2c0,5.5-2.4,8-7.8,7.9
					C3130.9,2002,3118.1,2002.1,3105.3,2002.1z"/>
				
					<linearGradient id="SVGID_95_" gradientUnits="userSpaceOnUse" x1="3419.2778" y1="960.4577" x2="2990.2349" y2="567.4184" gradientTransform="matrix(1 0 0 1 0 1168)">
					<stop  offset="0" style="stop-color:#EEAB7F"/>
					<stop  offset="1" style="stop-color:#EEC18A"/>
				</linearGradient>
				
					<linearGradient id="SVGID_96_" gradientUnits="userSpaceOnUse" x1="3189.9973" y1="793.3515" x2="3284.5027" y2="793.3515" gradientTransform="matrix(1 0 0 1 0 1168)">
					<stop  offset="0" style="stop-color:#EEAB7F"/>
					<stop  offset="1" style="stop-color:#EEC18A"/>
				</linearGradient>
				<path class="st52" d="M3236.9,2002.1c-12.1,0-24.2,0-36.4,0c-8.2,0-9.3-1.1-9.4-9c0-21.3,0.1-42.6-0.1-63.8
					c-0.1-6.3,2.6-8.7,8.5-8.7c25.2,0.1,50.3,0,75.5,0c6,0,8.6,2.6,8.5,8.8c-0.2,21.5-0.2,43,0,64.5c0,5.9-2.5,8.3-8.2,8.2
					C3262.5,2002,3249.7,2002.1,3236.9,2002.1z"/>
			</g>
		</g>
	</g>
</g>
<rect y="2438" class="st53" width="1200" height="1200"/>
<g id="tehmL1.tif">
	<g>
		<g>
			<g>
				
					<linearGradient id="SVGID_97_" gradientUnits="userSpaceOnUse" x1="214.3624" y1="1889.2468" x2="982.1006" y2="1889.2468" gradientTransform="matrix(1 0 0 1 0 1168)">
					<stop  offset="0" style="stop-color:#EE7D38"/>
					<stop  offset="1" style="stop-color:#EE9E43"/>
				</linearGradient>
				
					<linearGradient id="SVGID_98_" gradientUnits="userSpaceOnUse" x1="213.3624" y1="1889.2468" x2="983.1006" y2="1889.2468" gradientTransform="matrix(1 0 0 1 0 1168)">
					<stop  offset="0" style="stop-color:#EE7D38"/>
					<stop  offset="1" style="stop-color:#EE9E43"/>
				</linearGradient>
				<path class="st54" d="M577,3068.1c-44.4,2.7-81.5,17-115.3,39.4c-15,10-25.9,8.9-39.3-3c-48.8-43-111.1-49.8-169-21.3
					c-9.4,4.6-24,8.1-31.6,3.8c-6.1-3.4-8-19.4-7.3-29.5c11.1-158.5,140.7-304.6,298.4-337c21-4.3,42.3-7,63.8-10.4
					c5-15.8-6.8-43.4,21.7-43.1c26.8,0.4,16.2,26.7,20.5,42.8c24.1,4.2,48.6,6.7,72.2,12.7c158,40.4,270.3,168.7,290.3,330.6
					c0.6,4.9,0.7,9.9,0.7,14.8c0.1,22.2-12.8,30.4-32.3,19.7c-33.7-18.5-69.4-28.8-106.7-17.5c-24.2,7.3-48,19.3-68.6,33.9
					c-16.1,11.5-27,12.3-42.8,1.8c-34.5-22.8-72.5-36.1-115.2-38.1c-0.5,4.7-1.4,8.9-1.4,13c-0.1,93.9-0.1,187.9-0.1,281.8
					c0,1.9-0.1,3.7,0,5.6c1.3,22.1,15.8,38,36.4,39.8c20.6,1.8,37.6-11.4,41.6-33.6c2.5-14,6.2-26,24-23.6c13,1.7,18,13.9,14.1,32.7
					c-8.1,39.4-43.6,67.3-81.2,63.8c-42.7-4-72.6-35.9-72.8-78.9c-0.4-92.7-0.1-185.4-0.1-278.1C577,3083.5,577,3076.8,577,3068.1z
					 M736.9,3062.3c-4-40.7-5.7-77.7-11.7-113.9c-9.6-58.2-26.4-114.3-63.9-161.6c-39-49.1-87.8-50.7-124.6-0.5
					c-20.7,28.3-36.6,61.4-48.8,94.5c-21.1,57-27.1,117.1-25.7,180.3c43.8-21.5,87.8-33.3,135-33.3
					C645,3027.7,689.6,3039.7,736.9,3062.3z M500.1,2766.4c-103.5,9.9-249,174.5-240.8,271.8c55.9-18.6,109.8-12.3,162.4,16.1
					C425.9,2950.7,440.5,2852.7,500.1,2766.4z M938.4,3039c-16.6-136-135.5-250.7-242.8-273c60,86.9,74.5,185.4,78.6,288.6
					C827.4,3024.8,881.1,3020.3,938.4,3039z"/>
			</g>
		</g>
	</g>
</g>
<path class="st55" d="M-1743.9,1306.2l121.5-68.3c10-5.6,21.9-6.7,32.8-3l204.3,69.8c5.7,1.9,10.6,5.8,13.5,11
	c3.6,6.5,5.6,16.5-1.1,30.7c-9.4,19.9-34.7,22.4-43.3,19.7c-27.6-8.7-113.4-34-113.4-34"/>
<path class="st55" d="M-1678.5,1439.3l12.8-8c7.9-4.9,17.5-6.2,26.4-3.6l182.4,53.4c10.4,3,21.5,1.6,30.8-4l246.2-149.5
	c0,0,21-22.5-1.6-47.3c-23.6-26-58.4,2.2-58.4,2.2l-128.6,83.5"/>
<rect x="-1813.6" y="1291" transform="matrix(0.8885 -0.4588 0.4588 0.8885 -838.0133 -650.7418)" class="st56" width="110.7" height="216.6"/>
<circle class="st55" cx="-1740.7" cy="1445.6" r="13.4"/>
<circle class="st55" cx="-1393.3" cy="1048.6" r="160.7"/>
<text transform="matrix(1 0 0 1 -1473.4316 1141.7715)" style="fill:#EF0F0F; font-family:'MyriadPro-Regular'; font-size:303.3086px;">$</text>
</svg>
