<svg xmlns="http://www.w3.org/2000/svg" xmlns:xlink="http://www.w3.org/1999/xlink" width="187.61" height="109.97" viewBox="0 0 187.61 109.97"><defs><style>.cls-1{fill:none;}.cls-2{clip-path:url(#clip-path);}.cls-3{fill:#13100d;}.cls-4,.cls-6{fill:#fff;}.cls-5{fill:#88bc24;}.cls-6{font-size:5.13px;font-family:Montserrat-Regular, Montserrat;}.cls-7{letter-spacing:-0.01em;}.cls-8{letter-spacing:0em;}.cls-9{letter-spacing:-0.01em;}.cls-10{letter-spacing:0em;}.cls-11{letter-spacing:0.02em;}.cls-12{letter-spacing:-0.03em;}.cls-13{letter-spacing:0.01em;}.cls-14{letter-spacing:-0.02em;}</style><clipPath id="clip-path" transform="translate(4.96 4.32)"><rect class="cls-1" width="177.69" height="101.32" rx="3.39"/></clipPath></defs><g id="Layer_2" data-name="Layer 2"><g id="Layer_1-2" data-name="Layer 1"><g class="cls-2"><rect class="cls-3" width="187.61" height="109.97"/><path class="cls-4" d="M100.31,41.7l-11-30.24H84.92L78,32l.32.24,3,2.22L85.3,22l6.09,17.15c2.25,1.2,7.48,2.16,8.92,2.51" transform="translate(4.96 4.32)"/><path class="cls-4" d="M115.79,68.53a3.32,3.32,0,0,1-2.47-.37c-1.11-.74-2-2-3.34-4.82-.71-1.48-1.55-3.3-2.2-4.7,2.69.11,5.31,0,7.89-.12V53.08s-18.8,2.72-32.4-6.55A77.45,77.45,0,0,1,61.51,24.64c-.87-1.38,2.92,8.88,11.17,17.83l-7.4,20c-1,2.66-2.18,5.72-5.17,6.21v1.44c2.1,0,4.44-.48,6.69-.48s4.52.48,6.77.48V68.65c-2.42-.17-3.79-1.46-3.79-4.2,0-2.41,2.24-7.63,4-13.27h0L75,47.55h0l.8-2a41.7,41.7,0,0,0,4.63,3.67,51.74,51.74,0,0,0,19.72,8.54c.81,1.67,4,8.43,2.91,9.51a6.86,6.86,0,0,1-3.71,1.49c-.5.12-.13,1.23-.13,1.23s8.73-.52,9.16-.52c.69,0,7.53.52,7.53.52Z" transform="translate(4.96 4.32)"/><path class="cls-5" d="M59.72,14.88C58.61,13.12,65,30.21,78.64,39.48s24.72,9.89,35.23,9.27V43.31S95.08,46,81.48,36.76A77.32,77.32,0,0,1,59.72,14.88" transform="translate(4.96 4.32)"/><path class="cls-5" d="M49.1,75.88h.5l1.91,4.66h-.63l-.56-1.37h-2l-.55,1.37h-.63Zm1.09,2.83-.84-2.15-.86,2.15Z" transform="translate(4.96 4.32)"/><path class="cls-5" d="M52.26,77.11l.94,1.26,0,.11.06-.11.94-1.26h.61l-1.29,1.72,1.29,1.71h-.61l-.94-1.25-.06-.1,0,.1-.94,1.25h-.61l1.29-1.71-1.28-1.72Z" transform="translate(4.96 4.32)"/><path class="cls-5" d="M55.41,76.47v-.72H56v.72Zm0,4.07V77.11H56v3.43Z" transform="translate(4.96 4.32)"/><path class="cls-5" d="M58.41,80.61a1.63,1.63,0,0,1-.7-.15,1.53,1.53,0,0,1-.55-.39,1.71,1.71,0,0,1-.35-.56,2,2,0,0,1-.12-.68,1.91,1.91,0,0,1,.12-.68,2.12,2.12,0,0,1,.36-.57,1.6,1.6,0,0,1,.54-.38,1.73,1.73,0,0,1,1.41,0,1.6,1.6,0,0,1,.54.38,1.84,1.84,0,0,1,.49,1.25,1.75,1.75,0,0,1-.13.68,1.71,1.71,0,0,1-.35.56,1.73,1.73,0,0,1-1.26.54Zm-1.13-1.77a1.35,1.35,0,0,0,.09.5,1.33,1.33,0,0,0,.24.4A1.22,1.22,0,0,0,58,80a1,1,0,0,0,.89,0,1.36,1.36,0,0,0,.36-.27,1.33,1.33,0,0,0,.25-.41,1.43,1.43,0,0,0,0-1,1.33,1.33,0,0,0-.25-.41,1.36,1.36,0,0,0-.36-.27,1,1,0,0,0-.45-.1,1.13,1.13,0,0,0-.44.1,1.09,1.09,0,0,0-.36.28,1.38,1.38,0,0,0-.24.41A1.35,1.35,0,0,0,57.28,78.84Z" transform="translate(4.96 4.32)"/><path class="cls-5" d="M66,80.54h-.58V78.62a1.47,1.47,0,0,0-.17-.79.6.6,0,0,0-.52-.26.93.93,0,0,0-.63.25,1.39,1.39,0,0,0-.4.66v2.06h-.58V78.62a1.49,1.49,0,0,0-.17-.8.58.58,0,0,0-.51-.25.92.92,0,0,0-.63.25,1.31,1.31,0,0,0-.4.65v2.07h-.58V77.11h.53v.74a1.55,1.55,0,0,1,.54-.59,1.4,1.4,0,0,1,.76-.21,1,1,0,0,1,.68.24,1,1,0,0,1,.31.6A1.44,1.44,0,0,1,65,77.05a1.09,1.09,0,0,1,.5.11.75.75,0,0,1,.31.3,1.47,1.47,0,0,1,.18.46,3.45,3.45,0,0,1,0,.57Z" transform="translate(4.96 4.32)"/><path class="cls-5" d="M72.7,80.54V76.93L71.15,79.7h-.33l-1.56-2.77v3.61h-.59V75.88h.62l1.69,3,1.7-3h.61v4.66Z" transform="translate(4.96 4.32)"/><path class="cls-5" d="M75.76,80.61a1.73,1.73,0,0,1-1.26-.54,1.89,1.89,0,0,1-.35-.56,2,2,0,0,1-.12-.68,1.72,1.72,0,0,1,.13-.68,1.87,1.87,0,0,1,.35-.57,1.55,1.55,0,0,1,.55-.38,1.6,1.6,0,0,1,.7-.15,1.66,1.66,0,0,1,.7.15,1.64,1.64,0,0,1,.55.38,1.87,1.87,0,0,1,.35.57,1.72,1.72,0,0,1,.13.68,1.75,1.75,0,0,1-.13.68,1.71,1.71,0,0,1-.35.56,1.53,1.53,0,0,1-.55.39A1.63,1.63,0,0,1,75.76,80.61Zm-1.14-1.77a1.35,1.35,0,0,0,.09.5,1.33,1.33,0,0,0,.24.4,1.22,1.22,0,0,0,.36.27,1,1,0,0,0,.89,0,1.22,1.22,0,0,0,.36-.27,1.33,1.33,0,0,0,.25-.41,1.43,1.43,0,0,0,0-1,1.33,1.33,0,0,0-.25-.41,1.22,1.22,0,0,0-.36-.27,1,1,0,0,0-.44-.1,1.14,1.14,0,0,0-.45.1,1.09,1.09,0,0,0-.36.28,1.38,1.38,0,0,0-.24.41A1.35,1.35,0,0,0,74.62,78.84Z" transform="translate(4.96 4.32)"/><path class="cls-5" d="M80,77.62a1.5,1.5,0,0,0-.76.22,1.15,1.15,0,0,0-.47.59v2.11h-.58V77.11h.54v.8a1.59,1.59,0,0,1,.47-.58,1.11,1.11,0,0,1,.61-.24H80Z" transform="translate(4.96 4.32)"/><path class="cls-5" d="M82.35,80.37l-.14.06L82,80.5a.94.94,0,0,1-.24.06,1.18,1.18,0,0,1-.27,0,.84.84,0,0,1-.54-.18.63.63,0,0,1-.23-.54v-2.3h-.47v-.46h.47V76h.58v1.14h.77v.46h-.77v2.12a.39.39,0,0,0,.12.28.4.4,0,0,0,.26.08A.83.83,0,0,0,82,80l.19-.09Z" transform="translate(4.96 4.32)"/><path class="cls-5" d="M84.21,80.58a1.4,1.4,0,0,1-.64-.15,1.55,1.55,0,0,1-.5-.38,1.64,1.64,0,0,1-.32-.56,1.84,1.84,0,0,1-.12-.66,1.91,1.91,0,0,1,.12-.68,1.59,1.59,0,0,1,.32-.57,1.73,1.73,0,0,1,.5-.39,1.55,1.55,0,0,1,.65-.14,1.32,1.32,0,0,1,.75.21,1.91,1.91,0,0,1,.53.53v-.68H86V80.5a1.35,1.35,0,0,1-.14.65,1.4,1.4,0,0,1-.37.47,1.92,1.92,0,0,1-.55.29,2.54,2.54,0,0,1-.68.09,1.89,1.89,0,0,1-1-.2,1.61,1.61,0,0,1-.61-.55L83,81a1.37,1.37,0,0,0,.53.46,1.63,1.63,0,0,0,.7.15,1.41,1.41,0,0,0,.45-.07,1.18,1.18,0,0,0,.37-.19,1,1,0,0,0,.25-.33,1.13,1.13,0,0,0,.09-.47v-.6a1.23,1.23,0,0,1-.23.28,1.48,1.48,0,0,1-.29.22,1.4,1.4,0,0,1-.34.13A1.36,1.36,0,0,1,84.21,80.58Zm.18-.47a1.15,1.15,0,0,0,.36-.07,1.34,1.34,0,0,0,.31-.17,1.12,1.12,0,0,0,.24-.25.71.71,0,0,0,.13-.28v-1a1.26,1.26,0,0,0-.18-.32,2,2,0,0,0-.26-.25,1.34,1.34,0,0,0-.31-.17,1.06,1.06,0,0,0-.34-.06,1,1,0,0,0-.47.11,1.14,1.14,0,0,0-.35.3,1.42,1.42,0,0,0-.23.42,1.49,1.49,0,0,0-.07.47,1.28,1.28,0,0,0,.09.48,1.18,1.18,0,0,0,.25.4,1.13,1.13,0,0,0,.37.28A1.15,1.15,0,0,0,84.39,80.11Z" transform="translate(4.96 4.32)"/><path class="cls-5" d="M87.83,80.61a1.14,1.14,0,0,1-.46-.09A1.09,1.09,0,0,1,87,80.3a1,1,0,0,1-.25-.34,1.16,1.16,0,0,1-.08-.42.85.85,0,0,1,.1-.43,1.07,1.07,0,0,1,.3-.34,1.5,1.5,0,0,1,.46-.21,1.81,1.81,0,0,1,.58-.08,2.92,2.92,0,0,1,.51,0,2.41,2.41,0,0,1,.45.13v-.28a.83.83,0,0,0-.91-.9,2,2,0,0,0-1.09.4l-.19-.37a2.37,2.37,0,0,1,1.34-.45,1.45,1.45,0,0,1,1,.36,1.37,1.37,0,0,1,.38,1v1.4q0,.21.18.21v.5l-.15,0h-.12a.38.38,0,0,1-.28-.11.37.37,0,0,1-.12-.24V80a1.39,1.39,0,0,1-.58.47A1.79,1.79,0,0,1,87.83,80.61Zm.15-.44a1.56,1.56,0,0,0,.57-.11.92.92,0,0,0,.4-.31.34.34,0,0,0,.13-.25V79a2.35,2.35,0,0,0-.87-.16,1.27,1.27,0,0,0-.71.18.55.55,0,0,0-.27.48.76.76,0,0,0,0,.27.65.65,0,0,0,.16.21.75.75,0,0,0,.24.15A.94.94,0,0,0,88,80.17Z" transform="translate(4.96 4.32)"/><path class="cls-5" d="M92,80.58a1.37,1.37,0,0,1-.64-.15,1.45,1.45,0,0,1-.5-.38,1.81,1.81,0,0,1-.44-1.22,1.9,1.9,0,0,1,.11-.68,1.78,1.78,0,0,1,.33-.57,1.61,1.61,0,0,1,.5-.39,1.51,1.51,0,0,1,.65-.14,1.31,1.31,0,0,1,.74.21,2.09,2.09,0,0,1,.54.53v-.68h.51V80.5a1.48,1.48,0,0,1-.14.65,1.54,1.54,0,0,1-.37.47,2,2,0,0,1-.56.29A2.48,2.48,0,0,1,92,82a1.89,1.89,0,0,1-1-.2,1.77,1.77,0,0,1-.61-.55l.34-.3a1.28,1.28,0,0,0,.52.46,1.66,1.66,0,0,0,.7.15,1.33,1.33,0,0,0,.45-.07,1.08,1.08,0,0,0,.37-.19.9.9,0,0,0,.25-.33,1,1,0,0,0,.1-.47v-.6a1.56,1.56,0,0,1-.23.28,1.29,1.29,0,0,1-.3.22,1.2,1.2,0,0,1-.33.13A1.49,1.49,0,0,1,92,80.58Zm.18-.47a1,1,0,0,0,.35-.07,1.41,1.41,0,0,0,.32-.17,1.88,1.88,0,0,0,.24-.25.88.88,0,0,0,.13-.28v-1A1.29,1.29,0,0,0,93,78a1.24,1.24,0,0,0-.26-.25,1.17,1.17,0,0,0-.31-.17,1,1,0,0,0-.34-.06,1,1,0,0,0-.47.11,1.43,1.43,0,0,0-.35.3,1.4,1.4,0,0,0-.22.42,1.5,1.5,0,0,0-.08.47,1.28,1.28,0,0,0,.09.48,1.36,1.36,0,0,0,.25.4,1.25,1.25,0,0,0,.37.28A1.2,1.2,0,0,0,92.13,80.11Z" transform="translate(4.96 4.32)"/><path class="cls-5" d="M96.2,80.61a1.64,1.64,0,0,1-.71-.15,1.68,1.68,0,0,1-.91-.95,1.72,1.72,0,0,1-.13-.68,1.8,1.8,0,0,1,.13-.69,1.58,1.58,0,0,1,.36-.56,1.83,1.83,0,0,1,.55-.39,1.87,1.87,0,0,1,.71-.14,1.64,1.64,0,0,1,.71.15,1.6,1.6,0,0,1,.54.38,1.89,1.89,0,0,1,.35.56,1.84,1.84,0,0,1,.12.66.53.53,0,0,1,0,.13.22.22,0,0,1,0,.09H95.06a1.21,1.21,0,0,0,.12.47,1,1,0,0,0,.26.36,1.21,1.21,0,0,0,.35.24,1.26,1.26,0,0,0,.43.08,1.15,1.15,0,0,0,.31,0,1.39,1.39,0,0,0,.28-.12.91.91,0,0,0,.23-.17.61.61,0,0,0,.15-.24l.5.14a1.12,1.12,0,0,1-.23.35,1.84,1.84,0,0,1-.34.27,1.5,1.5,0,0,1-.43.18A2,2,0,0,1,96.2,80.61Zm1.17-2a1.07,1.07,0,0,0-.12-.45,1.19,1.19,0,0,0-.26-.36,1.15,1.15,0,0,0-.35-.22,1.08,1.08,0,0,0-.44-.08,1.13,1.13,0,0,0-.79.31,1.18,1.18,0,0,0-.36.8Z" transform="translate(4.96 4.32)"/><path class="cls-5" d="M103.05,76.86a.76.76,0,0,0-.21-.18,2,2,0,0,0-.29-.16l-.36-.11a1.84,1.84,0,0,0-.41,0,1.29,1.29,0,0,0-.79.2.7.7,0,0,0-.26.56.63.63,0,0,0,.08.32.56.56,0,0,0,.22.21,1.59,1.59,0,0,0,.39.15c.15,0,.33.09.54.14l.66.18a1.88,1.88,0,0,1,.49.26,1,1,0,0,1,.32.36,1.27,1.27,0,0,1,.11.54,1.34,1.34,0,0,1-.13.58,1.16,1.16,0,0,1-.36.4,1.48,1.48,0,0,1-.54.24,2.8,2.8,0,0,1-.67.08,3.16,3.16,0,0,1-1-.17,2.87,2.87,0,0,1-.87-.49l.28-.5a1.6,1.6,0,0,0,.27.22,1.94,1.94,0,0,0,.38.2,3.1,3.1,0,0,0,.46.15,2.24,2.24,0,0,0,.52,0,1.49,1.49,0,0,0,.77-.17.59.59,0,0,0,.28-.54.58.58,0,0,0-.09-.33.84.84,0,0,0-.26-.23,1.83,1.83,0,0,0-.42-.17c-.17,0-.36-.11-.58-.16l-.62-.18a1.89,1.89,0,0,1-.45-.24.86.86,0,0,1-.27-.33,1,1,0,0,1-.1-.48,1.38,1.38,0,0,1,.13-.59,1.21,1.21,0,0,1,.35-.43,1.4,1.4,0,0,1,.53-.27,2.36,2.36,0,0,1,.67-.09,2.39,2.39,0,0,1,1.53.54Z" transform="translate(4.96 4.32)"/><path class="cls-5" d="M105.72,80.61a1.64,1.64,0,0,1-.71-.15,1.5,1.5,0,0,1-.54-.39,1.71,1.71,0,0,1-.35-.56,1.75,1.75,0,0,1-.13-.68,1.72,1.72,0,0,1,.13-.68,1.87,1.87,0,0,1,.35-.57,1.64,1.64,0,0,1,.55-.38,1.6,1.6,0,0,1,.7-.15,1.77,1.77,0,0,1,1.25.53,1.87,1.87,0,0,1,.35.57,1.72,1.72,0,0,1,.13.68,2,2,0,0,1-.12.68,1.92,1.92,0,0,1-.36.56,1.45,1.45,0,0,1-.55.39A1.6,1.6,0,0,1,105.72,80.61Zm-1.14-1.77a1.35,1.35,0,0,0,.09.5,1.33,1.33,0,0,0,.24.4,1.54,1.54,0,0,0,.36.27,1.14,1.14,0,0,0,.45.1,1.09,1.09,0,0,0,.44-.1,1.41,1.41,0,0,0,.37-.27,1.52,1.52,0,0,0,.24-.41,1.43,1.43,0,0,0,0-1,1.52,1.52,0,0,0-.24-.41,1.41,1.41,0,0,0-.37-.27,1,1,0,0,0-.44-.1,1.14,1.14,0,0,0-.45.1,1.35,1.35,0,0,0-.36.28,1.38,1.38,0,0,0-.24.41A1.35,1.35,0,0,0,104.58,78.84Z" transform="translate(4.96 4.32)"/><path class="cls-5" d="M108.17,75.75h.57v3.9a.41.41,0,0,0,.11.3.36.36,0,0,0,.28.11l.17,0,.19-.06.09.47a2.31,2.31,0,0,1-.34.1,2.5,2.5,0,0,1-.35,0,.76.76,0,0,1-.53-.19.73.73,0,0,1-.19-.54Z" transform="translate(4.96 4.32)"/><path class="cls-5" d="M111.09,80.61a1,1,0,0,1-.82-.37,1.78,1.78,0,0,1-.27-1.07V77.11h.58v2c0,.7.24,1,.73,1a1.13,1.13,0,0,0,.66-.23,1.41,1.41,0,0,0,.47-.62V77.11H113v2.72c0,.14.06.21.19.21v.5l-.16,0h-.11a.4.4,0,0,1-.28-.1.32.32,0,0,1-.12-.25l0-.41a1.57,1.57,0,0,1-.6.6A1.64,1.64,0,0,1,111.09,80.61Z" transform="translate(4.96 4.32)"/><path class="cls-5" d="M115.75,80.37l-.14.06a2.08,2.08,0,0,1-.43.13,1.09,1.09,0,0,1-.26,0,.89.89,0,0,1-.55-.18.63.63,0,0,1-.23-.54v-2.3h-.46v-.46h.46V76h.58v1.14h.77v.46h-.77v2.12a.39.39,0,0,0,.12.28.43.43,0,0,0,.27.08.78.78,0,0,0,.31,0l.19-.09Z" transform="translate(4.96 4.32)"/><path class="cls-5" d="M116.29,76.47v-.72h.58v.72Zm0,4.07V77.11h.58v3.43Z" transform="translate(4.96 4.32)"/><path class="cls-5" d="M119.3,80.61a1.64,1.64,0,0,1-.71-.15,1.5,1.5,0,0,1-.54-.39,1.71,1.71,0,0,1-.35-.56,1.75,1.75,0,0,1-.13-.68,1.72,1.72,0,0,1,.13-.68,1.87,1.87,0,0,1,.35-.57,1.64,1.64,0,0,1,.55-.38,1.6,1.6,0,0,1,.7-.15,1.77,1.77,0,0,1,1.25.53,1.87,1.87,0,0,1,.35.57,1.72,1.72,0,0,1,.13.68,2,2,0,0,1-.12.68,1.92,1.92,0,0,1-.36.56,1.53,1.53,0,0,1-.55.39A1.6,1.6,0,0,1,119.3,80.61Zm-1.14-1.77a1.35,1.35,0,0,0,.09.5,1.33,1.33,0,0,0,.24.4,1.54,1.54,0,0,0,.36.27,1,1,0,0,0,.89,0,1.22,1.22,0,0,0,.36-.27,1.33,1.33,0,0,0,.25-.41,1.43,1.43,0,0,0,0-1,1.33,1.33,0,0,0-.25-.41,1.22,1.22,0,0,0-.36-.27,1,1,0,0,0-.44-.1,1.14,1.14,0,0,0-.45.1,1.35,1.35,0,0,0-.36.28,1.38,1.38,0,0,0-.24.41A1.35,1.35,0,0,0,118.16,78.84Z" transform="translate(4.96 4.32)"/><path class="cls-5" d="M124.71,80.54h-.58V78.62a1.49,1.49,0,0,0-.17-.8.58.58,0,0,0-.51-.25.91.91,0,0,0-.35.07,1.63,1.63,0,0,0-.34.19,1.44,1.44,0,0,0-.27.28,1.22,1.22,0,0,0-.18.36v2.07h-.58V77.11h.53v.74a1.43,1.43,0,0,1,.59-.58,1.69,1.69,0,0,1,.83-.22,1.09,1.09,0,0,1,.5.11.81.81,0,0,1,.31.3,1.26,1.26,0,0,1,.17.46,3.45,3.45,0,0,1,0,.57Z" transform="translate(4.96 4.32)"/><path class="cls-5" d="M126.81,80.61a2.87,2.87,0,0,1-.82-.13,2.12,2.12,0,0,1-.68-.37l.24-.39a2.51,2.51,0,0,0,.61.34,1.69,1.69,0,0,0,.64.12,1,1,0,0,0,.59-.15.47.47,0,0,0,.22-.42.37.37,0,0,0-.06-.21.45.45,0,0,0-.18-.15.94.94,0,0,0-.3-.12l-.43-.11-.53-.15a1.21,1.21,0,0,1-.36-.18.51.51,0,0,1-.21-.23.71.71,0,0,1-.07-.34,1,1,0,0,1,.1-.46,1,1,0,0,1,.28-.33,1.38,1.38,0,0,1,.42-.21,2.09,2.09,0,0,1,.51-.07,2.2,2.2,0,0,1,.73.13,1.63,1.63,0,0,1,.56.33l-.26.34a1.6,1.6,0,0,0-.49-.28,1.49,1.49,0,0,0-.55-.1,1,1,0,0,0-.53.14A.46.46,0,0,0,126,78a.36.36,0,0,0,0,.19.32.32,0,0,0,.14.14,1,1,0,0,0,.25.11l.37.1a5.1,5.1,0,0,1,.6.16,1.65,1.65,0,0,1,.42.19.88.88,0,0,1,.25.26.84.84,0,0,1,.08.37.9.9,0,0,1-.37.76A1.56,1.56,0,0,1,126.81,80.61Z" transform="translate(4.96 4.32)"/><text class="cls-6" transform="translate(46.28 94.24)">223 14 St<tspan class="cls-7" x="21.9" y="0">r</tspan><tspan class="cls-8" x="23.89" y="0">eet </tspan><tspan class="cls-9" x="33.52" y="0">N</tspan><tspan x="37.65" y="0">W </tspan><tspan class="cls-9" x="44.7" y="0">C</tspan><tspan class="cls-10" x="48.35" y="0">alga</tspan><tspan class="cls-11" x="59.3" y="0">r</tspan><tspan class="cls-12" x="61.44" y="0">y</tspan><tspan x="64.05" y="0">, AB </tspan><tspan class="cls-13" x="75.37" y="0">T</tspan><tspan class="cls-8" x="78.4" y="0">2N 1</tspan><tspan class="cls-14" x="88.68" y="0">Z</tspan><tspan x="91.91" y="0">6</tspan></text></g></g></g></svg>