<svg xmlns="http://www.w3.org/2000/svg" xmlns:xlink="http://www.w3.org/1999/xlink" width="189.36" height="108.21" viewBox="0 0 189.36 108.21"><defs><style>.cls-1{fill:none;}.cls-2{clip-path:url(#clip-path);}.cls-11,.cls-3{fill:#fff;}.cls-4{fill:#221e20;}.cls-5,.cls-6{fill:#83bb26;}.cls-6{font-size:8.34px;}.cls-11,.cls-6{font-family:Montserrat-Regular, Montserrat;}.cls-7{letter-spacing:-0.03em;}.cls-8{letter-spacing:0.01em;}.cls-9{letter-spacing:-0.02em;}.cls-10{letter-spacing:0em;}.cls-11{font-size:5.13px;}.cls-12{letter-spacing:-0.01em;}.cls-13{letter-spacing:0em;}.cls-14{letter-spacing:-0.01em;}.cls-15{letter-spacing:0em;}.cls-16{letter-spacing:0.02em;}.cls-17{letter-spacing:-0.03em;}.cls-18{letter-spacing:0.01em;}.cls-19{letter-spacing:-0.02em;}.cls-20{fill:#79b424;}</style><clipPath id="clip-path" transform="translate(5.84 3.44)"><rect class="cls-1" width="177.69" height="101.32" rx="3.39"/></clipPath></defs><g id="Layer_2" data-name="Layer 2"><g id="Layer_1-2" data-name="Layer 1"><g class="cls-2"><rect class="cls-3" width="189.36" height="108.21"/><rect y="82.13" width="189.36" height="26.07"/><path class="cls-4" d="M96.91,32.2l-7-19.43H87L82.56,26l.2.15,1.9,1.43,2.61-8,3.91,11a31.12,31.12,0,0,0,5.73,1.62" transform="translate(5.84 3.44)"/><path class="cls-4" d="M106.85,49.43a2.12,2.12,0,0,1-1.59-.24c-.71-.48-1.26-1.27-2.14-3.1-.45-1-1-2.12-1.41-3,1.72.07,3.41,0,5.06-.07V39.5S94.7,41.25,86,35.29a49.63,49.63,0,0,1-14-14c-.56-.89,1.87,5.7,7.18,11.45L74.41,45.52c-.62,1.7-1.4,3.67-3.32,4v.93c1.35,0,2.85-.31,4.3-.31s2.9.31,4.34.31V49.5a2.36,2.36,0,0,1-2.43-2.69c0-1.55,1.44-4.91,2.58-8.53h0L80.66,36h0l.52-1.27a26.53,26.53,0,0,0,3,2.36,33.34,33.34,0,0,0,12.67,5.48c.52,1.08,2.56,5.42,1.86,6.11a4.37,4.37,0,0,1-2.38,1c-.32.08-.08.79-.08.79s5.61-.34,5.89-.34c.43,0,4.83.34,4.83.34Z" transform="translate(5.84 3.44)"/><path class="cls-5" d="M70.84,15c-.71-1.13,3.42,9.84,12.15,15.8s15.88,6.35,22.63,5.95V33.23S93.55,35,84.82,29a49.48,49.48,0,0,1-14-14" transform="translate(5.84 3.44)"/><text class="cls-6" transform="translate(39.22 70.03)"><tspan class="cls-7">A</tspan><tspan x="5.71" y="0">xiom Mo</tspan><tspan class="cls-8" x="41.85" y="0">r</tspan><tspan class="cls-9" x="45.32" y="0">t</tspan><tspan x="48.54" y="0">g</tspan><tspan class="cls-10" x="54.26" y="0">a</tspan><tspan x="59.2" y="0">ge Solutions</tspan></text><text class="cls-11" transform="translate(47.16 94.84)">223 14 St<tspan class="cls-12" x="21.9" y="0">r</tspan><tspan class="cls-13" x="23.89" y="0">eet </tspan><tspan class="cls-14" x="33.52" y="0">N</tspan><tspan x="37.65" y="0">W </tspan><tspan class="cls-14" x="44.7" y="0">C</tspan><tspan class="cls-15" x="48.35" y="0">alga</tspan><tspan class="cls-16" x="59.3" y="0">r</tspan><tspan class="cls-17" x="61.44" y="0">y</tspan><tspan x="64.05" y="0">, AB </tspan><tspan class="cls-18" x="75.37" y="0">T</tspan><tspan class="cls-13" x="78.4" y="0">2N 1</tspan><tspan class="cls-19" x="88.68" y="0">Z</tspan><tspan x="91.91" y="0">6</tspan></text><rect class="cls-20" y="79" width="189.36" height="1.58"/></g></g></g></svg>