<svg xmlns="http://www.w3.org/2000/svg" xmlns:xlink="http://www.w3.org/1999/xlink" width="187.61" height="109.97" viewBox="0 0 187.61 109.97"><defs><style>.cls-1{fill:none;}.cls-2{clip-path:url(#clip-path);}.cls-16,.cls-17,.cls-3{fill:#fff;}.cls-4{fill:#13100d;}.cls-15,.cls-4,.cls-5{fill-rule:evenodd;}.cls-5{fill:#88bc24;}.cls-6{font-size:9.34px;font-family:Montserrat-Bold, Montserrat;font-weight:700;}.cls-7{font-size:6.47px;}.cls-8{font-size:5.75px;fill:#78b524;font-family:Montserrat-Medium, Montserrat;font-weight:500;}.cls-9{letter-spacing:0.01em;}.cls-10{letter-spacing:-0.02em;}.cls-11{letter-spacing:0em;}.cls-12{letter-spacing:-0.01em;}.cls-13{letter-spacing:-0.02em;}.cls-14{letter-spacing:0em;}.cls-15,.cls-18{fill:#8bc53f;}.cls-16{font-size:5.03px;}.cls-16,.cls-17{font-family:OpenSans, Open Sans;}.cls-17{font-size:3.6px;}</style><clipPath id="clip-path" transform="translate(5.42 4.19)"><rect class="cls-1" width="177.69" height="101.32" rx="3.39"/></clipPath></defs><g id="Layer_2" data-name="Layer 2"><g id="Layer_1-2" data-name="Layer 1"><g class="cls-2"><rect class="cls-3" width="187.61" height="109.97"/><path class="cls-4" d="M.23-4.19c8,53,101,88.35,182,88.64v21.33H-5.42v-110Z" transform="translate(5.42 4.19)"/><path class="cls-4" d="M132.41,38.93c0-3.47,2.3-5.8,5.56-5.8s5.65,2.21,5.65,6.1c0,3.3-2.25,5.91-5.38,5.91-3.53,0-5.83-2.63-5.83-6.21m9.23.9c0-2.46-.94-5.83-3.82-5.83-1.74,0-3.45,1.26-3.45,4.41,0,2.86,1.24,5.84,4,5.84C140.2,44.25,141.64,42.73,141.64,39.83Z" transform="translate(5.42 4.19)"/><path class="cls-4" d="M146.5,34.59c-.2-.37-.69-.67-1.61-.74l0-.4c.58,0,1.39.07,1.92.07s1.11,0,1.71-.07c1.11,3.18,2.23,5.93,3.62,9.23a77.53,77.53,0,0,0,3.77-9.23c.47,0,1,.07,1.52.07s1.21-.05,1.76-.07v.42c-1.14,0-1.44.4-1.34,2.28l.35,6c.09,1.64.32,2.21,1.09,2.21v.38c-.47,0-1.27-.08-1.94-.08s-1.49.08-2.26.08v-.38c1,0,1.37-.37,1.32-1.61l-.35-7a81.53,81.53,0,0,1-3.94,9.18h-.77a92.73,92.73,0,0,1-3.87-9.26c-.2,2.24-.4,4.49-.43,6.73,0,1.61.2,2,1.22,2v.38c-.62,0-1.29-.08-1.91-.08s-1.24.08-1.86.08v-.38c1.16-.1,1.31-.27,1.51-2.92Z" transform="translate(5.42 4.19)"/><path class="cls-4" d="M103,31.48l1.17-3.58,2.07,5.85.44.29c.8.53,1.64,1,2.51,1.55l0,0-3.89-10.76h-1.28l-2,5.92.09.07Z" transform="translate(5.42 4.19)"/><path class="cls-4" d="M129.78,41.86V37.64c0-3.32.29-3.72,1.46-3.79v-.4c-.77,0-1.56.07-2.28.07s-1.66,0-2.48-.07v.4c1.11,0,1.49,1,1.49,3.62v3.92a10.66,10.66,0,0,1-.15,2.23q1.17.36,2.34.69a4.47,4.47,0,0,1-.38-2.45" transform="translate(5.42 4.19)"/><path class="cls-5" d="M123.56,44.76a86.91,86.91,0,0,0,10.37,2.66,104.55,104.55,0,0,0,29,1.5,109.32,109.32,0,0,1-18.94-1,105.64,105.64,0,0,1-12.47-2.53,100.5,100.5,0,0,1-10-3.22c-.53-.18-1.07-.4-1.57-.62L118.63,41l-1,1.24c-.06.07-.11.15-.17.23.84.36,1.69.71,2.54,1,1.17.45,2.35.86,3.52,1.25" transform="translate(5.42 4.19)"/><path class="cls-5" d="M106.32,34.6c-.85-.56-1.66-1.11-2.43-1.66l-1.2-.86-.94-.71A55,55,0,0,1,90.87,20.81a59.13,59.13,0,0,0,10.27,11.57l.93.79c.69.57,1.39,1.13,2.1,1.66s1.63,1.2,2.46,1.77a61.87,61.87,0,0,0,6,3.6c.74.39,1.49.76,2.25,1.12l.37.18.27-.37.82-1.11-.38-.17a76,76,0,0,1-9.67-5.25" transform="translate(5.42 4.19)"/><path class="cls-4" d="M147.22,51a106.92,106.92,0,0,1-12.59-1.92,97.42,97.42,0,0,1-10.18-2.74c-1.1-.35-2.17-.72-3.2-1.11l-1.33-.49-1-.4c-.73-.29-1.43-.59-2.12-.88-.39.56-.78,1.12-1,1.47l2.1.93,1,.4c1.41.56,2.83,1.06,4.25,1.53,1.19.39,2.39.74,3.58,1.07A86.51,86.51,0,0,0,137.19,51a104.73,104.73,0,0,0,29,.08,108.74,108.74,0,0,1-19-.09" transform="translate(5.42 4.19)"/><path class="cls-4" d="M109,39.59c-.87-.51-1.71-1-2.51-1.53-.43-.27-.84-.54-1.24-.81l-1-.66a55.21,55.21,0,0,1-11.39-10A58.93,58.93,0,0,0,103.7,37.63l1,.74c.72.54,1.45,1.06,2.18,1.56s1.69,1.12,2.55,1.65c1.36.83,2.75,1.59,4.15,2.3l1-1.39c-2-1-3.91-1.93-5.58-2.9" transform="translate(5.42 4.19)"/><path class="cls-4" d="M114.87,45.52A1.29,1.29,0,0,1,115,45c.15-.37,1.66-2.52,2.14-3.16s1-1.24,1.63-2.11c.42.53.45.53.67.86a21.59,21.59,0,0,0,3.13,1.16,3,3,0,0,1-.46-.55l-1.88-2.51,1.42-2.06c.72-1.07,2.16-2.78,3.22-2.78v-.42c-.59,0-1.34.07-1.93.07-.8,0-1.47-.07-2.06-.07v.42c.52.05.79.17.79.5a10.61,10.61,0,0,1-2.08,3.45c-1.62-2.16-2.24-3.06-2.24-3.48,0-.22.28-.44.65-.49v-.4c-.72,0-1.59.07-2.31.07s-1.49-.07-2.21-.07v.4c.8,0,1.12.27,1.86,1.26l2.78,3.68-2,2.73-2.26,3.09,0,.07c-.74,1-1.09,1.39-2.06,1.39v.37c.65,0,1.24-.07,1.86-.07s1.62.07,2.26.07v-.37c-.57,0-1-.13-1-.55" transform="translate(5.42 4.19)"/><path class="cls-4" d="M99.43,42.81a27.38,27.38,0,0,1,1.36-4.49h0l.4-1.22h0l.69-1.72-1.08-1.07-2.9,7.82c-.33.9-.73,1.93-1.74,2.09v.49c.71,0,1.5-.16,2.26-.16s1.52.16,2.29.16v-.49a1.24,1.24,0,0,1-1.29-1.41" transform="translate(5.42 4.19)"/><path class="cls-5" d="M165.43,57.67a.81.81,0,0,1-.09.37.69.69,0,0,1-.31.3,1.29,1.29,0,0,1-.58.12,2.6,2.6,0,0,1-.92-.18h0v0a3.56,3.56,0,0,1-.05-.65v-.15h.16v0a.54.54,0,0,0,.28.52,1.27,1.27,0,0,0,.57.15.49.49,0,0,0,.36-.13.44.44,0,0,0,.11-.31.44.44,0,0,0-.13-.33l-.18-.14-.31-.17-.33-.2a1.24,1.24,0,0,1-.22-.18.77.77,0,0,1-.23-.57.82.82,0,0,1,.1-.4.7.7,0,0,1,.31-.28,1.1,1.1,0,0,1,.5-.11,3.88,3.88,0,0,1,.48,0l.37,0h0v0a3.23,3.23,0,0,0,0,.53,2.44,2.44,0,0,0,0,.27v.05h-.17v0a.81.81,0,0,0-.16-.47.61.61,0,0,0-.47-.15.58.58,0,0,0-.39.11A.37.37,0,0,0,164,56a.45.45,0,0,0,.14.32l.16.12a2.69,2.69,0,0,0,.29.16l.34.2a2.12,2.12,0,0,1,.24.2,1,1,0,0,1,.2.29,1.09,1.09,0,0,1,.06.36m-6.05-1.5,0,1.37a2.31,2.31,0,0,0,0,.37.46.46,0,0,0,.12.24.35.35,0,0,0,.26.09h0v.16h-1.13v-.15h0a.39.39,0,0,0,.21-.06.26.26,0,0,0,.09-.16,1.27,1.27,0,0,0,0-.34.16.16,0,0,0,0-.07v0l-.05-1.76-.17-.17a.36.36,0,0,0-.2-.06h0v-.15h.22l.17,0,.16,0h.21c.14.19.28.38.43.56s.37.48.56.71.31.39.47.58l.36.42,0-1.52a2.19,2.19,0,0,0,0-.36.27.27,0,0,0-.1-.18.48.48,0,0,0-.26-.06h0v-.16h.3l.26,0,.25,0h.3v.16h0a.42.42,0,0,0-.22,0,.25.25,0,0,0-.09.13,1.23,1.23,0,0,0,0,.27v.12l.05,2.29h-.28l-.55-.62-.44-.52-.52-.63Zm-2.87.83a1.85,1.85,0,0,0-.14-.77,1.07,1.07,0,0,0-.35-.46.78.78,0,0,0-.44-.15.71.71,0,0,0-.4.13.9.9,0,0,0-.3.4,1.73,1.73,0,0,0-.12.67,1.89,1.89,0,0,0,.12.71,1.13,1.13,0,0,0,.32.48.74.74,0,0,0,.49.18.72.72,0,0,0,.29-.06.79.79,0,0,0,.27-.21,1,1,0,0,0,.19-.36A1.76,1.76,0,0,0,156.51,57Zm.52,0a1.54,1.54,0,0,1-.2.78,1.37,1.37,0,0,1-.52.52,1.35,1.35,0,0,1-.65.18,1.46,1.46,0,0,1-.55-.11,1.39,1.39,0,0,1-.46-.33,1.63,1.63,0,0,1-.3-.51,2,2,0,0,1-.1-.64,1.74,1.74,0,0,1,.13-.72,1.39,1.39,0,0,1,1.25-.81,1.45,1.45,0,0,1,.65.16,1.34,1.34,0,0,1,.54.54A1.91,1.91,0,0,1,157,57Zm-5.36-1.35a.32.32,0,0,0-.23-.07h0v-.16h.32l.27,0,.29,0h.33v.16h0a.29.29,0,0,0-.16,0,.27.27,0,0,0-.1.15,1.07,1.07,0,0,0-.06.31c0,.19,0,.38,0,.57v1a2.3,2.3,0,0,0,0,.37.39.39,0,0,0,.06.18.14.14,0,0,0,.07.06,1,1,0,0,0,.18,0h0v.15h-1.19v-.15h0a.33.33,0,0,0,.19-.06.43.43,0,0,0,.1-.24,4.22,4.22,0,0,0,0-.62v-.66c0-.24,0-.51,0-.75A.61.61,0,0,0,151.67,55.64Zm-2.84.09v2a.73.73,0,0,0,.08.38.36.36,0,0,0,.3.11h0v.16h-1.33v-.16h0a.42.42,0,0,0,.31-.09.52.52,0,0,0,.09-.34V55.73h-.14a1.57,1.57,0,0,0-.43,0,.33.33,0,0,0-.19.11,1.15,1.15,0,0,0-.1.23v0l-.15,0v0l0-.14c0-.07,0-.14,0-.21s0-.14.05-.21,0-.1,0-.14v-.06l.05,0a1.65,1.65,0,0,0,.62.1h1.24a.82.82,0,0,0,.4-.1l.07,0v.07a5.28,5.28,0,0,0-.09.68v0l-.15,0v0a.3.3,0,0,0-.09-.24.7.7,0,0,0-.38-.07Zm-3.1-.16a.41.41,0,0,0-.22,0,.14.14,0,0,0-.09.11,1.14,1.14,0,0,0,0,.26v1.18a1.42,1.42,0,0,1-.3,1,1.1,1.1,0,0,1-.86.35,1.59,1.59,0,0,1-.68-.14,1,1,0,0,1-.43-.41,1.43,1.43,0,0,1-.15-.67V56a.75.75,0,0,0,0-.26.16.16,0,0,0-.08-.1.58.58,0,0,0-.19,0h0v-.16H143l.26,0,.27,0h.32v.16h0a.32.32,0,0,0-.17,0,.19.19,0,0,0-.09.12,1.75,1.75,0,0,0-.05.33c0,.21,0,.43,0,.64s0,.42,0,.63a1.13,1.13,0,0,0,.06.36.71.71,0,0,0,.18.27.81.81,0,0,0,.59.22.67.67,0,0,0,.47-.15.6.6,0,0,0,.21-.36,2.85,2.85,0,0,0,0-.51v-1a1.67,1.67,0,0,0,0-.39.21.21,0,0,0-.09-.15.44.44,0,0,0-.2,0h0v-.16h.3l.26,0,.26,0h.3v.16Zm-6.45,0a.29.29,0,0,0-.18,0h0v-.16h.34l.3,0,.29,0h.34v.15h0a1.19,1.19,0,0,0-.26,0,.12.12,0,0,0-.09.1.88.88,0,0,0-.06.28c0,.21,0,.42,0,.63V57.7s0,0,0,.08a.71.71,0,0,0,0,.21.19.19,0,0,0,.12.09,1.19,1.19,0,0,0,.33,0,.89.89,0,0,0,.32,0,.39.39,0,0,0,.2-.14.75.75,0,0,0,.13-.32v0l.15,0v0a4,4,0,0,1-.2.75v0h-.78l-1.08,0h0v-.16h0a.32.32,0,0,0,.16,0,.3.3,0,0,0,.09-.13,1,1,0,0,0,.06-.26c0-.15,0-.31,0-.46v-.95a3.38,3.38,0,0,0,0-.55A.4.4,0,0,0,139.28,55.62ZM136.82,57a1.85,1.85,0,0,0-.14-.77,1.07,1.07,0,0,0-.35-.46.78.78,0,0,0-.44-.15.71.71,0,0,0-.4.13.9.9,0,0,0-.3.4,1.73,1.73,0,0,0-.12.67,1.89,1.89,0,0,0,.12.71,1.13,1.13,0,0,0,.32.48.74.74,0,0,0,.49.18.72.72,0,0,0,.29-.06.79.79,0,0,0,.27-.21,1,1,0,0,0,.19-.36A1.76,1.76,0,0,0,136.82,57Zm.52,0a1.54,1.54,0,0,1-.2.78,1.37,1.37,0,0,1-.52.52,1.35,1.35,0,0,1-.65.18,1.46,1.46,0,0,1-.55-.11A1.39,1.39,0,0,1,135,58a1.63,1.63,0,0,1-.3-.51,2,2,0,0,1-.1-.64,1.74,1.74,0,0,1,.13-.72,1.39,1.39,0,0,1,1.25-.81,1.45,1.45,0,0,1,.65.16,1.34,1.34,0,0,1,.54.54A1.91,1.91,0,0,1,137.34,57Zm-4.48.68a1,1,0,0,1-.08.37.81.81,0,0,1-.31.3,1.33,1.33,0,0,1-.59.12,2.69,2.69,0,0,1-.92-.18h0v0a3.57,3.57,0,0,1-.06-.65v-.15h.17v0a.53.53,0,0,0,.28.52,1.2,1.2,0,0,0,.56.15.5.5,0,0,0,.37-.13.44.44,0,0,0,.11-.31.45.45,0,0,0-.14-.33l-.17-.14-.31-.17-.33-.2a1.3,1.3,0,0,1-.23-.18.77.77,0,0,1-.23-.57.82.82,0,0,1,.1-.4.79.79,0,0,1,.32-.28,1.08,1.08,0,0,1,.5-.11,3.73,3.73,0,0,1,.47,0l.38,0h0v0a4.91,4.91,0,0,0,0,.53,2.45,2.45,0,0,0,0,.27v.05h-.16v0a.87.87,0,0,0-.15-.47.65.65,0,0,0-.48-.15.61.61,0,0,0-.39.11.36.36,0,0,0-.11.26.45.45,0,0,0,.14.32l.15.12.29.16.34.2a1.16,1.16,0,0,1,.24.2.84.84,0,0,1,.2.29A.88.88,0,0,1,132.86,57.67ZM126,55.73v1h.37a2.68,2.68,0,0,0,.4,0,.27.27,0,0,0,.14-.07.55.55,0,0,0,.06-.18v0h.14v0c0,.21,0,.42,0,.63v.22h-.16v0a.29.29,0,0,0-.07-.2.62.62,0,0,0-.3-.06H126v.86a.19.19,0,0,0,.1.18,1,1,0,0,0,.38.06,1.19,1.19,0,0,0,.33,0,.43.43,0,0,0,.2-.14.72.72,0,0,0,.13-.3v0h.16v0a3.08,3.08,0,0,1-.22.73v0h0a3.85,3.85,0,0,1-.48,0h-1.39v-.16h0a.43.43,0,0,0,.2-.07.4.4,0,0,0,.09-.21,4.7,4.7,0,0,0,0-.53v-1c0-.15,0-.3,0-.46a.91.91,0,0,0,0-.23.37.37,0,0,0-.07-.12.32.32,0,0,0-.19,0h0v-.16h1.31l.31,0h.37v0c0,.1,0,.21,0,.32a2.71,2.71,0,0,0,0,.29v0h-.17v0a.33.33,0,0,0-.08-.25.44.44,0,0,0-.28-.07Zm-2.48,1.21v.13h0s-.07.09-.08.13a2.47,2.47,0,0,0,0,.39v.72h0a4.14,4.14,0,0,1-.93.1,1.86,1.86,0,0,1-.77-.15,1.52,1.52,0,0,1-.81-.9,1.61,1.61,0,0,1,.11-1.31,1.41,1.41,0,0,1,.59-.52,2.09,2.09,0,0,1,.89-.18h.52l.23,0h.31v0c0,.13,0,.26,0,.4s0,.27,0,.41v0h-.15v0a.63.63,0,0,0-.24-.48,1.11,1.11,0,0,0-.61-.15,1.35,1.35,0,0,0-.53.1.93.93,0,0,0-.36.25,1.1,1.1,0,0,0-.21.36,1.39,1.39,0,0,0-.06.4,1.7,1.7,0,0,0,.1.59,1.22,1.22,0,0,0,.28.44,1.13,1.13,0,0,0,.41.27,1.28,1.28,0,0,0,.48.09h.2a.31.31,0,0,0,.12,0,.15.15,0,0,0,0-.11v-.59a.25.25,0,0,0-.08-.22.49.49,0,0,0-.27-.06h0v-.17h0l.25,0h.43l.24,0Zm-5.18.18-.38-1.06-.36,1.06Zm.1.29h-.93l-.09.27-.06.21a.78.78,0,0,0,0,.14c0,.14.06.2.19.21h0v.16h-.88v-.15h0a.24.24,0,0,0,.15-.09,1.15,1.15,0,0,0,.12-.25l.91-2.53h.28l1,2.59a.53.53,0,0,0,.12.22.21.21,0,0,0,.17.06h0v.16h-1v-.15h0a.18.18,0,0,0,.12-.05.12.12,0,0,0,0-.1A3.34,3.34,0,0,0,118.39,57.41ZM115,56.94v.13h0s-.07.09-.08.13a2.47,2.47,0,0,0,0,.39v.72h0a4.14,4.14,0,0,1-.93.1,1.86,1.86,0,0,1-.77-.15,1.52,1.52,0,0,1-.81-.9,1.61,1.61,0,0,1,.11-1.31,1.36,1.36,0,0,1,.59-.52,2.09,2.09,0,0,1,.89-.18h.52l.23,0H115v0c0,.13,0,.26,0,.4s0,.27,0,.41v0h-.15v0a.63.63,0,0,0-.24-.48,1.11,1.11,0,0,0-.61-.15,1.35,1.35,0,0,0-.53.1A1.05,1.05,0,0,0,113,56a1.07,1.07,0,0,0-.2.36,1.4,1.4,0,0,0-.07.4,1.51,1.51,0,0,0,.11.59,1.22,1.22,0,0,0,.28.44,1.13,1.13,0,0,0,.41.27,1.27,1.27,0,0,0,.47.09h.2a.29.29,0,0,0,.13,0,.15.15,0,0,0,0-.11v-.59a.29.29,0,0,0-.08-.22.49.49,0,0,0-.27-.06h0v-.17h0l.25,0h.43l.24,0Zm-5.42-1.21v2a.73.73,0,0,0,.08.38.36.36,0,0,0,.3.11h0v.16h-1.33v-.16h0a.42.42,0,0,0,.31-.09.52.52,0,0,0,.09-.34V55.73H109a1.57,1.57,0,0,0-.43,0,.33.33,0,0,0-.19.11,1.15,1.15,0,0,0-.1.23v0l-.15,0v0l0-.14c0-.07,0-.14,0-.21a1.55,1.55,0,0,0,0-.21.78.78,0,0,0,0-.14v-.06l.05,0a1.65,1.65,0,0,0,.62.1h1.23a.83.83,0,0,0,.41-.1l.07,0v.07a5.28,5.28,0,0,0-.09.68v0l-.15,0v0a.3.3,0,0,0-.09-.24.7.7,0,0,0-.38-.07Zm-4.69-.07c0,.12,0,.24,0,.36v.92a1.23,1.23,0,0,0,.27,0,.63.63,0,0,0,.46-.15.69.69,0,0,0,.16-.52.77.77,0,0,0-.08-.37.52.52,0,0,0-.22-.22.66.66,0,0,0-.31-.06A1.18,1.18,0,0,0,104.87,55.66Zm.51,1.52h-.52v.66a.52.52,0,0,0,.07.27.23.23,0,0,0,.23.12h0v.16H104v-.15h0a.45.45,0,0,0,.22-.08.28.28,0,0,0,.09-.16.75.75,0,0,0,0-.21V56.11a1.77,1.77,0,0,0,0-.32.26.26,0,0,0-.09-.14.38.38,0,0,0-.21,0h0v-.16h0c.36,0,.73-.06,1.09-.06a1.69,1.69,0,0,1,.77.16.65.65,0,0,1,.35.66.94.94,0,0,1-.13.46.9.9,0,0,1-.31.36c.07.12.14.25.22.37s.17.25.26.38a2.31,2.31,0,0,0,.2.24.72.72,0,0,0,.22.17.41.41,0,0,0,.19,0h0v.15h0a1.43,1.43,0,0,1-.36.06.63.63,0,0,1-.27-.06.89.89,0,0,1-.22-.16,2.81,2.81,0,0,1-.33-.44C105.61,57.58,105.49,57.39,105.38,57.18ZM101.83,57a2,2,0,0,0-.13-.77,1.09,1.09,0,0,0-.36-.46.78.78,0,0,0-.44-.15.73.73,0,0,0-.4.13,1,1,0,0,0-.3.4,1.73,1.73,0,0,0-.12.67,2.12,2.12,0,0,0,.12.71,1.07,1.07,0,0,0,.33.48.73.73,0,0,0,.77.12.71.71,0,0,0,.27-.21,1,1,0,0,0,.19-.36A1.76,1.76,0,0,0,101.83,57Zm.52,0a1.54,1.54,0,0,1-.2.78,1.28,1.28,0,0,1-.51.52,1.42,1.42,0,0,1-.66.18,1.46,1.46,0,0,1-.55-.11A1.25,1.25,0,0,1,100,58a1.49,1.49,0,0,1-.31-.51,2,2,0,0,1-.1-.64,1.74,1.74,0,0,1,.13-.72,1.32,1.32,0,0,1,.36-.48,1.29,1.29,0,0,1,.44-.25,1.42,1.42,0,0,1,.45-.08,1.45,1.45,0,0,1,.65.16,1.34,1.34,0,0,1,.54.54A1.91,1.91,0,0,1,102.35,57ZM97,56.2l-.93,2.23h-.28l-1-2.22-.08,1.55a.28.28,0,0,0,0,.09.46.46,0,0,0,.08.28.44.44,0,0,0,.27.11h0v.15H94.07v-.15h0a.3.3,0,0,0,.25-.15,1.68,1.68,0,0,0,.11-.55c0-.19,0-.37,0-.56s0-.44,0-.66,0-.3,0-.45a.51.51,0,0,0,0-.17.23.23,0,0,0-.11-.08.84.84,0,0,0-.31,0h0v-.15h.26l.21,0,.21,0H95l1,2.34,1-2.34h.23l.2,0,.21,0h.25v.15h0a.65.65,0,0,0-.23.06.23.23,0,0,0-.12.1.49.49,0,0,0-.05.16,2.09,2.09,0,0,0,0,.25,3.44,3.44,0,0,0,0,.46c0,.26,0,.51,0,.76s0,.29,0,.44a.73.73,0,0,0,.09.32.29.29,0,0,0,.23.12h0v.15H96.67v-.16h0a.43.43,0,0,0,.31-.1.5.5,0,0,0,.09-.33c0-.28,0-.57,0-.85S97,56.46,97,56.2Z" transform="translate(5.42 4.19)"/><path class="cls-5" d="M6,6.61C23.61,51.44,117.57,80,171.21,81.94,116.5,82.76,21.45,53.24,6,6.61" transform="translate(5.42 4.19)"/><text class="cls-6" transform="translate(29.72 18.48)">John Doe, <tspan class="cls-7" x="51.56" y="0">AMP</tspan></text><text class="cls-8" transform="translate(29.89 25.63)">Mo<tspan class="cls-9" x="9.14" y="0">r</tspan><tspan class="cls-10" x="11.59" y="0">t</tspan><tspan x="13.86" y="0">g</tspan><tspan class="cls-11" x="17.83" y="0">a</tspan><tspan x="21.29" y="0">ge B</tspan><tspan class="cls-12" x="34.67" y="0">r</tspan><tspan x="36.96" y="0">o</tspan><tspan class="cls-13" x="40.61" y="0">k</tspan><tspan class="cls-14" x="44.03" y="0">er</tspan></text><path class="cls-15" d="M8.68,82.05a1.76,1.76,0,0,1,.41.21,1.28,1.28,0,0,1-.19.17,2,2,0,0,1-.81.34,1.93,1.93,0,0,0,.32-.32,2,2,0,0,0,.27-.4" transform="translate(5.42 4.19)"/><path class="cls-15" d="M7.87,82.6v-.71a1.71,1.71,0,0,1,.65.11,2.16,2.16,0,0,1-.65.72Z" transform="translate(5.42 4.19)"/><path class="cls-15" d="M7.06,82a1.35,1.35,0,0,1,.65-.11v.82A2,2,0,0,1,7.06,82" transform="translate(5.42 4.19)"/><path class="cls-15" d="M6.48,82.26a1.83,1.83,0,0,1,.42-.21,2.3,2.3,0,0,0,.59.72,1.89,1.89,0,0,1-.8-.33l-.21-.18" transform="translate(5.42 4.19)"/><path class="cls-15" d="M5.93,81h.7a2.51,2.51,0,0,0,.19.88h0l-.22.1-.22.13A1.77,1.77,0,0,1,5.93,81" transform="translate(5.42 4.19)"/><path class="cls-15" d="M6.8,81h.9v.71a2.71,2.71,0,0,0-.72.12A2.2,2.2,0,0,1,6.8,81" transform="translate(5.42 4.19)"/><path class="cls-15" d="M7.87,81.72V81h.91a2.12,2.12,0,0,1-.06.44,3.59,3.59,0,0,1-.12.39,3.37,3.37,0,0,0-.73-.12" transform="translate(5.42 4.19)"/><path class="cls-15" d="M8.75,81.9c0-.1.1-.27.13-.4A3.85,3.85,0,0,0,9,81h.7a1.81,1.81,0,0,1-.44,1.12,3.28,3.28,0,0,0-.46-.23" transform="translate(5.42 4.19)"/><path class="cls-15" d="M8.75,79.94c0,.1.1.27.13.41a3.7,3.7,0,0,1,.07.48h.7a1.81,1.81,0,0,0-.44-1.12,3.28,3.28,0,0,1-.46.23" transform="translate(5.42 4.19)"/><path class="cls-15" d="M5.93,80.83h.7A2.51,2.51,0,0,1,6.82,80h0l-.22-.1-.22-.13a1.77,1.77,0,0,0-.44,1.12" transform="translate(5.42 4.19)"/><path class="cls-15" d="M6.8,80.84h.9v-.71A2.71,2.71,0,0,1,7,80a2.25,2.25,0,0,0-.18.84" transform="translate(5.42 4.19)"/><path class="cls-15" d="M7.87,80.12v.71h.91a2.12,2.12,0,0,0-.06-.44A3.59,3.59,0,0,0,8.6,80a3.37,3.37,0,0,1-.73.12" transform="translate(5.42 4.19)"/><path class="cls-15" d="M7.06,79.84a1.35,1.35,0,0,0,.65.11v-.82a2,2,0,0,0-.65.71" transform="translate(5.42 4.19)"/><path class="cls-15" d="M7.87,79.24V80a1.93,1.93,0,0,0,.65-.12,2.16,2.16,0,0,0-.65-.72Z" transform="translate(5.42 4.19)"/><path class="cls-15" d="M6.48,79.58a1.83,1.83,0,0,0,.42.21,2.3,2.3,0,0,1,.59-.72,1.89,1.89,0,0,0-.8.33l-.21.18" transform="translate(5.42 4.19)"/><path class="cls-15" d="M8.68,79.79a1.76,1.76,0,0,0,.41-.21,1.28,1.28,0,0,0-.19-.17,2,2,0,0,0-.81-.34,1.93,1.93,0,0,1,.32.32,2,2,0,0,1,.27.4" transform="translate(5.42 4.19)"/><text class="cls-16" transform="translate(18.23 86.32)">johndoebroker.ca</text><path class="cls-15" d="M9.7,66.31l-.5-.5A.46.46,0,0,0,9,65.64c-.17,0-.27.09-.38.2s-.18.22-.21.19A3,3,0,0,1,7,64.64s.16-.19.19-.22.22-.19.21-.34-.34-.44-.48-.58-.39-.39-.65-.13a1.11,1.11,0,0,0-.29,1,2.44,2.44,0,0,0,.7,1.32,4.5,4.5,0,0,0,1.44,1.17,2,2,0,0,0,.87.23c.25,0,1.11-.38.74-.75" transform="translate(5.42 4.19)"/><text class="cls-16" transform="translate(17.61 71.29)">403 667 6775</text><path class="cls-15" d="M6.75,72c-.18,0-.54-.06-.7.07l1,.76,1,.76,1-.76L10,72c-.16-.13-.51-.07-.7-.07Z" transform="translate(5.42 4.19)"/><polygon class="cls-15" points="11.38 76.37 11.38 78.57 12.79 77.48 11.38 76.37"/><path class="cls-15" d="M8,73.81l.5-.4L10,74.53c-.15.13-.47.07-.65.07H6.71c-.18,0-.51.06-.66-.07L7.5,73.41Z" transform="translate(5.42 4.19)"/><polygon class="cls-15" points="15.46 76.37 15.46 78.57 14.05 77.48 15.46 76.37"/><text class="cls-16" transform="translate(18.07 78.8)">johndoe@indimortgage.ca</text><text class="cls-17" transform="translate(123.07 98.52)">@johndoebroker</text><path class="cls-18" d="M115.05,89.45h-2.36a1.45,1.45,0,0,0-1.45,1.45v2.36a1.45,1.45,0,0,0,1.45,1.45h2.36a1.45,1.45,0,0,0,1.46-1.45V90.9A1.45,1.45,0,0,0,115.05,89.45Zm1,3.81a1,1,0,0,1-1,1h-2.36a1,1,0,0,1-1-1V90.9a1,1,0,0,1,1-1h2.36a1,1,0,0,1,1,1v2.36Z" transform="translate(5.42 4.19)"/><path class="cls-18" d="M113.87,90.72a1.36,1.36,0,1,0,1.36,1.36A1.36,1.36,0,0,0,113.87,90.72Zm0,2.25a.89.89,0,1,1,.89-.89A.89.89,0,0,1,113.87,93Z" transform="translate(5.42 4.19)"/><path class="cls-18" d="M115.29,90.33a.34.34,0,0,0-.24.58.34.34,0,1,0,.48-.48A.31.31,0,0,0,115.29,90.33Z" transform="translate(5.42 4.19)"/><text class="cls-17" transform="translate(87.38 98.52)">/johndoebroker</text><path class="cls-18" d="M81,94.71h0V92.92c0-.88-.19-1.55-1.22-1.55a1.09,1.09,0,0,0-1,.52h0v-.44h-1v3.26h1V93.1c0-.43.08-.84.61-.84s.52.48.52.86v1.59Z" transform="translate(5.42 4.19)"/><path class="cls-18" d="M76.22,91.45h1v3.26h-1Z" transform="translate(5.42 4.19)"/><path class="cls-18" d="M76.72,89.82a.59.59,0,1,0,.59.59A.59.59,0,0,0,76.72,89.82Z" transform="translate(5.42 4.19)"/><text class="cls-17" transform="translate(52.27 98.52)">/johndoebroker</text><path class="cls-18" d="M44.78,91.19v-.46c0-.06,0-.12,0-.15a.36.36,0,0,1,0-.11.18.18,0,0,1,.11-.08l.2,0h.45v-.9h-.72a1.2,1.2,0,0,0-.9.29,1.27,1.27,0,0,0-.27.88v.55h-.54v.9h.54v2.62h1.08V92.09h.72l.1-.9Z" transform="translate(5.42 4.19)"/><text class="cls-17" transform="translate(17.38 98.52)">@johndoebroker</text><path class="cls-18" d="M7.92,94.71A3.05,3.05,0,0,0,11,91.64a.66.66,0,0,0,0-.14,2.06,2.06,0,0,0,.54-.56,2.11,2.11,0,0,1-.62.17,1.1,1.1,0,0,0,.48-.6,1.86,1.86,0,0,1-.69.26,1.08,1.08,0,0,0-1.87.74,1,1,0,0,0,0,.25,3.12,3.12,0,0,1-2.23-1.13,1.11,1.11,0,0,0-.14.54,1.07,1.07,0,0,0,.48.9,1,1,0,0,1-.49-.13h0A1.08,1.08,0,0,0,7.34,93a.86.86,0,0,1-.28,0l-.2,0a1.07,1.07,0,0,0,1,.75,2.18,2.18,0,0,1-1.35.46H6.27a3.07,3.07,0,0,0,1.65.48" transform="translate(5.42 4.19)"/></g></g></g></svg>