<?xml version="1.0" encoding="utf-8"?>
<!-- Generator: Adobe Illustrator 25.2.3, SVG Export Plug-In . SVG Version: 6.00 Build 0)  -->
<svg version="1.1" id="Layer_1" xmlns="http://www.w3.org/2000/svg" xmlns:xlink="http://www.w3.org/1999/xlink" x="0px" y="0px"
	 width="512px" height="512px" viewBox="0 0 512 512" style="enable-background:new 0 0 512 512;" xml:space="preserve">
<style type="text/css">
	.st0{fill:#BC8F00;}
</style>
<path class="st0" d="M501.8,89H170.3c-13.1,0-13.1,20.4,0,20.4h321.3v295H20.4v-295h69.2c13.1,0,13.1-20.4,0-20.4H10.2
	C4.6,89,0,93.6,0,99.2v315.4c0,5.6,4.6,10.2,10.2,10.2h491.6c5.6,0,10.2-4.6,10.2-10.2V99.2C512,93.6,507.4,89,501.8,89z"/>
<path class="st0" d="M94.7,335.3C94.7,335.3,94.7,335.3,94.7,335.3c15,9.5,32.3,14.6,50.2,14.6c17.8,0,35.2-5,50.1-14.6c0,0,0,0,0,0
	c27.1-17.3,43.3-46.8,43.3-78.9c0-51.5-41.9-93.4-93.4-93.4c-51.5,0-93.5,41.9-93.5,93.4C51.4,288.5,67.6,318,94.7,335.3z
	 M110.8,321c5.7-38.1,62.5-38.1,68.2,0c-10.5,5.5-22.1,8.4-34.1,8.4C132.9,329.5,121.2,326.6,110.8,321z M144.4,229.2
	c11.5,0,20.9,9.4,20.9,20.9s-9.4,20.9-20.9,20.9c-13,0-23.1-12.4-20.5-25.1C125.9,236.3,134.4,229.2,144.4,229.2z M144.9,183.3
	c40.3,0,73.1,32.8,73.1,73.1c0,19.6-7.8,38-21.3,51.6c-4.2-11.8-12.5-22.1-23.2-28.6c7.8-7.7,12.2-18.4,12.2-29.3
	c0-22.8-18.5-41.3-41.3-41.3c-22.8,0-41.3,18.5-41.3,41.3c0,11.1,4.6,21.9,12.6,29.6c-10.4,6.6-18.5,16.7-22.6,28.3
	c-13.5-13.5-21.3-31.9-21.3-51.6C71.8,216.1,104.6,183.3,144.9,183.3z"/>
<path class="st0" d="M443.3,194H271.9c-13.1,0-13.1,20.4,0,20.4h171.3C456.3,214.4,456.4,194,443.3,194z"/>
<path class="st0" d="M367.1,239.9c-13.1,0-13.1,20.4,0,20.4h35.5c13.1,0,13.1-20.4,0-20.4H367.1z"/>
<path class="st0" d="M271.9,260.3h53.8c13.1,0,13.1-20.4,0-20.4h-53.8C258.9,239.9,258.8,260.3,271.9,260.3z"/>
<path class="st0" d="M271.9,306.1h171.3c13.1,0,13.1-20.4,0-20.4H271.9C258.9,285.7,258.8,306.1,271.9,306.1z"/>
<path class="st0" d="M451.7,244.4c-3.1-4.6-9.5-5.9-14.1-2.8s-5.9,9.5-2.8,14.1c3.1,4.6,9.5,5.9,14.1,2.8
	C453.5,255.5,454.8,249,451.7,244.4z"/>
<path class="st0" d="M120.8,103.1c2.1,5.1,8.2,7.6,13.3,5.5c5.1-2.1,7.6-8.2,5.5-13.3c-2.1-5.1-8.2-7.6-13.3-5.5
	C121.2,91.9,118.6,98,120.8,103.1z"/>
</svg>
