<svg width="129" height="100" viewBox="0 0 129 100" fill="none" xmlns="http://www.w3.org/2000/svg">
<rect opacity="0.5" x="10.25" y="33.2205" width="12.1389" height="10.4048" fill="#84BD00"/>
<rect opacity="0.5" x="10.25" y="48.9455" width="12.1389" height="10.4048" fill="#84BD00"/>
<rect opacity="0.5" x="10.25" y="64.6702" width="12.1389" height="10.4048" fill="#84BD00"/>
<rect opacity="0.5" x="10.25" y="80.395" width="12.1389" height="10.4048" fill="#84BD00"/>
<rect opacity="0.5" x="26.4353" y="33.2205" width="12.1389" height="10.4048" fill="#84BD00"/>
<rect opacity="0.5" x="26.4353" y="48.9455" width="12.1389" height="10.4048" fill="#84BD00"/>
<rect opacity="0.5" x="26.4353" y="64.6702" width="12.1389" height="10.4048" fill="#84BD00"/>
<rect opacity="0.5" x="26.4353" y="80.395" width="12.1389" height="10.4048" fill="#84BD00"/>
<rect opacity="0.5" x="42.6204" y="33.2205" width="12.1389" height="10.4048" fill="#84BD00"/>
<rect opacity="0.5" x="42.6204" y="48.9455" width="12.1389" height="10.4048" fill="#84BD00"/>
<rect opacity="0.5" x="42.6204" y="64.6702" width="12.1389" height="10.4048" fill="#84BD00"/>
<rect opacity="0.5" x="42.6204" y="80.395" width="12.1389" height="10.4048" fill="#84BD00"/>
<rect opacity="0.5" x="58.8057" y="33.2205" width="12.1389" height="10.4048" fill="#84BD00"/>
<rect opacity="0.5" x="58.8057" y="48.9455" width="12.1389" height="10.4048" fill="#84BD00"/>
<rect opacity="0.5" x="58.8057" y="64.6702" width="12.1389" height="10.4048" fill="#84BD00"/>
<rect opacity="0.5" x="58.8057" y="80.395" width="12.1389" height="10.4048" fill="#84BD00"/>
<rect opacity="0.5" x="74.9907" y="33.2205" width="12.1389" height="10.4048" fill="#84BD00"/>
<rect opacity="0.5" x="74.9907" y="48.9455" width="12.1389" height="10.4048" fill="#84BD00"/>
<rect opacity="0.5" x="74.9907" y="64.6702" width="12.1389" height="10.4048" fill="#84BD00"/>
<rect opacity="0.5" x="74.9907" y="80.395" width="12.1389" height="10.4048" fill="#84BD00"/>
<rect opacity="0.5" x="91.176" y="33.2205" width="12.1389" height="10.4048" fill="#84BD00"/>
<rect x="91.176" y="48.9455" width="12.1389" height="10.4048" fill="black"/>
<rect opacity="0.5" x="91.176" y="64.6702" width="12.1389" height="10.4048" fill="#84BD00"/>
<rect opacity="0.5" x="91.176" y="80.395" width="12.1389" height="10.4048" fill="#84BD00"/>
<rect opacity="0.5" x="107.361" y="33.2205" width="12.1389" height="10.4048" fill="#84BD00"/>
<rect opacity="0.5" x="107.361" y="48.9455" width="12.1389" height="10.4048" fill="#84BD00"/>
<rect opacity="0.5" x="107.361" y="64.6702" width="12.1389" height="10.4048" fill="#84BD00"/>
<rect opacity="0.5" x="107.361" y="80.395" width="12.1389" height="10.4048" fill="#84BD00"/>
<rect x="10.25" y="0.922913" width="6.75" height="14.125" fill="black"/>
<rect x="112.75" y="0.922913" width="6.75" height="14.125" fill="black"/>
<rect x="1.18945" y="8.17291" width="126.811" height="10.5" stroke="black"/>
<rect x="1.18945" y="23.5275" width="126.811" height="75.8954" stroke="black"/>
</svg>
