<svg xmlns="http://www.w3.org/2000/svg" width="5.27" height="5.27" viewBox="0 0 5.27 5.27"><defs><style>.cls-1{fill:#8bc53f;}</style></defs><g id="Layer_2" data-name="Layer 2"><g id="Layer_1-2" data-name="Layer 1"><path class="cls-1" d="M3.81,0H1.45A1.45,1.45,0,0,0,0,1.45V3.81A1.46,1.46,0,0,0,1.45,5.27H3.81A1.47,1.47,0,0,0,5.27,3.81V1.45A1.46,1.46,0,0,0,3.81,0Zm1,3.81a1,1,0,0,1-1,1H1.45a1,1,0,0,1-1-1V1.45a1,1,0,0,1,1-1H3.81a1,1,0,0,1,1,1V3.81Z"/><path class="cls-1" d="M2.63,1.28A1.36,1.36,0,0,0,2.63,4a1.36,1.36,0,1,0,0-2.71Zm0,2.24a.89.89,0,1,1,.89-.89A.89.89,0,0,1,2.63,3.52Z"/><path class="cls-1" d="M4.05.88A.39.39,0,0,0,3.8,1a.34.34,0,0,0,0,.48.36.36,0,0,0,.25.11.32.32,0,0,0,.24-.11.34.34,0,0,0,0-.48A.35.35,0,0,0,4.05.88Z"/></g></g></svg>