<svg xmlns="http://www.w3.org/2000/svg" width="5.27" height="4.28" viewBox="0 0 5.27 4.28"><defs><style>.cls-1{fill:#8bc53f;}</style></defs><g id="Layer_2" data-name="Layer 2"><g id="Layer_1-2" data-name="Layer 1"><path class="cls-1" d="M1.66,4.28A3.06,3.06,0,0,0,4.73,1.21V1.07A2.6,2.6,0,0,0,5.27.51a2.72,2.72,0,0,1-.62.17,1.12,1.12,0,0,0,.47-.6,2.29,2.29,0,0,1-.69.26A1,1,0,0,0,3.65,0,1.08,1.08,0,0,0,2.57,1.08a1,1,0,0,0,0,.25A3.09,3.09,0,0,1,.37.2,1,1,0,0,0,.22.74a1.07,1.07,0,0,0,.48.9A1,1,0,0,1,.21,1.5v0a1.08,1.08,0,0,0,.87,1.06,1.35,1.35,0,0,1-.29,0l-.2,0a1.09,1.09,0,0,0,1,.75,2.17,2.17,0,0,1-1.34.46L0,3.79a3.05,3.05,0,0,0,1.66.49"/></g></g></svg>