<svg xmlns="http://www.w3.org/2000/svg" width="4.08" height="2.68" viewBox="0 0 4.08 2.68"><defs><style>.cls-1{fill:#8bc53f;fill-rule:evenodd;}</style></defs><g id="Layer_2" data-name="Layer 2"><g id="Layer_1-2" data-name="Layer 1"><path class="cls-1" d="M.79,0C.61,0,.25,0,.09.09l1,.76,1,.76L3,.85,4,.09C3.83,0,3.48,0,3.29,0Z"/><polygon class="cls-1" points="0 0.25 0 2.45 1.41 1.36 0 0.25"/><path class="cls-1" d="M2,1.87l.5-.4L4,2.6c-.15.12-.47.07-.65.07H.74c-.17,0-.5.05-.65-.07L1.54,1.47Z"/><polygon class="cls-1" points="4.08 0.25 4.08 2.45 2.67 1.36 4.08 0.25"/></g></g></svg>