<svg xmlns="http://www.w3.org/2000/svg" width="4.89" height="4.89" viewBox="0 0 4.89 4.89"><defs><style>.cls-1{fill:#8bc53f;}</style></defs><g id="Layer_2" data-name="Layer 2"><g id="Layer_1-2" data-name="Layer 1"><path class="cls-1" d="M4.89,4.89h0V3.1c0-.88-.19-1.56-1.21-1.56a1,1,0,0,0-1,.53h0V1.62h-1V4.89h1V3.27c0-.42.08-.83.61-.83s.53.48.53.86V4.89Z"/><path class="cls-1" d="M.08,1.63h1V4.89h-1Z"/><path class="cls-1" d="M.59,0A.58.58,0,0,0,0,.59a.59.59,0,0,0,.59.59A.59.59,0,0,0,1.17.59.58.58,0,0,0,.59,0Z"/></g></g></svg>