<?xml version="1.0" encoding="utf-8"?>
<!-- Generator: Adobe Illustrator 25.2.3, SVG Export Plug-In . SVG Version: 6.00 Build 0)  -->
<svg version="1.1" id="Layer_1" xmlns="http://www.w3.org/2000/svg" xmlns:xlink="http://www.w3.org/1999/xlink" x="0px" y="0px"
	 width="120.7px" height="151.3px" viewBox="0 0 120.7 151.3" style="enable-background:new 0 0 120.7 151.3;" xml:space="preserve"
	>
<style type="text/css">
	.st0{fill:#FFFFFF;}
	.st1{fill:#84BD00;}
	.st2{fill:#DBEDA9;}
</style>
<g>
	<g>
		<path class="st0" d="M13.3,150.3c-6.8,0-12.3-5.5-12.3-12.3V13.3C1,6.5,6.5,1,13.3,1h81.2c13.9,0,25.3,11.3,25.3,25.3v111.8
			c0,6.8-5.5,12.3-12.3,12.3H13.3z"/>
		<path d="M94.4,2c13.4,0,24.3,10.9,24.3,24.3v111.8c0,6.2-5.1,11.3-11.3,11.3H13.3c-6.2,0-11.3-5.1-11.3-11.3V13.3
			C2,7.1,7.1,2,13.3,2H94.4 M94.4,0H13.3C5.9,0,0,5.9,0,13.3v124.8c0,7.3,5.9,13.3,13.3,13.3h94.1c7.3,0,13.3-5.9,13.3-13.3V26.3
			C120.7,11.8,108.9,0,94.4,0L94.4,0z"/>
	</g>
	<g>
		<path class="st1" d="M36,51c1.5,0.7,2.7,1.6,3.5,2.9c0.8,1.3,1.2,2.7,1.2,4.4c0,1.7-0.4,3.2-1.2,4.4c-0.8,1.2-2,2.2-3.5,2.9
			c-1.5,0.7-3.3,1-5.3,1h-3.9v5.9h-6.4V50h10.3C32.8,50,34.5,50.4,36,51z M33.3,60.8c0.7-0.6,1-1.4,1-2.4c0-1-0.3-1.9-1-2.4
			c-0.7-0.6-1.6-0.9-3-0.9h-3.5v6.6h3.5C31.7,61.6,32.6,61.3,33.3,60.8z"/>
		<path class="st1" d="M50.2,50h10.6c2.5,0,4.6,0.5,6.6,1.4c1.9,0.9,3.4,2.2,4.4,3.9c1,1.7,1.6,3.7,1.6,5.9s-0.5,4.3-1.6,5.9
			c-1,1.7-2.5,3-4.4,3.9c-1.9,0.9-4.1,1.4-6.6,1.4H50.2V50z M60.6,67.4c1.9,0,3.5-0.5,4.6-1.6c1.2-1.1,1.8-2.6,1.8-4.5
			c0-1.9-0.6-3.4-1.8-4.5c-1.2-1.1-2.7-1.6-4.6-1.6h-4v12.3H60.6z"/>
		<path class="st1" d="M89.6,54.9v4.9h9.9v4.9h-9.9v7.7h-6.4V50h17.6v4.9H89.6z"/>
	</g>
	<g>
		<path d="M120.2,24.4h-19.1c-4,0-7.3-3.3-7.3-7.3V0.6h2v16.5c0,2.9,2.4,5.3,5.3,5.3h19.1V24.4z"/>
	</g>
	<rect x="15.7" y="90.8" class="st2" width="88" height="12.3"/>
	<rect x="15.7" y="113" class="st2" width="88" height="12.3"/>
</g>
</svg>
