<svg xmlns="http://www.w3.org/2000/svg" width="3.86" height="3.82" viewBox="0 0 3.86 3.82"><defs><style>.cls-1{fill:#8bc53f;fill-rule:evenodd;}</style></defs><g id="Layer_2" data-name="Layer 2"><g id="Layer_1-2" data-name="Layer 1"><path class="cls-1" d="M3.77,3.07c-.17-.17-.34-.33-.5-.5A.53.53,0,0,0,3,2.39c-.17,0-.27.1-.38.21s-.18.21-.22.19a5.33,5.33,0,0,1-.51-.31A3.36,3.36,0,0,1,1,1.39s.17-.18.2-.21S1.45,1,1.44.83,1.09.39,1,.26.57-.13.31.13a1.15,1.15,0,0,0-.3,1,2.5,2.5,0,0,0,.7,1.32A4.57,4.57,0,0,0,2.16,3.59,2.21,2.21,0,0,0,3,3.82c.24,0,1.11-.38.74-.75"/></g></g></svg>