<?xml version="1.0" encoding="utf-8"?>
<!-- Generator: Adobe Illustrator 25.2.0, SVG Export Plug-In . SVG Version: 6.00 Build 0)  -->
<svg version="1.1" id="Layer_1" xmlns="http://www.w3.org/2000/svg" xmlns:xlink="http://www.w3.org/1999/xlink" x="0px" y="0px"
	 width="128px" height="128px" viewBox="0 0 128 128" style="enable-background:new 0 0 128 128;" xml:space="preserve">
<style type="text/css">
	.st0{fill:#FFFFFF;}
	.st1{fill:#231F20;}
	.st2{fill:#DBEDA9;}
	.st3{fill:#84BD00;}
</style>
<g>
	<path class="st0" d="M1.9,24.7v-2c0-2.3,1.9-4.2,4.2-4.2h27.7c2.3,0,3.3,1.5,4.2,4.2c0.6,1.8,1.7,5.5,4.4,5.5h60.9c4.4,0,8,3.6,8,8
		v59.7c0,4.4-3.6,8-8,8H1.9V36.1C1.9,31.7,1.9,26.6,1.9,24.7z"/>
	<path class="st1" d="M103.3,104.4H1.1V22.6c0-2.7,2.2-5,5-5h27.7c3.1,0,4.1,2.4,4.9,4.7l0.1,0.2c0.6,1.7,1.6,4.8,3.6,4.8h60.9
		c4.8,0,8.7,3.9,8.7,8.7v59.7C112,100.5,108.1,104.4,103.3,104.4z M2.6,102.9h100.6c4,0,7.2-3.2,7.2-7.2V36.1c0-4-3.2-7.2-7.2-7.2
		H42.4c-3.1,0-4.3-3.8-5-5.8l-0.1-0.2c-0.9-2.8-1.8-3.7-3.5-3.7H6.1c-1.9,0-3.5,1.5-3.5,3.5V102.9z"/>
</g>
<g>
	<path class="st0" d="M2.2,103.7h109.2l14.8-55.4c1.1-4.5,0.2-7.6-7.6-7.6H24.5c-4.2,0-6.6,2.9-7.6,7.6L2.2,103.7z"/>
	<path class="st1" d="M112,104.4H1.2l15-56.4c1.1-5.3,4-8.1,8.3-8.1h94.1c4,0,6.5,0.8,7.7,2.4c1.4,1.8,1,4.3,0.5,6.1L112,104.4z
		 M3.1,102.9h107.7l14.6-54.9c0.6-2.3,0.5-3.8-0.3-4.8c-1-1.2-3.1-1.8-6.6-1.8H24.5c-3.5,0-5.8,2.3-6.8,7L3.1,102.9z"/>
</g>
<polygon class="st2" points="102.5,61.3 24.6,61.3 27.3,51.2 105.3,51.2 "/>
<polygon class="st2" points="68.7,77.9 20.6,77.9 23.3,67.8 71.4,67.8 "/>
<path class="st3" d="M30,28.7H8.8c-0.4,0-0.7-0.3-0.7-0.7V24c0-0.4,0.3-0.7,0.7-0.7H30c0.4,0,0.7,0.3,0.7,0.7V28
	C30.7,28.4,30.4,28.7,30,28.7z"/>
</svg>
