<?xml version="1.0" encoding="utf-8"?>
<!-- Generator: Adobe Illustrator 25.2.0, SVG Export Plug-In . SVG Version: 6.00 Build 0)  -->
<svg version="1.1" id="Layer_1" xmlns="http://www.w3.org/2000/svg" xmlns:xlink="http://www.w3.org/1999/xlink" x="0px" y="0px"
	 width="130px" height="130px" viewBox="0 0 130 130" style="enable-background:new 0 0 130 130;" xml:space="preserve">
<style type="text/css">
	.st0{fill:url(#SVGID_1_);stroke:url(#SVGID_2_);stroke-width:0.5;stroke-miterlimit:10;}
	.st1{fill:url(#SVGID_3_);stroke:url(#SVGID_4_);stroke-width:0.5;stroke-miterlimit:10;}
	.st2{fill:#FFFFFF;}
</style>
<g>
	
		<linearGradient id="SVGID_1_" gradientUnits="userSpaceOnUse" x1="24.8689" y1="66.3599" x2="102.059" y2="66.3599" gradientTransform="matrix(1 0 0 -1 0 130)">
		<stop  offset="0.5161" style="stop-color:#C1C7DB"/>
		<stop  offset="1" style="stop-color:#778EB5"/>
	</linearGradient>
	
		<linearGradient id="SVGID_2_" gradientUnits="userSpaceOnUse" x1="24.7365" y1="66.3599" x2="102.236" y2="66.3599" gradientTransform="matrix(1 0 0 -1 0 130)">
		<stop  offset="0.3148" style="stop-color:#E3ECFA"/>
		<stop  offset="0.5322" style="stop-color:#E1EAF8"/>
		<stop  offset="0.649" style="stop-color:#D9E2F1"/>
		<stop  offset="0.742" style="stop-color:#CBD5E4"/>
		<stop  offset="0.8224" style="stop-color:#B8C2D3"/>
		<stop  offset="0.8947" style="stop-color:#9FAABC"/>
		<stop  offset="0.9602" style="stop-color:#808DA0"/>
		<stop  offset="1" style="stop-color:#6A778C"/>
	</linearGradient>
	<path class="st0" d="M94.1,101.9H32.8c-4.4,0-7.9-3.5-7.9-7.9V33.2c0-4.3,3.6-7.9,7.9-7.9h61.3c4.4,0,7.9,3.5,7.9,7.9v60.9
		C102.1,98.4,98.5,101.9,94.1,101.9z"/>
	
		<linearGradient id="SVGID_3_" gradientUnits="userSpaceOnUse" x1="24.869" y1="69.6792" x2="102.059" y2="69.6792" gradientTransform="matrix(1 0 0 -1 0 130)">
		<stop  offset="0.3763" style="stop-color:#FFFFFF"/>
		<stop  offset="1" style="stop-color:#C1D6D6"/>
	</linearGradient>
	
		<linearGradient id="SVGID_4_" gradientUnits="userSpaceOnUse" x1="24.7366" y1="69.6792" x2="102.237" y2="69.6792" gradientTransform="matrix(1 0 0 -1 0 130)">
		<stop  offset="0.2996" style="stop-color:#FFFFFF"/>
		<stop  offset="1" style="stop-color:#99B0A9"/>
	</linearGradient>
	<path class="st1" d="M94.1,98.6H32.8c-4.4,0-7.9-3.5-7.9-7.9V29.9c0-4.3,3.6-7.9,7.9-7.9h61.3c4.4,0,7.9,3.5,7.9,7.9v60.9
		C102.1,95.1,98.5,98.6,94.1,98.6z"/>
	<path d="M31,28h3v3h-3V28z"/>
	<path d="M34,28h3.2v3H34V28z"/>
	<path d="M37.2,28h3v3h-3V28z"/>
	<path d="M40.2,28h3v3h-3V28z"/>
	<path d="M43.2,28h3v3h-3V28z"/>
	<path d="M46.1,28h3.2v3h-3.2V28z"/>
	<path d="M49.3,28h3v3h-3V28z"/>
	<path class="st2" d="M52.3,28h3v3h-3V28z"/>
	<path class="st2" d="M55.3,28h3.2v3h-3.2V28z"/>
	<path class="st2" d="M58.5,28h3v3h-3V28z"/>
	<path d="M61.5,28h3v3h-3V28z"/>
	<path class="st2" d="M64.5,28h3v3h-3V28z"/>
	<path d="M67.5,28h3.2v3h-3.2V28z"/>
	<path class="st2" d="M70.7,28h3v3h-3V28z"/>
	<path d="M73.7,28h3v3h-3V28z"/>
	<path d="M76.7,28h3.2v3h-3.2V28z"/>
	<path d="M79.9,28h3v3h-3V28z"/>
	<path d="M82.8,28h3v3h-3V28z"/>
	<path d="M85.8,28h3v3h-3V28z"/>
	<path d="M88.8,28H92v3h-3.2V28z"/>
	<path d="M92,28h3v3h-3V28z"/>
	<path d="M31,31h3v3.2h-3V31z"/>
	<path class="st2" d="M34,31h3.2v3.2H34V31z"/>
	<path class="st2" d="M37.2,31h3v3.2h-3V31z"/>
	<path class="st2" d="M40.2,31h3v3.2h-3V31z"/>
	<path class="st2" d="M43.2,31h3v3.2h-3V31z"/>
	<path class="st2" d="M46.1,31h3.2v3.2h-3.2V31z"/>
	<path d="M49.3,31h3v3.2h-3V31z"/>
	<path class="st2" d="M52.3,31h3v3.2h-3V31z"/>
	<path d="M55.3,31h3.2v3.2h-3.2V31z"/>
	<path d="M58.5,31h3v3.2h-3V31z"/>
	<path d="M61.5,31h3v3.2h-3V31z"/>
	<path class="st2" d="M64.5,31h3v3.2h-3V31z"/>
	<path d="M67.5,31h3.2v3.2h-3.2V31z"/>
	<path class="st2" d="M70.7,31h3v3.2h-3V31z"/>
	<path d="M73.7,31h3v3.2h-3V31z"/>
	<path class="st2" d="M76.7,31h3.2v3.2h-3.2V31z"/>
	<path class="st2" d="M79.9,31h3v3.2h-3V31z"/>
	<path class="st2" d="M82.8,31h3v3.2h-3V31z"/>
	<path class="st2" d="M85.8,31h3v3.2h-3V31z"/>
	<path class="st2" d="M88.8,31H92v3.2h-3.2V31z"/>
	<path d="M92,31h3v3.2h-3V31z"/>
	<path d="M31,34.2h3v3h-3V34.2z"/>
	<path class="st2" d="M34,34.2h3.2v3H34V34.2z"/>
	<path d="M37.2,34.2h3v3h-3V34.2z"/>
	<path d="M40.2,34.2h3v3h-3V34.2z"/>
	<path d="M43.2,34.2h3v3h-3V34.2z"/>
	<path class="st2" d="M46.1,34.2h3.2v3h-3.2V34.2z"/>
	<path d="M49.3,34.2h3v3h-3V34.2z"/>
	<path class="st2" d="M52.3,34.2h3v3h-3V34.2z"/>
	<path class="st2" d="M55.3,34.2h3.2v3h-3.2V34.2z"/>
	<path class="st2" d="M58.5,34.2h3v3h-3V34.2z"/>
	<path d="M61.5,34.2h3v3h-3V34.2z"/>
	<path d="M64.5,34.2h3v3h-3V34.2z"/>
	<path d="M67.5,34.2h3.2v3h-3.2V34.2z"/>
	<path class="st2" d="M70.7,34.2h3v3h-3V34.2z"/>
	<path d="M73.7,34.2h3v3h-3V34.2z"/>
	<path class="st2" d="M76.7,34.2h3.2v3h-3.2V34.2z"/>
	<path d="M79.9,34.2h3v3h-3V34.2z"/>
	<path d="M82.8,34.2h3v3h-3V34.2z"/>
	<path d="M85.8,34.2h3v3h-3V34.2z"/>
	<path class="st2" d="M88.8,34.2H92v3h-3.2V34.2z"/>
	<path d="M92,34.2h3v3h-3V34.2z"/>
	<path d="M31,37.2h3v3h-3V37.2z"/>
	<path class="st2" d="M34,37.2h3.2v3H34V37.2z"/>
	<path d="M37.2,37.2h3v3h-3V37.2z"/>
	<path d="M40.2,37.2h3v3h-3V37.2z"/>
	<path d="M43.2,37.2h3v3h-3V37.2z"/>
	<path class="st2" d="M46.1,37.2h3.2v3h-3.2V37.2z"/>
	<path d="M49.3,37.2h3v3h-3V37.2z"/>
	<path class="st2" d="M52.3,37.2h3v3h-3V37.2z"/>
	<path d="M55.3,37.2h3.2v3h-3.2V37.2z"/>
	<path d="M58.5,37.2h3v3h-3V37.2z"/>
	<path class="st2" d="M61.5,37.2h3v3h-3V37.2z"/>
	<path class="st2" d="M64.5,37.2h3v3h-3V37.2z"/>
	<path d="M67.5,37.2h3.2v3h-3.2V37.2z"/>
	<path class="st2" d="M70.7,37.2h3v3h-3V37.2z"/>
	<path d="M73.7,37.2h3v3h-3V37.2z"/>
	<path class="st2" d="M76.7,37.2h3.2v3h-3.2V37.2z"/>
	<path d="M79.9,37.2h3v3h-3V37.2z"/>
	<path d="M82.8,37.2h3v3h-3V37.2z"/>
	<path d="M85.8,37.2h3v3h-3V37.2z"/>
	<path class="st2" d="M88.8,37.2H92v3h-3.2V37.2z"/>
	<path d="M92,37.2h3v3h-3V37.2z"/>
	<path d="M31,40.2h3v3h-3V40.2z"/>
	<path class="st2" d="M34,40.2h3.2v3H34V40.2z"/>
	<path d="M37.2,40.2h3v3h-3V40.2z"/>
	<path d="M40.2,40.2h3v3h-3V40.2z"/>
	<path d="M43.2,40.2h3v3h-3V40.2z"/>
	<path class="st2" d="M46.1,40.2h3.2v3h-3.2V40.2z"/>
	<path d="M49.3,40.2h3v3h-3V40.2z"/>
	<path class="st2" d="M52.3,40.2h3v3h-3V40.2z"/>
	<path class="st2" d="M55.3,40.2h3.2v3h-3.2V40.2z"/>
	<path d="M58.5,40.2h3v3h-3V40.2z"/>
	<path class="st2" d="M61.5,40.2h3v3h-3V40.2z"/>
	<path class="st2" d="M64.5,40.2h3v3h-3V40.2z"/>
	<path class="st2" d="M67.5,40.2h3.2v3h-3.2V40.2z"/>
	<path class="st2" d="M70.7,40.2h3v3h-3V40.2z"/>
	<path d="M73.7,40.2h3v3h-3V40.2z"/>
	<path class="st2" d="M76.7,40.2h3.2v3h-3.2V40.2z"/>
	<path d="M79.9,40.2h3v3h-3V40.2z"/>
	<path d="M82.8,40.2h3v3h-3V40.2z"/>
	<path d="M85.8,40.2h3v3h-3V40.2z"/>
	<path class="st2" d="M88.8,40.2H92v3h-3.2V40.2z"/>
	<path d="M92,40.2h3v3h-3V40.2z"/>
	<path d="M31,43.1h3v3.2h-3V43.1z"/>
	<path class="st2" d="M34,43.1h3.2v3.2H34V43.1z"/>
	<path class="st2" d="M37.2,43.1h3v3.2h-3V43.1z"/>
	<path class="st2" d="M40.2,43.1h3v3.2h-3V43.1z"/>
	<path class="st2" d="M43.2,43.1h3v3.2h-3V43.1z"/>
	<path class="st2" d="M46.1,43.1h3.2v3.2h-3.2V43.1z"/>
	<path d="M49.3,43.1h3v3.2h-3V43.1z"/>
	<path class="st2" d="M52.3,43.1h3v3.2h-3V43.1z"/>
	<path d="M55.3,43.1h3.2v3.2h-3.2V43.1z"/>
	<path class="st2" d="M58.5,43.1h3v3.2h-3V43.1z"/>
	<path class="st2" d="M61.5,43.1h3v3.2h-3V43.1z"/>
	<path d="M64.5,43.1h3v3.2h-3V43.1z"/>
	<path d="M67.5,43.1h3.2v3.2h-3.2V43.1z"/>
	<path class="st2" d="M70.7,43.1h3v3.2h-3V43.1z"/>
	<path d="M73.7,43.1h3v3.2h-3V43.1z"/>
	<path class="st2" d="M76.7,43.1h3.2v3.2h-3.2V43.1z"/>
	<path class="st2" d="M79.9,43.1h3v3.2h-3V43.1z"/>
	<path class="st2" d="M82.8,43.1h3v3.2h-3V43.1z"/>
	<path class="st2" d="M85.8,43.1h3v3.2h-3V43.1z"/>
	<path class="st2" d="M88.8,43.1H92v3.2h-3.2V43.1z"/>
	<path d="M92,43.1h3v3.2h-3V43.1z"/>
	<path d="M31,46.3h3v3h-3V46.3z"/>
	<path d="M34,46.3h3.2v3H34V46.3z"/>
	<path d="M37.2,46.3h3v3h-3V46.3z"/>
	<path d="M40.2,46.3h3v3h-3V46.3z"/>
	<path d="M43.2,46.3h3v3h-3V46.3z"/>
	<path d="M46.1,46.3h3.2v3h-3.2V46.3z"/>
	<path d="M49.3,46.3h3v3h-3V46.3z"/>
	<path class="st2" d="M52.3,46.3h3v3h-3V46.3z"/>
	<path d="M55.3,46.3h3.2v3h-3.2V46.3z"/>
	<path class="st2" d="M58.5,46.3h3v3h-3V46.3z"/>
	<path d="M61.5,46.3h3v3h-3V46.3z"/>
	<path class="st2" d="M64.5,46.3h3v3h-3V46.3z"/>
	<path d="M67.5,46.3h3.2v3h-3.2V46.3z"/>
	<path class="st2" d="M70.7,46.3h3v3h-3V46.3z"/>
	<path d="M73.7,46.3h3v3h-3V46.3z"/>
	<path d="M76.7,46.3h3.2v3h-3.2V46.3z"/>
	<path d="M79.9,46.3h3v3h-3V46.3z"/>
	<path d="M82.8,46.3h3v3h-3V46.3z"/>
	<path d="M85.8,46.3h3v3h-3V46.3z"/>
	<path d="M88.8,46.3H92v3h-3.2V46.3z"/>
	<path d="M92,46.3h3v3h-3V46.3z"/>
	<path class="st2" d="M31,49.3h3v3h-3V49.3z"/>
	<path class="st2" d="M34,49.3h3.2v3H34V49.3z"/>
	<path class="st2" d="M37.2,49.3h3v3h-3V49.3z"/>
	<path class="st2" d="M40.2,49.3h3v3h-3V49.3z"/>
	<path class="st2" d="M43.2,49.3h3v3h-3V49.3z"/>
	<path class="st2" d="M46.1,49.3h3.2v3h-3.2V49.3z"/>
	<path class="st2" d="M49.3,49.3h3v3h-3V49.3z"/>
	<path class="st2" d="M52.3,49.3h3v3h-3V49.3z"/>
	<path class="st2" d="M55.3,49.3h3.2v3h-3.2V49.3z"/>
	<path d="M58.5,49.3h3v3h-3V49.3z"/>
	<path class="st2" d="M61.5,49.3h3v3h-3V49.3z"/>
	<path d="M64.5,49.3h3v3h-3V49.3z"/>
	<path class="st2" d="M67.5,49.3h3.2v3h-3.2V49.3z"/>
	<path class="st2" d="M70.7,49.3h3v3h-3V49.3z"/>
	<path class="st2" d="M73.7,49.3h3v3h-3V49.3z"/>
	<path class="st2" d="M76.7,49.3h3.2v3h-3.2V49.3z"/>
	<path class="st2" d="M79.9,49.3h3v3h-3V49.3z"/>
	<path class="st2" d="M82.8,49.3h3v3h-3V49.3z"/>
	<path class="st2" d="M85.8,49.3h3v3h-3V49.3z"/>
	<path class="st2" d="M88.8,49.3H92v3h-3.2V49.3z"/>
	<path class="st2" d="M92,49.3h3v3h-3V49.3z"/>
	<path d="M31,52.3h3v3.2h-3V52.3z"/>
	<path d="M34,52.3h3.2v3.2H34V52.3z"/>
	<path d="M37.2,52.3h3v3.2h-3V52.3z"/>
	<path d="M40.2,52.3h3v3.2h-3V52.3z"/>
	<path d="M43.2,52.3h3v3.2h-3V52.3z"/>
	<path class="st2" d="M46.1,52.3h3.2v3.2h-3.2V52.3z"/>
	<path d="M49.3,52.3h3v3.2h-3V52.3z"/>
	<path d="M52.3,52.3h3v3.2h-3V52.3z"/>
	<path d="M55.3,52.3h3.2v3.2h-3.2V52.3z"/>
	<path class="st2" d="M58.5,52.3h3v3.2h-3V52.3z"/>
	<path class="st2" d="M61.5,52.3h3v3.2h-3V52.3z"/>
	<path class="st2" d="M64.5,52.3h3v3.2h-3V52.3z"/>
	<path d="M67.5,52.3h3.2v3.2h-3.2V52.3z"/>
	<path d="M70.7,52.3h3v3.2h-3V52.3z"/>
	<path class="st2" d="M73.7,52.3h3v3.2h-3V52.3z"/>
	<path d="M76.7,52.3h3.2v3.2h-3.2V52.3z"/>
	<path class="st2" d="M79.9,52.3h3v3.2h-3V52.3z"/>
	<path d="M82.8,52.3h3v3.2h-3V52.3z"/>
	<path class="st2" d="M85.8,52.3h3v3.2h-3V52.3z"/>
	<path d="M88.8,52.3H92v3.2h-3.2V52.3z"/>
	<path class="st2" d="M92,52.3h3v3.2h-3V52.3z"/>
	<path class="st2" d="M31,55.5h3v3h-3V55.5z"/>
	<path d="M34,55.5h3.2v3H34V55.5z"/>
	<path class="st2" d="M37.2,55.5h3v3h-3V55.5z"/>
	<path d="M40.2,55.5h3v3h-3V55.5z"/>
	<path class="st2" d="M43.2,55.5h3v3h-3V55.5z"/>
	<path class="st2" d="M46.1,55.5h3.2v3h-3.2V55.5z"/>
	<path class="st2" d="M49.3,55.5h3v3h-3V55.5z"/>
	<path d="M52.3,55.5h3v3h-3V55.5z"/>
	<path d="M55.3,55.5h3.2v3h-3.2V55.5z"/>
	<path class="st2" d="M58.5,55.5h3v3h-3V55.5z"/>
	<path d="M61.5,55.5h3v3h-3V55.5z"/>
	<path class="st2" d="M64.5,55.5h3v3h-3V55.5z"/>
	<path class="st2" d="M67.5,55.5h3.2v3h-3.2V55.5z"/>
	<path d="M70.7,55.5h3v3h-3V55.5z"/>
	<path d="M73.7,55.5h3v3h-3V55.5z"/>
	<path d="M76.7,55.5h3.2v3h-3.2V55.5z"/>
	<path d="M79.9,55.5h3v3h-3V55.5z"/>
	<path class="st2" d="M82.8,55.5h3v3h-3V55.5z"/>
	<path class="st2" d="M85.8,55.5h3v3h-3V55.5z"/>
	<path d="M88.8,55.5H92v3h-3.2V55.5z"/>
	<path d="M92,55.5h3v3h-3V55.5z"/>
	<path class="st2" d="M31,58.5h3v3h-3V58.5z"/>
	<path d="M34,58.5h3.2v3H34V58.5z"/>
	<path d="M37.2,58.5h3v3h-3V58.5z"/>
	<path class="st2" d="M40.2,58.5h3v3h-3V58.5z"/>
	<path class="st2" d="M43.2,58.5h3v3h-3V58.5z"/>
	<path class="st2" d="M46.1,58.5h3.2v3h-3.2V58.5z"/>
	<path d="M49.3,58.5h3v3h-3V58.5z"/>
	<path class="st2" d="M52.3,58.5h3v3h-3V58.5z"/>
	<path class="st2" d="M55.3,58.5h3.2v3h-3.2V58.5z"/>
	<path d="M58.5,58.5h3v3h-3V58.5z"/>
	<path d="M61.5,58.5h3v3h-3V58.5z"/>
	<path d="M64.5,58.5h3v3h-3V58.5z"/>
	<path d="M67.5,58.5h3.2v3h-3.2V58.5z"/>
	<path class="st2" d="M70.7,58.5h3v3h-3V58.5z"/>
	<path d="M73.7,58.5h3v3h-3V58.5z"/>
	<path class="st2" d="M76.7,58.5h3.2v3h-3.2V58.5z"/>
	<path class="st2" d="M79.9,58.5h3v3h-3V58.5z"/>
	<path class="st2" d="M82.8,58.5h3v3h-3V58.5z"/>
	<path d="M85.8,58.5h3v3h-3V58.5z"/>
	<path d="M88.8,58.5H92v3h-3.2V58.5z"/>
	<path class="st2" d="M92,58.5h3v3h-3V58.5z"/>
	<path class="st2" d="M31,61.5h3v3h-3V61.5z"/>
	<path class="st2" d="M34,61.5h3.2v3H34V61.5z"/>
	<path d="M37.2,61.5h3v3h-3V61.5z"/>
	<path d="M40.2,61.5h3v3h-3V61.5z"/>
	<path d="M43.2,61.5h3v3h-3V61.5z"/>
	<path d="M46.1,61.5h3.2v3h-3.2V61.5z"/>
	<path class="st2" d="M49.3,61.5h3v3h-3V61.5z"/>
	<path d="M52.3,61.5h3v3h-3V61.5z"/>
	<path class="st2" d="M55.3,61.5h3.2v3h-3.2V61.5z"/>
	<path class="st2" d="M58.5,61.5h3v3h-3V61.5z"/>
	<path d="M61.5,61.5h3v3h-3V61.5z"/>
	<path class="st2" d="M64.5,61.5h3v3h-3V61.5z"/>
	<path class="st2" d="M67.5,61.5h3.2v3h-3.2V61.5z"/>
	<path d="M70.7,61.5h3v3h-3V61.5z"/>
	<path class="st2" d="M73.7,61.5h3v3h-3V61.5z"/>
	<path class="st2" d="M76.7,61.5h3.2v3h-3.2V61.5z"/>
	<path class="st2" d="M79.9,61.5h3v3h-3V61.5z"/>
	<path d="M82.8,61.5h3v3h-3V61.5z"/>
	<path d="M85.8,61.5h3v3h-3V61.5z"/>
	<path d="M88.8,61.5H92v3h-3.2V61.5z"/>
	<path class="st2" d="M92,61.5h3v3h-3V61.5z"/>
	<path class="st2" d="M31,64.5h3v3.2h-3V64.5z"/>
	<path class="st2" d="M34,64.5h3.2v3.2H34V64.5z"/>
	<path class="st2" d="M37.2,64.5h3v3.2h-3V64.5z"/>
	<path d="M40.2,64.5h3v3.2h-3V64.5z"/>
	<path class="st2" d="M43.2,64.5h3v3.2h-3V64.5z"/>
	<path d="M46.1,64.5h3.2v3.2h-3.2V64.5z"/>
	<path d="M49.3,64.5h3v3.2h-3V64.5z"/>
	<path class="st2" d="M52.3,64.5h3v3.2h-3V64.5z"/>
	<path d="M55.3,64.5h3.2v3.2h-3.2V64.5z"/>
	<path class="st2" d="M58.5,64.5h3v3.2h-3V64.5z"/>
	<path d="M61.5,64.5h3v3.2h-3V64.5z"/>
	<path d="M64.5,64.5h3v3.2h-3V64.5z"/>
	<path class="st2" d="M67.5,64.5h3.2v3.2h-3.2V64.5z"/>
	<path d="M70.7,64.5h3v3.2h-3V64.5z"/>
	<path d="M73.7,64.5h3v3.2h-3V64.5z"/>
	<path class="st2" d="M76.7,64.5h3.2v3.2h-3.2V64.5z"/>
	<path class="st2" d="M79.9,64.5h3v3.2h-3V64.5z"/>
	<path class="st2" d="M82.8,64.5h3v3.2h-3V64.5z"/>
	<path class="st2" d="M85.8,64.5h3v3.2h-3V64.5z"/>
	<path class="st2" d="M88.8,64.5H92v3.2h-3.2V64.5z"/>
	<path class="st2" d="M92,64.5h3v3.2h-3V64.5z"/>
	<path class="st2" d="M31,67.7h3v3h-3V67.7z"/>
	<path class="st2" d="M34,67.7h3.2v3H34V67.7z"/>
	<path class="st2" d="M37.2,67.7h3v3h-3V67.7z"/>
	<path class="st2" d="M40.2,67.7h3v3h-3V67.7z"/>
	<path class="st2" d="M43.2,67.7h3v3h-3V67.7z"/>
	<path class="st2" d="M46.1,67.7h3.2v3h-3.2V67.7z"/>
	<path class="st2" d="M49.3,67.7h3v3h-3V67.7z"/>
	<path class="st2" d="M52.3,67.7h3v3h-3V67.7z"/>
	<path d="M55.3,67.7h3.2v3h-3.2V67.7z"/>
	<path d="M58.5,67.7h3v3h-3V67.7z"/>
	<path class="st2" d="M61.5,67.7h3v3h-3V67.7z"/>
	<path class="st2" d="M64.5,67.7h3v3h-3V67.7z"/>
	<path class="st2" d="M67.5,67.7h3.2v3h-3.2V67.7z"/>
	<path d="M70.7,67.7h3v3h-3V67.7z"/>
	<path class="st2" d="M73.7,67.7h3v3h-3V67.7z"/>
	<path d="M76.7,67.7h3.2v3h-3.2V67.7z"/>
	<path d="M79.9,67.7h3v3h-3V67.7z"/>
	<path class="st2" d="M82.8,67.7h3v3h-3V67.7z"/>
	<path class="st2" d="M85.8,67.7h3v3h-3V67.7z"/>
	<path class="st2" d="M88.8,67.7H92v3h-3.2V67.7z"/>
	<path d="M92,67.7h3v3h-3V67.7z"/>
	<path d="M31,70.7h3v3h-3V70.7z"/>
	<path d="M34,70.7h3.2v3H34V70.7z"/>
	<path d="M37.2,70.7h3v3h-3V70.7z"/>
	<path d="M40.2,70.7h3v3h-3V70.7z"/>
	<path d="M43.2,70.7h3v3h-3V70.7z"/>
	<path d="M46.1,70.7h3.2v3h-3.2V70.7z"/>
	<path d="M49.3,70.7h3v3h-3V70.7z"/>
	<path class="st2" d="M52.3,70.7h3v3h-3V70.7z"/>
	<path d="M55.3,70.7h3.2v3h-3.2V70.7z"/>
	<path d="M58.5,70.7h3v3h-3V70.7z"/>
	<path d="M61.5,70.7h3v3h-3V70.7z"/>
	<path class="st2" d="M64.5,70.7h3v3h-3V70.7z"/>
	<path d="M67.5,70.7h3.2v3h-3.2V70.7z"/>
	<path class="st2" d="M70.7,70.7h3v3h-3V70.7z"/>
	<path class="st2" d="M73.7,70.7h3v3h-3V70.7z"/>
	<path class="st2" d="M76.7,70.7h3.2v3h-3.2V70.7z"/>
	<path class="st2" d="M79.9,70.7h3v3h-3V70.7z"/>
	<path d="M82.8,70.7h3v3h-3V70.7z"/>
	<path d="M85.8,70.7h3v3h-3V70.7z"/>
	<path d="M88.8,70.7H92v3h-3.2V70.7z"/>
	<path class="st2" d="M92,70.7h3v3h-3V70.7z"/>
	<path d="M31,73.7h3v3.2h-3V73.7z"/>
	<path class="st2" d="M34,73.7h3.2v3.2H34V73.7z"/>
	<path class="st2" d="M37.2,73.7h3v3.2h-3V73.7z"/>
	<path class="st2" d="M40.2,73.7h3v3.2h-3V73.7z"/>
	<path class="st2" d="M43.2,73.7h3v3.2h-3V73.7z"/>
	<path class="st2" d="M46.1,73.7h3.2v3.2h-3.2V73.7z"/>
	<path d="M49.3,73.7h3v3.2h-3V73.7z"/>
	<path class="st2" d="M52.3,73.7h3v3.2h-3V73.7z"/>
	<path class="st2" d="M55.3,73.7h3.2v3.2h-3.2V73.7z"/>
	<path class="st2" d="M58.5,73.7h3v3.2h-3V73.7z"/>
	<path d="M61.5,73.7h3v3.2h-3V73.7z"/>
	<path class="st2" d="M64.5,73.7h3v3.2h-3V73.7z"/>
	<path d="M67.5,73.7h3.2v3.2h-3.2V73.7z"/>
	<path d="M70.7,73.7h3v3.2h-3V73.7z"/>
	<path class="st2" d="M73.7,73.7h3v3.2h-3V73.7z"/>
	<path class="st2" d="M76.7,73.7h3.2v3.2h-3.2V73.7z"/>
	<path d="M79.9,73.7h3v3.2h-3V73.7z"/>
	<path d="M82.8,73.7h3v3.2h-3V73.7z"/>
	<path d="M85.8,73.7h3v3.2h-3V73.7z"/>
	<path d="M88.8,73.7H92v3.2h-3.2V73.7z"/>
	<path d="M92,73.7h3v3.2h-3V73.7z"/>
	<path d="M31,76.9h3v3h-3V76.9z"/>
	<path class="st2" d="M34,76.9h3.2v3H34V76.9z"/>
	<path d="M37.2,76.9h3v3h-3V76.9z"/>
	<path d="M40.2,76.9h3v3h-3V76.9z"/>
	<path d="M43.2,76.9h3v3h-3V76.9z"/>
	<path class="st2" d="M46.1,76.9h3.2v3h-3.2V76.9z"/>
	<path d="M49.3,76.9h3v3h-3V76.9z"/>
	<path class="st2" d="M52.3,76.9h3v3h-3V76.9z"/>
	<path d="M55.3,76.9h3.2v3h-3.2V76.9z"/>
	<path d="M58.5,76.9h3v3h-3V76.9z"/>
	<path d="M61.5,76.9h3v3h-3V76.9z"/>
	<path d="M64.5,76.9h3v3h-3V76.9z"/>
	<path class="st2" d="M67.5,76.9h3.2v3h-3.2V76.9z"/>
	<path d="M70.7,76.9h3v3h-3V76.9z"/>
	<path d="M73.7,76.9h3v3h-3V76.9z"/>
	<path d="M76.7,76.9h3.2v3h-3.2V76.9z"/>
	<path class="st2" d="M79.9,76.9h3v3h-3V76.9z"/>
	<path class="st2" d="M82.8,76.9h3v3h-3V76.9z"/>
	<path class="st2" d="M85.8,76.9h3v3h-3V76.9z"/>
	<path d="M88.8,76.9H92v3h-3.2V76.9z"/>
	<path d="M92,76.9h3v3h-3V76.9z"/>
	<path d="M31,79.8h3v3h-3V79.8z"/>
	<path class="st2" d="M34,79.8h3.2v3H34V79.8z"/>
	<path d="M37.2,79.8h3v3h-3V79.8z"/>
	<path d="M40.2,79.8h3v3h-3V79.8z"/>
	<path d="M43.2,79.8h3v3h-3V79.8z"/>
	<path class="st2" d="M46.1,79.8h3.2v3h-3.2V79.8z"/>
	<path d="M49.3,79.8h3v3h-3V79.8z"/>
	<path class="st2" d="M52.3,79.8h3v3h-3V79.8z"/>
	<path d="M55.3,79.8h3.2v3h-3.2V79.8z"/>
	<path d="M58.5,79.8h3v3h-3V79.8z"/>
	<path class="st2" d="M61.5,79.8h3v3h-3V79.8z"/>
	<path class="st2" d="M64.5,79.8h3v3h-3V79.8z"/>
	<path class="st2" d="M67.5,79.8h3.2v3h-3.2V79.8z"/>
	<path class="st2" d="M70.7,79.8h3v3h-3V79.8z"/>
	<path class="st2" d="M73.7,79.8h3v3h-3V79.8z"/>
	<path d="M76.7,79.8h3.2v3h-3.2V79.8z"/>
	<path d="M79.9,79.8h3v3h-3V79.8z"/>
	<path d="M82.8,79.8h3v3h-3V79.8z"/>
	<path class="st2" d="M85.8,79.8h3v3h-3V79.8z"/>
	<path class="st2" d="M88.8,79.8H92v3h-3.2V79.8z"/>
	<path class="st2" d="M92,79.8h3v3h-3V79.8z"/>
	<path d="M31,82.8h3v3h-3V82.8z"/>
	<path class="st2" d="M34,82.8h3.2v3H34V82.8z"/>
	<path d="M37.2,82.8h3v3h-3V82.8z"/>
	<path d="M40.2,82.8h3v3h-3V82.8z"/>
	<path d="M43.2,82.8h3v3h-3V82.8z"/>
	<path class="st2" d="M46.1,82.8h3.2v3h-3.2V82.8z"/>
	<path d="M49.3,82.8h3v3h-3V82.8z"/>
	<path class="st2" d="M52.3,82.8h3v3h-3V82.8z"/>
	<path d="M55.3,82.8h3.2v3h-3.2V82.8z"/>
	<path d="M58.5,82.8h3v3h-3V82.8z"/>
	<path d="M61.5,82.8h3v3h-3V82.8z"/>
	<path d="M64.5,82.8h3v3h-3V82.8z"/>
	<path d="M67.5,82.8h3.2v3h-3.2V82.8z"/>
	<path class="st2" d="M70.7,82.8h3v3h-3V82.8z"/>
	<path d="M73.7,82.8h3v3h-3V82.8z"/>
	<path class="st2" d="M76.7,82.8h3.2v3h-3.2V82.8z"/>
	<path class="st2" d="M79.9,82.8h3v3h-3V82.8z"/>
	<path d="M82.8,82.8h3v3h-3V82.8z"/>
	<path class="st2" d="M85.8,82.8h3v3h-3V82.8z"/>
	<path class="st2" d="M88.8,82.8H92v3h-3.2V82.8z"/>
	<path class="st2" d="M92,82.8h3v3h-3V82.8z"/>
	<path d="M31,85.8h3V89h-3V85.8z"/>
	<path class="st2" d="M34,85.8h3.2V89H34V85.8z"/>
	<path class="st2" d="M37.2,85.8h3V89h-3V85.8z"/>
	<path class="st2" d="M40.2,85.8h3V89h-3V85.8z"/>
	<path class="st2" d="M43.2,85.8h3V89h-3V85.8z"/>
	<path class="st2" d="M46.1,85.8h3.2V89h-3.2V85.8z"/>
	<path d="M49.3,85.8h3V89h-3V85.8z"/>
	<path class="st2" d="M52.3,85.8h3V89h-3V85.8z"/>
	<path d="M55.3,85.8h3.2V89h-3.2V85.8z"/>
	<path d="M58.5,85.8h3V89h-3V85.8z"/>
	<path d="M61.5,85.8h3V89h-3V85.8z"/>
	<path d="M64.5,85.8h3V89h-3V85.8z"/>
	<path d="M67.5,85.8h3.2V89h-3.2V85.8z"/>
	<path d="M70.7,85.8h3V89h-3V85.8z"/>
	<path class="st2" d="M73.7,85.8h3V89h-3V85.8z"/>
	<path class="st2" d="M76.7,85.8h3.2V89h-3.2V85.8z"/>
	<path class="st2" d="M79.9,85.8h3V89h-3V85.8z"/>
	<path d="M82.8,85.8h3V89h-3V85.8z"/>
	<path d="M85.8,85.8h3V89h-3V85.8z"/>
	<path class="st2" d="M88.8,85.8H92V89h-3.2V85.8z"/>
	<path class="st2" d="M92,85.8h3V89h-3V85.8z"/>
	<path d="M31,89h3v3h-3V89z"/>
	<path d="M34,89h3.2v3H34V89z"/>
	<path d="M37.2,89h3v3h-3V89z"/>
	<path d="M40.2,89h3v3h-3V89z"/>
	<path d="M43.2,89h3v3h-3V89z"/>
	<path d="M46.1,89h3.2v3h-3.2V89z"/>
	<path d="M49.3,89h3v3h-3V89z"/>
	<path class="st2" d="M52.3,89h3v3h-3V89z"/>
	<path d="M55.3,89h3.2v3h-3.2V89z"/>
	<path class="st2" d="M58.5,89h3v3h-3V89z"/>
	<path d="M61.5,89h3v3h-3V89z"/>
	<path class="st2" d="M64.5,89h3v3h-3V89z"/>
	<path d="M67.5,89h3.2v3h-3.2V89z"/>
	<path class="st2" d="M70.7,89h3v3h-3V89z"/>
	<path d="M73.7,89h3v3h-3V89z"/>
	<path class="st2" d="M76.7,89h3.2v3h-3.2V89z"/>
	<path d="M79.9,89h3v3h-3V89z"/>
	<path class="st2" d="M82.8,89h3v3h-3V89z"/>
	<path class="st2" d="M85.8,89h3v3h-3V89z"/>
	<path d="M88.8,89H92v3h-3.2V89z"/>
	<path class="st2" d="M92,89h3v3h-3V89z"/>
</g>
</svg>
