<svg width="135" height="130" viewBox="0 0 135 130" fill="none" xmlns="http://www.w3.org/2000/svg">
<g filter="url(#filter0_d)">
<path d="M100.8 85.2105H28.9892C25.5042 85.2105 22.653 82.3684 22.653 78.8947V38.0526C22.653 34.5789 25.5042 31.7368 28.9892 31.7368H100.852C104.337 31.7368 107.189 34.5789 107.189 38.0526V78.8947C107.136 82.3684 104.284 85.2105 100.8 85.2105Z" fill="url(#paint0_linear)"/>
<path d="M100.8 84.2632H28.9892C25.5042 84.2632 22.653 81.421 22.653 77.9474V35.3158C22.653 31.8421 25.5042 29 28.9892 29H100.852C104.337 29 107.189 31.8421 107.189 35.3158V77.8947C107.136 81.421 104.284 84.2632 100.8 84.2632Z" fill="url(#paint1_linear)" stroke="url(#paint2_linear)" stroke-width="0.5" stroke-miterlimit="10"/>
<path d="M101.433 81.1579H28.3555C26.7187 81.1579 25.3458 79.8421 25.3458 78.1579V35.6316C25.3458 34 26.6659 32.6316 28.3555 32.6316H101.433C103.07 32.6316 104.443 33.9474 104.443 35.6316V78.1579C104.443 79.7895 103.07 81.1579 101.433 81.1579Z" fill="url(#paint3_linear)" stroke="url(#paint4_linear)" stroke-width="0.5" stroke-miterlimit="10"/>
<path d="M113.578 87.6316L108.931 86.3158C107.294 85.8421 106.08 85.3684 103.545 85.3684H71.917H57.5549H25.9267C24.6594 85.3684 22.8642 85.8947 21.0689 86.3158L16.3168 87.4737" fill="url(#paint5_linear)"/>
<path d="M113.05 90.7368H16.7392C16.3168 90.7368 16 90.421 16 90V88.1053C16 87.6842 16.3168 87.3684 16.7392 87.3684H113.05C113.472 87.3684 113.789 87.6842 113.789 88.1053V90C113.789 90.421 113.472 90.7368 113.05 90.7368Z" fill="url(#paint6_linear)" stroke="url(#paint7_linear)" stroke-width="0.5" stroke-miterlimit="10"/>
<path d="M105.499 85.8421L101.75 85.2105C100.377 84.9473 99.374 84.7368 97.2619 84.7368H70.8082H58.7694H32.3158C31.2597 84.7368 29.7285 85 28.25 85.2105L24.3955 85.8421H105.499Z" fill="url(#paint8_linear)"/>
<path d="M105.499 86.5263H24.3955C24.2899 86.5263 24.2371 86.4736 24.2371 86.3684V85.9999C24.2371 85.8947 24.2899 85.842 24.3955 85.842H105.499C105.605 85.842 105.657 85.8947 105.657 85.9999V86.3684C105.605 86.4736 105.552 86.5263 105.499 86.5263Z" fill="url(#paint9_linear)"/>
<path d="M36.8039 78.421H28.9364C28.5668 78.421 28.25 78.1053 28.25 77.7368V37.0526C28.25 36.6842 28.5668 36.3684 28.9364 36.3684H36.8039C37.1735 36.3684 37.4903 36.6842 37.4903 37.0526V77.6842C37.4903 78.1052 37.1735 78.421 36.8039 78.421Z" fill="#B0C6C6"/>
<path d="M68.6433 56.6316H39.2855C38.9159 56.6316 38.5991 56.3158 38.5991 55.9474V37.0526C38.5991 36.6842 38.9159 36.3684 39.2855 36.3684H68.6961C69.0657 36.3684 69.3825 36.6842 69.3825 37.0526V55.8947C69.3825 56.3158 69.0657 56.6316 68.6433 56.6316Z" fill="#B0C6C6"/>
<path d="M101.328 60H38.8104C38.652 60 38.5464 59.8948 38.5464 59.7369V58.2105C38.5464 58.0527 38.652 57.9474 38.8104 57.9474H101.328C101.486 57.9474 101.592 58.0527 101.592 58.2105V59.7369C101.592 59.8948 101.433 60 101.328 60Z" fill="#B0C6C6"/>
<path d="M101.328 62.6316H38.8104C38.652 62.6316 38.5464 62.5264 38.5464 62.3685V60.8421C38.5464 60.6842 38.652 60.579 38.8104 60.579H101.328C101.486 60.579 101.592 60.6842 101.592 60.8421V62.3685C101.592 62.5264 101.433 62.6316 101.328 62.6316Z" fill="#D6E8E7"/>
<path d="M101.328 65.2632H38.8104C38.652 65.2632 38.5464 65.1579 38.5464 65V63.4737C38.5464 63.3158 38.652 63.2106 38.8104 63.2106H101.328C101.486 63.2106 101.592 63.3158 101.592 63.4737V65C101.592 65.1579 101.433 65.2632 101.328 65.2632Z" fill="#B0C6C6"/>
<path d="M101.328 67.8948H38.8104C38.652 67.8948 38.5464 67.7895 38.5464 67.6316V66.1053C38.5464 65.9474 38.652 65.8422 38.8104 65.8422H101.328C101.486 65.8422 101.592 65.9474 101.592 66.1053V67.6316C101.592 67.7895 101.433 67.8948 101.328 67.8948Z" fill="#D6E8E7"/>
<path d="M101.328 70.5264H38.8104C38.652 70.5264 38.5464 70.4211 38.5464 70.2632V68.7369C38.5464 68.579 38.652 68.4738 38.8104 68.4738H101.328C101.486 68.4738 101.592 68.579 101.592 68.7369V70.2632C101.592 70.4211 101.433 70.5264 101.328 70.5264Z" fill="#B0C6C6"/>
<path d="M101.328 73.1579H38.8104C38.652 73.1579 38.5464 73.0526 38.5464 72.8947V71.3684C38.5464 71.2105 38.652 71.1052 38.8104 71.1052H101.328C101.486 71.1052 101.592 71.2105 101.592 71.3684V72.8947C101.592 73.0526 101.433 73.1579 101.328 73.1579Z" fill="#D6E8E7"/>
<path d="M101.328 75.7894H38.8104C38.652 75.7894 38.5464 75.6842 38.5464 75.5263V74C38.5464 73.8421 38.652 73.7368 38.8104 73.7368H101.328C101.486 73.7368 101.592 73.8421 101.592 74V75.5263C101.592 75.6842 101.433 75.7894 101.328 75.7894Z" fill="#B0C6C6"/>
<path d="M101.328 78.421H38.8104C38.652 78.421 38.5464 78.3158 38.5464 78.1579V76.6316C38.5464 76.4737 38.652 76.3684 38.8104 76.3684H101.328C101.486 76.3684 101.592 76.4737 101.592 76.6316V78.1579C101.592 78.3158 101.433 78.421 101.328 78.421Z" fill="#D6E8E7"/>
<path d="M76.8804 42.3158H71.2306C70.861 42.3158 70.5442 42 70.5442 41.6316V37.0526C70.5442 36.6842 70.861 36.3684 71.2306 36.3684H76.8804C77.25 36.3684 77.5668 36.6842 77.5668 37.0526V41.6316C77.6196 42 77.3028 42.3158 76.8804 42.3158Z" fill="#B0C6C6"/>
<path d="M100.905 38.3684H78.5172C78.3588 38.3684 78.2004 38.2105 78.2004 38.0526V36.6842C78.2004 36.5263 78.3588 36.3684 78.5172 36.3684H100.905C101.064 36.3684 101.222 36.5263 101.222 36.6842V38.0526C101.222 38.2105 101.064 38.3684 100.905 38.3684Z" fill="#B0C6C6"/>
<path d="M91.6121 39.7368H78.5172C78.3588 39.7368 78.2004 39.5789 78.2004 39.421V39.1052C78.2004 38.9473 78.3588 38.7894 78.5172 38.7894H91.6121C91.7705 38.7894 91.9289 38.9473 91.9289 39.1052V39.421C91.9289 39.5789 91.7705 39.7368 91.6121 39.7368Z" fill="#B0C6C6"/>
<path d="M88.1272 41.1052H78.5172C78.3588 41.1052 78.2004 40.9473 78.2004 40.7894V40.4736C78.2004 40.3157 78.3588 40.1578 78.5172 40.1578H88.1272C88.2856 40.1578 88.444 40.3157 88.444 40.4736V40.7894C88.444 40.9473 88.2856 41.1052 88.1272 41.1052Z" fill="#B0C6C6"/>
<path d="M76.8804 49.4737H71.2306C70.861 49.4737 70.5442 49.1579 70.5442 48.7895V44.2106C70.5442 43.8422 70.861 43.5264 71.2306 43.5264H76.8804C77.25 43.5264 77.5668 43.8422 77.5668 44.2106V48.7895C77.6196 49.1579 77.3028 49.4737 76.8804 49.4737Z" fill="#B0C6C6"/>
<path d="M100.905 45.5264H78.5172C78.3588 45.5264 78.2004 45.3685 78.2004 45.2106V43.8422C78.2004 43.6843 78.3588 43.5264 78.5172 43.5264H100.905C101.064 43.5264 101.222 43.6843 101.222 43.8422V45.2106C101.222 45.3685 101.064 45.5264 100.905 45.5264Z" fill="#B0C6C6"/>
<path d="M91.6121 46.8948H78.5172C78.3588 46.8948 78.2004 46.7369 78.2004 46.579V46.2632C78.2004 46.1053 78.3588 45.9474 78.5172 45.9474H91.6121C91.7705 45.9474 91.9289 46.1053 91.9289 46.2632V46.579C91.9289 46.7369 91.7705 46.8948 91.6121 46.8948Z" fill="#B0C6C6"/>
<path d="M88.1272 48.2106H78.5172C78.3588 48.2106 78.2004 48.0527 78.2004 47.8948V47.579C78.2004 47.4211 78.3588 47.2632 78.5172 47.2632H88.1272C88.2856 47.2632 88.444 47.4211 88.444 47.579V47.8948C88.444 48.1053 88.2856 48.2106 88.1272 48.2106Z" fill="#B0C6C6"/>
<path d="M76.8804 56.6316H71.2306C70.861 56.6316 70.5442 56.3158 70.5442 55.9474V51.3684C70.5442 51 70.861 50.6842 71.2306 50.6842H76.8804C77.25 50.6842 77.5668 51 77.5668 51.3684V55.9474C77.6196 56.3158 77.3028 56.6316 76.8804 56.6316Z" fill="#B0C6C6"/>
<path d="M100.905 52.6316H78.5172C78.3588 52.6316 78.2004 52.4737 78.2004 52.3158V50.9474C78.2004 50.7895 78.3588 50.6316 78.5172 50.6316H100.905C101.064 50.6316 101.222 50.7895 101.222 50.9474V52.3158C101.222 52.5263 101.064 52.6316 100.905 52.6316Z" fill="#B0C6C6"/>
<path d="M91.6121 54H78.5172C78.3588 54 78.2004 53.8421 78.2004 53.6842V53.3684C78.2004 53.2105 78.3588 53.0526 78.5172 53.0526H91.6121C91.7705 53.0526 91.9289 53.2105 91.9289 53.3684V53.6842C91.9289 53.8947 91.7705 54 91.6121 54Z" fill="#B0C6C6"/>
<path d="M88.1272 55.3684H78.5172C78.3588 55.3684 78.2004 55.2105 78.2004 55.0526V54.7368C78.2004 54.5789 78.3588 54.421 78.5172 54.421H88.1272C88.2856 54.421 88.444 54.5789 88.444 54.7368V55.0526C88.444 55.2631 88.2856 55.3684 88.1272 55.3684Z" fill="#B0C6C6"/>
<path d="M29.3588 35.4737C29.7962 35.4737 30.1508 35.1203 30.1508 34.6842C30.1508 34.2482 29.7962 33.8948 29.3588 33.8948C28.9214 33.8948 28.5668 34.2482 28.5668 34.6842C28.5668 35.1203 28.9214 35.4737 29.3588 35.4737Z" fill="#C1300E"/>
<path d="M32.5797 35.4737C33.0172 35.4737 33.3718 35.1203 33.3718 34.6842C33.3718 34.2482 33.0172 33.8948 32.5797 33.8948C32.1423 33.8948 31.7877 34.2482 31.7877 34.6842C31.7877 35.1203 32.1423 35.4737 32.5797 35.4737Z" fill="#CC9900"/>
<path d="M35.8534 35.4737C36.2909 35.4737 36.6455 35.1203 36.6455 34.6842C36.6455 34.2482 36.2909 33.8948 35.8534 33.8948C35.416 33.8948 35.0614 34.2482 35.0614 34.6842C35.0614 35.1203 35.416 35.4737 35.8534 35.4737Z" fill="#54AA09"/>
</g>
<defs>
<filter id="filter0_d" x="11.75" y="24.75" width="122.289" height="86.2368" filterUnits="userSpaceOnUse" color-interpolation-filters="sRGB">
<feFlood flood-opacity="0" result="BackgroundImageFix"/>
<feColorMatrix in="SourceAlpha" type="matrix" values="0 0 0 0 0 0 0 0 0 0 0 0 0 0 0 0 0 0 127 0" result="hardAlpha"/>
<feOffset dx="8" dy="8"/>
<feGaussianBlur stdDeviation="6"/>
<feComposite in2="hardAlpha" operator="out"/>
<feColorMatrix type="matrix" values="0 0 0 0 0 0 0 0 0 0 0 0 0 0 0 0 0 0 0.35 0"/>
<feBlend mode="normal" in2="BackgroundImageFix" result="effect1_dropShadow"/>
<feBlend mode="normal" in="SourceGraphic" in2="effect1_dropShadow" result="shape"/>
</filter>
<linearGradient id="paint0_linear" x1="64.8906" y1="85.235" x2="64.8906" y2="31.7405" gradientUnits="userSpaceOnUse">
<stop stop-color="#D3E6E3"/>
<stop offset="1" stop-color="#97ACAC"/>
</linearGradient>
<linearGradient id="paint1_linear" x1="64.8906" y1="84.2519" x2="64.8906" y2="29.0263" gradientUnits="userSpaceOnUse">
<stop stop-color="#515453"/>
<stop offset="1" stop-color="#141717"/>
</linearGradient>
<linearGradient id="paint2_linear" x1="64.8906" y1="84.3835" x2="64.8906" y2="28.8947" gradientUnits="userSpaceOnUse">
<stop stop-color="#F8FFFE"/>
<stop offset="1" stop-color="#D7DBDB"/>
</linearGradient>
<linearGradient id="paint3_linear" x1="64.8906" y1="81.1424" x2="64.8906" y2="32.6526" gradientUnits="userSpaceOnUse">
<stop offset="0.0279224" stop-color="#E2F2F1"/>
<stop offset="1" stop-color="white"/>
</linearGradient>
<linearGradient id="paint4_linear" x1="64.8906" y1="81.274" x2="64.8906" y2="32.521" gradientUnits="userSpaceOnUse">
<stop stop-color="#FAFAFA"/>
<stop offset="0.3802" stop-color="#F8F8F8"/>
<stop offset="0.5845" stop-color="#F0F3F3"/>
<stop offset="0.747" stop-color="#E2E9E9"/>
<stop offset="0.8868" stop-color="#CFDCDB"/>
<stop offset="1" stop-color="#B9CCCB"/>
</linearGradient>
<linearGradient id="paint5_linear" x1="16.3016" y1="86.5216" x2="113.573" y2="86.5216" gradientUnits="userSpaceOnUse">
<stop offset="0.0946594" stop-color="#F5FFFF"/>
<stop offset="1" stop-color="#F0FFFF"/>
</linearGradient>
<linearGradient id="paint6_linear" x1="16.0264" y1="89.0858" x2="113.775" y2="89.0858" gradientUnits="userSpaceOnUse">
<stop offset="0.5161" stop-color="#C1D7DB"/>
<stop offset="1" stop-color="#88B5B5"/>
</linearGradient>
<linearGradient id="paint7_linear" x1="15.8944" y1="89.0858" x2="113.907" y2="89.0858" gradientUnits="userSpaceOnUse">
<stop offset="0.3148" stop-color="#E3FAFA"/>
<stop offset="0.5322" stop-color="#E1F8F8"/>
<stop offset="0.649" stop-color="#D9F1F1"/>
<stop offset="0.742" stop-color="#CBE4E4"/>
<stop offset="0.8224" stop-color="#B8D3D3"/>
<stop offset="0.8947" stop-color="#9FBCBC"/>
<stop offset="0.9602" stop-color="#80A0A0"/>
<stop offset="1" stop-color="#6A8C8C"/>
</linearGradient>
<linearGradient id="paint8_linear" x1="24.3978" y1="85.3158" x2="105.477" y2="85.3158" gradientUnits="userSpaceOnUse">
<stop stop-color="#707473"/>
<stop offset="1" stop-color="#2E3636"/>
</linearGradient>
<linearGradient id="paint9_linear" x1="24.2535" y1="86.1939" x2="105.621" y2="86.1939" gradientUnits="userSpaceOnUse">
<stop stop-color="#515453"/>
<stop offset="1" stop-color="#141717"/>
</linearGradient>
</defs>
</svg>
