<svg width="131" height="130" viewBox="0 0 131 130" fill="none" xmlns="http://www.w3.org/2000/svg">
<g filter="url(#filter0_d)">
<path d="M105.735 41.5899V80.7079C105.735 84.1874 102.877 87.0343 99.3833 87.0343H29.6167C26.1231 87.0343 23.2646 84.1874 23.2646 80.7079V41.5899C23.2646 38.1104 26.1231 35.2635 29.6167 35.2635H99.3833C102.877 35.2635 105.735 38.1104 105.735 41.5899Z" fill="url(#paint0_linear)" stroke="url(#paint1_linear)" stroke-miterlimit="10"/>
<path d="M96.6308 54.4008H60.1065C59.9477 54.4008 59.7889 54.2427 59.7889 54.0845V50.605C59.7889 50.4469 59.9477 50.2887 60.1065 50.2887H96.6308C96.7896 50.2887 96.9484 50.4469 96.9484 50.605V54.0845C96.9484 54.2954 96.7896 54.4008 96.6308 54.4008Z" fill="#B0C6C6"/>
<path d="M90.4375 60.3581H60.1065C59.9477 60.3581 59.7889 60.2 59.7889 60.0418V58.7765C59.7889 58.6184 59.9477 58.4602 60.1065 58.4602H90.4375C90.5963 58.4602 90.7551 58.6184 90.7551 58.7765V60.0418C90.7551 60.2527 90.5963 60.3581 90.4375 60.3581Z" fill="#B0C6C6"/>
<path d="M82.6034 66.3681H60.1065C59.9477 66.3681 59.7889 66.21 59.7889 66.0518V64.7865C59.7889 64.6284 59.9477 64.4702 60.1065 64.4702H82.6034C82.7622 64.4702 82.921 64.6284 82.921 64.7865V66.0518C82.921 66.21 82.7622 66.3681 82.6034 66.3681Z" fill="#B0C6C6"/>
<path d="M60.8476 88.4578C60.8476 98.5272 60.8476 97.3147 43.9618 97.3147C27.0759 97.3147 27.0759 98.5272 27.0759 88.4578C27.0759 78.3883 34.6454 67.4226 43.9618 67.4226C53.2781 67.4226 60.8476 78.3883 60.8476 88.4578Z" fill="url(#paint2_radial)"/>
<path d="M32.3163 89.3539C33.6926 99.3707 33.5338 96.5765 31.8928 97.2092C27.3405 99.0543 25.0644 98 25.8584 88.2995C26.6524 78.2301 33.7455 70.2167 38.933 68.5297C38.933 68.5297 30.4636 75.7523 32.3163 89.3539Z" fill="url(#paint3_radial)"/>
<path d="M55.66 89.3539C54.2838 99.3707 54.4426 96.5765 56.0835 97.2092C60.6358 99.0544 62.912 98 62.118 88.2995C61.3769 78.2828 54.2308 70.2694 49.0433 68.5297C49.0433 68.5297 57.5657 75.7523 55.66 89.3539Z" fill="url(#paint4_radial)"/>
<path opacity="0.3" d="M43.9617 71.7983C47.733 71.7983 50.7902 70.9485 50.7902 69.9003C50.7902 68.8522 47.733 68.0024 43.9617 68.0024C40.1905 68.0024 37.1333 68.8522 37.1333 69.9003C37.1333 70.9485 40.1905 71.7983 43.9617 71.7983Z" fill="#157385"/>
<path d="M43.9617 69.9004C49.4286 69.9004 53.8603 65.4866 53.8603 60.0418C53.8603 54.5971 49.4286 50.1832 43.9617 50.1832C38.4949 50.1832 34.0631 54.5971 34.0631 60.0418C34.0631 65.4866 38.4949 69.9004 43.9617 69.9004Z" fill="url(#paint5_radial)"/>
</g>
<defs>
<filter id="filter0_d" x="14.7646" y="26.7635" width="115.471" height="95.1963" filterUnits="userSpaceOnUse" color-interpolation-filters="sRGB">
<feFlood flood-opacity="0" result="BackgroundImageFix"/>
<feColorMatrix in="SourceAlpha" type="matrix" values="0 0 0 0 0 0 0 0 0 0 0 0 0 0 0 0 0 0 127 0" result="hardAlpha"/>
<feOffset dx="8" dy="8"/>
<feGaussianBlur stdDeviation="8"/>
<feComposite in2="hardAlpha" operator="out"/>
<feColorMatrix type="matrix" values="0 0 0 0 0 0 0 0 0 0 0 0 0 0 0 0 0 0 0.35 0"/>
<feBlend mode="normal" in2="BackgroundImageFix" result="effect1_dropShadow"/>
<feBlend mode="normal" in="SourceGraphic" in2="effect1_dropShadow" result="shape"/>
</filter>
<linearGradient id="paint0_linear" x1="64.4888" y1="87.0416" x2="64.4888" y2="35.2635" gradientUnits="userSpaceOnUse">
<stop stop-color="white"/>
<stop offset="1" stop-color="#E6F5F5"/>
</linearGradient>
<linearGradient id="paint1_linear" x1="64.4888" y1="35" x2="64.4888" y2="87.3052" gradientUnits="userSpaceOnUse">
<stop stop-color="white"/>
<stop offset="1" stop-color="#D7DBDB"/>
</linearGradient>
<radialGradient id="paint2_radial" cx="0" cy="0" r="1" gradientUnits="userSpaceOnUse" gradientTransform="translate(43.9546 82.4327) scale(19.1672 20.7143)">
<stop offset="0.0313947" stop-color="#D5E0E3"/>
<stop offset="0.1637" stop-color="#BAC9E3"/>
<stop offset="0.5541" stop-color="#27A1E4"/>
<stop offset="1" stop-color="#176594"/>
</radialGradient>
<radialGradient id="paint3_radial" cx="0" cy="0" r="1" gradientUnits="userSpaceOnUse" gradientTransform="translate(34 81) rotate(18.1737) scale(7.10099 21.4384)">
<stop offset="0.0313947" stop-color="#D5E0E3"/>
<stop offset="0.1637" stop-color="#BAC9E3"/>
<stop offset="0.5541" stop-color="#27A1E4"/>
<stop offset="1" stop-color="#176594"/>
</radialGradient>
<radialGradient id="paint4_radial" cx="0" cy="0" r="1" gradientUnits="userSpaceOnUse" gradientTransform="translate(54 81.5) rotate(153.435) scale(6.7082 20.2525)">
<stop offset="0.0313947" stop-color="#D5E0E3"/>
<stop offset="0.1637" stop-color="#BAC9E3"/>
<stop offset="0.5541" stop-color="#27A1E4"/>
<stop offset="1" stop-color="#176594"/>
</radialGradient>
<radialGradient id="paint5_radial" cx="0" cy="0" r="1" gradientUnits="userSpaceOnUse" gradientTransform="translate(43.954 60.0454) scale(9.90161 9.86158)">
<stop offset="0.0313947" stop-color="#D5E0E3"/>
<stop offset="0.1637" stop-color="#BAC9E3"/>
<stop offset="0.6182" stop-color="#27A1E4"/>
<stop offset="1" stop-color="#257CBB"/>
</radialGradient>
</defs>
</svg>
