<svg width="139" height="136" viewBox="0 0 139 136" fill="none" xmlns="http://www.w3.org/2000/svg">
<g filter="url(#filter0_d_1_1741)">
<path d="M108.947 49.1252C108.886 45.0963 106.017 38.7478 104.308 35.2073C101.439 29.2861 96.5553 25.9897 90.512 24.0363C89.7795 23.7921 88.9859 23.609 88.1923 23.4259C87.5208 23.3038 86.8494 23.4259 86.4831 23.1817C86.7273 23.2428 87.2156 23.3038 87.6429 23.6701C90.0236 24.5857 91.3666 25.013 93.6252 26.2949C93.8694 26.4781 94.4188 26.7222 94.724 26.9054C95.5786 27.5158 96.4942 28.2483 96.4332 28.1873L94.5408 27.1495L95.3344 27.6989C95.6396 27.9431 95.9449 28.1873 96.128 28.4925L96.4332 28.9198C96.4332 28.9198 96.128 28.4925 95.5175 28.1873C94.9071 27.821 93.32 27.0885 92.8927 26.9054C90.8172 25.9287 90.2068 25.8066 87.9481 25.4403C87.5208 25.3793 87.0325 25.3793 86.6052 25.3182C86.1168 25.6235 85.6285 25.4403 85.2012 25.3182C79.4021 23.8532 74.2744 25.6845 69.513 28.8588C67.3154 30.3238 65.1789 31.9109 63.3476 33.8033C62.493 34.5968 61.8826 34.6579 61.028 33.9864C58.5252 32.033 56.0834 30.1407 53.3365 28.4925C50.8337 26.9664 48.1478 25.9897 45.2177 25.7455C43.4474 25.5624 41.6772 25.9897 39.9069 26.4781C39.1134 26.7222 38.2587 26.9664 37.4652 27.2106C36.8547 27.3327 36.3053 27.5158 35.756 27.6989C26.7215 30.568 20.7393 38.6868 20.6782 48.1485C20.6172 54.7412 21.8991 61.0287 24.7071 66.9499C26.6605 71.0398 29.2243 74.7635 32.3986 77.9988C39.968 85.8123 48.392 92.5882 57.2433 98.8146C60.0513 100.768 62.9814 102.538 65.9725 104.186C66.3387 104.431 66.8271 104.553 67.0102 105.041C69.5741 106.811 72.5041 108.032 75.2511 109.558C76.472 110.23 77.7539 110.779 79.0358 112C75.8005 111.512 73.0535 110.535 70.3066 109.619C59.1967 105.774 48.7582 99.9744 39.6627 92.5271C32.2765 86.4838 25.5006 79.708 21.0445 71.1619C16.161 61.8222 14.1466 51.8722 16.3441 41.4337C18.6638 30.3848 29.1022 21.5946 40.1511 21.1062C44.3631 20.9231 48.1478 22.5713 51.6883 24.6468C54.9847 26.5391 57.9148 28.9198 60.8448 31.2395C61.5774 31.8499 62.6151 31.7888 63.3476 31.1174C67.9259 26.8443 72.9314 23.2428 78.9748 21.0452C88.4975 17.5657 101.927 23.3648 105.651 31.972C107.726 36.7334 109.252 40.7622 109.13 46.6835C109.13 46.6835 109.069 50.7734 108.947 49.1252Z" fill="black"/>
<path d="M37.4041 26.9053C43.0811 24.4636 48.453 25.013 53.7027 28.1873C56.3276 29.8354 58.8304 31.6667 61.2111 33.6201C61.9436 34.2306 62.3098 34.2306 63.0424 33.498C65.7893 30.8121 68.8415 28.4925 72.1989 26.7222C76.7771 24.2805 81.5385 23.67 86.4831 25.2572C88.8638 26.3559 91.3665 27.2716 93.442 29.0419C97.654 32.6434 99.3632 37.4659 99.6074 42.7767C99.6685 43.5092 99.6685 44.608 99.5464 45.7678C98.9359 42.4104 97.5319 39.1751 96.0058 36.184C93.5641 31.4226 89.3521 29.0419 84.5297 27.4547C84.4076 27.3937 82.5152 27.0885 83.2478 27.4547C86.0558 28.3093 87.5208 29.1029 89.23 30.9953C88.9248 30.8732 88.3754 30.3848 87.9481 30.3238C87.9481 30.3238 88.5585 30.568 89.5352 32.2772C89.5352 32.2772 87.5208 30.3238 86.9104 30.0186C82.7594 28.1873 78.6084 28.3093 74.5796 30.3238C71.0391 32.033 67.8648 34.3526 65.0568 37.0996C64.6905 37.4659 64.3243 37.7711 63.958 38.0763C62.7371 39.114 62.0046 39.114 60.7227 38.1984C58.4641 36.4892 56.2665 34.7189 53.8858 33.1928C51.6272 31.7278 49.2465 30.3848 46.5606 29.9575C42.2265 29.286 38.5029 30.8732 35.1455 33.376C29.6516 37.5269 27.8203 43.204 28.3086 49.8577C29.1022 61.456 35.1455 70.0631 43.8137 77.1441C47.3542 80.0132 50.6505 83.0654 54.3742 85.7513C60.3564 90.0854 66.766 93.6869 73.2977 97.0443C73.9691 97.4106 74.6406 97.8379 75.2511 98.2042C75.3731 98.3262 75.4952 98.4483 75.4342 98.6315C75.19 98.8146 74.8848 98.8146 74.5796 98.6925C74.1523 99.0588 73.725 98.7535 73.2977 98.6315C62.1877 95.3351 51.9324 90.2074 42.959 82.6381C37.1599 77.7546 31.9712 72.3828 28.3696 65.668C26.111 61.3949 24.7681 56.8167 24.2797 52.0553C23.8524 47.7822 23.7914 43.5092 25.3175 39.4193C27.0267 34.78 29.9568 31.0563 34.1688 28.3704C34.6571 28.0652 35.2065 27.821 35.7559 27.6379C36.3053 27.3326 36.8547 27.1495 37.4041 26.9053Z" fill="#83BC00"/>
<path d="M101.011 33.3763C101.011 33.3152 101.011 33.193 100.95 33.1318C101.072 33.1318 101.256 33.1318 101.378 33.193C101.378 33.2541 101.378 33.3763 101.378 33.4374C101.317 33.3763 101.195 33.3763 101.011 33.3763Z" fill="#FEFEFE"/>
<path d="M96.4331 29.0419C97.4708 29.8354 98.3865 30.7511 99.2411 31.7278C100.096 32.7045 100.889 33.8033 101.561 34.902C102.232 36.0008 102.782 37.2217 103.27 38.4426C103.758 39.6634 104.002 40.9454 104.125 42.2273C103.941 41.6168 103.819 40.9454 103.575 40.3349L103.27 39.4193L102.904 38.5036C102.415 37.3438 101.866 36.184 101.133 35.0852C100.462 33.9864 99.7294 32.9487 98.9359 31.9109C98.5086 31.4226 98.1423 30.9342 97.715 30.4459C97.3488 30.0186 96.9215 29.5302 96.4331 29.0419Z" fill="black"/>
<path d="M96.433 28.3094C97.4097 28.8588 98.2643 29.5913 99.0578 30.3849C99.8514 31.1784 100.584 32.033 101.316 32.8876C102.659 34.6579 103.819 36.6113 104.674 38.6868C106.505 42.8377 106.994 47.477 106.566 51.9943C106.139 56.5115 104.796 60.8456 102.904 64.9355C101.011 69.0254 98.3253 72.627 95.5784 76.1065C96.7382 74.2141 97.898 72.3218 98.9968 70.4294C100.096 68.5371 101.133 66.5837 101.988 64.5692C103.697 60.5404 104.918 56.2673 105.345 51.9332C105.773 47.5991 105.345 43.204 103.819 39.1141C103.026 37.0997 102.049 35.0852 100.828 33.315C99.6072 31.4226 98.2032 29.7134 96.433 28.3094Z" fill="black"/>
<path d="M94.2968 83.9811C92.4655 86.0566 90.5731 88.132 88.6197 90.1465C86.6664 92.1609 84.713 94.1143 82.6985 96.0677C80.6841 97.96 78.6697 99.9134 76.5331 101.684C74.3966 103.515 72.2601 105.285 69.9404 106.872C72.138 105.102 74.2135 103.332 76.289 101.44C78.3644 99.5472 80.3789 97.6548 82.3933 95.7625C84.4077 93.8701 86.3611 91.8557 88.3756 89.9023L94.2968 83.9811Z" fill="black"/>
<path d="M85.4452 78.304C85.4452 78.304 75.1289 89.7802 68.292 94.8468Z" fill="#83BC00"/>
<path d="M49.1243 70.3073C49.0022 70.9787 49.0022 71.5892 49.0022 72.2607L49.0633 72.3827C49.0633 72.4438 49.1243 72.5659 49.1243 72.688C49.2464 72.749 49.3685 73.1153 49.4906 73.2373C49.6737 73.4205 49.9179 73.4815 50.1621 73.5426C50.3452 73.5426 50.5283 73.5426 50.7115 73.4815C52.0544 73.1763 53.0921 72.1386 53.9468 71.2229C54.8014 70.3073 55.5339 69.3306 56.2054 68.2318C56.2664 68.1097 56.4495 67.5603 56.6937 67.6213C56.9379 67.6213 56.8158 68.4149 56.8158 68.537C56.5106 70.7346 55.0455 72.688 53.3974 74.092C52.848 74.5193 52.1155 75.1907 51.3219 75.1907C50.6504 75.2518 49.9789 74.8855 49.4906 74.5193C48.5139 73.9088 47.5982 73.0542 47.232 71.8944C46.9268 71.1008 47.1099 70.2462 47.232 69.3916C47.232 69.3306 47.1709 68.9643 47.293 68.8422C47.293 68.9033 47.293 69.2695 47.293 69.2695C47.293 69.1474 47.293 68.9033 47.3541 68.7812C47.293 68.8422 47.3541 68.476 47.3541 68.476C47.3541 68.2928 47.4151 68.1097 47.4761 67.9266C47.5372 67.4993 47.7203 67.133 47.8424 66.7057C48.0866 65.9121 48.4528 65.0575 48.697 64.264C48.9412 63.5314 49.3075 62.7989 49.6737 62.0664C49.7958 61.8833 50.6504 60.113 50.8335 60.113L50.7115 60.4182C50.9556 60.052 51.1388 59.6857 51.3829 59.3194C51.3219 59.3805 51.1998 59.5636 51.1998 59.5636C51.2608 59.2584 51.6271 58.8921 51.8102 58.648C51.9323 58.4038 52.1155 58.1596 52.2986 57.9154C52.6648 57.366 53.0921 56.8166 53.5805 56.2673C54.1909 55.5958 55.1066 54.6801 56.0833 54.6191C57.8535 54.497 58.8302 56.3893 58.8913 57.8544C58.8913 58.648 58.7082 59.5026 58.1588 60.113C57.6704 60.6624 56.7548 61.2728 56.0222 61.3949C55.8391 61.3949 55.5339 61.456 55.5949 61.2118C55.5949 61.2118 55.656 61.1507 55.717 61.0897C55.8391 61.0287 56.5106 59.4415 56.6937 59.4415C56.6937 59.4415 56.4495 60.052 56.3885 60.174C56.7548 59.5026 57.121 58.77 57.3652 58.0375C57.4873 57.6102 57.7925 56.8777 57.6094 56.3893C57.3652 55.84 56.5716 56.2673 56.2054 56.4504L55.9001 56.6335L56.0222 56.5725C55.9002 56.6335 55.8391 56.6946 55.7781 56.7556C55.9001 56.6946 56.0222 56.5725 56.1443 56.5114C56.4495 56.3283 57.121 55.901 57.4262 56.1452C57.6704 56.3893 57.6094 56.6946 57.4873 56.9998C57.5483 56.6335 57.5483 56.2062 57.1821 56.1452C56.8158 56.0841 56.5106 56.3893 56.2054 56.5114C55.2287 57.1829 54.4351 58.2206 53.7636 59.1973C53.0311 60.2351 52.3596 61.3949 51.8102 62.5547C51.1998 63.7756 50.7725 65.0575 50.2841 66.3394C49.8568 67.5603 49.3685 68.8422 49.1243 70.1241V70.2462C49.1243 70.2462 49.1243 70.2462 49.1243 70.3073C49.1243 70.2462 49.1243 70.2462 49.1243 70.3073ZM54.1909 57.7933C52.9701 59.1363 51.9323 60.7845 51.1388 62.4327C50.4673 63.8367 49.9789 65.1796 49.4906 66.6447C49.7958 65.729 50.2231 64.8133 50.6504 63.9587C51.3829 62.4937 52.0544 61.0897 52.909 59.6857C53.2753 59.0753 53.7026 58.4038 54.1909 57.7933ZM55.717 56.7556C55.1676 57.1829 54.7403 57.7323 54.313 58.2817C54.5572 57.9765 54.8624 57.6102 55.1676 57.305C55.2897 57.1219 55.5339 56.9387 55.717 56.7556ZM57.3652 57.5492C57.3652 57.4271 57.4262 57.1829 57.4873 56.9998C57.4873 57.1829 57.4262 57.305 57.3652 57.4271C57.3652 57.4881 57.3652 57.4881 57.3652 57.5492Z" fill="#84BD00"/>
<path d="M68.292 68.1707C67.9868 68.8422 67.6816 69.3916 67.3154 70.002C66.888 70.6735 66.5218 71.2839 66.0334 71.8333C65.6672 72.3217 65.1178 72.9321 64.4463 73.0542C63.7138 73.1763 63.1033 72.5658 62.8592 71.9554C62.3098 70.6735 62.7371 69.3305 63.1033 68.1097C63.1033 68.1097 63.1033 67.9265 63.1033 67.7434C62.8592 68.0486 62.554 68.4759 62.3708 68.7811C62.1267 69.2084 61.9435 69.5747 61.6383 70.002C61.5162 70.1851 59.746 72.3217 59.5018 71.9554L59.746 71.8333C59.5018 72.0164 59.1355 72.0775 58.8303 71.9554C58.8913 72.0164 58.9524 72.0164 58.8913 72.0164C58.403 72.0775 57.9757 71.2839 57.9147 70.9787C57.7315 70.3683 57.7926 69.6968 57.9147 69.0863C58.1588 67.8044 58.6472 66.4615 59.3797 65.3627C59.5628 65.1185 59.746 64.8133 60.0512 64.6302C60.2343 64.5081 60.3564 64.447 60.5395 64.325C60.8447 64.0197 61.15 63.8366 61.6383 63.8366C62.676 63.8366 63.1033 65.0575 63.3475 65.851C63.8359 65.1796 64.8126 64.325 65.6061 65.2406C66.0334 65.729 65.7282 66.1563 65.5451 66.6446C65.1178 67.3771 64.8126 68.3538 64.6294 69.0863C64.6294 69.0253 64.6905 68.7201 64.8126 68.659C64.9957 68.598 63.4086 73.4815 65.6672 70.7345C66.3387 69.8799 66.9491 69.0253 67.4985 68.1097C67.7427 67.6823 68.0479 67.255 68.292 66.8277C68.4141 66.6446 68.7804 66.2173 68.8414 66.7057C68.9025 67.255 68.4141 67.7434 68.292 68.1707ZM62.7981 66.5836C62.7981 66.4004 62.3708 65.2406 62.4929 65.1185C62.4929 65.1185 62.7371 65.729 62.7371 65.79C62.676 65.5458 62.615 64.7523 62.1877 64.7523C61.4552 64.7523 60.9058 66.0952 60.7227 66.5836C60.2953 67.5603 59.9291 68.598 59.746 69.6357C59.807 69.3305 61.0889 65.4237 61.4552 65.4237C61.15 65.4848 59.9901 68.8422 59.9291 69.1474C59.868 69.3305 59.5628 70.4293 59.868 70.5514C60.1122 70.6124 60.6006 69.941 60.7227 69.8189C61.15 69.3305 61.5162 68.7811 61.8825 68.2317L62.4319 67.4382C62.4929 67.3161 62.615 67.133 62.7371 67.0109C62.7981 66.7667 62.7981 66.7667 62.7981 66.5836ZM62.8592 66.4004V66.6446C62.9202 66.5836 62.9202 66.5225 62.8592 66.4004ZM63.3475 67.4382L63.2254 67.6213C63.2254 67.6823 63.1644 67.9876 63.1644 67.9876L63.3475 67.4382Z" fill="#84BD00"/>
<path d="M75.8612 67.6213C75.678 67.9876 75.4949 68.3538 75.2507 68.659C74.7624 69.3916 74.213 70.1241 73.6636 70.8566C73.1752 71.5891 72.5648 72.2606 71.8933 72.871C71.7712 72.9321 70.7946 73.7867 70.7335 73.7257C70.7335 73.7257 70.7335 73.6646 70.7945 73.6646L70.6725 73.7257C70.7946 73.7257 70.3672 73.9698 70.2452 74.0309C69.9399 74.0919 69.6347 74.0309 69.3295 73.8477C69.0243 73.6646 68.9022 73.4204 68.7801 73.1152C68.5359 72.6269 68.5359 72.1996 68.658 71.6502C68.658 71.5281 68.9632 70.3072 69.1464 70.3072C69.2074 70.3072 69.0853 70.4904 69.1464 70.4904L69.2685 69.941C69.2074 69.941 70.3672 67.4992 70.4283 67.3161C69.7568 67.4382 68.9632 67.4382 68.4749 66.8888C68.3528 66.7057 68.4139 66.5836 68.3528 66.4615C68.2918 66.2784 68.2307 66.2173 68.1697 66.0342C67.9255 64.9964 69.2074 63.5314 70.2452 64.2029L70.1841 64.1418C70.1841 64.0197 70.4893 64.325 70.4893 64.447C70.4893 64.5081 70.3062 65.1185 70.1841 65.1185C70.1841 65.1185 70.3062 64.7523 70.3062 64.6912C70.1841 65.1185 69.6958 65.5458 69.6347 65.9731C69.5737 66.2784 69.7568 66.2784 70.062 66.3394C70.4893 66.4615 71.0998 66.4004 71.6492 66.5225C71.2829 66.4004 70.9166 66.4004 70.6114 66.3394C70.9166 66.4004 71.2829 66.4004 71.5881 66.4615C72.1986 66.5836 72.6259 66.8277 72.3206 67.4992C72.0765 68.1097 71.7102 68.7811 71.466 69.3916C71.2219 70.002 70.9777 70.6735 70.7335 71.2839C70.6725 71.5281 70.1841 72.3827 70.3672 72.6269C70.6114 72.871 71.7712 71.8333 72.0765 71.4671C72.0154 71.5281 71.9544 71.5281 71.8933 71.5891C71.8323 71.5891 72.3206 70.9787 72.3817 70.9177L72.9921 70.1241L74.1519 68.598L75.3118 67.0109C75.4339 66.8888 75.9222 66.0952 76.0443 66.7057C76.2274 67.0109 75.9832 67.3771 75.8612 67.6213ZM69.1464 73.4815L69.0853 73.4204L69.1464 73.4815C69.0243 73.1763 68.9022 72.9931 68.8412 72.81L68.9022 73.1152L68.8412 72.6879C68.8412 72.6269 68.8412 72.6269 68.8412 72.6269C68.8412 72.6269 68.8412 72.6269 68.8412 72.6879V72.5048C68.8412 72.1996 68.8412 71.8944 68.9022 71.6502C68.8412 71.8333 68.8412 72.0164 68.8412 72.2606C68.8412 72.5048 68.8412 72.81 68.9022 73.0542C68.9022 73.1152 69.0853 73.4815 69.2074 73.6646V73.6036C69.3295 73.7257 69.5126 73.8477 69.6958 73.9088C69.4516 73.7867 69.2685 73.6646 69.1464 73.4815ZM68.9632 71.2229C68.9632 71.2839 68.9632 71.2839 68.9632 71.2839C68.9022 71.2839 68.9632 71.2229 68.9632 71.2229ZM69.0243 71.2229C69.1464 70.6735 69.3905 70.1241 69.6347 69.5747L70.062 68.598C70.1841 68.4149 70.6114 67.3161 70.7335 67.255C70.6114 67.3161 70.3062 68.0486 70.2452 68.1707C70.062 68.537 69.8789 68.9032 69.6958 69.2695C69.3906 69.941 69.1464 70.5514 69.0243 71.2229ZM69.6958 66.1563C69.6958 66.1563 69.6958 66.0952 69.6958 66.1563V66.1563ZM69.6958 66.1563C69.6958 66.2173 69.8179 66.2784 69.8179 66.2784C69.9399 66.3394 70.062 66.4004 70.2452 66.4004C70.062 66.4004 69.8789 66.3394 69.7568 66.2784C69.6958 66.2784 69.6958 66.2173 69.6958 66.1563ZM72.0154 67.9876L71.5881 68.9643L72.0154 67.9876Z" fill="#84BD00"/>
<path d="M82.6982 67.0719L82.0267 67.9875L80.8669 69.5136C80.5616 69.8799 80.1954 70.2462 79.8902 70.6735C79.585 71.1008 79.2797 71.5891 78.9135 71.9554C78.5472 72.3827 78.0589 72.81 77.5705 73.0542C77.2043 73.2373 76.838 73.2983 76.4717 73.1762C75.9223 73.0542 75.434 72.6879 75.0677 72.2606C74.9456 72.1385 74.8236 72.0164 74.8236 71.8333C74.8236 71.7112 74.7625 71.5281 74.7625 71.406C74.7625 71.1618 74.8236 70.9787 74.8846 70.6735C74.9456 70.3682 75.0677 70.1241 75.1288 69.8799C75.1898 69.5747 75.2509 69.2695 75.3119 69.0253C75.3119 68.7811 75.3119 68.4759 75.373 68.2317C75.434 68.0486 75.5561 67.8655 75.6171 67.6823C75.5561 67.8044 75.434 67.9265 75.434 68.0486C75.3729 68.2317 75.3119 68.4148 75.2509 68.5369C75.1898 68.7201 75.1898 68.8422 75.1288 69.0253C75.0677 69.2084 74.9456 69.3915 74.9456 69.6357C74.9456 69.8189 74.9456 70.002 74.9456 70.2462C74.7625 70.3072 74.7015 70.4903 74.7015 70.6735C74.7015 70.7345 74.7625 70.8566 74.7625 70.9176C74.7625 70.9787 74.7015 71.1008 74.7015 71.2229C74.7015 71.406 74.7625 71.5891 74.7625 71.8333C74.3963 71.2229 74.4573 70.6124 74.5794 70.002C74.7015 69.3305 74.7625 68.7201 74.9456 68.1096C75.2509 66.8277 75.8003 65.6068 76.6549 64.5691C77.3263 63.6535 78.242 62.982 79.4018 63.2262C79.8291 63.2872 80.3175 63.5314 80.5616 63.8976C80.8669 64.3249 80.8669 64.8133 80.6837 65.3016C80.3785 66.1562 79.707 66.8277 79.0356 67.3771C78.7303 67.6213 78.4251 67.8655 78.1199 68.0486C77.8757 68.1707 77.6926 68.2928 77.4484 68.3538L77.0822 68.4759C76.9601 68.5369 76.899 68.4759 76.838 68.598C76.7159 68.8422 76.777 69.0253 76.777 69.2695C76.7159 69.5747 76.6549 69.8188 76.5938 70.063C76.4717 70.5514 76.2886 71.2229 76.4717 71.7722C76.7159 72.871 78.5472 71.1618 78.8524 70.8566C79.0966 70.6735 79.2797 70.4293 79.4629 70.2462C79.585 70.1241 79.707 70.002 79.7681 69.8799L79.8291 69.7578C80.0733 69.3305 80.4396 68.9642 80.7448 68.598C81.111 68.1707 81.4773 67.6823 81.8436 67.194C82.0267 66.8888 82.515 66.0952 82.8203 66.7056C82.8813 66.8277 82.8203 66.8888 82.6982 67.0719ZM77.1432 67.5602C77.8147 67.194 78.4862 66.7056 78.9745 66.0952L79.3408 65.6068C79.4018 65.4848 79.5239 65.4237 79.585 65.3016C79.585 65.1795 79.585 65.1185 79.585 64.9964L79.646 64.5691C79.646 64.3249 79.585 63.7755 79.2797 63.8366C79.1576 63.8976 78.9745 64.0808 78.9135 64.2028L78.5472 64.6912C78.1199 65.3627 77.8757 66.0952 77.5095 66.7667C77.5095 66.7667 77.5095 66.7667 77.5095 66.8277C77.3263 67.0719 77.2653 67.3161 77.1432 67.5602Z" fill="#84BD00"/>
<path d="M89.8405 66.8888C89.9015 67.5603 88.8638 68.1707 88.3754 68.476C87.765 68.9033 87.0935 69.3916 86.422 69.7579C86.2389 69.8189 85.9947 69.941 85.8116 70.0631C85.5674 70.2462 85.6285 70.2462 85.6895 70.5514C85.7505 70.9177 85.8116 71.345 85.8116 71.7113C85.8116 72.3217 85.7505 72.9321 85.5674 73.4815C85.0791 74.8245 83.9803 75.6791 82.5152 75.618C81.1723 75.618 79.7683 74.8855 80.0735 73.4815C80.0735 73.5426 80.0125 73.9088 79.9514 73.8478C79.8293 73.7867 79.9514 73.2984 80.0125 73.1763C80.2566 72.3827 80.9892 71.7723 81.5996 71.2229C81.9658 70.9177 82.3321 70.6735 82.6984 70.4293C83.0036 70.2462 83.614 70.002 83.6751 69.6968C83.7361 69.3916 83.4309 68.7201 83.3698 68.4149C83.3088 67.9876 83.1257 67.5603 83.0646 67.133C83.0646 66.8278 83.1257 66.7057 83.0646 66.4005C82.9425 66.0342 82.8205 65.729 82.8205 65.3627C82.8205 64.9965 82.8205 64.6302 82.9425 64.264C83.1257 63.7756 84.2855 62.5547 84.8349 63.1041C84.8349 62.982 85.1401 63.4093 85.1401 63.5314C85.1401 63.5925 85.0791 64.4471 84.8959 64.386C84.8959 64.386 84.957 64.2029 84.957 64.0198C84.8349 64.325 84.6518 64.6302 84.6518 64.9354C84.5907 65.2407 84.6518 65.5459 84.7128 65.79C84.7128 65.729 84.7128 65.729 84.7738 65.668C84.7738 65.668 85.018 66.7667 85.2011 67.6824C85.0791 67.072 84.8349 66.4005 84.7738 65.9732C84.957 66.9499 85.1401 67.8655 85.3843 68.7812C85.3843 68.7812 85.4453 68.7201 85.3843 68.598C85.3843 68.6591 85.4453 68.7201 85.4453 68.7201C86.422 68.2318 87.2766 67.8045 88.1923 67.2551C88.5585 67.0109 88.9858 66.5836 89.4132 66.3394C89.5963 66.5226 89.7794 66.5836 89.8405 66.8888ZM82.0269 74.3361L82.6373 74.092C82.6373 74.092 82.4542 74.214 82.4542 74.2751C82.6984 74.153 82.9425 73.9088 83.1257 73.6647L83.0036 73.7257C83.1867 73.5426 83.614 72.688 83.614 72.6269C83.7361 72.1386 83.7361 71.5892 83.7361 71.0398C83.6751 71.1008 83.614 71.1008 83.614 71.1008L83.7361 70.9787L83.4919 71.1008C83.614 71.0398 83.1867 71.406 83.1257 71.406L82.4542 71.8334C82.0269 72.1386 81.5385 72.4438 81.2333 72.8711C81.0502 73.1763 80.5008 74.0309 81.0502 74.214C81.3554 74.4582 81.7217 74.3972 82.0269 74.3361ZM84.8959 73.8478C84.2855 74.7634 83.1867 75.2518 82.0879 75.3128C82.6984 75.3128 83.1867 75.1907 83.7972 74.9466C84.3465 74.7024 84.6518 74.3361 84.8959 73.8478ZM85.2622 68.2318C85.3232 68.476 85.3843 68.6591 85.3843 68.8422C85.3232 68.6591 85.3232 68.476 85.2622 68.2318ZM85.6285 70.9787C85.6285 71.0398 85.6285 71.0398 85.6285 71.1008C85.6895 71.0398 85.6285 70.9787 85.6285 70.9787Z" fill="#84BD00"/>
<path d="M45.5229 55.3516H40.3342L39.2964 57.7323H37.282L41.9823 47.2939H43.8747L48.575 57.7323H46.5606L45.5229 55.3516ZM44.9124 53.8255L42.959 49.2473L41.0056 53.8255H44.9124Z" fill="black"/>
<path d="M55.7172 57.7323L53.7027 54.9854L51.6272 57.7323H49.5518L52.665 53.7035L49.6738 49.7967H51.7493L53.7027 52.4216L55.6561 49.7967H57.6705L54.6794 53.7035L57.7926 57.7934H55.7172V57.7323Z" fill="black"/>
<path d="M59.1966 48.1485C58.9524 47.9654 58.8303 47.6602 58.8303 47.3549C58.8303 47.0497 58.9524 46.7445 59.1966 46.5614C59.4408 46.3783 59.746 46.2562 60.0512 46.2562C60.4175 46.2562 60.6616 46.3783 60.9058 46.5614C61.15 46.7445 61.2721 47.0497 61.2721 47.3549C61.2721 47.6602 61.15 47.9654 60.9668 48.2096C60.7227 48.4537 60.4785 48.5148 60.1122 48.5148C59.746 48.5148 59.4408 48.3927 59.1966 48.1485ZM59.1355 49.7967H60.9668V57.7323H59.1355V49.7967Z" fill="black"/>
<path d="M64.8125 57.305C64.1411 56.9387 63.6527 56.4504 63.2865 55.84C62.9202 55.2295 62.7371 54.497 62.7371 53.7645C62.7371 52.9709 62.9202 52.2994 63.2865 51.689C63.6527 51.0786 64.1411 50.5902 64.8125 50.224C65.484 49.8577 66.1555 49.6746 67.0101 49.6746C67.8037 49.6746 68.5362 49.8577 69.2077 50.224C69.8791 50.5902 70.3675 51.0786 70.7338 51.689C71.1 52.2994 71.2831 53.032 71.2831 53.7645C71.2831 54.558 71.1 55.2295 70.7338 55.84C70.3675 56.4504 69.8791 56.9387 69.2077 57.305C68.5362 57.6713 67.8647 57.8544 67.0101 57.8544C66.1555 57.8544 65.484 57.6713 64.8125 57.305ZM68.6583 55.5347C69.0856 55.1074 69.3298 54.497 69.3298 53.7645C69.3298 53.032 69.0856 52.4215 68.6583 51.9942C68.231 51.5669 67.6205 51.3227 66.9491 51.3227C66.2776 51.3227 65.7282 51.5669 65.2398 51.9942C64.8125 52.4215 64.5684 53.032 64.5684 53.7645C64.5684 54.497 64.8125 55.1074 65.2398 55.5347C65.6671 55.962 66.2165 56.2062 66.9491 56.2062C67.6816 56.2673 68.231 56.0231 68.6583 55.5347Z" fill="black"/>
<path d="M84.5295 50.5902C85.14 51.1396 85.3841 52.0553 85.3841 53.2151V57.7934H83.5528V53.4593C83.5528 52.7878 83.3697 52.2384 83.0645 51.8721C82.7593 51.5059 82.332 51.3227 81.7215 51.3227C81.1111 51.3227 80.6228 51.5059 80.1954 51.9332C79.8292 52.3605 79.6461 52.9099 79.6461 53.7034V57.7323H77.8148V53.3982C77.8148 52.7267 77.6316 52.1774 77.3264 51.8111C77.0212 51.4448 76.5939 51.2617 75.9834 51.2617C75.373 51.2617 74.8236 51.4448 74.4574 51.8721C74.0911 52.2994 73.908 52.8488 73.908 53.6424V57.6713H72.0767V49.7356H73.8469V50.7734C74.1521 50.4071 74.5184 50.1629 74.9457 49.9798C75.373 49.7967 75.8614 49.6746 76.4108 49.6746C77.0212 49.6746 77.5095 49.7967 77.9979 49.9798C78.4862 50.224 78.8525 50.5292 79.0967 50.9565C79.4019 50.5292 79.8292 50.224 80.3786 49.9798C80.8669 49.7356 81.4774 49.6135 82.0878 49.6135C83.1866 49.7356 83.9801 49.9798 84.5295 50.5902Z" fill="black"/>
<path d="M86.4221 77.1441C88.6807 74.6413 91.0004 72.1386 92.7706 69.2695C93.7473 67.8655 94.5409 66.4005 95.3345 64.9354C96.067 63.4093 96.7995 61.8832 97.2879 60.2961C98.4477 57.1219 99.1192 53.8255 99.3023 50.4681C99.5465 47.1107 99.1802 43.7533 98.5698 40.3959C98.9971 42.0441 99.3633 43.6923 99.5465 45.4015C99.7296 47.1107 99.8517 48.8199 99.7296 50.5292C99.6075 53.9476 98.936 57.305 97.7762 60.5403C97.2268 62.1885 96.4333 63.7146 95.7007 65.2406C94.8461 66.7057 94.0526 68.2318 93.0148 69.5747L92.2823 70.6125L91.916 71.1619L91.4887 71.6502L89.8406 73.6036C89.2912 74.2751 88.6807 74.8245 88.0703 75.4349L86.4221 77.1441Z" fill="#84BD00"/>
<path d="M92.0381 67.133C93.8694 64.4471 95.1513 61.3949 96.189 58.3427C97.1657 55.2295 97.7762 51.9942 97.8372 48.7589C97.8982 47.1107 97.7762 45.5236 97.532 43.9365C97.3489 42.3493 96.9216 40.7622 96.3111 39.2972C95.7007 37.8321 94.9071 36.4281 93.8694 35.1462C92.8927 33.8643 91.6718 32.7655 90.3289 31.8499V31.7888C93.1979 33.3149 95.5176 36.0008 96.7995 39.053C97.4709 40.5791 97.8372 42.2273 98.0203 43.8754C98.2035 45.5236 98.2645 47.1718 98.2035 48.82C98.0814 52.1163 97.4099 55.3516 96.3722 58.4648C95.3344 61.517 93.9304 64.5081 92.0381 67.133Z" fill="#84BD00"/>
<path d="M95.5173 82.577C97.3486 80.2574 98.9968 77.7546 100.584 75.2518C102.171 72.749 103.636 70.1242 104.857 67.4382C106.078 64.7523 107.116 61.9443 107.848 59.1363C108.581 56.2673 109.191 53.3372 109.069 50.4071H109.13C109.313 51.8721 109.252 53.3982 109.13 54.8633C108.947 56.3283 108.703 57.8544 108.336 59.2584C107.604 62.1275 106.688 65.0575 105.345 67.6824C104.002 70.3683 102.476 72.9322 100.828 75.4349C99.241 77.9377 97.4707 80.3184 95.5173 82.577Z" fill="black"/>
<path d="M96.8606 46.0731C96.6775 44.7301 96.4333 43.4482 96.1281 42.1663C95.7618 40.8844 95.3955 39.6025 94.7851 38.5037C94.1747 37.3439 93.4422 36.2451 92.5875 35.2684C92.1602 34.78 91.7329 34.2917 91.2446 33.8033C90.7562 33.315 90.2679 32.8877 89.7795 32.4604C90.9394 33.1319 91.9771 34.0475 92.8928 35.0242C93.8084 36.0009 94.602 37.0997 95.2735 38.3206C95.8839 39.5414 96.3112 40.8233 96.5554 42.1663C96.6775 43.3872 96.8606 44.7301 96.8606 46.0731Z" fill="#84BD00"/>
<path d="M79.0967 105.346L77.9369 106.323L78.181 107.117L78.0589 107.178L77.3264 104.553L77.3875 104.492L79.8902 105.651L79.7682 105.713L79.0967 105.346ZM78.9746 105.285L77.4485 104.614L77.8758 106.201L78.9746 105.285Z" fill="#84BD00" stroke="#84BD00" stroke-width="0.25" stroke-miterlimit="10"/>
<path d="M80.1955 103.149C80.3786 103.149 80.5617 103.271 80.7449 103.454L81.4774 104.248L81.4163 104.309L80.7449 103.515C80.6228 103.332 80.4396 103.271 80.3175 103.271C80.1344 103.271 80.0123 103.332 79.8292 103.454C79.6461 103.576 79.585 103.759 79.524 103.942C79.524 104.125 79.585 104.309 79.7071 104.492L80.3786 105.224L80.3175 105.285L79.0967 103.881L79.1577 103.82L79.4629 104.186C79.4019 104.064 79.4019 103.881 79.4629 103.759C79.524 103.637 79.585 103.454 79.7071 103.332C79.8292 103.21 80.0123 103.149 80.1955 103.149Z" fill="#84BD00" stroke="#84BD00" stroke-width="0.25" stroke-miterlimit="10"/>
<path d="M83.4309 101.623L82.3321 102.599L82.5763 103.393L82.4542 103.454L81.6606 100.829L81.7217 100.768L84.2245 101.867L84.1024 101.928L83.4309 101.623ZM83.3088 101.562L81.7827 100.89L82.2711 102.477L83.3088 101.562Z" fill="#84BD00" stroke="#84BD00" stroke-width="0.25" stroke-miterlimit="10"/>
<path d="M85.3233 100.89L84.2245 100.707L84.2856 101.806L84.1635 101.928L84.1024 100.707L83.0037 100.524L83.1258 100.402L84.1024 100.585L84.0414 99.5471L84.1635 99.4861L84.2245 100.585L85.3844 100.829L85.3233 100.89Z" fill="#84BD00" stroke="#84BD00" stroke-width="0.25" stroke-miterlimit="10"/>
<path d="M84.2244 98.7536C84.1634 98.7536 84.1634 98.7536 84.1634 98.6925C84.1634 98.6925 84.1023 98.6315 84.1634 98.6315C84.1634 98.5704 84.1634 98.5704 84.2244 98.5704H84.2854C84.3465 98.5704 84.3465 98.5704 84.3465 98.6315V98.6925C84.3465 98.7536 84.3465 98.7536 84.2854 98.7536C84.2854 98.6925 84.2244 98.7536 84.2244 98.7536ZM84.5907 99.1198L84.6517 99.0588L85.8726 100.402L85.8115 100.463L84.5907 99.1198Z" fill="#84BD00" stroke="#84BD00" stroke-width="0.25" stroke-miterlimit="10"/>
<path d="M86.5442 99.6082C86.3611 99.6692 86.239 99.6082 86.0559 99.6082C85.8728 99.5472 85.7507 99.4861 85.6286 99.303C85.5065 99.1809 85.4454 98.9978 85.3844 98.8757C85.3234 98.6925 85.3234 98.5705 85.3844 98.3873C85.4454 98.2652 85.5065 98.0821 85.6286 97.96C85.7507 97.8379 85.8728 97.7769 86.0559 97.7159C86.239 97.6548 86.3611 97.7159 86.5442 97.7159C86.7274 97.7769 86.8494 97.8379 86.9715 98.0211C87.0936 98.1432 87.1547 98.3263 87.2157 98.4484C87.2768 98.6315 87.2768 98.7536 87.2157 98.9367C87.1547 99.0588 87.0936 99.2419 86.9715 99.364C86.8494 99.5472 86.7274 99.6082 86.5442 99.6082ZM87.1547 98.9978C87.2157 98.8757 87.2157 98.7536 87.1547 98.5705C87.0936 98.4484 87.0326 98.3263 86.9715 98.2042C86.8494 98.0821 86.7274 98.0211 86.6053 97.96C86.4832 97.899 86.3611 97.899 86.178 97.96C86.0559 97.96 85.9338 98.0821 85.8117 98.1432C85.6896 98.2652 85.6286 98.3873 85.5675 98.5094C85.5065 98.6315 85.5065 98.7536 85.5675 98.9367C85.6286 99.0588 85.6896 99.1809 85.7507 99.303C85.8728 99.4251 85.9948 99.4861 86.1169 99.5472C86.239 99.6082 86.3611 99.6082 86.5442 99.5472C86.6663 99.5472 86.7884 99.4251 86.9105 99.364C87.0326 99.2419 87.0936 99.1198 87.1547 98.9978Z" fill="#84BD00" stroke="#84BD00" stroke-width="0.25" stroke-miterlimit="10"/>
<path d="M88.9859 95.274C89.169 95.274 89.3521 95.3961 89.5353 95.5793L90.2678 96.3728L90.2067 96.4339L89.4742 95.6403C89.3521 95.4572 89.169 95.3961 89.0469 95.3961C88.8638 95.3961 88.7417 95.4572 88.6196 95.5793C88.4365 95.7014 88.3754 95.8845 88.3754 96.0676C88.3754 96.2507 88.4365 96.4339 88.6196 96.617L89.2911 97.3495L89.23 97.4106L88.4975 96.617C88.3754 96.4339 88.1923 96.3728 88.0702 96.3728C87.8871 96.3728 87.765 96.4339 87.6429 96.556C87.4598 96.678 87.3987 96.8612 87.3987 97.0443C87.3987 97.2274 87.4598 97.4106 87.6429 97.5937L88.3144 98.3262L88.2533 98.3873L87.0325 97.0443L87.0935 96.9833L87.3987 97.2885C87.3377 97.1664 87.3377 96.9833 87.3987 96.8612C87.4598 96.7391 87.5208 96.556 87.6429 96.4339C87.765 96.3118 87.8871 96.2507 88.0702 96.2507C88.1923 96.2507 88.3754 96.2507 88.4975 96.3728C88.4365 96.2507 88.4365 96.0676 88.4365 95.9455C88.4975 95.7624 88.5586 95.6403 88.6806 95.5182C88.6196 95.3351 88.8027 95.274 88.9859 95.274Z" fill="#84BD00" stroke="#84BD00" stroke-width="0.25" stroke-miterlimit="10"/>
<path d="M93.1977 93.5648L91.6106 91.9777L92.16 94.1142L92.099 94.1753L90.0235 93.5648L91.5496 95.152L91.4885 95.213L89.7793 93.4427L89.8403 93.3817L92.0379 93.9921L91.4885 91.7946L91.5496 91.7335L93.2588 93.5038L93.1977 93.5648Z" fill="#84BD00" stroke="#84BD00" stroke-width="0.25" stroke-miterlimit="10"/>
<path d="M93.9305 92.6492C93.7473 92.7103 93.6252 92.7103 93.4421 92.6492C93.259 92.5882 93.1369 92.5272 93.0148 92.4051C92.8927 92.283 92.7706 92.1609 92.7706 91.9778C92.7096 91.7946 92.7096 91.6725 92.7706 91.4894C92.8317 91.3063 92.8927 91.1842 93.0148 91.0621C93.1369 90.94 93.259 90.879 93.4421 90.8179C93.5642 90.7569 93.7473 90.7569 93.9305 90.8179C94.1136 90.879 94.2357 90.94 94.3578 91.0621C94.4799 91.1842 94.6019 91.3063 94.6019 91.4894C94.663 91.6725 94.663 91.7946 94.6019 91.9778C94.5409 92.1609 94.4799 92.283 94.3578 92.4051C94.2357 92.5272 94.1136 92.5882 93.9305 92.6492ZM94.4799 91.9778C94.5409 91.8557 94.4799 91.7336 94.4799 91.5505C94.4188 91.4284 94.3578 91.3063 94.2357 91.1842C94.1136 91.0621 93.9915 91.0011 93.8694 90.94C93.7473 90.879 93.6252 90.879 93.4421 90.94C93.32 91.0011 93.1979 91.0621 93.0759 91.1842C92.9538 91.3063 92.8927 91.4284 92.8927 91.5505C92.8317 91.6725 92.8927 91.7946 92.8927 91.9778C92.9538 92.0999 93.0148 92.2219 93.1369 92.344C93.259 92.4661 93.3811 92.5272 93.5032 92.5882C93.6252 92.6492 93.7473 92.6492 93.9305 92.5882C94.0526 92.5272 94.1746 92.4661 94.2967 92.344C94.3578 92.2219 94.4188 92.0999 94.4799 91.9778Z" fill="#84BD00" stroke="#84BD00" stroke-width="0.25" stroke-miterlimit="10"/>
<path d="M94.2967 89.9022C94.2967 89.7801 94.4188 89.597 94.5408 89.4749L94.6019 89.536C94.4798 89.7191 94.4188 89.8412 94.4188 90.0243C94.4188 90.2074 94.5408 90.3906 94.724 90.5127L95.4565 91.1841L95.3954 91.2452L94.0525 90.0243L94.1135 89.9633L94.4188 90.2685C94.2967 90.1464 94.2967 90.0243 94.2967 89.9022Z" fill="#84BD00" stroke="#84BD00" stroke-width="0.25" stroke-miterlimit="10"/>
<path d="M96.7994 89.536C96.7994 89.5971 96.7994 89.6581 96.7383 89.7191C96.7383 89.7802 96.6773 89.8412 96.6162 89.9023C96.4941 90.0244 96.4331 90.0854 96.311 90.0854C96.1889 90.0854 96.0668 90.0244 95.9448 89.9633L94.9681 89.1087L94.7239 89.3529L94.6628 89.2918L94.907 89.0477L94.6018 88.8035L94.6628 88.7425L94.9681 88.9866L95.3954 88.5593L95.4564 88.6204L95.0291 89.0477L95.9448 89.9023C96.0668 89.9633 96.1279 90.0244 96.25 90.0244C96.311 90.0244 96.4331 89.9633 96.4941 89.9023C96.5552 89.8412 96.6162 89.7192 96.6162 89.5971L96.7994 89.536Z" fill="#84BD00" stroke="#84BD00" stroke-width="0.25" stroke-miterlimit="10"/>
<path d="M96.8604 86.85L98.1424 87.9488C98.3865 88.132 98.5086 88.3151 98.5086 88.5593C98.5086 88.7424 98.4476 88.9866 98.2645 89.1697C98.1424 89.2918 98.0203 89.4139 97.8982 89.4749C97.7761 89.536 97.654 89.597 97.5319 89.597V89.4749C97.654 89.4749 97.7761 89.4139 97.8982 89.3528C98.0203 89.2918 98.1424 89.1697 98.2034 89.1086C98.3865 88.9255 98.4476 88.7424 98.4476 88.5593C98.4476 88.3761 98.3255 88.193 98.1424 88.0709L97.8371 87.8267C97.8982 87.9488 97.9592 88.132 97.8982 88.3151C97.8982 88.4982 97.7761 88.6203 97.654 88.7424C97.5319 88.8645 97.4098 88.9866 97.2878 89.0476C97.1657 89.1086 96.9825 89.1086 96.8604 89.1086C96.6773 89.1086 96.5552 88.9866 96.4331 88.9255C96.3111 88.8034 96.189 88.6813 96.189 88.5593C96.1279 88.4372 96.1279 88.254 96.189 88.1319C96.25 87.9488 96.3111 87.8267 96.4331 87.7046C96.5552 87.5826 96.6773 87.4605 96.8604 87.3994C97.0436 87.3384 97.1657 87.3384 97.3488 87.3994L96.9825 87.0942L96.8604 86.85ZM97.7151 88.254C97.7151 88.132 97.7151 88.0099 97.7151 87.8267C97.654 87.7046 97.593 87.5826 97.4709 87.4605C97.3488 87.3384 97.2267 87.2773 97.1046 87.2773C96.9825 87.2773 96.8604 87.2773 96.6773 87.3384C96.5552 87.3994 96.4331 87.4605 96.3111 87.5826C96.189 87.7046 96.1279 87.8267 96.1279 87.9488C96.1279 88.0709 96.1279 88.193 96.1279 88.3761C96.189 88.4982 96.25 88.6203 96.3721 88.7424C96.4942 88.8645 96.6163 88.9255 96.7384 88.9255C96.8605 88.9255 96.9825 88.9255 97.1657 88.8645C97.2878 88.8034 97.4098 88.7424 97.5319 88.6203C97.593 88.4982 97.654 88.3761 97.7151 88.254Z" fill="#84BD00" stroke="#84BD00" stroke-width="0.25" stroke-miterlimit="10"/>
<path d="M98.1422 85.5071C98.3253 85.5071 98.4474 85.5682 98.6305 85.6903L99.5462 86.4228L99.4852 86.4838L99.1799 86.2397C99.241 86.3617 99.241 86.4838 99.241 86.6059C99.241 86.728 99.1799 86.8501 99.0578 86.9722C98.9358 87.1553 98.8137 87.2164 98.6305 87.2774C98.5085 87.2774 98.3253 87.2774 98.2032 87.1553C98.0811 87.0332 98.0201 86.9722 98.0201 86.7891C98.0201 86.667 98.0812 86.4838 98.2643 86.3007L98.6916 85.8124L98.5695 85.6903C98.4474 85.5682 98.2643 85.5071 98.1422 85.5071C98.0201 85.5071 97.898 85.6292 97.7759 85.7513C97.7149 85.8734 97.6538 85.9344 97.5928 86.0565C97.5318 86.1786 97.5318 86.3007 97.5318 86.4228H97.4097C97.4097 86.3007 97.4097 86.1786 97.4707 86.0565C97.5318 85.9344 97.5928 85.8124 97.6538 85.6903C97.837 85.6292 97.9591 85.5682 98.1422 85.5071ZM99.0578 86.2397L98.7526 85.9955L98.3253 86.4838C98.2032 86.6059 98.1422 86.7891 98.1422 86.8501C98.1422 86.9722 98.2032 87.0332 98.2643 87.1553C98.3864 87.2164 98.4474 87.2774 98.5695 87.2164C98.6916 87.2164 98.8137 87.0943 98.9358 86.9722C99.1799 86.7891 99.241 86.4838 99.0578 86.2397Z" fill="#84BD00" stroke="#84BD00" stroke-width="0.25" stroke-miterlimit="10"/>
<path d="M99.6073 83.4927L100.889 84.5304C101.133 84.7135 101.255 84.8967 101.255 85.1408C101.255 85.324 101.194 85.5682 101.011 85.8123C100.889 85.9344 100.767 86.0565 100.645 86.1175C100.523 86.1786 100.401 86.2396 100.279 86.2396V86.1175C100.401 86.1175 100.523 86.0565 100.645 85.9955C100.767 85.9344 100.889 85.8123 100.95 85.6902C101.133 85.5071 101.194 85.324 101.133 85.1408C101.133 84.9577 101.011 84.7746 100.828 84.6525L100.523 84.4083C100.584 84.5304 100.645 84.7135 100.584 84.8967C100.584 85.0798 100.523 85.2019 100.401 85.385C100.279 85.5071 100.157 85.6292 100.035 85.6902C99.9125 85.7513 99.7294 85.7513 99.6073 85.7513C99.4242 85.7513 99.3021 85.6902 99.18 85.5682C99.0579 85.4461 98.9358 85.324 98.8748 85.2019C98.8137 85.0798 98.8137 84.8967 98.8137 84.7746C98.8137 84.5915 98.9358 84.4694 98.9969 84.3473C99.1189 84.2252 99.241 84.1031 99.4242 84.0421C99.6073 83.981 99.7294 83.981 99.9125 84.0421L99.5462 83.7369L99.6073 83.4927ZM100.523 84.8356C100.523 84.7135 100.523 84.5915 100.462 84.4083C100.401 84.2862 100.34 84.1642 100.218 84.1031C100.096 83.981 99.9735 83.981 99.8515 83.92C99.7294 83.92 99.6073 83.92 99.4852 83.981C99.3631 84.0421 99.241 84.1031 99.18 84.2252C99.0579 84.3473 98.9969 84.4694 98.9969 84.5915C98.9969 84.7135 98.9968 84.8356 99.0579 84.9577C99.1189 85.0798 99.18 85.2019 99.3021 85.2629C99.4242 85.385 99.5462 85.4461 99.6683 85.4461C99.7904 85.4461 99.9125 85.4461 100.035 85.385C100.157 85.324 100.279 85.2629 100.34 85.1408C100.401 85.1408 100.462 84.9577 100.523 84.8356Z" fill="#84BD00" stroke="#84BD00" stroke-width="0.25" stroke-miterlimit="10"/>
<path d="M101.683 82.2718L100.706 83.5537C100.828 83.6758 100.95 83.6758 101.133 83.7369C101.255 83.7369 101.439 83.7369 101.561 83.6758C101.683 83.6148 101.805 83.5537 101.866 83.4317C101.927 83.3096 101.988 83.2485 102.049 83.1264C102.049 83.0043 102.049 82.8823 102.049 82.8212H102.171C102.171 82.9433 102.171 83.0654 102.171 83.1875C102.171 83.3096 102.11 83.4317 101.988 83.5537C101.866 83.6758 101.744 83.7979 101.622 83.859C101.5 83.92 101.316 83.92 101.133 83.92C100.95 83.92 100.828 83.859 100.706 83.7369C100.584 83.6148 100.462 83.4927 100.401 83.3706C100.34 83.2485 100.279 83.0654 100.34 82.9433C100.34 82.7602 100.401 82.6381 100.523 82.516C100.645 82.3939 100.767 82.2718 100.889 82.2108C101.011 82.1497 101.194 82.1497 101.316 82.1497C101.377 82.0887 101.561 82.1497 101.683 82.2718ZM100.34 82.8212C100.34 82.9433 100.34 83.0654 100.401 83.1875C100.462 83.3096 100.523 83.4317 100.645 83.4927L101.561 82.3329C101.439 82.2718 101.316 82.2108 101.194 82.2108C101.072 82.2108 100.95 82.2108 100.828 82.2718C100.706 82.3329 100.584 82.3939 100.523 82.516C100.401 82.577 100.401 82.6991 100.34 82.8212Z" fill="#84BD00" stroke="#84BD00" stroke-width="0.25" stroke-miterlimit="10"/>
<path d="M103.331 81.4782C103.209 81.6003 103.026 81.6003 102.904 81.6613L102.843 81.5393C102.965 81.5393 103.087 81.4782 103.209 81.4172C103.331 81.3561 103.453 81.234 103.575 81.1119C103.697 80.9288 103.758 80.7457 103.758 80.5626C103.758 80.3794 103.697 80.2573 103.575 80.1963C103.453 80.1352 103.392 80.0742 103.27 80.1352C103.148 80.1352 103.087 80.1963 103.026 80.2573C102.965 80.3184 102.843 80.3794 102.721 80.5015C102.598 80.6236 102.476 80.6846 102.354 80.8067C102.232 80.8678 102.171 80.9288 102.049 80.9288C101.927 80.9288 101.805 80.9288 101.683 80.8067C101.561 80.7457 101.5 80.6236 101.5 80.5626C101.439 80.4405 101.439 80.3184 101.5 80.1963C101.5 80.0742 101.622 79.8911 101.683 79.769C101.744 79.6469 101.866 79.5859 101.988 79.4638C102.11 79.4027 102.232 79.3417 102.293 79.2806L102.354 79.4027C102.232 79.4638 102.11 79.5248 102.049 79.5859C101.927 79.6469 101.866 79.769 101.805 79.83C101.683 80.0132 101.622 80.1963 101.622 80.3794C101.622 80.5626 101.683 80.6846 101.805 80.7457C101.927 80.8067 101.988 80.8678 102.11 80.8067C102.232 80.8067 102.293 80.7457 102.415 80.6846C102.476 80.6236 102.598 80.5626 102.721 80.4405C102.843 80.3184 102.965 80.2573 103.087 80.1352C103.209 80.0742 103.27 80.0132 103.392 80.0132C103.514 80.0132 103.636 80.0132 103.758 80.1352C103.88 80.1963 103.941 80.3184 103.941 80.3794C104.002 80.5015 104.002 80.6236 103.941 80.7457C103.941 80.8678 103.819 81.0509 103.758 81.173C103.575 81.234 103.453 81.3561 103.331 81.4782Z" fill="#84BD00" stroke="#84BD00" stroke-width="0.25" stroke-miterlimit="10"/>
<path d="M104.552 79.6469C104.43 79.708 104.247 79.769 104.125 79.708C103.942 79.708 103.819 79.6469 103.636 79.5248C103.514 79.4027 103.392 79.2807 103.27 79.1586C103.209 79.0365 103.148 78.8533 103.148 78.7313C103.148 78.5481 103.209 78.426 103.331 78.304C103.453 78.1819 103.514 78.0598 103.697 77.9987C103.819 77.9377 104.003 77.8767 104.125 77.9377C104.308 77.9377 104.43 77.9987 104.613 78.1208C104.735 78.2429 104.857 78.365 104.979 78.4871C105.04 78.6092 105.101 78.7923 105.101 78.9144C105.101 79.0975 105.04 79.2196 104.918 79.3417C104.796 79.4638 104.674 79.5859 104.552 79.6469ZM104.918 78.9144C104.918 78.7923 104.918 78.6702 104.857 78.5481C104.796 78.426 104.674 78.304 104.552 78.2429C104.43 78.1819 104.308 78.1208 104.125 78.1208C104.003 78.1208 103.88 78.1208 103.697 78.1819C103.575 78.2429 103.453 78.365 103.392 78.4871C103.331 78.6092 103.27 78.7313 103.27 78.8534C103.27 78.9754 103.27 79.0975 103.331 79.2196C103.392 79.3417 103.514 79.4638 103.636 79.5248C103.758 79.5859 103.88 79.6469 104.064 79.6469C104.186 79.6469 104.369 79.6469 104.491 79.5859C104.613 79.5248 104.735 79.4027 104.796 79.2807C104.857 79.1586 104.918 79.0365 104.918 78.9144Z" fill="#84BD00" stroke="#84BD00" stroke-width="0.25" stroke-miterlimit="10"/>
<path d="M103.453 76.7168L103.514 76.5947L105.712 77.9987L105.651 78.1208L103.453 76.7168Z" fill="#84BD00" stroke="#84BD00" stroke-width="0.25" stroke-miterlimit="10"/>
<path d="M105.346 75.0687L106.933 75.9844L106.872 76.1065L106.505 75.8623C106.627 75.9844 106.627 76.1065 106.627 76.2896C106.627 76.4727 106.566 76.5948 106.505 76.7169C106.383 76.9 106.261 77.0221 106.078 77.0832C105.895 77.1442 105.712 77.0832 105.468 76.9611L104.552 76.4117L104.613 76.2896L105.529 76.839C105.712 76.9611 105.895 76.9611 106.017 76.9611C106.2 76.9 106.322 76.839 106.383 76.6559C106.505 76.4727 106.505 76.2896 106.444 76.1065C106.383 75.9233 106.261 75.8012 106.078 75.6792L105.223 75.1908L105.346 75.0687Z" fill="#84BD00" stroke="#84BD00" stroke-width="0.25" stroke-miterlimit="10"/>
<path d="M107.665 74.5193C107.665 74.5803 107.665 74.6414 107.665 74.7024C107.665 74.7634 107.604 74.8245 107.604 74.8855C107.543 75.0076 107.421 75.0687 107.299 75.1297C107.177 75.1908 107.055 75.1297 106.933 75.0687L105.834 74.4582L105.651 74.7634L105.59 74.7024L105.773 74.3972L105.406 74.2141L105.468 74.092L105.834 74.2751L106.139 73.7257L106.2 73.7868L105.895 74.3361L106.994 74.9466C107.116 75.0076 107.177 75.0076 107.299 75.0076C107.36 75.0076 107.482 74.9466 107.543 74.8245C107.604 74.7024 107.604 74.6414 107.604 74.5193H107.665Z" fill="#84BD00" stroke="#84BD00" stroke-width="0.25" stroke-miterlimit="10"/>
<path d="M105.895 72.9932C105.834 72.9932 105.834 72.9932 105.834 72.9932L105.773 72.9321V72.8711L105.834 72.8101C105.895 72.8101 105.895 72.8101 105.895 72.8101L105.956 72.8711C105.956 72.9321 105.956 72.9321 105.956 72.9321C105.956 72.9932 105.956 72.9932 105.895 72.9932ZM106.383 73.2374L106.444 73.1153L108.092 73.9699L108.031 74.092L106.383 73.2374Z" fill="#84BD00" stroke="#84BD00" stroke-width="0.25" stroke-miterlimit="10"/>
<path d="M108.459 72.9932C108.337 73.0542 108.153 73.1152 108.031 73.1152C107.848 73.1152 107.726 73.1152 107.543 72.9932C107.36 72.9321 107.238 72.81 107.177 72.6879C107.055 72.5659 107.055 72.3827 106.994 72.2606C106.994 72.0775 106.994 71.9554 107.116 71.7723C107.177 71.5892 107.299 71.4671 107.421 71.406C107.543 71.345 107.726 71.2839 107.848 71.2839C108.031 71.2839 108.153 71.2839 108.337 71.406C108.52 71.4671 108.642 71.5892 108.703 71.7112C108.825 71.8333 108.825 72.0165 108.886 72.1385C108.886 72.3217 108.886 72.4438 108.764 72.6269C108.703 72.81 108.581 72.9321 108.459 72.9932ZM108.764 72.1996C108.764 72.0775 108.703 71.9554 108.642 71.8333C108.581 71.7112 108.459 71.6502 108.276 71.5281C108.153 71.4671 107.97 71.406 107.848 71.406C107.726 71.406 107.604 71.4671 107.482 71.5281C107.36 71.5892 107.299 71.7112 107.238 71.8333C107.177 71.9554 107.116 72.0775 107.177 72.2606C107.177 72.3827 107.238 72.5048 107.299 72.6269C107.36 72.749 107.482 72.81 107.665 72.9321C107.787 72.9932 107.97 73.0542 108.092 73.0542C108.215 73.0542 108.337 72.9932 108.459 72.9321C108.581 72.8711 108.642 72.749 108.703 72.6269C108.703 72.4438 108.764 72.3217 108.764 72.1996Z" fill="#84BD00" stroke="#84BD00" stroke-width="0.25" stroke-miterlimit="10"/>
<path d="M108.459 69.2696C108.642 69.2085 108.825 69.2085 109.069 69.3306L110.046 69.7579L109.985 69.88L109.008 69.4527C108.825 69.3917 108.642 69.3306 108.459 69.3917C108.337 69.4527 108.214 69.5748 108.092 69.7579C108.031 69.9411 107.97 70.1852 108.092 70.3073C108.153 70.4905 108.275 70.6125 108.52 70.7346L109.435 71.1009L109.374 71.223L107.665 70.4905L107.726 70.3684L108.153 70.5515C108.031 70.4294 107.97 70.3073 107.97 70.1242C107.97 69.9411 107.97 69.819 108.031 69.6359C108.153 69.5138 108.275 69.3306 108.459 69.2696Z" fill="#84BD00" stroke="#84BD00" stroke-width="0.25" stroke-miterlimit="10"/>
<path d="M110.29 68.9644C110.229 69.0864 110.107 69.1475 109.985 69.2085L109.924 69.1475C109.985 69.0865 110.107 69.0254 110.168 68.9644C110.229 68.8423 110.29 68.7812 110.351 68.6591C110.412 68.476 110.473 68.3539 110.412 68.2318C110.412 68.1098 110.29 68.0487 110.229 67.9877C110.168 67.9877 110.107 67.9266 109.985 67.9877C109.924 67.9877 109.863 68.0487 109.802 68.1098C109.741 68.1708 109.679 68.2318 109.618 68.3539C109.557 68.476 109.496 68.5981 109.435 68.6591C109.374 68.7202 109.313 68.7812 109.191 68.8423C109.13 68.9033 109.008 68.8423 108.886 68.8423C108.764 68.7812 108.642 68.7202 108.642 68.5371C108.581 68.415 108.642 68.2318 108.703 68.0487C108.764 67.9266 108.825 67.8656 108.886 67.7435C108.947 67.6214 109.008 67.5604 109.13 67.5604L109.191 67.6214C109.13 67.6824 109.069 67.7435 109.008 67.8045C108.947 67.8656 108.886 67.9877 108.886 68.0487C108.825 68.2318 108.825 68.3539 108.825 68.476C108.886 68.5981 108.947 68.6591 109.008 68.7202C109.069 68.7812 109.191 68.7812 109.252 68.7202C109.313 68.7202 109.374 68.6591 109.435 68.5981C109.496 68.5371 109.557 68.476 109.618 68.3539C109.679 68.2318 109.741 68.1098 109.802 68.0487C109.863 67.9877 109.924 67.9266 109.985 67.8656C110.046 67.8045 110.168 67.8656 110.29 67.8656C110.412 67.9266 110.534 67.9877 110.534 68.1708C110.595 68.2929 110.534 68.476 110.473 68.7202C110.473 68.7202 110.412 68.8423 110.29 68.9644Z" fill="#84BD00" stroke="#84BD00" stroke-width="0.25" stroke-miterlimit="10"/>
<path d="M108.947 65.729L109.008 65.6069L111.328 66.4005L111.267 66.5226L108.947 65.729Z" fill="#84BD00" stroke="#84BD00" stroke-width="0.25" stroke-miterlimit="10"/>
<path d="M110.412 63.7146C110.595 63.6535 110.778 63.5925 111.022 63.7146L112.06 64.0198L111.999 64.1419L110.961 63.8367C110.778 63.7756 110.595 63.7756 110.412 63.8367C110.29 63.8977 110.168 64.0198 110.107 64.264C110.046 64.5082 110.046 64.6913 110.168 64.8134C110.29 64.9965 110.412 65.1186 110.656 65.1796L111.633 65.4849L111.572 65.6069L109.802 65.0576L109.863 64.9355L110.29 65.0576C110.168 64.9355 110.107 64.8134 110.046 64.6913C109.985 64.5692 109.985 64.3861 110.046 64.2029C110.107 63.9588 110.229 63.7756 110.412 63.7146Z" fill="#84BD00" stroke="#84BD00" stroke-width="0.25" stroke-miterlimit="10"/>
<path d="M109.985 62.6158H109.924C109.863 62.6158 109.863 62.6158 109.863 62.5548V62.4937C109.863 62.4937 109.863 62.4327 109.924 62.4327H109.985C109.985 62.4327 110.046 62.4327 110.046 62.4937V62.5548C110.046 62.6158 109.985 62.6158 109.985 62.6158ZM110.473 62.7379V62.6158L112.243 63.1042V63.2262L110.473 62.7379Z" fill="#84BD00" stroke="#84BD00" stroke-width="0.25" stroke-miterlimit="10"/>
<path d="M112.549 61.456C112.549 61.5171 112.61 61.5781 112.61 61.6392C112.61 61.7002 112.61 61.7613 112.61 61.8223C112.549 61.9444 112.488 62.0665 112.427 62.1275C112.304 62.1886 112.182 62.1886 112.06 62.1886L110.839 61.8833L110.778 62.2496H110.656L110.717 61.8833L110.351 61.7613V61.6392L110.717 61.7613L110.839 61.1508H110.962L110.839 61.7613L112.06 62.0665C112.182 62.0665 112.304 62.0665 112.366 62.0665C112.427 62.0054 112.488 61.9444 112.549 61.8223C112.549 61.7002 112.549 61.5781 112.488 61.5171L112.549 61.456Z" fill="#84BD00" stroke="#84BD00" stroke-width="0.25" stroke-miterlimit="10"/>
<path d="M110.473 60.4793H110.412C110.351 60.4793 110.351 60.4793 110.351 60.4182V60.3572C110.351 60.3572 110.351 60.2961 110.412 60.2961H110.473C110.473 60.2961 110.534 60.2961 110.534 60.3572V60.4182C110.534 60.4182 110.534 60.4182 110.473 60.4793ZM111.023 60.5403V60.4182L112.793 60.7845V60.9066L111.023 60.5403Z" fill="#84BD00" stroke="#84BD00" stroke-width="0.25" stroke-miterlimit="10"/>
<path d="M111.511 58.5869C111.633 58.4648 111.816 58.4648 111.999 58.5259L113.159 58.77V58.8921L112.793 58.8311C112.915 58.8921 112.976 59.0142 113.037 59.1363C113.098 59.2584 113.098 59.3805 113.037 59.5636C112.976 59.7467 112.915 59.9299 112.793 59.9909C112.671 60.113 112.549 60.113 112.365 60.113C112.243 60.113 112.121 59.9909 112.06 59.8688C111.999 59.7467 111.999 59.5636 111.999 59.3194L112.121 58.648L111.938 58.5869C111.755 58.5259 111.633 58.5869 111.511 58.648C111.389 58.709 111.328 58.8311 111.267 59.0142C111.267 59.1363 111.267 59.2584 111.267 59.3805C111.267 59.5026 111.328 59.6247 111.389 59.6857L111.267 59.7467C111.206 59.6247 111.145 59.5026 111.145 59.3805C111.145 59.2584 111.145 59.1363 111.145 58.9532C111.328 58.8921 111.389 58.709 111.511 58.5869ZM112.671 58.77L112.304 58.709L112.182 59.3805C112.121 59.5636 112.182 59.6857 112.182 59.8078C112.243 59.9299 112.304 59.9909 112.426 59.9909C112.549 59.9909 112.671 59.9909 112.732 59.9299C112.854 59.8688 112.915 59.7467 112.915 59.5636C113.037 59.1974 112.976 58.9532 112.671 58.77Z" fill="#84BD00" stroke="#84BD00" stroke-width="0.25" stroke-miterlimit="10"/>
<path d="M113.342 57.0609C113.403 57.1219 113.403 57.183 113.403 57.244C113.403 57.3051 113.403 57.3661 113.403 57.4271C113.403 57.5492 113.342 57.6713 113.22 57.7324C113.098 57.7934 112.976 57.7934 112.854 57.7934L111.572 57.6103L111.511 57.9765H111.389L111.45 57.6103L111.022 57.5492V57.4271L111.45 57.4882L111.572 56.8777H111.694L111.572 57.4882L112.793 57.6713C112.915 57.6713 113.037 57.6713 113.098 57.6103C113.159 57.5492 113.22 57.4882 113.22 57.3661C113.22 57.244 113.22 57.1219 113.159 57.0609H113.342Z" fill="#84BD00" stroke="#84BD00" stroke-width="0.25" stroke-miterlimit="10"/>
<path d="M111.206 56.3283H111.145C111.084 56.3283 111.084 56.3283 111.084 56.2672V56.2062C111.084 56.1451 111.084 56.1451 111.145 56.1451H111.206C111.206 56.1451 111.267 56.1451 111.267 56.2062V56.2672C111.267 56.2672 111.267 56.2672 111.206 56.3283ZM111.755 56.3283V56.2062L113.587 56.4504V56.5724L111.755 56.3283Z" fill="#84BD00" stroke="#84BD00" stroke-width="0.25" stroke-miterlimit="10"/>
<path d="M111.999 54.0697L113.709 55.1074V55.2295L111.816 55.84V55.7179L113.586 55.1685L111.999 54.1918V54.0697Z" fill="#84BD00" stroke="#84BD00" stroke-width="0.25" stroke-miterlimit="10"/>
<path d="M113.098 52.3605L112.976 53.9476C113.159 53.9476 113.281 53.9476 113.403 53.8866C113.525 53.8255 113.647 53.7645 113.708 53.6424C113.769 53.5203 113.83 53.3982 113.83 53.2151C113.83 53.093 113.83 52.9709 113.769 52.8488C113.708 52.7267 113.647 52.6657 113.586 52.5436L113.647 52.4826C113.708 52.5436 113.83 52.6657 113.83 52.7878C113.83 52.9099 113.892 53.032 113.892 53.154C113.892 53.3372 113.83 53.4593 113.708 53.6424C113.647 53.7645 113.525 53.8866 113.342 53.9476C113.22 54.0086 113.037 54.0697 112.854 54.0086C112.671 54.0086 112.549 53.9476 112.365 53.8866C112.243 53.8255 112.121 53.7034 112.06 53.5813C111.999 53.4593 111.938 53.2761 111.999 53.154C111.999 52.9709 112.06 52.8488 112.121 52.7267C112.182 52.6046 112.304 52.4826 112.488 52.4215C112.732 52.4215 112.854 52.3605 113.098 52.3605ZM112.243 53.5203C112.304 53.6424 112.365 53.7034 112.488 53.8255C112.61 53.8866 112.732 53.9476 112.854 53.9476L112.976 52.4826C112.854 52.4826 112.732 52.4826 112.61 52.5436C112.488 52.6046 112.365 52.6657 112.304 52.7878C112.243 52.9099 112.182 53.032 112.182 53.154C112.182 53.3372 112.182 53.4593 112.243 53.5203Z" fill="#84BD00" stroke="#84BD00" stroke-width="0.25" stroke-miterlimit="10"/>
</g>
<defs>
<filter id="filter0_d_1_1741" x="7.45874" y="12.0191" width="130.558" height="123.981" filterUnits="userSpaceOnUse" color-interpolation-filters="sRGB">
<feFlood flood-opacity="0" result="BackgroundImageFix"/>
<feColorMatrix in="SourceAlpha" type="matrix" values="0 0 0 0 0 0 0 0 0 0 0 0 0 0 0 0 0 0 127 0" result="hardAlpha"/>
<feOffset dx="8" dy="8"/>
<feGaussianBlur stdDeviation="8"/>
<feComposite in2="hardAlpha" operator="out"/>
<feColorMatrix type="matrix" values="0 0 0 0 0 0 0 0 0 0 0 0 0 0 0 0 0 0 0.35 0"/>
<feBlend mode="normal" in2="BackgroundImageFix" result="effect1_dropShadow_1_1741"/>
<feBlend mode="normal" in="SourceGraphic" in2="effect1_dropShadow_1_1741" result="shape"/>
</filter>
</defs>
</svg>
