<svg width="130" height="130" viewBox="0 0 130 130" fill="none" xmlns="http://www.w3.org/2000/svg">
<g filter="url(#filter0_d_835:1102)">
<path d="M94.1145 101.928H32.8129C28.4437 101.928 24.8689 98.3785 24.8689 94.0403V33.2399C24.8689 28.9017 28.4437 25.3522 32.8129 25.3522H94.1145C98.4837 25.3522 102.059 28.9017 102.059 33.2399V94.1061C102.059 98.3785 98.4837 101.928 94.1145 101.928Z" fill="url(#paint0_linear_835:1102)" stroke="url(#paint1_linear_835:1102)" stroke-width="0.5" stroke-miterlimit="10"/>
<path d="M94.1146 98.6415H32.8131C28.4438 98.6415 24.869 95.092 24.869 90.7538V29.8876C24.869 25.5494 28.4438 22 32.8131 22H94.1146C98.4838 22 102.059 25.5494 102.059 29.8876V90.7538C102.059 95.092 98.4838 98.6415 94.1146 98.6415Z" fill="url(#paint2_linear_835:1102)" stroke="url(#paint3_linear_835:1102)" stroke-width="0.5" stroke-miterlimit="10"/>
<path d="M31 28H33.9867V30.9867H31V28Z" fill="black"/>
<path d="M33.9866 28H37.1866V30.9867H33.9866V28Z" fill="black"/>
<path d="M37.1866 28H40.1733V30.9867H37.1866V28Z" fill="black"/>
<path d="M40.1733 28H43.16V30.9867H40.1733V28Z" fill="black"/>
<path d="M43.16 28H46.1467V30.9867H43.16V28Z" fill="black"/>
<path d="M46.1466 28H49.3466V30.9867H46.1466V28Z" fill="black"/>
<path d="M49.3467 28H52.3333V30.9867H49.3467V28Z" fill="black"/>
<path d="M52.3334 28H55.32V30.9867H52.3334V28Z" fill="white"/>
<path d="M55.3199 28H58.5199V30.9867H55.3199V28Z" fill="white"/>
<path d="M58.52 28H61.5067V30.9867H58.52V28Z" fill="white"/>
<path d="M61.5066 28H64.4933V30.9867H61.5066V28Z" fill="black"/>
<path d="M64.4934 28H67.4801V30.9867H64.4934V28Z" fill="white"/>
<path d="M67.48 28H70.68V30.9867H67.48V28Z" fill="black"/>
<path d="M70.6801 28H73.6667V30.9867H70.6801V28Z" fill="white"/>
<path d="M73.6666 28H76.6533V30.9867H73.6666V28Z" fill="black"/>
<path d="M76.6533 28H79.8533V30.9867H76.6533V28Z" fill="black"/>
<path d="M79.8534 28H82.8401V30.9867H79.8534V28Z" fill="black"/>
<path d="M82.84 28H85.8266V30.9867H82.84V28Z" fill="black"/>
<path d="M85.8267 28H88.8133V30.9867H85.8267V28Z" fill="black"/>
<path d="M88.8134 28H92.0134V30.9867H88.8134V28Z" fill="black"/>
<path d="M92.0134 28H95.0001V30.9867H92.0134V28Z" fill="black"/>
<path d="M31 30.9867H33.9867V34.1867H31V30.9867Z" fill="black"/>
<path d="M33.9866 30.9867H37.1866V34.1867H33.9866V30.9867Z" fill="white"/>
<path d="M37.1866 30.9867H40.1733V34.1867H37.1866V30.9867Z" fill="white"/>
<path d="M40.1733 30.9867H43.16V34.1867H40.1733V30.9867Z" fill="white"/>
<path d="M43.16 30.9867H46.1467V34.1867H43.16V30.9867Z" fill="white"/>
<path d="M46.1466 30.9867H49.3466V34.1867H46.1466V30.9867Z" fill="white"/>
<path d="M49.3467 30.9867H52.3333V34.1867H49.3467V30.9867Z" fill="black"/>
<path d="M52.3334 30.9867H55.32V34.1867H52.3334V30.9867Z" fill="white"/>
<path d="M55.3199 30.9867H58.5199V34.1867H55.3199V30.9867Z" fill="black"/>
<path d="M58.52 30.9867H61.5067V34.1867H58.52V30.9867Z" fill="black"/>
<path d="M61.5066 30.9867H64.4933V34.1867H61.5066V30.9867Z" fill="black"/>
<path d="M64.4934 30.9867H67.4801V34.1867H64.4934V30.9867Z" fill="white"/>
<path d="M67.48 30.9867H70.68V34.1867H67.48V30.9867Z" fill="black"/>
<path d="M70.6801 30.9867H73.6667V34.1867H70.6801V30.9867Z" fill="white"/>
<path d="M73.6666 30.9867H76.6533V34.1867H73.6666V30.9867Z" fill="black"/>
<path d="M76.6533 30.9867H79.8533V34.1867H76.6533V30.9867Z" fill="white"/>
<path d="M79.8534 30.9867H82.8401V34.1867H79.8534V30.9867Z" fill="white"/>
<path d="M82.84 30.9867H85.8266V34.1867H82.84V30.9867Z" fill="white"/>
<path d="M85.8267 30.9867H88.8133V34.1867H85.8267V30.9867Z" fill="white"/>
<path d="M88.8134 30.9867H92.0134V34.1867H88.8134V30.9867Z" fill="white"/>
<path d="M92.0134 30.9867H95.0001V34.1867H92.0134V30.9867Z" fill="black"/>
<path d="M31 34.1866H33.9867V37.1733H31V34.1866Z" fill="black"/>
<path d="M33.9866 34.1866H37.1866V37.1733H33.9866V34.1866Z" fill="white"/>
<path d="M37.1866 34.1866H40.1733V37.1733H37.1866V34.1866Z" fill="black"/>
<path d="M40.1733 34.1866H43.16V37.1733H40.1733V34.1866Z" fill="black"/>
<path d="M43.16 34.1866H46.1467V37.1733H43.16V34.1866Z" fill="black"/>
<path d="M46.1466 34.1866H49.3466V37.1733H46.1466V34.1866Z" fill="white"/>
<path d="M49.3467 34.1866H52.3333V37.1733H49.3467V34.1866Z" fill="black"/>
<path d="M52.3334 34.1866H55.32V37.1733H52.3334V34.1866Z" fill="white"/>
<path d="M55.3199 34.1866H58.5199V37.1733H55.3199V34.1866Z" fill="white"/>
<path d="M58.52 34.1866H61.5067V37.1733H58.52V34.1866Z" fill="white"/>
<path d="M61.5066 34.1866H64.4933V37.1733H61.5066V34.1866Z" fill="black"/>
<path d="M64.4934 34.1866H67.4801V37.1733H64.4934V34.1866Z" fill="black"/>
<path d="M67.48 34.1866H70.68V37.1733H67.48V34.1866Z" fill="black"/>
<path d="M70.6801 34.1866H73.6667V37.1733H70.6801V34.1866Z" fill="white"/>
<path d="M73.6666 34.1866H76.6533V37.1733H73.6666V34.1866Z" fill="black"/>
<path d="M76.6533 34.1866H79.8533V37.1733H76.6533V34.1866Z" fill="white"/>
<path d="M79.8534 34.1866H82.8401V37.1733H79.8534V34.1866Z" fill="black"/>
<path d="M82.84 34.1866H85.8266V37.1733H82.84V34.1866Z" fill="black"/>
<path d="M85.8267 34.1866H88.8133V37.1733H85.8267V34.1866Z" fill="black"/>
<path d="M88.8134 34.1866H92.0134V37.1733H88.8134V34.1866Z" fill="white"/>
<path d="M92.0134 34.1866H95.0001V37.1733H92.0134V34.1866Z" fill="black"/>
<path d="M31 37.1733H33.9867V40.16H31V37.1733Z" fill="black"/>
<path d="M33.9866 37.1733H37.1866V40.16H33.9866V37.1733Z" fill="white"/>
<path d="M37.1866 37.1733H40.1733V40.16H37.1866V37.1733Z" fill="black"/>
<path d="M40.1733 37.1733H43.16V40.16H40.1733V37.1733Z" fill="black"/>
<path d="M43.16 37.1733H46.1467V40.16H43.16V37.1733Z" fill="black"/>
<path d="M46.1466 37.1733H49.3466V40.16H46.1466V37.1733Z" fill="white"/>
<path d="M49.3467 37.1733H52.3333V40.16H49.3467V37.1733Z" fill="black"/>
<path d="M52.3334 37.1733H55.32V40.16H52.3334V37.1733Z" fill="white"/>
<path d="M55.3199 37.1733H58.5199V40.16H55.3199V37.1733Z" fill="black"/>
<path d="M58.52 37.1733H61.5067V40.16H58.52V37.1733Z" fill="black"/>
<path d="M61.5066 37.1733H64.4933V40.16H61.5066V37.1733Z" fill="white"/>
<path d="M64.4934 37.1733H67.4801V40.16H64.4934V37.1733Z" fill="white"/>
<path d="M67.48 37.1733H70.68V40.16H67.48V37.1733Z" fill="black"/>
<path d="M70.6801 37.1733H73.6667V40.16H70.6801V37.1733Z" fill="white"/>
<path d="M73.6666 37.1733H76.6533V40.16H73.6666V37.1733Z" fill="black"/>
<path d="M76.6533 37.1733H79.8533V40.16H76.6533V37.1733Z" fill="white"/>
<path d="M79.8534 37.1733H82.8401V40.16H79.8534V37.1733Z" fill="black"/>
<path d="M82.84 37.1733H85.8266V40.16H82.84V37.1733Z" fill="black"/>
<path d="M85.8267 37.1733H88.8133V40.16H85.8267V37.1733Z" fill="black"/>
<path d="M88.8134 37.1733H92.0134V40.16H88.8134V37.1733Z" fill="white"/>
<path d="M92.0134 37.1733H95.0001V40.16H92.0134V37.1733Z" fill="black"/>
<path d="M31 40.16H33.9867V43.1466H31V40.16Z" fill="black"/>
<path d="M33.9866 40.16H37.1866V43.1466H33.9866V40.16Z" fill="white"/>
<path d="M37.1866 40.16H40.1733V43.1466H37.1866V40.16Z" fill="black"/>
<path d="M40.1733 40.16H43.16V43.1466H40.1733V40.16Z" fill="black"/>
<path d="M43.16 40.16H46.1467V43.1466H43.16V40.16Z" fill="black"/>
<path d="M46.1466 40.16H49.3466V43.1466H46.1466V40.16Z" fill="white"/>
<path d="M49.3467 40.16H52.3333V43.1466H49.3467V40.16Z" fill="black"/>
<path d="M52.3334 40.16H55.32V43.1466H52.3334V40.16Z" fill="white"/>
<path d="M55.3199 40.16H58.5199V43.1466H55.3199V40.16Z" fill="white"/>
<path d="M58.52 40.16H61.5067V43.1466H58.52V40.16Z" fill="black"/>
<path d="M61.5066 40.16H64.4933V43.1466H61.5066V40.16Z" fill="white"/>
<path d="M64.4934 40.16H67.4801V43.1466H64.4934V40.16Z" fill="white"/>
<path d="M67.48 40.16H70.68V43.1466H67.48V40.16Z" fill="white"/>
<path d="M70.6801 40.16H73.6667V43.1466H70.6801V40.16Z" fill="white"/>
<path d="M73.6666 40.16H76.6533V43.1466H73.6666V40.16Z" fill="black"/>
<path d="M76.6533 40.16H79.8533V43.1466H76.6533V40.16Z" fill="white"/>
<path d="M79.8534 40.16H82.8401V43.1466H79.8534V40.16Z" fill="black"/>
<path d="M82.84 40.16H85.8266V43.1466H82.84V40.16Z" fill="black"/>
<path d="M85.8267 40.16H88.8133V43.1466H85.8267V40.16Z" fill="black"/>
<path d="M88.8134 40.16H92.0134V43.1466H88.8134V40.16Z" fill="white"/>
<path d="M92.0134 40.16H95.0001V43.1466H92.0134V40.16Z" fill="black"/>
<path d="M31 43.1467H33.9867V46.3467H31V43.1467Z" fill="black"/>
<path d="M33.9866 43.1467H37.1866V46.3467H33.9866V43.1467Z" fill="white"/>
<path d="M37.1866 43.1467H40.1733V46.3467H37.1866V43.1467Z" fill="white"/>
<path d="M40.1733 43.1467H43.16V46.3467H40.1733V43.1467Z" fill="white"/>
<path d="M43.16 43.1467H46.1467V46.3467H43.16V43.1467Z" fill="white"/>
<path d="M46.1466 43.1467H49.3466V46.3467H46.1466V43.1467Z" fill="white"/>
<path d="M49.3467 43.1467H52.3333V46.3467H49.3467V43.1467Z" fill="black"/>
<path d="M52.3334 43.1467H55.32V46.3467H52.3334V43.1467Z" fill="white"/>
<path d="M55.3199 43.1467H58.5199V46.3467H55.3199V43.1467Z" fill="black"/>
<path d="M58.52 43.1467H61.5067V46.3467H58.52V43.1467Z" fill="white"/>
<path d="M61.5066 43.1467H64.4933V46.3467H61.5066V43.1467Z" fill="white"/>
<path d="M64.4934 43.1467H67.4801V46.3467H64.4934V43.1467Z" fill="black"/>
<path d="M67.48 43.1467H70.68V46.3467H67.48V43.1467Z" fill="black"/>
<path d="M70.6801 43.1467H73.6667V46.3467H70.6801V43.1467Z" fill="white"/>
<path d="M73.6666 43.1467H76.6533V46.3467H73.6666V43.1467Z" fill="black"/>
<path d="M76.6533 43.1467H79.8533V46.3467H76.6533V43.1467Z" fill="white"/>
<path d="M79.8534 43.1467H82.8401V46.3467H79.8534V43.1467Z" fill="white"/>
<path d="M82.84 43.1467H85.8266V46.3467H82.84V43.1467Z" fill="white"/>
<path d="M85.8267 43.1467H88.8133V46.3467H85.8267V43.1467Z" fill="white"/>
<path d="M88.8134 43.1467H92.0134V46.3467H88.8134V43.1467Z" fill="white"/>
<path d="M92.0134 43.1467H95.0001V46.3467H92.0134V43.1467Z" fill="black"/>
<path d="M31 46.3467H33.9867V49.3333H31V46.3467Z" fill="black"/>
<path d="M33.9866 46.3467H37.1866V49.3333H33.9866V46.3467Z" fill="black"/>
<path d="M37.1866 46.3467H40.1733V49.3333H37.1866V46.3467Z" fill="black"/>
<path d="M40.1733 46.3467H43.16V49.3333H40.1733V46.3467Z" fill="black"/>
<path d="M43.16 46.3467H46.1467V49.3333H43.16V46.3467Z" fill="black"/>
<path d="M46.1466 46.3467H49.3466V49.3333H46.1466V46.3467Z" fill="black"/>
<path d="M49.3467 46.3467H52.3333V49.3333H49.3467V46.3467Z" fill="black"/>
<path d="M52.3334 46.3467H55.32V49.3333H52.3334V46.3467Z" fill="white"/>
<path d="M55.3199 46.3467H58.5199V49.3333H55.3199V46.3467Z" fill="black"/>
<path d="M58.52 46.3467H61.5067V49.3333H58.52V46.3467Z" fill="white"/>
<path d="M61.5066 46.3467H64.4933V49.3333H61.5066V46.3467Z" fill="black"/>
<path d="M64.4934 46.3467H67.4801V49.3333H64.4934V46.3467Z" fill="white"/>
<path d="M67.48 46.3467H70.68V49.3333H67.48V46.3467Z" fill="black"/>
<path d="M70.6801 46.3467H73.6667V49.3333H70.6801V46.3467Z" fill="white"/>
<path d="M73.6666 46.3467H76.6533V49.3333H73.6666V46.3467Z" fill="black"/>
<path d="M76.6533 46.3467H79.8533V49.3333H76.6533V46.3467Z" fill="black"/>
<path d="M79.8534 46.3467H82.8401V49.3333H79.8534V46.3467Z" fill="black"/>
<path d="M82.84 46.3467H85.8266V49.3333H82.84V46.3467Z" fill="black"/>
<path d="M85.8267 46.3467H88.8133V49.3333H85.8267V46.3467Z" fill="black"/>
<path d="M88.8134 46.3467H92.0134V49.3333H88.8134V46.3467Z" fill="black"/>
<path d="M92.0134 46.3467H95.0001V49.3333H92.0134V46.3467Z" fill="black"/>
<path d="M31 49.3333H33.9867V52.32H31V49.3333Z" fill="white"/>
<path d="M33.9866 49.3333H37.1866V52.32H33.9866V49.3333Z" fill="white"/>
<path d="M37.1866 49.3333H40.1733V52.32H37.1866V49.3333Z" fill="white"/>
<path d="M40.1733 49.3333H43.16V52.32H40.1733V49.3333Z" fill="white"/>
<path d="M43.16 49.3333H46.1467V52.32H43.16V49.3333Z" fill="white"/>
<path d="M46.1466 49.3333H49.3466V52.32H46.1466V49.3333Z" fill="white"/>
<path d="M49.3467 49.3333H52.3333V52.32H49.3467V49.3333Z" fill="white"/>
<path d="M52.3334 49.3333H55.32V52.32H52.3334V49.3333Z" fill="white"/>
<path d="M55.3199 49.3333H58.5199V52.32H55.3199V49.3333Z" fill="white"/>
<path d="M58.52 49.3333H61.5067V52.32H58.52V49.3333Z" fill="black"/>
<path d="M61.5066 49.3333H64.4933V52.32H61.5066V49.3333Z" fill="white"/>
<path d="M64.4934 49.3333H67.4801V52.32H64.4934V49.3333Z" fill="black"/>
<path d="M67.48 49.3333H70.68V52.32H67.48V49.3333Z" fill="white"/>
<path d="M70.6801 49.3333H73.6667V52.32H70.6801V49.3333Z" fill="white"/>
<path d="M73.6666 49.3333H76.6533V52.32H73.6666V49.3333Z" fill="white"/>
<path d="M76.6533 49.3333H79.8533V52.32H76.6533V49.3333Z" fill="white"/>
<path d="M79.8534 49.3333H82.8401V52.32H79.8534V49.3333Z" fill="white"/>
<path d="M82.84 49.3333H85.8266V52.32H82.84V49.3333Z" fill="white"/>
<path d="M85.8267 49.3333H88.8133V52.32H85.8267V49.3333Z" fill="white"/>
<path d="M88.8134 49.3333H92.0134V52.32H88.8134V49.3333Z" fill="white"/>
<path d="M92.0134 49.3333H95.0001V52.32H92.0134V49.3333Z" fill="white"/>
<path d="M31 52.32H33.9867V55.52H31V52.32Z" fill="black"/>
<path d="M33.9866 52.32H37.1866V55.52H33.9866V52.32Z" fill="black"/>
<path d="M37.1866 52.32H40.1733V55.52H37.1866V52.32Z" fill="black"/>
<path d="M40.1733 52.32H43.16V55.52H40.1733V52.32Z" fill="black"/>
<path d="M43.16 52.32H46.1467V55.52H43.16V52.32Z" fill="black"/>
<path d="M46.1466 52.32H49.3466V55.52H46.1466V52.32Z" fill="white"/>
<path d="M49.3467 52.32H52.3333V55.52H49.3467V52.32Z" fill="black"/>
<path d="M52.3334 52.32H55.32V55.52H52.3334V52.32Z" fill="black"/>
<path d="M55.3199 52.32H58.5199V55.52H55.3199V52.32Z" fill="black"/>
<path d="M58.52 52.32H61.5067V55.52H58.52V52.32Z" fill="white"/>
<path d="M61.5066 52.32H64.4933V55.52H61.5066V52.32Z" fill="white"/>
<path d="M64.4934 52.32H67.4801V55.52H64.4934V52.32Z" fill="white"/>
<path d="M67.48 52.32H70.68V55.52H67.48V52.32Z" fill="black"/>
<path d="M70.6801 52.32H73.6667V55.52H70.6801V52.32Z" fill="black"/>
<path d="M73.6666 52.32H76.6533V55.52H73.6666V52.32Z" fill="white"/>
<path d="M76.6533 52.32H79.8533V55.52H76.6533V52.32Z" fill="black"/>
<path d="M79.8534 52.32H82.8401V55.52H79.8534V52.32Z" fill="white"/>
<path d="M82.84 52.32H85.8266V55.52H82.84V52.32Z" fill="black"/>
<path d="M85.8267 52.32H88.8133V55.52H85.8267V52.32Z" fill="white"/>
<path d="M88.8134 52.32H92.0134V55.52H88.8134V52.32Z" fill="black"/>
<path d="M92.0134 52.32H95.0001V55.52H92.0134V52.32Z" fill="white"/>
<path d="M31 55.52H33.9867V58.5067H31V55.52Z" fill="white"/>
<path d="M33.9866 55.52H37.1866V58.5067H33.9866V55.52Z" fill="black"/>
<path d="M37.1866 55.52H40.1733V58.5067H37.1866V55.52Z" fill="white"/>
<path d="M40.1733 55.52H43.16V58.5067H40.1733V55.52Z" fill="black"/>
<path d="M43.16 55.52H46.1467V58.5067H43.16V55.52Z" fill="white"/>
<path d="M46.1466 55.52H49.3466V58.5067H46.1466V55.52Z" fill="white"/>
<path d="M49.3467 55.52H52.3333V58.5067H49.3467V55.52Z" fill="white"/>
<path d="M52.3334 55.52H55.32V58.5067H52.3334V55.52Z" fill="black"/>
<path d="M55.3199 55.52H58.5199V58.5067H55.3199V55.52Z" fill="black"/>
<path d="M58.52 55.52H61.5067V58.5067H58.52V55.52Z" fill="white"/>
<path d="M61.5066 55.52H64.4933V58.5067H61.5066V55.52Z" fill="black"/>
<path d="M64.4934 55.52H67.4801V58.5067H64.4934V55.52Z" fill="white"/>
<path d="M67.48 55.52H70.68V58.5067H67.48V55.52Z" fill="white"/>
<path d="M70.6801 55.52H73.6667V58.5067H70.6801V55.52Z" fill="black"/>
<path d="M73.6666 55.52H76.6533V58.5067H73.6666V55.52Z" fill="black"/>
<path d="M76.6533 55.52H79.8533V58.5067H76.6533V55.52Z" fill="black"/>
<path d="M79.8534 55.52H82.8401V58.5067H79.8534V55.52Z" fill="black"/>
<path d="M82.84 55.52H85.8266V58.5067H82.84V55.52Z" fill="white"/>
<path d="M85.8267 55.52H88.8133V58.5067H85.8267V55.52Z" fill="white"/>
<path d="M88.8134 55.52H92.0134V58.5067H88.8134V55.52Z" fill="black"/>
<path d="M92.0134 55.52H95.0001V58.5067H92.0134V55.52Z" fill="black"/>
<path d="M31 58.5067H33.9867V61.4934H31V58.5067Z" fill="white"/>
<path d="M33.9866 58.5067H37.1866V61.4934H33.9866V58.5067Z" fill="black"/>
<path d="M37.1866 58.5067H40.1733V61.4934H37.1866V58.5067Z" fill="black"/>
<path d="M40.1733 58.5067H43.16V61.4934H40.1733V58.5067Z" fill="white"/>
<path d="M43.16 58.5067H46.1467V61.4934H43.16V58.5067Z" fill="white"/>
<path d="M46.1466 58.5067H49.3466V61.4934H46.1466V58.5067Z" fill="white"/>
<path d="M49.3467 58.5067H52.3333V61.4934H49.3467V58.5067Z" fill="black"/>
<path d="M52.3334 58.5067H55.32V61.4934H52.3334V58.5067Z" fill="white"/>
<path d="M55.3199 58.5067H58.5199V61.4934H55.3199V58.5067Z" fill="white"/>
<path d="M58.52 58.5067H61.5067V61.4934H58.52V58.5067Z" fill="black"/>
<path d="M61.5066 58.5067H64.4933V61.4934H61.5066V58.5067Z" fill="black"/>
<path d="M64.4934 58.5067H67.4801V61.4934H64.4934V58.5067Z" fill="black"/>
<path d="M67.48 58.5067H70.68V61.4934H67.48V58.5067Z" fill="black"/>
<path d="M70.6801 58.5067H73.6667V61.4934H70.6801V58.5067Z" fill="white"/>
<path d="M73.6666 58.5067H76.6533V61.4934H73.6666V58.5067Z" fill="black"/>
<path d="M76.6533 58.5067H79.8533V61.4934H76.6533V58.5067Z" fill="white"/>
<path d="M79.8534 58.5067H82.8401V61.4934H79.8534V58.5067Z" fill="white"/>
<path d="M82.84 58.5067H85.8266V61.4934H82.84V58.5067Z" fill="white"/>
<path d="M85.8267 58.5067H88.8133V61.4934H85.8267V58.5067Z" fill="black"/>
<path d="M88.8134 58.5067H92.0134V61.4934H88.8134V58.5067Z" fill="black"/>
<path d="M92.0134 58.5067H95.0001V61.4934H92.0134V58.5067Z" fill="white"/>
<path d="M31 61.4933H33.9867V64.48H31V61.4933Z" fill="white"/>
<path d="M33.9866 61.4933H37.1866V64.48H33.9866V61.4933Z" fill="white"/>
<path d="M37.1866 61.4933H40.1733V64.48H37.1866V61.4933Z" fill="black"/>
<path d="M40.1733 61.4933H43.16V64.48H40.1733V61.4933Z" fill="black"/>
<path d="M43.16 61.4933H46.1467V64.48H43.16V61.4933Z" fill="black"/>
<path d="M46.1466 61.4933H49.3466V64.48H46.1466V61.4933Z" fill="black"/>
<path d="M49.3467 61.4933H52.3333V64.48H49.3467V61.4933Z" fill="white"/>
<path d="M52.3334 61.4933H55.32V64.48H52.3334V61.4933Z" fill="black"/>
<path d="M55.3199 61.4933H58.5199V64.48H55.3199V61.4933Z" fill="white"/>
<path d="M58.52 61.4933H61.5067V64.48H58.52V61.4933Z" fill="white"/>
<path d="M61.5066 61.4933H64.4933V64.48H61.5066V61.4933Z" fill="black"/>
<path d="M64.4934 61.4933H67.4801V64.48H64.4934V61.4933Z" fill="white"/>
<path d="M67.48 61.4933H70.68V64.48H67.48V61.4933Z" fill="white"/>
<path d="M70.6801 61.4933H73.6667V64.48H70.6801V61.4933Z" fill="black"/>
<path d="M73.6666 61.4933H76.6533V64.48H73.6666V61.4933Z" fill="white"/>
<path d="M76.6533 61.4933H79.8533V64.48H76.6533V61.4933Z" fill="white"/>
<path d="M79.8534 61.4933H82.8401V64.48H79.8534V61.4933Z" fill="white"/>
<path d="M82.84 61.4933H85.8266V64.48H82.84V61.4933Z" fill="black"/>
<path d="M85.8267 61.4933H88.8133V64.48H85.8267V61.4933Z" fill="black"/>
<path d="M88.8134 61.4933H92.0134V64.48H88.8134V61.4933Z" fill="black"/>
<path d="M92.0134 61.4933H95.0001V64.48H92.0134V61.4933Z" fill="white"/>
<path d="M31 64.48H33.9867V67.68H31V64.48Z" fill="white"/>
<path d="M33.9866 64.48H37.1866V67.68H33.9866V64.48Z" fill="white"/>
<path d="M37.1866 64.48H40.1733V67.68H37.1866V64.48Z" fill="white"/>
<path d="M40.1733 64.48H43.16V67.68H40.1733V64.48Z" fill="black"/>
<path d="M43.16 64.48H46.1467V67.68H43.16V64.48Z" fill="white"/>
<path d="M46.1466 64.48H49.3466V67.68H46.1466V64.48Z" fill="black"/>
<path d="M49.3467 64.48H52.3333V67.68H49.3467V64.48Z" fill="black"/>
<path d="M52.3334 64.48H55.32V67.68H52.3334V64.48Z" fill="white"/>
<path d="M55.3199 64.48H58.5199V67.68H55.3199V64.48Z" fill="black"/>
<path d="M58.52 64.48H61.5067V67.68H58.52V64.48Z" fill="white"/>
<path d="M61.5066 64.48H64.4933V67.68H61.5066V64.48Z" fill="black"/>
<path d="M64.4934 64.48H67.4801V67.68H64.4934V64.48Z" fill="black"/>
<path d="M67.48 64.48H70.68V67.68H67.48V64.48Z" fill="white"/>
<path d="M70.6801 64.48H73.6667V67.68H70.6801V64.48Z" fill="black"/>
<path d="M73.6666 64.48H76.6533V67.68H73.6666V64.48Z" fill="black"/>
<path d="M76.6533 64.48H79.8533V67.68H76.6533V64.48Z" fill="white"/>
<path d="M79.8534 64.48H82.8401V67.68H79.8534V64.48Z" fill="white"/>
<path d="M82.84 64.48H85.8266V67.68H82.84V64.48Z" fill="white"/>
<path d="M85.8267 64.48H88.8133V67.68H85.8267V64.48Z" fill="white"/>
<path d="M88.8134 64.48H92.0134V67.68H88.8134V64.48Z" fill="white"/>
<path d="M92.0134 64.48H95.0001V67.68H92.0134V64.48Z" fill="white"/>
<path d="M31 67.68H33.9867V70.6667H31V67.68Z" fill="white"/>
<path d="M33.9866 67.68H37.1866V70.6667H33.9866V67.68Z" fill="white"/>
<path d="M37.1866 67.68H40.1733V70.6667H37.1866V67.68Z" fill="white"/>
<path d="M40.1733 67.68H43.16V70.6667H40.1733V67.68Z" fill="white"/>
<path d="M43.16 67.68H46.1467V70.6667H43.16V67.68Z" fill="white"/>
<path d="M46.1466 67.68H49.3466V70.6667H46.1466V67.68Z" fill="white"/>
<path d="M49.3467 67.68H52.3333V70.6667H49.3467V67.68Z" fill="white"/>
<path d="M52.3334 67.68H55.32V70.6667H52.3334V67.68Z" fill="white"/>
<path d="M55.3199 67.68H58.5199V70.6667H55.3199V67.68Z" fill="black"/>
<path d="M58.52 67.68H61.5067V70.6667H58.52V67.68Z" fill="black"/>
<path d="M61.5066 67.68H64.4933V70.6667H61.5066V67.68Z" fill="white"/>
<path d="M64.4934 67.68H67.4801V70.6667H64.4934V67.68Z" fill="white"/>
<path d="M67.48 67.68H70.68V70.6667H67.48V67.68Z" fill="white"/>
<path d="M70.6801 67.68H73.6667V70.6667H70.6801V67.68Z" fill="black"/>
<path d="M73.6666 67.68H76.6533V70.6667H73.6666V67.68Z" fill="white"/>
<path d="M76.6533 67.68H79.8533V70.6667H76.6533V67.68Z" fill="black"/>
<path d="M79.8534 67.68H82.8401V70.6667H79.8534V67.68Z" fill="black"/>
<path d="M82.84 67.68H85.8266V70.6667H82.84V67.68Z" fill="white"/>
<path d="M85.8267 67.68H88.8133V70.6667H85.8267V67.68Z" fill="white"/>
<path d="M88.8134 67.68H92.0134V70.6667H88.8134V67.68Z" fill="white"/>
<path d="M92.0134 67.68H95.0001V70.6667H92.0134V67.68Z" fill="black"/>
<path d="M31 70.6667H33.9867V73.6534H31V70.6667Z" fill="black"/>
<path d="M33.9866 70.6667H37.1866V73.6534H33.9866V70.6667Z" fill="black"/>
<path d="M37.1866 70.6667H40.1733V73.6534H37.1866V70.6667Z" fill="black"/>
<path d="M40.1733 70.6667H43.16V73.6534H40.1733V70.6667Z" fill="black"/>
<path d="M43.16 70.6667H46.1467V73.6534H43.16V70.6667Z" fill="black"/>
<path d="M46.1466 70.6667H49.3466V73.6534H46.1466V70.6667Z" fill="black"/>
<path d="M49.3467 70.6667H52.3333V73.6534H49.3467V70.6667Z" fill="black"/>
<path d="M52.3334 70.6667H55.32V73.6534H52.3334V70.6667Z" fill="white"/>
<path d="M55.3199 70.6667H58.5199V73.6534H55.3199V70.6667Z" fill="black"/>
<path d="M58.52 70.6667H61.5067V73.6534H58.52V70.6667Z" fill="black"/>
<path d="M61.5066 70.6667H64.4933V73.6534H61.5066V70.6667Z" fill="black"/>
<path d="M64.4934 70.6667H67.4801V73.6534H64.4934V70.6667Z" fill="white"/>
<path d="M67.48 70.6667H70.68V73.6534H67.48V70.6667Z" fill="black"/>
<path d="M70.6801 70.6667H73.6667V73.6534H70.6801V70.6667Z" fill="white"/>
<path d="M73.6666 70.6667H76.6533V73.6534H73.6666V70.6667Z" fill="white"/>
<path d="M76.6533 70.6667H79.8533V73.6534H76.6533V70.6667Z" fill="white"/>
<path d="M79.8534 70.6667H82.8401V73.6534H79.8534V70.6667Z" fill="white"/>
<path d="M82.84 70.6667H85.8266V73.6534H82.84V70.6667Z" fill="black"/>
<path d="M85.8267 70.6667H88.8133V73.6534H85.8267V70.6667Z" fill="black"/>
<path d="M88.8134 70.6667H92.0134V73.6534H88.8134V70.6667Z" fill="black"/>
<path d="M92.0134 70.6667H95.0001V73.6534H92.0134V70.6667Z" fill="white"/>
<path d="M31 73.6533H33.9867V76.8533H31V73.6533Z" fill="black"/>
<path d="M33.9866 73.6533H37.1866V76.8533H33.9866V73.6533Z" fill="white"/>
<path d="M37.1866 73.6533H40.1733V76.8533H37.1866V73.6533Z" fill="white"/>
<path d="M40.1733 73.6533H43.16V76.8533H40.1733V73.6533Z" fill="white"/>
<path d="M43.16 73.6533H46.1467V76.8533H43.16V73.6533Z" fill="white"/>
<path d="M46.1466 73.6533H49.3466V76.8533H46.1466V73.6533Z" fill="white"/>
<path d="M49.3467 73.6533H52.3333V76.8533H49.3467V73.6533Z" fill="black"/>
<path d="M52.3334 73.6533H55.32V76.8533H52.3334V73.6533Z" fill="white"/>
<path d="M55.3199 73.6533H58.5199V76.8533H55.3199V73.6533Z" fill="white"/>
<path d="M58.52 73.6533H61.5067V76.8533H58.52V73.6533Z" fill="white"/>
<path d="M61.5066 73.6533H64.4933V76.8533H61.5066V73.6533Z" fill="black"/>
<path d="M64.4934 73.6533H67.4801V76.8533H64.4934V73.6533Z" fill="white"/>
<path d="M67.48 73.6533H70.68V76.8533H67.48V73.6533Z" fill="black"/>
<path d="M70.6801 73.6533H73.6667V76.8533H70.6801V73.6533Z" fill="black"/>
<path d="M73.6666 73.6533H76.6533V76.8533H73.6666V73.6533Z" fill="white"/>
<path d="M76.6533 73.6533H79.8533V76.8533H76.6533V73.6533Z" fill="white"/>
<path d="M79.8534 73.6533H82.8401V76.8533H79.8534V73.6533Z" fill="black"/>
<path d="M82.84 73.6533H85.8266V76.8533H82.84V73.6533Z" fill="black"/>
<path d="M85.8267 73.6533H88.8133V76.8533H85.8267V73.6533Z" fill="black"/>
<path d="M88.8134 73.6533H92.0134V76.8533H88.8134V73.6533Z" fill="black"/>
<path d="M92.0134 73.6533H95.0001V76.8533H92.0134V73.6533Z" fill="black"/>
<path d="M31 76.8533H33.9867V79.84H31V76.8533Z" fill="black"/>
<path d="M33.9866 76.8533H37.1866V79.84H33.9866V76.8533Z" fill="white"/>
<path d="M37.1866 76.8533H40.1733V79.84H37.1866V76.8533Z" fill="black"/>
<path d="M40.1733 76.8533H43.16V79.84H40.1733V76.8533Z" fill="black"/>
<path d="M43.16 76.8533H46.1467V79.84H43.16V76.8533Z" fill="black"/>
<path d="M46.1466 76.8533H49.3466V79.84H46.1466V76.8533Z" fill="white"/>
<path d="M49.3467 76.8533H52.3333V79.84H49.3467V76.8533Z" fill="black"/>
<path d="M52.3334 76.8533H55.32V79.84H52.3334V76.8533Z" fill="white"/>
<path d="M55.3199 76.8533H58.5199V79.84H55.3199V76.8533Z" fill="black"/>
<path d="M58.52 76.8533H61.5067V79.84H58.52V76.8533Z" fill="black"/>
<path d="M61.5066 76.8533H64.4933V79.84H61.5066V76.8533Z" fill="black"/>
<path d="M64.4934 76.8533H67.4801V79.84H64.4934V76.8533Z" fill="black"/>
<path d="M67.48 76.8533H70.68V79.84H67.48V76.8533Z" fill="white"/>
<path d="M70.6801 76.8533H73.6667V79.84H70.6801V76.8533Z" fill="black"/>
<path d="M73.6666 76.8533H76.6533V79.84H73.6666V76.8533Z" fill="black"/>
<path d="M76.6533 76.8533H79.8533V79.84H76.6533V76.8533Z" fill="black"/>
<path d="M79.8534 76.8533H82.8401V79.84H79.8534V76.8533Z" fill="white"/>
<path d="M82.84 76.8533H85.8266V79.84H82.84V76.8533Z" fill="white"/>
<path d="M85.8267 76.8533H88.8133V79.84H85.8267V76.8533Z" fill="white"/>
<path d="M88.8134 76.8533H92.0134V79.84H88.8134V76.8533Z" fill="black"/>
<path d="M92.0134 76.8533H95.0001V79.84H92.0134V76.8533Z" fill="black"/>
<path d="M31 79.84H33.9867V82.8267H31V79.84Z" fill="black"/>
<path d="M33.9866 79.84H37.1866V82.8267H33.9866V79.84Z" fill="white"/>
<path d="M37.1866 79.84H40.1733V82.8267H37.1866V79.84Z" fill="black"/>
<path d="M40.1733 79.84H43.16V82.8267H40.1733V79.84Z" fill="black"/>
<path d="M43.16 79.84H46.1467V82.8267H43.16V79.84Z" fill="black"/>
<path d="M46.1466 79.84H49.3466V82.8267H46.1466V79.84Z" fill="white"/>
<path d="M49.3467 79.84H52.3333V82.8267H49.3467V79.84Z" fill="black"/>
<path d="M52.3334 79.84H55.32V82.8267H52.3334V79.84Z" fill="white"/>
<path d="M55.3199 79.84H58.5199V82.8267H55.3199V79.84Z" fill="black"/>
<path d="M58.52 79.84H61.5067V82.8267H58.52V79.84Z" fill="black"/>
<path d="M61.5066 79.84H64.4933V82.8267H61.5066V79.84Z" fill="white"/>
<path d="M64.4934 79.84H67.4801V82.8267H64.4934V79.84Z" fill="white"/>
<path d="M67.48 79.84H70.68V82.8267H67.48V79.84Z" fill="white"/>
<path d="M70.6801 79.84H73.6667V82.8267H70.6801V79.84Z" fill="white"/>
<path d="M73.6666 79.84H76.6533V82.8267H73.6666V79.84Z" fill="white"/>
<path d="M76.6533 79.84H79.8533V82.8267H76.6533V79.84Z" fill="black"/>
<path d="M79.8534 79.84H82.8401V82.8267H79.8534V79.84Z" fill="black"/>
<path d="M82.84 79.84H85.8266V82.8267H82.84V79.84Z" fill="black"/>
<path d="M85.8267 79.84H88.8133V82.8267H85.8267V79.84Z" fill="white"/>
<path d="M88.8134 79.84H92.0134V82.8267H88.8134V79.84Z" fill="white"/>
<path d="M92.0134 79.84H95.0001V82.8267H92.0134V79.84Z" fill="white"/>
<path d="M31 82.8267H33.9867V85.8133H31V82.8267Z" fill="black"/>
<path d="M33.9866 82.8267H37.1866V85.8133H33.9866V82.8267Z" fill="white"/>
<path d="M37.1866 82.8267H40.1733V85.8133H37.1866V82.8267Z" fill="black"/>
<path d="M40.1733 82.8267H43.16V85.8133H40.1733V82.8267Z" fill="black"/>
<path d="M43.16 82.8267H46.1467V85.8133H43.16V82.8267Z" fill="black"/>
<path d="M46.1466 82.8267H49.3466V85.8133H46.1466V82.8267Z" fill="white"/>
<path d="M49.3467 82.8267H52.3333V85.8133H49.3467V82.8267Z" fill="black"/>
<path d="M52.3334 82.8267H55.32V85.8133H52.3334V82.8267Z" fill="white"/>
<path d="M55.3199 82.8267H58.5199V85.8133H55.3199V82.8267Z" fill="black"/>
<path d="M58.52 82.8267H61.5067V85.8133H58.52V82.8267Z" fill="black"/>
<path d="M61.5066 82.8267H64.4933V85.8133H61.5066V82.8267Z" fill="black"/>
<path d="M64.4934 82.8267H67.4801V85.8133H64.4934V82.8267Z" fill="black"/>
<path d="M67.48 82.8267H70.68V85.8133H67.48V82.8267Z" fill="black"/>
<path d="M70.6801 82.8267H73.6667V85.8133H70.6801V82.8267Z" fill="white"/>
<path d="M73.6666 82.8267H76.6533V85.8133H73.6666V82.8267Z" fill="black"/>
<path d="M76.6533 82.8267H79.8533V85.8133H76.6533V82.8267Z" fill="white"/>
<path d="M79.8534 82.8267H82.8401V85.8133H79.8534V82.8267Z" fill="white"/>
<path d="M82.84 82.8267H85.8266V85.8133H82.84V82.8267Z" fill="black"/>
<path d="M85.8267 82.8267H88.8133V85.8133H85.8267V82.8267Z" fill="white"/>
<path d="M88.8134 82.8267H92.0134V85.8133H88.8134V82.8267Z" fill="white"/>
<path d="M92.0134 82.8267H95.0001V85.8133H92.0134V82.8267Z" fill="white"/>
<path d="M31 85.8134H33.9867V89.0134H31V85.8134Z" fill="black"/>
<path d="M33.9866 85.8134H37.1866V89.0134H33.9866V85.8134Z" fill="white"/>
<path d="M37.1866 85.8134H40.1733V89.0134H37.1866V85.8134Z" fill="white"/>
<path d="M40.1733 85.8134H43.16V89.0134H40.1733V85.8134Z" fill="white"/>
<path d="M43.16 85.8134H46.1467V89.0134H43.16V85.8134Z" fill="white"/>
<path d="M46.1466 85.8134H49.3466V89.0134H46.1466V85.8134Z" fill="white"/>
<path d="M49.3467 85.8134H52.3333V89.0134H49.3467V85.8134Z" fill="black"/>
<path d="M52.3334 85.8134H55.32V89.0134H52.3334V85.8134Z" fill="white"/>
<path d="M55.3199 85.8134H58.5199V89.0134H55.3199V85.8134Z" fill="black"/>
<path d="M58.52 85.8134H61.5067V89.0134H58.52V85.8134Z" fill="black"/>
<path d="M61.5066 85.8134H64.4933V89.0134H61.5066V85.8134Z" fill="black"/>
<path d="M64.4934 85.8134H67.4801V89.0134H64.4934V85.8134Z" fill="black"/>
<path d="M67.48 85.8134H70.68V89.0134H67.48V85.8134Z" fill="black"/>
<path d="M70.6801 85.8134H73.6667V89.0134H70.6801V85.8134Z" fill="black"/>
<path d="M73.6666 85.8134H76.6533V89.0134H73.6666V85.8134Z" fill="white"/>
<path d="M76.6533 85.8134H79.8533V89.0134H76.6533V85.8134Z" fill="white"/>
<path d="M79.8534 85.8134H82.8401V89.0134H79.8534V85.8134Z" fill="white"/>
<path d="M82.84 85.8134H85.8266V89.0134H82.84V85.8134Z" fill="black"/>
<path d="M85.8267 85.8134H88.8133V89.0134H85.8267V85.8134Z" fill="black"/>
<path d="M88.8134 85.8134H92.0134V89.0134H88.8134V85.8134Z" fill="white"/>
<path d="M92.0134 85.8134H95.0001V89.0134H92.0134V85.8134Z" fill="white"/>
<path d="M31 89.0133H33.9867V92H31V89.0133Z" fill="black"/>
<path d="M33.9866 89.0133H37.1866V92H33.9866V89.0133Z" fill="black"/>
<path d="M37.1866 89.0133H40.1733V92H37.1866V89.0133Z" fill="black"/>
<path d="M40.1733 89.0133H43.16V92H40.1733V89.0133Z" fill="black"/>
<path d="M43.16 89.0133H46.1467V92H43.16V89.0133Z" fill="black"/>
<path d="M46.1466 89.0133H49.3466V92H46.1466V89.0133Z" fill="black"/>
<path d="M49.3467 89.0133H52.3333V92H49.3467V89.0133Z" fill="black"/>
<path d="M52.3334 89.0133H55.32V92H52.3334V89.0133Z" fill="white"/>
<path d="M55.3199 89.0133H58.5199V92H55.3199V89.0133Z" fill="black"/>
<path d="M58.52 89.0133H61.5067V92H58.52V89.0133Z" fill="white"/>
<path d="M61.5066 89.0133H64.4933V92H61.5066V89.0133Z" fill="black"/>
<path d="M64.4934 89.0133H67.4801V92H64.4934V89.0133Z" fill="white"/>
<path d="M67.48 89.0133H70.68V92H67.48V89.0133Z" fill="black"/>
<path d="M70.6801 89.0133H73.6667V92H70.6801V89.0133Z" fill="white"/>
<path d="M73.6666 89.0133H76.6533V92H73.6666V89.0133Z" fill="black"/>
<path d="M76.6533 89.0133H79.8533V92H76.6533V89.0133Z" fill="white"/>
<path d="M79.8534 89.0133H82.8401V92H79.8534V89.0133Z" fill="black"/>
<path d="M82.84 89.0133H85.8266V92H82.84V89.0133Z" fill="white"/>
<path d="M85.8267 89.0133H88.8133V92H85.8267V89.0133Z" fill="white"/>
<path d="M88.8134 89.0133H92.0134V92H88.8134V89.0133Z" fill="black"/>
<path d="M92.0134 89.0133H95.0001V92H92.0134V89.0133Z" fill="white"/>
</g>
<defs>
<filter id="filter0_d_835:1102" x="16.6189" y="13.75" width="109.69" height="112.428" filterUnits="userSpaceOnUse" color-interpolation-filters="sRGB">
<feFlood flood-opacity="0" result="BackgroundImageFix"/>
<feColorMatrix in="SourceAlpha" type="matrix" values="0 0 0 0 0 0 0 0 0 0 0 0 0 0 0 0 0 0 127 0" result="hardAlpha"/>
<feOffset dx="8" dy="8"/>
<feGaussianBlur stdDeviation="8"/>
<feComposite in2="hardAlpha" operator="out"/>
<feColorMatrix type="matrix" values="0 0 0 0 0 0 0 0 0 0 0 0 0 0 0 0 0 0 0.35 0"/>
<feBlend mode="normal" in2="BackgroundImageFix" result="effect1_dropShadow_835:1102"/>
<feBlend mode="normal" in="SourceGraphic" in2="effect1_dropShadow_835:1102" result="shape"/>
</filter>
<linearGradient id="paint0_linear_835:1102" x1="24.902" y1="63.6426" x2="102.071" y2="63.6426" gradientUnits="userSpaceOnUse">
<stop offset="0.5161" stop-color="#C1C7DB"/>
<stop offset="1" stop-color="#778EB5"/>
</linearGradient>
<linearGradient id="paint1_linear_835:1102" x1="24.7365" y1="63.6426" x2="102.236" y2="63.6426" gradientUnits="userSpaceOnUse">
<stop offset="0.3148" stop-color="#E3ECFA"/>
<stop offset="0.5322" stop-color="#E1EAF8"/>
<stop offset="0.649" stop-color="#D9E2F1"/>
<stop offset="0.742" stop-color="#CBD5E4"/>
<stop offset="0.8224" stop-color="#B8C2D3"/>
<stop offset="0.8947" stop-color="#9FAABC"/>
<stop offset="0.9602" stop-color="#808DA0"/>
<stop offset="1" stop-color="#6A778C"/>
</linearGradient>
<linearGradient id="paint2_linear_835:1102" x1="24.9021" y1="60.3433" x2="102.071" y2="60.3433" gradientUnits="userSpaceOnUse">
<stop offset="0.3763" stop-color="white"/>
<stop offset="1" stop-color="#C1D6D6"/>
</linearGradient>
<linearGradient id="paint3_linear_835:1102" x1="24.7366" y1="60.3433" x2="102.237" y2="60.3433" gradientUnits="userSpaceOnUse">
<stop offset="0.2996" stop-color="white"/>
<stop offset="1" stop-color="#99B0A9"/>
</linearGradient>
</defs>
</svg>
