<svg width="132" height="130" viewBox="0 0 132 130" fill="none" xmlns="http://www.w3.org/2000/svg">
<g filter="url(#filter0_d)">
<path d="M64.2596 27.1648C50.9619 27.1648 40.186 37.8421 40.186 51.0182C40.186 52.1645 40.264 53.2979 40.433 54.4055C43.5267 53.0145 46.9063 52.2675 50.377 52.2675C51.2479 52.2675 52.1318 52.319 53.0027 52.4092C55.4595 47.4505 59.4891 43.6509 64.2726 41.397C69.316 43.7668 73.2026 47.7209 75.5424 52.4221C76.4523 52.319 77.3882 52.2675 78.3111 52.2675C81.0018 52.2675 83.7316 52.7183 86.3963 53.6585C86.9812 53.8646 87.5532 54.0964 88.1121 54.3411C88.2681 53.2592 88.3461 52.1387 88.3461 51.0182C88.3461 37.8421 77.5572 27.1648 64.2596 27.1648Z" fill="#8EB440"/>
<path d="M88.1121 54.3411C87.5271 58.4626 85.8893 62.2493 83.4715 65.4177C87.2672 69.9771 89.074 75.5798 88.944 81.131C84.6024 84.4798 79.39 86.1413 74.1775 86.1413C73.5406 86.1413 72.9036 86.1155 72.2667 86.064C70.4599 89.9795 67.6912 93.2123 64.3375 95.5693C66.1053 96.8186 68.0811 97.849 70.2259 98.6089C72.9036 99.5491 75.6334 99.9999 78.3111 99.9999C88.2031 99.9999 97.4711 93.9078 100.994 84.1449C105.244 72.3213 99.5119 59.3642 88.1121 54.3411Z" fill="#8EB440"/>
<path d="M78.3111 52.2803C77.3752 52.2803 76.4523 52.3318 75.5424 52.4348C76.7902 54.9464 77.5962 57.6769 77.8951 60.4976C79.468 61.5022 80.9498 62.7129 82.3017 64.1168C82.7046 64.5418 83.0946 64.9797 83.4716 65.4177C85.8893 62.2492 87.5401 58.4626 88.1121 54.341C87.5531 54.0963 86.9812 53.8645 86.3963 53.6584C83.7315 52.7182 81.0018 52.2803 78.3111 52.2803Z" fill="#4F7F10"/>
<path d="M40.433 54.4055C34.7006 56.9815 29.982 61.7728 27.6943 68.1225C23.2227 80.5386 29.7611 94.1783 42.2788 98.609C44.9565 99.5492 47.6862 100 50.3639 100C55.4074 100 60.2949 98.4158 64.3375 95.5694C60.8408 93.1093 58.1371 89.7863 56.3953 86.0254C55.6284 86.1027 54.8615 86.1285 54.0945 86.1285C48.8821 86.1285 43.6696 84.467 39.3281 81.1182C39.1981 75.5026 41.0569 69.8355 44.9435 65.2503C42.6037 62.1463 41.0049 58.4369 40.433 54.4055Z" fill="#8EB440"/>
<path d="M50.377 52.2803C46.9063 52.2803 43.5267 53.0273 40.433 54.4183C41.0179 58.4497 42.6038 62.1462 44.9435 65.2631C45.2685 64.8767 45.6194 64.4903 45.9834 64.1168C47.4133 62.6356 48.9991 61.3605 50.6759 60.3301C50.8839 58.527 51.2869 56.7367 51.9368 54.9593C52.2488 54.0834 52.6127 53.2463 53.0157 52.4348C52.1188 52.3189 51.2479 52.2803 50.377 52.2803Z" fill="#4F7F10"/>
<path d="M64.1425 83.9775C63.8695 84.0935 63.5966 84.2223 63.3236 84.3253C61.1008 85.2398 58.7741 85.8065 56.4083 86.0254C58.1371 89.7863 60.8539 93.1093 64.3505 95.5693C67.7041 93.2123 70.4728 89.9795 72.2797 86.0641C69.7839 85.8709 67.3142 85.2913 64.9744 84.3253C64.6885 84.2223 64.4155 84.1063 64.1425 83.9775Z" fill="#4F7F10"/>
<path d="M30.0861 93.9208C35.1042 93.9208 39.1721 89.89 39.1721 84.9178C39.1721 79.9456 35.1042 75.9148 30.0861 75.9148C25.068 75.9148 21 79.9456 21 84.9178C21 89.89 25.068 93.9208 30.0861 93.9208Z" fill="#52720D"/>
<path d="M64.1426 40.0059C69.1607 40.0059 73.2286 35.9752 73.2286 31.003C73.2286 26.0308 69.1607 22 64.1426 22C59.1245 22 55.0565 26.0308 55.0565 31.003C55.0565 35.9752 59.1245 40.0059 64.1426 40.0059Z" fill="#52720D"/>
<path d="M98.9139 93.9208C103.932 93.9208 108 89.89 108 84.9178C108 79.9456 103.932 75.9148 98.9139 75.9148C93.8959 75.9148 89.8279 79.9456 89.8279 84.9178C89.8279 89.89 93.8959 93.9208 98.9139 93.9208Z" fill="#52720D"/>
<path d="M53.4966 74.1246C55.4464 78.1173 59.567 80.8864 64.3505 80.8864C69.238 80.8864 73.4365 78.0014 75.3213 73.867L75.3993 73.6995C75.3993 73.6995 76.3352 71.6774 76.6212 70.9819C77.9081 67.7877 78.207 64.4261 77.9601 61.1933C77.3231 52.8343 72.2537 45.1579 64.2855 41.4099C58.7221 44.0245 54.1725 48.7385 51.9368 54.9466C51.1828 57.046 50.7409 59.184 50.5849 61.3092V61.1933C50.3379 64.4132 50.5589 67.8135 51.9238 70.9819C52.2357 71.7289 53.3666 73.867 53.3666 73.867L53.4966 74.1246Z" fill="white"/>
<path d="M64.3116 56.8787C59.827 56.8014 55.4855 59.2099 53.3407 63.4473C51.1439 67.7621 51.8458 72.7852 54.7315 76.3143L54.8485 76.4559C54.8485 76.4559 56.2524 78.1947 56.7463 78.7485C59.0471 81.3245 61.9458 83.1019 64.9615 84.3384C72.7867 87.5454 81.9897 86.5022 88.944 81.1313C89.087 75.0392 86.8772 68.8826 82.3017 64.1171C80.7418 62.5071 79.026 61.1547 77.1802 60.06L77.2842 60.1115C74.4895 58.45 71.3308 57.1105 67.8602 56.8915C67.0543 56.84 64.6105 56.8787 64.6105 56.8787H64.3116Z" fill="white"/>
<path d="M63.9736 56.8787C68.4581 56.8014 72.7997 59.2099 74.9444 63.4473C77.1412 67.7621 76.4393 72.7852 73.5536 76.3143L73.4366 76.4559C73.4366 76.4559 72.0327 78.1947 71.5388 78.7485C69.238 81.3245 66.3393 83.1019 63.3236 84.3384C55.4984 87.5454 46.2954 86.5022 39.3411 81.1313C39.1981 75.0392 41.4079 68.8826 45.9834 64.1171C47.5433 62.5071 49.2591 61.1547 51.1049 60.06L51.0009 60.1115C53.7956 58.45 56.9543 57.1105 60.4249 56.8915C61.2309 56.84 63.6746 56.8787 63.6746 56.8787H63.9736Z" fill="white"/>
<path d="M65.1044 52.8987H63.3626L62.0107 56.8657C62.7257 56.8657 63.4146 56.8785 63.6226 56.8785C63.7786 56.8657 63.9475 56.8657 64.1035 56.8657C64.1165 56.8657 64.1295 56.8657 64.1425 56.8657C64.1555 56.8657 64.1685 56.8657 64.1815 56.8657C64.3375 56.8657 64.5065 56.8657 64.6625 56.8785C64.8704 56.8785 65.5724 56.8657 66.2743 56.8657C66.3653 56.8657 66.4563 56.8657 66.5473 56.8657L65.1044 52.8987Z" fill="#231F20"/>
<path d="M64.1035 56.8786C63.9475 56.8786 63.7785 56.8786 63.6226 56.8915C63.6616 56.8915 63.6876 56.8915 63.6876 56.8915L63.9735 56.8786C64.0255 56.8786 64.0905 56.8786 64.1425 56.8786C64.1295 56.8786 64.1165 56.8786 64.1035 56.8786ZM66.2873 56.8657C65.5724 56.8657 64.8704 56.8786 64.6754 56.8786C65.3384 56.9044 66.0143 56.9816 66.6642 57.1233L66.5733 56.8657C66.4693 56.8657 66.3783 56.8657 66.2873 56.8657Z" fill="#231F20"/>
<path d="M61.9977 56.8657L60.6199 60.8971C60.6589 60.9357 60.6979 60.9615 60.7369 60.9873L61.9067 61.8502L63.5056 57.0074L65.8973 63.692C66.7812 64.1557 68.835 64.5292 69.407 64.6709L66.6513 57.1233C66.0013 56.9945 65.3384 56.9044 64.6625 56.8786C64.5065 56.8657 64.3375 56.8657 64.1815 56.8657C64.1685 56.8657 64.1555 56.8657 64.1425 56.8657C64.0905 56.8657 64.0255 56.8657 63.9735 56.8657L63.6876 56.8786C63.6876 56.8786 63.6616 56.8786 63.6226 56.8786C63.4016 56.8786 62.7127 56.8657 61.9977 56.8657Z" fill="#231F20"/>
<path d="M74.5024 74.9745C74.3724 75.1934 74.2294 75.3995 74.0864 75.6056C74.8144 75.6571 75.5423 75.7086 75.5423 75.7086L75.4903 75.129C75.4903 75.129 75.3603 75.1677 75.1653 75.1677C74.9833 75.1677 74.7364 75.129 74.5154 74.9874C74.5154 74.9745 74.5024 74.9745 74.5024 74.9745Z" fill="#231F20"/>
<path d="M55.7974 59.6606C55.7714 59.6606 56.5513 62.6874 58.5531 64.98L55.6414 72.7594C55.2645 73.7898 54.7835 74.9876 53.6136 75.1808V75.7475C54.4326 75.7475 55.3555 75.5543 56.2394 75.5543C57.1233 75.5543 58.0202 75.7475 58.9041 75.7475V75.1808C57.9552 75.1164 57.4093 74.6141 57.4093 73.5451C57.4093 72.6048 58.2932 70.5698 58.9821 68.3803H58.9951L59.463 66.9635L59.775 66.1907C60.3339 66.7059 60.9449 67.1824 61.5948 67.6204C64.4155 69.5266 66.9633 70.4925 69.342 70.9433C69.667 71.6002 70.9148 74.2277 70.4859 74.6527C70.0049 75.1293 69.225 75.1808 69.03 75.2323C68.8351 75.2838 68.978 75.7089 68.978 75.7089C68.978 75.7089 72.4097 75.5028 72.5787 75.5028C72.7086 75.5028 73.3976 75.5543 74.0865 75.6058C74.2295 75.3997 74.3725 75.1937 74.5025 74.9747C74.0735 74.6785 73.7355 74.2019 73.2156 73.1071C72.9426 72.5276 72.6047 71.8192 72.3577 71.2782C72.6957 71.2911 73.0336 71.304 73.3716 71.304C74.0735 71.304 74.7754 71.2782 75.4514 71.2396V69.1144C75.4514 69.1144 74.4375 69.2561 72.9036 69.2561C70.2779 69.2561 66.0923 68.8311 62.7257 66.5642C57.3703 62.945 56.1874 60.369 55.7974 59.6606Z" fill="#231F20"/>
<path d="M55.1085 55.8868C55.1735 56.0543 55.2904 56.8013 55.7454 57.8574C55.9144 57.793 56.0964 57.7415 56.2783 57.6771C55.6544 56.8786 55.3424 56.2732 55.1085 55.8868ZM55.0955 55.8611C55.0955 55.874 55.1085 55.8868 55.1215 55.8997C55.1085 55.8611 55.0955 55.8611 55.0955 55.8611Z" fill="#8EB440"/>
<path d="M56.2783 57.6899C56.0963 57.7415 55.9273 57.8059 55.7454 57.8703C56.4213 59.4674 57.8511 61.76 60.8798 63.8207C65.3384 66.8346 69.121 67.5043 72.6436 67.5043C73.3455 67.5043 74.0475 67.4786 74.7364 67.4399V65.3277C74.7364 65.3277 73.7225 65.4693 72.1887 65.4693C69.5629 65.4693 65.3774 65.0443 62.0107 62.7775C58.839 60.6137 57.2012 58.9135 56.2783 57.6899Z" fill="#8EB440"/>
<path d="M71.6037 78.8127C70.6288 79.9848 69.5109 81.0538 68.2761 81.9812C67.0412 82.9085 65.7153 83.7071 64.3245 84.3897V83.5654C66.3003 84.4026 68.38 84.9693 70.4988 85.2526C72.6176 85.536 74.7624 85.5231 76.8552 85.2269C78.948 84.9306 81.0017 84.3639 82.9385 83.5268C84.8623 82.6896 86.6692 81.5948 88.294 80.281L87.878 81.0925C87.904 80.1265 87.891 79.1476 87.813 78.1816C87.774 77.6922 87.709 77.2157 87.6441 76.7262C87.5661 76.2497 87.4881 75.7602 87.3841 75.2837C86.9941 73.3646 86.3442 71.497 85.4603 69.7325C84.5894 67.968 83.4845 66.2936 82.1846 64.7738C81.5347 64.0139 80.8328 63.3055 80.1048 62.61C79.3769 61.9145 78.623 61.2318 77.8821 60.5106L77.9081 60.4719C78.883 60.8454 79.7929 61.3735 80.6378 61.9917C81.4827 62.61 82.2626 63.3055 83.0035 64.0396C84.4854 65.5079 85.7852 67.1823 86.8381 69.0112C87.891 70.8402 88.6969 72.8108 89.2429 74.8458C89.5289 75.8633 89.7108 76.9065 89.8408 77.9627C89.9838 79.0188 90.0358 80.075 90.0228 81.144L90.0098 81.6721L89.6068 81.9683C87.774 83.3207 85.7592 84.4155 83.6275 85.214C81.5087 86.0125 79.2729 86.5277 77.0242 86.7338C74.7754 86.9399 72.5136 86.8369 70.3038 86.4376C68.0941 86.0383 65.9493 85.3428 63.9475 84.3897L63.0376 83.9518L63.9475 83.5654C65.3384 83.0116 66.6902 82.3289 67.9511 81.5304C69.212 80.719 70.3948 79.7659 71.4477 78.6839L71.6037 78.8127Z" fill="#52720D"/>
<path d="M50.9099 60.7036C49.1941 61.8113 47.6343 63.125 46.2694 64.6191C45.9444 65.0055 45.5935 65.3661 45.2815 65.7654L44.8135 66.3579L44.3716 66.9761L44.1506 67.2852L43.9426 67.6072L43.5397 68.2383L43.1627 68.8952C43.0327 69.1141 42.9157 69.3331 42.7988 69.552L42.4608 70.2218C42.3568 70.4536 42.2528 70.6726 42.1488 70.9044C41.9278 71.3552 41.7719 71.8318 41.5769 72.2954C41.2519 73.2357 40.9399 74.1888 40.745 75.1676C40.29 77.1125 40.147 79.1217 40.212 81.1052L39.8741 80.4355C41.5119 81.7492 43.3447 82.8311 45.2815 83.6554C47.2313 84.4797 49.2981 85.0336 51.4039 85.3169C53.5097 85.5874 55.6674 85.5874 57.7732 85.2912L58.5661 85.1752C58.8261 85.1366 59.0861 85.0722 59.3461 85.0207L60.126 84.8532C60.3859 84.7888 60.6459 84.7116 60.8929 84.6343L61.6598 84.4153L62.4137 84.1449C62.6607 84.0547 62.9207 83.9645 63.1677 83.8744L63.9086 83.5653V84.3896C62.5177 83.7069 61.1919 82.8955 59.957 81.9682C58.7221 81.0408 57.6042 79.9847 56.6293 78.7997L56.7593 78.6838C57.8122 79.7657 58.9951 80.7188 60.269 81.5303C61.5428 82.3417 62.8817 83.0114 64.2855 83.5653L65.2474 83.9517L64.2855 84.3896L63.5316 84.7244C63.2717 84.8275 63.0117 84.9305 62.7517 85.0336L61.9718 85.3427L61.1789 85.6003C60.9189 85.6775 60.6459 85.7677 60.3859 85.845L59.567 86.0511C59.2941 86.1155 59.0211 86.1927 58.7481 86.2443L57.9162 86.3859C55.7064 86.7723 53.4447 86.8496 51.2089 86.6306C48.9731 86.4117 46.7633 85.8965 44.6576 85.0851C42.5518 84.2736 40.55 83.166 38.7432 81.8136L38.3922 81.556V81.1439C38.3922 79.0058 38.6392 76.8678 39.1851 74.8199C39.4451 73.7895 39.7961 72.7849 40.186 71.7931C40.407 71.3037 40.589 70.8143 40.836 70.3377C40.9529 70.1059 41.0699 69.8612 41.1869 69.6293L41.5769 68.9338C41.7069 68.702 41.8369 68.4701 41.9798 68.2512L42.3958 67.5814L42.8508 66.9246L43.0717 66.6026L43.3187 66.2935L43.7997 65.6624L44.3196 65.057C44.6576 64.6448 45.0345 64.2713 45.3985 63.8849C46.8803 62.3651 48.5572 61.0514 50.377 59.9695L50.9099 60.7036Z" fill="#52720D"/>
<path d="M51.7937 71.0333C51.0918 69.5006 50.6369 67.8648 50.3899 66.2033C50.1429 64.5419 50.1039 62.8417 50.1819 61.1673L50.9748 61.2189V61.3348L50.1819 61.2961C50.3379 57.0201 51.6508 52.7568 54.0035 49.0732C55.1734 47.2314 56.6162 45.5442 58.2411 44.0501C59.8789 42.5689 61.7247 41.2938 63.7135 40.2763L64.2855 40.0059L64.8184 40.2763C66.0793 40.9203 67.2752 41.6674 68.393 42.5045C69.5109 43.3546 70.5638 44.2691 71.5257 45.2866C73.4495 47.2958 75.0094 49.6271 76.1402 52.1257C77.2711 54.6244 77.9731 57.2905 78.22 59.9953L78.259 60.5105L78.272 61.0128C78.285 61.3477 78.285 61.6825 78.285 62.0174C78.285 62.6872 78.285 63.3569 78.259 64.0267C78.22 65.3662 78.129 66.6928 77.9731 68.0194L77.7521 68.0065C77.8041 66.6799 77.8041 65.3533 77.7391 64.0267C77.7131 63.3698 77.6741 62.7 77.6221 62.0432C77.5961 61.7083 77.5701 61.3863 77.5311 61.0514L77.4791 60.562L77.4011 60.0854C76.9852 57.5095 76.1142 55.0108 74.8794 52.7311C73.6315 50.4514 72.0197 48.4035 70.1219 46.6776C69.173 45.8146 68.1461 45.0419 67.0802 44.3463C66.0013 43.6637 64.8704 43.0712 63.7005 42.5689H64.8054C62.9596 43.3546 61.2048 44.3979 59.6189 45.6472C58.0331 46.8965 56.6032 48.3648 55.3814 50.0006C52.9506 53.272 51.3908 57.2261 50.9488 61.3477L50.1559 61.309V61.1931L50.9488 61.2446C50.7798 62.8804 50.7408 64.529 50.8968 66.1647C51.0528 67.8004 51.4038 69.4104 52.0277 70.9431L51.7937 71.0333Z" fill="#52720D"/>
<path d="M35.2465 85.5617C35.2205 85.7292 35.1945 85.8966 35.1685 86.064C35.0905 86.4762 34.9216 86.8368 34.6616 87.1588C34.4016 87.4679 34.0766 87.6869 33.7127 87.8415C33.1667 88.0862 32.5948 88.1892 32.0099 88.2407C31.152 88.3309 30.281 88.3051 29.4231 88.2407C28.9812 88.215 28.5392 88.1763 28.1103 88.0862C27.6033 87.9702 27.1094 87.8157 26.6284 87.5967C26.1345 87.3778 25.6535 87.1073 25.2116 86.7853C25.0036 86.6436 24.8216 86.4762 24.6266 86.3216C24.5746 86.283 24.5486 86.2315 24.5096 86.18C24.5096 86.1284 24.5096 86.0898 24.5096 86.0383C24.5486 85.8837 24.5746 85.7163 24.6136 85.5617C24.7046 85.1753 24.8476 84.8147 25.0036 84.4541C25.4195 83.5396 25.9525 82.7024 26.5504 81.9167C26.8494 81.5175 27.1744 81.1439 27.4863 80.7447C27.6553 80.5257 27.8763 80.4484 28.1363 80.4356C28.5002 80.4098 28.8642 80.4484 29.2152 80.5128C29.3321 80.5386 29.3971 80.6288 29.4751 80.706C29.7351 80.9894 29.8651 81.3114 29.8651 81.6978C29.8651 81.7879 29.8261 81.8652 29.7611 81.9296C29.6051 82.0713 29.4491 82.213 29.3061 82.3547C29.2412 82.419 29.1762 82.4448 29.0852 82.4448C28.8122 82.4448 28.5392 82.4448 28.2663 82.4448C28.2403 82.4448 28.1883 82.4706 28.1753 82.4963C27.8243 83.1017 27.5383 83.7199 27.4213 84.4154C27.4213 84.4412 27.4213 84.4541 27.4083 84.4798C27.4083 84.4798 27.4083 84.4927 27.4213 84.5056C27.9803 84.0677 28.6172 83.8745 29.3321 83.9389C30.0341 83.9904 30.632 84.2737 31.1 84.8147C31.1909 84.6473 31.2689 84.4798 31.3599 84.3253C31.6069 83.926 31.9579 83.6555 32.3998 83.4881C32.7898 83.3464 33.2057 83.3206 33.6087 83.4108C34.1156 83.5267 34.5446 83.7843 34.8696 84.1965C35.0775 84.4669 35.2075 84.7761 35.2595 85.1238C35.2595 85.1496 35.2725 85.1753 35.2725 85.2011C35.2465 85.317 35.2465 85.4329 35.2465 85.5617Z" fill="white"/>
<path d="M102.931 85.1368C102.801 84.8663 102.671 84.583 102.528 84.3254C102.385 84.0807 102.346 83.836 102.489 83.5784C102.567 83.4367 102.606 83.2692 102.619 83.1018C102.645 82.4965 102.567 81.9298 102.255 81.4017C102.047 81.0539 101.787 80.7448 101.475 80.4872C100.981 80.0622 100.409 79.8046 99.7719 79.6887C99.5899 79.65 99.4079 79.6372 99.2259 79.5985C98.992 79.5985 98.758 79.5985 98.524 79.5985C98.498 79.5985 98.485 79.6114 98.459 79.6114C98.1211 79.6629 97.7701 79.7015 97.4321 79.7659C97.0422 79.8432 96.6782 79.9978 96.3402 80.2167C95.9893 80.4357 95.6903 80.719 95.4303 81.041C95.0664 81.4661 94.7934 81.9426 94.6504 82.4836C94.5334 82.9086 94.4944 83.3465 94.6244 83.7844C94.6894 84.0292 94.7934 84.2739 94.9234 84.4928C95.1444 84.8792 95.3913 85.2399 95.6383 85.6134C95.9763 86.1414 96.1582 86.6953 95.9763 87.3135C95.9633 87.3521 95.9633 87.3908 95.9763 87.4165C95.9633 87.4809 95.9893 87.5582 96.0543 87.5969C96.7432 88.0219 98.576 89.2841 98.758 89.9539C98.771 89.9796 98.784 90.0054 98.81 90.0311C98.823 90.0569 98.849 90.0955 98.888 90.1213C98.927 90.1213 98.966 90.1213 99.005 90.1213C99.044 90.0569 99.096 89.9925 99.1219 89.9281C99.1609 89.8508 99.1739 89.7607 99.2129 89.6834C99.4079 89.2583 99.6159 88.8462 99.8239 88.4212C99.8889 88.2795 100.006 88.1764 100.162 88.1507C100.279 88.1249 100.396 88.1249 100.5 88.1249C100.695 88.1378 100.877 88.1636 101.072 88.1764C101.319 88.1893 101.566 88.1893 101.8 88.0863C102.008 87.9961 102.138 87.8416 102.138 87.6097C102.138 87.4938 102.138 87.3779 102.112 87.262C102.086 87.1461 102.125 87.0559 102.19 86.9786C102.281 86.8498 102.346 86.7082 102.333 86.5407C102.333 86.515 102.346 86.4763 102.372 86.4634C102.463 86.3862 102.515 86.2831 102.502 86.1543C102.502 86.0384 102.502 85.9096 102.502 85.7808C102.528 85.7808 102.554 85.7679 102.58 85.7679C102.866 85.755 103.1 85.4846 102.931 85.1368Z" fill="white"/>
<path d="M63.5055 29.2513C63.5055 29.071 63.7005 26.8814 63.7005 26.4306C63.7005 26.2889 63.7395 25.6836 63.4795 25.7222C63.1936 25.7609 63.1026 26.0313 63.0246 26.3018C62.6606 27.5125 62.0627 28.7232 61.6987 29.921C61.6727 30.0112 61.6467 30.0885 61.6337 30.1786C61.6077 30.3976 61.6077 30.6294 61.5947 30.8484C61.5687 31.1575 61.5687 31.4666 61.5297 31.7757C61.4777 32.2652 61.0228 32.6773 60.6588 33.0122C60.3469 33.3084 60.0219 33.6047 59.7099 33.9009C59.6059 33.9911 59.5929 34.107 59.6449 34.21C59.6839 34.2873 59.6319 34.9184 61.3218 35.1245C61.3478 35.1374 62.1277 34.3388 62.2837 34.2486C62.7516 33.9911 63.0506 34.0555 63.3886 33.6433C63.8045 33.141 63.8045 32.8834 63.8695 32.2394C63.9475 31.4666 63.9085 31.106 64.0515 30.0627C64.1295 29.4702 64.1685 28.9293 63.7525 29.0581C63.5705 29.1483 63.5055 29.3543 63.5055 29.2513Z" fill="white"/>
<path d="M64.6104 29.084C64.1945 28.9552 64.2335 29.4961 64.3114 30.0886C64.4544 31.1447 64.4154 31.4925 64.4934 32.2653C64.5584 32.9093 64.5584 33.1669 64.9744 33.6692C65.3123 34.0813 65.6113 34.0169 66.0793 34.2745C66.2352 34.3647 67.0152 35.1504 67.0412 35.1504C68.731 34.9443 68.679 34.3003 68.718 34.2359C68.783 34.1328 68.757 34.0169 68.653 33.9268C68.341 33.6305 68.0161 33.3343 67.7041 33.0381C67.3401 32.7032 66.8982 32.291 66.8332 31.8016C66.7942 31.4925 66.7812 31.1834 66.7682 30.8743C66.7552 30.6553 66.7422 30.4235 66.7292 30.2045C66.7162 30.1144 66.6902 30.0371 66.6642 29.9469C66.3002 28.7362 65.7023 27.5255 65.3383 26.3277C65.2603 26.0572 65.1694 25.7867 64.8834 25.7481C64.6234 25.7095 64.6624 26.3148 64.6624 26.4565C64.6624 26.9073 64.8574 29.0969 64.8574 29.2772C64.8704 29.3544 64.8054 29.1484 64.6104 29.084Z" fill="white"/>
</g>
<defs>
<filter id="filter0_d" x="13" y="14" width="119" height="110" filterUnits="userSpaceOnUse" color-interpolation-filters="sRGB">
<feFlood flood-opacity="0" result="BackgroundImageFix"/>
<feColorMatrix in="SourceAlpha" type="matrix" values="0 0 0 0 0 0 0 0 0 0 0 0 0 0 0 0 0 0 127 0" result="hardAlpha"/>
<feOffset dx="8" dy="8"/>
<feGaussianBlur stdDeviation="8"/>
<feComposite in2="hardAlpha" operator="out"/>
<feColorMatrix type="matrix" values="0 0 0 0 0 0 0 0 0 0 0 0 0 0 0 0 0 0 0.35 0"/>
<feBlend mode="normal" in2="BackgroundImageFix" result="effect1_dropShadow"/>
<feBlend mode="normal" in="SourceGraphic" in2="effect1_dropShadow" result="shape"/>
</filter>
</defs>
</svg>
