<?xml version="1.0" encoding="utf-8"?>
<!-- Generator: Adobe Illustrator 27.3.1, SVG Export Plug-In . SVG Version: 6.00 Build 0)  -->
<svg version="1.1" id="Layer_1" xmlns="http://www.w3.org/2000/svg" xmlns:xlink="http://www.w3.org/1999/xlink" x="0px" y="0px"
	 viewBox="0 0 1427.1 270.7" style="enable-background:new 0 0 1427.1 270.7;" xml:space="preserve">
<g>
	<g>
		<g>
			<g>
				<path d="M0,98.1l0,156.4c0,8.8,7.2,16,16,16h33.2h27.5c1.1,0,2-0.9,2-2l0-170.6c0-1.4-1.4-2.4-2.7-1.9c-9.2,3.7-20.4,7-35.7,7
					c-16.4,0-28-2.8-37.6-6.8C1.4,95.8,0,96.7,0,98.1z"/>
			</g>
			<circle cx="39.4" cy="39.7" r="39.4"/>
			<g>
				<circle cx="538.5" cy="39.7" r="39.4"/>
				<g>
					<path d="M501.2,270.7c-1.1,0-2-0.9-2-2l0-159.1c0-0.5,0.2-1,0.6-1.4c4.5-4.4,22.8-12.9,38.8-12.9l0,0c16,0,34.2,8.5,38.8,12.9
						c0.4,0.4,0.6,0.9,0.6,1.4l0,145.1c0,8.8-7.2,16-16,16H501.2z"/>
				</g>
			</g>
			<path d="M246.3,170.4"/>
			<g>
				<path d="M207.4,95.4c-4.3,0-8.2-0.1-11.9-0.2c-1.1,0-2.1,0.9-2.1,2l0.1,157.3c0,8.8,7.2,16,16,16h33.2h27.5c1.1,0,2-0.9,2-2
					l0-109.7C272.3,123.8,243.2,95.4,207.4,95.4z"/>
				<path d="M177.4,97.1c0-1.1-0.8-2-1.9-2c-18.6-0.5-28.9-8.5-44.7-8.5c-13.3,0-28,4.7-28,15.8v152.1c0,8.8,7.2,16,16,16h29.1h27.5
					c1.1,0,2-0.9,2-2l0-135.3L177.4,97.1z"/>
			</g>
			<g>
				<path d="M381.1,109C381.1,109,381.1,109,381.1,109l0-12c0-1.1-0.8-2-1.9-2c-0.6,0-1.3,0-2,0c-49,0-88.8,39-88.8,88
					c0,49,39.7,87.7,88.7,87.7c0.4,0,1,0,1.9,0c1.1,0,2-0.9,2-2v-1h0l0-141.4V109z"/>
				<path d="M475.2,268.5l0-260.5c0-5.3-5-9.1-10.1-7.7c-16.9,4.6-33.9,9.3-59.4,16.4c-5.1,1.4-8.6,6.1-8.6,11.4l0,60.5h0v46.8
					c0,0,0,0.1,0,0.1l0,1.5v6.3h0l0,111.2c0,8.8,7.2,16,16,16h60.2C474.3,270.5,475.2,269.6,475.2,268.5z"/>
			</g>
		</g>
		<g>
			<path d="M643.8,146.8l26.2,41l26.1-41.1c1.6-2.5,4.3-3.6,6.6-3.6c3.6,0,7,2.5,7,7v66.3c0,4.4-3.9,6.5-7.4,6.5
				c-3.6,0-7.1-2.1-7.1-6.5v-42.3l-18.7,29.2c-1.4,2.5-4,3.6-6.5,3.6s-5.4-1.5-6.8-4l-18.4-28.7v42.1c0,4.4-3.8,6.5-7.3,6.5
				c-3.6,0-7.3-2.1-7.3-6.5v-66.2c0-4.4,3.5-7.2,7.1-7.2C639.7,143.1,642.3,144.4,643.8,146.8z"/>
			<path d="M784.6,224.2c-24.6,0-41.1-16.4-41.1-41.1c0-24.7,16.6-41.3,41.1-41.3c24.5,0,40.8,16.6,40.8,41.3
				C825.4,207.8,809.1,224.2,784.6,224.2z M810.7,183.1c0-17.1-10.4-28.5-26.1-28.5c-15.8,0-26.3,11.4-26.3,28.5
				c0,16.9,10.5,28.3,26.3,28.3C800.3,211.4,810.7,200,810.7,183.1z"/>
			<path d="M914.9,220.6l-22.5-24h-18.9v19.8c0,4.3-3.8,6.5-7.3,6.5c-3.8,0-7.3-2.3-7.3-6.4v-67c0-3.9,3-6.5,7.3-6.5h28
				c22.5,0,33.9,12,33.9,27.1c0,11.8-6.3,21.1-19.1,24.7l15.1,15.8C931.7,218.7,921.2,227.3,914.9,220.6z M894.4,184.4
				c13.4,0,19.3-6.5,19.1-14.2c-0.1-8.3-7.3-14.5-19.1-14.5h-20.8v28.7H894.4z"/>
			<path d="M1026.7,149.6c0,3.1-2.6,6.4-7.4,6.4H996l0.1,60.3c0,4.5-4.1,6.6-7.4,6.6c-3.5,0-7.3-2.1-7.3-6.6V156h-23.2
				c-4.9,0-7-3.3-7-6.4c0-3.3,2.1-6.5,7-6.5h61.1C1024.1,143.1,1026.7,146.3,1026.7,149.6z"/>
			<path d="M1115.6,208.9c-7.7,8.9-20.7,15.3-32.5,15.3c-24.7,0-40.8-16.9-40.3-41.9c0-24.3,16.3-40.5,40.6-40.5
				c11,0,22.6,4,30,11.9c7.1,7.5-3.4,16.2-10.7,8.5c-5.4-5.6-12.5-8-19.3-8c-15.7,0-26.2,11.5-26.2,28.5c0.3,16.8,10.5,28.8,26,28.8
				c7.3,0,15.2-3.5,20.1-9.2v-12.8H1085c-4.8,0-6.9-3-6.9-6c0-3.3,2.3-6.4,6.9-6.4h25c5.8,0,7.5,2.8,7.5,6.8v19.7
				C1117.5,205.3,1117.1,207.3,1115.6,208.9z"/>
			<path d="M1193.9,145.3l35.5,69.6c3.3,5.5-1.8,9.3-6.5,9.3c-2.4,0-5.1-1.3-6.4-3.6l-8.8-17.4h-40.4l-8.8,17.4
				c-1.3,2.6-3.9,3.6-6.3,3.6c-4.4,0-9.3-4-7-8.9l35.7-70c1.3-2.8,3.3-3.5,6.5-3.5C1190.1,141.8,1192.6,142.8,1193.9,145.3z
				 M1173.4,191h28.1l-14-28L1173.4,191z"/>
			<path d="M1326.6,208.9c-7.7,8.9-20.7,15.3-32.5,15.3c-24.7,0-40.8-16.9-40.3-41.9c0-24.3,16.3-40.5,40.6-40.5
				c11,0,22.6,4,30,11.9c7.1,7.5-3.4,16.2-10.7,8.5c-5.4-5.6-12.5-8-19.3-8c-15.7,0-26.2,11.5-26.2,28.5c0.3,16.8,10.5,28.8,26,28.8
				c7.3,0,15.2-3.5,20.1-9.2v-12.8H1296c-4.8,0-6.9-3-6.9-6c0-3.3,2.3-6.4,6.9-6.4h25c5.8,0,7.5,2.8,7.5,6.8v19.7
				C1328.5,205.3,1328.1,207.3,1326.6,208.9z"/>
			<path d="M1427.1,216.9c0,3-2.3,6-6.9,6h-49.8c-5,0-8.3-3.4-8.3-7.5v-65c0-4,3.3-7.4,8.3-7.4h49.8c4.5,0,6.6,2.9,6.6,6
				c0,3-2.4,6.3-6.6,6.3h-43.8v21.9h41.5c4.3,0,6.5,3.1,6.5,6.3c0,3-2.1,6-6.5,6h-41.5v20.8h43.8
				C1424.5,210.4,1427.1,213.8,1427.1,216.9z"/>
		</g>
	</g>
</g>
</svg>
