<?xml version="1.0" encoding="utf-8"?>
<!-- Generator: Adobe Illustrator 27.3.1, SVG Export Plug-In . SVG Version: 6.00 Build 0)  -->
<svg version="1.1" id="Layer_1" xmlns="http://www.w3.org/2000/svg" xmlns:xlink="http://www.w3.org/1999/xlink" x="0px" y="0px"
	 width="577.9px" height="374.1px" viewBox="0 0 577.9 374.1" style="enable-background:new 0 0 577.9 374.1;" xml:space="preserve"
	>
<path d="M0,98.1v156.4c0,8.8,7.2,16,16,16h60.8c1.1,0,2-0.9,2-2V97.9c0-1.4-1.4-2.4-2.7-1.8c-9.2,3.7-20.4,7-35.7,7
	c-16.4,0-28-2.8-37.6-6.8C1.5,95.8,0,96.7,0,98.1z"/>
<circle cx="39.4" cy="39.7" r="39.4"/>
<ellipse transform="matrix(0.7071 -0.7071 0.7071 0.7071 129.6452 392.3879)" cx="538.5" cy="39.7" rx="39.4" ry="39.4"/>
<path d="M501.2,270.5c-1.1,0-2-0.9-2-2V109.4c0-0.5,0.2-1.1,0.6-1.4c4.5-4.4,22.8-12.9,38.8-12.9l0,0c16,0,34.2,8.5,38.8,12.9
	c0.4,0.4,0.6,0.9,0.6,1.4v145.1c0,8.8-7.2,16-16,16H501.2L501.2,270.5z"/>
<path d="M207.4,95.4c-4.3,0-8.2-0.1-11.9-0.2c-1.1-0.1-2.1,0.9-2.1,2l0.1,157.3c0,8.8,7.2,16,16,16h60.8c1.1,0,2-0.9,2-2V158.9
	C272.2,123.8,243.2,95.5,207.4,95.4L207.4,95.4z"/>
<path d="M177.4,97.1c0-1.1-0.9-2-1.9-2c-18.6-0.5-28.9-8.5-44.7-8.5c-13.3,0-28,4.7-28,15.8v152.1c0,8.8,7.2,16,16,16h56.6
	c1.1,0,2-0.9,2-2V133.3V97.1L177.4,97.1z"/>
<path d="M381,109L381,109V97c0-1.1-0.8-2-1.9-2c-0.6,0-1.3-0.1-2-0.1c-49,0-88.8,39-88.8,88s39.7,87.7,88.7,87.7c0.4,0,1,0,1.9,0
	c1.1,0,2-0.9,2-2v-1l0,0V126.2L381,109L381,109z"/>
<path d="M475.2,268.5V8c0-5.3-5-9.1-10.1-7.7c-16.9,4.6-34,9.3-59.5,16.4c-5.1,1.4-8.6,6.1-8.6,11.4v60.5l0,0v46.8v0.1v1.5v6.3l0,0
	v111.2c0,8.8,7.2,16,16,16h60.1C474.3,270.5,475.2,269.6,475.2,268.5L475.2,268.5z"/>
<g>
	<path d="M31,372.9c-17.4,0-29.1-11.6-29.1-29.1c0-17.4,11.7-29.1,29.1-29.1c17.3,0,28.8,11.7,28.8,29.1
		C59.8,361.3,48.3,372.9,31,372.9z M49.4,343.8c0-12-7.4-20.1-18.4-20.1c-11.2,0-18.6,8.1-18.6,20.1c0,12,7.4,20,18.6,20
		C42.1,363.8,49.4,355.8,49.4,343.8z"/>
	<path d="M114.1,315.5c2.7,0,5.1,1.3,5.1,4.3v46.8c0,3.5-3,5.3-5.9,5.3c-2,0-4.2-1.1-5.3-2.6l-27.1-34.9l0.4,5v27.8
		c0,3.3-2.7,4.7-5.2,4.7c-2.7,0-5.3-1.4-5.3-4.7V321c0-3.5,2.6-5.4,5.4-5.4c2.2,0,3.7,0.9,5.1,2.7l27.8,36.1l-0.4-5.9v-28.5
		C108.7,317.1,111.4,315.5,114.1,315.5z"/>
	<path d="M179.2,331c0,3.8-1.9,8.4-5.2,10.3c6.1,2.5,9.1,7.3,9.1,13.6c0,13.7-12.3,17.1-23.8,17.1h-21.6c-2.8,0-5.2-2.1-5.2-4.7v-47
		c0-2.7,2.4-4.7,5.2-4.7h19.8C166,315.5,179.2,317.8,179.2,331z M142.7,324.3V338h15c6,0,11.3-2,11.3-7c0-5.8-7.2-6.7-11.6-6.7
		H142.7z M142.7,346.8v16.4h16.6c6.4,0,13.4-1.3,13.4-8.3c0-5.4-4.8-8.1-10.8-8.1H142.7z"/>
	<path d="M220.9,372.9c-17.4,0-29.1-11.6-29.1-29.1c0-17.4,11.7-29.1,29.1-29.1c17.3,0,28.8,11.7,28.8,29.1
		C249.7,361.3,238.2,372.9,220.9,372.9z M239.3,343.8c0-12-7.4-20.1-18.4-20.1c-11.2,0-18.6,8.1-18.6,20.1c0,12,7.4,20,18.6,20
		C232,363.8,239.3,355.8,239.3,343.8z"/>
	<path d="M287.5,317.1l25.1,49.2c2.3,3.9-1.2,6.6-4.6,6.6c-1.7,0-3.6-0.9-4.5-2.6l-6.2-12.3h-28.5l-6.2,12.3
		c-0.9,1.9-2.7,2.6-4.4,2.6c-3.1,0-6.6-2.8-5-6.3l25.2-49.4c0.9-1.9,2.3-2.5,4.6-2.5C284.8,314.7,286.6,315.4,287.5,317.1z
		 M273.1,349.4h19.8l-9.9-19.8L273.1,349.4z"/>
	<path d="M360.4,370.3l-15.9-16.9h-13.4v14c0,3-2.7,4.6-5.1,4.6c-2.7,0-5.1-1.6-5.1-4.5v-47.3c0-2.7,2.1-4.6,5.1-4.6h19.8
		c15.9,0,23.9,8.5,23.9,19.1c0,8.3-4.4,14.9-13.5,17.4l10.6,11.2C372.3,369,364.8,375.1,360.4,370.3z M345.9,344.8
		c9.5,0,13.6-4.6,13.5-10c-0.1-5.8-5.1-10.3-13.5-10.3h-14.7v20.3H345.9z"/>
	<path d="M429.7,343.8c0,16.9-10.7,28.2-26.8,28.2h-18.2c-3.2,0-5.8-2.4-5.8-5.2v-46.1c0-2.8,2.7-5.1,5.8-5.1h18.2
		C418.9,315.5,429.7,326.9,429.7,343.8z M419.5,343.8c0-11.7-6.7-19.6-16.7-19.6h-14v39h14C412.7,363.2,419.5,355.5,419.5,343.8z"/>
	<path d="M444,315.5c2.6,0,5.2,1.5,5.2,4.8v47.1c0,3-2.7,4.5-5.2,4.5c-2.7,0-5.1-1.4-5.1-4.5v-47.1
		C438.9,317.1,441.3,315.5,444,315.5z"/>
	<path d="M502.5,315.5c2.7,0,5.1,1.3,5.1,4.3v46.8c0,3.5-3,5.3-5.9,5.3c-2,0-4.2-1.1-5.3-2.6l-27.1-34.9l0.4,5v27.8
		c0,3.3-2.7,4.7-5.2,4.7c-2.7,0-5.3-1.4-5.3-4.7V321c0-3.5,2.6-5.4,5.4-5.4c2.2,0,3.7,0.9,5.1,2.7l27.8,36.1l-0.4-5.9v-28.5
		C497.1,317.1,499.8,315.5,502.5,315.5z"/>
	<path d="M568.6,362.1c-5.4,6.3-14.6,10.8-22.9,10.8c-17.4,0-28.8-12-28.4-29.6c0-17.2,11.5-28.6,28.7-28.6c7.8,0,15.9,2.8,21.2,8.4
		c5,5.3-2.4,11.4-7.5,6c-3.8-4-8.9-5.7-13.6-5.7c-11.1,0-18.5,8.1-18.5,20.1c0.2,11.9,7.4,20.4,18.3,20.4c5.1,0,10.7-2.5,14.2-6.5
		v-9H547c-3.4,0-4.9-2.1-4.9-4.3c0-2.3,1.6-4.5,4.9-4.5h17.6c4.1,0,5.3,1.9,5.3,4.8v13.9C569.9,359.5,569.7,360.9,568.6,362.1z"/>
</g>
</svg>
