<svg width="151" height="104" viewBox="0 0 151 104" fill="none" xmlns="http://www.w3.org/2000/svg">
<path d="M25.75 74.6729V38.1729L88.125 0.922913L150.5 38.1729V103.423H42.25" stroke="black"/>
<path d="M32.9165 42.0214L87.9165 9.92291L142.917 42.0214V95.9229H32.9165V42.0214Z" fill="#C1DE80"/>
<rect x="5.53125" y="96.4229" width="6.25" height="6.125" fill="black" stroke="black"/>
<rect x="38.5" y="96.4229" width="6.25" height="6.125" fill="black" stroke="black"/>
<path d="M47.25 85.1963V96.1729H3.5625V85.1982L8.2674 82.2204L8.35799 82.1631L8.41711 82.0736L13.1439 74.9229H37.1241L42.4742 82.0968L42.5286 82.1698L42.6052 82.2189L47.25 85.1963Z" fill="white" stroke="black"/>
<rect x="0.78125" y="79.5479" width="4.5625" height="2.375" stroke="black"/>
<rect x="45.75" y="79.5479" width="4.5625" height="2.375" stroke="black"/>
<rect x="6.125" y="88.2979" width="8.75" height="2.75" fill="#C1DE80"/>
<rect x="35.375" y="88.2979" width="8.75" height="2.75" fill="#C1DE80"/>
<rect x="81.5415" y="35.4229" width="12.75" height="43.625" fill="white"/>
<rect x="81.5415" y="35.4229" width="12.75" height="43.625" fill="white"/>
<rect x="81.5415" y="35.4229" width="12.75" height="43.625" fill="white"/>
<rect x="81.5415" y="35.4229" width="12.75" height="43.625" fill="white"/>
<rect x="109.938" y="50.8604" width="12.75" height="43.625" transform="rotate(90 109.938 50.8604)" fill="white"/>
<rect x="109.938" y="50.8604" width="12.75" height="43.625" transform="rotate(90 109.938 50.8604)" fill="white"/>
<rect x="109.938" y="50.8604" width="12.75" height="43.625" transform="rotate(90 109.938 50.8604)" fill="white"/>
<rect x="109.938" y="50.8604" width="12.75" height="43.625" transform="rotate(90 109.938 50.8604)" fill="white"/>
</svg>
