<svg width="125" height="108" viewBox="0 0 125 108" fill="none" xmlns="http://www.w3.org/2000/svg">
<path d="M62.5125 1.56956L124.387 38.521V53.1729H0.637451V38.521L62.5125 1.56956Z" stroke="black"/>
<path d="M7.30396 42.0857L62.304 9.98718L117.304 42.0857V46.9872H7.30396V42.0857Z" fill="#C1DE80"/>
<rect x="8.25" y="53.4229" width="11" height="41.0513" stroke="black"/>
<rect x="28.75" y="53.4229" width="11" height="41.0513" stroke="black"/>
<rect x="105.804" y="53.4229" width="11" height="41.0513" stroke="black"/>
<rect x="85.054" y="53.4229" width="11" height="41.0513" stroke="black"/>
<rect x="0.637451" y="94.6936" width="123.75" height="12.4793" stroke="black"/>
<rect x="5.27686" y="98.1832" width="114.054" height="5.5" fill="#C1DE80"/>
<path d="M67.5445 34.7329C67.5445 35.7169 67.1845 36.5629 66.4645 37.2709C65.7445 37.9669 64.7065 38.3989 63.3505 38.5669V40.5829H61.5505V38.6209C60.6625 38.5729 59.8165 38.4169 59.0125 38.1529C58.2085 37.8889 57.5605 37.5649 57.0685 37.1809L58.0585 34.9849C58.5145 35.3209 59.0485 35.6029 59.6605 35.8309C60.2725 36.0589 60.9025 36.2029 61.5505 36.2629V33.2569C60.6985 33.0529 59.9785 32.8249 59.3905 32.5729C58.8025 32.3209 58.3105 31.9549 57.9145 31.4749C57.5185 30.9829 57.3205 30.3349 57.3205 29.5309C57.3205 28.5349 57.6805 27.6829 58.4005 26.9749C59.1325 26.2549 60.1825 25.8169 61.5505 25.6609V23.6629H63.3505V25.6249C64.8265 25.7449 66.0445 26.1109 67.0045 26.7229L66.1045 28.9369C65.2045 28.4209 64.2865 28.1089 63.3505 28.0009V31.0609C64.1905 31.2529 64.8985 31.4749 65.4745 31.7269C66.0625 31.9669 66.5545 32.3329 66.9505 32.8249C67.3465 33.3049 67.5445 33.9409 67.5445 34.7329ZM60.2185 29.3869C60.2185 29.6869 60.3325 29.9329 60.5605 30.1249C60.7885 30.3169 61.1185 30.4789 61.5505 30.6109V28.0549C61.0945 28.1629 60.7585 28.3369 60.5425 28.5769C60.3265 28.8049 60.2185 29.0749 60.2185 29.3869ZM63.3505 36.1909C63.7825 36.0949 64.1065 35.9389 64.3225 35.7229C64.5385 35.5069 64.6465 35.2489 64.6465 34.9489C64.6465 34.6489 64.5325 34.4029 64.3045 34.2109C64.0885 34.0189 63.7705 33.8509 63.3505 33.7069V36.1909Z" fill="black"/>
</svg>
