<?xml version="1.0" encoding="utf-8"?>
<!-- Generator: Adobe Illustrator 25.2.0, SVG Export Plug-In . SVG Version: 6.00 Build 0)  -->
<svg version="1.1" id="Layer_1" xmlns="http://www.w3.org/2000/svg" xmlns:xlink="http://www.w3.org/1999/xlink" x="0px" y="0px"
	 width="488.8px" height="351.1px" viewBox="0 0 488.8 351.1" style="enable-background:new 0 0 488.8 351.1;" xml:space="preserve"
	>
<style type="text/css">
	.st0{fill:#84BD00;}
	.st1{fill:none;stroke:#FF0000;stroke-width:4;stroke-miterlimit:10;}
</style>
<g>
	<g>
		<path d="M240.5,121.4c4.5-4.5,10-6.6,16.6-6.6c6.6,0.1,12.5,2.7,17.5,7.6c5.2,5.1,7.9,11.1,8.1,17.8c0.2,6.8-2.1,12.4-6.7,17.1
			c-4.7,4.8-10.4,7.1-16.8,6.9c-6.6-0.1-12.5-2.8-17.9-8.1c-5.4-5.4-8.1-11.7-7.8-18.8C233.7,131.2,236.1,125.9,240.5,121.4z
			 M242,123.7c-3,3.1-4.4,6.6-3.9,10.8c0.5,5.1,3.5,10.4,9,15.9c5.6,5.6,11.1,8.7,16.5,9.3c4.1,0.4,7.7-0.8,10.7-3.8
			c3.2-3.2,4.5-7.1,4.2-11.7c-0.4-4.7-3.3-9.6-8.8-14.9c-5.9-5.8-11.5-9-16.6-9.6C248.8,119,245.2,120.5,242,123.7z"/>
		<path d="M316.2,115.6l-42-15.4l22.9,22.8c2.1,2.1,3.7,3.1,4.7,3.3c1.3,0.1,2.6-0.6,4-2l1.2-1.2l0.9,0.9l-11.9,12L295,135l1.2-1.2
			c1.4-1.4,2-2.9,1.7-4.4c-0.2-0.8-1.2-2.4-3.1-4.3l-22.4-22.3c-1.5-1.5-2.8-2.4-3.8-2.8c-0.8-0.3-1.6-0.2-2.5,0.1
			c-0.9,0.3-2.1,1.1-3.5,2.6l-0.9-0.9l9.7-9.8l39.3,14.2l-14.8-39l9.7-9.8l0.9,0.9l-1.2,1.2c-1.4,1.4-2.1,3-1.8,4.5
			c0.2,0.8,1.2,2.4,3.1,4.3L329,90.7c2.1,2.1,3.7,3.1,4.7,3.3c1.3,0.1,2.6-0.6,4-2l1.2-1.2l0.9,0.9l-14.5,14.6l-0.9-0.9l1.2-1.2
			c1.4-1.4,2-2.9,1.7-4.4c-0.2-0.8-1.2-2.4-3.1-4.3l-22.9-22.8l15.7,41.9L316.2,115.6L316.2,115.6z"/>
		<g>
			<polygon points="128.8,212 146.2,219 165.7,214.3 118.3,195.3 116.7,196.8 127.1,223 132.6,221.8 			"/>
			<path d="M139.2,238.7l-5.6,0.4l10.5,26.3c2.5,6,3.6,10.5,3.5,13.3c-0.1,1.4-1,3.6-3,6.4l1.6,1.6l18.5-18.6l-1.6-1.6
				c-3,2.7-5.3,4-6.8,4.3c-1.5,0.2-2.7-0.2-3.6-1.1c-1.1-1.1-2.3-3.3-3.7-6.5l-5.2-13.1l-1.9-4.6L139.2,238.7z"/>
		</g>
		<g>
			<path d="M248.3,179.9c-0.8-0.3-2.9-1.7-4.7-3.5l-22.2-22c-2-2-3.2-3.5-3.3-4.5c-0.2-1.5,0.4-3,1.8-4.3l1.3-1.3l-0.9-0.9
				l-14.6,14.7l0.9,0.9l1.2-1.2c0.8-0.8,1.8-1.4,2.9-1.7c0.8-0.2,1.5-0.2,2.1,0.1c0.8,0.3,2,1.3,3.8,3.1l22.2,22
				c0.9,0.9,1.7,1.7,2.3,2.4"/>
		</g>
		<g>
			<path class="st0" d="M70.2,227.7c46.7,9.1,91,1.6,130.3-13.2l-0.8-9.4C123,234.7,70.2,227.7,70.2,227.7z"/>
			<path class="st0" d="M366,94.6c-55.5,52-115.2,90-160.4,108.2l1,9.3C296.9,176.1,366,94.6,366,94.6z"/>
		</g>
		<g>
			<path d="M89,239.5c0,0,44.5,14.3,112.9-11.1l-0.7-8C166,234.6,127.7,243,89,239.5z"/>
			<path d="M382.1,91.3c0,0-82.6,88-174.9,126.7l0.9,8C253.8,207.8,322.3,160.1,382.1,91.3z"/>
		</g>
		<g>
			<path d="M202.5,192l-2-15.5c-0.4-3.1-0.5-5.4-0.4-6.9c0.1-1.4,0.4-2.8,1-4.1c0.3-0.8,0.9-1.8,1.9-2.8l-0.9-0.9l-12.1,12.1
				l0.9,0.9c1.2-1.2,2.1-2,2.6-2.1c0.6-0.3,1.1-0.3,1.7-0.2c0.4,0.1,0.9,0.3,1.3,0.6c0.3,0.3,0.6,0.8,0.8,1.3
				c0.2,0.5,0.3,1.5,0.6,3.1l1.7,13.8l-13.1-2.6c-2-0.3-3.3-0.9-3.9-1.5c-0.5-0.5-0.7-1.2-0.5-2c0.1-0.9,0.8-2,2.1-3.5l-0.9-0.9
				L167.2,197l0.9,0.9c1.8-1.6,3.6-2.6,5.7-3.1c2.1-0.4,5.4-0.2,9.9,0.6l16.7,3.1l3.2,30.7c0.3,2.7,0.4,5,0.2,6.6
				c-0.2,1.7-0.6,3.3-1.2,4.7c-0.3,0.8-0.9,1.8-1.7,2.7l0.9,0.9L214,232l-0.9-0.9c-1.3,1.2-2.4,1.9-3.2,2s-1.4-0.1-2-0.7
				c-0.3-0.3-0.6-0.8-0.8-1.3c-0.2-0.5-0.4-1.6-0.6-3.3l-3.3-28.9l5.1,1c2.5-1.2,7.5-3.2,10.4-4.7L202.5,192z"/>
		</g>
	</g>
	<g>
		<path class="st0" d="M195.4,315.5l-5.4-5.4l1.8,7.2l-0.9,0.9l-7-1.8l5.4,5.3l-1.9,2l-9.1-9l1.7-1.7l9.1,2.3l-2.4-9l1.7-1.7l9.1,9
			C197.3,313.6,195.4,315.5,195.4,315.5z"/>
		<path class="st0" d="M204,306c-0.9,0.3-1.8,0.3-2.6,0.1s-1.7-0.7-2.4-1.3s-1.1-1.4-1.4-2.4c-0.2-0.8-0.2-1.7,0.1-2.6
			c0.3-0.9,0.8-1.7,1.5-2.4c0.7-0.7,1.5-1.2,2.4-1.5s1.8-0.3,2.6-0.1s1.7,0.7,2.4,1.3s1.1,1.4,1.4,2.4c0.2,0.8,0.2,1.7-0.1,2.6
			c-0.3,0.9-0.8,1.7-1.5,2.4C205.7,305.2,204.9,305.8,204,306z M205.5,301.1c0-0.7-0.3-1.4-0.9-1.9c-0.6-0.6-1.2-0.8-1.9-0.9
			s-1.3,0.3-1.8,0.8c-0.5,0.5-0.8,1.1-0.8,1.8c0,0.7,0.3,1.4,0.9,1.9s1.2,0.8,1.9,0.9s1.3-0.3,1.8-0.8
			C205.2,302.4,205.6,301.7,205.5,301.1z"/>
		<path class="st0" d="M211.2,285.9c0.3-0.6,0.6-1.1,1.2-1.7l1.9,1.9c-0.3,0.3-0.3,0.3-0.4,0.4c-0.6,0.6-0.8,1.2-0.8,1.9
			c0,0.7,0.3,1.4,0.9,1.9l3.3,3.3l-2.1,2.1l-7-6.9l1.9-2l0.9,0.9C210.8,287.1,210.9,286.5,211.2,285.9z"/>
		<path class="st0" d="M228.6,281.4c0,0.3-0.2,0.7-0.4,1.1c-0.2,0.3-0.5,0.7-0.8,1c-0.8,0.8-1.6,1.3-2.5,1.4
			c-0.9,0.1-1.7-0.3-2.5-1.2l-2.9-2.9l-1.1,1.1l-1.5-1.5l1.1-1.1l-1.7-1.7l2-2l1.7,1.7l1.7-1.7l1.5,1.5l-1.7,1.7l2.8,2.8
			c0.3,0.3,0.6,0.4,0.9,0.4c0.3,0,0.6-0.1,0.9-0.4c0.3-0.3,0.5-0.7,0.6-1.1L228.6,281.4z"/>
		<path class="st0" d="M233.6,262.9l5.9,5.8c1.3,1.3,1.9,2.5,1.9,3.9c-0.1,1.3-0.7,2.5-1.9,3.8c-0.7,0.7-1.3,1.2-2.2,1.7
			c-0.8,0.5-1.5,0.7-2.2,0.9l-0.7-2.2c0.5,0,1.1-0.3,1.7-0.5c0.6-0.3,1.2-0.7,1.6-1.1c0.7-0.7,1-1.4,1-2c0-0.7-0.3-1.3-0.9-1.9
			l-0.3-0.3c0.1,1.1-0.4,2.1-1.3,3.1c-0.7,0.7-1.4,1-2.2,1.4c-0.8,0.3-1.6,0.3-2.5,0.1c-0.8-0.2-1.6-0.6-2.3-1.3s-1.1-1.4-1.3-2.3
			c-0.2-0.8-0.2-1.7,0.1-2.5c0.3-0.8,0.7-1.5,1.3-2.2c1-1,2.1-1.4,3.3-1.3l-0.9-0.9L233.6,262.9z M235.7,270c0-0.7-0.3-1.3-0.8-1.8
			c-0.5-0.5-1.1-0.8-1.8-0.8s-1.3,0.3-1.9,0.9c-0.6,0.6-0.8,1.2-0.8,1.9c0,0.7,0.3,1.3,0.8,1.8c0.5,0.5,1.1,0.8,1.8,0.8
			c0.7,0,1.3-0.3,1.9-0.9C235.4,271.3,235.6,270.6,235.7,270z"/>
		<path class="st0" d="M245,252.8c1.1-0.1,2.1,0.4,3.1,1.4l4,4l-1.9,1.9l-0.8-0.8c0.3,1-0.2,2-1.2,3.1c-0.5,0.5-1.1,0.9-1.6,1.1
			c-0.6,0.3-1.1,0.3-1.7,0.2s-1-0.3-1.4-0.8c-0.7-0.7-0.9-1.4-0.8-2.3c0.2-0.8,0.7-1.9,1.7-2.9l1.6-1.6c-0.4-0.4-0.9-0.6-1.4-0.6
			s-1,0.3-1.5,0.9c-0.3,0.3-0.7,0.8-0.9,1.3c-0.3,0.4-0.4,0.9-0.4,1.4l-2.2-0.7c0.1-0.6,0.3-1.4,0.8-1.9c0.3-0.7,0.8-1.4,1.3-1.9
			C242.9,253.4,244,252.8,245,252.8z M248.1,259.3c0.1-0.4,0-0.8-0.1-1.3l-0.7-0.7l-1.3,1.4c-0.8,0.8-1,1.5-0.4,2.1
			c0.3,0.3,0.5,0.3,0.9,0.3c0.4-0.1,0.8-0.3,1.1-0.6C247.8,260.2,248.1,259.8,248.1,259.3z"/>
		<path class="st0" d="M257.9,238.5l5.9,5.8c1.3,1.3,1.9,2.5,1.9,3.9c-0.1,1.3-0.7,2.5-1.9,3.8c-0.7,0.7-1.3,1.2-2.2,1.7
			c-0.8,0.5-1.5,0.7-2.2,0.9l-0.7-2.2c0.5,0,1.1-0.3,1.7-0.5c0.6-0.3,1.2-0.7,1.6-1.1c0.7-0.7,1-1.4,1-2c0-0.7-0.3-1.3-0.9-1.9
			l-0.3-0.3c0.1,1.1-0.4,2.1-1.3,3.1c-0.7,0.7-1.4,1-2.2,1.4c-0.8,0.3-1.6,0.3-2.5,0.1c-0.8-0.2-1.6-0.6-2.3-1.3s-1.1-1.4-1.3-2.3
			c-0.2-0.8-0.2-1.7,0.1-2.5c0.3-0.8,0.7-1.5,1.3-2.2c1-1,2.1-1.4,3.3-1.3l-0.9-0.9L257.9,238.5z M259.9,245.6
			c0-0.7-0.3-1.3-0.8-1.8c-0.5-0.5-1.1-0.8-1.8-0.8c-0.7,0-1.3,0.3-1.9,0.9s-0.8,1.2-0.8,1.9c0,0.7,0.3,1.3,0.8,1.8
			c0.5,0.5,1.1,0.8,1.8,0.8c0.7,0,1.3-0.3,1.9-0.9S259.9,246.2,259.9,245.6z"/>
		<path class="st0" d="M274.2,230.2l-5.2,5.3c0.5,0.3,1.1,0.4,1.7,0.3c0.6-0.1,1.1-0.4,1.7-1c0.3-0.3,0.6-0.8,0.8-1.1
			s0.3-0.8,0.2-1.3l2.3,0.1c0.1,1.4-0.5,2.7-1.8,4c-0.8,0.8-1.6,1.3-2.5,1.7c-0.9,0.3-1.9,0.3-2.7,0.2c-0.8-0.2-1.7-0.7-2.4-1.3
			c-0.7-0.7-1.1-1.4-1.4-2.4c-0.3-0.9-0.3-1.8,0.1-2.6c0.3-0.8,0.8-1.6,1.4-2.3c0.7-0.7,1.4-1.1,2.3-1.4s1.7-0.3,2.5,0
			c0.8,0.3,1.7,0.7,2.5,1.4C273.8,229.6,273.8,229.9,274.2,230.2z M267.3,232.8c-0.1,0.6,0.1,1.1,0.5,1.7l3.5-3.5
			c-0.5-0.3-1-0.5-1.6-0.4c-0.6,0.1-1.1,0.3-1.5,0.7C267.5,231.7,267.3,232.2,267.3,232.8z"/>
		<path class="st0" d="M296.2,213.6c-0.8,0.5-1.6,0.8-2.4,0.9l-0.9-2.3c0.7-0.2,1.4-0.3,2-0.7c0.7-0.3,1.4-0.9,1.9-1.4
			c0.6-0.6,0.9-1.1,1.1-1.6c0.1-0.4,0-0.8-0.3-1.1c-0.3-0.3-0.5-0.3-0.8-0.3c-0.3,0-0.7,0.2-1,0.3s-0.8,0.4-1.4,0.9
			c-0.8,0.5-1.6,0.9-2.2,1.2c-0.6,0.3-1.3,0.4-1.9,0.3c-0.7,0-1.4-0.3-1.9-0.9c-0.5-0.5-0.9-1.2-1-1.9c-0.2-0.7-0.1-1.4,0.2-2.3
			c0.3-0.8,0.9-1.6,1.8-2.5c0.6-0.6,1.3-1.1,1.9-1.5s1.4-0.7,2-0.9l0.9,2.3c-1.4,0.3-2.4,1-3.2,1.9c-0.6,0.6-0.9,1.1-1,1.5
			c-0.1,0.4,0,0.8,0.3,1.2c0.3,0.3,0.7,0.3,1.2,0.2c0.5-0.2,1.2-0.5,1.9-1.1c0.8-0.5,1.6-0.9,2.2-1.2c0.6-0.3,1.3-0.4,1.9-0.3
			c0.7,0,1.4,0.3,1.9,0.9c0.5,0.5,0.9,1.2,1,1.9c0.2,0.7,0,1.5-0.2,2.3c-0.3,0.8-0.9,1.6-1.8,2.5
			C297.9,212.6,297.1,213.1,296.2,213.6z"/>
		<path class="st0" d="M308.1,201.1c-0.9,0.3-1.8,0.3-2.6,0.1c-0.8-0.2-1.7-0.7-2.4-1.3s-1.1-1.4-1.4-2.4c-0.2-0.8-0.2-1.7,0.1-2.6
			c0.3-0.9,0.8-1.7,1.5-2.4c0.8-0.8,1.5-1.2,2.4-1.5c0.9-0.3,1.8-0.3,2.6-0.1c0.8,0.2,1.7,0.7,2.4,1.3c0.7,0.7,1.1,1.4,1.4,2.4
			c0.2,0.8,0.2,1.7-0.1,2.6c-0.3,0.9-0.8,1.7-1.5,2.4C309.8,200.5,309,201,308.1,201.1z M309.6,196.2c0-0.7-0.3-1.4-0.9-1.9
			c-0.6-0.6-1.2-0.8-1.9-0.9c-0.7,0-1.3,0.3-1.8,0.8c-0.5,0.5-0.8,1.1-0.8,1.8c0,0.7,0.3,1.4,0.9,1.9c0.6,0.6,1.2,0.8,1.9,0.9
			c0.7,0,1.3-0.3,1.8-0.8S309.6,196.9,309.6,196.2z"/>
		<path class="st0" d="M309.6,181.2l2-2l9.6,9.5l-2,2L309.6,181.2z"/>
		<path class="st0" d="M326.7,169.2l7,6.9l-1.9,2l-0.8-0.8c0.1,0.6-0.1,1.1-0.2,1.6c-0.2,0.5-0.5,1-0.9,1.4c-0.9,0.9-1.9,1.4-3,1.4
			c-1,0-2-0.5-3.1-1.6l-3.9-3.9l2-2l3.7,3.6c1.1,1.1,2.2,1.2,3.1,0.2c0.5-0.5,0.7-1,0.7-1.7c-0.1-0.6-0.3-1.2-1-1.9l-3.5-3.5
			L326.7,169.2L326.7,169.2z"/>
		<path class="st0" d="M343.4,165.8c0,0.3-0.2,0.7-0.4,1.1c-0.2,0.3-0.5,0.7-0.8,1c-0.8,0.8-1.6,1.3-2.5,1.4c-0.8,0-1.7-0.3-2.5-1.2
			l-2.9-2.9l-1.1,1.1l-1.5-1.5l1.1-1.1l-1.7-1.7l2-2l1.7,1.7l1.7-1.7l1.5,1.5l-1.7,1.7l2.8,2.8c0.3,0.3,0.6,0.4,0.9,0.4
			c0.3,0,0.6-0.1,0.9-0.4c0.3-0.3,0.5-0.7,0.6-1.1L343.4,165.8z"/>
		<path class="st0" d="M340.2,153c-0.5,0-0.8-0.2-1.1-0.4c-0.3-0.3-0.5-0.7-0.4-1.1c0.1-0.4,0.2-0.8,0.6-1.3
			c0.4-0.4,0.8-0.6,1.3-0.6c0.4-0.1,0.8,0.2,1.1,0.4c0.3,0.3,0.5,0.7,0.5,1.2c0,0.5-0.2,0.8-0.6,1.3C341.1,153,340.7,153,340.2,153z
			 M341.4,154.4l2-2l7,6.9l-2,2L341.4,154.4z"/>
		<path class="st0" d="M356.8,152.1c-0.9,0.3-1.8,0.3-2.6,0.1c-0.8-0.2-1.7-0.7-2.4-1.3c-0.7-0.7-1.1-1.4-1.4-2.4
			c-0.2-0.8-0.2-1.7,0.1-2.6c0.3-0.9,0.8-1.7,1.5-2.4c0.8-0.8,1.5-1.2,2.4-1.5c0.9-0.3,1.8-0.3,2.6-0.1c0.8,0.2,1.7,0.7,2.4,1.3
			c0.7,0.7,1.1,1.4,1.4,2.4c0.2,0.8,0.2,1.7-0.1,2.6c-0.3,0.9-0.8,1.7-1.5,2.4C358.5,151.4,357.7,151.9,356.8,152.1z M358.4,147.1
			c0-0.7-0.3-1.4-0.9-1.9c-0.6-0.6-1.2-0.8-1.9-0.9c-0.7,0-1.3,0.3-1.8,0.8c-0.5,0.5-0.8,1.1-0.8,1.8c0,0.7,0.3,1.4,0.9,1.9
			c0.6,0.6,1.2,0.8,1.9,0.9c0.7,0,1.3-0.3,1.8-0.8S358.4,147.8,358.4,147.1z"/>
		<path class="st0" d="M367.9,129.1c1,0,2,0.5,3.1,1.5l4,4l-2,2l-3.7-3.6c-0.6-0.6-1-0.8-1.6-0.9c-0.5,0-1,0.2-1.4,0.6
			c-0.5,0.5-0.8,1.1-0.7,1.7c0,0.7,0.3,1.2,1,1.9l3.5,3.5l-2,2l-7-6.9l1.9-2l0.8,0.8c0-0.5,0.1-1.1,0.3-1.7c0.3-0.6,0.6-1.1,1-1.5
			C365.9,129.5,366.8,129.1,367.9,129.1z"/>
		<path class="st0" d="M381,128.3c-0.8,0.4-1.4,0.7-1.9,0.9l-0.8-2.1c0.5-0.2,1-0.3,1.6-0.6c0.5-0.3,1-0.7,1.4-1.1
			c0.8-0.8,1.1-1.4,0.7-1.9c-0.2-0.2-0.4-0.3-0.8-0.1c-0.3,0.2-0.8,0.4-1.4,0.9c-0.7,0.5-1.2,0.9-1.8,1.1c-0.4,0.3-1,0.3-1.5,0.3
			s-1.1-0.2-1.6-0.8c-0.4-0.4-0.7-1-0.8-1.6c-0.1-0.6,0-1.2,0.3-1.9c0.3-0.7,0.8-1.4,1.4-2c0.5-0.5,1.1-0.9,1.6-1.3
			c0.6-0.4,1.2-0.7,1.6-0.8l0.8,2.1c-0.9,0.3-1.8,0.8-2.5,1.5c-0.4,0.4-0.7,0.8-0.8,1.1c-0.1,0.3-0.1,0.6,0.2,0.8s0.4,0.3,0.8,0.1
			c0.3-0.2,0.8-0.4,1.4-0.9c0.7-0.5,1.2-0.9,1.8-1.1c0.4-0.3,1-0.3,1.5-0.3c0.5,0,1.1,0.2,1.6,0.8c0.4,0.4,0.7,1,0.8,1.6
			c0.1,0.6-0.1,1.3-0.3,1.9c-0.3,0.7-0.8,1.4-1.5,2C382.3,127.4,381.6,127.9,381,128.3z"/>
	</g>
</g>
<line class="st1" x1="77.5" y1="28.7" x2="367.8" y2="319"/>
</svg>
