<?xml version="1.0" encoding="utf-8"?>
<!-- Generator: Adobe Illustrator 25.2.0, SVG Export Plug-In . SVG Version: 6.00 Build 0)  -->
<svg version="1.1" id="Layer_1" xmlns="http://www.w3.org/2000/svg" xmlns:xlink="http://www.w3.org/1999/xlink" x="0px" y="0px"
	 width="488.8px" height="351.1px" viewBox="0 0 488.8 351.1" style="enable-background:new 0 0 488.8 351.1;" xml:space="preserve"
	>
<style type="text/css">
	.st0{fill:#84BD00;}
	.st1{fill:none;stroke:#FF0000;stroke-width:4;stroke-miterlimit:10;}
</style>
<g>
	
		<image style="overflow:visible;opacity:0.75;" width="335" height="176" xlink:href="9AC61F3D6A2171DE.png"  transform="matrix(1 0 0 1 81 85.079)">
	</image>
	<g>
		<g>
			<g>
				<path d="M281,138.2c6.2,0,11.5,2.3,16.1,7c4.5,4.7,6.8,10.6,6.8,17.5c0,7.2-2.2,13.2-6.8,18c-4.6,4.8-10.1,7.2-16.6,7.2
					c-6.6,0-12.1-2.3-16.4-6.9c-4.5-4.7-6.7-10.7-6.7-18.1c0-7.5,2.6-13.7,7.8-18.4C269.5,140.2,274.8,138.2,281,138.2z
					 M280.4,140.8c-4.2,0-7.6,1.5-10.2,4.7c-3.2,3.9-4.8,9.6-4.8,17.3c0,7.7,1.6,13.7,4.9,17.8c2.6,3.2,5.9,4.8,10.1,4.8
					c4.5,0,8.1-1.8,11-5.2c2.9-3.5,4.3-8.9,4.3-16.4c0-8.1-1.6-14.2-4.8-18.2C288.4,142.3,284.9,140.8,280.4,140.8z"/>
				<path d="M337.4,186.8l-18.3-39.9v31.7c0,2.9,0.4,4.7,0.9,5.5c0.8,0.9,2.2,1.4,4.1,1.4h1.6v1.3h-16.6v-1.3h1.6
					c2,0,3.4-0.6,4.2-1.9c0.5-0.7,0.8-2.5,0.8-5.2v-31c0-2.1-0.2-3.6-0.7-4.6c-0.4-0.7-0.9-1.3-1.8-1.6c-0.8-0.5-2.2-0.7-4.2-0.7
					v-1.3h13.5l17.3,37.2l16.9-37.2h13.5v1.3h-1.6c-2,0-3.5,0.6-4.3,1.9c-0.5,0.7-0.8,2.5-0.8,5.2v31c0,2.9,0.4,4.7,0.9,5.5
					c0.8,0.9,2.2,1.4,4.1,1.4h1.6v1.3h-20.2v-1.3h1.6c2,0,3.4-0.6,4.2-1.9c0.5-0.7,0.8-2.5,0.8-5.2v-31.7l-18.3,39.9h-1.1V186.8z"/>
				<g>
					<polygon points="140.7,123.1 147.9,140 164.7,150.3 145.1,104.2 142.9,104.2 131.9,129.4 136.5,132.5 					"/>
					<path d="M129.3,148.8l-4.1-3.6l-11,25.5c-2.5,5.9-4.8,9.7-6.8,11.6c-1.1,0.9-3.2,1.8-6.6,2.3v2.2h25.7v-2.2
						c-4-0.2-6.5-0.9-7.6-1.8c-1.2-0.9-1.8-2-1.8-3.3c0-1.5,0.7-3.9,2-7l5.5-12.7l1.9-4.5L129.3,148.8z"/>
				</g>
				<g>
					<path d="M245.7,184c-0.4-0.8-0.8-3.2-0.8-5.6v-30.6c0-2.8,0.2-4.7,0.8-5.4c0.9-1.2,2.3-1.8,4.2-1.8h1.8v-1.3h-20.3v1.3h1.6
						c1.2,0,2.2,0.2,3.2,0.8c0.7,0.5,1.2,0.9,1.4,1.5c0.4,0.8,0.5,2.3,0.5,4.8v30.6c0,1.3,0,2.3-0.1,3.3"/>
				</g>
				<g>
					<path class="st0" d="M89.3,93.1c26,38.7,61.8,64.5,99.2,81.6l6-7C120.9,134.7,89.3,93.1,89.3,93.1z"/>
					<path class="st0" d="M386.4,207c-74.6-2.7-142.3-18-186.2-36.9l-5.8,7.2C282,215.3,386.4,207,386.4,207z"/>
				</g>
				<g>
					<path d="M94.1,114.4c0,0,20.8,40.9,85.7,70.9l5-6C150.7,164.5,118.4,143.8,94.1,114.4z"/>
					<path d="M399.9,216c0,0-118.4,3.3-209.1-34.2l-4.9,6.1C230.1,207.2,310.6,222,399.9,216z"/>
				</g>
				<g>
					<path d="M205.5,160.5l9.4-12.1c1.9-2.5,3.4-4.1,4.5-5s2.2-1.6,3.5-2.1c0.8-0.4,1.9-0.6,3.3-0.6v-1.3h-16.8v1.3
						c1.6,0,2.8,0.1,3.3,0.4c0.6,0.2,0.9,0.6,1.3,1.1c0.2,0.4,0.5,0.8,0.5,1.3s-0.1,0.9-0.4,1.4c-0.2,0.5-0.8,1.3-1.8,2.6l-8.5,10.7
						l-7.3-10.9c-1.2-1.6-1.6-2.9-1.6-3.8c0-0.7,0.4-1.3,1.1-1.8c0.7-0.6,2-0.8,3.9-0.9v-1.3h-22.2v1.3c2.3,0.1,4.3,0.7,6.1,1.9
						c1.8,1.2,3.9,3.6,6.5,7.3l9.4,13.7l-19.1,23.5c-1.6,2.1-3.2,3.8-4.5,4.7c-1.3,1.1-2.7,1.9-4.1,2.5c-0.8,0.4-1.9,0.6-3.1,0.7
						v1.3h16.8v-1.3c-1.8-0.1-2.9-0.4-3.6-0.8s-0.9-1.1-0.9-1.9c0-0.5,0.1-0.9,0.4-1.4s0.8-1.4,1.9-2.7l17.8-22.3l2.8,4.2
						c2.6,0.9,7.4,3.1,10.5,4L205.5,160.5z"/>
				</g>
			</g>
			<g>
				<path class="st0" d="M114.8,241v-7.5l-3.8,6.2h-1.3l-3.6-6.1v7.4h-2.7v-12.6h2.3l4.7,7.9l4.6-7.9h2.3V241
					C117.3,241,114.8,241,114.8,241z"/>
				<path class="st0" d="M127.2,240.4c-0.8-0.5-1.4-1.1-1.9-1.8s-0.7-1.6-0.7-2.6s0.2-1.8,0.7-2.6c0.5-0.7,1.1-1.3,1.9-1.8
					c0.8-0.5,1.8-0.6,2.7-0.6s1.9,0.2,2.7,0.6c0.8,0.4,1.4,1.1,1.9,1.8s0.7,1.6,0.7,2.6s-0.2,1.8-0.7,2.6c-0.5,0.7-1.1,1.3-1.9,1.8
					s-1.8,0.6-2.7,0.6S128,240.9,127.2,240.4z M131.7,238c0.5-0.5,0.7-1.2,0.7-2s-0.2-1.4-0.7-2c-0.5-0.6-1.1-0.7-1.8-0.7
					c-0.7,0-1.3,0.2-1.8,0.7c-0.5,0.5-0.7,1.2-0.7,2s0.2,1.4,0.7,2c0.5,0.6,1.1,0.7,1.8,0.7C130.6,238.7,131.3,238.5,131.7,238z"/>
				<path class="st0" d="M146.2,231.5c0.6-0.2,1.2-0.4,2-0.4v2.6c-0.4,0-0.5,0-0.6,0c-0.8,0-1.4,0.2-1.9,0.7s-0.7,1.2-0.7,2v4.6
					h-2.9v-9.6h2.7v1.3C145.2,232.1,145.6,231.7,146.2,231.5z"/>
				<path class="st0" d="M161.4,240.5c-0.2,0.2-0.6,0.4-1.1,0.5c-0.4,0.1-0.8,0.1-1.3,0.1c-1.2,0-2-0.2-2.7-0.8
					c-0.7-0.6-0.9-1.4-0.9-2.6v-4h-1.5v-2.1h1.5v-2.3h2.8v2.3h2.3v2.1h-2.3v3.9c0,0.4,0.1,0.7,0.4,0.9s0.5,0.4,0.9,0.4
					s0.8-0.1,1.2-0.4L161.4,240.5z"/>
				<path class="st0" d="M177.7,231.2v8.1c0,1.8-0.5,3.1-1.4,4c-0.9,0.8-2.2,1.3-4,1.3c-0.9,0-1.8-0.1-2.7-0.4
					c-0.9-0.2-1.5-0.6-2.1-0.9l1.1-2c0.4,0.4,0.9,0.6,1.5,0.8c0.6,0.2,1.3,0.4,1.9,0.4c0.9,0,1.6-0.2,2.1-0.7s0.7-1.1,0.7-2v-0.5
					c-0.7,0.8-1.8,1.2-3.1,1.2c-0.9,0-1.6-0.2-2.5-0.6c-0.8-0.4-1.3-0.9-1.8-1.6s-0.7-1.5-0.7-2.5c0-0.9,0.2-1.8,0.7-2.5
					s1.1-1.3,1.8-1.6s1.5-0.6,2.5-0.6c1.4,0,2.5,0.5,3.2,1.4v-1.3H177.7z M174.2,237.6c0.5-0.5,0.7-1.1,0.7-1.8
					c0-0.7-0.2-1.3-0.7-1.8c-0.5-0.5-1.1-0.7-1.9-0.7c-0.8,0-1.4,0.2-1.9,0.7s-0.7,1.1-0.7,1.8c0,0.7,0.2,1.3,0.7,1.8
					s1.1,0.7,1.9,0.7C173.1,238.3,173.7,237.9,174.2,237.6z"/>
				<path class="st0" d="M192.6,232.2c0.8,0.7,1.2,1.8,1.2,3.2v5.5h-2.6v-1.2c-0.5,0.9-1.5,1.3-2.9,1.3c-0.7,0-1.4-0.1-1.9-0.4
					c-0.6-0.2-0.9-0.6-1.3-1.1c-0.4-0.5-0.5-0.9-0.5-1.5c0-0.9,0.4-1.6,1.1-2.1s1.8-0.8,3.2-0.8h2.2c0-0.6-0.2-1.1-0.6-1.4
					c-0.4-0.4-0.9-0.5-1.6-0.5c-0.5,0-1.1,0.1-1.5,0.2c-0.5,0.1-0.9,0.4-1.3,0.7l-1.1-2c0.5-0.4,1.2-0.7,1.9-0.8
					c0.7-0.2,1.5-0.4,2.2-0.4C190.7,231.1,191.9,231.5,192.6,232.2z M190.3,238.9c0.4-0.2,0.6-0.6,0.8-0.9V237h-1.9
					c-1.2,0-1.8,0.4-1.8,1.2c0,0.4,0.1,0.6,0.5,0.8s0.7,0.4,1.2,0.4C189.4,239.2,189.9,239.1,190.3,238.9z"/>
				<path class="st0" d="M211.5,231.2v8.1c0,1.8-0.5,3.1-1.4,4c-0.9,0.8-2.2,1.3-4,1.3c-0.9,0-1.8-0.1-2.7-0.4
					c-0.9-0.2-1.5-0.6-2.1-0.9l1.1-2c0.4,0.4,0.9,0.6,1.5,0.8c0.6,0.2,1.3,0.4,1.9,0.4c0.9,0,1.6-0.2,2.1-0.7c0.5-0.5,0.7-1.1,0.7-2
					v-0.5c-0.7,0.8-1.8,1.2-3.1,1.2c-0.9,0-1.6-0.2-2.5-0.6s-1.3-0.9-1.8-1.6c-0.5-0.7-0.7-1.5-0.7-2.5c0-0.9,0.2-1.8,0.7-2.5
					c0.5-0.7,1.1-1.3,1.8-1.6s1.5-0.6,2.5-0.6c1.4,0,2.5,0.5,3.2,1.4v-1.3H211.5z M208,237.6c0.5-0.5,0.7-1.1,0.7-1.8
					c0-0.7-0.2-1.3-0.7-1.8s-1.1-0.7-1.9-0.7s-1.4,0.2-1.9,0.7s-0.7,1.1-0.7,1.8c0,0.7,0.2,1.3,0.7,1.8s1.1,0.7,1.9,0.7
					S207.5,237.9,208,237.6z"/>
				<path class="st0" d="M228.5,236.9h-7.3c0.1,0.6,0.5,1.1,0.9,1.4c0.5,0.4,1.1,0.5,1.9,0.5c0.5,0,0.9-0.1,1.3-0.2
					c0.4-0.1,0.7-0.4,1.1-0.7l1.5,1.6c-0.9,1.1-2.2,1.5-4,1.5c-1.1,0-2-0.2-2.9-0.6c-0.8-0.5-1.5-1.1-2-1.8
					c-0.5-0.7-0.7-1.6-0.7-2.6s0.2-1.8,0.7-2.6c0.5-0.8,1.1-1.4,1.9-1.8s1.6-0.6,2.6-0.6s1.8,0.2,2.6,0.6c0.8,0.4,1.4,0.9,1.8,1.8
					c0.4,0.8,0.7,1.6,0.7,2.7C228.7,236.2,228.5,236.4,228.5,236.9z M222,233.8c-0.5,0.4-0.7,0.8-0.8,1.5h4.8
					c-0.1-0.6-0.4-1.1-0.8-1.4c-0.5-0.4-0.9-0.6-1.5-0.6C222.9,233.2,222.4,233.5,222,233.8z"/>
				<path class="st0" d="M255.3,240.7c-0.9-0.2-1.6-0.6-2.2-1.1l0.9-2.2c0.6,0.4,1.2,0.7,1.9,0.9c0.7,0.2,1.5,0.4,2.2,0.4
					c0.8,0,1.4-0.1,1.9-0.4c0.4-0.2,0.6-0.6,0.6-0.9s-0.1-0.6-0.4-0.7c-0.2-0.2-0.6-0.4-0.9-0.5s-0.8-0.2-1.5-0.4
					c-0.9-0.2-1.8-0.5-2.3-0.7c-0.6-0.2-1.2-0.6-1.5-1.1c-0.5-0.5-0.7-1.2-0.7-2c0-0.7,0.2-1.4,0.6-2c0.4-0.6,0.9-1.1,1.8-1.4
					c0.8-0.4,1.8-0.5,2.9-0.5c0.8,0,1.6,0.1,2.3,0.2c0.7,0.1,1.4,0.5,2,0.8l-0.9,2.2c-1.2-0.7-2.3-0.9-3.5-0.9
					c-0.8,0-1.4,0.1-1.8,0.4s-0.6,0.6-0.6,1.1s0.2,0.7,0.7,0.9s1.2,0.5,2.1,0.6c0.9,0.2,1.8,0.5,2.3,0.7c0.6,0.2,1.2,0.6,1.5,1.1
					c0.5,0.5,0.7,1.2,0.7,2c0,0.7-0.2,1.4-0.6,2c-0.4,0.6-1.1,1.1-1.8,1.4c-0.8,0.4-1.8,0.5-2.9,0.5
					C257.2,241.2,256.3,241,255.3,240.7z"/>
				<path class="st0" d="M272.2,240.4c-0.8-0.5-1.4-1.1-1.9-1.8c-0.5-0.7-0.7-1.6-0.7-2.6s0.2-1.8,0.7-2.6c0.5-0.7,1.1-1.3,1.9-1.8
					c0.8-0.5,1.8-0.6,2.7-0.6c1.1,0,1.9,0.2,2.7,0.6c0.8,0.5,1.4,1.1,1.9,1.8c0.5,0.7,0.7,1.6,0.7,2.6s-0.2,1.8-0.7,2.6
					c-0.5,0.7-1.1,1.3-1.9,1.8c-0.8,0.5-1.8,0.6-2.7,0.6C273.9,241.1,272.9,240.9,272.2,240.4z M276.7,238c0.5-0.5,0.7-1.2,0.7-2
					s-0.2-1.4-0.7-2c-0.5-0.5-1.1-0.7-1.8-0.7s-1.3,0.2-1.8,0.7c-0.5,0.5-0.7,1.2-0.7,2s0.2,1.4,0.7,2c0.5,0.5,1.1,0.7,1.8,0.7
					S276.2,238.5,276.7,238z"/>
				<path class="st0" d="M287.1,227.6h2.8v13.3h-2.8V227.6z"/>
				<path class="st0" d="M307.3,231.2v9.6h-2.7v-1.2c-0.4,0.5-0.8,0.7-1.3,0.9c-0.5,0.2-1.1,0.4-1.6,0.4c-1.3,0-2.2-0.4-3.1-1.1
					c-0.7-0.7-1.1-1.8-1.1-3.3v-5.4h2.8v5c0,1.5,0.7,2.3,2,2.3c0.7,0,1.2-0.2,1.6-0.7c0.4-0.5,0.6-1.1,0.6-2v-4.8h2.7V231.2z"/>
				<path class="st0" d="M321.2,240.5c-0.2,0.2-0.6,0.4-1.1,0.5c-0.4,0.1-0.8,0.1-1.3,0.1c-1.2,0-2-0.2-2.7-0.8
					c-0.6-0.6-0.9-1.4-0.9-2.6v-4h-1.5v-2.1h1.5v-2.3h2.8v2.3h2.3v2.1H318v3.9c0,0.4,0.1,0.7,0.4,0.9c0.2,0.2,0.5,0.4,0.9,0.4
					c0.5,0,0.8-0.1,1.2-0.4L321.2,240.5z"/>
				<path class="st0" d="M327.9,229.5c-0.4-0.4-0.5-0.7-0.5-1.1c0-0.4,0.1-0.8,0.5-1.1c0.4-0.2,0.7-0.5,1.3-0.5s0.9,0.1,1.3,0.5
					c0.4,0.2,0.5,0.7,0.5,1.1c0,0.5-0.1,0.8-0.5,1.2c-0.4,0.4-0.7,0.5-1.3,0.5S328.2,229.8,327.9,229.5z M327.8,231.2h2.8v9.6h-2.8
					V231.2z"/>
				<path class="st0" d="M340.1,240.4c-0.8-0.5-1.4-1.1-1.9-1.8s-0.7-1.6-0.7-2.6s0.2-1.8,0.7-2.6c0.5-0.7,1.1-1.3,1.9-1.8
					c0.8-0.5,1.8-0.6,2.7-0.6c1.1,0,1.9,0.2,2.7,0.6c0.8,0.5,1.4,1.1,1.9,1.8s0.7,1.6,0.7,2.6s-0.2,1.8-0.7,2.6
					c-0.5,0.7-1.1,1.3-1.9,1.8c-0.8,0.5-1.8,0.6-2.7,0.6C341.7,241.1,340.8,240.9,340.1,240.4z M344.6,238c0.5-0.5,0.7-1.2,0.7-2
					s-0.2-1.4-0.7-2c-0.5-0.5-1.1-0.7-1.8-0.7s-1.3,0.2-1.8,0.7c-0.5,0.5-0.7,1.2-0.7,2s0.2,1.4,0.7,2c0.5,0.5,1.1,0.7,1.8,0.7
					S344.1,238.5,344.6,238z"/>
				<path class="st0" d="M363.7,232.2c0.7,0.7,1.1,1.8,1.1,3.2v5.5h-2.8v-5c0-0.8-0.1-1.3-0.5-1.8c-0.4-0.4-0.8-0.6-1.4-0.6
					c-0.7,0-1.3,0.2-1.6,0.7c-0.5,0.5-0.6,1.1-0.6,2v4.8H355v-9.6h2.7v1.2c0.4-0.4,0.8-0.7,1.4-0.9c0.6-0.2,1.2-0.4,1.8-0.4
					C362.1,231.1,363,231.5,363.7,232.2z"/>
				<path class="st0" d="M373.3,240.7c-0.8-0.2-1.4-0.5-1.9-0.7l0.9-2c0.5,0.2,0.9,0.5,1.5,0.7c0.6,0.1,1.2,0.2,1.8,0.2
					c1.2,0,1.8-0.2,1.8-0.8c0-0.2-0.1-0.5-0.5-0.6s-0.8-0.2-1.5-0.4c-0.8-0.1-1.4-0.2-2-0.5c-0.5-0.1-0.9-0.5-1.3-0.8
					c-0.4-0.4-0.6-0.9-0.6-1.6c0-0.6,0.2-1.2,0.6-1.6c0.4-0.5,0.8-0.8,1.5-1.1c0.7-0.2,1.5-0.4,2.3-0.4c0.7,0,1.4,0.1,2,0.2
					c0.7,0.1,1.3,0.4,1.6,0.6l-0.9,2c-0.8-0.5-1.8-0.7-2.8-0.7c-0.6,0-1.1,0.1-1.3,0.2c-0.2,0.1-0.5,0.4-0.5,0.7
					c0,0.4,0.1,0.5,0.5,0.6c0.4,0.1,0.8,0.2,1.5,0.4c0.8,0.1,1.4,0.2,2,0.5c0.5,0.1,0.9,0.5,1.3,0.8c0.4,0.4,0.6,0.9,0.6,1.6
					c0,0.6-0.2,1.2-0.6,1.6c-0.4,0.5-0.9,0.8-1.5,1.1c-0.7,0.2-1.5,0.4-2.5,0.4C374.9,241.1,374,241,373.3,240.7z"/>
			</g>
		</g>
	</g>
</g>
<line class="st1" x1="77.5" y1="28.7" x2="367.8" y2="319"/>
</svg>
