<?xml version="1.0" encoding="utf-8"?>
<!-- Generator: Adobe Illustrator 25.2.0, SVG Export Plug-In . SVG Version: 6.00 Build 0)  -->
<svg version="1.1" id="Layer_1" xmlns="http://www.w3.org/2000/svg" xmlns:xlink="http://www.w3.org/1999/xlink" x="0px" y="0px"
	 width="488.8px" height="351.1px" viewBox="0 0 488.8 351.1" style="enable-background:new 0 0 488.8 351.1;" xml:space="preserve"
	>
<style type="text/css">
	.st0{fill:#84BD00;}
	.st1{fill:none;stroke:#FF0000;stroke-width:4;stroke-miterlimit:10;}
</style>
<g>
	<g>
		<path d="M201.7,140.5c0-5.5,2.1-10.3,6.3-14.3c4.2-4,9.4-6.1,15.6-6.1c6.4,0,11.7,2,16,6.1c4.3,4.1,6.4,9,6.4,14.8
			c0,5.9-2.1,10.8-6.2,14.6c-4.2,4-9.5,6-16.1,6c-6.7,0-12.2-2.3-16.4-6.9C203.5,150.8,201.7,146.1,201.7,140.5z M204,141
			c0,3.8,1.4,6.8,4.2,9.1c3.5,2.8,8.6,4.3,15.4,4.3c6.9,0,12.2-1.5,15.9-4.4c2.8-2.3,4.3-5.2,4.3-9c0-4-1.6-7.2-4.6-9.8
			c-3.1-2.6-8-3.9-14.6-3.9c-7.2,0-12.7,1.5-16.2,4.3C205.4,133.9,204,137.1,204,141z"/>
		<path d="M245,90.3l-35.6,16.3h28.2c2.6,0,4.2-0.3,4.9-0.8c0.8-0.7,1.3-2,1.3-3.7v-1.5h1.2v14.8h-1.2v-1.5c0-1.8-0.5-3-1.7-3.8
			c-0.6-0.4-2.2-0.7-4.6-0.7H210c-1.9,0-3.2,0.2-4.1,0.6c-0.6,0.3-1.2,0.8-1.5,1.6c-0.4,0.7-0.6,2-0.6,3.8h-1.2v-12L235.8,88
			l-33.2-15.1v-12h1.2v1.5c0,1.8,0.5,3.1,1.7,3.9c0.6,0.4,2.2,0.7,4.6,0.7h27.6c2.6,0,4.2-0.3,4.9-0.8c0.8-0.7,1.3-2,1.3-3.7V61h1.2
			v18h-1.2v-1.5c0-1.8-0.5-3-1.7-3.8c-0.6-0.4-2.2-0.7-4.6-0.7h-28.2l35.6,16.3v0.9H245z"/>
		<g>
			<polygon points="188.2,265.5 203.3,259.2 212.5,244.2 171.4,261.7 171.4,263.5 193.8,273.4 196.6,269.3 			"/>
			<path d="M211.1,275.7l-3.2,3.7l22.7,9.8c5.2,2.2,8.7,4.3,10.4,6.1c0.8,0.9,1.6,2.8,2.1,5.9h2v-22.9h-2c-0.2,3.6-0.8,5.8-1.6,6.8
				c-0.8,1-1.8,1.6-2.9,1.6c-1.4,0-3.5-0.6-6.3-1.8l-11.3-4.9l-4-1.7L211.1,275.7z"/>
		</g>
		<g>
			<path d="M242.5,172c-0.7,0.3-2.8,0.7-5,0.7h-27.3c-2.5,0-4.2-0.2-4.8-0.7c-1-0.8-1.6-2.1-1.6-3.8v-1.6h-1.2v18.1h1.2v-1.5
				c0-1,0.2-2,0.7-2.8c0.4-0.6,0.8-1,1.4-1.3c0.7-0.3,2.1-0.4,4.3-0.4h27.3c1.2,0,2.1,0,2.9,0.1"/>
		</g>
		<g>
			<path class="st0" d="M161.5,311.4c34.5-23.1,57.4-55,72.7-88.4l-6.3-5.3C198.6,283.2,161.5,311.4,161.5,311.4z"/>
			<path class="st0" d="M263,46.7c-2.4,66.4-16,126.8-32.9,165.9l6.4,5.1C270.3,139.7,263,46.7,263,46.7z"/>
		</g>
		<g>
			<path d="M180.5,307.1c0,0,36.4-18.5,63.2-76.4l-5.3-4.5C225.1,256.6,206.6,285.4,180.5,307.1z"/>
			<path d="M271,34.6c0,0,2.9,105.5-30.4,186.3l5.4,4.4C263.1,185.9,276.3,114.2,271,34.6z"/>
		</g>
		<g>
			<path d="M221.6,207.8l-10.8-8.4c-2.2-1.7-3.7-3-4.5-4c-0.8-0.9-1.5-2-1.9-3.1c-0.3-0.7-0.5-1.7-0.5-2.9h-1.2v15h1.2
				c0-1.5,0.1-2.5,0.3-2.9c0.2-0.5,0.5-0.8,0.9-1.2c0.3-0.2,0.7-0.4,1.2-0.4c0.4,0,0.8,0.1,1.3,0.3c0.4,0.2,1.2,0.7,2.3,1.6l9.5,7.5
				l-9.7,6.5c-1.5,1-2.6,1.5-3.3,1.5c-0.6,0-1.2-0.3-1.6-0.9c-0.5-0.6-0.7-1.8-0.8-3.5h-1.2v19.8h1.2c0.1-2.1,0.6-3.9,1.7-5.4
				c1-1.6,3.2-3.5,6.5-5.8l12.2-8.4l20.9,17.1c1.9,1.5,3.3,2.8,4.2,4c0.9,1.2,1.7,2.4,2.2,3.7c0.3,0.7,0.5,1.7,0.6,2.7h1.2v-15h-1.2
				c-0.1,1.6-0.3,2.6-0.7,3.2c-0.4,0.6-0.9,0.8-1.7,0.8c-0.4,0-0.8-0.1-1.3-0.3c-0.4-0.2-1.3-0.7-2.4-1.7l-19.9-15.9l3.8-2.5
				c0.8-2.3,2.7-6.6,3.6-9.3L221.6,207.8z"/>
		</g>
	</g>
	<g>
		<path class="st0" d="M293.2,288.7h-6.7l5.5,3.3v1.2l-5.4,3.2h6.6v2.4H282v-2.1l7-4.2l-7-4.1v-2.1h11.2
			C293.2,286.4,293.2,288.7,293.2,288.7z"/>
		<path class="st0" d="M292.7,277.6c-0.4,0.7-0.9,1.3-1.6,1.7c-0.6,0.4-1.5,0.6-2.3,0.6s-1.6-0.2-2.3-0.6c-0.6-0.4-1.2-0.9-1.6-1.7
			s-0.5-1.6-0.5-2.4s0.2-1.7,0.5-2.4c0.3-0.7,0.9-1.3,1.6-1.7c0.6-0.4,1.5-0.6,2.3-0.6s1.6,0.2,2.3,0.6c0.6,0.4,1.2,0.9,1.6,1.7
			s0.5,1.6,0.5,2.4S293.1,276.8,292.7,277.6z M290.6,273.6c-0.4-0.4-1-0.6-1.8-0.6s-1.3,0.2-1.8,0.6c-0.5,0.4-0.6,0.9-0.6,1.6
			s0.2,1.2,0.6,1.6c0.4,0.4,1,0.6,1.8,0.6s1.3-0.2,1.8-0.6c0.5-0.4,0.6-0.9,0.6-1.6S291,273.9,290.6,273.6z"/>
		<path class="st0" d="M284.8,260.6c-0.2-0.5-0.3-1-0.3-1.8h2.3c0,0.3,0,0.4,0,0.5c0,0.7,0.2,1.3,0.6,1.7c0.4,0.4,1,0.6,1.8,0.6h4.1
			v2.6h-8.6v-2.4h1.2C285.3,261.6,285,261.1,284.8,260.6z"/>
		<path class="st0" d="M292.8,247.1c0.2,0.2,0.3,0.5,0.4,0.9c0.1,0.3,0.1,0.7,0.1,1.2c0,1-0.2,1.8-0.7,2.4c-0.5,0.6-1.3,0.8-2.3,0.8
			h-3.6v1.4h-1.9v-1.4h-2.1v-2.5h2.1v-2.1h1.9v2.1h3.5c0.3,0,0.6-0.1,0.8-0.3c0.2-0.2,0.3-0.4,0.3-0.8c0-0.4-0.1-0.7-0.3-1
			L292.8,247.1z"/>
		<path class="st0" d="M284.6,232.6h7.2c1.6,0,2.7,0.4,3.6,1.3c0.7,0.8,1.2,2,1.2,3.6c0,0.8-0.1,1.6-0.3,2.4s-0.5,1.4-0.8,1.9
			l-1.8-0.9c0.3-0.3,0.5-0.8,0.7-1.4c0.2-0.5,0.3-1.2,0.3-1.7c0-0.8-0.2-1.5-0.6-1.9c-0.4-0.4-0.9-0.6-1.8-0.6h-0.4
			c0.7,0.6,1,1.6,1,2.7c0,0.8-0.2,1.5-0.5,2.2c-0.3,0.7-0.8,1.2-1.5,1.6c-0.6,0.4-1.4,0.6-2.2,0.6c-0.8,0-1.6-0.2-2.2-0.6
			c-0.6-0.4-1.2-0.9-1.5-1.6c-0.3-0.6-0.5-1.4-0.5-2.2c0-1.3,0.4-2.2,1.3-2.8h-1.2V232.6z M290.2,235.7c-0.4-0.4-0.9-0.6-1.6-0.6
			s-1.2,0.2-1.6,0.6c-0.4,0.4-0.6,0.9-0.6,1.7c0,0.7,0.2,1.3,0.6,1.7c0.4,0.4,0.9,0.6,1.6,0.6s1.2-0.2,1.6-0.6
			c0.4-0.4,0.6-0.9,0.6-1.7C290.8,236.7,290.5,236.1,290.2,235.7z"/>
		<path class="st0" d="M285.4,219.3c0.6-0.7,1.6-1,2.8-1h4.9v2.3h-1c0.8,0.4,1.2,1.4,1.2,2.6c0,0.6-0.1,1.3-0.3,1.7
			c-0.2,0.5-0.5,0.8-0.9,1.2c-0.4,0.3-0.8,0.4-1.4,0.4c-0.8,0-1.5-0.3-1.9-0.9s-0.7-1.6-0.7-2.8v-2c-0.5,0-0.9,0.2-1.3,0.5
			c-0.3,0.3-0.4,0.8-0.4,1.5c0,0.4,0.1,0.9,0.2,1.4c0.1,0.4,0.3,0.8,0.6,1.2l-1.8,0.9c-0.3-0.4-0.6-1-0.7-1.7
			c-0.2-0.6-0.3-1.4-0.3-2C284.4,221,284.8,219.9,285.4,219.3z M291.4,221.4c-0.2-0.3-0.5-0.5-0.8-0.7h-0.8v1.7c0,1,0.3,1.6,1,1.6
			c0.3,0,0.5-0.1,0.7-0.4c0.2-0.3,0.3-0.6,0.3-1C291.7,222.1,291.6,221.7,291.4,221.4z"/>
		<path class="st0" d="M284.6,202.5h7.2c1.6,0,2.7,0.4,3.6,1.3c0.7,0.8,1.2,2,1.2,3.6c0,0.8-0.1,1.6-0.3,2.4
			c-0.2,0.8-0.5,1.4-0.8,1.9l-1.8-0.9c0.3-0.3,0.5-0.8,0.7-1.4c0.2-0.5,0.3-1.2,0.3-1.7c0-0.8-0.2-1.5-0.6-1.9
			c-0.4-0.4-0.9-0.6-1.8-0.6h-0.4c0.7,0.6,1,1.6,1,2.7c0,0.8-0.2,1.5-0.5,2.2c-0.3,0.7-0.8,1.2-1.5,1.6c-0.6,0.4-1.4,0.6-2.2,0.6
			c-0.8,0-1.6-0.2-2.2-0.6c-0.6-0.4-1.2-0.9-1.5-1.6c-0.3-0.6-0.5-1.4-0.5-2.2c0-1.3,0.4-2.2,1.3-2.8h-1.2V202.5z M290.2,205.6
			c-0.4-0.4-0.9-0.6-1.6-0.6s-1.2,0.2-1.6,0.6c-0.4,0.4-0.6,0.9-0.6,1.7s0.2,1.3,0.6,1.7s0.9,0.6,1.6,0.6s1.2-0.2,1.6-0.6
			s0.6-0.9,0.6-1.7S290.5,206,290.2,205.6z"/>
		<path class="st0" d="M289.6,187.3v6.5c0.5-0.1,0.9-0.4,1.3-0.8c0.3-0.4,0.4-0.9,0.4-1.7c0-0.4-0.1-0.8-0.2-1.2
			c-0.1-0.3-0.3-0.6-0.6-0.9l1.5-1.4c0.9,0.8,1.4,2,1.4,3.6c0,0.9-0.2,1.8-0.5,2.6c-0.4,0.7-0.9,1.4-1.6,1.8s-1.5,0.6-2.3,0.6
			s-1.6-0.2-2.3-0.6s-1.3-0.9-1.6-1.7c-0.3-0.7-0.5-1.5-0.5-2.3c0-0.8,0.2-1.6,0.5-2.3c0.3-0.7,0.8-1.3,1.6-1.6s1.5-0.6,2.4-0.6
			C288.9,187.2,289.2,187.3,289.6,187.3z M286.9,193.1c0.3,0.4,0.7,0.6,1.4,0.7v-4.3c-0.5,0.1-0.9,0.3-1.3,0.7
			c-0.3,0.4-0.5,0.8-0.5,1.4C286.3,192.3,286.5,192.7,286.9,193.1z"/>
		<path class="st0" d="M293,163.4c-0.2,0.8-0.5,1.5-0.9,2l-2-0.8c0.3-0.5,0.6-1,0.8-1.7c0.2-0.6,0.3-1.4,0.3-2
			c0-0.7-0.1-1.3-0.3-1.7c-0.2-0.3-0.5-0.5-0.8-0.5c-0.3,0-0.5,0.1-0.6,0.3c-0.2,0.2-0.3,0.5-0.4,0.8s-0.2,0.7-0.3,1.4
			c-0.2,0.8-0.4,1.6-0.6,2.1c-0.2,0.5-0.5,1-0.9,1.4c-0.4,0.4-1,0.6-1.8,0.6c-0.6,0-1.3-0.2-1.8-0.5c-0.5-0.3-0.9-0.8-1.3-1.6
			c-0.3-0.7-0.4-1.6-0.4-2.6c0-0.7,0.1-1.5,0.2-2.1c0.1-0.6,0.4-1.3,0.7-1.8l2,0.8c-0.6,1-0.8,2.1-0.8,3.1c0,0.7,0.1,1.3,0.3,1.6
			c0.2,0.3,0.5,0.5,0.9,0.5s0.6-0.2,0.8-0.6c0.2-0.4,0.4-1,0.5-1.9c0.2-0.8,0.4-1.6,0.6-2.1c0.2-0.5,0.5-1,0.9-1.4
			c0.4-0.4,1-0.6,1.8-0.6c0.6,0,1.3,0.2,1.8,0.5c0.5,0.3,0.9,0.9,1.3,1.6c0.3,0.7,0.4,1.6,0.4,2.6
			C293.4,161.8,293.2,162.6,293,163.4z"/>
		<path class="st0" d="M292.7,148.4c-0.4,0.7-0.9,1.3-1.6,1.7c-0.6,0.4-1.5,0.6-2.3,0.6s-1.6-0.2-2.3-0.6c-0.6-0.4-1.2-0.9-1.6-1.7
			c-0.4-0.7-0.5-1.6-0.5-2.4c0-0.9,0.2-1.7,0.5-2.4c0.4-0.7,0.9-1.3,1.6-1.7c0.6-0.4,1.5-0.6,2.3-0.6s1.6,0.2,2.3,0.6
			c0.6,0.4,1.2,0.9,1.6,1.7s0.5,1.6,0.5,2.4C293.3,146.9,293.1,147.7,292.7,148.4z M290.6,144.4c-0.4-0.4-1-0.6-1.8-0.6
			s-1.3,0.2-1.8,0.6c-0.4,0.4-0.6,0.9-0.6,1.6c0,0.6,0.2,1.2,0.6,1.6s1,0.6,1.8,0.6s1.3-0.2,1.8-0.6c0.4-0.4,0.6-0.9,0.6-1.6
			C291.2,145.3,291,144.8,290.6,144.4z"/>
		<path class="st0" d="M281.3,135.1v-2.5h11.8v2.5H281.3z"/>
		<path class="st0" d="M284.6,117.1h8.6v2.4h-1c0.4,0.3,0.6,0.7,0.8,1.2c0.2,0.4,0.3,0.9,0.3,1.5c0,1.2-0.3,2-0.9,2.7
			c-0.6,0.6-1.6,0.9-2.9,0.9h-4.8v-2.5h4.5c1.4,0,2.1-0.6,2.1-1.8c0-0.6-0.2-1-0.6-1.5c-0.4-0.3-0.9-0.5-1.8-0.5h-4.3v-2.4H284.6z"
			/>
		<path class="st0" d="M292.8,104.7c0.2,0.2,0.3,0.5,0.4,0.9c0.1,0.3,0.1,0.7,0.1,1.2c0,1-0.2,1.8-0.7,2.4c-0.5,0.5-1.3,0.8-2.3,0.8
			h-3.6v1.4h-1.9v-1.4h-2.1v-2.5h2.1v-2.1h1.9v2.1h3.5c0.3,0,0.6-0.1,0.8-0.3c0.2-0.2,0.3-0.4,0.3-0.8c0-0.4-0.1-0.7-0.3-1
			L292.8,104.7z"/>
		<path class="st0" d="M283,98.8c-0.3,0.3-0.6,0.4-0.9,0.4c-0.3,0-0.7-0.1-0.9-0.4c-0.2-0.3-0.4-0.6-0.4-1.2s0.1-0.8,0.4-1.2
			c0.2-0.3,0.6-0.4,0.9-0.4c0.4,0,0.7,0.1,1,0.4c0.3,0.3,0.4,0.6,0.4,1.2S283.3,98.5,283,98.8z M284.6,98.9v-2.5h8.6v2.5H284.6z"/>
		<path class="st0" d="M292.7,87.9c-0.4,0.7-0.9,1.3-1.6,1.7c-0.6,0.4-1.5,0.6-2.3,0.6s-1.6-0.2-2.3-0.6c-0.6-0.4-1.2-0.9-1.6-1.7
			c-0.4-0.7-0.5-1.6-0.5-2.4c0-0.9,0.2-1.7,0.5-2.4c0.4-0.7,0.9-1.3,1.6-1.7c0.6-0.4,1.5-0.6,2.3-0.6s1.6,0.2,2.3,0.6
			c0.6,0.4,1.2,0.9,1.6,1.7c0.4,0.7,0.5,1.6,0.5,2.4C293.3,86.4,293.1,87.3,292.7,87.9z M290.6,83.9c-0.4-0.4-1-0.6-1.8-0.6
			s-1.3,0.2-1.8,0.6c-0.4,0.4-0.6,0.9-0.6,1.6s0.2,1.2,0.6,1.6s1,0.6,1.8,0.6s1.3-0.2,1.8-0.6c0.4-0.4,0.6-0.9,0.6-1.6
			S291,84.3,290.6,83.9z"/>
		<path class="st0" d="M285.4,66.9c0.6-0.6,1.6-0.9,2.8-0.9h4.9v2.5h-4.5c-0.7,0-1.2,0.1-1.6,0.4c-0.3,0.3-0.5,0.7-0.5,1.3
			c0,0.6,0.2,1.2,0.6,1.5c0.4,0.4,0.9,0.5,1.8,0.5h4.3v2.5h-8.6v-2.4h1c-0.3-0.3-0.6-0.7-0.8-1.3s-0.3-1-0.3-1.6
			C284.4,68.3,284.8,67.5,285.4,66.9z"/>
		<path class="st0" d="M293,58.3c-0.2,0.7-0.4,1.3-0.6,1.7l-1.8-0.8c0.2-0.4,0.4-0.8,0.6-1.4c0.1-0.5,0.2-1,0.2-1.6
			c0-1-0.2-1.6-0.7-1.6c-0.2,0-0.4,0.1-0.5,0.4c-0.1,0.3-0.2,0.7-0.3,1.4c-0.1,0.7-0.2,1.3-0.4,1.8c-0.1,0.4-0.4,0.8-0.7,1.2
			c-0.3,0.3-0.8,0.5-1.5,0.5c-0.5,0-1-0.2-1.5-0.5c-0.4-0.3-0.7-0.7-0.9-1.4c-0.2-0.6-0.3-1.4-0.3-2.1c0-0.6,0.1-1.3,0.2-1.8
			c0.1-0.6,0.3-1.2,0.5-1.5l1.8,0.8c-0.4,0.7-0.6,1.6-0.6,2.5c0,0.5,0.1,0.9,0.2,1.2s0.3,0.4,0.6,0.4c0.3,0,0.4-0.1,0.5-0.4
			c0.1-0.3,0.2-0.7,0.3-1.4c0.1-0.7,0.2-1.3,0.4-1.8c0.1-0.4,0.4-0.8,0.7-1.2c0.3-0.3,0.8-0.5,1.5-0.5c0.5,0,1,0.2,1.5,0.5
			c0.4,0.3,0.7,0.8,0.9,1.4c0.2,0.6,0.3,1.4,0.3,2.2C293.3,56.9,293.2,57.7,293,58.3z"/>
	</g>
</g>
<line class="st1" x1="77.5" y1="28.7" x2="367.8" y2="319"/>
</svg>
