<?xml version="1.0" encoding="utf-8"?>
<!-- Generator: Adobe Illustrator 25.2.0, SVG Export Plug-In . SVG Version: 6.00 Build 0)  -->
<svg version="1.1" id="Layer_1" xmlns="http://www.w3.org/2000/svg" xmlns:xlink="http://www.w3.org/1999/xlink" x="0px" y="0px"
	 width="488.8px" height="351.1px" viewBox="0 0 488.8 351.1" style="enable-background:new 0 0 488.8 351.1;" xml:space="preserve"
	>
<style type="text/css">
	.st0{fill:#84BD00;}
	.st1{fill:none;stroke:#FF0000;stroke-width:4;stroke-miterlimit:10;}
</style>
<g>
	<g>
		<path d="M283,153.7c8,0,14.7,1.5,20.6,4.5c5.7,3,8.7,6.7,8.7,11.1c0,4.5-2.9,8.4-8.7,11.4c-5.9,3.1-12.9,4.5-21.2,4.5
			c-8.4,0-15.5-1.5-21-4.4c-5.7-3-8.6-6.8-8.6-11.5c0-4.8,3.3-8.7,9.9-11.7C268.3,155,275.1,153.7,283,153.7z M282.3,155.3
			c-5.4,0-9.8,1-13.1,3c-4.1,2.5-6.2,6.1-6.2,11c0,4.9,2.1,8.7,6.3,11.3c3.3,2,7.5,3.1,12.9,3.1c5.7,0,10.4-1.1,14.1-3.3
			c3.8-2.2,5.6-5.7,5.6-10.4c0-5.1-2.1-9-6.2-11.6C292.5,156.3,288,155.3,282.3,155.3z"/>
		<path d="M355.1,184.6l-23.4-25.4v20.1c0,1.9,0.5,3,1.2,3.5c1.1,0.6,2.9,0.9,5.3,0.9h2.1v0.8h-21.2v-0.8h2.1c2.6,0,4.4-0.4,5.4-1.2
			c0.6-0.4,1.1-1.6,1.1-3.3v-19.7c0-1.3-0.3-2.3-0.9-2.9c-0.5-0.4-1.2-0.8-2.3-1c-1.1-0.3-2.9-0.4-5.4-0.4v-0.8h17.3l22.1,23.6
			l21.6-23.6h17.3v0.8h-2.1c-2.6,0-4.5,0.4-5.6,1.2c-0.6,0.4-1.1,1.6-1.1,3.3v19.7c0,1.9,0.5,3,1.2,3.5c1.1,0.6,2.9,0.9,5.3,0.9h2.1
			v0.8h-25.8v-0.8h2.1c2.6,0,4.4-0.4,5.4-1.2c0.6-0.4,1.1-1.6,1.1-3.3v-20.1l-23.4,25.4L355.1,184.6L355.1,184.6z"/>
		<g>
			<polygon points="103.7,144.1 112.8,154.8 134.3,161.4 109.2,132.1 106.5,132.1 92.4,148.1 98.3,150 			"/>
			<path d="M89.1,160.4l-5.3-2.3l-14.1,16.2c-3.2,3.7-6.2,6.2-8.7,7.4c-1.4,0.6-4.1,1.1-8.4,1.5v1.4h32.9v-1.4
				c-5.1-0.1-8.3-0.6-9.8-1.1c-1.5-0.6-2.3-1.3-2.3-2.1c0-1,0.9-2.5,2.6-4.5l7.1-8.1l2.4-2.8L89.1,160.4z"/>
		</g>
		<g>
			<path d="M237.9,182.8c-0.5-0.5-1.1-2-1.1-3.6v-19.5c0-1.8,0.3-3,1.1-3.4c1.2-0.7,3-1.1,5.4-1.1h2.3v-0.8h-26v0.8h2.1
				c1.5,0,2.9,0.1,4.1,0.5c0.9,0.3,1.5,0.6,1.8,1c0.5,0.5,0.6,1.5,0.6,3.1v19.5c0,0.8,0,1.5-0.2,2.1"/>
		</g>
		<g>
			<path class="st0" d="M37.9,125.1c33.2,24.6,78.9,40.9,126.8,51.8l7.7-4.5C78.3,151.5,37.9,125.1,37.9,125.1z"/>
			<path class="st0" d="M417.7,197.4c-95.3-1.7-181.9-11.4-238-23.4l-7.4,4.5C284.2,202.6,417.7,197.4,417.7,197.4z"/>
		</g>
		<g>
			<path d="M44.1,138.6c0,0,26.6,26,109.6,45l6.5-3.8C116.4,170.4,75.2,157.2,44.1,138.6z"/>
			<path d="M434.9,203.1c0,0-151.3,2.1-267.3-21.7l-6.3,3.9C217.9,197.5,320.9,206.9,434.9,203.1z"/>
		</g>
		<g>
			<path d="M186.5,167.9l12-7.7c2.4-1.6,4.4-2.6,5.7-3.2c1.4-0.6,2.9-1,4.5-1.3c1.1-0.2,2.4-0.4,4.2-0.4v-0.8h-21.5v0.8
				c2.1,0,3.6,0.1,4.2,0.2c0.8,0.1,1.2,0.4,1.7,0.7c0.3,0.2,0.6,0.5,0.6,0.8c0,0.3-0.2,0.6-0.5,0.9c-0.3,0.3-1.1,0.8-2.3,1.6
				l-10.8,6.8l-9.3-6.9c-1.5-1-2.1-1.9-2.1-2.4c0-0.4,0.5-0.8,1.4-1.1c0.9-0.4,2.6-0.5,5-0.6v-0.8H151v0.8c3,0.1,5.6,0.4,7.8,1.2
				c2.3,0.7,5,2.3,8.3,4.6l12,8.7l-24.5,14.9c-2.1,1.3-4.1,2.4-5.7,3c-1.7,0.7-3.5,1.2-5.3,1.6c-1.1,0.2-2.4,0.4-3.9,0.4v0.8h21.5
				v-0.8c-2.3-0.1-3.8-0.2-4.7-0.5s-1.2-0.7-1.2-1.2c0-0.3,0.2-0.6,0.5-0.9c0.3-0.3,1.1-0.9,2.4-1.7l22.8-14.2l3.6,2.7
				c3.3,0.6,9.5,1.9,13.4,2.5L186.5,167.9z"/>
		</g>
	</g>
	<g>
		<path class="st0" d="M70.5,219v-4.8l-4.8,4h-1.7l-4.7-3.9v4.7H56v-8h3l6,5l5.9-5h3v8C73.8,219,70.5,219,70.5,219z"/>
		<path class="st0" d="M86.4,218.6c-1.1-0.3-1.8-0.7-2.4-1.1c-0.6-0.4-0.9-1-0.9-1.6s0.3-1.1,0.9-1.6c0.6-0.4,1.4-0.8,2.4-1.1
			s2.3-0.4,3.5-0.4s2.4,0.1,3.5,0.4s1.8,0.7,2.4,1.1c0.6,0.4,0.9,1,0.9,1.6s-0.3,1.1-0.9,1.6c-0.6,0.4-1.4,0.8-2.4,1.1
			c-1.1,0.3-2.3,0.4-3.5,0.4S87.5,218.9,86.4,218.6z M92.1,217.1c0.6-0.3,0.9-0.7,0.9-1.3c0-0.5-0.3-0.9-0.9-1.3
			c-0.6-0.4-1.4-0.4-2.3-0.4s-1.7,0.1-2.3,0.4c-0.6,0.3-0.9,0.7-0.9,1.3c0,0.5,0.3,0.9,0.9,1.3s1.4,0.4,2.3,0.4
			S91.7,217.4,92.1,217.1z"/>
		<path class="st0" d="M110.7,212.9c0.8-0.1,1.5-0.2,2.6-0.2v1.6c-0.5,0-0.6,0-0.8,0c-1.1,0-1.8,0.1-2.4,0.4
			c-0.6,0.3-0.9,0.7-0.9,1.3v2.9h-3.8v-6.1h3.5v0.8C109.4,213.3,110,213.1,110.7,212.9z"/>
		<path class="st0" d="M130.1,218.7c-0.3,0.1-0.8,0.2-1.4,0.3c-0.5,0.1-1.1,0.1-1.7,0.1c-1.5,0-2.6-0.1-3.5-0.5s-1.2-0.9-1.2-1.6
			v-2.5h-2V213h2v-1.5h3.6v1.5h3v1.3h-3v2.5c0,0.2,0.2,0.4,0.5,0.6s0.6,0.2,1.2,0.2c0.6,0,1.1-0.1,1.5-0.2L130.1,218.7z"/>
		<path class="st0" d="M151,212.8v5.1c0,1.1-0.6,1.9-1.8,2.5c-1.2,0.5-2.9,0.8-5.1,0.8c-1.2,0-2.3-0.1-3.5-0.2
			c-1.2-0.1-2-0.4-2.7-0.6l1.4-1.3c0.5,0.2,1.2,0.4,2,0.5c0.8,0.1,1.7,0.2,2.4,0.2c1.2,0,2.1-0.1,2.7-0.4c0.6-0.3,0.9-0.7,0.9-1.3
			v-0.3c-0.9,0.5-2.3,0.7-3.9,0.7c-1.2,0-2.1-0.1-3.2-0.4s-1.7-0.6-2.3-1s-0.9-1-0.9-1.6s0.3-1.1,0.9-1.6c0.6-0.4,1.4-0.8,2.3-1
			c0.9-0.2,2-0.4,3.2-0.4c1.8,0,3.2,0.3,4.1,0.9v-0.8H151z M146.5,216.8c0.6-0.3,0.9-0.7,0.9-1.1c0-0.4-0.3-0.8-0.9-1.1
			s-1.4-0.4-2.4-0.4c-1.1,0-1.8,0.1-2.4,0.4s-0.9,0.7-0.9,1.1c0,0.4,0.3,0.8,0.9,1.1c0.6,0.3,1.4,0.4,2.4,0.4
			C145.1,217.2,145.9,217,146.5,216.8z"/>
		<path class="st0" d="M170,213.4c1.1,0.4,1.5,1.1,1.5,2v3.5h-3.3v-0.7c-0.6,0.6-2,0.8-3.8,0.8c-0.9,0-1.8-0.1-2.4-0.2
			c-0.8-0.1-1.2-0.4-1.7-0.7c-0.5-0.3-0.6-0.6-0.6-1c0-0.6,0.5-1,1.4-1.3s2.3-0.5,4.1-0.5h2.9c0-0.4-0.3-0.7-0.8-0.9
			s-1.2-0.3-2.1-0.3c-0.6,0-1.4,0.1-2,0.1c-0.6,0.1-1.2,0.2-1.7,0.4l-1.4-1.3c0.6-0.2,1.5-0.4,2.4-0.5c0.9-0.1,2-0.2,2.9-0.2
			C167.6,212.7,169.1,212.9,170,213.4z M167,217.6c0.5-0.1,0.8-0.4,1.1-0.6v-0.6h-2.4c-1.5,0-2.3,0.2-2.3,0.7c0,0.2,0.2,0.4,0.6,0.5
			s0.9,0.2,1.5,0.2C166,217.8,166.6,217.8,167,217.6z"/>
		<path class="st0" d="M194.2,212.8v5.1c0,1.1-0.6,1.9-1.8,2.5c-1.2,0.5-2.9,0.8-5.1,0.8c-1.2,0-2.3-0.1-3.5-0.2
			c-1.2-0.1-2-0.4-2.7-0.6l1.4-1.3c0.5,0.2,1.2,0.4,2,0.5c0.8,0.1,1.7,0.2,2.4,0.2c1.2,0,2.1-0.1,2.7-0.4c0.6-0.3,0.9-0.7,0.9-1.3
			v-0.3c-0.9,0.5-2.3,0.7-3.9,0.7c-1.2,0-2.1-0.1-3.2-0.4s-1.7-0.6-2.3-1s-0.9-1-0.9-1.6s0.3-1.1,0.9-1.6c0.6-0.4,1.4-0.8,2.3-1
			c0.9-0.2,2-0.4,3.2-0.4c1.8,0,3.2,0.3,4.1,0.9v-0.8H194.2z M189.7,216.8c0.6-0.3,0.9-0.7,0.9-1.1c0-0.4-0.3-0.8-0.9-1.1
			s-1.4-0.4-2.4-0.4s-1.8,0.1-2.4,0.4s-0.9,0.7-0.9,1.1c0,0.4,0.3,0.8,0.9,1.1c0.6,0.3,1.4,0.4,2.4,0.4S189.1,217,189.7,216.8z"/>
		<path class="st0" d="M216,216.3h-9.3c0.2,0.4,0.6,0.7,1.2,0.9s1.4,0.3,2.4,0.3c0.6,0,1.2-0.1,1.7-0.1c0.5-0.1,0.9-0.2,1.4-0.4l2,1
			c-1.2,0.7-2.9,1-5.1,1c-1.4,0-2.6-0.1-3.8-0.4c-1.1-0.3-2-0.7-2.6-1.1c-0.6-0.4-0.9-1-0.9-1.6c0-0.6,0.3-1.1,0.9-1.6
			c0.6-0.5,1.4-0.9,2.4-1.1c1.1-0.2,2.1-0.4,3.3-0.4c1.2,0,2.3,0.1,3.3,0.4c1.1,0.2,1.8,0.6,2.3,1.1c0.5,0.5,0.9,1,0.9,1.7
			C216.1,215.9,216,216,216,216.3z M207.5,214.4c-0.6,0.2-0.9,0.5-1.1,1h6.2c-0.2-0.4-0.5-0.7-1.1-0.9s-1.2-0.4-2-0.4
			C208.7,214,208.1,214.2,207.5,214.4z"/>
		<path class="st0" d="M250.2,218.8c-1.2-0.1-2.1-0.4-2.9-0.7l1.2-1.4c0.8,0.2,1.5,0.4,2.4,0.6s2,0.2,2.9,0.2c1.1,0,1.8-0.1,2.4-0.2
			c0.5-0.1,0.8-0.4,0.8-0.6c0-0.2-0.2-0.4-0.5-0.4c-0.3-0.1-0.8-0.2-1.2-0.3c-0.5-0.1-1.1-0.1-2-0.2c-1.2-0.1-2.3-0.3-3-0.4
			s-1.5-0.4-2-0.7c-0.6-0.3-0.9-0.7-0.9-1.3c0-0.4,0.3-0.9,0.8-1.3s1.2-0.7,2.3-0.9s2.3-0.3,3.8-0.3c1.1,0,2.1,0.1,3,0.1
			c0.9,0.1,1.8,0.3,2.6,0.5l-1.2,1.4c-1.5-0.4-3-0.6-4.5-0.6c-1.1,0-1.8,0.1-2.3,0.2s-0.8,0.4-0.8,0.7c0,0.3,0.3,0.4,0.9,0.6
			c0.6,0.1,1.5,0.3,2.7,0.4c1.2,0.1,2.3,0.3,3,0.4c0.8,0.1,1.5,0.4,2,0.7c0.6,0.3,0.9,0.7,0.9,1.3c0,0.4-0.3,0.9-0.8,1.3
			c-0.5,0.4-1.4,0.7-2.3,0.9c-1.1,0.2-2.3,0.3-3.8,0.3C252.6,219.1,251.4,219,250.2,218.8z"/>
		<path class="st0" d="M271.8,218.6c-1.1-0.3-1.8-0.7-2.4-1.1c-0.6-0.4-0.9-1-0.9-1.6s0.3-1.1,0.9-1.6c0.6-0.4,1.4-0.8,2.4-1.1
			c1.1-0.3,2.3-0.4,3.5-0.4c1.4,0,2.4,0.1,3.5,0.4c1.1,0.3,1.8,0.7,2.4,1.1c0.6,0.4,0.9,1,0.9,1.6s-0.3,1.1-0.9,1.6
			c-0.6,0.4-1.4,0.8-2.4,1.1c-1.1,0.3-2.3,0.4-3.5,0.4C273.9,219,272.7,218.9,271.8,218.6z M277.5,217.1c0.6-0.3,0.9-0.7,0.9-1.3
			c0-0.5-0.3-0.9-0.9-1.3c-0.6-0.3-1.4-0.4-2.3-0.4s-1.7,0.1-2.3,0.4c-0.6,0.3-0.9,0.7-0.9,1.3c0,0.5,0.3,0.9,0.9,1.3
			c0.6,0.3,1.4,0.4,2.3,0.4S276.9,217.4,277.5,217.1z"/>
		<path class="st0" d="M290.8,210.4h3.6v8.4h-3.6V210.4z"/>
		<path class="st0" d="M316.7,212.8v6.1h-3.5v-0.7c-0.5,0.3-1.1,0.4-1.7,0.6c-0.6,0.1-1.4,0.2-2.1,0.2c-1.7,0-2.9-0.2-3.9-0.7
			c-0.9-0.4-1.4-1.1-1.4-2.1v-3.4h3.6v3.2c0,1,0.9,1.5,2.6,1.5c0.9,0,1.5-0.1,2.1-0.4c0.5-0.3,0.8-0.7,0.8-1.3v-3.1L316.7,212.8
			L316.7,212.8z"/>
		<path class="st0" d="M334.4,218.7c-0.3,0.1-0.8,0.2-1.4,0.3c-0.5,0.1-1.1,0.1-1.7,0.1c-1.5,0-2.6-0.1-3.5-0.5
			c-0.8-0.4-1.2-0.9-1.2-1.6v-2.5h-2V213h2v-1.5h3.6v1.5h3v1.3h-3v2.5c0,0.2,0.2,0.4,0.5,0.6s0.6,0.2,1.2,0.2c0.6,0,1.1-0.1,1.5-0.2
			L334.4,218.7z"/>
		<path class="st0" d="M342.9,211.6c-0.5-0.2-0.6-0.4-0.6-0.7c0-0.2,0.2-0.5,0.6-0.7s0.9-0.3,1.7-0.3c0.8,0,1.2,0.1,1.7,0.3
			c0.5,0.1,0.6,0.4,0.6,0.7c0,0.3-0.2,0.5-0.6,0.7c-0.5,0.2-0.9,0.3-1.7,0.3C343.8,212,343.4,211.9,342.9,211.6z M342.8,212.8h3.6
			v6.1h-3.6V212.8z"/>
		<path class="st0" d="M358.5,218.6c-1.1-0.3-1.8-0.7-2.4-1.1c-0.6-0.4-0.9-1-0.9-1.6s0.3-1.1,0.9-1.6c0.6-0.4,1.4-0.8,2.4-1.1
			s2.3-0.4,3.5-0.4c1.4,0,2.4,0.1,3.5,0.4c1.1,0.3,1.8,0.7,2.4,1.1c0.6,0.4,0.9,1,0.9,1.6s-0.3,1.1-0.9,1.6
			c-0.6,0.4-1.4,0.8-2.4,1.1c-1.1,0.3-2.3,0.4-3.5,0.4C360.6,219,359.4,218.9,358.5,218.6z M364.2,217.1c0.6-0.3,0.9-0.7,0.9-1.3
			c0-0.5-0.3-0.9-0.9-1.3c-0.6-0.3-1.4-0.4-2.3-0.4s-1.7,0.1-2.3,0.4c-0.6,0.3-0.9,0.7-0.9,1.3c0,0.5,0.3,0.9,0.9,1.3
			c0.6,0.3,1.4,0.4,2.3,0.4S363.6,217.4,364.2,217.1z"/>
		<path class="st0" d="M388.7,213.4c0.9,0.4,1.4,1.1,1.4,2v3.5h-3.6v-3.2c0-0.5-0.2-0.8-0.6-1.1c-0.5-0.2-1.1-0.4-1.8-0.4
			c-0.9,0-1.7,0.1-2.1,0.4c-0.6,0.3-0.8,0.7-0.8,1.3v3.1h-3.6v-6.1h3.5v0.7c0.5-0.2,1.1-0.4,1.8-0.6c0.8-0.1,1.5-0.2,2.3-0.2
			C386.6,212.7,387.8,212.9,388.7,213.4z"/>
		<path class="st0" d="M401,218.8c-1.1-0.1-1.8-0.3-2.4-0.4l1.2-1.3c0.6,0.1,1.2,0.3,2,0.4c0.8,0.1,1.5,0.1,2.3,0.1
			c1.5,0,2.3-0.1,2.3-0.5c0-0.1-0.2-0.3-0.6-0.4c-0.5-0.1-1.1-0.1-2-0.2c-1.1-0.1-1.8-0.1-2.6-0.3c-0.6-0.1-1.2-0.3-1.7-0.5
			c-0.5-0.2-0.8-0.6-0.8-1c0-0.4,0.3-0.7,0.8-1c0.5-0.3,1.1-0.5,2-0.7s2-0.2,3-0.2c0.9,0,1.8,0.1,2.6,0.1c0.9,0.1,1.7,0.2,2.1,0.4
			l-1.2,1.3c-1.1-0.3-2.3-0.4-3.6-0.4c-0.8,0-1.4,0.1-1.7,0.1c-0.3,0.1-0.6,0.2-0.6,0.4s0.2,0.3,0.6,0.4s1.1,0.1,2,0.2
			c1.1,0.1,1.8,0.1,2.6,0.3c0.6,0.1,1.2,0.3,1.7,0.5c0.5,0.2,0.8,0.6,0.8,1c0,0.4-0.3,0.7-0.8,1c-0.5,0.3-1.2,0.5-2,0.7
			c-0.9,0.1-2,0.2-3.2,0.2C403,219,401.9,219,401,218.8z"/>
	</g>
</g>
<line class="st1" x1="77.5" y1="28.7" x2="367.8" y2="319"/>
</svg>
