<?xml version="1.0" encoding="utf-8"?>
<!-- Generator: Adobe Illustrator 25.2.0, SVG Export Plug-In . SVG Version: 6.00 Build 0)  -->
<svg version="1.1" id="Layer_1" xmlns="http://www.w3.org/2000/svg" xmlns:xlink="http://www.w3.org/1999/xlink" x="0px" y="0px"
	 width="264.5px" height="129.1px" viewBox="0 0 264.5 129.1" style="enable-background:new 0 0 264.5 129.1;" xml:space="preserve"
	>
<style type="text/css">
	.st0{fill:#FFFFFF;}
</style>
<g>
	<g>
		<path class="st0" d="M163.3,38.4c5.3,0,9.8,2,13.7,6c3.8,4,5.8,9,5.8,14.9c0,6.1-1.9,11.2-5.8,15.3c-3.9,4.1-8.6,6.1-14.1,6.1
			c-5.6,0-10.3-2-14-5.9c-3.8-4-5.7-9.1-5.7-15.4c0-6.4,2.2-11.7,6.6-15.7C153.5,40.1,158,38.4,163.3,38.4z M162.8,40.6
			c-3.6,0-6.5,1.3-8.7,4c-2.7,3.3-4.1,8.2-4.1,14.7c0,6.6,1.4,11.7,4.2,15.2c2.2,2.7,5,4.1,8.6,4.1c3.8,0,6.9-1.5,9.4-4.4
			c2.5-3,3.7-7.6,3.7-14c0-6.9-1.4-12.1-4.1-15.5C169.6,41.9,166.6,40.6,162.8,40.6z"/>
		<path class="st0" d="M211.3,79.8l-15.6-34v27c0,2.5,0.3,4,0.8,4.7c0.7,0.8,1.9,1.2,3.5,1.2h1.4v1.1h-14.1v-1.1h1.4
			c1.7,0,2.9-0.5,3.6-1.6c0.4-0.6,0.7-2.1,0.7-4.4V46.3c0-1.8-0.2-3.1-0.6-3.9c-0.3-0.6-0.8-1.1-1.5-1.4c-0.7-0.4-1.9-0.6-3.6-0.6
			v-1.1h11.5L213.5,71l14.4-31.7h11.5v1.1H238c-1.7,0-3,0.5-3.7,1.6c-0.4,0.6-0.7,2.1-0.7,4.4v26.4c0,2.5,0.3,4,0.8,4.7
			c0.7,0.8,1.9,1.2,3.5,1.2h1.4v1.1h-17.2v-1.1h1.4c1.7,0,2.9-0.5,3.6-1.6c0.4-0.6,0.7-2.1,0.7-4.4v-27l-15.6,34h-0.9V79.8z"/>
		<g>
			<polygon class="st0" points="43.8,25.5 49.9,39.9 64.2,48.7 47.5,9.4 45.7,9.4 36.3,30.9 40.2,33.5 			"/>
			<path class="st0" d="M34.1,47.4l-3.5-3.1L21.2,66c-2.1,5-4.1,8.3-5.8,9.9c-0.9,0.8-2.7,1.5-5.6,2v1.9h21.9v-1.9
				c-3.4-0.2-5.5-0.8-6.5-1.5c-1-0.8-1.5-1.7-1.5-2.8c0-1.3,0.6-3.3,1.7-6l4.7-10.8l1.6-3.8L34.1,47.4z"/>
		</g>
		<g>
			<path class="st0" d="M133.2,77.4c-0.3-0.7-0.7-2.7-0.7-4.8V46.5c0-2.4,0.2-4,0.7-4.6c0.8-1,2-1.5,3.6-1.5h1.5v-1.1H121v1.1h1.4
				c1,0,1.9,0.2,2.7,0.7c0.6,0.4,1,0.8,1.2,1.3c0.3,0.7,0.4,2,0.4,4.1v26.1c0,1.1,0,2-0.1,2.8"/>
		</g>
		<g>
			<path class="st0" d="M0,0c22.1,33,52.6,54.9,84.5,69.5l5.1-6C26.9,35.4,0,0,0,0z"/>
			<path class="st0" d="M253,97c-63.5-2.3-121.2-15.3-158.6-31.4l-4.9,6.1C164.1,104,253,97,253,97z"/>
		</g>
		<g>
			<path class="st0" d="M4.1,18.1c0,0,17.7,34.8,73,60.4l4.3-5.1C52.3,60.8,24.8,43.1,4.1,18.1z"/>
			<path class="st0" d="M264.5,104.6c0,0-100.8,2.8-178.1-29.1l-4.2,5.2C119.9,97.1,188.5,109.7,264.5,104.6z"/>
		</g>
		<g>
			<path class="st0" d="M99,57.4l8-10.3c1.6-2.1,2.9-3.5,3.8-4.3s1.9-1.4,3-1.8c0.7-0.3,1.6-0.5,2.8-0.5v-1.1h-14.3v1.1
				c1.4,0,2.4,0.1,2.8,0.3c0.5,0.2,0.8,0.5,1.1,0.9c0.2,0.3,0.4,0.7,0.4,1.1c0,0.4-0.1,0.8-0.3,1.2c-0.2,0.4-0.7,1.1-1.5,2.2
				l-7.2,9.1L91.4,46c-1-1.4-1.4-2.5-1.4-3.2c0-0.6,0.3-1.1,0.9-1.5c0.6-0.5,1.7-0.7,3.3-0.8v-1.1H75.3v1.1c2,0.1,3.7,0.6,5.2,1.6
				s3.3,3.1,5.5,6.2L94,60L77.7,80c-1.4,1.8-2.7,3.2-3.8,4c-1.1,0.9-2.3,1.6-3.5,2.1c-0.7,0.3-1.6,0.5-2.6,0.6v1.1h14.3v-1.1
				c-1.5-0.1-2.5-0.3-3.1-0.7s-0.8-0.9-0.8-1.6c0-0.4,0.1-0.8,0.3-1.2c0.2-0.4,0.7-1.2,1.6-2.3l15.2-19l2.4,3.6
				c2.2,0.8,6.3,2.6,8.9,3.4L99,57.4z"/>
		</g>
	</g>
	<g>
		<path class="st0" d="M21.7,125.9v-6.4l-3.2,5.3h-1.1l-3.1-5.2v6.3H12v-10.7h2l4,6.7l3.9-6.7h2v10.7
			C23.9,125.9,21.7,125.9,21.7,125.9z"/>
		<path class="st0" d="M32.3,125.4c-0.7-0.4-1.2-0.9-1.6-1.5s-0.6-1.4-0.6-2.2s0.2-1.5,0.6-2.2c0.4-0.6,0.9-1.1,1.6-1.5
			s1.5-0.5,2.3-0.5s1.6,0.2,2.3,0.5s1.2,0.9,1.6,1.5c0.4,0.6,0.6,1.4,0.6,2.2s-0.2,1.5-0.6,2.2c-0.4,0.6-0.9,1.1-1.6,1.5
			c-0.7,0.4-1.5,0.5-2.3,0.5S33,125.8,32.3,125.4z M36.1,123.4c0.4-0.4,0.6-1,0.6-1.7s-0.2-1.2-0.6-1.7s-0.9-0.6-1.5-0.6
			s-1.1,0.2-1.5,0.6s-0.6,1-0.6,1.7s0.2,1.2,0.6,1.7s0.9,0.6,1.5,0.6S35.8,123.8,36.1,123.4z"/>
		<path class="st0" d="M48.5,117.8c0.5-0.2,1-0.3,1.7-0.3v2.2c-0.3,0-0.4,0-0.5,0c-0.7,0-1.2,0.2-1.6,0.6c-0.4,0.4-0.6,1-0.6,1.7
			v3.9H45v-8.2h2.3v1.1C47.6,118.3,48,118,48.5,117.8z"/>
		<path class="st0" d="M61.4,125.5c-0.2,0.2-0.5,0.3-0.9,0.4c-0.3,0.1-0.7,0.1-1.1,0.1c-1,0-1.7-0.2-2.3-0.7s-0.8-1.2-0.8-2.2v-3.4
			H55v-1.8h1.3v-2h2.4v2h2v1.8h-2v3.3c0,0.3,0.1,0.6,0.3,0.8c0.2,0.2,0.4,0.3,0.8,0.3c0.4,0,0.7-0.1,1-0.3L61.4,125.5z"/>
		<path class="st0" d="M75.3,117.6v6.9c0,1.5-0.4,2.6-1.2,3.4c-0.8,0.7-1.9,1.1-3.4,1.1c-0.8,0-1.5-0.1-2.3-0.3s-1.3-0.5-1.8-0.8
			l0.9-1.7c0.3,0.3,0.8,0.5,1.3,0.7s1.1,0.3,1.6,0.3c0.8,0,1.4-0.2,1.8-0.6s0.6-0.9,0.6-1.7v-0.4c-0.6,0.7-1.5,1-2.6,1
			c-0.8,0-1.4-0.2-2.1-0.5s-1.1-0.8-1.5-1.4s-0.6-1.3-0.6-2.1s0.2-1.5,0.6-2.1s0.9-1.1,1.5-1.4s1.3-0.5,2.1-0.5
			c1.2,0,2.1,0.4,2.7,1.2v-1.1H75.3z M72.3,123c0.4-0.4,0.6-0.9,0.6-1.5s-0.2-1.1-0.6-1.5s-0.9-0.6-1.6-0.6s-1.2,0.2-1.6,0.6
			s-0.6,0.9-0.6,1.5s0.2,1.1,0.6,1.5s0.9,0.6,1.6,0.6S71.9,123.3,72.3,123z"/>
		<path class="st0" d="M88,118.4c0.7,0.6,1,1.5,1,2.7v4.7h-2.2v-1c-0.4,0.8-1.3,1.1-2.5,1.1c-0.6,0-1.2-0.1-1.6-0.3
			c-0.5-0.2-0.8-0.5-1.1-0.9s-0.4-0.8-0.4-1.3c0-0.8,0.3-1.4,0.9-1.8s1.5-0.7,2.7-0.7h1.9c0-0.5-0.2-0.9-0.5-1.2
			c-0.3-0.3-0.8-0.4-1.4-0.4c-0.4,0-0.9,0.1-1.3,0.2s-0.8,0.3-1.1,0.6l-0.9-1.7c0.4-0.3,1-0.6,1.6-0.7c0.6-0.2,1.3-0.3,1.9-0.3
			C86.4,117.5,87.4,117.8,88,118.4z M86,124.1c0.3-0.2,0.5-0.5,0.7-0.8v-0.8h-1.6c-1,0-1.5,0.3-1.5,1c0,0.3,0.1,0.5,0.4,0.7
			s0.6,0.3,1,0.3C85.3,124.4,85.7,124.3,86,124.1z"/>
		<path class="st0" d="M104.1,117.6v6.9c0,1.5-0.4,2.6-1.2,3.4c-0.8,0.7-1.9,1.1-3.4,1.1c-0.8,0-1.5-0.1-2.3-0.3s-1.3-0.5-1.8-0.8
			l0.9-1.7c0.3,0.3,0.8,0.5,1.3,0.7s1.1,0.3,1.6,0.3c0.8,0,1.4-0.2,1.8-0.6s0.6-0.9,0.6-1.7v-0.4c-0.6,0.7-1.5,1-2.6,1
			c-0.8,0-1.4-0.2-2.1-0.5s-1.1-0.8-1.5-1.4s-0.6-1.3-0.6-2.1s0.2-1.5,0.6-2.1s0.9-1.1,1.5-1.4s1.3-0.5,2.1-0.5
			c1.2,0,2.1,0.4,2.7,1.2v-1.1H104.1z M101.1,123c0.4-0.4,0.6-0.9,0.6-1.5s-0.2-1.1-0.6-1.5s-0.9-0.6-1.6-0.6s-1.2,0.2-1.6,0.6
			s-0.6,0.9-0.6,1.5s0.2,1.1,0.6,1.5s0.9,0.6,1.6,0.6S100.7,123.3,101.1,123z"/>
		<path class="st0" d="M118.6,122.4h-6.2c0.1,0.5,0.4,0.9,0.8,1.2c0.4,0.3,0.9,0.4,1.6,0.4c0.4,0,0.8-0.1,1.1-0.2
			c0.3-0.1,0.6-0.3,0.9-0.6l1.3,1.4c-0.8,0.9-1.9,1.3-3.4,1.3c-0.9,0-1.7-0.2-2.5-0.5c-0.7-0.4-1.3-0.9-1.7-1.5
			c-0.4-0.6-0.6-1.4-0.6-2.2c0-0.8,0.2-1.5,0.6-2.2s0.9-1.2,1.6-1.5s1.4-0.5,2.2-0.5c0.8,0,1.5,0.2,2.2,0.5s1.2,0.8,1.5,1.5
			s0.6,1.4,0.6,2.3C118.7,121.8,118.6,122,118.6,122.4z M113,119.8c-0.4,0.3-0.6,0.7-0.7,1.3h4.1c-0.1-0.5-0.3-0.9-0.7-1.2
			c-0.4-0.3-0.8-0.5-1.3-0.5C113.8,119.3,113.4,119.5,113,119.8z"/>
		<path class="st0" d="M141.4,125.7c-0.8-0.2-1.4-0.5-1.9-0.9l0.8-1.9c0.5,0.3,1,0.6,1.6,0.8c0.6,0.2,1.3,0.3,1.9,0.3
			c0.7,0,1.2-0.1,1.6-0.3c0.3-0.2,0.5-0.5,0.5-0.8s-0.1-0.5-0.3-0.6c-0.2-0.2-0.5-0.3-0.8-0.4s-0.7-0.2-1.3-0.3
			c-0.8-0.2-1.5-0.4-2-0.6s-1-0.5-1.3-0.9c-0.4-0.4-0.6-1-0.6-1.7c0-0.6,0.2-1.2,0.5-1.7s0.8-0.9,1.5-1.2s1.5-0.4,2.5-0.4
			c0.7,0,1.4,0.1,2,0.2s1.2,0.4,1.7,0.7l-0.8,1.9c-1-0.6-2-0.8-3-0.8c-0.7,0-1.2,0.1-1.5,0.3c-0.3,0.2-0.5,0.5-0.5,0.9
			s0.2,0.6,0.6,0.8c0.4,0.2,1,0.4,1.8,0.5c0.8,0.2,1.5,0.4,2,0.6s1,0.5,1.3,0.9c0.4,0.4,0.6,1,0.6,1.7c0,0.6-0.2,1.2-0.5,1.7
			s-0.9,0.9-1.5,1.2c-0.7,0.3-1.5,0.4-2.5,0.4C143,126.1,142.2,125.9,141.4,125.7z"/>
		<path class="st0" d="M155.8,125.4c-0.7-0.4-1.2-0.9-1.6-1.5c-0.4-0.6-0.6-1.4-0.6-2.2s0.2-1.5,0.6-2.2c0.4-0.6,0.9-1.1,1.6-1.5
			c0.7-0.4,1.5-0.5,2.3-0.5c0.9,0,1.6,0.2,2.3,0.5c0.7,0.4,1.2,0.9,1.6,1.5c0.4,0.6,0.6,1.4,0.6,2.2s-0.2,1.5-0.6,2.2
			c-0.4,0.6-0.9,1.1-1.6,1.5c-0.7,0.4-1.5,0.5-2.3,0.5C157.2,126,156.4,125.8,155.8,125.4z M159.6,123.4c0.4-0.4,0.6-1,0.6-1.7
			s-0.2-1.2-0.6-1.7c-0.4-0.4-0.9-0.6-1.5-0.6s-1.1,0.2-1.5,0.6s-0.6,1-0.6,1.7s0.2,1.2,0.6,1.7c0.4,0.4,0.9,0.6,1.5,0.6
			S159.2,123.8,159.6,123.4z"/>
		<path class="st0" d="M168.5,114.5h2.4v11.3h-2.4V114.5z"/>
		<path class="st0" d="M185.7,117.6v8.2h-2.3v-1c-0.3,0.4-0.7,0.6-1.1,0.8c-0.4,0.2-0.9,0.3-1.4,0.3c-1.1,0-1.9-0.3-2.6-0.9
			c-0.6-0.6-0.9-1.5-0.9-2.8v-4.6h2.4v4.3c0,1.3,0.6,2,1.7,2c0.6,0,1-0.2,1.4-0.6c0.3-0.4,0.5-0.9,0.5-1.7v-4.1L185.7,117.6
			L185.7,117.6z"/>
		<path class="st0" d="M197.5,125.5c-0.2,0.2-0.5,0.3-0.9,0.4c-0.3,0.1-0.7,0.1-1.1,0.1c-1,0-1.7-0.2-2.3-0.7
			c-0.5-0.5-0.8-1.2-0.8-2.2v-3.4h-1.3v-1.8h1.3v-2h2.4v2h2v1.8h-2v3.3c0,0.3,0.1,0.6,0.3,0.8c0.2,0.2,0.4,0.3,0.8,0.3
			c0.4,0,0.7-0.1,1-0.3L197.5,125.5z"/>
		<path class="st0" d="M203.2,116.1c-0.3-0.3-0.4-0.6-0.4-0.9s0.1-0.7,0.4-0.9s0.6-0.4,1.1-0.4s0.8,0.1,1.1,0.4
			c0.3,0.2,0.4,0.6,0.4,0.9c0,0.4-0.1,0.7-0.4,1c-0.3,0.3-0.6,0.4-1.1,0.4S203.5,116.4,203.2,116.1z M203.1,117.6h2.4v8.2h-2.4
			V117.6z"/>
		<path class="st0" d="M213.6,125.4c-0.7-0.4-1.2-0.9-1.6-1.5c-0.4-0.6-0.6-1.4-0.6-2.2s0.2-1.5,0.6-2.2c0.4-0.6,0.9-1.1,1.6-1.5
			c0.7-0.4,1.5-0.5,2.3-0.5c0.9,0,1.6,0.2,2.3,0.5c0.7,0.4,1.2,0.9,1.6,1.5c0.4,0.6,0.6,1.4,0.6,2.2s-0.2,1.5-0.6,2.2
			c-0.4,0.6-0.9,1.1-1.6,1.5c-0.7,0.4-1.5,0.5-2.3,0.5C215,126,214.2,125.8,213.6,125.4z M217.4,123.4c0.4-0.4,0.6-1,0.6-1.7
			s-0.2-1.2-0.6-1.7c-0.4-0.4-0.9-0.6-1.5-0.6s-1.1,0.2-1.5,0.6s-0.6,1-0.6,1.7s0.2,1.2,0.6,1.7c0.4,0.4,0.9,0.6,1.5,0.6
			S217,123.8,217.4,123.4z"/>
		<path class="st0" d="M233.7,118.4c0.6,0.6,0.9,1.5,0.9,2.7v4.7h-2.4v-4.3c0-0.7-0.1-1.1-0.4-1.5c-0.3-0.3-0.7-0.5-1.2-0.5
			c-0.6,0-1.1,0.2-1.4,0.6c-0.4,0.4-0.5,0.9-0.5,1.7v4.1h-2.4v-8.2h2.3v1c0.3-0.3,0.7-0.6,1.2-0.8c0.5-0.2,1-0.3,1.5-0.3
			C232.3,117.5,233.1,117.8,233.7,118.4z"/>
		<path class="st0" d="M241.9,125.7c-0.7-0.2-1.2-0.4-1.6-0.6l0.8-1.7c0.4,0.2,0.8,0.4,1.3,0.6c0.5,0.1,1,0.2,1.5,0.2
			c1,0,1.5-0.2,1.5-0.7c0-0.2-0.1-0.4-0.4-0.5s-0.7-0.2-1.3-0.3c-0.7-0.1-1.2-0.2-1.7-0.4c-0.4-0.1-0.8-0.4-1.1-0.7
			c-0.3-0.3-0.5-0.8-0.5-1.4c0-0.5,0.2-1,0.5-1.4s0.7-0.7,1.3-0.9c0.6-0.2,1.3-0.3,2-0.3c0.6,0,1.2,0.1,1.7,0.2
			c0.6,0.1,1.1,0.3,1.4,0.5l-0.8,1.7c-0.7-0.4-1.5-0.6-2.4-0.6c-0.5,0-0.9,0.1-1.1,0.2s-0.4,0.3-0.4,0.6c0,0.3,0.1,0.4,0.4,0.5
			c0.3,0.1,0.7,0.2,1.3,0.3c0.7,0.1,1.2,0.2,1.7,0.4c0.4,0.1,0.8,0.4,1.1,0.7c0.3,0.3,0.5,0.8,0.5,1.4c0,0.5-0.2,1-0.5,1.4
			s-0.8,0.7-1.3,0.9c-0.6,0.2-1.3,0.3-2.1,0.3C243.2,126,242.5,125.9,241.9,125.7z"/>
	</g>
</g>
</svg>
