<svg width="179" height="33" viewBox="0 0 179 33" fill="none" xmlns="http://www.w3.org/2000/svg">
<path d="M46.616 24.1891H42.066L41.198 26.2891H38.874L43.242 16.4891H45.482L49.864 26.2891H47.484L46.616 24.1891ZM45.902 22.4671L44.348 18.7151L42.794 22.4671H45.902ZM57.9489 26.2891L55.5829 22.8871L53.2589 26.2891H50.6549L54.2809 21.3051L50.8369 16.4891H53.4129L55.6669 19.6671L57.8789 16.4891H60.3289L56.9129 21.2211L60.5669 26.2891H57.9489ZM62.8546 16.4891H65.1226V26.2891H62.8546V16.4891ZM73.5943 26.4571C72.577 26.4571 71.6577 26.2377 70.8363 25.7991C70.0243 25.3604 69.385 24.7584 68.9183 23.9931C68.461 23.2184 68.2323 22.3504 68.2323 21.3891C68.2323 20.4277 68.461 19.5644 68.9183 18.7991C69.385 18.0244 70.0243 17.4177 70.8363 16.9791C71.6577 16.5404 72.577 16.3211 73.5943 16.3211C74.6117 16.3211 75.5263 16.5404 76.3383 16.9791C77.1503 17.4177 77.7897 18.0244 78.2563 18.7991C78.723 19.5644 78.9563 20.4277 78.9563 21.3891C78.9563 22.3504 78.723 23.2184 78.2563 23.9931C77.7897 24.7584 77.1503 25.3604 76.3383 25.7991C75.5263 26.2377 74.6117 26.4571 73.5943 26.4571ZM73.5943 24.5251C74.173 24.5251 74.6957 24.3944 75.1623 24.1331C75.629 23.8624 75.993 23.4891 76.2543 23.0131C76.525 22.5371 76.6603 21.9957 76.6603 21.3891C76.6603 20.7824 76.525 20.2411 76.2543 19.7651C75.993 19.2891 75.629 18.9204 75.1623 18.6591C74.6957 18.3884 74.173 18.2531 73.5943 18.2531C73.0157 18.2531 72.493 18.3884 72.0263 18.6591C71.5597 18.9204 71.191 19.2891 70.9203 19.7651C70.659 20.2411 70.5283 20.7824 70.5283 21.3891C70.5283 21.9957 70.659 22.5371 70.9203 23.0131C71.191 23.4891 71.5597 23.8624 72.0263 24.1331C72.493 24.3944 73.0157 24.5251 73.5943 24.5251ZM90.9788 26.2891L90.9648 20.4091L88.0808 25.2531H87.0588L84.1888 20.5351V26.2891H82.0608V16.4891H83.9368L87.6048 22.5791L91.2168 16.4891H93.0788L93.1068 26.2891H90.9788ZM106.887 26.4571C105.888 26.4571 104.983 26.2424 104.171 25.8131C103.368 25.3744 102.733 24.7724 102.267 24.0071C101.809 23.2324 101.581 22.3597 101.581 21.3891C101.581 20.4184 101.809 19.5504 102.267 18.7851C102.733 18.0104 103.368 17.4084 104.171 16.9791C104.983 16.5404 105.893 16.3211 106.901 16.3211C107.75 16.3211 108.515 16.4704 109.197 16.7691C109.887 17.0677 110.466 17.4971 110.933 18.0571L109.477 19.4011C108.814 18.6357 107.993 18.2531 107.013 18.2531C106.406 18.2531 105.865 18.3884 105.389 18.6591C104.913 18.9204 104.539 19.2891 104.269 19.7651C104.007 20.2411 103.877 20.7824 103.877 21.3891C103.877 21.9957 104.007 22.5371 104.269 23.0131C104.539 23.4891 104.913 23.8624 105.389 24.1331C105.865 24.3944 106.406 24.5251 107.013 24.5251C107.993 24.5251 108.814 24.1377 109.477 23.3631L110.933 24.7071C110.466 25.2764 109.887 25.7104 109.197 26.0091C108.506 26.3077 107.736 26.4571 106.887 26.4571ZM121.452 24.4691V26.2891H113.864V16.4891H121.27V18.3091H116.118V20.4371H120.668V22.2011H116.118V24.4691H121.452ZM133.645 16.4891V26.2891H131.783L126.897 20.3391V26.2891H124.657V16.4891H126.533L131.405 22.4391V16.4891H133.645ZM139.394 18.3371H136.258V16.4891H144.798V18.3371H141.662V26.2891H139.394V18.3371ZM153.662 26.2891L151.772 23.5591H151.66H149.686V26.2891H147.418V16.4891H151.66C152.528 16.4891 153.279 16.6337 153.914 16.9231C154.558 17.2124 155.053 17.6231 155.398 18.1551C155.743 18.6871 155.916 19.3171 155.916 20.0451C155.916 20.7731 155.739 21.4031 155.384 21.9351C155.039 22.4577 154.544 22.8591 153.9 23.1391L156.098 26.2891H153.662ZM153.62 20.0451C153.62 19.4944 153.443 19.0744 153.088 18.7851C152.733 18.4864 152.215 18.3371 151.534 18.3371H149.686V21.7531H151.534C152.215 21.7531 152.733 21.6037 153.088 21.3051C153.443 21.0064 153.62 20.5864 153.62 20.0451ZM165.567 24.1891H161.017L160.149 26.2891H157.825L162.193 16.4891H164.433L168.815 26.2891H166.435L165.567 24.1891ZM164.853 22.4671L163.299 18.7151L161.745 22.4671H164.853ZM171.232 16.4891H173.5V24.4411H178.414V26.2891H171.232V16.4891Z" fill="black"/>
<g clip-path="url(#clip0)">
<path d="M23.1278 17.0222L16.9134 0H14.3917L10.4366 11.5695C10.495 11.6176 10.5533 11.6609 10.6116 11.7091L12.2976 12.9603L14.6006 5.958L18.0601 15.6073C19.3428 16.281 22.3115 16.8249 23.1278 17.0222Z" fill="#231F20"/>
<path d="M31.9271 32.1193C31.9271 32.1193 31.1545 32.3262 30.5229 31.9124C29.8913 31.4937 29.4005 30.8006 28.628 29.198C28.2247 28.3655 27.7437 27.3404 27.3793 26.5511C28.9049 26.6137 30.3917 26.5704 31.8591 26.4837V23.4229C31.8591 23.4229 21.1794 24.9533 13.454 19.7365C5.72363 14.5196 1.93378 8.73968 1.08835 7.42103C0.592749 6.6462 2.74519 12.4165 7.43393 17.4553L3.22621 28.6975C2.67717 30.1894 1.98722 31.9172 0.291504 32.1867V33C1.48191 33 2.80836 32.7257 4.09108 32.7257C5.36894 32.7257 6.65652 33 7.93438 33V32.1867C6.55934 32.0952 5.78194 31.3685 5.78194 29.8285C5.78194 28.4713 7.05494 25.5308 8.06071 22.3593H8.07043L8.7458 20.3188L9.20253 19.2071C10.0188 19.9434 10.8982 20.6412 11.836 21.2765C15.9077 24.0293 19.5906 25.425 23.0404 26.0795C23.5019 27.0228 25.3046 30.8247 24.6924 31.4359C23.9927 32.1337 22.8654 32.2059 22.5836 32.2733C22.3018 32.3407 22.5108 32.9663 22.5108 32.9663C22.5108 32.9663 27.4667 32.6679 27.7145 32.6679C28.1032 32.6679 31.9903 32.9663 31.9903 32.9663L31.9271 32.1193Z" fill="#231F20"/>
<path d="M0.0680127 1.92506C-0.558771 0.938477 3.09018 10.5541 10.8157 15.7709C18.5411 20.9878 24.8624 21.3391 30.8339 20.9878V17.927C30.8339 17.927 20.1543 19.4574 12.4288 14.2405C4.70816 9.02365 0.913442 3.24371 0.0680127 1.92506Z" fill="#84BD00"/>
</g>
<defs>
<clipPath id="clip0">
<rect width="32" height="33" fill="white"/>
</clipPath>
</defs>
</svg>
