<?xml version="1.0" encoding="utf-8"?>
<!-- Generator: Adobe Illustrator 27.3.1, SVG Export Plug-In . SVG Version: 6.00 Build 0)  -->
<svg version="1.1" id="Layer_1" xmlns="http://www.w3.org/2000/svg" xmlns:xlink="http://www.w3.org/1999/xlink" x="0px" y="0px"
	 width="300px" height="184.7px" viewBox="0 0 300 184.7" style="enable-background:new 0 0 300 184.7;" xml:space="preserve">
<style type="text/css">
	.st0{fill:#F1EFE0;}
	.st1{fill:#FFFFFF;}
	.st2{fill:#E6E6E6;}
	.st3{fill:none;stroke:#FFFFFF;stroke-miterlimit:10;}
	.st4{fill:#C6A143;}
	.st5{fill:none;stroke:#B3B3B3;stroke-miterlimit:10;}
	.st6{fill:none;stroke:#B3B3B3;stroke-miterlimit:10;stroke-dasharray:6.8063,6.8063;}
	.st7{fill:#FFA320;}
	.st8{fill:#EB4334;}
	.st9{fill:#415A71;}
	.st10{fill:#FFC69A;}
	.st11{fill:#DAA184;}
	.st12{fill:#411809;}
	.st13{fill:#50697C;}
	.st14{fill:#FFB780;}
	.st15{opacity:0.1;}
	.st16{fill:none;stroke:#3943B3;stroke-width:2;stroke-miterlimit:10;}
	.st17{fill:none;stroke:#3943B3;stroke-width:2;stroke-linecap:round;stroke-miterlimit:10;}
	.st18{fill:none;stroke:#3943B3;stroke-linecap:round;stroke-miterlimit:10;}
	.st19{fill:none;stroke:#3943B3;stroke-miterlimit:10;}
</style>
<g>
	<path class="st0" d="M41.3,19.5C75.9-8.1,120.8,1.6,122.7,2c28.4,6.6,27.1,21.4,58,32.5c45.1,16.2,68.8-7.8,94.7,10.6
		c20.2,14.4,28.7,45.3,22.9,68.6c-10.8,43.1-72.4,68.1-119.2,62.3c-44.6-5.6-56.4-37-105.9-36.2c-32,0.5-42.9,13.9-55.3,5.3
		C-6,128.7-2.2,54.2,41.3,19.5z"/>
	<path class="st1" d="M243.7,166.3H59c-5.3,0-9.6-4.3-9.6-9.6V38.1c0-5.3,4.3-9.6,9.6-9.6h184.7c5.3,0,9.6,4.3,9.6,9.6v118.6
		C253.3,162,249,166.3,243.7,166.3z"/>
	<path class="st2" d="M245.4,28.9H58.5c-4.9-0.2-8.9,3.1-8.7,8.8v3l203.1-0.2v-3.5C252.9,32.8,249.5,28.9,245.4,28.9z"/>
	<g>
		<path d="M135.6,127.9H68.4c-1.3,0-2.3-1-2.3-2.3v-20.8c0-1.3,1-2.3,2.3-2.3h67.2c1.3,0,2.3,1,2.3,2.3v20.8
			C137.9,126.9,136.9,127.9,135.6,127.9z"/>
		<path class="st1" d="M87.4,115.5c0,3.8-3.1,6.9-6.9,6.9c-3.8,0-6.9-3.1-6.9-6.9c0-3.8,3.1-6.9,6.9-6.9
			C84.3,108.6,87.4,111.7,87.4,115.5z"/>
		<g>
			<line class="st3" x1="93.2" y1="116.3" x2="129.6" y2="116.3"/>
			<line class="st3" x1="93.2" y1="111.6" x2="110.6" y2="111.6"/>
			<line class="st3" x1="93.2" y1="120.6" x2="129.6" y2="120.6"/>
		</g>
	</g>
	<path class="st4" d="M241.9,55.8v-3.5c0-2.2-1.8-4-4-4h-75.6c-2.2,0-4,1.8-4,4v33.9L241.9,55.8z"/>
	
		<rect x="179.4" y="50.6" transform="matrix(0.9286 -0.3711 0.3711 0.9286 -11.4344 74.1665)" class="st4" width="15.3" height="32.3"/>
	<path class="st5" d="M236.6,145.6h-73.1c-2.9,0-5.2-2.3-5.2-5.2V53.5c0-2.9,2.3-5.2,5.2-5.2h73.1c2.9,0,5.2,2.3,5.2,5.2v86.8
		C241.9,143.3,239.5,145.6,236.6,145.6z"/>
	
		<rect x="174.2" y="61.6" transform="matrix(0.9286 -0.3711 0.3711 0.9286 -15.8795 73.0248)" class="st4" width="15.3" height="32.3"/>
	
		<rect x="166.2" y="73.6" transform="matrix(0.9286 -0.3711 0.3711 0.9286 -17.7466 70.2995)" class="st4" width="15.3" height="15.3"/>
	
		<rect x="221.7" y="54.7" transform="matrix(0.9286 -0.3711 0.3711 0.9286 -7.948 89.776)" class="st4" width="15.3" height="21.7"/>
	<rect x="66.3" y="48.3" class="st2" width="71.6" height="10.4"/>
	<rect x="66.3" y="134.4" class="st2" width="71.6" height="4"/>
	<rect x="66.3" y="141.9" class="st2" width="71.6" height="4"/>
	<g>
		<path class="st6" d="M135.6,95.9H68.4c-1.3,0-2.3-1-2.3-2.3V72.8c0-1.3,1-2.3,2.3-2.3h67.2c1.3,0,2.3,1,2.3,2.3v20.8
			C137.9,94.9,136.9,95.9,135.6,95.9z"/>
	</g>
	<g>
		<circle class="st7" cx="234.9" cy="35.4" r="1.7"/>
		<circle class="st8" cx="240.5" cy="35.4" r="1.7"/>
		<circle class="st9" cx="246" cy="35.4" r="1.7"/>
	</g>
	<path class="st1" d="M225.9,38.1H58c-1.8,0-3.3-1.5-3.3-3.3l0,0c0-1.8,1.5-3.3,3.3-3.3h167.9c1.8,0,3.3,1.5,3.3,3.3l0,0
		C229.1,36.7,227.7,38.1,225.9,38.1z"/>
	<path class="st5" d="M243.7,166.3H59c-5.3,0-9.6-4.3-9.6-9.6V38.1c0-5.3,4.3-9.6,9.6-9.6h184.7c5.3,0,9.6,4.3,9.6,9.6v118.6
		C253.3,162,249,166.3,243.7,166.3z"/>
	<g>
		<path d="M108.7,95.9H41.5c-1.3,0-2.3-1-2.3-2.3V72.8c0-1.3,1-2.3,2.3-2.3h67.2c1.3,0,2.3,1,2.3,2.3v20.8
			C111,94.9,110,95.9,108.7,95.9z"/>
		<path class="st1" d="M60.5,83.6c0,3.8-3.1,6.9-6.9,6.9c-3.8,0-6.9-3.1-6.9-6.9c0-3.8,3.1-6.9,6.9-6.9
			C57.4,76.6,60.5,79.7,60.5,83.6z"/>
		<g>
			<line class="st3" x1="66.3" y1="84.3" x2="102.7" y2="84.3"/>
			<line class="st3" x1="66.3" y1="79.6" x2="83.7" y2="79.6"/>
			<line class="st3" x1="66.3" y1="88.6" x2="102.7" y2="88.6"/>
		</g>
	</g>
	<g>
		<g>
			<path class="st7" d="M31.6,176.7c0,0,4.5,1.3,6.7,2.5c1.8,1,2,1.8-0.2,1.8c-2.8,0-6.1-0.1-8.1-0.4c-1.4-0.2-0.8-3.4-0.6-3.9
				L31.6,176.7z"/>
			<polygon class="st10" points="31.2,176.7 31.6,174.9 29.3,175.2 29.4,176.7 			"/>
			<path class="st9" d="M39.6,180.6c-2.4-0.1-7.5-0.3-8.9-0.6c-0.8-0.2-1.3-0.5-1.7-0.9c0,0.8,0.3,1.4,0.9,1.5
				c2,0.3,5.3,0.4,8.1,0.4C39,181,39.5,180.8,39.6,180.6z"/>
			<path class="st11" d="M20.9,115.6c0,0-0.6-2.7,4.2-6.2c4.7-3.5,7.3-6.1,7.3-6.1l4.5-15.5l1.6,0.7c0,0,0.1,12.2-0.6,15.8
				C37.1,107.9,22.1,123.6,20.9,115.6z"/>
			<path class="st7" d="M33.2,99.5l5.1,0.7l-0.2,4.2c0,0-7.4,11.6-12.3,13.4c-4.8,1.8-7.7-1-6.6-3c1.2-2,12.3-11.4,12.3-11.4
				L33.2,99.5z"/>
			
				<rect x="34.3" y="96.5" transform="matrix(-0.1559 0.9878 -0.9878 -0.1559 139.4577 80.0027)" class="st4" width="2.5" height="6.1"/>
			<path class="st11" d="M38.4,92c0,0-2.9-7.2-2.1-8c0,0,2.7,4.6,3.6,6.6"/>
			<g>
				<path class="st4" d="M3.7,172.3c0,0,3.2,3.4,4.4,5.7c1,1.8,0.8,2.6-1.1,1.4c-2.4-1.5-5.2-3.3-6.7-4.6c-1-0.9,1.1-3.3,1.6-3.6
					L3.7,172.3z"/>
				<polygon class="st10" points="3.4,172.1 4.7,170.8 2.6,169.8 1.9,171.2 				"/>
			</g>
			<g>
				<path class="st9" d="M30.1,133.6l-9.3-5.2c0,0,1.6,19.5,7.5,28.1c0,0,0,15.7,1.1,19.1l2.2-0.1c0,0,3.3-17.9,3-20.7
					C34,149.7,33.4,142.2,30.1,133.6z"/>
			</g>
			<g>
				<path class="st12" d="M20.3,97.7c0,0-3.7,1.8-4,8.6c-0.3,6.8-1.5,7.1-1.5,7.1s5,2.9,10.6,0L20.3,97.7z"/>
				<path class="st10" d="M24.7,98.3c1.5,1.4,2.2,3.6,2.3,5.6c0.1,2.3-3.4,2.6-5.4,1.5c-1.7-1-3-3.2-2.7-5
					C19.4,98,22.8,96.5,24.7,98.3z"/>
				<path class="st10" d="M22.7,101.1l-3.6,0.6l1.4,8.8c0.2,1.3,1.4,2.1,2.6,1.9l0,0c1.4-0.2,2.2-1.6,1.9-2.9L22.7,101.1z"/>
				<path class="st12" d="M23.1,97.9c0,0,0.9,4.9-4,6.1c-3.4,0.8-3.4-7.7,1.5-7.9c6.8-0.3,5.3,3.7,5.3,3.7S24.2,97.4,23.1,97.9z"/>
				<polygon class="st11" points="24.2,106.8 21.5,105.6 24,106 				"/>
			</g>
			<path class="st9" d="M28.3,129.6l-11.3,3c0,0-3.2,4.3-2,21c0,0-9.8,8.3-12.6,16.3l1.8,1.2c0,0,13.9-12.4,15.8-14.5
				C22.4,154.2,27,145.8,28.3,129.6z"/>
			<path class="st4" d="M27.1,110.4c-0.2-1-1-1.8-1.9-2.2c-2.1-0.8-7.2-0.8-7.2,6.1c-0.1,13.5-0.9,18.3-0.9,18.3s2.7,2.4,13,1.1
				l-1.4-8.5l1.2-2.6c0.8-2.1,0.7-4.4-0.2-6.4L27.1,110.4z"/>
			<path class="st10" d="M23,116.1c0,0-0.6-2.7,4.2-6.2c4.7-3.5,7.3-6.1,7.3-6.1l4.5-15.5l1.6,0.7c0,0,0.1,12.2-0.6,15.8
				C39.2,108.4,24.2,124.1,23,116.1z"/>
			<path class="st10" d="M38.5,89.8c0,0-1-4.4-0.2-5.2c0,0,0.8,1.8,1.7,3.8c0.3,0.6,2.9,2.5,1.5,2.3C40.2,90.5,38.5,89.8,38.5,89.8z
				"/>
			<path class="st10" d="M25.4,99.2c0,0,1.1,1.2,2,1.4c0,0-0.2,0.8-0.9,1.2L25.4,99.2z"/>
			<path class="st9" d="M8.6,179.8c-2-1.3-6.3-4.2-7.2-5.2c-0.6-0.6-0.8-1.1-1-1.6c-0.4,0.7-0.5,1.4-0.1,1.7
				c1.5,1.3,4.3,3.1,6.7,4.6C7.8,179.9,8.3,180,8.6,179.8z"/>
			<path class="st10" d="M2,171.3c0,0,2.5,4.3,3.6,3.2l-1.8-2.7L2,171.3z"/>
			<path class="st10" d="M29.7,176.6c0,0,4.3,2.4,4.6,0.9l-3-1.3L29.7,176.6z"/>
			<path class="st4" d="M35.6,99.6l4.6,0.9l-0.3,5.4c0,0-6.9,10.4-11.7,12.2c-4.8,1.8-7.7-1-6.6-3c1.2-2,12.3-11.4,12.3-11.4
				L35.6,99.6z"/>
			
				<rect x="36.7" y="96.7" transform="matrix(-0.1559 0.9878 -0.9878 -0.1559 142.4577 77.8209)" class="st4" width="2.5" height="6.1"/>
			<path class="st9" d="M30.1,133.6l1.2,3.4l-7.8,8.6l0.7-11.6C24.2,134,26.7,134.1,30.1,133.6z"/>
			<path class="st13" d="M21,152.4c-1.6,1.6-2.1,2.4-2.3,3.3c-0.2,0.8,0,0.9-0.2,1.4c-0.6,1.3-2.3,1-4.4,2c-1.5,0.7-2.5,1.8-4.5,4
				c-1,1.1-0.9,1.2-2.5,3.2c-1.9,2.4-3.1,3.6-3.6,4.4l0.8,0.5c0,0,13.9-12.4,15.8-14.5c1-1.1,2.5-3.4,4-7.1
				C23.8,149.5,22.9,150.5,21,152.4z"/>
			
				<rect x="28.6" y="174.4" transform="matrix(-1 -1.224647e-16 1.224647e-16 -1 60.7393 350.1788)" class="st9" width="3.6" height="1.4"/>
			<rect x="1.6" y="169.6" transform="matrix(-0.866 -0.5 0.5 -0.866 -78.8241 319.5421)" class="st9" width="3.6" height="1.4"/>
		</g>
		<g>
			<g>
				<path class="st4" d="M16.1,103.2l8.3-6.6c-1.8-2.3-5.1-2.7-7.4-0.9C14.7,97.6,14.3,100.9,16.1,103.2"/>
			</g>
			<path class="st7" d="M18.8,94.8c-0.6,0.2-1.2,0.5-1.8,0.9c-2.3,1.8-2.7,5.1-0.9,7.4l2.2-1.7C16.8,99.4,17.1,96.6,18.8,94.8z"/>
			
				<rect x="14.8" y="98.6" transform="matrix(0.8015 -0.598 0.598 0.8015 -55.2623 32.2539)" class="st7" width="12.3" height="1.5"/>
		</g>
		<path class="st9" d="M29.9,122.5c0.7-1.8,0.7-3.7,0.1-5.5c-3.1,1.1-5.8,0.9-7.9,0.3c-1.7-6.1,1-8.8,1.7-9.4
			c-0.7-0.1-1.4,0-2.2,0.2c-1.1,1.5-2.2,4.3-1.2,8.6c-1.6-0.8-2.5-1.6-2.5-1.6l0,0c-0.1,12.9-1.3,18.2-1.3,18.2s3,1.8,13.3,0.5
			l-1.4-8.5L29.9,122.5z"/>
		<path class="st13" d="M34.5,154.9c-0.6-5.2-1.1-12.8-4.5-21.3l-1.4-8.5l1.2-2.6c0.7-1.8,0.7-3.7,0.1-5.5c-0.5,0.2-1.1,0.3-1.6,0.5
			c0.1,1.5,0.2,3.5-0.8,5.6c-0.3,0.7-0.9,1.6-1.1,3c-0.3,1.7,0.1,3,0.3,3.8c1.2,4.5,2.3,7.8,2.3,7.8c1.6,4.5,2.4,6.8,2.5,7.9
			c0.2,4.1-1.7,6.4-0.1,8.6c0.8,1,1.8,1.3,1.9,2.5c0.1,1-0.9,1.4-1.5,2.7c-0.9,1.8-0.1,3.1,0,5.7c0.1,2.7-0.6,3-1,5.9
			c-0.2,1.5-0.2,3.3,0,4.8l0.6,0C31.5,175.7,34.8,157.8,34.5,154.9z"/>
	</g>
	<g>
		<g>
			<polygon class="st8" points="89.8,178.8 72,178.8 77.8,149.4 84,149.4 			"/>
			<rect x="67.8" y="177.3" class="st8" width="25.4" height="3"/>
		</g>
		<polygon class="st8" points="89.8,178.8 72,178.8 77.8,149.4 84,149.4 		"/>
		<polygon class="st1" points="75.3,161.8 86.5,161.8 85.6,157.2 76.3,157.2 		"/>
		<polygon class="st1" points="73.2,172.6 88.6,172.6 87.7,168 74.1,168 		"/>
	</g>
	<g>
		<g>
			<g>
				<path class="st9" d="M281,174.4c0,0-7,3.8-9.3,3.9c-2.3,0-0.6,1,1.9,1.2c2,0.2,5.9-0.4,8.3-0.8c0.2,0,0.7-0.6,0.7-0.6
					c0.2,0.5,0.2,0.5,0.2,0.5c0.2,0,1.2-0.1,1.2-0.1c0.1-1.2-0.5-4.1-0.5-4.1L281,174.4z"/>
				<g>
					<polygon class="st14" points="281,174.4 281,172.5 283.5,172.7 283.4,174.4 					"/>
				</g>
			</g>
		</g>
		<path class="st9" d="M280.9,118.5l8.3,1.4c0,0-2.5,22.1-5.1,30.7c0,0,1.7,14.8-0.1,22.8l-3.3,0.2c0,0-2.8-18.9-3.5-22.1
			C276.2,147.6,277.3,138.3,280.9,118.5z"/>
		<polygon class="st9" points="279.9,171.7 280.1,173.8 284.2,173.7 284.5,171.8 		"/>
		<g>
			<g>
				<g>
					<path class="st9" d="M290.7,175.1c0,0-7,3.8-9.3,3.9c-2.3,0-0.6,1,1.9,1.2c2,0.2,5.9-0.4,8.3-0.8c0.2,0,0.7-0.6,0.7-0.6
						c0.2,0.5,0.2,0.5,0.2,0.5c0.2,0,1.2-0.1,1.2-0.1c0.1-1.2-0.5-4.1-0.5-4.1L290.7,175.1z"/>
					<g>
						<polygon class="st14" points="290.7,175.1 290.8,173.3 293.3,173.4 293.2,175.1 						"/>
					</g>
				</g>
			</g>
			<path class="st9" d="M284.9,119.8l8.8,6.8c0,0,2.9,4.3-1.5,24.2c0,0,3.8,11,1.4,23.3l-3.2,0.5c0,0-3.9-20.3-5-23.4
				C284,147.4,282.9,137.1,284.9,119.8z"/>
			<polygon class="st9" points="289.4,172.6 289.8,174.7 293.9,174.3 294,172.4 			"/>
			<polygon class="st9" points="284.2,126.5 279.5,126.4 278.7,130.9 285.6,142.7 			"/>
		</g>
		<path class="st9" d="M281.1,179.4"/>
		<g>
			<g>
				<path class="st4" d="M289.3,101.9c0,0-3.2-2.9-7.2,3c-4,5.9-6.6,8.7-6.6,8.7l-15-8.3l-1.6,3.2c0,0,13.5,15.5,17.8,14.4
					C281.1,121.9,299,102.9,289.3,101.9z"/>
				<path class="st14" d="M259,108.6c0,0-7.3-5.6-3.8-4.6c1.6,0.4,3,1.6,3.5,1.1c0.5-0.5-0.6-0.9-0.8-2c-0.2-1,3.2,2.7,3.2,2.7
					L259,108.6z"/>
				<g class="st15">
					<polygon points="264.1,110.1 270.4,115.9 263.3,112.6 					"/>
				</g>
				<g class="st15">
					<g>
						<polygon points="275.1,119.2 282.6,112.4 282.6,114.2 278.8,120.2 						"/>
					</g>
				</g>
				<polygon class="st4" points="258.1,108.4 259.7,109.6 262.5,106.1 261,104.9 				"/>
			</g>
			<path class="st4" d="M286.2,99.5c2.5-0.9,9.6-1.5,10.7,4.6c1,5.6-1.1,10.4-1.9,14.3c-0.6,2.8-0.9,7-0.9,7s-4.7,5.5-13.3,3
				l0.6-9.4l0.6-5.2c-0.5-5.9-0.3-6.7,0.7-9.6c0.4-1.2,2.1-3.9,3.2-4.5C285.9,99.6,286.1,99.6,286.2,99.5z"/>
			<path class="st9" d="M282.3,109.2l-0.7-0.6c0-3.8,1.6-9,7.7-9.5h0.2C281.6,100.7,282.3,109.1,282.3,109.2z"/>
			<path class="st14" d="M288.4,89.7l4.5,0l-0.5,9.4c0,0.3-0.1,0.6-0.3,0.8c-1.8,1.3-3.4,0.7-3.4,0.7c-1.5-0.4-0.4-1.1-0.2-2.8
				L288.4,89.7z"/>
			<path class="st14" d="M287.8,87.5c-2.2,2.8-2.4,5.2-2.4,7.7c0.1,3.2,4.3,3.2,7,1.5c2.4-1.5,3.5-4.2,2.9-6.8
				C294.7,86.6,290.2,84.6,287.8,87.5z"/>
			<g class="st15">
				<polygon points="288.2,98.7 290.8,97.6 288.4,97.9 				"/>
			</g>
			<path class="st14" d="M286.4,90.6c0,0-0.9,0.7-1.9,2c0,0,0.4,0.8,1.2,1.1L286.4,90.6z"/>
			<path class="st12" d="M295.9,89.5c-0.2-4.3-7.7-4.3-8.6-3.6c-1.8,1.4-0.3,2.9-0.3,2.9l0.4-0.3c0.1,0,0.1-0.1,0.2-0.1
				c1.1,0.2,5,1,3.8,4c-0.3,0.8,0.4,1.1,1.2,1.2c0.1,0.9,0.1,1.9-0.1,2.9C292.3,97.3,296.2,96.5,295.9,89.5z"/>
			<g>
				<g>
					<path class="st9" d="M264.4,113.8l-1.1,1.2l-14.9-13.2c-0.3-0.2-0.3-0.6-0.1-0.9l0.7-0.7L264.4,113.8z"/>
				</g>
				<path class="st1" d="M263.8,109.4c0.4,0.4,0.7,0.9,0.7,1.5l0,2.9l-15.4-13.6l4.4,0.7c0.5,0.1,1,0.3,1.4,0.7L263.8,109.4z"/>
			</g>
			<path class="st14" d="M289.9,94.2c0.3,0.5,1.2,0.5,2,0c0.8-0.5,1.1-1.3,0.7-1.9c-0.3-0.5-1.2-0.5-2,0
				C289.9,92.9,289.6,93.7,289.9,94.2z"/>
			<path class="st9" d="M294.1,127.9c0,0,0.3-6.7,0.9-9.5c0.3-1.6,0.9-3.3,1.3-5.1c-5.6-0.5-11-2.8-14.7-4.7c0,1.2,0,2.8,0.3,5.3
				l-1.2,5.2l-1.6,9.6C287.8,131.1,294.1,127.9,294.1,127.9z"/>
			<path class="st16" d="M288.4,99.8"/>
		</g>
		<path class="st9" d="M291.3,133.9l-2.9-0.8c3.8-13.9,5.6-26.9,4-28.4c-1-0.9-1.7-0.9-2.1-0.8c-2.2,0.6-4.3,5.4-5,7.7l-2.3-0.9
			c0.3-0.9,2.1-8.5,6.5-9.7c1.2-0.3,3-0.3,5,1.4C298.4,106,293.6,125.6,291.3,133.9z"/>
		<g>
			<path class="st4" d="M290.5,102.9c0,0-3,0-6.2,6.3c-3.2,6.3-4.9,8-4.9,8l-15.1-6.7l-2.6,3.4c0,0,16.1,13.8,19.9,11.4
				C288.7,121.1,300.3,102.7,290.5,102.9z"/>
			<path class="st14" d="M261.8,114c0,0-3.4,0.3-4.3-1.8c-0.5-1.3-2.4-4.2-0.5-2.9c1.1,0.8,2.7,2.4,3.2,1.8c0.5-0.6-1.9-0.9-1.3-2.2
				l4,2.3L261.8,114z"/>
		</g>
		<polygon class="st4" points="260.6,114.9 262.3,115.8 265.2,110.7 263.5,109.8 		"/>
		<g>
			<g>
				<path class="st4" d="M296.4,90.9l-9.4-4.8c1.3-2.6,4.5-3.6,7.1-2.3C296.7,85.1,297.8,88.3,296.4,90.9"/>
			</g>
			<path class="st7" d="M292.2,83.2c0.7,0.1,1.3,0.2,1.9,0.6c2.6,1.3,3.6,4.5,2.3,7.1l-2.5-1.2C295,87.3,294.2,84.7,292.2,83.2z"/>
			
				<rect x="290.2" y="82" transform="matrix(0.4283 -0.9036 0.9036 0.4283 86.7154 313.2698)" class="st7" width="1.5" height="12.3"/>
		</g>
	</g>
	<g>
		<g>
			<polygon class="st8" points="271.2,178.8 253.4,178.8 259.2,149.4 265.4,149.4 			"/>
			<rect x="249.2" y="177.3" class="st8" width="25.4" height="3"/>
		</g>
		<polygon class="st8" points="271.2,178.8 253.4,178.8 259.2,149.4 265.4,149.4 		"/>
		<polygon class="st1" points="256.7,161.8 267.9,161.8 267,157.2 257.7,157.2 		"/>
		<polygon class="st1" points="254.6,172.6 270,172.6 269.1,168 255.5,168 		"/>
	</g>
	<g>
		<g>
			<path class="st9" d="M138,184.7c0.4,0,0.7-0.3,0.8-0.6l13.5-65.8c0.1-0.4-0.2-0.8-0.6-0.9c-0.4-0.1-0.8,0.2-0.9,0.6l-13.5,65.8
				c-0.1,0.4,0.2,0.8,0.6,0.9C137.9,184.7,137.9,184.7,138,184.7z"/>
			<path class="st13" d="M150.8,124.7h19.5c0.4,0,0.8-0.3,0.8-0.8c0-0.4-0.3-0.8-0.8-0.8h-19.5c-0.4,0-0.8,0.3-0.8,0.8
				C150.1,124.3,150.4,124.7,150.8,124.7z"/>
			<path class="st13" d="M148.9,133.1h19.5c0.4,0,0.8-0.3,0.8-0.8c0-0.4-0.3-0.8-0.8-0.8h-19.5c-0.4,0-0.8,0.3-0.8,0.8
				C148.2,132.8,148.5,133.1,148.9,133.1z"/>
			<path class="st13" d="M147.3,141.6h19.5c0.4,0,0.8-0.3,0.8-0.8c0-0.4-0.3-0.8-0.8-0.8h-19.5c-0.4,0-0.8,0.3-0.8,0.8
				C146.5,141.2,146.9,141.6,147.3,141.6z"/>
			<path class="st13" d="M145.5,150H165c0.4,0,0.8-0.3,0.8-0.8s-0.3-0.8-0.8-0.8h-19.5c-0.4,0-0.8,0.3-0.8,0.8S145.1,150,145.5,150z
				"/>
			<path class="st13" d="M143.9,158.5h19.5c0.4,0,0.8-0.3,0.8-0.8c0-0.4-0.3-0.8-0.8-0.8h-19.5c-0.4,0-0.8,0.3-0.8,0.8
				C143.1,158.2,143.4,158.5,143.9,158.5z"/>
			<path class="st13" d="M142.2,167h19.5c0.4,0,0.8-0.3,0.8-0.8c0-0.4-0.3-0.8-0.8-0.8h-19.5c-0.4,0-0.8,0.3-0.8,0.8
				C141.5,166.6,141.8,167,142.2,167z"/>
			<path class="st13" d="M140.5,175.4H160c0.4,0,0.8-0.3,0.8-0.8c0-0.4-0.3-0.8-0.8-0.8h-19.5c-0.4,0-0.8,0.3-0.8,0.8
				C139.8,175.1,140.1,175.4,140.5,175.4z"/>
			<path class="st9" d="M158.8,184.7c0.4,0,0.7-0.3,0.8-0.6l13.5-65.8c0.1-0.4-0.2-0.8-0.6-0.9c-0.4-0.1-0.8,0.2-0.9,0.6L158,183.8
				c-0.1,0.4,0.2,0.8,0.6,0.9C158.7,184.7,158.8,184.7,158.8,184.7z"/>
		</g>
	</g>
	<g>
		<g>
			<line class="st17" x1="222.9" y1="76.1" x2="226.9" y2="86.2"/>
			<polyline class="st18" points="212.4,73.7 213.7,75.9 222.7,75.6 229.4,69.7 228.4,66.4 			"/>
			<line class="st18" x1="229.1" y1="65.8" x2="211.6" y2="73.6"/>
			<path class="st7" d="M226.7,70.4l-10.3,4.3c-1.5,0.6-3.2-0.1-3.8-1.6l0,0c-0.6-1.5,0.1-3.2,1.6-3.8l10.3-4.3
				c1.5-0.6,3.2,0.1,3.8,1.6l0,0C228.9,68,228.2,69.8,226.7,70.4z"/>
			<path class="st4" d="M215.8,73.5l10.3-4.3c1.3-0.6,2-2,1.7-3.4c-0.8-1-2.2-1.3-3.4-0.8l-10.3,4.3c-1.3,0.6-2,2-1.7,3.4
				C213.3,73.7,214.6,74,215.8,73.5z"/>
		</g>
		<g>
			<g>
				<polygon points="213.6,167.6 200.2,167.6 197.8,149.4 216,149.4 				"/>
				<path class="st19" d="M199,149.8c0-4.4,3.5-7.9,7.9-7.9c4.4,0,7.9,3.5,7.9,7.9"/>
			</g>
			<path class="st4" d="M212.3,150c0.1-0.1,0.1-0.3,0.1-0.6h-11c-0.2,1.2,0.3,2.6,0.8,2.7c0.6,0.1,0.9-1.9,1.6-1.8
				c0.6,0,1.4,1.3,0.8,4.4c-0.5,2.7,1.2,3.3,1.4,3.3c1.7-0.3,0.6-6.6,2.1-7c0.6-0.2,1.1,0.7,1.9,0.4c0.6-0.3,0.7-1,1.4-1.2
				C211.9,150,212.1,150.2,212.3,150z"/>
		</g>
		<g>
			<g>
				<g>
					<path class="st4" d="M223.8,133l8.6,1.5l6.5-3.3c0,0-0.6-4.6-0.6-5.8c0.1-3.1,1.6-9.9-0.6-14.9c-1.6-3.6-4.6-2-8.3-0.8
						l-4.2,0.5c0,0-6.8-4.1-2,14.8C223.5,127.2,223.8,133,223.8,133z"/>
					<g>
						<path class="st10" d="M227.4,96.6c-1.7,1.7-2.4,4.4-2.3,6.9c0.1,2.7,4.2,2.8,6.5,1.4c2-1.3,3.4-4,2.8-6.2
							C233.7,95.9,229.6,94.3,227.4,96.6z"/>
						<path class="st10" d="M226.5,97.8c0,0-1,1.2-1.9,1.5c0,0,0.2,0.8,0.9,1.1L226.5,97.8z"/>
					</g>
					<g>
						<path class="st4" d="M221.3,111.8l-2.2,8.3l-1.4,4.3l-8.3,14.6l2.6,1.7l10.5-14.8l1.6-4.6l6.2-12.2c0.5-1.4-2.5-1.4-4-1.9
							C225,106.9,222.3,108.8,221.3,111.8z"/>
						<path class="st10" d="M209.8,138.5c0,0-3.2,3.5-1,3.2c1.5-0.2,0.4-0.4,0.4-0.4s-2.2,1.9-1.2,1.9c0.9,0,2.9,0.8,3.4-0.5
							c0.6-1.6,0.9-2.5,0.9-2.5L209.8,138.5z"/>
						
							<rect x="210.4" y="136.6" transform="matrix(0.5629 -0.8265 0.8265 0.5629 -22.3647 235.4827)" class="st4" width="2" height="4.5"/>
					</g>
					<g>
						<g>
							<polygon class="st4" points="231,101.6 225.4,85.7 228.2,84.5 236,100.8 236.8,105.6 231.6,106.1 							"/>
							<path class="st4" d="M236,117.1c-1.5,0.2-2.9-0.8-3.1-2.3l-1.2-8.8l5.2-0.5l1.7,7.7C238.7,114.8,237.5,116.9,236,117.1z"/>
						</g>
						<path class="st10" d="M226.2,86c0,0-3.2-3.4-1.9-4.1l1,1.6c0,0-1.2-4.2-0.3-4c0.9,0.2,3,1.4,2.7,2.7c-0.2,1.6-0.4,3-0.4,3
							L226.2,86z"/>
						
							<rect x="226.1" y="83.9" transform="matrix(0.3711 0.9286 -0.9286 0.3711 222.5561 -156.9431)" class="st4" width="2" height="3.9"/>
					</g>
					<polygon class="st10" points="226.7,103.6 227.1,112.5 232,110.9 229.7,102.8 					"/>
					<path class="st9" d="M228.3,129c0.3-10.2-1-18.3-1.9-21.6c-0.6-0.2-1.4,0-2.2,0.5c0.8,3.1,2.1,10.4,1.8,21L228.3,129z"/>
				</g>
				<g>
					<g>
						<path class="st9" d="M240.3,138.7c1.1-7.8-1.9-13-1.9-13c-5,2.8-14.9,2.2-14.9,2.2L222,141l-0.8,14.5c0,0,0.3,8.1,3.7,18.9
							l3.9-0.6c0,0,0.7-7.7-0.6-18.6c0,0,1.9-7.8,3-11.9c0.1-0.3,1.2-0.7,1.3-0.9C232.6,142.5,238.3,142.2,240.3,138.7z"/>
						<path class="st9" d="M233.7,174.3l3.4-0.5c0,0,1.6-7.9,0-18.4c0,0,2.7-5.9,2.9-15.3c0.1-0.5,0.2-0.9,0.2-1.4
							c-1.9,3.4-7.7,3.7-7.7,3.7l-2.5,13.7C230.1,156.2,231.1,162.8,233.7,174.3z"/>
						<path class="st13" d="M234.5,142.2c-1.1,0.2-1.9,0.3-1.9,0.3l-2.5,13.7c0,0,1,6.5,3.6,18c0.4-0.3,0.7-0.6,0.9-1
							c0.3-0.8-0.2-1.3-0.8-3.8c-0.4-1.6-0.2-1.3-0.8-4.5c-0.5-2.4-0.7-3.6-1-4.2c-0.6-1.7-1.3-2.4-1-3.3c0.3-0.9,1.2-1,1.2-1.8
							c0-0.6-0.6-0.9-1-1.5c-0.8-1.4,0.8-3.7,1.2-4.4C233.5,148.3,234.4,146,234.5,142.2z"/>
					</g>
					<polygon class="st10" points="225,174.5 225.8,176.8 228.5,176.6 228.4,173.9 					"/>
					<g>
						<path class="st4" d="M220.8,180.4c0,0,0-1.6,3-2.1c1.6-0.3,0.8-1.4,0.8-1.4l3-0.9l-2.8,5L220.8,180.4z"/>
						<g>
							<path class="st9" d="M228.1,175.9c-2,0-1.9,1.7-2.2,2.8l0,0c0,0-1.4,2-4.4,1.8c0.7,0.1,1.9,0.3,2.8,0.4
								c0.9,0.1,1.9,0.1,2.7-0.2l1.7-0.5c1-0.5,2-4.2-0.5-4.3C228.2,175.9,228.2,175.9,228.1,175.9z"/>
							<path class="st7" d="M221,180.4c0.2,0,0.3,0,0.5,0.1C220.9,180.4,220.6,180.4,221,180.4z"/>
						</g>
					</g>
					<polygon class="st10" points="233.7,174.3 234.4,176.7 237.1,176.5 237.1,173.8 					"/>
					<g>
						<path class="st4" d="M229.5,180.3c0,0,0-1.6,3-2.1c1.6-0.3,0.8-1.4,0.8-1.4l3-0.9l-2.8,5L229.5,180.3z"/>
						<g>
							<path class="st9" d="M236.8,175.8c-2,0-1.9,1.7-2.2,2.8l0,0c0,0-1.4,2-4.4,1.8c0.7,0.1,1.9,0.3,2.8,0.4
								c0.9,0.1,1.9,0.1,2.7-0.2l1.7-0.5c1-0.5,2-4.2-0.5-4.3C236.9,175.8,236.8,175.8,236.8,175.8z"/>
							<path class="st7" d="M229.7,180.3c0.2,0,0.3,0,0.5,0.1C229.6,180.3,229.3,180.2,229.7,180.3z"/>
						</g>
					</g>
				</g>
				
					<rect x="224.2" y="172.9" transform="matrix(0.9941 -0.1083 0.1083 0.9941 -17.5036 25.5766)" class="st9" width="5.1" height="2.1"/>
				
					<rect x="232.9" y="172.4" transform="matrix(0.9941 -0.1083 0.1083 0.9941 -17.3981 26.5156)" class="st9" width="5.1" height="2.1"/>
				<path class="st1" d="M226.6,106.9l-0.1,1.5c0,0,2,0.7,3.2,0.3c1.2-0.4,1.7-1.5,1.7-1.5l-0.4-1.1
					C231,106.1,229.9,107.8,226.6,106.9z"/>
				<path class="st12" d="M227.6,94.5c0,0-2.9,2.6,0.7,5.3c0,0,1.3,1-0.6,3.3c-0.4,0.5-0.4,1.2,0,1.6c1.2,1.4,3.8,3.4,6.5-0.9
					c1.3-2,1.4-4.3,0.4-5.7c-1-1.3-2-2.1-3.5-2.6C229.6,95.1,228.8,95.2,227.6,94.5z"/>
				<path class="st12" d="M227.6,103.1c-3.4,3-3.2,7-3.2,7.6c0,3.3,3.3,5.9,3.4,6.6c0.2,2.1-3.2,6.5-2.7,8.7c0.7,3.2,6.3,4.3,11.9,2
					c6.3-2.6,7.1-11,1.5-16.8c-2.5-2.6-1.7-7.6-2.2-11.2c-0.3-2.2-0.9,0.1-2-1.5c-1.6-2.4-5.5-3.3-6.1-2.5c-0.6,0.7,1.9,2.5,1.4,4.6
					C229.3,101.7,228.9,101.9,227.6,103.1z"/>
				<path class="st10" d="M229.3,100.6c0.2,0.4,0,1-0.6,1.3c-0.5,0.3-1.2,0.2-1.4-0.3c-0.2-0.4,0-1,0.6-1.3
					C228.4,100,229.1,100.2,229.3,100.6z"/>
			</g>
		</g>
		<g>
			<g>
				<path class="st4" d="M236,101.6l-8.3-6.6c1.8-2.3,5.1-2.7,7.4-0.9C237.4,96,237.8,99.3,236,101.6"/>
			</g>
			<path class="st7" d="M233.3,93.2c0.6,0.2,1.2,0.5,1.8,0.9c2.3,1.8,2.7,5.1,0.9,7.4l-2.2-1.7C235.2,97.8,235,95,233.3,93.2z"/>
			
				<rect x="230.4" y="91.6" transform="matrix(0.598 -0.8015 0.8015 0.598 14.5485 224.5574)" class="st7" width="1.5" height="12.3"/>
		</g>
	</g>
</g>
</svg>
