<?xml version="1.0" encoding="utf-8"?>
<!-- Generator: Adobe Illustrator 25.3.1, SVG Export Plug-In . SVG Version: 6.00 Build 0)  -->
<svg version="1.1" id="Layer_1" xmlns="http://www.w3.org/2000/svg" xmlns:xlink="http://www.w3.org/1999/xlink" x="0px" y="0px"
	 width="515px" height="740px" viewBox="0 0 515 740" style="enable-background:new 0 0 515 740;" xml:space="preserve">
<style type="text/css">
	.st0{fill:url(#SVGID_1_);}
	.st1{fill:url(#SVGID_2_);}
</style>
<g>
	
		<image style="overflow:visible;opacity:0.75;" width="551" height="776" xlink:href="AD969AE0CD40938.png"  transform="matrix(1 0 0 1 -11.3146 -8)">
	</image>
	<g>
		<g>
			<g>
				<linearGradient id="SVGID_1_" gradientUnits="userSpaceOnUse" x1="187.666" y1="409.9045" x2="336.0097" y2="484.8311">
					<stop  offset="0" style="stop-color:#45D82B"/>
					<stop  offset="1" style="stop-color:#38A61C"/>
				</linearGradient>
				<path class="st0" d="M324.4,519.5c-10.6,11-25.8,18.2-45.4,21.7v29.2h-37.1v-27.9c-13.2-0.7-25.8-2.7-37.8-6.1
					c-12-3.3-22-7.5-29.9-12.4l20-45.3c8.8,5.1,18.6,9.2,29.5,12.2c10.9,3.1,21.3,4.6,31.3,4.6c8.6,0,14.7-0.8,18.4-2.5
					c3.7-1.7,5.5-4.2,5.5-7.5c0-3.9-2.4-6.8-7.2-8.7c-4.8-1.9-12.8-4-23.8-6.3c-14.2-3-26.1-6.2-35.6-9.6c-9.5-3.4-17.7-9-24.8-16.9
					c-7-7.8-10.5-18.4-10.5-31.7c0-15.4,5.6-28.7,16.7-39.8c11.1-11.1,27.2-18.1,48.1-21.1v-28.7H279v28.2
					c21.1,1.9,38.9,7,53.5,15.3l-18.7,45c-18.1-9.1-35.2-13.7-51.4-13.7c-16,0-24,3.9-24,11.6c0,3.7,2.4,6.5,7.1,8.3
					c4.7,1.8,12.6,3.8,23.4,5.9c14,2.6,25.9,5.7,35.6,9.1c9.7,3.4,18,9,25.2,16.7c7.1,7.7,10.7,18.3,10.7,31.6
					C340.4,495.6,335.1,508.5,324.4,519.5z"/>
			</g>
			<linearGradient id="SVGID_2_" gradientUnits="userSpaceOnUse" x1="57.5601" y1="275.1996" x2="505.2559" y2="501.5757">
				<stop  offset="0" style="stop-color:#45D82B"/>
				<stop  offset="1" style="stop-color:#38A61C"/>
			</linearGradient>
			<path class="st1" d="M482.6,380.2c-15.1-39.1-36.6-78.6-62.2-114c-24.9-34.5-52.6-63.8-80.1-84.7c-6.2-4.7-12.3-8.9-18.3-12.7
				c2.4-3.3,3.8-7.4,3.8-11.8v0c0-11.2-9-20.2-20.2-20.2h-4.6c4-6.5,8.1-13.8,12-21.5c20.4-40.3,27.6-72,27.6-88.3
				c0-7.8-3.6-12-6.7-14.2c-6.9-4.9-13.8-2.6-19.4-0.7c-7.7,2.6-23.8,8.1-57.4,8.1s-49.7-5.4-57.4-8.1c-5.6-1.9-12.5-4.2-19.4,0.7
				c-3.1,2.2-6.7,6.4-6.7,14.2c0,24.6,14.5,61.8,28,88.3c3.9,7.7,8,14.9,12,21.5h-5.9c-11.2,0-20.2,9-20.2,20.2v0
				c0,4.8,1.7,9.3,4.5,12.7c-35.8,23.2-70.6,60.5-96.8,96.4c-25.9,35.6-47.7,75-63.1,113.9c-17.2,43.8-26,85.6-26,124.2v0.2
				c0,19,0,76.9,31.6,130C56,665,81.5,689,113.8,706c38.4,20.2,86.6,30.4,143.4,30.4s105-10.2,143.4-30.4
				c32.2-16.9,57.8-41,75.9-71.4c13.5-22.8,22.8-49,27.7-78c3.9-23.3,3.9-42.7,3.9-52.1v-0.2C508,465.7,499.5,423.9,482.6,380.2z
				 M312,27.1l14.4,0L312,27.1C312,27.1,312,27.1,312,27.1z M225,97.8c-9.5-19.4-16.8-39.1-20.3-54.3c11.2,2.7,27.9,5.4,52.5,5.4
				c24.6,0,41.3-2.7,52.5-5.4c-3.5,15.3-10.7,35.2-20.2,54.6c-9,18.5-17.2,31-23.3,38.8h-17.7C242.4,129,234.1,116.4,225,97.8z
				 M479.3,504.6c0,17.1,0,69-27.5,115.3c-34.6,58.2-100.1,87.7-194.6,87.7s-160-29.5-194.6-87.7c-6.8-11.5-27.5-46.3-27.5-115.3
				v-0.2c0-35,8.1-73.3,24-113.7c14.4-36.7,35-73.9,59.5-107.5c41.4-56.8,89.6-97.1,125-105.9h27.8c15.3,3.7,32.8,12.8,51.5,27.1
				c25.3,19.3,50.9,46.5,74.2,78.7c51.5,71.2,82.2,154,82.2,221.3V504.6z"/>
		</g>
	</g>
</g>
</svg>
