<svg width="130" height="130" viewBox="0 0 130 130" fill="none" xmlns="http://www.w3.org/2000/svg">
<g filter="url(#filter0_d)">
<path d="M90.9379 68.6684H37.7101C35.8259 68.6684 34.295 67.1481 34.295 65.2769V39.4313C34.295 37.5601 35.8259 36.0398 37.7101 36.0398H90.9968C92.881 36.0398 94.4119 37.5601 94.4119 39.4313V65.2769C94.353 67.1481 92.8221 68.6684 90.9379 68.6684Z" fill="url(#paint0_linear)" stroke="url(#paint1_linear)" stroke-width="0.5" stroke-miterlimit="10"/>
<path d="M85.4031 23H43.1859V56.3303H85.4031V23Z" fill="url(#paint2_linear)" stroke="url(#paint3_linear)" stroke-miterlimit="10"/>
<path d="M103.008 63.4058H25.6396C24.2854 63.4058 23.1666 62.6457 23.1666 61.7685L26.6994 46.9746C26.6994 46.039 27.8182 45.3373 29.1724 45.3373H99.5344C100.889 45.3373 102.007 46.0974 102.007 46.9746L105.54 61.7685C105.481 62.7041 104.363 63.4058 103.008 63.4058Z" fill="url(#paint4_linear)"/>
<path d="M102.066 88.4913H26.5817C24.6975 88.4913 23.1666 86.971 23.1666 85.0998V62.1779C23.1666 60.3067 24.6975 58.7864 26.5817 58.7864H102.125C104.009 58.7864 105.54 60.3067 105.54 62.1779V85.0998C105.481 86.971 103.95 88.4913 102.066 88.4913Z" fill="url(#paint5_linear)" stroke="url(#paint6_linear)" stroke-width="0.5" stroke-miterlimit="10"/>
<path d="M87.1106 67.0312C88.2488 67.0312 89.1714 66.1149 89.1714 64.9846C89.1714 63.8543 88.2488 62.938 87.1106 62.938C85.9725 62.938 85.0498 63.8543 85.0498 64.9846C85.0498 66.1149 85.9725 67.0312 87.1106 67.0312Z" fill="url(#paint7_radial)"/>
<path d="M86.8751 66.9142C88.0133 66.9142 88.936 65.998 88.936 64.8676C88.936 63.7373 88.0133 62.821 86.8751 62.821C85.737 62.821 84.8143 63.7373 84.8143 64.8676C84.8143 65.998 85.737 66.9142 86.8751 66.9142Z" fill="url(#paint8_radial)"/>
<path d="M94.294 67.0312C95.4321 67.0312 96.3548 66.1149 96.3548 64.9846C96.3548 63.8543 95.4321 62.938 94.294 62.938C93.1558 62.938 92.2332 63.8543 92.2332 64.9846C92.2332 66.1149 93.1558 67.0312 94.294 67.0312Z" fill="url(#paint9_radial)"/>
<path d="M94.0585 66.9142C95.1966 66.9142 96.1193 65.998 96.1193 64.8676C96.1193 63.7373 95.1966 62.821 94.0585 62.821C92.9203 62.821 91.9977 63.7373 91.9977 64.8676C91.9977 65.998 92.9203 66.9142 94.0585 66.9142Z" fill="url(#paint10_radial)"/>
<path d="M95.2362 85.1581H31.6455C30.9389 85.1581 30.3501 84.5733 30.3501 83.8716V78.6674C30.3501 77.9657 30.9389 77.381 31.6455 77.381H95.2362C95.9428 77.381 96.5316 77.9657 96.5316 78.6674V83.8716C96.5316 84.5733 95.9428 85.1581 95.2362 85.1581Z" fill="#0B1516" stroke="url(#paint11_linear)" stroke-width="0.5" stroke-miterlimit="10"/>
<path d="M97.768 98.7241H29.0547L36.5325 79.603H90.2902L97.768 98.7241Z" fill="url(#paint12_linear)" stroke="url(#paint13_linear)" stroke-miterlimit="10"/>
</g>
<defs>
<filter id="filter0_d" x="14.9166" y="14.5" width="114.874" height="108.724" filterUnits="userSpaceOnUse" color-interpolation-filters="sRGB">
<feFlood flood-opacity="0" result="BackgroundImageFix"/>
<feColorMatrix in="SourceAlpha" type="matrix" values="0 0 0 0 0 0 0 0 0 0 0 0 0 0 0 0 0 0 127 0" result="hardAlpha"/>
<feOffset dx="8" dy="8"/>
<feGaussianBlur stdDeviation="8"/>
<feComposite in2="hardAlpha" operator="out"/>
<feColorMatrix type="matrix" values="0 0 0 0 0 0 0 0 0 0 0 0 0 0 0 0 0 0 0.35 0"/>
<feBlend mode="normal" in2="BackgroundImageFix" result="effect1_dropShadow"/>
<feBlend mode="normal" in="SourceGraphic" in2="effect1_dropShadow" result="shape"/>
</filter>
<linearGradient id="paint0_linear" x1="34.2635" y1="52.3688" x2="94.3745" y2="52.3688" gradientUnits="userSpaceOnUse">
<stop offset="0.5161" stop-color="#C1D7DB"/>
<stop offset="1" stop-color="#88B5B5"/>
</linearGradient>
<linearGradient id="paint1_linear" x1="34.1163" y1="52.3688" x2="94.5217" y2="52.3688" gradientUnits="userSpaceOnUse">
<stop offset="0.3148" stop-color="#E3FAFA"/>
<stop offset="0.5322" stop-color="#E1F8F8"/>
<stop offset="0.649" stop-color="#D9F1F1"/>
<stop offset="0.742" stop-color="#CBE4E4"/>
<stop offset="0.8224" stop-color="#B8D3D3"/>
<stop offset="0.8947" stop-color="#9FBCBC"/>
<stop offset="0.9602" stop-color="#80A0A0"/>
<stop offset="1" stop-color="#6A8C8C"/>
</linearGradient>
<linearGradient id="paint2_linear" x1="43.1961" y1="39.6673" x2="85.4418" y2="39.6673" gradientUnits="userSpaceOnUse">
<stop stop-color="white"/>
<stop offset="1" stop-color="#E6F5F5"/>
</linearGradient>
<linearGradient id="paint3_linear" x1="42.9017" y1="39.6673" x2="85.7362" y2="39.6673" gradientUnits="userSpaceOnUse">
<stop stop-color="white"/>
<stop offset="1" stop-color="#D7DBDB"/>
</linearGradient>
<linearGradient id="paint4_linear" x1="23.1372" y1="54.3841" x2="105.501" y2="54.3841" gradientUnits="userSpaceOnUse">
<stop offset="0.0946594" stop-color="#F5FFFF"/>
<stop offset="1" stop-color="#F0FFFF"/>
</linearGradient>
<linearGradient id="paint5_linear" x1="23.1372" y1="73.6123" x2="105.501" y2="73.6123" gradientUnits="userSpaceOnUse">
<stop offset="0.5161" stop-color="#C1D7DB"/>
<stop offset="1" stop-color="#88B5B5"/>
</linearGradient>
<linearGradient id="paint6_linear" x1="22.99" y1="73.6123" x2="105.648" y2="73.6123" gradientUnits="userSpaceOnUse">
<stop offset="0.3148" stop-color="#E3FAFA"/>
<stop offset="0.5322" stop-color="#E1F8F8"/>
<stop offset="0.649" stop-color="#D9F1F1"/>
<stop offset="0.742" stop-color="#CBE4E4"/>
<stop offset="0.8224" stop-color="#B8D3D3"/>
<stop offset="0.8947" stop-color="#9FBCBC"/>
<stop offset="0.9602" stop-color="#80A0A0"/>
<stop offset="1" stop-color="#6A8C8C"/>
</linearGradient>
<radialGradient id="paint7_radial" cx="0" cy="0" r="1" gradientUnits="userSpaceOnUse" gradientTransform="translate(87.1215 64.9738) scale(2.56895 2.55123)">
<stop offset="0.0313947" stop-color="#FEFEFE"/>
<stop offset="0.1637" stop-color="#B7BBBE"/>
<stop offset="0.5541" stop-color="#AEB7BF"/>
<stop offset="1" stop-color="#828B8F"/>
</radialGradient>
<radialGradient id="paint8_radial" cx="0" cy="0" r="1" gradientUnits="userSpaceOnUse" gradientTransform="translate(86.8588 64.8578) scale(2.56895 2.55124)">
<stop offset="0.0313947" stop-color="#FEFEFE"/>
<stop offset="0.1637" stop-color="#F5FAFE"/>
<stop offset="0.5541" stop-color="#E8F4FF"/>
<stop offset="1" stop-color="#BCC9CF"/>
</radialGradient>
<radialGradient id="paint9_radial" cx="0" cy="0" r="1" gradientUnits="userSpaceOnUse" gradientTransform="translate(94.2959 64.9738) scale(2.56895 2.55123)">
<stop offset="0.0313947" stop-color="#FEFEFE"/>
<stop offset="0.1637" stop-color="#B7BBBE"/>
<stop offset="0.5541" stop-color="#AEB7BF"/>
<stop offset="1" stop-color="#828B8F"/>
</radialGradient>
<radialGradient id="paint10_radial" cx="0" cy="0" r="1" gradientUnits="userSpaceOnUse" gradientTransform="translate(94.0333 64.8578) scale(2.56895 2.55124)">
<stop offset="0.0313947" stop-color="#FEFEFE"/>
<stop offset="0.1637" stop-color="#F5FAFE"/>
<stop offset="0.5541" stop-color="#E8F4FF"/>
<stop offset="1" stop-color="#BCC9CF"/>
</radialGradient>
<linearGradient id="paint11_linear" x1="30.1736" y1="81.2469" x2="96.6671" y2="81.2469" gradientUnits="userSpaceOnUse">
<stop offset="0.3148" stop-color="#E3FAFA"/>
<stop offset="0.5322" stop-color="#E1F8F8"/>
<stop offset="0.649" stop-color="#D9F1F1"/>
<stop offset="0.742" stop-color="#CBE4E4"/>
<stop offset="0.8224" stop-color="#B8D3D3"/>
<stop offset="0.8947" stop-color="#9FBCBC"/>
<stop offset="0.9602" stop-color="#80A0A0"/>
<stop offset="1" stop-color="#6A8C8C"/>
</linearGradient>
<linearGradient id="paint12_linear" x1="29.0557" y1="89.1768" x2="97.7849" y2="89.1768" gradientUnits="userSpaceOnUse">
<stop stop-color="white"/>
<stop offset="1" stop-color="#E6F5F5"/>
</linearGradient>
<linearGradient id="paint13_linear" x1="28.6254" y1="89.1768" x2="98.2152" y2="89.1768" gradientUnits="userSpaceOnUse">
<stop stop-color="white"/>
<stop offset="1" stop-color="#D7DBDB"/>
</linearGradient>
</defs>
</svg>
