<?xml version="1.0" encoding="utf-8"?>
<!-- Generator: Adobe Illustrator 25.3.1, SVG Export Plug-In . SVG Version: 6.00 Build 0)  -->
<svg version="1.1" id="Layer_1" xmlns="http://www.w3.org/2000/svg" xmlns:xlink="http://www.w3.org/1999/xlink" x="0px" y="0px"
	 width="512px" height="512px" viewBox="0 0 512 512" style="enable-background:new 0 0 512 512;" xml:space="preserve">
<style type="text/css">
	.st0{fill:url(#SVGID_1_);stroke:url(#SVGID_2_);stroke-miterlimit:10;}
</style>
<g id="surface1">
	
		<image style="overflow:visible;opacity:0.75;" width="786" height="886" xlink:href="9808832F3F3B58BC.png"  transform="matrix(1 0 0 1 -130 -230)">
	</image>
	<g>
		<g>
			<linearGradient id="SVGID_1_" gradientUnits="userSpaceOnUse" x1="251.5831" y1="-197.2403" x2="257.7951" y2="423.9692">
				<stop  offset="0" style="stop-color:#2EDCFF"/>
				<stop  offset="1" style="stop-color:#1C63EB"/>
			</linearGradient>
			<linearGradient id="SVGID_2_" gradientUnits="userSpaceOnUse" x1="256.4642" y1="633.5806" x2="255.5422" y2="-221.5908">
				<stop  offset="0" style="stop-color:#0050EB"/>
				<stop  offset="1" style="stop-color:#2E74FF"/>
			</linearGradient>
			<path class="st0" d="M598.8,2.8H444.4c-6,0-11,5-11,11s5,11,11,11h154.4c6.6,0,11.9,5.3,11.9,11.9V462c0,6.6-5.3,11.9-11.9,11.9
				H-86.9c-6.6,0-11.9-5.3-11.9-11.9V36.8c0-6.6,5.3-11.9,11.9-11.9h242.6V47H-65.7c-6,0-11,5-11,11v291.8c0,6,5,11,11,11
				s11-5,11-11V69h210.4v59.2l-47.3,22.5c-3.8,1.8-6.3,5.7-6.3,10v180c0,4.3,2.5,8.1,6.3,10L251.3,419c3.1,1.5,6.6,1.3,9.6,0
				l80.2-38.4c5.4-2.6,7.8-9.3,5.2-14.7c-2.6-5.4-9.3-7.8-14.7-5.2L267,391.4V236l120.7-57.7v155.6l-16.3,7.8
				c-5.4,2.6-7.8,9.3-5.2,14.7c2.6,5.4,9.3,7.8,14.7,5.2l22.7-10.9c3.8-1.8,6.3-5.7,6.3-10V160.8c0-4.3-2.5-8.1-6.3-10l-47.3-22.5
				V69h210.2v360.7H-54.7v-32.8c0-6-5-11-11-11s-11,5-11,11v43.9c0,6,5,11,11,11h643.3c6,0,11-5,11-11V58c0-6-5-11-11-11H356.2V24.9
				h41.1c6,0,11-5,11-11s-5-11-11-11h-41.1v-122.1h98.9c6,0,11-5,11-11v-26.2c12.8-4.6,22.1-16.8,22.1-31.2
				c0-18.3-14.9-33.1-33.1-33.1S422-206,422-187.8c0,14.4,9.3,26.6,22.1,31.2v15.2h-98.9c-6,0-11,5-11,11V2.8H267v-159.3
				c12.8-4.6,22.1-16.8,22.1-31.2c0-18.3-14.9-33.1-33.1-33.1s-33.1,14.9-33.1,33.1c0,14.4,9.3,26.6,22.1,31.2V2.8h-67.1v-133.1
				c0-6-5-11-11-11H67.8v-15.2c12.8-4.6,22.1-16.8,22.1-31.2c-0.1-18.3-15-33.1-33.3-33.1S23.5-206,23.5-187.8
				c0,14.4,9.3,26.6,22.1,31.2v26.2c0,6,5,11,11,11h98.9V2.8H-86.9c-18.7,0-34,15.3-34,34V462c0,18.7,15.3,34,34,34h239.4
				c-4.3,40.5-31.1,64.2-39.5,70.7h-47c-18.3,0-33.1,14.9-33.1,33.1s14.9,33.1,33.1,33.1h379.8c18.3,0,33.1-14.9,33.1-33.1
				s-14.9-33.1-33.1-33.1h-46.8c-8.4-6.5-35.2-30.3-39.5-70.7H599c18.7,0,34-15.3,34-34V36.8C632.9,18.1,617.5,2.8,598.8,2.8z
				 M455.3-198.8c6,0,11,5,11,11c0,6-5,11-11,11s-11-5-11-11C444.3-193.8,449.1-198.8,455.3-198.8z M256-198.8c6,0,11,5,11,11
				c0,6-5,11-11,11s-11-5-11-11C244.9-193.8,249.9-198.8,256-198.8z M56.6-198.8c6,0,11,5,11,11c0,6-5,11-11,11s-11-5-11-11
				C45.6-193.8,50.6-198.8,56.6-198.8z M177.8,69h67.1v16.6l-67.1,32.1V69z M373.2,160.8L256,216.7l-117.2-55.9L256,104.8
				L373.2,160.8z M124.2,178.3L244.9,236v155.6l-120.7-57.7V178.3z M334.1,117.8L267,85.7V69h67.1V117.8z M334.1,24.9V47H267V24.9
				H334.1z M244.9,24.9V47h-67.1V24.9H244.9z M456.9,599.8c0,6-5,11-11,11H66.1c-6,0-11-5-11-11c0-6,5-11,11-11h379.8
				C451.9,588.7,456.9,593.7,456.9,599.8z M367.3,566.6H144.7c13-15.2,27.2-38.7,30-70.7h162.5C340,527.9,354.3,551.5,367.3,566.6z"
				/>
		</g>
	</g>
</g>
</svg>
