<?xml version="1.0" encoding="utf-8"?>
<!-- Generator: Adobe Illustrator 25.2.3, SVG Export Plug-In . SVG Version: 6.00 Build 0)  -->
<svg version="1.1" id="Capa_1" xmlns="http://www.w3.org/2000/svg" xmlns:xlink="http://www.w3.org/1999/xlink" x="0px" y="0px"
	 width="512px" height="512px" viewBox="0 0 512 512" style="enable-background:new 0 0 512 512;" xml:space="preserve">
<style type="text/css">
	.st0{fill:#00A8A8;}
</style>
<g>
	<g>
		<path class="st0" d="M474.7,39.6H37.3C16.7,39.6,0,56.4,0,76.9v358.1c0,20.6,16.7,37.3,37.3,37.3h437.4
			c20.6,0,37.3-16.7,37.3-37.3V76.9C512,56.4,495.3,39.6,474.7,39.6L474.7,39.6z M497,123H117.8c-4.1,0-7.5,3.4-7.5,7.5
			c0,4.1,3.4,7.5,7.5,7.5H497v297.1c0,12.3-10,22.3-22.3,22.3H37.3c-12.3,0-22.3-10-22.3-22.3V138h67.7c4.1,0,7.5-3.4,7.5-7.5
			s-3.4-7.5-7.5-7.5H15V76.9c0-12.3,10-22.3,22.3-22.3h437.4c12.3,0,22.3,10,22.3,22.3L497,123L497,123z"/>
		<circle class="st0" cx="65.1" cy="88.8" r="7.5"/>
		<circle class="st0" cx="100.3" cy="88.8" r="7.5"/>
		<circle class="st0" cx="135.5" cy="88.8" r="7.5"/>
		<path class="st0" d="M454.4,81.3h-43.9c-4.1,0-7.5,3.4-7.5,7.5s3.4,7.5,7.5,7.5h43.9c4.1,0,7.5-3.4,7.5-7.5S458.6,81.3,454.4,81.3
			z"/>
		<path class="st0" d="M196.4,322.9c0,4.1,3.3,7.4,7.4,7.4c4.1,0,7.4-3.3,7.4-7.4s-3.3-7.4-7.4-7.4
			C199.7,315.5,196.4,318.8,196.4,322.9z"/>
		<path class="st0" d="M301.1,322.9c0,4.1,3.3,7.4,7.4,7.4s7.4-3.3,7.4-7.4s-3.3-7.4-7.4-7.4S301.1,318.8,301.1,322.9z"/>
		<path class="st0" d="M176.7,274.4l-9,25.6l-8.8-25.9c0,0,0,0,0-0.1c-2.4-6.7-11.7-6.6-14.1-0.1c0,0,0,0,0,0.1l-9.3,26.2l-8.8-25.7
			c-1.3-3.9-5.6-6-9.5-4.7c-3.9,1.3-6,5.6-4.7,9.5l15.8,46c1,3,3.9,5,7.1,5.1h0c3.2,0,6-2,7.1-5l9.3-26.1l8.9,26
			c1,3,3.9,5.1,7.1,5.1h0c3.2,0,6-2,7.1-5l16.1-46.1c1.4-3.9-0.7-8.2-4.6-9.6C182.4,268.4,178.1,270.4,176.7,274.4L176.7,274.4z"/>
		<path class="st0" d="M281.1,274.4l-9,25.6l-8.8-25.9c0,0,0,0,0-0.1c-2.3-6.6-11.7-6.7-14.1-0.1c0,0,0,0,0,0.1l-9.3,26.2l-8.8-25.7
			c-1.3-3.9-5.6-6-9.5-4.7c-3.9,1.3-6,5.6-4.7,9.5l15.8,46c1,3,3.9,5,7.1,5.1h0c3.2,0,6-2,7.1-5l9.3-26.1l8.9,26.1
			c1,3,3.9,5.1,7.1,5.1h0c3.2,0,6-2,7.1-5l16.1-46.1c1.4-3.9-0.7-8.2-4.6-9.6C286.7,268.4,282.5,270.4,281.1,274.4L281.1,274.4z"/>
		<path class="st0" d="M385.5,274.4l-9,25.6l-8.8-25.9c-2.3-6.8-11.7-6.7-14.1-0.1c0,0,0,0,0,0.1l-9.3,26.2l-8.8-25.7
			c-1.3-3.9-5.6-6-9.5-4.7c-3.9,1.3-6,5.6-4.7,9.5l15.8,46c1,3,3.9,5,7,5.1h0c3.2,0,6-2,7.1-5l9.3-26.1l8.9,26.1
			c1,3,3.9,5.1,7.1,5.1h0c3.2,0,6-2,7.1-5l16.1-46.1c1.4-3.9-0.7-8.2-4.6-9.6C391.1,268.4,386.8,270.4,385.5,274.4z"/>
		<path class="st0" d="M59,253.1v93.1c0,15.5,12.6,28.2,28.2,28.2h52.6c25.5,39.6,69.1,63.5,116.3,63.5c47.1,0,90.7-23.9,116.3-63.5
			h54.3c15.5,0,28.2-12.6,28.2-28.2v-29.9c0-4.1-3.4-7.5-7.5-7.5s-7.5,3.4-7.5,7.5v29.9c0,7.3-5.9,13.2-13.2,13.2H87.2
			c-7.3,0-13.2-5.9-13.2-13.2v-93.1c0-7.3,5.9-13.2,13.2-13.2h339.4c7.3,0,13.2,5.9,13.2,13.2V281c0,4.1,3.4,7.5,7.5,7.5
			s7.5-3.4,7.5-7.5v-27.9c0-15.5-12.6-28.2-28.2-28.2h-54.3c-25.5-39.6-69.1-63.5-116.3-63.5c-47.1,0-90.7,23.9-116.3,63.5H87.2
			C71.6,225,59,237.6,59,253.1L59,253.1z M323.7,374.4h30.2c-13.3,17.4-31.2,31.4-52.6,39.8C311.2,402.7,318.5,388.6,323.7,374.4z
			 M263.5,374.4h44.1c-8.2,20-23.1,42.9-44.1,47.6V374.4z M248.5,374.4V422c-21.1-4.7-35.9-27.6-44.1-47.6H248.5z M188.3,374.4
			c5.2,14.2,12.6,28.3,22.4,39.8c-21.4-8.4-39.3-22.4-52.6-39.8H188.3z M353.9,225h-30.2c-5.3-14.2-12.6-28.3-22.4-39.8
			C322.8,193.6,340.6,207.6,353.9,225L353.9,225z M263.5,177.3c21.1,4.7,35.9,27.6,44.1,47.6h-44.1V177.3z M248.5,177.3V225h-44.1
			C212.6,205,227.4,182.1,248.5,177.3z M210.7,185.1c-9.8,11.5-17.2,25.6-22.4,39.8h-30.2C171.3,207.6,189.2,193.6,210.7,185.1z"/>
	</g>
</g>
</svg>
