<svg width="129" height="108" viewBox="0 0 129 108" fill="none" xmlns="http://www.w3.org/2000/svg">
<rect x="8.25" y="4.67287" width="3.875" height="3.625" fill="black"/>
<rect x="14.6572" y="4.67287" width="3.875" height="3.625" fill="black"/>
<rect x="21.0642" y="4.67287" width="3.875" height="3.625" fill="black"/>
<rect opacity="0.5" x="8.25" y="23.4229" width="111.667" height="77.25" fill="#84BD00"/>
<rect x="1.18945" y="1.42285" width="126.811" height="10.5" stroke="black"/>
<rect x="1.18945" y="16.7775" width="126.811" height="90.6454" stroke="black"/>
<path d="M54.6863 49.2865C57.7084 46.2645 61.7263 44.6002 66 44.6002C70.2738 44.6002 74.2917 46.2645 77.3137 49.2865C80.3357 52.3085 82 56.3264 82 60.6002C82 64.8739 80.3357 68.8918 77.3137 71.9138C74.2917 74.9359 70.2738 76.6001 66 76.6001C61.7263 76.6001 57.7084 74.9359 54.6863 71.9138C51.6643 68.8918 50.0001 64.8739 50.0001 60.6002C50.0001 56.3264 51.6643 52.3085 54.6863 49.2865ZM57.3156 59.6985C57.3918 57.1081 57.7956 54.631 58.4888 52.4448C57.3586 52.1248 56.3079 51.7276 55.3264 51.2505C53.32 53.5382 52.036 56.4739 51.8328 59.6985H57.3156ZM66.9017 74.6686C68.3035 74.2712 69.6313 72.9551 70.7119 70.8626C70.8501 70.5945 70.9802 70.3224 71.1022 70.0465C70.3279 69.8995 69.5206 69.7837 68.6793 69.702C68.0881 69.6448 67.4953 69.6061 66.9017 69.5859V74.6686ZM65.0984 69.5826C63.674 69.6264 62.2708 69.7814 60.8982 70.0471C61.0201 70.3227 61.1501 70.5947 61.2882 70.8626C62.3687 72.955 63.6965 74.2712 65.0984 74.6685V69.5826ZM66.9017 67.7817C67.5495 67.8027 68.2003 67.8436 68.8536 67.9071C69.8629 68.005 70.8298 68.149 71.7538 68.3365C72.4164 66.297 72.8041 63.9603 72.8805 61.5018H66.9017V67.7817ZM72.8804 59.6985C72.8041 57.2396 72.4162 54.9027 71.7534 52.8629C70.1697 53.1882 68.5483 53.3747 66.9017 53.4223V59.6985H72.8804ZM66.9017 51.6185C68.3261 51.5746 69.7294 51.4192 71.1022 51.1537C70.9802 50.8779 70.85 50.6058 70.7119 50.3377C69.6313 48.2452 68.3036 46.9289 66.9017 46.5317V51.6185ZM65.0984 46.5317C63.6965 46.929 62.3687 48.2452 61.2882 50.3377C61.1493 50.6072 61.0185 50.8808 60.896 51.1581C61.5918 51.2888 62.3188 51.3939 63.0793 51.474C63.7505 51.5444 64.4239 51.5911 65.0983 51.614V46.5317H65.0984ZM59.6859 49.5104C60.1279 48.6544 60.6147 47.9033 61.1374 47.2616C59.4905 47.8639 57.9856 48.763 56.6872 49.8939C57.4459 50.2261 58.2526 50.509 59.1108 50.7458C59.2902 50.3183 59.4818 49.9056 59.6859 49.5104ZM72.3142 49.5104C72.5173 49.9036 72.708 50.3142 72.8866 50.7393C73.756 50.5006 74.5612 50.2201 75.3128 49.8939C74.0145 48.7631 72.5096 47.8639 70.8627 47.2617C71.3854 47.9033 71.8722 48.6544 72.3142 49.5104ZM73.5092 52.4384C74.2037 54.6261 74.6082 57.1055 74.6845 59.6985H80.1672C79.9641 56.4748 78.6809 53.54 76.6754 51.2525C75.7034 51.7226 74.6555 52.1156 73.5092 52.4384ZM74.6845 61.5018C74.6082 64.0942 74.2039 66.573 73.5097 68.7604C74.6437 69.0818 75.6989 69.4797 76.6728 69.9508C78.6798 67.6629 79.9641 64.7268 80.1672 61.5018H74.6845ZM72.8872 70.4594C72.7125 70.8769 72.5213 71.2875 72.3142 71.69C71.8722 72.5459 71.3854 73.297 70.8628 73.9387C72.5089 73.3367 74.0133 72.438 75.3112 71.3079C74.5558 70.9793 73.7465 70.6967 72.8872 70.4594ZM59.1142 70.4628C58.2599 70.6997 57.4501 70.9835 56.6924 71.3111C57.9896 72.4397 59.4927 73.3373 61.1373 73.9387C60.6147 73.297 60.1279 72.5459 59.6858 71.69C59.483 71.2972 59.2926 70.8873 59.1142 70.4628ZM60.2466 68.3372C61.8301 68.0117 63.4518 67.8259 65.0984 67.7784V61.5018H59.1196C59.196 63.9607 59.5838 66.2975 60.2466 68.3372ZM65.0984 59.6985V53.4187C64.3609 53.395 63.6244 53.3445 62.8906 53.2673C61.9653 53.17 61.0857 53.036 60.2453 52.8671C59.5833 54.9058 59.1959 57.2412 59.1196 59.6985H65.0984ZM55.3342 69.9586L55.3297 69.9492C56.3047 69.4811 57.3643 69.0841 58.4914 68.7636C57.7966 66.5755 57.3919 64.0955 57.3156 61.5017H51.8329C52.0363 64.7306 53.3233 67.6696 55.3342 69.9586Z" fill="black"/>
</svg>
