<?xml version="1.0" encoding="utf-8"?>
<!-- Generator: Adobe Illustrator 27.3.1, SVG Export Plug-In . SVG Version: 6.00 Build 0)  -->
<svg version="1.1" id="Layer_1" xmlns="http://www.w3.org/2000/svg" xmlns:xlink="http://www.w3.org/1999/xlink" x="0px" y="0px"
	 width="24px" height="24px" viewBox="0 0 24 24" style="enable-background:new 0 0 24 24;" xml:space="preserve">
<g>
	<g>
		<path d="M20.3,19.9l-6.4-9.3l-0.7-1.1L8.6,2.9L8.2,2.3H2.5l1.4,2l6.1,8.9l0.7,1.1l4.9,7.1l0.4,0.6h5.6L20.3,19.9z M16.7,20.6
			l-5.1-7.4l-0.7-1.1L5,3.6h2.5l4.8,6.9l0.7,1.1l6.2,9H16.7z"/>
		<polygon points="10.9,12.2 11.6,13.2 10.7,14.2 4.1,21.9 2.5,21.9 10,13.2 		"/>
		<polygon points="21,2.3 13.9,10.6 13,11.6 12.3,10.5 13.1,9.5 18,3.9 19.4,2.3 		"/>
	</g>
</g>
</svg>
